M48
;DRILL file {KiCad 4.0.7} date 02/25/18 20:53:52
;FORMAT={-:-/ absolute / inch / decimal}
FMAT,2
INCH,TZ
T1C0.028
T2C0.031
T3C0.039
%
G90
G05
M72
T1
X4.7Y-1.65
X5.Y-1.65
T2
X4.25Y-2.15
X4.25Y-2.25
X4.25Y-2.8
X4.25Y-2.9
X4.4516Y-1.65
X4.55Y-1.65
X4.9Y-1.45
X5.Y-1.45
X5.15Y-1.8
X5.15Y-2.1
X5.15Y-2.25
X5.15Y-2.55
X5.55Y-1.8
X5.55Y-2.1
X5.55Y-2.25
X5.55Y-2.55
X6.55Y-2.2
X6.55Y-2.3
T3
X4.55Y-1.95
X4.55Y-2.15
X4.55Y-2.35
X4.75Y-1.95
X4.75Y-2.15
X4.75Y-2.35
X5.3547Y-3.0319
X5.3547Y-3.2327
X5.5555Y-3.0319
X5.5555Y-3.2327
X5.7563Y-3.0319
X5.7563Y-3.2327
X5.9571Y-3.0319
X5.9571Y-3.2327
X6.05Y-1.9
X6.05Y-2.1
X6.05Y-2.3
X6.25Y-1.9
X6.25Y-2.1
X6.25Y-2.3
T0
M30
