G04 #@! TF.FileFunction,Copper,L2,Bot,Signal*
%FSLAX46Y46*%
G04 Gerber Fmt 4.6, Leading zero omitted, Abs format (unit mm)*
G04 Created by KiCad (PCBNEW 4.0.7) date 02/26/18 19:34:29*
%MOMM*%
%LPD*%
G01*
G04 APERTURE LIST*
%ADD10C,0.100000*%
%ADD11R,2.000000X2.000000*%
%ADD12O,2.000000X2.000000*%
%ADD13C,1.600000*%
%ADD14R,1.600000X1.600000*%
%ADD15O,1.600000X1.600000*%
%ADD16R,1.800000X1.800000*%
%ADD17C,1.800000*%
%ADD18C,1.400000*%
%ADD19O,1.400000X1.400000*%
%ADD20C,2.000000*%
%ADD21R,1.800000X1.270000*%
%ADD22C,3.000000*%
%ADD23C,1.500000*%
%ADD24C,0.800000*%
%ADD25C,0.254000*%
G04 APERTURE END LIST*
D10*
D11*
X136010000Y-78280000D03*
D12*
X141110000Y-78280000D03*
X146210000Y-78280000D03*
X151310000Y-78280000D03*
X136010000Y-83380000D03*
X141110000Y-83380000D03*
X146210000Y-83380000D03*
X151310000Y-83380000D03*
D13*
X115570000Y-39370000D03*
X113070000Y-39370000D03*
D14*
X130810000Y-50800000D03*
D15*
X130810000Y-43180000D03*
D14*
X140970000Y-54610000D03*
D15*
X140970000Y-62230000D03*
D14*
X130810000Y-62230000D03*
D15*
X130810000Y-54610000D03*
D14*
X140970000Y-43180000D03*
D15*
X140970000Y-50800000D03*
D16*
X107950000Y-52070000D03*
D17*
X107950000Y-54610000D03*
D16*
X107950000Y-68580000D03*
D17*
X107950000Y-71120000D03*
D16*
X127000000Y-34290000D03*
D17*
X124460000Y-34290000D03*
D16*
X166370000Y-55880000D03*
D17*
X166370000Y-53340000D03*
D18*
X127000000Y-39370000D03*
D19*
X119380000Y-39370000D03*
D11*
X115570000Y-46990000D03*
D20*
X120650000Y-46990000D03*
X115570000Y-52070000D03*
X120650000Y-57150000D03*
X120650000Y-52070000D03*
X115570000Y-57150000D03*
D11*
X158750000Y-55880000D03*
D20*
X153670000Y-55880000D03*
X158750000Y-50800000D03*
X153670000Y-45720000D03*
X153670000Y-50800000D03*
X158750000Y-45720000D03*
D21*
X117570000Y-81280000D03*
X117570000Y-83820000D03*
X117570000Y-86360000D03*
X122650000Y-86360000D03*
X122650000Y-83820000D03*
X122650000Y-81280000D03*
D22*
X105000000Y-35000000D03*
X170000000Y-35000000D03*
X170000000Y-90000000D03*
X105000000Y-90000000D03*
D23*
X115570000Y-39370000D02*
X115570000Y-46990000D01*
X119380000Y-39370000D02*
X115570000Y-39370000D01*
X130810000Y-50800000D02*
X129540000Y-50800000D01*
X138430000Y-62230000D02*
X140970000Y-62230000D01*
X134620000Y-58420000D02*
X138430000Y-62230000D01*
X129540000Y-58420000D02*
X134620000Y-58420000D01*
X128270000Y-57150000D02*
X129540000Y-58420000D01*
X128270000Y-52070000D02*
X128270000Y-57150000D01*
X129540000Y-50800000D02*
X128270000Y-52070000D01*
X153670000Y-55880000D02*
X153670000Y-60960000D01*
X152400000Y-62230000D02*
X140970000Y-62230000D01*
X153670000Y-60960000D02*
X152400000Y-62230000D01*
X125730000Y-46990000D02*
X120650000Y-46990000D01*
X130810000Y-43180000D02*
X127000000Y-43180000D01*
X127000000Y-62230000D02*
X130810000Y-62230000D01*
X125730000Y-60960000D02*
X127000000Y-62230000D01*
X125730000Y-44450000D02*
X125730000Y-46990000D01*
X125730000Y-46990000D02*
X125730000Y-60960000D01*
X127000000Y-43180000D02*
X125730000Y-44450000D01*
X140970000Y-53340000D02*
X154940000Y-53340000D01*
X120650000Y-62230000D02*
X120650000Y-57150000D01*
X125730000Y-67310000D02*
X120650000Y-62230000D01*
X153670000Y-67310000D02*
X125730000Y-67310000D01*
X156210000Y-64770000D02*
X153670000Y-67310000D01*
X156210000Y-54610000D02*
X156210000Y-64770000D01*
X154940000Y-53340000D02*
X156210000Y-54610000D01*
X140970000Y-50800000D02*
X140970000Y-53340000D01*
X140970000Y-53340000D02*
X140970000Y-54610000D01*
X140970000Y-43180000D02*
X135890000Y-43180000D01*
X133350000Y-54610000D02*
X130810000Y-54610000D01*
X134620000Y-53340000D02*
X133350000Y-54610000D01*
X134620000Y-44450000D02*
X134620000Y-53340000D01*
X135890000Y-43180000D02*
X134620000Y-44450000D01*
X140970000Y-43180000D02*
X146050000Y-43180000D01*
X146050000Y-43180000D02*
X151130000Y-43180000D01*
X151130000Y-43180000D02*
X153670000Y-45720000D01*
X118110000Y-52070000D02*
X118110000Y-66040000D01*
X146210000Y-73820000D02*
X146210000Y-78280000D01*
X143510000Y-71120000D02*
X146210000Y-73820000D01*
X123190000Y-71120000D02*
X143510000Y-71120000D01*
X118110000Y-66040000D02*
X123190000Y-71120000D01*
D24*
X122650000Y-83820000D02*
X128270000Y-83820000D01*
X146210000Y-84930000D02*
X146210000Y-83380000D01*
X144780000Y-86360000D02*
X146210000Y-84930000D01*
X130810000Y-86360000D02*
X144780000Y-86360000D01*
X128270000Y-83820000D02*
X130810000Y-86360000D01*
D23*
X146210000Y-78280000D02*
X146210000Y-83380000D01*
X115570000Y-52070000D02*
X118110000Y-52070000D01*
X118110000Y-52070000D02*
X120650000Y-52070000D01*
X107950000Y-52070000D02*
X115570000Y-52070000D01*
D24*
X115570000Y-81280000D02*
X114300000Y-81280000D01*
X117570000Y-81280000D02*
X115570000Y-81280000D01*
X113030000Y-80010000D02*
X113030000Y-68580000D01*
X114300000Y-81280000D02*
X113030000Y-80010000D01*
D23*
X107950000Y-68580000D02*
X113030000Y-68580000D01*
X113030000Y-68580000D02*
X115570000Y-68580000D01*
X115570000Y-57150000D02*
X115570000Y-68580000D01*
X115570000Y-68580000D02*
X115570000Y-69850000D01*
X134620000Y-74930000D02*
X135890000Y-76200000D01*
X135890000Y-76200000D02*
X135890000Y-78160000D01*
X120650000Y-74930000D02*
X134620000Y-74930000D01*
X115570000Y-69850000D02*
X120650000Y-74930000D01*
X135890000Y-78160000D02*
X136010000Y-78280000D01*
X136010000Y-78280000D02*
X136010000Y-83380000D01*
X127000000Y-34290000D02*
X127000000Y-39370000D01*
X166370000Y-55880000D02*
X166370000Y-82550000D01*
X158750000Y-90170000D02*
X152400000Y-90170000D01*
X158750000Y-90170000D02*
X166370000Y-82550000D01*
D24*
X122650000Y-86360000D02*
X125730000Y-86360000D01*
X125730000Y-86360000D02*
X129540000Y-90170000D01*
X129540000Y-90170000D02*
X152400000Y-90170000D01*
D23*
X158750000Y-55880000D02*
X166370000Y-55880000D01*
X151310000Y-83380000D02*
X151310000Y-85270000D01*
X151310000Y-85270000D02*
X152400000Y-86360000D01*
X152400000Y-86360000D02*
X152400000Y-90170000D01*
D25*
G36*
X174290000Y-94290000D02*
X100710000Y-94290000D01*
X100710000Y-90422815D01*
X102864630Y-90422815D01*
X103188980Y-91207800D01*
X103789041Y-91808909D01*
X104573459Y-92134628D01*
X105422815Y-92135370D01*
X106207800Y-91811020D01*
X106808909Y-91210959D01*
X107134628Y-90426541D01*
X107135370Y-89577185D01*
X106811020Y-88792200D01*
X106210959Y-88191091D01*
X105426541Y-87865372D01*
X104577185Y-87864630D01*
X103792200Y-88188980D01*
X103191091Y-88789041D01*
X102865372Y-89573459D01*
X102864630Y-90422815D01*
X100710000Y-90422815D01*
X100710000Y-86645750D01*
X116035000Y-86645750D01*
X116035000Y-87121309D01*
X116131673Y-87354698D01*
X116310301Y-87533327D01*
X116543690Y-87630000D01*
X117284250Y-87630000D01*
X117443000Y-87471250D01*
X117443000Y-86487000D01*
X117697000Y-86487000D01*
X117697000Y-87471250D01*
X117855750Y-87630000D01*
X118596310Y-87630000D01*
X118829699Y-87533327D01*
X119008327Y-87354698D01*
X119105000Y-87121309D01*
X119105000Y-86645750D01*
X118946250Y-86487000D01*
X117697000Y-86487000D01*
X117443000Y-86487000D01*
X116193750Y-86487000D01*
X116035000Y-86645750D01*
X100710000Y-86645750D01*
X100710000Y-84105750D01*
X116035000Y-84105750D01*
X116035000Y-84581309D01*
X116131673Y-84814698D01*
X116310301Y-84993327D01*
X116543690Y-85090000D01*
X116310301Y-85186673D01*
X116131673Y-85365302D01*
X116035000Y-85598691D01*
X116035000Y-86074250D01*
X116193750Y-86233000D01*
X117443000Y-86233000D01*
X117443000Y-85248750D01*
X117284250Y-85090000D01*
X117443000Y-84931250D01*
X117443000Y-83947000D01*
X117697000Y-83947000D01*
X117697000Y-84931250D01*
X117855750Y-85090000D01*
X117697000Y-85248750D01*
X117697000Y-86233000D01*
X118946250Y-86233000D01*
X119105000Y-86074250D01*
X119105000Y-85598691D01*
X119008327Y-85365302D01*
X118829699Y-85186673D01*
X118596310Y-85090000D01*
X118829699Y-84993327D01*
X119008327Y-84814698D01*
X119105000Y-84581309D01*
X119105000Y-84105750D01*
X118946250Y-83947000D01*
X117697000Y-83947000D01*
X117443000Y-83947000D01*
X116193750Y-83947000D01*
X116035000Y-84105750D01*
X100710000Y-84105750D01*
X100710000Y-72200159D01*
X107049446Y-72200159D01*
X107135852Y-72456643D01*
X107709336Y-72666458D01*
X108319460Y-72640839D01*
X108764148Y-72456643D01*
X108850554Y-72200159D01*
X107950000Y-71299605D01*
X107049446Y-72200159D01*
X100710000Y-72200159D01*
X100710000Y-55690159D01*
X107049446Y-55690159D01*
X107135852Y-55946643D01*
X107709336Y-56156458D01*
X108319460Y-56130839D01*
X108764148Y-55946643D01*
X108850554Y-55690159D01*
X107950000Y-54789605D01*
X107049446Y-55690159D01*
X100710000Y-55690159D01*
X100710000Y-51170000D01*
X106402560Y-51170000D01*
X106402560Y-52970000D01*
X106446838Y-53205317D01*
X106585910Y-53421441D01*
X106789574Y-53560598D01*
X106755282Y-53594890D01*
X106869839Y-53709447D01*
X106613357Y-53795852D01*
X106403542Y-54369336D01*
X106429161Y-54979460D01*
X106613357Y-55424148D01*
X106869841Y-55510554D01*
X107770395Y-54610000D01*
X107756253Y-54595858D01*
X107935858Y-54416253D01*
X107950000Y-54430395D01*
X107964143Y-54416253D01*
X108143748Y-54595858D01*
X108129605Y-54610000D01*
X109030159Y-55510554D01*
X109286643Y-55424148D01*
X109496458Y-54850664D01*
X109470839Y-54240540D01*
X109286643Y-53795852D01*
X109030161Y-53709447D01*
X109144718Y-53594890D01*
X109108240Y-53558412D01*
X109268946Y-53455000D01*
X114642359Y-53455000D01*
X114642637Y-53455278D01*
X115243352Y-53704716D01*
X115893795Y-53705284D01*
X116494943Y-53456894D01*
X116496840Y-53455000D01*
X116725000Y-53455000D01*
X116725000Y-55992757D01*
X116497363Y-55764722D01*
X115896648Y-55515284D01*
X115246205Y-55514716D01*
X114645057Y-55763106D01*
X114184722Y-56222637D01*
X113935284Y-56823352D01*
X113934716Y-57473795D01*
X114183106Y-58074943D01*
X114185000Y-58076840D01*
X114185000Y-67195000D01*
X109264975Y-67195000D01*
X109101890Y-67083569D01*
X108850000Y-67032560D01*
X107050000Y-67032560D01*
X106814683Y-67076838D01*
X106598559Y-67215910D01*
X106453569Y-67428110D01*
X106402560Y-67680000D01*
X106402560Y-69480000D01*
X106446838Y-69715317D01*
X106585910Y-69931441D01*
X106789574Y-70070598D01*
X106755282Y-70104890D01*
X106869839Y-70219447D01*
X106613357Y-70305852D01*
X106403542Y-70879336D01*
X106429161Y-71489460D01*
X106613357Y-71934148D01*
X106869841Y-72020554D01*
X107770395Y-71120000D01*
X107756253Y-71105858D01*
X107935858Y-70926253D01*
X107950000Y-70940395D01*
X107964143Y-70926253D01*
X108143748Y-71105858D01*
X108129605Y-71120000D01*
X109030159Y-72020554D01*
X109286643Y-71934148D01*
X109496458Y-71360664D01*
X109470839Y-70750540D01*
X109286643Y-70305852D01*
X109030161Y-70219447D01*
X109144718Y-70104890D01*
X109108240Y-70068412D01*
X109268946Y-69965000D01*
X111995000Y-69965000D01*
X111995000Y-80009995D01*
X111994999Y-80010000D01*
X112073785Y-80406077D01*
X112298144Y-80741856D01*
X113568142Y-82011853D01*
X113568144Y-82011856D01*
X113700701Y-82100427D01*
X113903922Y-82236215D01*
X114300000Y-82315001D01*
X114300005Y-82315000D01*
X116172809Y-82315000D01*
X116205910Y-82366441D01*
X116418110Y-82511431D01*
X116608569Y-82550000D01*
X116543690Y-82550000D01*
X116310301Y-82646673D01*
X116131673Y-82825302D01*
X116035000Y-83058691D01*
X116035000Y-83534250D01*
X116193750Y-83693000D01*
X117443000Y-83693000D01*
X117443000Y-83673000D01*
X117697000Y-83673000D01*
X117697000Y-83693000D01*
X118946250Y-83693000D01*
X119105000Y-83534250D01*
X119105000Y-83058691D01*
X119008327Y-82825302D01*
X118829699Y-82646673D01*
X118596310Y-82550000D01*
X118536113Y-82550000D01*
X118705317Y-82518162D01*
X118921441Y-82379090D01*
X119066431Y-82166890D01*
X119117440Y-81915000D01*
X119117440Y-80645000D01*
X119093674Y-80518691D01*
X121115000Y-80518691D01*
X121115000Y-80994250D01*
X121273750Y-81153000D01*
X122523000Y-81153000D01*
X122523000Y-80168750D01*
X122777000Y-80168750D01*
X122777000Y-81153000D01*
X124026250Y-81153000D01*
X124185000Y-80994250D01*
X124185000Y-80518691D01*
X124088327Y-80285302D01*
X123909699Y-80106673D01*
X123676310Y-80010000D01*
X122935750Y-80010000D01*
X122777000Y-80168750D01*
X122523000Y-80168750D01*
X122364250Y-80010000D01*
X121623690Y-80010000D01*
X121390301Y-80106673D01*
X121211673Y-80285302D01*
X121115000Y-80518691D01*
X119093674Y-80518691D01*
X119073162Y-80409683D01*
X118934090Y-80193559D01*
X118721890Y-80048569D01*
X118470000Y-79997560D01*
X116670000Y-79997560D01*
X116434683Y-80041838D01*
X116218559Y-80180910D01*
X116174768Y-80245000D01*
X114728711Y-80245000D01*
X114065000Y-79581288D01*
X114065000Y-69965000D01*
X114207875Y-69965000D01*
X114290427Y-70380017D01*
X114538003Y-70750540D01*
X114590657Y-70829343D01*
X119670657Y-75909343D01*
X120119983Y-76209573D01*
X120650000Y-76315000D01*
X134046314Y-76315000D01*
X134505000Y-76773686D01*
X134505000Y-76894296D01*
X134413569Y-77028110D01*
X134362560Y-77280000D01*
X134362560Y-79280000D01*
X134406838Y-79515317D01*
X134545910Y-79731441D01*
X134625000Y-79785481D01*
X134625000Y-82518485D01*
X134467425Y-82754313D01*
X134342968Y-83380000D01*
X134467425Y-84005687D01*
X134821848Y-84536120D01*
X135352281Y-84890543D01*
X135977968Y-85015000D01*
X136042032Y-85015000D01*
X136667719Y-84890543D01*
X137198152Y-84536120D01*
X137552575Y-84005687D01*
X137601358Y-83760434D01*
X139519876Y-83760434D01*
X139716598Y-84235385D01*
X140150006Y-84703505D01*
X140729565Y-84970133D01*
X140983000Y-84851319D01*
X140983000Y-83507000D01*
X141237000Y-83507000D01*
X141237000Y-84851319D01*
X141490435Y-84970133D01*
X142069994Y-84703505D01*
X142503402Y-84235385D01*
X142700124Y-83760434D01*
X142580777Y-83507000D01*
X141237000Y-83507000D01*
X140983000Y-83507000D01*
X139639223Y-83507000D01*
X139519876Y-83760434D01*
X137601358Y-83760434D01*
X137677032Y-83380000D01*
X137601359Y-82999566D01*
X139519876Y-82999566D01*
X139639223Y-83253000D01*
X140983000Y-83253000D01*
X140983000Y-81908681D01*
X141237000Y-81908681D01*
X141237000Y-83253000D01*
X142580777Y-83253000D01*
X142700124Y-82999566D01*
X142503402Y-82524615D01*
X142069994Y-82056495D01*
X141490435Y-81789867D01*
X141237000Y-81908681D01*
X140983000Y-81908681D01*
X140729565Y-81789867D01*
X140150006Y-82056495D01*
X139716598Y-82524615D01*
X139519876Y-82999566D01*
X137601359Y-82999566D01*
X137552575Y-82754313D01*
X137395000Y-82518485D01*
X137395000Y-79786844D01*
X137461441Y-79744090D01*
X137606431Y-79531890D01*
X137657440Y-79280000D01*
X137657440Y-78660434D01*
X139519876Y-78660434D01*
X139716598Y-79135385D01*
X140150006Y-79603505D01*
X140729565Y-79870133D01*
X140983000Y-79751319D01*
X140983000Y-78407000D01*
X141237000Y-78407000D01*
X141237000Y-79751319D01*
X141490435Y-79870133D01*
X142069994Y-79603505D01*
X142503402Y-79135385D01*
X142700124Y-78660434D01*
X142580777Y-78407000D01*
X141237000Y-78407000D01*
X140983000Y-78407000D01*
X139639223Y-78407000D01*
X139519876Y-78660434D01*
X137657440Y-78660434D01*
X137657440Y-77899566D01*
X139519876Y-77899566D01*
X139639223Y-78153000D01*
X140983000Y-78153000D01*
X140983000Y-76808681D01*
X141237000Y-76808681D01*
X141237000Y-78153000D01*
X142580777Y-78153000D01*
X142700124Y-77899566D01*
X142503402Y-77424615D01*
X142069994Y-76956495D01*
X141490435Y-76689867D01*
X141237000Y-76808681D01*
X140983000Y-76808681D01*
X140729565Y-76689867D01*
X140150006Y-76956495D01*
X139716598Y-77424615D01*
X139519876Y-77899566D01*
X137657440Y-77899566D01*
X137657440Y-77280000D01*
X137613162Y-77044683D01*
X137474090Y-76828559D01*
X137275000Y-76692527D01*
X137275000Y-76200000D01*
X137169573Y-75669983D01*
X136869343Y-75220657D01*
X135599343Y-73950657D01*
X135403801Y-73820000D01*
X135150017Y-73650427D01*
X134620000Y-73545000D01*
X121223686Y-73545000D01*
X116955000Y-69276314D01*
X116955000Y-66756454D01*
X117130657Y-67019343D01*
X122210657Y-72099343D01*
X122659983Y-72399573D01*
X123190000Y-72505000D01*
X142936314Y-72505000D01*
X144825000Y-74393686D01*
X144825000Y-77418485D01*
X144667425Y-77654313D01*
X144542968Y-78280000D01*
X144667425Y-78905687D01*
X144825000Y-79141515D01*
X144825000Y-82518485D01*
X144667425Y-82754313D01*
X144542968Y-83380000D01*
X144667425Y-84005687D01*
X145021848Y-84536120D01*
X145092776Y-84583513D01*
X144351288Y-85325000D01*
X131238711Y-85325000D01*
X129001856Y-83088144D01*
X128666077Y-82863785D01*
X128270000Y-82784999D01*
X128269995Y-82785000D01*
X124047191Y-82785000D01*
X124014090Y-82733559D01*
X123801890Y-82588569D01*
X123611431Y-82550000D01*
X123676310Y-82550000D01*
X123909699Y-82453327D01*
X124088327Y-82274698D01*
X124185000Y-82041309D01*
X124185000Y-81565750D01*
X124026250Y-81407000D01*
X122777000Y-81407000D01*
X122777000Y-81427000D01*
X122523000Y-81427000D01*
X122523000Y-81407000D01*
X121273750Y-81407000D01*
X121115000Y-81565750D01*
X121115000Y-82041309D01*
X121211673Y-82274698D01*
X121390301Y-82453327D01*
X121623690Y-82550000D01*
X121683887Y-82550000D01*
X121514683Y-82581838D01*
X121298559Y-82720910D01*
X121153569Y-82933110D01*
X121102560Y-83185000D01*
X121102560Y-84455000D01*
X121146838Y-84690317D01*
X121285910Y-84906441D01*
X121498110Y-85051431D01*
X121686314Y-85089543D01*
X121514683Y-85121838D01*
X121298559Y-85260910D01*
X121153569Y-85473110D01*
X121102560Y-85725000D01*
X121102560Y-86995000D01*
X121146838Y-87230317D01*
X121285910Y-87446441D01*
X121498110Y-87591431D01*
X121750000Y-87642440D01*
X123550000Y-87642440D01*
X123785317Y-87598162D01*
X124001441Y-87459090D01*
X124045232Y-87395000D01*
X125301288Y-87395000D01*
X128808142Y-90901853D01*
X128808144Y-90901856D01*
X129143923Y-91126215D01*
X129540000Y-91205001D01*
X129540005Y-91205000D01*
X151503954Y-91205000D01*
X151869983Y-91449573D01*
X152400000Y-91555000D01*
X158750000Y-91555000D01*
X159280017Y-91449573D01*
X159729343Y-91149343D01*
X160455871Y-90422815D01*
X167864630Y-90422815D01*
X168188980Y-91207800D01*
X168789041Y-91808909D01*
X169573459Y-92134628D01*
X170422815Y-92135370D01*
X171207800Y-91811020D01*
X171808909Y-91210959D01*
X172134628Y-90426541D01*
X172135370Y-89577185D01*
X171811020Y-88792200D01*
X171210959Y-88191091D01*
X170426541Y-87865372D01*
X169577185Y-87864630D01*
X168792200Y-88188980D01*
X168191091Y-88789041D01*
X167865372Y-89573459D01*
X167864630Y-90422815D01*
X160455871Y-90422815D01*
X167349343Y-83529343D01*
X167533989Y-83253000D01*
X167649573Y-83080017D01*
X167755000Y-82550000D01*
X167755000Y-57194975D01*
X167866431Y-57031890D01*
X167917440Y-56780000D01*
X167917440Y-54980000D01*
X167873162Y-54744683D01*
X167734090Y-54528559D01*
X167530426Y-54389402D01*
X167564718Y-54355110D01*
X167450161Y-54240553D01*
X167706643Y-54154148D01*
X167916458Y-53580664D01*
X167890839Y-52970540D01*
X167706643Y-52525852D01*
X167450159Y-52439446D01*
X166549605Y-53340000D01*
X166563748Y-53354143D01*
X166384143Y-53533748D01*
X166370000Y-53519605D01*
X166355858Y-53533748D01*
X166176253Y-53354143D01*
X166190395Y-53340000D01*
X165289841Y-52439446D01*
X165033357Y-52525852D01*
X164823542Y-53099336D01*
X164849161Y-53709460D01*
X165033357Y-54154148D01*
X165289839Y-54240553D01*
X165175282Y-54355110D01*
X165211760Y-54391588D01*
X165051054Y-54495000D01*
X160256844Y-54495000D01*
X160214090Y-54428559D01*
X160001890Y-54283569D01*
X159750000Y-54232560D01*
X157750000Y-54232560D01*
X157528223Y-54274290D01*
X157489573Y-54079983D01*
X157189343Y-53630657D01*
X155919343Y-52360657D01*
X155768461Y-52259841D01*
X155470017Y-52060427D01*
X154940000Y-51955000D01*
X154869020Y-51955000D01*
X154871488Y-51952532D01*
X157777073Y-51952532D01*
X157875736Y-52219387D01*
X158485461Y-52445908D01*
X159135460Y-52421856D01*
X159526599Y-52259841D01*
X165469446Y-52259841D01*
X166370000Y-53160395D01*
X167270554Y-52259841D01*
X167184148Y-52003357D01*
X166610664Y-51793542D01*
X166000540Y-51819161D01*
X165555852Y-52003357D01*
X165469446Y-52259841D01*
X159526599Y-52259841D01*
X159624264Y-52219387D01*
X159722927Y-51952532D01*
X158750000Y-50979605D01*
X157777073Y-51952532D01*
X154871488Y-51952532D01*
X154936814Y-51887206D01*
X154822534Y-51772926D01*
X155089387Y-51674264D01*
X155315908Y-51064539D01*
X155296331Y-50535461D01*
X157104092Y-50535461D01*
X157128144Y-51185460D01*
X157330613Y-51674264D01*
X157597468Y-51772927D01*
X158570395Y-50800000D01*
X158929605Y-50800000D01*
X159902532Y-51772927D01*
X160169387Y-51674264D01*
X160395908Y-51064539D01*
X160371856Y-50414540D01*
X160169387Y-49925736D01*
X159902532Y-49827073D01*
X158929605Y-50800000D01*
X158570395Y-50800000D01*
X157597468Y-49827073D01*
X157330613Y-49925736D01*
X157104092Y-50535461D01*
X155296331Y-50535461D01*
X155291856Y-50414540D01*
X155089387Y-49925736D01*
X154822532Y-49827073D01*
X153849605Y-50800000D01*
X153863748Y-50814143D01*
X153684143Y-50993748D01*
X153670000Y-50979605D01*
X153655858Y-50993748D01*
X153476253Y-50814143D01*
X153490395Y-50800000D01*
X152517468Y-49827073D01*
X152250613Y-49925736D01*
X152024092Y-50535461D01*
X152048144Y-51185460D01*
X152250613Y-51674264D01*
X152517466Y-51772926D01*
X152403186Y-51887206D01*
X152470980Y-51955000D01*
X142355000Y-51955000D01*
X142355000Y-51079480D01*
X142405000Y-50828113D01*
X142405000Y-50771887D01*
X142295767Y-50222736D01*
X141984698Y-49757189D01*
X141820490Y-49647468D01*
X152697073Y-49647468D01*
X153670000Y-50620395D01*
X154642927Y-49647468D01*
X157777073Y-49647468D01*
X158750000Y-50620395D01*
X159722927Y-49647468D01*
X159624264Y-49380613D01*
X159014539Y-49154092D01*
X158364540Y-49178144D01*
X157875736Y-49380613D01*
X157777073Y-49647468D01*
X154642927Y-49647468D01*
X154544264Y-49380613D01*
X153934539Y-49154092D01*
X153284540Y-49178144D01*
X152795736Y-49380613D01*
X152697073Y-49647468D01*
X141820490Y-49647468D01*
X141519151Y-49446120D01*
X140970000Y-49336887D01*
X140420849Y-49446120D01*
X139955302Y-49757189D01*
X139644233Y-50222736D01*
X139535000Y-50771887D01*
X139535000Y-50828113D01*
X139585000Y-51079480D01*
X139585000Y-53541380D01*
X139573569Y-53558110D01*
X139522560Y-53810000D01*
X139522560Y-55410000D01*
X139566838Y-55645317D01*
X139705910Y-55861441D01*
X139918110Y-56006431D01*
X140170000Y-56057440D01*
X141770000Y-56057440D01*
X142005317Y-56013162D01*
X142221441Y-55874090D01*
X142366431Y-55661890D01*
X142417440Y-55410000D01*
X142417440Y-54725000D01*
X152512757Y-54725000D01*
X152284722Y-54952637D01*
X152035284Y-55553352D01*
X152034716Y-56203795D01*
X152283106Y-56804943D01*
X152285000Y-56806840D01*
X152285000Y-60386314D01*
X151826314Y-60845000D01*
X141362700Y-60845000D01*
X140970000Y-60766887D01*
X140577300Y-60845000D01*
X139003686Y-60845000D01*
X135599343Y-57440657D01*
X135579562Y-57427440D01*
X135150017Y-57140427D01*
X134620000Y-57035000D01*
X130113686Y-57035000D01*
X129655000Y-56576314D01*
X129655000Y-55442835D01*
X129795302Y-55652811D01*
X130260849Y-55963880D01*
X130810000Y-56073113D01*
X131202700Y-55995000D01*
X133350000Y-55995000D01*
X133880017Y-55889573D01*
X134329343Y-55589343D01*
X135599343Y-54319343D01*
X135651997Y-54240540D01*
X135899573Y-53870017D01*
X136005000Y-53340000D01*
X136005000Y-45023686D01*
X136463686Y-44565000D01*
X139901380Y-44565000D01*
X139918110Y-44576431D01*
X140170000Y-44627440D01*
X141770000Y-44627440D01*
X142005317Y-44583162D01*
X142033542Y-44565000D01*
X150556314Y-44565000D01*
X152034716Y-46043402D01*
X152034716Y-46043795D01*
X152283106Y-46644943D01*
X152742637Y-47105278D01*
X153343352Y-47354716D01*
X153993795Y-47355284D01*
X154594943Y-47106894D01*
X154829715Y-46872532D01*
X157777073Y-46872532D01*
X157875736Y-47139387D01*
X158485461Y-47365908D01*
X159135460Y-47341856D01*
X159624264Y-47139387D01*
X159722927Y-46872532D01*
X158750000Y-45899605D01*
X157777073Y-46872532D01*
X154829715Y-46872532D01*
X155055278Y-46647363D01*
X155304716Y-46046648D01*
X155305232Y-45455461D01*
X157104092Y-45455461D01*
X157128144Y-46105460D01*
X157330613Y-46594264D01*
X157597468Y-46692927D01*
X158570395Y-45720000D01*
X158929605Y-45720000D01*
X159902532Y-46692927D01*
X160169387Y-46594264D01*
X160395908Y-45984539D01*
X160371856Y-45334540D01*
X160169387Y-44845736D01*
X159902532Y-44747073D01*
X158929605Y-45720000D01*
X158570395Y-45720000D01*
X157597468Y-44747073D01*
X157330613Y-44845736D01*
X157104092Y-45455461D01*
X155305232Y-45455461D01*
X155305284Y-45396205D01*
X155056894Y-44795057D01*
X154829703Y-44567468D01*
X157777073Y-44567468D01*
X158750000Y-45540395D01*
X159722927Y-44567468D01*
X159624264Y-44300613D01*
X159014539Y-44074092D01*
X158364540Y-44098144D01*
X157875736Y-44300613D01*
X157777073Y-44567468D01*
X154829703Y-44567468D01*
X154597363Y-44334722D01*
X153996648Y-44085284D01*
X153993968Y-44085282D01*
X152109343Y-42200657D01*
X152014356Y-42137189D01*
X151660017Y-41900427D01*
X151130000Y-41795000D01*
X142038620Y-41795000D01*
X142021890Y-41783569D01*
X141770000Y-41732560D01*
X140170000Y-41732560D01*
X139934683Y-41776838D01*
X139906458Y-41795000D01*
X135890000Y-41795000D01*
X135359983Y-41900427D01*
X135005644Y-42137189D01*
X134910657Y-42200657D01*
X133640657Y-43470657D01*
X133340427Y-43919983D01*
X133235000Y-44450000D01*
X133235000Y-52766314D01*
X132776314Y-53225000D01*
X131202700Y-53225000D01*
X130810000Y-53146887D01*
X130260849Y-53256120D01*
X129795302Y-53567189D01*
X129655000Y-53777165D01*
X129655000Y-52643686D01*
X130051246Y-52247440D01*
X131610000Y-52247440D01*
X131845317Y-52203162D01*
X132061441Y-52064090D01*
X132206431Y-51851890D01*
X132257440Y-51600000D01*
X132257440Y-50000000D01*
X132213162Y-49764683D01*
X132074090Y-49548559D01*
X131861890Y-49403569D01*
X131610000Y-49352560D01*
X130010000Y-49352560D01*
X129774683Y-49396838D01*
X129746458Y-49415000D01*
X129540000Y-49415000D01*
X129009983Y-49520427D01*
X128655644Y-49757189D01*
X128560657Y-49820657D01*
X127290657Y-51090657D01*
X127115000Y-51353546D01*
X127115000Y-45023686D01*
X127573686Y-44565000D01*
X130417300Y-44565000D01*
X130810000Y-44643113D01*
X131359151Y-44533880D01*
X131824698Y-44222811D01*
X132135767Y-43757264D01*
X132245000Y-43208113D01*
X132245000Y-43151887D01*
X132135767Y-42602736D01*
X131824698Y-42137189D01*
X131359151Y-41826120D01*
X130810000Y-41716887D01*
X130417300Y-41795000D01*
X127000000Y-41795000D01*
X126469983Y-41900427D01*
X126115644Y-42137189D01*
X126020657Y-42200657D01*
X124750657Y-43470657D01*
X124450427Y-43919983D01*
X124345000Y-44450000D01*
X124345000Y-45605000D01*
X121577641Y-45605000D01*
X121577363Y-45604722D01*
X120976648Y-45355284D01*
X120326205Y-45354716D01*
X119725057Y-45603106D01*
X119264722Y-46062637D01*
X119015284Y-46663352D01*
X119014716Y-47313795D01*
X119263106Y-47914943D01*
X119722637Y-48375278D01*
X120323352Y-48624716D01*
X120973795Y-48625284D01*
X121574943Y-48376894D01*
X121576840Y-48375000D01*
X124345000Y-48375000D01*
X124345000Y-60960000D01*
X124450427Y-61490017D01*
X124750657Y-61939343D01*
X126020657Y-63209343D01*
X126469983Y-63509573D01*
X127000000Y-63615000D01*
X129741380Y-63615000D01*
X129758110Y-63626431D01*
X130010000Y-63677440D01*
X131610000Y-63677440D01*
X131845317Y-63633162D01*
X132061441Y-63494090D01*
X132206431Y-63281890D01*
X132257440Y-63030000D01*
X132257440Y-61430000D01*
X132213162Y-61194683D01*
X132074090Y-60978559D01*
X131861890Y-60833569D01*
X131610000Y-60782560D01*
X130010000Y-60782560D01*
X129774683Y-60826838D01*
X129746458Y-60845000D01*
X127573686Y-60845000D01*
X127115000Y-60386314D01*
X127115000Y-57866454D01*
X127254308Y-58074943D01*
X127290657Y-58129343D01*
X128560657Y-59399343D01*
X129009983Y-59699573D01*
X129540000Y-59805000D01*
X134046314Y-59805000D01*
X137450657Y-63209343D01*
X137899984Y-63509574D01*
X138430000Y-63615000D01*
X140577300Y-63615000D01*
X140970000Y-63693113D01*
X141362700Y-63615000D01*
X152400000Y-63615000D01*
X152930017Y-63509573D01*
X153379343Y-63209343D01*
X154649343Y-61939343D01*
X154825000Y-61676454D01*
X154825000Y-64196314D01*
X153096314Y-65925000D01*
X126303686Y-65925000D01*
X122035000Y-61656314D01*
X122035000Y-58077641D01*
X122035278Y-58077363D01*
X122284716Y-57476648D01*
X122285284Y-56826205D01*
X122036894Y-56225057D01*
X121577363Y-55764722D01*
X120976648Y-55515284D01*
X120326205Y-55514716D01*
X119725057Y-55763106D01*
X119495000Y-55992761D01*
X119495000Y-53455000D01*
X119722359Y-53455000D01*
X119722637Y-53455278D01*
X120323352Y-53704716D01*
X120973795Y-53705284D01*
X121574943Y-53456894D01*
X122035278Y-52997363D01*
X122284716Y-52396648D01*
X122285284Y-51746205D01*
X122036894Y-51145057D01*
X121577363Y-50684722D01*
X120976648Y-50435284D01*
X120326205Y-50434716D01*
X119725057Y-50683106D01*
X119723160Y-50685000D01*
X116497641Y-50685000D01*
X116497363Y-50684722D01*
X115896648Y-50435284D01*
X115246205Y-50434716D01*
X114645057Y-50683106D01*
X114643160Y-50685000D01*
X109264975Y-50685000D01*
X109101890Y-50573569D01*
X108850000Y-50522560D01*
X107050000Y-50522560D01*
X106814683Y-50566838D01*
X106598559Y-50705910D01*
X106453569Y-50918110D01*
X106402560Y-51170000D01*
X100710000Y-51170000D01*
X100710000Y-40377745D01*
X112241861Y-40377745D01*
X112315995Y-40623864D01*
X112853223Y-40816965D01*
X113423454Y-40789778D01*
X113824005Y-40623864D01*
X113898139Y-40377745D01*
X113070000Y-39549605D01*
X112241861Y-40377745D01*
X100710000Y-40377745D01*
X100710000Y-39153223D01*
X111623035Y-39153223D01*
X111650222Y-39723454D01*
X111816136Y-40124005D01*
X112062255Y-40198139D01*
X112890395Y-39370000D01*
X113249605Y-39370000D01*
X114077745Y-40198139D01*
X114185000Y-40165833D01*
X114185000Y-45483156D01*
X114118559Y-45525910D01*
X113973569Y-45738110D01*
X113922560Y-45990000D01*
X113922560Y-47990000D01*
X113966838Y-48225317D01*
X114105910Y-48441441D01*
X114318110Y-48586431D01*
X114570000Y-48637440D01*
X116570000Y-48637440D01*
X116805317Y-48593162D01*
X117021441Y-48454090D01*
X117166431Y-48241890D01*
X117217440Y-47990000D01*
X117217440Y-45990000D01*
X117173162Y-45754683D01*
X117034090Y-45538559D01*
X116955000Y-45484519D01*
X116955000Y-40755000D01*
X119380000Y-40755000D01*
X119910017Y-40649573D01*
X120359343Y-40349343D01*
X120659573Y-39900017D01*
X120765000Y-39370000D01*
X120659573Y-38839983D01*
X120359343Y-38390657D01*
X119910017Y-38090427D01*
X119380000Y-37985000D01*
X115976502Y-37985000D01*
X115856691Y-37935250D01*
X115285813Y-37934752D01*
X114758200Y-38152757D01*
X114354176Y-38556077D01*
X114326577Y-38622544D01*
X114323864Y-38615995D01*
X114077745Y-38541861D01*
X113249605Y-39370000D01*
X112890395Y-39370000D01*
X112062255Y-38541861D01*
X111816136Y-38615995D01*
X111623035Y-39153223D01*
X100710000Y-39153223D01*
X100710000Y-38362255D01*
X112241861Y-38362255D01*
X113070000Y-39190395D01*
X113898139Y-38362255D01*
X113824005Y-38116136D01*
X113286777Y-37923035D01*
X112716546Y-37950222D01*
X112315995Y-38116136D01*
X112241861Y-38362255D01*
X100710000Y-38362255D01*
X100710000Y-35422815D01*
X102864630Y-35422815D01*
X103188980Y-36207800D01*
X103789041Y-36808909D01*
X104573459Y-37134628D01*
X105422815Y-37135370D01*
X106207800Y-36811020D01*
X106808909Y-36210959D01*
X107134628Y-35426541D01*
X107135370Y-34577185D01*
X106917267Y-34049336D01*
X122913542Y-34049336D01*
X122939161Y-34659460D01*
X123123357Y-35104148D01*
X123379841Y-35190554D01*
X124280395Y-34290000D01*
X123379841Y-33389446D01*
X123123357Y-33475852D01*
X122913542Y-34049336D01*
X106917267Y-34049336D01*
X106811020Y-33792200D01*
X106229677Y-33209841D01*
X123559446Y-33209841D01*
X124460000Y-34110395D01*
X124474143Y-34096253D01*
X124653748Y-34275858D01*
X124639605Y-34290000D01*
X124653748Y-34304143D01*
X124474143Y-34483748D01*
X124460000Y-34469605D01*
X123559446Y-35370159D01*
X123645852Y-35626643D01*
X124219336Y-35836458D01*
X124829460Y-35810839D01*
X125274148Y-35626643D01*
X125360553Y-35370161D01*
X125475110Y-35484718D01*
X125511588Y-35448240D01*
X125615000Y-35608946D01*
X125615000Y-39370000D01*
X125664781Y-39620267D01*
X125664769Y-39634383D01*
X125670207Y-39647544D01*
X125720427Y-39900017D01*
X125862191Y-40112182D01*
X125867582Y-40125229D01*
X125877643Y-40135308D01*
X126020657Y-40349343D01*
X126232824Y-40491108D01*
X126242796Y-40501098D01*
X126255947Y-40506559D01*
X126469983Y-40649573D01*
X126720249Y-40699354D01*
X126733287Y-40704768D01*
X126747529Y-40704780D01*
X127000000Y-40755000D01*
X127250267Y-40705219D01*
X127264383Y-40705231D01*
X127277544Y-40699793D01*
X127530017Y-40649573D01*
X127742182Y-40507809D01*
X127755229Y-40502418D01*
X127765308Y-40492357D01*
X127979343Y-40349343D01*
X128121108Y-40137176D01*
X128131098Y-40127204D01*
X128136559Y-40114053D01*
X128279573Y-39900017D01*
X128329354Y-39649751D01*
X128334768Y-39636713D01*
X128334780Y-39622471D01*
X128385000Y-39370000D01*
X128385000Y-35604975D01*
X128496431Y-35441890D01*
X128500293Y-35422815D01*
X167864630Y-35422815D01*
X168188980Y-36207800D01*
X168789041Y-36808909D01*
X169573459Y-37134628D01*
X170422815Y-37135370D01*
X171207800Y-36811020D01*
X171808909Y-36210959D01*
X172134628Y-35426541D01*
X172135370Y-34577185D01*
X171811020Y-33792200D01*
X171210959Y-33191091D01*
X170426541Y-32865372D01*
X169577185Y-32864630D01*
X168792200Y-33188980D01*
X168191091Y-33789041D01*
X167865372Y-34573459D01*
X167864630Y-35422815D01*
X128500293Y-35422815D01*
X128547440Y-35190000D01*
X128547440Y-33390000D01*
X128503162Y-33154683D01*
X128364090Y-32938559D01*
X128151890Y-32793569D01*
X127900000Y-32742560D01*
X126100000Y-32742560D01*
X125864683Y-32786838D01*
X125648559Y-32925910D01*
X125509402Y-33129574D01*
X125475110Y-33095282D01*
X125360553Y-33209839D01*
X125274148Y-32953357D01*
X124700664Y-32743542D01*
X124090540Y-32769161D01*
X123645852Y-32953357D01*
X123559446Y-33209841D01*
X106229677Y-33209841D01*
X106210959Y-33191091D01*
X105426541Y-32865372D01*
X104577185Y-32864630D01*
X103792200Y-33188980D01*
X103191091Y-33789041D01*
X102865372Y-34573459D01*
X102864630Y-35422815D01*
X100710000Y-35422815D01*
X100710000Y-30710000D01*
X174290000Y-30710000D01*
X174290000Y-94290000D01*
X174290000Y-94290000D01*
G37*
X174290000Y-94290000D02*
X100710000Y-94290000D01*
X100710000Y-90422815D01*
X102864630Y-90422815D01*
X103188980Y-91207800D01*
X103789041Y-91808909D01*
X104573459Y-92134628D01*
X105422815Y-92135370D01*
X106207800Y-91811020D01*
X106808909Y-91210959D01*
X107134628Y-90426541D01*
X107135370Y-89577185D01*
X106811020Y-88792200D01*
X106210959Y-88191091D01*
X105426541Y-87865372D01*
X104577185Y-87864630D01*
X103792200Y-88188980D01*
X103191091Y-88789041D01*
X102865372Y-89573459D01*
X102864630Y-90422815D01*
X100710000Y-90422815D01*
X100710000Y-86645750D01*
X116035000Y-86645750D01*
X116035000Y-87121309D01*
X116131673Y-87354698D01*
X116310301Y-87533327D01*
X116543690Y-87630000D01*
X117284250Y-87630000D01*
X117443000Y-87471250D01*
X117443000Y-86487000D01*
X117697000Y-86487000D01*
X117697000Y-87471250D01*
X117855750Y-87630000D01*
X118596310Y-87630000D01*
X118829699Y-87533327D01*
X119008327Y-87354698D01*
X119105000Y-87121309D01*
X119105000Y-86645750D01*
X118946250Y-86487000D01*
X117697000Y-86487000D01*
X117443000Y-86487000D01*
X116193750Y-86487000D01*
X116035000Y-86645750D01*
X100710000Y-86645750D01*
X100710000Y-84105750D01*
X116035000Y-84105750D01*
X116035000Y-84581309D01*
X116131673Y-84814698D01*
X116310301Y-84993327D01*
X116543690Y-85090000D01*
X116310301Y-85186673D01*
X116131673Y-85365302D01*
X116035000Y-85598691D01*
X116035000Y-86074250D01*
X116193750Y-86233000D01*
X117443000Y-86233000D01*
X117443000Y-85248750D01*
X117284250Y-85090000D01*
X117443000Y-84931250D01*
X117443000Y-83947000D01*
X117697000Y-83947000D01*
X117697000Y-84931250D01*
X117855750Y-85090000D01*
X117697000Y-85248750D01*
X117697000Y-86233000D01*
X118946250Y-86233000D01*
X119105000Y-86074250D01*
X119105000Y-85598691D01*
X119008327Y-85365302D01*
X118829699Y-85186673D01*
X118596310Y-85090000D01*
X118829699Y-84993327D01*
X119008327Y-84814698D01*
X119105000Y-84581309D01*
X119105000Y-84105750D01*
X118946250Y-83947000D01*
X117697000Y-83947000D01*
X117443000Y-83947000D01*
X116193750Y-83947000D01*
X116035000Y-84105750D01*
X100710000Y-84105750D01*
X100710000Y-72200159D01*
X107049446Y-72200159D01*
X107135852Y-72456643D01*
X107709336Y-72666458D01*
X108319460Y-72640839D01*
X108764148Y-72456643D01*
X108850554Y-72200159D01*
X107950000Y-71299605D01*
X107049446Y-72200159D01*
X100710000Y-72200159D01*
X100710000Y-55690159D01*
X107049446Y-55690159D01*
X107135852Y-55946643D01*
X107709336Y-56156458D01*
X108319460Y-56130839D01*
X108764148Y-55946643D01*
X108850554Y-55690159D01*
X107950000Y-54789605D01*
X107049446Y-55690159D01*
X100710000Y-55690159D01*
X100710000Y-51170000D01*
X106402560Y-51170000D01*
X106402560Y-52970000D01*
X106446838Y-53205317D01*
X106585910Y-53421441D01*
X106789574Y-53560598D01*
X106755282Y-53594890D01*
X106869839Y-53709447D01*
X106613357Y-53795852D01*
X106403542Y-54369336D01*
X106429161Y-54979460D01*
X106613357Y-55424148D01*
X106869841Y-55510554D01*
X107770395Y-54610000D01*
X107756253Y-54595858D01*
X107935858Y-54416253D01*
X107950000Y-54430395D01*
X107964143Y-54416253D01*
X108143748Y-54595858D01*
X108129605Y-54610000D01*
X109030159Y-55510554D01*
X109286643Y-55424148D01*
X109496458Y-54850664D01*
X109470839Y-54240540D01*
X109286643Y-53795852D01*
X109030161Y-53709447D01*
X109144718Y-53594890D01*
X109108240Y-53558412D01*
X109268946Y-53455000D01*
X114642359Y-53455000D01*
X114642637Y-53455278D01*
X115243352Y-53704716D01*
X115893795Y-53705284D01*
X116494943Y-53456894D01*
X116496840Y-53455000D01*
X116725000Y-53455000D01*
X116725000Y-55992757D01*
X116497363Y-55764722D01*
X115896648Y-55515284D01*
X115246205Y-55514716D01*
X114645057Y-55763106D01*
X114184722Y-56222637D01*
X113935284Y-56823352D01*
X113934716Y-57473795D01*
X114183106Y-58074943D01*
X114185000Y-58076840D01*
X114185000Y-67195000D01*
X109264975Y-67195000D01*
X109101890Y-67083569D01*
X108850000Y-67032560D01*
X107050000Y-67032560D01*
X106814683Y-67076838D01*
X106598559Y-67215910D01*
X106453569Y-67428110D01*
X106402560Y-67680000D01*
X106402560Y-69480000D01*
X106446838Y-69715317D01*
X106585910Y-69931441D01*
X106789574Y-70070598D01*
X106755282Y-70104890D01*
X106869839Y-70219447D01*
X106613357Y-70305852D01*
X106403542Y-70879336D01*
X106429161Y-71489460D01*
X106613357Y-71934148D01*
X106869841Y-72020554D01*
X107770395Y-71120000D01*
X107756253Y-71105858D01*
X107935858Y-70926253D01*
X107950000Y-70940395D01*
X107964143Y-70926253D01*
X108143748Y-71105858D01*
X108129605Y-71120000D01*
X109030159Y-72020554D01*
X109286643Y-71934148D01*
X109496458Y-71360664D01*
X109470839Y-70750540D01*
X109286643Y-70305852D01*
X109030161Y-70219447D01*
X109144718Y-70104890D01*
X109108240Y-70068412D01*
X109268946Y-69965000D01*
X111995000Y-69965000D01*
X111995000Y-80009995D01*
X111994999Y-80010000D01*
X112073785Y-80406077D01*
X112298144Y-80741856D01*
X113568142Y-82011853D01*
X113568144Y-82011856D01*
X113700701Y-82100427D01*
X113903922Y-82236215D01*
X114300000Y-82315001D01*
X114300005Y-82315000D01*
X116172809Y-82315000D01*
X116205910Y-82366441D01*
X116418110Y-82511431D01*
X116608569Y-82550000D01*
X116543690Y-82550000D01*
X116310301Y-82646673D01*
X116131673Y-82825302D01*
X116035000Y-83058691D01*
X116035000Y-83534250D01*
X116193750Y-83693000D01*
X117443000Y-83693000D01*
X117443000Y-83673000D01*
X117697000Y-83673000D01*
X117697000Y-83693000D01*
X118946250Y-83693000D01*
X119105000Y-83534250D01*
X119105000Y-83058691D01*
X119008327Y-82825302D01*
X118829699Y-82646673D01*
X118596310Y-82550000D01*
X118536113Y-82550000D01*
X118705317Y-82518162D01*
X118921441Y-82379090D01*
X119066431Y-82166890D01*
X119117440Y-81915000D01*
X119117440Y-80645000D01*
X119093674Y-80518691D01*
X121115000Y-80518691D01*
X121115000Y-80994250D01*
X121273750Y-81153000D01*
X122523000Y-81153000D01*
X122523000Y-80168750D01*
X122777000Y-80168750D01*
X122777000Y-81153000D01*
X124026250Y-81153000D01*
X124185000Y-80994250D01*
X124185000Y-80518691D01*
X124088327Y-80285302D01*
X123909699Y-80106673D01*
X123676310Y-80010000D01*
X122935750Y-80010000D01*
X122777000Y-80168750D01*
X122523000Y-80168750D01*
X122364250Y-80010000D01*
X121623690Y-80010000D01*
X121390301Y-80106673D01*
X121211673Y-80285302D01*
X121115000Y-80518691D01*
X119093674Y-80518691D01*
X119073162Y-80409683D01*
X118934090Y-80193559D01*
X118721890Y-80048569D01*
X118470000Y-79997560D01*
X116670000Y-79997560D01*
X116434683Y-80041838D01*
X116218559Y-80180910D01*
X116174768Y-80245000D01*
X114728711Y-80245000D01*
X114065000Y-79581288D01*
X114065000Y-69965000D01*
X114207875Y-69965000D01*
X114290427Y-70380017D01*
X114538003Y-70750540D01*
X114590657Y-70829343D01*
X119670657Y-75909343D01*
X120119983Y-76209573D01*
X120650000Y-76315000D01*
X134046314Y-76315000D01*
X134505000Y-76773686D01*
X134505000Y-76894296D01*
X134413569Y-77028110D01*
X134362560Y-77280000D01*
X134362560Y-79280000D01*
X134406838Y-79515317D01*
X134545910Y-79731441D01*
X134625000Y-79785481D01*
X134625000Y-82518485D01*
X134467425Y-82754313D01*
X134342968Y-83380000D01*
X134467425Y-84005687D01*
X134821848Y-84536120D01*
X135352281Y-84890543D01*
X135977968Y-85015000D01*
X136042032Y-85015000D01*
X136667719Y-84890543D01*
X137198152Y-84536120D01*
X137552575Y-84005687D01*
X137601358Y-83760434D01*
X139519876Y-83760434D01*
X139716598Y-84235385D01*
X140150006Y-84703505D01*
X140729565Y-84970133D01*
X140983000Y-84851319D01*
X140983000Y-83507000D01*
X141237000Y-83507000D01*
X141237000Y-84851319D01*
X141490435Y-84970133D01*
X142069994Y-84703505D01*
X142503402Y-84235385D01*
X142700124Y-83760434D01*
X142580777Y-83507000D01*
X141237000Y-83507000D01*
X140983000Y-83507000D01*
X139639223Y-83507000D01*
X139519876Y-83760434D01*
X137601358Y-83760434D01*
X137677032Y-83380000D01*
X137601359Y-82999566D01*
X139519876Y-82999566D01*
X139639223Y-83253000D01*
X140983000Y-83253000D01*
X140983000Y-81908681D01*
X141237000Y-81908681D01*
X141237000Y-83253000D01*
X142580777Y-83253000D01*
X142700124Y-82999566D01*
X142503402Y-82524615D01*
X142069994Y-82056495D01*
X141490435Y-81789867D01*
X141237000Y-81908681D01*
X140983000Y-81908681D01*
X140729565Y-81789867D01*
X140150006Y-82056495D01*
X139716598Y-82524615D01*
X139519876Y-82999566D01*
X137601359Y-82999566D01*
X137552575Y-82754313D01*
X137395000Y-82518485D01*
X137395000Y-79786844D01*
X137461441Y-79744090D01*
X137606431Y-79531890D01*
X137657440Y-79280000D01*
X137657440Y-78660434D01*
X139519876Y-78660434D01*
X139716598Y-79135385D01*
X140150006Y-79603505D01*
X140729565Y-79870133D01*
X140983000Y-79751319D01*
X140983000Y-78407000D01*
X141237000Y-78407000D01*
X141237000Y-79751319D01*
X141490435Y-79870133D01*
X142069994Y-79603505D01*
X142503402Y-79135385D01*
X142700124Y-78660434D01*
X142580777Y-78407000D01*
X141237000Y-78407000D01*
X140983000Y-78407000D01*
X139639223Y-78407000D01*
X139519876Y-78660434D01*
X137657440Y-78660434D01*
X137657440Y-77899566D01*
X139519876Y-77899566D01*
X139639223Y-78153000D01*
X140983000Y-78153000D01*
X140983000Y-76808681D01*
X141237000Y-76808681D01*
X141237000Y-78153000D01*
X142580777Y-78153000D01*
X142700124Y-77899566D01*
X142503402Y-77424615D01*
X142069994Y-76956495D01*
X141490435Y-76689867D01*
X141237000Y-76808681D01*
X140983000Y-76808681D01*
X140729565Y-76689867D01*
X140150006Y-76956495D01*
X139716598Y-77424615D01*
X139519876Y-77899566D01*
X137657440Y-77899566D01*
X137657440Y-77280000D01*
X137613162Y-77044683D01*
X137474090Y-76828559D01*
X137275000Y-76692527D01*
X137275000Y-76200000D01*
X137169573Y-75669983D01*
X136869343Y-75220657D01*
X135599343Y-73950657D01*
X135403801Y-73820000D01*
X135150017Y-73650427D01*
X134620000Y-73545000D01*
X121223686Y-73545000D01*
X116955000Y-69276314D01*
X116955000Y-66756454D01*
X117130657Y-67019343D01*
X122210657Y-72099343D01*
X122659983Y-72399573D01*
X123190000Y-72505000D01*
X142936314Y-72505000D01*
X144825000Y-74393686D01*
X144825000Y-77418485D01*
X144667425Y-77654313D01*
X144542968Y-78280000D01*
X144667425Y-78905687D01*
X144825000Y-79141515D01*
X144825000Y-82518485D01*
X144667425Y-82754313D01*
X144542968Y-83380000D01*
X144667425Y-84005687D01*
X145021848Y-84536120D01*
X145092776Y-84583513D01*
X144351288Y-85325000D01*
X131238711Y-85325000D01*
X129001856Y-83088144D01*
X128666077Y-82863785D01*
X128270000Y-82784999D01*
X128269995Y-82785000D01*
X124047191Y-82785000D01*
X124014090Y-82733559D01*
X123801890Y-82588569D01*
X123611431Y-82550000D01*
X123676310Y-82550000D01*
X123909699Y-82453327D01*
X124088327Y-82274698D01*
X124185000Y-82041309D01*
X124185000Y-81565750D01*
X124026250Y-81407000D01*
X122777000Y-81407000D01*
X122777000Y-81427000D01*
X122523000Y-81427000D01*
X122523000Y-81407000D01*
X121273750Y-81407000D01*
X121115000Y-81565750D01*
X121115000Y-82041309D01*
X121211673Y-82274698D01*
X121390301Y-82453327D01*
X121623690Y-82550000D01*
X121683887Y-82550000D01*
X121514683Y-82581838D01*
X121298559Y-82720910D01*
X121153569Y-82933110D01*
X121102560Y-83185000D01*
X121102560Y-84455000D01*
X121146838Y-84690317D01*
X121285910Y-84906441D01*
X121498110Y-85051431D01*
X121686314Y-85089543D01*
X121514683Y-85121838D01*
X121298559Y-85260910D01*
X121153569Y-85473110D01*
X121102560Y-85725000D01*
X121102560Y-86995000D01*
X121146838Y-87230317D01*
X121285910Y-87446441D01*
X121498110Y-87591431D01*
X121750000Y-87642440D01*
X123550000Y-87642440D01*
X123785317Y-87598162D01*
X124001441Y-87459090D01*
X124045232Y-87395000D01*
X125301288Y-87395000D01*
X128808142Y-90901853D01*
X128808144Y-90901856D01*
X129143923Y-91126215D01*
X129540000Y-91205001D01*
X129540005Y-91205000D01*
X151503954Y-91205000D01*
X151869983Y-91449573D01*
X152400000Y-91555000D01*
X158750000Y-91555000D01*
X159280017Y-91449573D01*
X159729343Y-91149343D01*
X160455871Y-90422815D01*
X167864630Y-90422815D01*
X168188980Y-91207800D01*
X168789041Y-91808909D01*
X169573459Y-92134628D01*
X170422815Y-92135370D01*
X171207800Y-91811020D01*
X171808909Y-91210959D01*
X172134628Y-90426541D01*
X172135370Y-89577185D01*
X171811020Y-88792200D01*
X171210959Y-88191091D01*
X170426541Y-87865372D01*
X169577185Y-87864630D01*
X168792200Y-88188980D01*
X168191091Y-88789041D01*
X167865372Y-89573459D01*
X167864630Y-90422815D01*
X160455871Y-90422815D01*
X167349343Y-83529343D01*
X167533989Y-83253000D01*
X167649573Y-83080017D01*
X167755000Y-82550000D01*
X167755000Y-57194975D01*
X167866431Y-57031890D01*
X167917440Y-56780000D01*
X167917440Y-54980000D01*
X167873162Y-54744683D01*
X167734090Y-54528559D01*
X167530426Y-54389402D01*
X167564718Y-54355110D01*
X167450161Y-54240553D01*
X167706643Y-54154148D01*
X167916458Y-53580664D01*
X167890839Y-52970540D01*
X167706643Y-52525852D01*
X167450159Y-52439446D01*
X166549605Y-53340000D01*
X166563748Y-53354143D01*
X166384143Y-53533748D01*
X166370000Y-53519605D01*
X166355858Y-53533748D01*
X166176253Y-53354143D01*
X166190395Y-53340000D01*
X165289841Y-52439446D01*
X165033357Y-52525852D01*
X164823542Y-53099336D01*
X164849161Y-53709460D01*
X165033357Y-54154148D01*
X165289839Y-54240553D01*
X165175282Y-54355110D01*
X165211760Y-54391588D01*
X165051054Y-54495000D01*
X160256844Y-54495000D01*
X160214090Y-54428559D01*
X160001890Y-54283569D01*
X159750000Y-54232560D01*
X157750000Y-54232560D01*
X157528223Y-54274290D01*
X157489573Y-54079983D01*
X157189343Y-53630657D01*
X155919343Y-52360657D01*
X155768461Y-52259841D01*
X155470017Y-52060427D01*
X154940000Y-51955000D01*
X154869020Y-51955000D01*
X154871488Y-51952532D01*
X157777073Y-51952532D01*
X157875736Y-52219387D01*
X158485461Y-52445908D01*
X159135460Y-52421856D01*
X159526599Y-52259841D01*
X165469446Y-52259841D01*
X166370000Y-53160395D01*
X167270554Y-52259841D01*
X167184148Y-52003357D01*
X166610664Y-51793542D01*
X166000540Y-51819161D01*
X165555852Y-52003357D01*
X165469446Y-52259841D01*
X159526599Y-52259841D01*
X159624264Y-52219387D01*
X159722927Y-51952532D01*
X158750000Y-50979605D01*
X157777073Y-51952532D01*
X154871488Y-51952532D01*
X154936814Y-51887206D01*
X154822534Y-51772926D01*
X155089387Y-51674264D01*
X155315908Y-51064539D01*
X155296331Y-50535461D01*
X157104092Y-50535461D01*
X157128144Y-51185460D01*
X157330613Y-51674264D01*
X157597468Y-51772927D01*
X158570395Y-50800000D01*
X158929605Y-50800000D01*
X159902532Y-51772927D01*
X160169387Y-51674264D01*
X160395908Y-51064539D01*
X160371856Y-50414540D01*
X160169387Y-49925736D01*
X159902532Y-49827073D01*
X158929605Y-50800000D01*
X158570395Y-50800000D01*
X157597468Y-49827073D01*
X157330613Y-49925736D01*
X157104092Y-50535461D01*
X155296331Y-50535461D01*
X155291856Y-50414540D01*
X155089387Y-49925736D01*
X154822532Y-49827073D01*
X153849605Y-50800000D01*
X153863748Y-50814143D01*
X153684143Y-50993748D01*
X153670000Y-50979605D01*
X153655858Y-50993748D01*
X153476253Y-50814143D01*
X153490395Y-50800000D01*
X152517468Y-49827073D01*
X152250613Y-49925736D01*
X152024092Y-50535461D01*
X152048144Y-51185460D01*
X152250613Y-51674264D01*
X152517466Y-51772926D01*
X152403186Y-51887206D01*
X152470980Y-51955000D01*
X142355000Y-51955000D01*
X142355000Y-51079480D01*
X142405000Y-50828113D01*
X142405000Y-50771887D01*
X142295767Y-50222736D01*
X141984698Y-49757189D01*
X141820490Y-49647468D01*
X152697073Y-49647468D01*
X153670000Y-50620395D01*
X154642927Y-49647468D01*
X157777073Y-49647468D01*
X158750000Y-50620395D01*
X159722927Y-49647468D01*
X159624264Y-49380613D01*
X159014539Y-49154092D01*
X158364540Y-49178144D01*
X157875736Y-49380613D01*
X157777073Y-49647468D01*
X154642927Y-49647468D01*
X154544264Y-49380613D01*
X153934539Y-49154092D01*
X153284540Y-49178144D01*
X152795736Y-49380613D01*
X152697073Y-49647468D01*
X141820490Y-49647468D01*
X141519151Y-49446120D01*
X140970000Y-49336887D01*
X140420849Y-49446120D01*
X139955302Y-49757189D01*
X139644233Y-50222736D01*
X139535000Y-50771887D01*
X139535000Y-50828113D01*
X139585000Y-51079480D01*
X139585000Y-53541380D01*
X139573569Y-53558110D01*
X139522560Y-53810000D01*
X139522560Y-55410000D01*
X139566838Y-55645317D01*
X139705910Y-55861441D01*
X139918110Y-56006431D01*
X140170000Y-56057440D01*
X141770000Y-56057440D01*
X142005317Y-56013162D01*
X142221441Y-55874090D01*
X142366431Y-55661890D01*
X142417440Y-55410000D01*
X142417440Y-54725000D01*
X152512757Y-54725000D01*
X152284722Y-54952637D01*
X152035284Y-55553352D01*
X152034716Y-56203795D01*
X152283106Y-56804943D01*
X152285000Y-56806840D01*
X152285000Y-60386314D01*
X151826314Y-60845000D01*
X141362700Y-60845000D01*
X140970000Y-60766887D01*
X140577300Y-60845000D01*
X139003686Y-60845000D01*
X135599343Y-57440657D01*
X135579562Y-57427440D01*
X135150017Y-57140427D01*
X134620000Y-57035000D01*
X130113686Y-57035000D01*
X129655000Y-56576314D01*
X129655000Y-55442835D01*
X129795302Y-55652811D01*
X130260849Y-55963880D01*
X130810000Y-56073113D01*
X131202700Y-55995000D01*
X133350000Y-55995000D01*
X133880017Y-55889573D01*
X134329343Y-55589343D01*
X135599343Y-54319343D01*
X135651997Y-54240540D01*
X135899573Y-53870017D01*
X136005000Y-53340000D01*
X136005000Y-45023686D01*
X136463686Y-44565000D01*
X139901380Y-44565000D01*
X139918110Y-44576431D01*
X140170000Y-44627440D01*
X141770000Y-44627440D01*
X142005317Y-44583162D01*
X142033542Y-44565000D01*
X150556314Y-44565000D01*
X152034716Y-46043402D01*
X152034716Y-46043795D01*
X152283106Y-46644943D01*
X152742637Y-47105278D01*
X153343352Y-47354716D01*
X153993795Y-47355284D01*
X154594943Y-47106894D01*
X154829715Y-46872532D01*
X157777073Y-46872532D01*
X157875736Y-47139387D01*
X158485461Y-47365908D01*
X159135460Y-47341856D01*
X159624264Y-47139387D01*
X159722927Y-46872532D01*
X158750000Y-45899605D01*
X157777073Y-46872532D01*
X154829715Y-46872532D01*
X155055278Y-46647363D01*
X155304716Y-46046648D01*
X155305232Y-45455461D01*
X157104092Y-45455461D01*
X157128144Y-46105460D01*
X157330613Y-46594264D01*
X157597468Y-46692927D01*
X158570395Y-45720000D01*
X158929605Y-45720000D01*
X159902532Y-46692927D01*
X160169387Y-46594264D01*
X160395908Y-45984539D01*
X160371856Y-45334540D01*
X160169387Y-44845736D01*
X159902532Y-44747073D01*
X158929605Y-45720000D01*
X158570395Y-45720000D01*
X157597468Y-44747073D01*
X157330613Y-44845736D01*
X157104092Y-45455461D01*
X155305232Y-45455461D01*
X155305284Y-45396205D01*
X155056894Y-44795057D01*
X154829703Y-44567468D01*
X157777073Y-44567468D01*
X158750000Y-45540395D01*
X159722927Y-44567468D01*
X159624264Y-44300613D01*
X159014539Y-44074092D01*
X158364540Y-44098144D01*
X157875736Y-44300613D01*
X157777073Y-44567468D01*
X154829703Y-44567468D01*
X154597363Y-44334722D01*
X153996648Y-44085284D01*
X153993968Y-44085282D01*
X152109343Y-42200657D01*
X152014356Y-42137189D01*
X151660017Y-41900427D01*
X151130000Y-41795000D01*
X142038620Y-41795000D01*
X142021890Y-41783569D01*
X141770000Y-41732560D01*
X140170000Y-41732560D01*
X139934683Y-41776838D01*
X139906458Y-41795000D01*
X135890000Y-41795000D01*
X135359983Y-41900427D01*
X135005644Y-42137189D01*
X134910657Y-42200657D01*
X133640657Y-43470657D01*
X133340427Y-43919983D01*
X133235000Y-44450000D01*
X133235000Y-52766314D01*
X132776314Y-53225000D01*
X131202700Y-53225000D01*
X130810000Y-53146887D01*
X130260849Y-53256120D01*
X129795302Y-53567189D01*
X129655000Y-53777165D01*
X129655000Y-52643686D01*
X130051246Y-52247440D01*
X131610000Y-52247440D01*
X131845317Y-52203162D01*
X132061441Y-52064090D01*
X132206431Y-51851890D01*
X132257440Y-51600000D01*
X132257440Y-50000000D01*
X132213162Y-49764683D01*
X132074090Y-49548559D01*
X131861890Y-49403569D01*
X131610000Y-49352560D01*
X130010000Y-49352560D01*
X129774683Y-49396838D01*
X129746458Y-49415000D01*
X129540000Y-49415000D01*
X129009983Y-49520427D01*
X128655644Y-49757189D01*
X128560657Y-49820657D01*
X127290657Y-51090657D01*
X127115000Y-51353546D01*
X127115000Y-45023686D01*
X127573686Y-44565000D01*
X130417300Y-44565000D01*
X130810000Y-44643113D01*
X131359151Y-44533880D01*
X131824698Y-44222811D01*
X132135767Y-43757264D01*
X132245000Y-43208113D01*
X132245000Y-43151887D01*
X132135767Y-42602736D01*
X131824698Y-42137189D01*
X131359151Y-41826120D01*
X130810000Y-41716887D01*
X130417300Y-41795000D01*
X127000000Y-41795000D01*
X126469983Y-41900427D01*
X126115644Y-42137189D01*
X126020657Y-42200657D01*
X124750657Y-43470657D01*
X124450427Y-43919983D01*
X124345000Y-44450000D01*
X124345000Y-45605000D01*
X121577641Y-45605000D01*
X121577363Y-45604722D01*
X120976648Y-45355284D01*
X120326205Y-45354716D01*
X119725057Y-45603106D01*
X119264722Y-46062637D01*
X119015284Y-46663352D01*
X119014716Y-47313795D01*
X119263106Y-47914943D01*
X119722637Y-48375278D01*
X120323352Y-48624716D01*
X120973795Y-48625284D01*
X121574943Y-48376894D01*
X121576840Y-48375000D01*
X124345000Y-48375000D01*
X124345000Y-60960000D01*
X124450427Y-61490017D01*
X124750657Y-61939343D01*
X126020657Y-63209343D01*
X126469983Y-63509573D01*
X127000000Y-63615000D01*
X129741380Y-63615000D01*
X129758110Y-63626431D01*
X130010000Y-63677440D01*
X131610000Y-63677440D01*
X131845317Y-63633162D01*
X132061441Y-63494090D01*
X132206431Y-63281890D01*
X132257440Y-63030000D01*
X132257440Y-61430000D01*
X132213162Y-61194683D01*
X132074090Y-60978559D01*
X131861890Y-60833569D01*
X131610000Y-60782560D01*
X130010000Y-60782560D01*
X129774683Y-60826838D01*
X129746458Y-60845000D01*
X127573686Y-60845000D01*
X127115000Y-60386314D01*
X127115000Y-57866454D01*
X127254308Y-58074943D01*
X127290657Y-58129343D01*
X128560657Y-59399343D01*
X129009983Y-59699573D01*
X129540000Y-59805000D01*
X134046314Y-59805000D01*
X137450657Y-63209343D01*
X137899984Y-63509574D01*
X138430000Y-63615000D01*
X140577300Y-63615000D01*
X140970000Y-63693113D01*
X141362700Y-63615000D01*
X152400000Y-63615000D01*
X152930017Y-63509573D01*
X153379343Y-63209343D01*
X154649343Y-61939343D01*
X154825000Y-61676454D01*
X154825000Y-64196314D01*
X153096314Y-65925000D01*
X126303686Y-65925000D01*
X122035000Y-61656314D01*
X122035000Y-58077641D01*
X122035278Y-58077363D01*
X122284716Y-57476648D01*
X122285284Y-56826205D01*
X122036894Y-56225057D01*
X121577363Y-55764722D01*
X120976648Y-55515284D01*
X120326205Y-55514716D01*
X119725057Y-55763106D01*
X119495000Y-55992761D01*
X119495000Y-53455000D01*
X119722359Y-53455000D01*
X119722637Y-53455278D01*
X120323352Y-53704716D01*
X120973795Y-53705284D01*
X121574943Y-53456894D01*
X122035278Y-52997363D01*
X122284716Y-52396648D01*
X122285284Y-51746205D01*
X122036894Y-51145057D01*
X121577363Y-50684722D01*
X120976648Y-50435284D01*
X120326205Y-50434716D01*
X119725057Y-50683106D01*
X119723160Y-50685000D01*
X116497641Y-50685000D01*
X116497363Y-50684722D01*
X115896648Y-50435284D01*
X115246205Y-50434716D01*
X114645057Y-50683106D01*
X114643160Y-50685000D01*
X109264975Y-50685000D01*
X109101890Y-50573569D01*
X108850000Y-50522560D01*
X107050000Y-50522560D01*
X106814683Y-50566838D01*
X106598559Y-50705910D01*
X106453569Y-50918110D01*
X106402560Y-51170000D01*
X100710000Y-51170000D01*
X100710000Y-40377745D01*
X112241861Y-40377745D01*
X112315995Y-40623864D01*
X112853223Y-40816965D01*
X113423454Y-40789778D01*
X113824005Y-40623864D01*
X113898139Y-40377745D01*
X113070000Y-39549605D01*
X112241861Y-40377745D01*
X100710000Y-40377745D01*
X100710000Y-39153223D01*
X111623035Y-39153223D01*
X111650222Y-39723454D01*
X111816136Y-40124005D01*
X112062255Y-40198139D01*
X112890395Y-39370000D01*
X113249605Y-39370000D01*
X114077745Y-40198139D01*
X114185000Y-40165833D01*
X114185000Y-45483156D01*
X114118559Y-45525910D01*
X113973569Y-45738110D01*
X113922560Y-45990000D01*
X113922560Y-47990000D01*
X113966838Y-48225317D01*
X114105910Y-48441441D01*
X114318110Y-48586431D01*
X114570000Y-48637440D01*
X116570000Y-48637440D01*
X116805317Y-48593162D01*
X117021441Y-48454090D01*
X117166431Y-48241890D01*
X117217440Y-47990000D01*
X117217440Y-45990000D01*
X117173162Y-45754683D01*
X117034090Y-45538559D01*
X116955000Y-45484519D01*
X116955000Y-40755000D01*
X119380000Y-40755000D01*
X119910017Y-40649573D01*
X120359343Y-40349343D01*
X120659573Y-39900017D01*
X120765000Y-39370000D01*
X120659573Y-38839983D01*
X120359343Y-38390657D01*
X119910017Y-38090427D01*
X119380000Y-37985000D01*
X115976502Y-37985000D01*
X115856691Y-37935250D01*
X115285813Y-37934752D01*
X114758200Y-38152757D01*
X114354176Y-38556077D01*
X114326577Y-38622544D01*
X114323864Y-38615995D01*
X114077745Y-38541861D01*
X113249605Y-39370000D01*
X112890395Y-39370000D01*
X112062255Y-38541861D01*
X111816136Y-38615995D01*
X111623035Y-39153223D01*
X100710000Y-39153223D01*
X100710000Y-38362255D01*
X112241861Y-38362255D01*
X113070000Y-39190395D01*
X113898139Y-38362255D01*
X113824005Y-38116136D01*
X113286777Y-37923035D01*
X112716546Y-37950222D01*
X112315995Y-38116136D01*
X112241861Y-38362255D01*
X100710000Y-38362255D01*
X100710000Y-35422815D01*
X102864630Y-35422815D01*
X103188980Y-36207800D01*
X103789041Y-36808909D01*
X104573459Y-37134628D01*
X105422815Y-37135370D01*
X106207800Y-36811020D01*
X106808909Y-36210959D01*
X107134628Y-35426541D01*
X107135370Y-34577185D01*
X106917267Y-34049336D01*
X122913542Y-34049336D01*
X122939161Y-34659460D01*
X123123357Y-35104148D01*
X123379841Y-35190554D01*
X124280395Y-34290000D01*
X123379841Y-33389446D01*
X123123357Y-33475852D01*
X122913542Y-34049336D01*
X106917267Y-34049336D01*
X106811020Y-33792200D01*
X106229677Y-33209841D01*
X123559446Y-33209841D01*
X124460000Y-34110395D01*
X124474143Y-34096253D01*
X124653748Y-34275858D01*
X124639605Y-34290000D01*
X124653748Y-34304143D01*
X124474143Y-34483748D01*
X124460000Y-34469605D01*
X123559446Y-35370159D01*
X123645852Y-35626643D01*
X124219336Y-35836458D01*
X124829460Y-35810839D01*
X125274148Y-35626643D01*
X125360553Y-35370161D01*
X125475110Y-35484718D01*
X125511588Y-35448240D01*
X125615000Y-35608946D01*
X125615000Y-39370000D01*
X125664781Y-39620267D01*
X125664769Y-39634383D01*
X125670207Y-39647544D01*
X125720427Y-39900017D01*
X125862191Y-40112182D01*
X125867582Y-40125229D01*
X125877643Y-40135308D01*
X126020657Y-40349343D01*
X126232824Y-40491108D01*
X126242796Y-40501098D01*
X126255947Y-40506559D01*
X126469983Y-40649573D01*
X126720249Y-40699354D01*
X126733287Y-40704768D01*
X126747529Y-40704780D01*
X127000000Y-40755000D01*
X127250267Y-40705219D01*
X127264383Y-40705231D01*
X127277544Y-40699793D01*
X127530017Y-40649573D01*
X127742182Y-40507809D01*
X127755229Y-40502418D01*
X127765308Y-40492357D01*
X127979343Y-40349343D01*
X128121108Y-40137176D01*
X128131098Y-40127204D01*
X128136559Y-40114053D01*
X128279573Y-39900017D01*
X128329354Y-39649751D01*
X128334768Y-39636713D01*
X128334780Y-39622471D01*
X128385000Y-39370000D01*
X128385000Y-35604975D01*
X128496431Y-35441890D01*
X128500293Y-35422815D01*
X167864630Y-35422815D01*
X168188980Y-36207800D01*
X168789041Y-36808909D01*
X169573459Y-37134628D01*
X170422815Y-37135370D01*
X171207800Y-36811020D01*
X171808909Y-36210959D01*
X172134628Y-35426541D01*
X172135370Y-34577185D01*
X171811020Y-33792200D01*
X171210959Y-33191091D01*
X170426541Y-32865372D01*
X169577185Y-32864630D01*
X168792200Y-33188980D01*
X168191091Y-33789041D01*
X167865372Y-34573459D01*
X167864630Y-35422815D01*
X128500293Y-35422815D01*
X128547440Y-35190000D01*
X128547440Y-33390000D01*
X128503162Y-33154683D01*
X128364090Y-32938559D01*
X128151890Y-32793569D01*
X127900000Y-32742560D01*
X126100000Y-32742560D01*
X125864683Y-32786838D01*
X125648559Y-32925910D01*
X125509402Y-33129574D01*
X125475110Y-33095282D01*
X125360553Y-33209839D01*
X125274148Y-32953357D01*
X124700664Y-32743542D01*
X124090540Y-32769161D01*
X123645852Y-32953357D01*
X123559446Y-33209841D01*
X106229677Y-33209841D01*
X106210959Y-33191091D01*
X105426541Y-32865372D01*
X104577185Y-32864630D01*
X103792200Y-33188980D01*
X103191091Y-33789041D01*
X102865372Y-34573459D01*
X102864630Y-35422815D01*
X100710000Y-35422815D01*
X100710000Y-30710000D01*
X174290000Y-30710000D01*
X174290000Y-94290000D01*
G36*
X164985000Y-81976314D02*
X158176314Y-88785000D01*
X153785000Y-88785000D01*
X153785000Y-86360000D01*
X153706430Y-85965000D01*
X153679574Y-85829984D01*
X153379343Y-85380657D01*
X152695000Y-84696314D01*
X152695000Y-84241515D01*
X152852575Y-84005687D01*
X152977032Y-83380000D01*
X152852575Y-82754313D01*
X152498152Y-82223880D01*
X151967719Y-81869457D01*
X151342032Y-81745000D01*
X151277968Y-81745000D01*
X150652281Y-81869457D01*
X150121848Y-82223880D01*
X149767425Y-82754313D01*
X149642968Y-83380000D01*
X149767425Y-84005687D01*
X149925000Y-84241515D01*
X149925000Y-85270000D01*
X150030427Y-85800017D01*
X150213664Y-86074250D01*
X150330657Y-86249343D01*
X151015000Y-86933686D01*
X151015000Y-89135000D01*
X129968711Y-89135000D01*
X126461856Y-85628144D01*
X126126077Y-85403785D01*
X125730000Y-85324999D01*
X125729995Y-85325000D01*
X124047191Y-85325000D01*
X124014090Y-85273559D01*
X123801890Y-85128569D01*
X123613686Y-85090457D01*
X123785317Y-85058162D01*
X124001441Y-84919090D01*
X124045232Y-84855000D01*
X127841288Y-84855000D01*
X130078142Y-87091853D01*
X130078144Y-87091856D01*
X130279429Y-87226349D01*
X130413922Y-87316215D01*
X130810000Y-87395000D01*
X144779995Y-87395000D01*
X144780000Y-87395001D01*
X145176077Y-87316215D01*
X145511856Y-87091856D01*
X146941853Y-85661858D01*
X146941856Y-85661856D01*
X147076349Y-85460571D01*
X147166215Y-85326078D01*
X147245000Y-84930000D01*
X147245000Y-84638453D01*
X147398152Y-84536120D01*
X147752575Y-84005687D01*
X147877032Y-83380000D01*
X147752575Y-82754313D01*
X147595000Y-82518485D01*
X147595000Y-79141515D01*
X147752575Y-78905687D01*
X147801358Y-78660434D01*
X149719876Y-78660434D01*
X149916598Y-79135385D01*
X150350006Y-79603505D01*
X150929565Y-79870133D01*
X151183000Y-79751319D01*
X151183000Y-78407000D01*
X151437000Y-78407000D01*
X151437000Y-79751319D01*
X151690435Y-79870133D01*
X152269994Y-79603505D01*
X152703402Y-79135385D01*
X152900124Y-78660434D01*
X152780777Y-78407000D01*
X151437000Y-78407000D01*
X151183000Y-78407000D01*
X149839223Y-78407000D01*
X149719876Y-78660434D01*
X147801358Y-78660434D01*
X147877032Y-78280000D01*
X147801359Y-77899566D01*
X149719876Y-77899566D01*
X149839223Y-78153000D01*
X151183000Y-78153000D01*
X151183000Y-76808681D01*
X151437000Y-76808681D01*
X151437000Y-78153000D01*
X152780777Y-78153000D01*
X152900124Y-77899566D01*
X152703402Y-77424615D01*
X152269994Y-76956495D01*
X151690435Y-76689867D01*
X151437000Y-76808681D01*
X151183000Y-76808681D01*
X150929565Y-76689867D01*
X150350006Y-76956495D01*
X149916598Y-77424615D01*
X149719876Y-77899566D01*
X147801359Y-77899566D01*
X147752575Y-77654313D01*
X147595000Y-77418485D01*
X147595000Y-73820000D01*
X147540299Y-73545000D01*
X147489574Y-73289984D01*
X147189343Y-72840657D01*
X144489343Y-70140657D01*
X144469562Y-70127440D01*
X144040017Y-69840427D01*
X143510000Y-69735000D01*
X123763686Y-69735000D01*
X119495000Y-65466314D01*
X119495000Y-62946454D01*
X119550824Y-63030000D01*
X119670657Y-63209343D01*
X124750657Y-68289343D01*
X125199983Y-68589573D01*
X125730000Y-68695000D01*
X153670000Y-68695000D01*
X154200017Y-68589573D01*
X154649343Y-68289343D01*
X157189343Y-65749343D01*
X157489573Y-65300017D01*
X157595000Y-64770000D01*
X157595000Y-57496052D01*
X157750000Y-57527440D01*
X159750000Y-57527440D01*
X159985317Y-57483162D01*
X160201441Y-57344090D01*
X160255481Y-57265000D01*
X164985000Y-57265000D01*
X164985000Y-81976314D01*
X164985000Y-81976314D01*
G37*
X164985000Y-81976314D02*
X158176314Y-88785000D01*
X153785000Y-88785000D01*
X153785000Y-86360000D01*
X153706430Y-85965000D01*
X153679574Y-85829984D01*
X153379343Y-85380657D01*
X152695000Y-84696314D01*
X152695000Y-84241515D01*
X152852575Y-84005687D01*
X152977032Y-83380000D01*
X152852575Y-82754313D01*
X152498152Y-82223880D01*
X151967719Y-81869457D01*
X151342032Y-81745000D01*
X151277968Y-81745000D01*
X150652281Y-81869457D01*
X150121848Y-82223880D01*
X149767425Y-82754313D01*
X149642968Y-83380000D01*
X149767425Y-84005687D01*
X149925000Y-84241515D01*
X149925000Y-85270000D01*
X150030427Y-85800017D01*
X150213664Y-86074250D01*
X150330657Y-86249343D01*
X151015000Y-86933686D01*
X151015000Y-89135000D01*
X129968711Y-89135000D01*
X126461856Y-85628144D01*
X126126077Y-85403785D01*
X125730000Y-85324999D01*
X125729995Y-85325000D01*
X124047191Y-85325000D01*
X124014090Y-85273559D01*
X123801890Y-85128569D01*
X123613686Y-85090457D01*
X123785317Y-85058162D01*
X124001441Y-84919090D01*
X124045232Y-84855000D01*
X127841288Y-84855000D01*
X130078142Y-87091853D01*
X130078144Y-87091856D01*
X130279429Y-87226349D01*
X130413922Y-87316215D01*
X130810000Y-87395000D01*
X144779995Y-87395000D01*
X144780000Y-87395001D01*
X145176077Y-87316215D01*
X145511856Y-87091856D01*
X146941853Y-85661858D01*
X146941856Y-85661856D01*
X147076349Y-85460571D01*
X147166215Y-85326078D01*
X147245000Y-84930000D01*
X147245000Y-84638453D01*
X147398152Y-84536120D01*
X147752575Y-84005687D01*
X147877032Y-83380000D01*
X147752575Y-82754313D01*
X147595000Y-82518485D01*
X147595000Y-79141515D01*
X147752575Y-78905687D01*
X147801358Y-78660434D01*
X149719876Y-78660434D01*
X149916598Y-79135385D01*
X150350006Y-79603505D01*
X150929565Y-79870133D01*
X151183000Y-79751319D01*
X151183000Y-78407000D01*
X151437000Y-78407000D01*
X151437000Y-79751319D01*
X151690435Y-79870133D01*
X152269994Y-79603505D01*
X152703402Y-79135385D01*
X152900124Y-78660434D01*
X152780777Y-78407000D01*
X151437000Y-78407000D01*
X151183000Y-78407000D01*
X149839223Y-78407000D01*
X149719876Y-78660434D01*
X147801358Y-78660434D01*
X147877032Y-78280000D01*
X147801359Y-77899566D01*
X149719876Y-77899566D01*
X149839223Y-78153000D01*
X151183000Y-78153000D01*
X151183000Y-76808681D01*
X151437000Y-76808681D01*
X151437000Y-78153000D01*
X152780777Y-78153000D01*
X152900124Y-77899566D01*
X152703402Y-77424615D01*
X152269994Y-76956495D01*
X151690435Y-76689867D01*
X151437000Y-76808681D01*
X151183000Y-76808681D01*
X150929565Y-76689867D01*
X150350006Y-76956495D01*
X149916598Y-77424615D01*
X149719876Y-77899566D01*
X147801359Y-77899566D01*
X147752575Y-77654313D01*
X147595000Y-77418485D01*
X147595000Y-73820000D01*
X147540299Y-73545000D01*
X147489574Y-73289984D01*
X147189343Y-72840657D01*
X144489343Y-70140657D01*
X144469562Y-70127440D01*
X144040017Y-69840427D01*
X143510000Y-69735000D01*
X123763686Y-69735000D01*
X119495000Y-65466314D01*
X119495000Y-62946454D01*
X119550824Y-63030000D01*
X119670657Y-63209343D01*
X124750657Y-68289343D01*
X125199983Y-68589573D01*
X125730000Y-68695000D01*
X153670000Y-68695000D01*
X154200017Y-68589573D01*
X154649343Y-68289343D01*
X157189343Y-65749343D01*
X157489573Y-65300017D01*
X157595000Y-64770000D01*
X157595000Y-57496052D01*
X157750000Y-57527440D01*
X159750000Y-57527440D01*
X159985317Y-57483162D01*
X160201441Y-57344090D01*
X160255481Y-57265000D01*
X164985000Y-57265000D01*
X164985000Y-81976314D01*
M02*
