M48
;DRILL file {KiCad 4.0.7} date 02/26/18 19:34:20
;FORMAT={-:-/ absolute / inch / decimal}
FMAT,2
INCH,TZ
T1C0.028
T2C0.031
T3C0.039
%
G90
G05
M72
T1
X4.7Y-1.55
X5.Y-1.55
T2
X4.25Y-2.05
X4.25Y-2.15
X4.25Y-2.7
X4.25Y-2.8
X4.4516Y-1.55
X4.55Y-1.55
X4.9Y-1.35
X5.Y-1.35
X5.15Y-1.7
X5.15Y-2.
X5.15Y-2.15
X5.15Y-2.45
X5.55Y-1.7
X5.55Y-2.
X5.55Y-2.15
X5.55Y-2.45
X6.55Y-2.1
X6.55Y-2.2
T3
X4.1339Y-1.378
X4.1339Y-3.5433
X4.55Y-1.85
X4.55Y-2.05
X4.55Y-2.25
X4.75Y-1.85
X4.75Y-2.05
X4.75Y-2.25
X5.3547Y-3.0819
X5.3547Y-3.2827
X5.5555Y-3.0819
X5.5555Y-3.2827
X5.7563Y-3.0819
X5.7563Y-3.2827
X5.9571Y-3.0819
X5.9571Y-3.2827
X6.05Y-1.8
X6.05Y-2.
X6.05Y-2.2
X6.25Y-1.8
X6.25Y-2.
X6.25Y-2.2
X6.6929Y-1.378
X6.6929Y-3.5433
T0
M30
