G04 #@! TF.FileFunction,Copper,L1,Top,Signal*
%FSLAX46Y46*%
G04 Gerber Fmt 4.6, Leading zero omitted, Abs format (unit mm)*
G04 Created by KiCad (PCBNEW 4.0.7) date 03/29/18 19:10:49*
%MOMM*%
%LPD*%
G01*
G04 APERTURE LIST*
%ADD10C,0.100000*%
%ADD11C,1.600000*%
%ADD12C,1.500000*%
%ADD13R,1.800000X1.800000*%
%ADD14C,1.800000*%
%ADD15C,3.400000*%
%ADD16C,0.254000*%
G04 APERTURE END LIST*
D10*
D11*
X36830000Y-35560000D03*
D12*
X36830000Y-40640000D03*
D11*
X50800000Y-27940000D03*
D12*
X55880000Y-27940000D03*
D11*
X55880000Y-35560000D03*
D12*
X55880000Y-40640000D03*
D11*
X73660000Y-27940000D03*
D12*
X78740000Y-27940000D03*
D11*
X78740000Y-35560000D03*
D12*
X78740000Y-40640000D03*
D11*
X96520000Y-27940000D03*
D12*
X101600000Y-27940000D03*
D11*
X101600000Y-35560000D03*
D12*
X101600000Y-40640000D03*
D13*
X33020000Y-27940000D03*
D14*
X33020000Y-30480000D03*
D13*
X109220000Y-27940000D03*
D14*
X109220000Y-30480000D03*
D11*
X40640000Y-27940000D03*
X43180000Y-27940000D03*
X63500000Y-27940000D03*
X66040000Y-27940000D03*
X86360000Y-27940000D03*
X88900000Y-27940000D03*
D15*
X25000000Y-40000000D03*
X115000000Y-25000000D03*
X25000000Y-25000000D03*
X115000000Y-40000000D03*
D16*
G36*
X119290000Y-44290000D02*
X20710000Y-44290000D01*
X20710000Y-41658422D01*
X23521183Y-41658422D01*
X23705371Y-41997970D01*
X24568509Y-42341316D01*
X25497336Y-42328218D01*
X26294629Y-41997970D01*
X26478817Y-41658422D01*
X26431912Y-41611517D01*
X36038088Y-41611517D01*
X36106077Y-41852460D01*
X36625171Y-42037201D01*
X37175448Y-42009230D01*
X37553923Y-41852460D01*
X37621912Y-41611517D01*
X55088088Y-41611517D01*
X55156077Y-41852460D01*
X55675171Y-42037201D01*
X56225448Y-42009230D01*
X56603923Y-41852460D01*
X56671912Y-41611517D01*
X77948088Y-41611517D01*
X78016077Y-41852460D01*
X78535171Y-42037201D01*
X79085448Y-42009230D01*
X79463923Y-41852460D01*
X79531912Y-41611517D01*
X100808088Y-41611517D01*
X100876077Y-41852460D01*
X101395171Y-42037201D01*
X101945448Y-42009230D01*
X102323923Y-41852460D01*
X102378676Y-41658422D01*
X113521183Y-41658422D01*
X113705371Y-41997970D01*
X114568509Y-42341316D01*
X115497336Y-42328218D01*
X116294629Y-41997970D01*
X116478817Y-41658422D01*
X115000000Y-40179605D01*
X113521183Y-41658422D01*
X102378676Y-41658422D01*
X102391912Y-41611517D01*
X101600000Y-40819605D01*
X100808088Y-41611517D01*
X79531912Y-41611517D01*
X78740000Y-40819605D01*
X77948088Y-41611517D01*
X56671912Y-41611517D01*
X55880000Y-40819605D01*
X55088088Y-41611517D01*
X37621912Y-41611517D01*
X36830000Y-40819605D01*
X36038088Y-41611517D01*
X26431912Y-41611517D01*
X25000000Y-40179605D01*
X23521183Y-41658422D01*
X20710000Y-41658422D01*
X20710000Y-39568509D01*
X22658684Y-39568509D01*
X22671782Y-40497336D01*
X23002030Y-41294629D01*
X23341578Y-41478817D01*
X24820395Y-40000000D01*
X25179605Y-40000000D01*
X26658422Y-41478817D01*
X26997970Y-41294629D01*
X27339852Y-40435171D01*
X35432799Y-40435171D01*
X35460770Y-40985448D01*
X35617540Y-41363923D01*
X35858483Y-41431912D01*
X36650395Y-40640000D01*
X37009605Y-40640000D01*
X37801517Y-41431912D01*
X38042460Y-41363923D01*
X38227201Y-40844829D01*
X38206378Y-40435171D01*
X54482799Y-40435171D01*
X54510770Y-40985448D01*
X54667540Y-41363923D01*
X54908483Y-41431912D01*
X55700395Y-40640000D01*
X56059605Y-40640000D01*
X56851517Y-41431912D01*
X57092460Y-41363923D01*
X57277201Y-40844829D01*
X57256378Y-40435171D01*
X77342799Y-40435171D01*
X77370770Y-40985448D01*
X77527540Y-41363923D01*
X77768483Y-41431912D01*
X78560395Y-40640000D01*
X78919605Y-40640000D01*
X79711517Y-41431912D01*
X79952460Y-41363923D01*
X80137201Y-40844829D01*
X80116378Y-40435171D01*
X100202799Y-40435171D01*
X100230770Y-40985448D01*
X100387540Y-41363923D01*
X100628483Y-41431912D01*
X101420395Y-40640000D01*
X101779605Y-40640000D01*
X102571517Y-41431912D01*
X102812460Y-41363923D01*
X102997201Y-40844829D01*
X102969230Y-40294552D01*
X102812460Y-39916077D01*
X102571517Y-39848088D01*
X101779605Y-40640000D01*
X101420395Y-40640000D01*
X100628483Y-39848088D01*
X100387540Y-39916077D01*
X100202799Y-40435171D01*
X80116378Y-40435171D01*
X80109230Y-40294552D01*
X79952460Y-39916077D01*
X79711517Y-39848088D01*
X78919605Y-40640000D01*
X78560395Y-40640000D01*
X77768483Y-39848088D01*
X77527540Y-39916077D01*
X77342799Y-40435171D01*
X57256378Y-40435171D01*
X57249230Y-40294552D01*
X57092460Y-39916077D01*
X56851517Y-39848088D01*
X56059605Y-40640000D01*
X55700395Y-40640000D01*
X54908483Y-39848088D01*
X54667540Y-39916077D01*
X54482799Y-40435171D01*
X38206378Y-40435171D01*
X38199230Y-40294552D01*
X38042460Y-39916077D01*
X37801517Y-39848088D01*
X37009605Y-40640000D01*
X36650395Y-40640000D01*
X35858483Y-39848088D01*
X35617540Y-39916077D01*
X35432799Y-40435171D01*
X27339852Y-40435171D01*
X27341316Y-40431491D01*
X27330557Y-39668483D01*
X36038088Y-39668483D01*
X36830000Y-40460395D01*
X37621912Y-39668483D01*
X55088088Y-39668483D01*
X55880000Y-40460395D01*
X56671912Y-39668483D01*
X77948088Y-39668483D01*
X78740000Y-40460395D01*
X79531912Y-39668483D01*
X100808088Y-39668483D01*
X101600000Y-40460395D01*
X102391912Y-39668483D01*
X102363702Y-39568509D01*
X112658684Y-39568509D01*
X112671782Y-40497336D01*
X113002030Y-41294629D01*
X113341578Y-41478817D01*
X114820395Y-40000000D01*
X115179605Y-40000000D01*
X116658422Y-41478817D01*
X116997970Y-41294629D01*
X117341316Y-40431491D01*
X117328218Y-39502664D01*
X116997970Y-38705371D01*
X116658422Y-38521183D01*
X115179605Y-40000000D01*
X114820395Y-40000000D01*
X113341578Y-38521183D01*
X113002030Y-38705371D01*
X112658684Y-39568509D01*
X102363702Y-39568509D01*
X102323923Y-39427540D01*
X101804829Y-39242799D01*
X101254552Y-39270770D01*
X100876077Y-39427540D01*
X100808088Y-39668483D01*
X79531912Y-39668483D01*
X79463923Y-39427540D01*
X78944829Y-39242799D01*
X78394552Y-39270770D01*
X78016077Y-39427540D01*
X77948088Y-39668483D01*
X56671912Y-39668483D01*
X56603923Y-39427540D01*
X56084829Y-39242799D01*
X55534552Y-39270770D01*
X55156077Y-39427540D01*
X55088088Y-39668483D01*
X37621912Y-39668483D01*
X37553923Y-39427540D01*
X37034829Y-39242799D01*
X36484552Y-39270770D01*
X36106077Y-39427540D01*
X36038088Y-39668483D01*
X27330557Y-39668483D01*
X27328218Y-39502664D01*
X26997970Y-38705371D01*
X26658422Y-38521183D01*
X25179605Y-40000000D01*
X24820395Y-40000000D01*
X23341578Y-38521183D01*
X23002030Y-38705371D01*
X22658684Y-39568509D01*
X20710000Y-39568509D01*
X20710000Y-38341578D01*
X23521183Y-38341578D01*
X25000000Y-39820395D01*
X26478817Y-38341578D01*
X113521183Y-38341578D01*
X115000000Y-39820395D01*
X116478817Y-38341578D01*
X116294629Y-38002030D01*
X115431491Y-37658684D01*
X114502664Y-37671782D01*
X113705371Y-38002030D01*
X113521183Y-38341578D01*
X26478817Y-38341578D01*
X26294629Y-38002030D01*
X25431491Y-37658684D01*
X24502664Y-37671782D01*
X23705371Y-38002030D01*
X23521183Y-38341578D01*
X20710000Y-38341578D01*
X20710000Y-35844187D01*
X35394752Y-35844187D01*
X35612757Y-36371800D01*
X36016077Y-36775824D01*
X36543309Y-36994750D01*
X37114187Y-36995248D01*
X37641800Y-36777243D01*
X38045824Y-36373923D01*
X38264750Y-35846691D01*
X38264752Y-35844187D01*
X54444752Y-35844187D01*
X54662757Y-36371800D01*
X55066077Y-36775824D01*
X55593309Y-36994750D01*
X56164187Y-36995248D01*
X56691800Y-36777243D01*
X57095824Y-36373923D01*
X57314750Y-35846691D01*
X57314752Y-35844187D01*
X77304752Y-35844187D01*
X77522757Y-36371800D01*
X77926077Y-36775824D01*
X78453309Y-36994750D01*
X79024187Y-36995248D01*
X79551800Y-36777243D01*
X79955824Y-36373923D01*
X80174750Y-35846691D01*
X80174752Y-35844187D01*
X100164752Y-35844187D01*
X100382757Y-36371800D01*
X100786077Y-36775824D01*
X101313309Y-36994750D01*
X101884187Y-36995248D01*
X102411800Y-36777243D01*
X102815824Y-36373923D01*
X103034750Y-35846691D01*
X103035248Y-35275813D01*
X102817243Y-34748200D01*
X102413923Y-34344176D01*
X101886691Y-34125250D01*
X101315813Y-34124752D01*
X100788200Y-34342757D01*
X100384176Y-34746077D01*
X100165250Y-35273309D01*
X100164752Y-35844187D01*
X80174752Y-35844187D01*
X80175248Y-35275813D01*
X79957243Y-34748200D01*
X79553923Y-34344176D01*
X79026691Y-34125250D01*
X78455813Y-34124752D01*
X77928200Y-34342757D01*
X77524176Y-34746077D01*
X77305250Y-35273309D01*
X77304752Y-35844187D01*
X57314752Y-35844187D01*
X57315248Y-35275813D01*
X57097243Y-34748200D01*
X56693923Y-34344176D01*
X56166691Y-34125250D01*
X55595813Y-34124752D01*
X55068200Y-34342757D01*
X54664176Y-34746077D01*
X54445250Y-35273309D01*
X54444752Y-35844187D01*
X38264752Y-35844187D01*
X38265248Y-35275813D01*
X38047243Y-34748200D01*
X37643923Y-34344176D01*
X37116691Y-34125250D01*
X36545813Y-34124752D01*
X36018200Y-34342757D01*
X35614176Y-34746077D01*
X35395250Y-35273309D01*
X35394752Y-35844187D01*
X20710000Y-35844187D01*
X20710000Y-31560159D01*
X32119446Y-31560159D01*
X32205852Y-31816643D01*
X32779336Y-32026458D01*
X33389460Y-32000839D01*
X33834148Y-31816643D01*
X33920554Y-31560159D01*
X108319446Y-31560159D01*
X108405852Y-31816643D01*
X108979336Y-32026458D01*
X109589460Y-32000839D01*
X110034148Y-31816643D01*
X110120554Y-31560159D01*
X109220000Y-30659605D01*
X108319446Y-31560159D01*
X33920554Y-31560159D01*
X33020000Y-30659605D01*
X32119446Y-31560159D01*
X20710000Y-31560159D01*
X20710000Y-26658422D01*
X23521183Y-26658422D01*
X23705371Y-26997970D01*
X24568509Y-27341316D01*
X25497336Y-27328218D01*
X26193159Y-27040000D01*
X31472560Y-27040000D01*
X31472560Y-28840000D01*
X31516838Y-29075317D01*
X31655910Y-29291441D01*
X31859574Y-29430598D01*
X31825282Y-29464890D01*
X31939839Y-29579447D01*
X31683357Y-29665852D01*
X31473542Y-30239336D01*
X31499161Y-30849460D01*
X31683357Y-31294148D01*
X31939841Y-31380554D01*
X32840395Y-30480000D01*
X32826253Y-30465858D01*
X33005858Y-30286253D01*
X33020000Y-30300395D01*
X33034143Y-30286253D01*
X33213748Y-30465858D01*
X33199605Y-30480000D01*
X34100159Y-31380554D01*
X34356643Y-31294148D01*
X34566458Y-30720664D01*
X34540839Y-30110540D01*
X34356643Y-29665852D01*
X34100161Y-29579447D01*
X34214718Y-29464890D01*
X34178240Y-29428412D01*
X34371441Y-29304090D01*
X34516431Y-29091890D01*
X34567440Y-28840000D01*
X34567440Y-28224187D01*
X39204752Y-28224187D01*
X39422757Y-28751800D01*
X39826077Y-29155824D01*
X40353309Y-29374750D01*
X40924187Y-29375248D01*
X41451800Y-29157243D01*
X41855824Y-28753923D01*
X41909862Y-28623785D01*
X41962757Y-28751800D01*
X42366077Y-29155824D01*
X42893309Y-29374750D01*
X43464187Y-29375248D01*
X43991800Y-29157243D01*
X44395824Y-28753923D01*
X44614750Y-28226691D01*
X44614752Y-28224187D01*
X49364752Y-28224187D01*
X49582757Y-28751800D01*
X49986077Y-29155824D01*
X50513309Y-29374750D01*
X51084187Y-29375248D01*
X51611800Y-29157243D01*
X52015824Y-28753923D01*
X52234750Y-28226691D01*
X52234760Y-28214285D01*
X54494760Y-28214285D01*
X54705169Y-28723515D01*
X55094436Y-29113461D01*
X55603298Y-29324759D01*
X56154285Y-29325240D01*
X56663515Y-29114831D01*
X57053461Y-28725564D01*
X57261650Y-28224187D01*
X62064752Y-28224187D01*
X62282757Y-28751800D01*
X62686077Y-29155824D01*
X63213309Y-29374750D01*
X63784187Y-29375248D01*
X64311800Y-29157243D01*
X64715824Y-28753923D01*
X64769862Y-28623785D01*
X64822757Y-28751800D01*
X65226077Y-29155824D01*
X65753309Y-29374750D01*
X66324187Y-29375248D01*
X66851800Y-29157243D01*
X67255824Y-28753923D01*
X67474750Y-28226691D01*
X67474752Y-28224187D01*
X72224752Y-28224187D01*
X72442757Y-28751800D01*
X72846077Y-29155824D01*
X73373309Y-29374750D01*
X73944187Y-29375248D01*
X74471800Y-29157243D01*
X74875824Y-28753923D01*
X75094750Y-28226691D01*
X75094760Y-28214285D01*
X77354760Y-28214285D01*
X77565169Y-28723515D01*
X77954436Y-29113461D01*
X78463298Y-29324759D01*
X79014285Y-29325240D01*
X79523515Y-29114831D01*
X79913461Y-28725564D01*
X80121650Y-28224187D01*
X84924752Y-28224187D01*
X85142757Y-28751800D01*
X85546077Y-29155824D01*
X86073309Y-29374750D01*
X86644187Y-29375248D01*
X87171800Y-29157243D01*
X87575824Y-28753923D01*
X87629862Y-28623785D01*
X87682757Y-28751800D01*
X88086077Y-29155824D01*
X88613309Y-29374750D01*
X89184187Y-29375248D01*
X89711800Y-29157243D01*
X90115824Y-28753923D01*
X90334750Y-28226691D01*
X90334752Y-28224187D01*
X95084752Y-28224187D01*
X95302757Y-28751800D01*
X95706077Y-29155824D01*
X96233309Y-29374750D01*
X96804187Y-29375248D01*
X97331800Y-29157243D01*
X97735824Y-28753923D01*
X97954750Y-28226691D01*
X97954760Y-28214285D01*
X100214760Y-28214285D01*
X100425169Y-28723515D01*
X100814436Y-29113461D01*
X101323298Y-29324759D01*
X101874285Y-29325240D01*
X102383515Y-29114831D01*
X102773461Y-28725564D01*
X102984759Y-28216702D01*
X102985240Y-27665715D01*
X102774831Y-27156485D01*
X102658549Y-27040000D01*
X107672560Y-27040000D01*
X107672560Y-28840000D01*
X107716838Y-29075317D01*
X107855910Y-29291441D01*
X108059574Y-29430598D01*
X108025282Y-29464890D01*
X108139839Y-29579447D01*
X107883357Y-29665852D01*
X107673542Y-30239336D01*
X107699161Y-30849460D01*
X107883357Y-31294148D01*
X108139841Y-31380554D01*
X109040395Y-30480000D01*
X109026253Y-30465858D01*
X109205858Y-30286253D01*
X109220000Y-30300395D01*
X109234143Y-30286253D01*
X109413748Y-30465858D01*
X109399605Y-30480000D01*
X110300159Y-31380554D01*
X110556643Y-31294148D01*
X110766458Y-30720664D01*
X110740839Y-30110540D01*
X110556643Y-29665852D01*
X110300161Y-29579447D01*
X110414718Y-29464890D01*
X110378240Y-29428412D01*
X110571441Y-29304090D01*
X110716431Y-29091890D01*
X110767440Y-28840000D01*
X110767440Y-27040000D01*
X110723162Y-26804683D01*
X110629046Y-26658422D01*
X113521183Y-26658422D01*
X113705371Y-26997970D01*
X114568509Y-27341316D01*
X115497336Y-27328218D01*
X116294629Y-26997970D01*
X116478817Y-26658422D01*
X115000000Y-25179605D01*
X113521183Y-26658422D01*
X110629046Y-26658422D01*
X110584090Y-26588559D01*
X110371890Y-26443569D01*
X110120000Y-26392560D01*
X108320000Y-26392560D01*
X108084683Y-26436838D01*
X107868559Y-26575910D01*
X107723569Y-26788110D01*
X107672560Y-27040000D01*
X102658549Y-27040000D01*
X102385564Y-26766539D01*
X101876702Y-26555241D01*
X101325715Y-26554760D01*
X100816485Y-26765169D01*
X100426539Y-27154436D01*
X100215241Y-27663298D01*
X100214760Y-28214285D01*
X97954760Y-28214285D01*
X97955248Y-27655813D01*
X97737243Y-27128200D01*
X97333923Y-26724176D01*
X96806691Y-26505250D01*
X96235813Y-26504752D01*
X95708200Y-26722757D01*
X95304176Y-27126077D01*
X95085250Y-27653309D01*
X95084752Y-28224187D01*
X90334752Y-28224187D01*
X90335248Y-27655813D01*
X90117243Y-27128200D01*
X89713923Y-26724176D01*
X89186691Y-26505250D01*
X88615813Y-26504752D01*
X88088200Y-26722757D01*
X87684176Y-27126077D01*
X87630138Y-27256215D01*
X87577243Y-27128200D01*
X87173923Y-26724176D01*
X86646691Y-26505250D01*
X86075813Y-26504752D01*
X85548200Y-26722757D01*
X85144176Y-27126077D01*
X84925250Y-27653309D01*
X84924752Y-28224187D01*
X80121650Y-28224187D01*
X80124759Y-28216702D01*
X80125240Y-27665715D01*
X79914831Y-27156485D01*
X79525564Y-26766539D01*
X79016702Y-26555241D01*
X78465715Y-26554760D01*
X77956485Y-26765169D01*
X77566539Y-27154436D01*
X77355241Y-27663298D01*
X77354760Y-28214285D01*
X75094760Y-28214285D01*
X75095248Y-27655813D01*
X74877243Y-27128200D01*
X74473923Y-26724176D01*
X73946691Y-26505250D01*
X73375813Y-26504752D01*
X72848200Y-26722757D01*
X72444176Y-27126077D01*
X72225250Y-27653309D01*
X72224752Y-28224187D01*
X67474752Y-28224187D01*
X67475248Y-27655813D01*
X67257243Y-27128200D01*
X66853923Y-26724176D01*
X66326691Y-26505250D01*
X65755813Y-26504752D01*
X65228200Y-26722757D01*
X64824176Y-27126077D01*
X64770138Y-27256215D01*
X64717243Y-27128200D01*
X64313923Y-26724176D01*
X63786691Y-26505250D01*
X63215813Y-26504752D01*
X62688200Y-26722757D01*
X62284176Y-27126077D01*
X62065250Y-27653309D01*
X62064752Y-28224187D01*
X57261650Y-28224187D01*
X57264759Y-28216702D01*
X57265240Y-27665715D01*
X57054831Y-27156485D01*
X56665564Y-26766539D01*
X56156702Y-26555241D01*
X55605715Y-26554760D01*
X55096485Y-26765169D01*
X54706539Y-27154436D01*
X54495241Y-27663298D01*
X54494760Y-28214285D01*
X52234760Y-28214285D01*
X52235248Y-27655813D01*
X52017243Y-27128200D01*
X51613923Y-26724176D01*
X51086691Y-26505250D01*
X50515813Y-26504752D01*
X49988200Y-26722757D01*
X49584176Y-27126077D01*
X49365250Y-27653309D01*
X49364752Y-28224187D01*
X44614752Y-28224187D01*
X44615248Y-27655813D01*
X44397243Y-27128200D01*
X43993923Y-26724176D01*
X43466691Y-26505250D01*
X42895813Y-26504752D01*
X42368200Y-26722757D01*
X41964176Y-27126077D01*
X41910138Y-27256215D01*
X41857243Y-27128200D01*
X41453923Y-26724176D01*
X40926691Y-26505250D01*
X40355813Y-26504752D01*
X39828200Y-26722757D01*
X39424176Y-27126077D01*
X39205250Y-27653309D01*
X39204752Y-28224187D01*
X34567440Y-28224187D01*
X34567440Y-27040000D01*
X34523162Y-26804683D01*
X34384090Y-26588559D01*
X34171890Y-26443569D01*
X33920000Y-26392560D01*
X32120000Y-26392560D01*
X31884683Y-26436838D01*
X31668559Y-26575910D01*
X31523569Y-26788110D01*
X31472560Y-27040000D01*
X26193159Y-27040000D01*
X26294629Y-26997970D01*
X26478817Y-26658422D01*
X25000000Y-25179605D01*
X23521183Y-26658422D01*
X20710000Y-26658422D01*
X20710000Y-24568509D01*
X22658684Y-24568509D01*
X22671782Y-25497336D01*
X23002030Y-26294629D01*
X23341578Y-26478817D01*
X24820395Y-25000000D01*
X25179605Y-25000000D01*
X26658422Y-26478817D01*
X26997970Y-26294629D01*
X27341316Y-25431491D01*
X27329147Y-24568509D01*
X112658684Y-24568509D01*
X112671782Y-25497336D01*
X113002030Y-26294629D01*
X113341578Y-26478817D01*
X114820395Y-25000000D01*
X115179605Y-25000000D01*
X116658422Y-26478817D01*
X116997970Y-26294629D01*
X117341316Y-25431491D01*
X117328218Y-24502664D01*
X116997970Y-23705371D01*
X116658422Y-23521183D01*
X115179605Y-25000000D01*
X114820395Y-25000000D01*
X113341578Y-23521183D01*
X113002030Y-23705371D01*
X112658684Y-24568509D01*
X27329147Y-24568509D01*
X27328218Y-24502664D01*
X26997970Y-23705371D01*
X26658422Y-23521183D01*
X25179605Y-25000000D01*
X24820395Y-25000000D01*
X23341578Y-23521183D01*
X23002030Y-23705371D01*
X22658684Y-24568509D01*
X20710000Y-24568509D01*
X20710000Y-23341578D01*
X23521183Y-23341578D01*
X25000000Y-24820395D01*
X26478817Y-23341578D01*
X113521183Y-23341578D01*
X115000000Y-24820395D01*
X116478817Y-23341578D01*
X116294629Y-23002030D01*
X115431491Y-22658684D01*
X114502664Y-22671782D01*
X113705371Y-23002030D01*
X113521183Y-23341578D01*
X26478817Y-23341578D01*
X26294629Y-23002030D01*
X25431491Y-22658684D01*
X24502664Y-22671782D01*
X23705371Y-23002030D01*
X23521183Y-23341578D01*
X20710000Y-23341578D01*
X20710000Y-20710000D01*
X119290000Y-20710000D01*
X119290000Y-44290000D01*
X119290000Y-44290000D01*
G37*
X119290000Y-44290000D02*
X20710000Y-44290000D01*
X20710000Y-41658422D01*
X23521183Y-41658422D01*
X23705371Y-41997970D01*
X24568509Y-42341316D01*
X25497336Y-42328218D01*
X26294629Y-41997970D01*
X26478817Y-41658422D01*
X26431912Y-41611517D01*
X36038088Y-41611517D01*
X36106077Y-41852460D01*
X36625171Y-42037201D01*
X37175448Y-42009230D01*
X37553923Y-41852460D01*
X37621912Y-41611517D01*
X55088088Y-41611517D01*
X55156077Y-41852460D01*
X55675171Y-42037201D01*
X56225448Y-42009230D01*
X56603923Y-41852460D01*
X56671912Y-41611517D01*
X77948088Y-41611517D01*
X78016077Y-41852460D01*
X78535171Y-42037201D01*
X79085448Y-42009230D01*
X79463923Y-41852460D01*
X79531912Y-41611517D01*
X100808088Y-41611517D01*
X100876077Y-41852460D01*
X101395171Y-42037201D01*
X101945448Y-42009230D01*
X102323923Y-41852460D01*
X102378676Y-41658422D01*
X113521183Y-41658422D01*
X113705371Y-41997970D01*
X114568509Y-42341316D01*
X115497336Y-42328218D01*
X116294629Y-41997970D01*
X116478817Y-41658422D01*
X115000000Y-40179605D01*
X113521183Y-41658422D01*
X102378676Y-41658422D01*
X102391912Y-41611517D01*
X101600000Y-40819605D01*
X100808088Y-41611517D01*
X79531912Y-41611517D01*
X78740000Y-40819605D01*
X77948088Y-41611517D01*
X56671912Y-41611517D01*
X55880000Y-40819605D01*
X55088088Y-41611517D01*
X37621912Y-41611517D01*
X36830000Y-40819605D01*
X36038088Y-41611517D01*
X26431912Y-41611517D01*
X25000000Y-40179605D01*
X23521183Y-41658422D01*
X20710000Y-41658422D01*
X20710000Y-39568509D01*
X22658684Y-39568509D01*
X22671782Y-40497336D01*
X23002030Y-41294629D01*
X23341578Y-41478817D01*
X24820395Y-40000000D01*
X25179605Y-40000000D01*
X26658422Y-41478817D01*
X26997970Y-41294629D01*
X27339852Y-40435171D01*
X35432799Y-40435171D01*
X35460770Y-40985448D01*
X35617540Y-41363923D01*
X35858483Y-41431912D01*
X36650395Y-40640000D01*
X37009605Y-40640000D01*
X37801517Y-41431912D01*
X38042460Y-41363923D01*
X38227201Y-40844829D01*
X38206378Y-40435171D01*
X54482799Y-40435171D01*
X54510770Y-40985448D01*
X54667540Y-41363923D01*
X54908483Y-41431912D01*
X55700395Y-40640000D01*
X56059605Y-40640000D01*
X56851517Y-41431912D01*
X57092460Y-41363923D01*
X57277201Y-40844829D01*
X57256378Y-40435171D01*
X77342799Y-40435171D01*
X77370770Y-40985448D01*
X77527540Y-41363923D01*
X77768483Y-41431912D01*
X78560395Y-40640000D01*
X78919605Y-40640000D01*
X79711517Y-41431912D01*
X79952460Y-41363923D01*
X80137201Y-40844829D01*
X80116378Y-40435171D01*
X100202799Y-40435171D01*
X100230770Y-40985448D01*
X100387540Y-41363923D01*
X100628483Y-41431912D01*
X101420395Y-40640000D01*
X101779605Y-40640000D01*
X102571517Y-41431912D01*
X102812460Y-41363923D01*
X102997201Y-40844829D01*
X102969230Y-40294552D01*
X102812460Y-39916077D01*
X102571517Y-39848088D01*
X101779605Y-40640000D01*
X101420395Y-40640000D01*
X100628483Y-39848088D01*
X100387540Y-39916077D01*
X100202799Y-40435171D01*
X80116378Y-40435171D01*
X80109230Y-40294552D01*
X79952460Y-39916077D01*
X79711517Y-39848088D01*
X78919605Y-40640000D01*
X78560395Y-40640000D01*
X77768483Y-39848088D01*
X77527540Y-39916077D01*
X77342799Y-40435171D01*
X57256378Y-40435171D01*
X57249230Y-40294552D01*
X57092460Y-39916077D01*
X56851517Y-39848088D01*
X56059605Y-40640000D01*
X55700395Y-40640000D01*
X54908483Y-39848088D01*
X54667540Y-39916077D01*
X54482799Y-40435171D01*
X38206378Y-40435171D01*
X38199230Y-40294552D01*
X38042460Y-39916077D01*
X37801517Y-39848088D01*
X37009605Y-40640000D01*
X36650395Y-40640000D01*
X35858483Y-39848088D01*
X35617540Y-39916077D01*
X35432799Y-40435171D01*
X27339852Y-40435171D01*
X27341316Y-40431491D01*
X27330557Y-39668483D01*
X36038088Y-39668483D01*
X36830000Y-40460395D01*
X37621912Y-39668483D01*
X55088088Y-39668483D01*
X55880000Y-40460395D01*
X56671912Y-39668483D01*
X77948088Y-39668483D01*
X78740000Y-40460395D01*
X79531912Y-39668483D01*
X100808088Y-39668483D01*
X101600000Y-40460395D01*
X102391912Y-39668483D01*
X102363702Y-39568509D01*
X112658684Y-39568509D01*
X112671782Y-40497336D01*
X113002030Y-41294629D01*
X113341578Y-41478817D01*
X114820395Y-40000000D01*
X115179605Y-40000000D01*
X116658422Y-41478817D01*
X116997970Y-41294629D01*
X117341316Y-40431491D01*
X117328218Y-39502664D01*
X116997970Y-38705371D01*
X116658422Y-38521183D01*
X115179605Y-40000000D01*
X114820395Y-40000000D01*
X113341578Y-38521183D01*
X113002030Y-38705371D01*
X112658684Y-39568509D01*
X102363702Y-39568509D01*
X102323923Y-39427540D01*
X101804829Y-39242799D01*
X101254552Y-39270770D01*
X100876077Y-39427540D01*
X100808088Y-39668483D01*
X79531912Y-39668483D01*
X79463923Y-39427540D01*
X78944829Y-39242799D01*
X78394552Y-39270770D01*
X78016077Y-39427540D01*
X77948088Y-39668483D01*
X56671912Y-39668483D01*
X56603923Y-39427540D01*
X56084829Y-39242799D01*
X55534552Y-39270770D01*
X55156077Y-39427540D01*
X55088088Y-39668483D01*
X37621912Y-39668483D01*
X37553923Y-39427540D01*
X37034829Y-39242799D01*
X36484552Y-39270770D01*
X36106077Y-39427540D01*
X36038088Y-39668483D01*
X27330557Y-39668483D01*
X27328218Y-39502664D01*
X26997970Y-38705371D01*
X26658422Y-38521183D01*
X25179605Y-40000000D01*
X24820395Y-40000000D01*
X23341578Y-38521183D01*
X23002030Y-38705371D01*
X22658684Y-39568509D01*
X20710000Y-39568509D01*
X20710000Y-38341578D01*
X23521183Y-38341578D01*
X25000000Y-39820395D01*
X26478817Y-38341578D01*
X113521183Y-38341578D01*
X115000000Y-39820395D01*
X116478817Y-38341578D01*
X116294629Y-38002030D01*
X115431491Y-37658684D01*
X114502664Y-37671782D01*
X113705371Y-38002030D01*
X113521183Y-38341578D01*
X26478817Y-38341578D01*
X26294629Y-38002030D01*
X25431491Y-37658684D01*
X24502664Y-37671782D01*
X23705371Y-38002030D01*
X23521183Y-38341578D01*
X20710000Y-38341578D01*
X20710000Y-35844187D01*
X35394752Y-35844187D01*
X35612757Y-36371800D01*
X36016077Y-36775824D01*
X36543309Y-36994750D01*
X37114187Y-36995248D01*
X37641800Y-36777243D01*
X38045824Y-36373923D01*
X38264750Y-35846691D01*
X38264752Y-35844187D01*
X54444752Y-35844187D01*
X54662757Y-36371800D01*
X55066077Y-36775824D01*
X55593309Y-36994750D01*
X56164187Y-36995248D01*
X56691800Y-36777243D01*
X57095824Y-36373923D01*
X57314750Y-35846691D01*
X57314752Y-35844187D01*
X77304752Y-35844187D01*
X77522757Y-36371800D01*
X77926077Y-36775824D01*
X78453309Y-36994750D01*
X79024187Y-36995248D01*
X79551800Y-36777243D01*
X79955824Y-36373923D01*
X80174750Y-35846691D01*
X80174752Y-35844187D01*
X100164752Y-35844187D01*
X100382757Y-36371800D01*
X100786077Y-36775824D01*
X101313309Y-36994750D01*
X101884187Y-36995248D01*
X102411800Y-36777243D01*
X102815824Y-36373923D01*
X103034750Y-35846691D01*
X103035248Y-35275813D01*
X102817243Y-34748200D01*
X102413923Y-34344176D01*
X101886691Y-34125250D01*
X101315813Y-34124752D01*
X100788200Y-34342757D01*
X100384176Y-34746077D01*
X100165250Y-35273309D01*
X100164752Y-35844187D01*
X80174752Y-35844187D01*
X80175248Y-35275813D01*
X79957243Y-34748200D01*
X79553923Y-34344176D01*
X79026691Y-34125250D01*
X78455813Y-34124752D01*
X77928200Y-34342757D01*
X77524176Y-34746077D01*
X77305250Y-35273309D01*
X77304752Y-35844187D01*
X57314752Y-35844187D01*
X57315248Y-35275813D01*
X57097243Y-34748200D01*
X56693923Y-34344176D01*
X56166691Y-34125250D01*
X55595813Y-34124752D01*
X55068200Y-34342757D01*
X54664176Y-34746077D01*
X54445250Y-35273309D01*
X54444752Y-35844187D01*
X38264752Y-35844187D01*
X38265248Y-35275813D01*
X38047243Y-34748200D01*
X37643923Y-34344176D01*
X37116691Y-34125250D01*
X36545813Y-34124752D01*
X36018200Y-34342757D01*
X35614176Y-34746077D01*
X35395250Y-35273309D01*
X35394752Y-35844187D01*
X20710000Y-35844187D01*
X20710000Y-31560159D01*
X32119446Y-31560159D01*
X32205852Y-31816643D01*
X32779336Y-32026458D01*
X33389460Y-32000839D01*
X33834148Y-31816643D01*
X33920554Y-31560159D01*
X108319446Y-31560159D01*
X108405852Y-31816643D01*
X108979336Y-32026458D01*
X109589460Y-32000839D01*
X110034148Y-31816643D01*
X110120554Y-31560159D01*
X109220000Y-30659605D01*
X108319446Y-31560159D01*
X33920554Y-31560159D01*
X33020000Y-30659605D01*
X32119446Y-31560159D01*
X20710000Y-31560159D01*
X20710000Y-26658422D01*
X23521183Y-26658422D01*
X23705371Y-26997970D01*
X24568509Y-27341316D01*
X25497336Y-27328218D01*
X26193159Y-27040000D01*
X31472560Y-27040000D01*
X31472560Y-28840000D01*
X31516838Y-29075317D01*
X31655910Y-29291441D01*
X31859574Y-29430598D01*
X31825282Y-29464890D01*
X31939839Y-29579447D01*
X31683357Y-29665852D01*
X31473542Y-30239336D01*
X31499161Y-30849460D01*
X31683357Y-31294148D01*
X31939841Y-31380554D01*
X32840395Y-30480000D01*
X32826253Y-30465858D01*
X33005858Y-30286253D01*
X33020000Y-30300395D01*
X33034143Y-30286253D01*
X33213748Y-30465858D01*
X33199605Y-30480000D01*
X34100159Y-31380554D01*
X34356643Y-31294148D01*
X34566458Y-30720664D01*
X34540839Y-30110540D01*
X34356643Y-29665852D01*
X34100161Y-29579447D01*
X34214718Y-29464890D01*
X34178240Y-29428412D01*
X34371441Y-29304090D01*
X34516431Y-29091890D01*
X34567440Y-28840000D01*
X34567440Y-28224187D01*
X39204752Y-28224187D01*
X39422757Y-28751800D01*
X39826077Y-29155824D01*
X40353309Y-29374750D01*
X40924187Y-29375248D01*
X41451800Y-29157243D01*
X41855824Y-28753923D01*
X41909862Y-28623785D01*
X41962757Y-28751800D01*
X42366077Y-29155824D01*
X42893309Y-29374750D01*
X43464187Y-29375248D01*
X43991800Y-29157243D01*
X44395824Y-28753923D01*
X44614750Y-28226691D01*
X44614752Y-28224187D01*
X49364752Y-28224187D01*
X49582757Y-28751800D01*
X49986077Y-29155824D01*
X50513309Y-29374750D01*
X51084187Y-29375248D01*
X51611800Y-29157243D01*
X52015824Y-28753923D01*
X52234750Y-28226691D01*
X52234760Y-28214285D01*
X54494760Y-28214285D01*
X54705169Y-28723515D01*
X55094436Y-29113461D01*
X55603298Y-29324759D01*
X56154285Y-29325240D01*
X56663515Y-29114831D01*
X57053461Y-28725564D01*
X57261650Y-28224187D01*
X62064752Y-28224187D01*
X62282757Y-28751800D01*
X62686077Y-29155824D01*
X63213309Y-29374750D01*
X63784187Y-29375248D01*
X64311800Y-29157243D01*
X64715824Y-28753923D01*
X64769862Y-28623785D01*
X64822757Y-28751800D01*
X65226077Y-29155824D01*
X65753309Y-29374750D01*
X66324187Y-29375248D01*
X66851800Y-29157243D01*
X67255824Y-28753923D01*
X67474750Y-28226691D01*
X67474752Y-28224187D01*
X72224752Y-28224187D01*
X72442757Y-28751800D01*
X72846077Y-29155824D01*
X73373309Y-29374750D01*
X73944187Y-29375248D01*
X74471800Y-29157243D01*
X74875824Y-28753923D01*
X75094750Y-28226691D01*
X75094760Y-28214285D01*
X77354760Y-28214285D01*
X77565169Y-28723515D01*
X77954436Y-29113461D01*
X78463298Y-29324759D01*
X79014285Y-29325240D01*
X79523515Y-29114831D01*
X79913461Y-28725564D01*
X80121650Y-28224187D01*
X84924752Y-28224187D01*
X85142757Y-28751800D01*
X85546077Y-29155824D01*
X86073309Y-29374750D01*
X86644187Y-29375248D01*
X87171800Y-29157243D01*
X87575824Y-28753923D01*
X87629862Y-28623785D01*
X87682757Y-28751800D01*
X88086077Y-29155824D01*
X88613309Y-29374750D01*
X89184187Y-29375248D01*
X89711800Y-29157243D01*
X90115824Y-28753923D01*
X90334750Y-28226691D01*
X90334752Y-28224187D01*
X95084752Y-28224187D01*
X95302757Y-28751800D01*
X95706077Y-29155824D01*
X96233309Y-29374750D01*
X96804187Y-29375248D01*
X97331800Y-29157243D01*
X97735824Y-28753923D01*
X97954750Y-28226691D01*
X97954760Y-28214285D01*
X100214760Y-28214285D01*
X100425169Y-28723515D01*
X100814436Y-29113461D01*
X101323298Y-29324759D01*
X101874285Y-29325240D01*
X102383515Y-29114831D01*
X102773461Y-28725564D01*
X102984759Y-28216702D01*
X102985240Y-27665715D01*
X102774831Y-27156485D01*
X102658549Y-27040000D01*
X107672560Y-27040000D01*
X107672560Y-28840000D01*
X107716838Y-29075317D01*
X107855910Y-29291441D01*
X108059574Y-29430598D01*
X108025282Y-29464890D01*
X108139839Y-29579447D01*
X107883357Y-29665852D01*
X107673542Y-30239336D01*
X107699161Y-30849460D01*
X107883357Y-31294148D01*
X108139841Y-31380554D01*
X109040395Y-30480000D01*
X109026253Y-30465858D01*
X109205858Y-30286253D01*
X109220000Y-30300395D01*
X109234143Y-30286253D01*
X109413748Y-30465858D01*
X109399605Y-30480000D01*
X110300159Y-31380554D01*
X110556643Y-31294148D01*
X110766458Y-30720664D01*
X110740839Y-30110540D01*
X110556643Y-29665852D01*
X110300161Y-29579447D01*
X110414718Y-29464890D01*
X110378240Y-29428412D01*
X110571441Y-29304090D01*
X110716431Y-29091890D01*
X110767440Y-28840000D01*
X110767440Y-27040000D01*
X110723162Y-26804683D01*
X110629046Y-26658422D01*
X113521183Y-26658422D01*
X113705371Y-26997970D01*
X114568509Y-27341316D01*
X115497336Y-27328218D01*
X116294629Y-26997970D01*
X116478817Y-26658422D01*
X115000000Y-25179605D01*
X113521183Y-26658422D01*
X110629046Y-26658422D01*
X110584090Y-26588559D01*
X110371890Y-26443569D01*
X110120000Y-26392560D01*
X108320000Y-26392560D01*
X108084683Y-26436838D01*
X107868559Y-26575910D01*
X107723569Y-26788110D01*
X107672560Y-27040000D01*
X102658549Y-27040000D01*
X102385564Y-26766539D01*
X101876702Y-26555241D01*
X101325715Y-26554760D01*
X100816485Y-26765169D01*
X100426539Y-27154436D01*
X100215241Y-27663298D01*
X100214760Y-28214285D01*
X97954760Y-28214285D01*
X97955248Y-27655813D01*
X97737243Y-27128200D01*
X97333923Y-26724176D01*
X96806691Y-26505250D01*
X96235813Y-26504752D01*
X95708200Y-26722757D01*
X95304176Y-27126077D01*
X95085250Y-27653309D01*
X95084752Y-28224187D01*
X90334752Y-28224187D01*
X90335248Y-27655813D01*
X90117243Y-27128200D01*
X89713923Y-26724176D01*
X89186691Y-26505250D01*
X88615813Y-26504752D01*
X88088200Y-26722757D01*
X87684176Y-27126077D01*
X87630138Y-27256215D01*
X87577243Y-27128200D01*
X87173923Y-26724176D01*
X86646691Y-26505250D01*
X86075813Y-26504752D01*
X85548200Y-26722757D01*
X85144176Y-27126077D01*
X84925250Y-27653309D01*
X84924752Y-28224187D01*
X80121650Y-28224187D01*
X80124759Y-28216702D01*
X80125240Y-27665715D01*
X79914831Y-27156485D01*
X79525564Y-26766539D01*
X79016702Y-26555241D01*
X78465715Y-26554760D01*
X77956485Y-26765169D01*
X77566539Y-27154436D01*
X77355241Y-27663298D01*
X77354760Y-28214285D01*
X75094760Y-28214285D01*
X75095248Y-27655813D01*
X74877243Y-27128200D01*
X74473923Y-26724176D01*
X73946691Y-26505250D01*
X73375813Y-26504752D01*
X72848200Y-26722757D01*
X72444176Y-27126077D01*
X72225250Y-27653309D01*
X72224752Y-28224187D01*
X67474752Y-28224187D01*
X67475248Y-27655813D01*
X67257243Y-27128200D01*
X66853923Y-26724176D01*
X66326691Y-26505250D01*
X65755813Y-26504752D01*
X65228200Y-26722757D01*
X64824176Y-27126077D01*
X64770138Y-27256215D01*
X64717243Y-27128200D01*
X64313923Y-26724176D01*
X63786691Y-26505250D01*
X63215813Y-26504752D01*
X62688200Y-26722757D01*
X62284176Y-27126077D01*
X62065250Y-27653309D01*
X62064752Y-28224187D01*
X57261650Y-28224187D01*
X57264759Y-28216702D01*
X57265240Y-27665715D01*
X57054831Y-27156485D01*
X56665564Y-26766539D01*
X56156702Y-26555241D01*
X55605715Y-26554760D01*
X55096485Y-26765169D01*
X54706539Y-27154436D01*
X54495241Y-27663298D01*
X54494760Y-28214285D01*
X52234760Y-28214285D01*
X52235248Y-27655813D01*
X52017243Y-27128200D01*
X51613923Y-26724176D01*
X51086691Y-26505250D01*
X50515813Y-26504752D01*
X49988200Y-26722757D01*
X49584176Y-27126077D01*
X49365250Y-27653309D01*
X49364752Y-28224187D01*
X44614752Y-28224187D01*
X44615248Y-27655813D01*
X44397243Y-27128200D01*
X43993923Y-26724176D01*
X43466691Y-26505250D01*
X42895813Y-26504752D01*
X42368200Y-26722757D01*
X41964176Y-27126077D01*
X41910138Y-27256215D01*
X41857243Y-27128200D01*
X41453923Y-26724176D01*
X40926691Y-26505250D01*
X40355813Y-26504752D01*
X39828200Y-26722757D01*
X39424176Y-27126077D01*
X39205250Y-27653309D01*
X39204752Y-28224187D01*
X34567440Y-28224187D01*
X34567440Y-27040000D01*
X34523162Y-26804683D01*
X34384090Y-26588559D01*
X34171890Y-26443569D01*
X33920000Y-26392560D01*
X32120000Y-26392560D01*
X31884683Y-26436838D01*
X31668559Y-26575910D01*
X31523569Y-26788110D01*
X31472560Y-27040000D01*
X26193159Y-27040000D01*
X26294629Y-26997970D01*
X26478817Y-26658422D01*
X25000000Y-25179605D01*
X23521183Y-26658422D01*
X20710000Y-26658422D01*
X20710000Y-24568509D01*
X22658684Y-24568509D01*
X22671782Y-25497336D01*
X23002030Y-26294629D01*
X23341578Y-26478817D01*
X24820395Y-25000000D01*
X25179605Y-25000000D01*
X26658422Y-26478817D01*
X26997970Y-26294629D01*
X27341316Y-25431491D01*
X27329147Y-24568509D01*
X112658684Y-24568509D01*
X112671782Y-25497336D01*
X113002030Y-26294629D01*
X113341578Y-26478817D01*
X114820395Y-25000000D01*
X115179605Y-25000000D01*
X116658422Y-26478817D01*
X116997970Y-26294629D01*
X117341316Y-25431491D01*
X117328218Y-24502664D01*
X116997970Y-23705371D01*
X116658422Y-23521183D01*
X115179605Y-25000000D01*
X114820395Y-25000000D01*
X113341578Y-23521183D01*
X113002030Y-23705371D01*
X112658684Y-24568509D01*
X27329147Y-24568509D01*
X27328218Y-24502664D01*
X26997970Y-23705371D01*
X26658422Y-23521183D01*
X25179605Y-25000000D01*
X24820395Y-25000000D01*
X23341578Y-23521183D01*
X23002030Y-23705371D01*
X22658684Y-24568509D01*
X20710000Y-24568509D01*
X20710000Y-23341578D01*
X23521183Y-23341578D01*
X25000000Y-24820395D01*
X26478817Y-23341578D01*
X113521183Y-23341578D01*
X115000000Y-24820395D01*
X116478817Y-23341578D01*
X116294629Y-23002030D01*
X115431491Y-22658684D01*
X114502664Y-22671782D01*
X113705371Y-23002030D01*
X113521183Y-23341578D01*
X26478817Y-23341578D01*
X26294629Y-23002030D01*
X25431491Y-22658684D01*
X24502664Y-22671782D01*
X23705371Y-23002030D01*
X23521183Y-23341578D01*
X20710000Y-23341578D01*
X20710000Y-20710000D01*
X119290000Y-20710000D01*
X119290000Y-44290000D01*
M02*
