M48
;DRILL file {KiCad 4.0.7} date 03/29/18 19:10:46
;FORMAT={-:-/ absolute / inch / decimal}
FMAT,2
INCH,TZ
T1C0.031
T2C0.039
%
G90
G05
M72
T1
X1.3Y-1.1
X1.3Y-1.2
X1.45Y-1.4
X1.45Y-1.6
X1.6Y-1.1
X1.7Y-1.1
X2.Y-1.1
X2.2Y-1.1
X2.2Y-1.4
X2.2Y-1.6
X2.5Y-1.1
X2.6Y-1.1
X2.9Y-1.1
X3.1Y-1.1
X3.1Y-1.4
X3.1Y-1.6
X3.4Y-1.1
X3.5Y-1.1
X3.8Y-1.1
X4.Y-1.1
X4.Y-1.4
X4.Y-1.6
X4.3Y-1.1
X4.3Y-1.2
T2
X0.9843Y-0.9843
X0.9843Y-1.5748
X4.5276Y-0.9843
X4.5276Y-1.5748
T0
M30
