M48
;DRILL file {KiCad 4.0.7} date 02/22/18 18:02:31
;FORMAT={-:-/ absolute / inch / decimal}
FMAT,2
INCH,TZ
T1C0.024
T2C0.028
T3C0.031
T4C0.039
%
G90
G05
M72
T1
X4.Y-3.9
X4.05Y-3.85
X4.05Y-3.95
X4.05Y-4.75
X4.05Y-4.85
X4.1Y-4.8
T2
X3.6Y-4.05
X3.6Y-4.2
X3.6Y-4.45
X3.8Y-4.05
X3.8Y-4.2
X3.8Y-4.45
X3.85Y-3.1
X3.85Y-3.25
X3.85Y-3.65
X4.05Y-3.1
X4.05Y-3.25
X4.05Y-3.65
X4.05Y-5.05
X4.05Y-5.45
X4.05Y-5.6
X4.25Y-4.2
X4.25Y-4.45
X4.25Y-4.6
X4.25Y-5.05
X4.25Y-5.45
X4.25Y-5.6
X4.45Y-4.2
X4.45Y-4.45
X4.45Y-4.6
T3
X3.3Y-5.05
X3.3Y-5.15
X3.3Y-5.25
X3.45Y-4.3
X3.45Y-4.4
X3.7016Y-3.9
X3.7016Y-4.85
X3.75Y-3.45
X3.75Y-5.6
X3.8Y-3.9
X3.8Y-4.85
X3.8484Y-5.6
X3.9516Y-4.2
X4.05Y-3.45
X4.05Y-4.2
X4.05Y-5.25
X4.0516Y-4.45
X4.15Y-4.45
X4.2516Y-3.25
X4.2516Y-3.85
X4.2516Y-4.8
X4.35Y-3.25
X4.35Y-3.85
X4.35Y-4.8
X4.35Y-5.25
X4.6Y-4.3
X4.6Y-4.4
T4
X2.9528Y-2.9528
X2.9528Y-5.9055
X4.5276Y-2.9528
X4.5276Y-5.9055
T0
M30
