%FSLAX45Y45*%
G04 Gerber Fmt 4.5, Leading zero omitted, Abs format (unit mm)*
G04 Created by KiCad (PCBNEW 4.0.7) date 02/19/18 19:03:54*
%MOMM*%
%LPD*%
G01*
G04 APERTURE LIST*
%ADD10C,0.127000*%
%ADD11C,0.150000*%
%ADD12C,0.200000*%
%ADD13C,0.300000*%
G04 APERTURE END LIST*
D10*
D11*
X7000000Y-15500000D02*
X7000000Y-7000000D01*
X12000000Y-15500000D02*
X7000000Y-15500000D01*
X12000000Y-7000000D02*
X12000000Y-15500000D01*
X7000000Y-7000000D02*
X12000000Y-7000000D01*
D12*
X10130000Y-9876000D02*
X10190000Y-9936000D01*
X10190000Y-9876000D02*
X10130000Y-9936000D01*
X10257000Y-9749000D02*
X10317000Y-9809000D01*
X10317000Y-9749000D02*
X10257000Y-9809000D01*
X10257000Y-10003000D02*
X10317000Y-10063000D01*
X10317000Y-10003000D02*
X10257000Y-10063000D01*
X10257000Y-12035000D02*
X10317000Y-12095000D01*
X10317000Y-12035000D02*
X10257000Y-12095000D01*
X10257000Y-12289000D02*
X10317000Y-12349000D01*
X10317000Y-12289000D02*
X10257000Y-12349000D01*
X10384000Y-12162000D02*
X10444000Y-12222000D01*
X10444000Y-12162000D02*
X10384000Y-12222000D01*
X9179000Y-10287000D02*
G75*
G03X9179000Y-10287000I-35000J0D01*
G01*
X9179000Y-10668000D02*
G75*
G03X9179000Y-10668000I-35000J0D01*
G01*
X9179000Y-11303000D02*
G75*
G03X9179000Y-11303000I-35000J0D01*
G01*
X9687000Y-10287000D02*
G75*
G03X9687000Y-10287000I-35000J0D01*
G01*
X9687000Y-10668000D02*
G75*
G03X9687000Y-10668000I-35000J0D01*
G01*
X9687000Y-11303000D02*
G75*
G03X9687000Y-11303000I-35000J0D01*
G01*
X9814000Y-7874000D02*
G75*
G03X9814000Y-7874000I-35000J0D01*
G01*
X9814000Y-8255000D02*
G75*
G03X9814000Y-8255000I-35000J0D01*
G01*
X9814000Y-9271000D02*
G75*
G03X9814000Y-9271000I-35000J0D01*
G01*
X10322000Y-7874000D02*
G75*
G03X10322000Y-7874000I-35000J0D01*
G01*
X10322000Y-8255000D02*
G75*
G03X10322000Y-8255000I-35000J0D01*
G01*
X10322000Y-9271000D02*
G75*
G03X10322000Y-9271000I-35000J0D01*
G01*
X10322000Y-12827000D02*
G75*
G03X10322000Y-12827000I-35000J0D01*
G01*
X10322000Y-13843000D02*
G75*
G03X10322000Y-13843000I-35000J0D01*
G01*
X10322000Y-14224000D02*
G75*
G03X10322000Y-14224000I-35000J0D01*
G01*
X10830000Y-10668000D02*
G75*
G03X10830000Y-10668000I-35000J0D01*
G01*
X10830000Y-11303000D02*
G75*
G03X10830000Y-11303000I-35000J0D01*
G01*
X10830000Y-11684000D02*
G75*
G03X10830000Y-11684000I-35000J0D01*
G01*
X10830000Y-12827000D02*
G75*
G03X10830000Y-12827000I-35000J0D01*
G01*
X10830000Y-13843000D02*
G75*
G03X10830000Y-13843000I-35000J0D01*
G01*
X10830000Y-14224000D02*
G75*
G03X10830000Y-14224000I-35000J0D01*
G01*
X11338000Y-10668000D02*
G75*
G03X11338000Y-10668000I-35000J0D01*
G01*
X11338000Y-11303000D02*
G75*
G03X11338000Y-11303000I-35000J0D01*
G01*
X11338000Y-11684000D02*
G75*
G03X11338000Y-11684000I-35000J0D01*
G01*
X8382000Y-12787000D02*
X8382000Y-12867000D01*
X8342000Y-12827000D02*
X8422000Y-12827000D01*
X8382000Y-13041000D02*
X8382000Y-13121000D01*
X8342000Y-13081000D02*
X8422000Y-13081000D01*
X8382000Y-13295000D02*
X8382000Y-13375000D01*
X8342000Y-13335000D02*
X8422000Y-13335000D01*
X8763000Y-10882000D02*
X8763000Y-10962000D01*
X8723000Y-10922000D02*
X8803000Y-10922000D01*
X8763000Y-11136000D02*
X8763000Y-11216000D01*
X8723000Y-11176000D02*
X8803000Y-11176000D01*
X9402000Y-9866000D02*
X9402000Y-9946000D01*
X9362000Y-9906000D02*
X9442000Y-9906000D01*
X9402000Y-12279000D02*
X9402000Y-12359000D01*
X9362000Y-12319000D02*
X9442000Y-12319000D01*
X9525000Y-8723000D02*
X9525000Y-8803000D01*
X9485000Y-8763000D02*
X9565000Y-8763000D01*
X9525000Y-14184000D02*
X9525000Y-14264000D01*
X9485000Y-14224000D02*
X9565000Y-14224000D01*
X9652000Y-9866000D02*
X9652000Y-9946000D01*
X9612000Y-9906000D02*
X9692000Y-9906000D01*
X9652000Y-12279000D02*
X9652000Y-12359000D01*
X9612000Y-12319000D02*
X9692000Y-12319000D01*
X9775000Y-14184000D02*
X9775000Y-14264000D01*
X9735000Y-14224000D02*
X9815000Y-14224000D01*
X10037000Y-10628000D02*
X10037000Y-10708000D01*
X9997000Y-10668000D02*
X10077000Y-10668000D01*
X10287000Y-8723000D02*
X10287000Y-8803000D01*
X10247000Y-8763000D02*
X10327000Y-8763000D01*
X10287000Y-10628000D02*
X10287000Y-10708000D01*
X10247000Y-10668000D02*
X10327000Y-10668000D01*
X10287000Y-13295000D02*
X10287000Y-13375000D01*
X10247000Y-13335000D02*
X10327000Y-13335000D01*
X10291000Y-11263000D02*
X10291000Y-11343000D01*
X10251000Y-11303000D02*
X10331000Y-11303000D01*
X10541000Y-11263000D02*
X10541000Y-11343000D01*
X10501000Y-11303000D02*
X10581000Y-11303000D01*
X10799000Y-8215000D02*
X10799000Y-8295000D01*
X10759000Y-8255000D02*
X10839000Y-8255000D01*
X10799000Y-9739000D02*
X10799000Y-9819000D01*
X10759000Y-9779000D02*
X10839000Y-9779000D01*
X10799000Y-12152000D02*
X10799000Y-12232000D01*
X10759000Y-12192000D02*
X10839000Y-12192000D01*
X11049000Y-8215000D02*
X11049000Y-8295000D01*
X11009000Y-8255000D02*
X11089000Y-8255000D01*
X11049000Y-9739000D02*
X11049000Y-9819000D01*
X11009000Y-9779000D02*
X11089000Y-9779000D01*
X11049000Y-12152000D02*
X11049000Y-12232000D01*
X11009000Y-12192000D02*
X11089000Y-12192000D01*
X11049000Y-13295000D02*
X11049000Y-13375000D01*
X11009000Y-13335000D02*
X11089000Y-13335000D01*
X11684000Y-10882000D02*
X11684000Y-10962000D01*
X11644000Y-10922000D02*
X11724000Y-10922000D01*
X11684000Y-11136000D02*
X11684000Y-11216000D01*
X11644000Y-11176000D02*
X11724000Y-11176000D01*
X7535356Y-7535356D02*
X7535356Y-7464644D01*
X7464644Y-7464644D01*
X7464644Y-7535356D01*
X7535356Y-7535356D01*
X7535356Y-15035356D02*
X7535356Y-14964644D01*
X7464644Y-14964644D01*
X7464644Y-15035356D01*
X7535356Y-15035356D01*
X11535356Y-7535356D02*
X11535356Y-7464644D01*
X11464644Y-7464644D01*
X11464644Y-7535356D01*
X11535356Y-7535356D01*
X11535356Y-15035356D02*
X11535356Y-14964644D01*
X11464644Y-14964644D01*
X11464644Y-15035356D01*
X11535356Y-15035356D01*
D13*
X7263928Y-15973214D02*
X7263928Y-15673214D01*
X7335357Y-15673214D01*
X7378214Y-15687500D01*
X7406786Y-15716071D01*
X7421071Y-15744643D01*
X7435357Y-15801786D01*
X7435357Y-15844643D01*
X7421071Y-15901786D01*
X7406786Y-15930357D01*
X7378214Y-15958929D01*
X7335357Y-15973214D01*
X7263928Y-15973214D01*
X7563928Y-15973214D02*
X7563928Y-15773214D01*
X7563928Y-15830357D02*
X7578214Y-15801786D01*
X7592500Y-15787500D01*
X7621071Y-15773214D01*
X7649643Y-15773214D01*
X7749643Y-15973214D02*
X7749643Y-15773214D01*
X7749643Y-15673214D02*
X7735357Y-15687500D01*
X7749643Y-15701786D01*
X7763928Y-15687500D01*
X7749643Y-15673214D01*
X7749643Y-15701786D01*
X7935357Y-15973214D02*
X7906786Y-15958929D01*
X7892500Y-15930357D01*
X7892500Y-15673214D01*
X8092500Y-15973214D02*
X8063928Y-15958929D01*
X8049643Y-15930357D01*
X8049643Y-15673214D01*
X8435357Y-15973214D02*
X8435357Y-15673214D01*
X8535357Y-15887500D01*
X8635357Y-15673214D01*
X8635357Y-15973214D01*
X8906786Y-15973214D02*
X8906786Y-15816071D01*
X8892500Y-15787500D01*
X8863929Y-15773214D01*
X8806786Y-15773214D01*
X8778214Y-15787500D01*
X8906786Y-15958929D02*
X8878214Y-15973214D01*
X8806786Y-15973214D01*
X8778214Y-15958929D01*
X8763929Y-15930357D01*
X8763929Y-15901786D01*
X8778214Y-15873214D01*
X8806786Y-15858929D01*
X8878214Y-15858929D01*
X8906786Y-15844643D01*
X9049643Y-15773214D02*
X9049643Y-16073214D01*
X9049643Y-15787500D02*
X9078214Y-15773214D01*
X9135357Y-15773214D01*
X9163929Y-15787500D01*
X9178214Y-15801786D01*
X9192500Y-15830357D01*
X9192500Y-15916071D01*
X9178214Y-15944643D01*
X9163929Y-15958929D01*
X9135357Y-15973214D01*
X9078214Y-15973214D01*
X9049643Y-15958929D01*
X9321071Y-15944643D02*
X9335357Y-15958929D01*
X9321071Y-15973214D01*
X9306786Y-15958929D01*
X9321071Y-15944643D01*
X9321071Y-15973214D01*
X9321071Y-15787500D02*
X9335357Y-15801786D01*
X9321071Y-15816071D01*
X9306786Y-15801786D01*
X9321071Y-15787500D01*
X9321071Y-15816071D01*
X6932500Y-16437500D02*
X6992500Y-16497500D01*
X6992500Y-16437500D02*
X6932500Y-16497500D01*
X7321071Y-16303214D02*
X7349643Y-16303214D01*
X7378214Y-16317500D01*
X7392500Y-16331786D01*
X7406786Y-16360357D01*
X7421071Y-16417500D01*
X7421071Y-16488929D01*
X7406786Y-16546071D01*
X7392500Y-16574643D01*
X7378214Y-16588929D01*
X7349643Y-16603214D01*
X7321071Y-16603214D01*
X7292500Y-16588929D01*
X7278214Y-16574643D01*
X7263928Y-16546071D01*
X7249643Y-16488929D01*
X7249643Y-16417500D01*
X7263928Y-16360357D01*
X7278214Y-16331786D01*
X7292500Y-16317500D01*
X7321071Y-16303214D01*
X7549643Y-16574643D02*
X7563928Y-16588929D01*
X7549643Y-16603214D01*
X7535357Y-16588929D01*
X7549643Y-16574643D01*
X7549643Y-16603214D01*
X7821071Y-16303214D02*
X7763928Y-16303214D01*
X7735357Y-16317500D01*
X7721071Y-16331786D01*
X7692500Y-16374643D01*
X7678214Y-16431786D01*
X7678214Y-16546071D01*
X7692500Y-16574643D01*
X7706786Y-16588929D01*
X7735357Y-16603214D01*
X7792500Y-16603214D01*
X7821071Y-16588929D01*
X7835357Y-16574643D01*
X7849643Y-16546071D01*
X7849643Y-16474643D01*
X7835357Y-16446071D01*
X7821071Y-16431786D01*
X7792500Y-16417500D01*
X7735357Y-16417500D01*
X7706786Y-16431786D01*
X7692500Y-16446071D01*
X7678214Y-16474643D01*
X8035357Y-16303214D02*
X8063928Y-16303214D01*
X8092500Y-16317500D01*
X8106786Y-16331786D01*
X8121071Y-16360357D01*
X8135357Y-16417500D01*
X8135357Y-16488929D01*
X8121071Y-16546071D01*
X8106786Y-16574643D01*
X8092500Y-16588929D01*
X8063928Y-16603214D01*
X8035357Y-16603214D01*
X8006786Y-16588929D01*
X7992500Y-16574643D01*
X7978214Y-16546071D01*
X7963928Y-16488929D01*
X7963928Y-16417500D01*
X7978214Y-16360357D01*
X7992500Y-16331786D01*
X8006786Y-16317500D01*
X8035357Y-16303214D01*
X8263928Y-16603214D02*
X8263928Y-16403214D01*
X8263928Y-16431786D02*
X8278214Y-16417500D01*
X8306786Y-16403214D01*
X8349643Y-16403214D01*
X8378214Y-16417500D01*
X8392500Y-16446071D01*
X8392500Y-16603214D01*
X8392500Y-16446071D02*
X8406786Y-16417500D01*
X8435357Y-16403214D01*
X8478214Y-16403214D01*
X8506786Y-16417500D01*
X8521071Y-16446071D01*
X8521071Y-16603214D01*
X8663929Y-16603214D02*
X8663929Y-16403214D01*
X8663929Y-16431786D02*
X8678214Y-16417500D01*
X8706786Y-16403214D01*
X8749643Y-16403214D01*
X8778214Y-16417500D01*
X8792500Y-16446071D01*
X8792500Y-16603214D01*
X8792500Y-16446071D02*
X8806786Y-16417500D01*
X8835357Y-16403214D01*
X8878214Y-16403214D01*
X8906786Y-16417500D01*
X8921071Y-16446071D01*
X8921071Y-16603214D01*
X9506786Y-16288929D02*
X9249643Y-16674643D01*
X9892500Y-16303214D02*
X9921071Y-16303214D01*
X9949643Y-16317500D01*
X9963928Y-16331786D01*
X9978214Y-16360357D01*
X9992500Y-16417500D01*
X9992500Y-16488929D01*
X9978214Y-16546071D01*
X9963928Y-16574643D01*
X9949643Y-16588929D01*
X9921071Y-16603214D01*
X9892500Y-16603214D01*
X9863928Y-16588929D01*
X9849643Y-16574643D01*
X9835357Y-16546071D01*
X9821071Y-16488929D01*
X9821071Y-16417500D01*
X9835357Y-16360357D01*
X9849643Y-16331786D01*
X9863928Y-16317500D01*
X9892500Y-16303214D01*
X10121071Y-16574643D02*
X10135357Y-16588929D01*
X10121071Y-16603214D01*
X10106786Y-16588929D01*
X10121071Y-16574643D01*
X10121071Y-16603214D01*
X10321071Y-16303214D02*
X10349643Y-16303214D01*
X10378214Y-16317500D01*
X10392500Y-16331786D01*
X10406786Y-16360357D01*
X10421071Y-16417500D01*
X10421071Y-16488929D01*
X10406786Y-16546071D01*
X10392500Y-16574643D01*
X10378214Y-16588929D01*
X10349643Y-16603214D01*
X10321071Y-16603214D01*
X10292500Y-16588929D01*
X10278214Y-16574643D01*
X10263928Y-16546071D01*
X10249643Y-16488929D01*
X10249643Y-16417500D01*
X10263928Y-16360357D01*
X10278214Y-16331786D01*
X10292500Y-16317500D01*
X10321071Y-16303214D01*
X10535357Y-16331786D02*
X10549643Y-16317500D01*
X10578214Y-16303214D01*
X10649643Y-16303214D01*
X10678214Y-16317500D01*
X10692500Y-16331786D01*
X10706786Y-16360357D01*
X10706786Y-16388929D01*
X10692500Y-16431786D01*
X10521071Y-16603214D01*
X10706786Y-16603214D01*
X10963928Y-16403214D02*
X10963928Y-16603214D01*
X10892500Y-16288929D02*
X10821071Y-16503214D01*
X11006786Y-16503214D01*
X11106786Y-16303214D02*
X11106786Y-16360357D01*
X11221071Y-16303214D02*
X11221071Y-16360357D01*
X11663928Y-16717500D02*
X11649643Y-16703214D01*
X11621071Y-16660357D01*
X11606785Y-16631786D01*
X11592500Y-16588929D01*
X11578214Y-16517500D01*
X11578214Y-16460357D01*
X11592500Y-16388929D01*
X11606785Y-16346071D01*
X11621071Y-16317500D01*
X11649643Y-16274643D01*
X11663928Y-16260357D01*
X11906785Y-16303214D02*
X11849643Y-16303214D01*
X11821071Y-16317500D01*
X11806785Y-16331786D01*
X11778214Y-16374643D01*
X11763928Y-16431786D01*
X11763928Y-16546071D01*
X11778214Y-16574643D01*
X11792500Y-16588929D01*
X11821071Y-16603214D01*
X11878214Y-16603214D01*
X11906785Y-16588929D01*
X11921071Y-16574643D01*
X11935357Y-16546071D01*
X11935357Y-16474643D01*
X11921071Y-16446071D01*
X11906785Y-16431786D01*
X11878214Y-16417500D01*
X11821071Y-16417500D01*
X11792500Y-16431786D01*
X11778214Y-16446071D01*
X11763928Y-16474643D01*
X12292500Y-16603214D02*
X12292500Y-16303214D01*
X12421071Y-16603214D02*
X12421071Y-16446071D01*
X12406785Y-16417500D01*
X12378214Y-16403214D01*
X12335357Y-16403214D01*
X12306785Y-16417500D01*
X12292500Y-16431786D01*
X12606785Y-16603214D02*
X12578214Y-16588929D01*
X12563928Y-16574643D01*
X12549643Y-16546071D01*
X12549643Y-16460357D01*
X12563928Y-16431786D01*
X12578214Y-16417500D01*
X12606785Y-16403214D01*
X12649643Y-16403214D01*
X12678214Y-16417500D01*
X12692500Y-16431786D01*
X12706785Y-16460357D01*
X12706785Y-16546071D01*
X12692500Y-16574643D01*
X12678214Y-16588929D01*
X12649643Y-16603214D01*
X12606785Y-16603214D01*
X12878214Y-16603214D02*
X12849643Y-16588929D01*
X12835357Y-16560357D01*
X12835357Y-16303214D01*
X13106786Y-16588929D02*
X13078214Y-16603214D01*
X13021071Y-16603214D01*
X12992500Y-16588929D01*
X12978214Y-16560357D01*
X12978214Y-16446071D01*
X12992500Y-16417500D01*
X13021071Y-16403214D01*
X13078214Y-16403214D01*
X13106786Y-16417500D01*
X13121071Y-16446071D01*
X13121071Y-16474643D01*
X12978214Y-16503214D01*
X13235357Y-16588929D02*
X13263928Y-16603214D01*
X13321071Y-16603214D01*
X13349643Y-16588929D01*
X13363928Y-16560357D01*
X13363928Y-16546071D01*
X13349643Y-16517500D01*
X13321071Y-16503214D01*
X13278214Y-16503214D01*
X13249643Y-16488929D01*
X13235357Y-16460357D01*
X13235357Y-16446071D01*
X13249643Y-16417500D01*
X13278214Y-16403214D01*
X13321071Y-16403214D01*
X13349643Y-16417500D01*
X13463928Y-16717500D02*
X13478214Y-16703214D01*
X13506786Y-16660357D01*
X13521071Y-16631786D01*
X13535357Y-16588929D01*
X13549643Y-16517500D01*
X13549643Y-16460357D01*
X13535357Y-16388929D01*
X13521071Y-16346071D01*
X13506786Y-16317500D01*
X13478214Y-16274643D01*
X13463928Y-16260357D01*
X6992500Y-16863500D02*
G75*
G03X6992500Y-16863500I-35000J0D01*
G01*
X7321071Y-16699214D02*
X7349643Y-16699214D01*
X7378214Y-16713500D01*
X7392500Y-16727786D01*
X7406786Y-16756357D01*
X7421071Y-16813500D01*
X7421071Y-16884929D01*
X7406786Y-16942072D01*
X7392500Y-16970643D01*
X7378214Y-16984929D01*
X7349643Y-16999214D01*
X7321071Y-16999214D01*
X7292500Y-16984929D01*
X7278214Y-16970643D01*
X7263928Y-16942072D01*
X7249643Y-16884929D01*
X7249643Y-16813500D01*
X7263928Y-16756357D01*
X7278214Y-16727786D01*
X7292500Y-16713500D01*
X7321071Y-16699214D01*
X7549643Y-16970643D02*
X7563928Y-16984929D01*
X7549643Y-16999214D01*
X7535357Y-16984929D01*
X7549643Y-16970643D01*
X7549643Y-16999214D01*
X7663928Y-16699214D02*
X7863928Y-16699214D01*
X7735357Y-16999214D01*
X8035357Y-16699214D02*
X8063928Y-16699214D01*
X8092500Y-16713500D01*
X8106786Y-16727786D01*
X8121071Y-16756357D01*
X8135357Y-16813500D01*
X8135357Y-16884929D01*
X8121071Y-16942072D01*
X8106786Y-16970643D01*
X8092500Y-16984929D01*
X8063928Y-16999214D01*
X8035357Y-16999214D01*
X8006786Y-16984929D01*
X7992500Y-16970643D01*
X7978214Y-16942072D01*
X7963928Y-16884929D01*
X7963928Y-16813500D01*
X7978214Y-16756357D01*
X7992500Y-16727786D01*
X8006786Y-16713500D01*
X8035357Y-16699214D01*
X8263928Y-16999214D02*
X8263928Y-16799214D01*
X8263928Y-16827786D02*
X8278214Y-16813500D01*
X8306786Y-16799214D01*
X8349643Y-16799214D01*
X8378214Y-16813500D01*
X8392500Y-16842072D01*
X8392500Y-16999214D01*
X8392500Y-16842072D02*
X8406786Y-16813500D01*
X8435357Y-16799214D01*
X8478214Y-16799214D01*
X8506786Y-16813500D01*
X8521071Y-16842072D01*
X8521071Y-16999214D01*
X8663929Y-16999214D02*
X8663929Y-16799214D01*
X8663929Y-16827786D02*
X8678214Y-16813500D01*
X8706786Y-16799214D01*
X8749643Y-16799214D01*
X8778214Y-16813500D01*
X8792500Y-16842072D01*
X8792500Y-16999214D01*
X8792500Y-16842072D02*
X8806786Y-16813500D01*
X8835357Y-16799214D01*
X8878214Y-16799214D01*
X8906786Y-16813500D01*
X8921071Y-16842072D01*
X8921071Y-16999214D01*
X9506786Y-16684929D02*
X9249643Y-17070643D01*
X9892500Y-16699214D02*
X9921071Y-16699214D01*
X9949643Y-16713500D01*
X9963928Y-16727786D01*
X9978214Y-16756357D01*
X9992500Y-16813500D01*
X9992500Y-16884929D01*
X9978214Y-16942072D01*
X9963928Y-16970643D01*
X9949643Y-16984929D01*
X9921071Y-16999214D01*
X9892500Y-16999214D01*
X9863928Y-16984929D01*
X9849643Y-16970643D01*
X9835357Y-16942072D01*
X9821071Y-16884929D01*
X9821071Y-16813500D01*
X9835357Y-16756357D01*
X9849643Y-16727786D01*
X9863928Y-16713500D01*
X9892500Y-16699214D01*
X10121071Y-16970643D02*
X10135357Y-16984929D01*
X10121071Y-16999214D01*
X10106786Y-16984929D01*
X10121071Y-16970643D01*
X10121071Y-16999214D01*
X10321071Y-16699214D02*
X10349643Y-16699214D01*
X10378214Y-16713500D01*
X10392500Y-16727786D01*
X10406786Y-16756357D01*
X10421071Y-16813500D01*
X10421071Y-16884929D01*
X10406786Y-16942072D01*
X10392500Y-16970643D01*
X10378214Y-16984929D01*
X10349643Y-16999214D01*
X10321071Y-16999214D01*
X10292500Y-16984929D01*
X10278214Y-16970643D01*
X10263928Y-16942072D01*
X10249643Y-16884929D01*
X10249643Y-16813500D01*
X10263928Y-16756357D01*
X10278214Y-16727786D01*
X10292500Y-16713500D01*
X10321071Y-16699214D01*
X10535357Y-16727786D02*
X10549643Y-16713500D01*
X10578214Y-16699214D01*
X10649643Y-16699214D01*
X10678214Y-16713500D01*
X10692500Y-16727786D01*
X10706786Y-16756357D01*
X10706786Y-16784929D01*
X10692500Y-16827786D01*
X10521071Y-16999214D01*
X10706786Y-16999214D01*
X10878214Y-16827786D02*
X10849643Y-16813500D01*
X10835357Y-16799214D01*
X10821071Y-16770643D01*
X10821071Y-16756357D01*
X10835357Y-16727786D01*
X10849643Y-16713500D01*
X10878214Y-16699214D01*
X10935357Y-16699214D01*
X10963928Y-16713500D01*
X10978214Y-16727786D01*
X10992500Y-16756357D01*
X10992500Y-16770643D01*
X10978214Y-16799214D01*
X10963928Y-16813500D01*
X10935357Y-16827786D01*
X10878214Y-16827786D01*
X10849643Y-16842072D01*
X10835357Y-16856357D01*
X10821071Y-16884929D01*
X10821071Y-16942072D01*
X10835357Y-16970643D01*
X10849643Y-16984929D01*
X10878214Y-16999214D01*
X10935357Y-16999214D01*
X10963928Y-16984929D01*
X10978214Y-16970643D01*
X10992500Y-16942072D01*
X10992500Y-16884929D01*
X10978214Y-16856357D01*
X10963928Y-16842072D01*
X10935357Y-16827786D01*
X11106786Y-16699214D02*
X11106786Y-16756357D01*
X11221071Y-16699214D02*
X11221071Y-16756357D01*
X11663928Y-17113500D02*
X11649643Y-17099214D01*
X11621071Y-17056357D01*
X11606785Y-17027786D01*
X11592500Y-16984929D01*
X11578214Y-16913500D01*
X11578214Y-16856357D01*
X11592500Y-16784929D01*
X11606785Y-16742071D01*
X11621071Y-16713500D01*
X11649643Y-16670643D01*
X11663928Y-16656357D01*
X11763928Y-16727786D02*
X11778214Y-16713500D01*
X11806785Y-16699214D01*
X11878214Y-16699214D01*
X11906785Y-16713500D01*
X11921071Y-16727786D01*
X11935357Y-16756357D01*
X11935357Y-16784929D01*
X11921071Y-16827786D01*
X11749643Y-16999214D01*
X11935357Y-16999214D01*
X12192500Y-16799214D02*
X12192500Y-16999214D01*
X12121071Y-16684929D02*
X12049643Y-16899214D01*
X12235357Y-16899214D01*
X12578214Y-16999214D02*
X12578214Y-16699214D01*
X12706785Y-16999214D02*
X12706785Y-16842072D01*
X12692500Y-16813500D01*
X12663928Y-16799214D01*
X12621071Y-16799214D01*
X12592500Y-16813500D01*
X12578214Y-16827786D01*
X12892500Y-16999214D02*
X12863928Y-16984929D01*
X12849643Y-16970643D01*
X12835357Y-16942072D01*
X12835357Y-16856357D01*
X12849643Y-16827786D01*
X12863928Y-16813500D01*
X12892500Y-16799214D01*
X12935357Y-16799214D01*
X12963928Y-16813500D01*
X12978214Y-16827786D01*
X12992500Y-16856357D01*
X12992500Y-16942072D01*
X12978214Y-16970643D01*
X12963928Y-16984929D01*
X12935357Y-16999214D01*
X12892500Y-16999214D01*
X13163928Y-16999214D02*
X13135357Y-16984929D01*
X13121071Y-16956357D01*
X13121071Y-16699214D01*
X13392500Y-16984929D02*
X13363928Y-16999214D01*
X13306786Y-16999214D01*
X13278214Y-16984929D01*
X13263928Y-16956357D01*
X13263928Y-16842072D01*
X13278214Y-16813500D01*
X13306786Y-16799214D01*
X13363928Y-16799214D01*
X13392500Y-16813500D01*
X13406786Y-16842072D01*
X13406786Y-16870643D01*
X13263928Y-16899214D01*
X13521071Y-16984929D02*
X13549643Y-16999214D01*
X13606786Y-16999214D01*
X13635357Y-16984929D01*
X13649643Y-16956357D01*
X13649643Y-16942072D01*
X13635357Y-16913500D01*
X13606786Y-16899214D01*
X13563928Y-16899214D01*
X13535357Y-16884929D01*
X13521071Y-16856357D01*
X13521071Y-16842072D01*
X13535357Y-16813500D01*
X13563928Y-16799214D01*
X13606786Y-16799214D01*
X13635357Y-16813500D01*
X13749643Y-17113500D02*
X13763928Y-17099214D01*
X13792500Y-17056357D01*
X13806786Y-17027786D01*
X13821071Y-16984929D01*
X13835357Y-16913500D01*
X13835357Y-16856357D01*
X13821071Y-16784929D01*
X13806786Y-16742071D01*
X13792500Y-16713500D01*
X13763928Y-16670643D01*
X13749643Y-16656357D01*
X6952500Y-17219500D02*
X6952500Y-17299500D01*
X6912500Y-17259500D02*
X6992500Y-17259500D01*
X7321071Y-17095214D02*
X7349643Y-17095214D01*
X7378214Y-17109500D01*
X7392500Y-17123786D01*
X7406786Y-17152357D01*
X7421071Y-17209500D01*
X7421071Y-17280929D01*
X7406786Y-17338072D01*
X7392500Y-17366643D01*
X7378214Y-17380929D01*
X7349643Y-17395214D01*
X7321071Y-17395214D01*
X7292500Y-17380929D01*
X7278214Y-17366643D01*
X7263928Y-17338072D01*
X7249643Y-17280929D01*
X7249643Y-17209500D01*
X7263928Y-17152357D01*
X7278214Y-17123786D01*
X7292500Y-17109500D01*
X7321071Y-17095214D01*
X7549643Y-17366643D02*
X7563928Y-17380929D01*
X7549643Y-17395214D01*
X7535357Y-17380929D01*
X7549643Y-17366643D01*
X7549643Y-17395214D01*
X7735357Y-17223786D02*
X7706786Y-17209500D01*
X7692500Y-17195214D01*
X7678214Y-17166643D01*
X7678214Y-17152357D01*
X7692500Y-17123786D01*
X7706786Y-17109500D01*
X7735357Y-17095214D01*
X7792500Y-17095214D01*
X7821071Y-17109500D01*
X7835357Y-17123786D01*
X7849643Y-17152357D01*
X7849643Y-17166643D01*
X7835357Y-17195214D01*
X7821071Y-17209500D01*
X7792500Y-17223786D01*
X7735357Y-17223786D01*
X7706786Y-17238072D01*
X7692500Y-17252357D01*
X7678214Y-17280929D01*
X7678214Y-17338072D01*
X7692500Y-17366643D01*
X7706786Y-17380929D01*
X7735357Y-17395214D01*
X7792500Y-17395214D01*
X7821071Y-17380929D01*
X7835357Y-17366643D01*
X7849643Y-17338072D01*
X7849643Y-17280929D01*
X7835357Y-17252357D01*
X7821071Y-17238072D01*
X7792500Y-17223786D01*
X8035357Y-17095214D02*
X8063928Y-17095214D01*
X8092500Y-17109500D01*
X8106786Y-17123786D01*
X8121071Y-17152357D01*
X8135357Y-17209500D01*
X8135357Y-17280929D01*
X8121071Y-17338072D01*
X8106786Y-17366643D01*
X8092500Y-17380929D01*
X8063928Y-17395214D01*
X8035357Y-17395214D01*
X8006786Y-17380929D01*
X7992500Y-17366643D01*
X7978214Y-17338072D01*
X7963928Y-17280929D01*
X7963928Y-17209500D01*
X7978214Y-17152357D01*
X7992500Y-17123786D01*
X8006786Y-17109500D01*
X8035357Y-17095214D01*
X8263928Y-17395214D02*
X8263928Y-17195214D01*
X8263928Y-17223786D02*
X8278214Y-17209500D01*
X8306786Y-17195214D01*
X8349643Y-17195214D01*
X8378214Y-17209500D01*
X8392500Y-17238072D01*
X8392500Y-17395214D01*
X8392500Y-17238072D02*
X8406786Y-17209500D01*
X8435357Y-17195214D01*
X8478214Y-17195214D01*
X8506786Y-17209500D01*
X8521071Y-17238072D01*
X8521071Y-17395214D01*
X8663929Y-17395214D02*
X8663929Y-17195214D01*
X8663929Y-17223786D02*
X8678214Y-17209500D01*
X8706786Y-17195214D01*
X8749643Y-17195214D01*
X8778214Y-17209500D01*
X8792500Y-17238072D01*
X8792500Y-17395214D01*
X8792500Y-17238072D02*
X8806786Y-17209500D01*
X8835357Y-17195214D01*
X8878214Y-17195214D01*
X8906786Y-17209500D01*
X8921071Y-17238072D01*
X8921071Y-17395214D01*
X9506786Y-17080929D02*
X9249643Y-17466643D01*
X9892500Y-17095214D02*
X9921071Y-17095214D01*
X9949643Y-17109500D01*
X9963928Y-17123786D01*
X9978214Y-17152357D01*
X9992500Y-17209500D01*
X9992500Y-17280929D01*
X9978214Y-17338072D01*
X9963928Y-17366643D01*
X9949643Y-17380929D01*
X9921071Y-17395214D01*
X9892500Y-17395214D01*
X9863928Y-17380929D01*
X9849643Y-17366643D01*
X9835357Y-17338072D01*
X9821071Y-17280929D01*
X9821071Y-17209500D01*
X9835357Y-17152357D01*
X9849643Y-17123786D01*
X9863928Y-17109500D01*
X9892500Y-17095214D01*
X10121071Y-17366643D02*
X10135357Y-17380929D01*
X10121071Y-17395214D01*
X10106786Y-17380929D01*
X10121071Y-17366643D01*
X10121071Y-17395214D01*
X10321071Y-17095214D02*
X10349643Y-17095214D01*
X10378214Y-17109500D01*
X10392500Y-17123786D01*
X10406786Y-17152357D01*
X10421071Y-17209500D01*
X10421071Y-17280929D01*
X10406786Y-17338072D01*
X10392500Y-17366643D01*
X10378214Y-17380929D01*
X10349643Y-17395214D01*
X10321071Y-17395214D01*
X10292500Y-17380929D01*
X10278214Y-17366643D01*
X10263928Y-17338072D01*
X10249643Y-17280929D01*
X10249643Y-17209500D01*
X10263928Y-17152357D01*
X10278214Y-17123786D01*
X10292500Y-17109500D01*
X10321071Y-17095214D01*
X10521071Y-17095214D02*
X10706786Y-17095214D01*
X10606786Y-17209500D01*
X10649643Y-17209500D01*
X10678214Y-17223786D01*
X10692500Y-17238072D01*
X10706786Y-17266643D01*
X10706786Y-17338072D01*
X10692500Y-17366643D01*
X10678214Y-17380929D01*
X10649643Y-17395214D01*
X10563928Y-17395214D01*
X10535357Y-17380929D01*
X10521071Y-17366643D01*
X10992500Y-17395214D02*
X10821071Y-17395214D01*
X10906786Y-17395214D02*
X10906786Y-17095214D01*
X10878214Y-17138072D01*
X10849643Y-17166643D01*
X10821071Y-17180929D01*
X11106786Y-17095214D02*
X11106786Y-17152357D01*
X11221071Y-17095214D02*
X11221071Y-17152357D01*
X11663928Y-17509500D02*
X11649643Y-17495214D01*
X11621071Y-17452357D01*
X11606785Y-17423786D01*
X11592500Y-17380929D01*
X11578214Y-17309500D01*
X11578214Y-17252357D01*
X11592500Y-17180929D01*
X11606785Y-17138072D01*
X11621071Y-17109500D01*
X11649643Y-17066643D01*
X11663928Y-17052357D01*
X11763928Y-17123786D02*
X11778214Y-17109500D01*
X11806785Y-17095214D01*
X11878214Y-17095214D01*
X11906785Y-17109500D01*
X11921071Y-17123786D01*
X11935357Y-17152357D01*
X11935357Y-17180929D01*
X11921071Y-17223786D01*
X11749643Y-17395214D01*
X11935357Y-17395214D01*
X12035357Y-17095214D02*
X12235357Y-17095214D01*
X12106785Y-17395214D01*
X12578214Y-17395214D02*
X12578214Y-17095214D01*
X12706785Y-17395214D02*
X12706785Y-17238072D01*
X12692500Y-17209500D01*
X12663928Y-17195214D01*
X12621071Y-17195214D01*
X12592500Y-17209500D01*
X12578214Y-17223786D01*
X12892500Y-17395214D02*
X12863928Y-17380929D01*
X12849643Y-17366643D01*
X12835357Y-17338072D01*
X12835357Y-17252357D01*
X12849643Y-17223786D01*
X12863928Y-17209500D01*
X12892500Y-17195214D01*
X12935357Y-17195214D01*
X12963928Y-17209500D01*
X12978214Y-17223786D01*
X12992500Y-17252357D01*
X12992500Y-17338072D01*
X12978214Y-17366643D01*
X12963928Y-17380929D01*
X12935357Y-17395214D01*
X12892500Y-17395214D01*
X13163928Y-17395214D02*
X13135357Y-17380929D01*
X13121071Y-17352357D01*
X13121071Y-17095214D01*
X13392500Y-17380929D02*
X13363928Y-17395214D01*
X13306786Y-17395214D01*
X13278214Y-17380929D01*
X13263928Y-17352357D01*
X13263928Y-17238072D01*
X13278214Y-17209500D01*
X13306786Y-17195214D01*
X13363928Y-17195214D01*
X13392500Y-17209500D01*
X13406786Y-17238072D01*
X13406786Y-17266643D01*
X13263928Y-17295214D01*
X13521071Y-17380929D02*
X13549643Y-17395214D01*
X13606786Y-17395214D01*
X13635357Y-17380929D01*
X13649643Y-17352357D01*
X13649643Y-17338072D01*
X13635357Y-17309500D01*
X13606786Y-17295214D01*
X13563928Y-17295214D01*
X13535357Y-17280929D01*
X13521071Y-17252357D01*
X13521071Y-17238072D01*
X13535357Y-17209500D01*
X13563928Y-17195214D01*
X13606786Y-17195214D01*
X13635357Y-17209500D01*
X13749643Y-17509500D02*
X13763928Y-17495214D01*
X13792500Y-17452357D01*
X13806786Y-17423786D01*
X13821071Y-17380929D01*
X13835357Y-17309500D01*
X13835357Y-17252357D01*
X13821071Y-17180929D01*
X13806786Y-17138072D01*
X13792500Y-17109500D01*
X13763928Y-17066643D01*
X13749643Y-17052357D01*
X6977856Y-17690856D02*
X6977856Y-17620144D01*
X6907144Y-17620144D01*
X6907144Y-17690856D01*
X6977856Y-17690856D01*
X7421071Y-17791214D02*
X7249643Y-17791214D01*
X7335357Y-17791214D02*
X7335357Y-17491214D01*
X7306786Y-17534072D01*
X7278214Y-17562643D01*
X7249643Y-17576929D01*
X7549643Y-17762643D02*
X7563928Y-17776929D01*
X7549643Y-17791214D01*
X7535357Y-17776929D01*
X7549643Y-17762643D01*
X7549643Y-17791214D01*
X7749643Y-17491214D02*
X7778214Y-17491214D01*
X7806786Y-17505500D01*
X7821071Y-17519786D01*
X7835357Y-17548357D01*
X7849643Y-17605500D01*
X7849643Y-17676929D01*
X7835357Y-17734072D01*
X7821071Y-17762643D01*
X7806786Y-17776929D01*
X7778214Y-17791214D01*
X7749643Y-17791214D01*
X7721071Y-17776929D01*
X7706786Y-17762643D01*
X7692500Y-17734072D01*
X7678214Y-17676929D01*
X7678214Y-17605500D01*
X7692500Y-17548357D01*
X7706786Y-17519786D01*
X7721071Y-17505500D01*
X7749643Y-17491214D01*
X8035357Y-17491214D02*
X8063928Y-17491214D01*
X8092500Y-17505500D01*
X8106786Y-17519786D01*
X8121071Y-17548357D01*
X8135357Y-17605500D01*
X8135357Y-17676929D01*
X8121071Y-17734072D01*
X8106786Y-17762643D01*
X8092500Y-17776929D01*
X8063928Y-17791214D01*
X8035357Y-17791214D01*
X8006786Y-17776929D01*
X7992500Y-17762643D01*
X7978214Y-17734072D01*
X7963928Y-17676929D01*
X7963928Y-17605500D01*
X7978214Y-17548357D01*
X7992500Y-17519786D01*
X8006786Y-17505500D01*
X8035357Y-17491214D01*
X8263928Y-17791214D02*
X8263928Y-17591214D01*
X8263928Y-17619786D02*
X8278214Y-17605500D01*
X8306786Y-17591214D01*
X8349643Y-17591214D01*
X8378214Y-17605500D01*
X8392500Y-17634072D01*
X8392500Y-17791214D01*
X8392500Y-17634072D02*
X8406786Y-17605500D01*
X8435357Y-17591214D01*
X8478214Y-17591214D01*
X8506786Y-17605500D01*
X8521071Y-17634072D01*
X8521071Y-17791214D01*
X8663929Y-17791214D02*
X8663929Y-17591214D01*
X8663929Y-17619786D02*
X8678214Y-17605500D01*
X8706786Y-17591214D01*
X8749643Y-17591214D01*
X8778214Y-17605500D01*
X8792500Y-17634072D01*
X8792500Y-17791214D01*
X8792500Y-17634072D02*
X8806786Y-17605500D01*
X8835357Y-17591214D01*
X8878214Y-17591214D01*
X8906786Y-17605500D01*
X8921071Y-17634072D01*
X8921071Y-17791214D01*
X9506786Y-17476929D02*
X9249643Y-17862643D01*
X9892500Y-17491214D02*
X9921071Y-17491214D01*
X9949643Y-17505500D01*
X9963928Y-17519786D01*
X9978214Y-17548357D01*
X9992500Y-17605500D01*
X9992500Y-17676929D01*
X9978214Y-17734072D01*
X9963928Y-17762643D01*
X9949643Y-17776929D01*
X9921071Y-17791214D01*
X9892500Y-17791214D01*
X9863928Y-17776929D01*
X9849643Y-17762643D01*
X9835357Y-17734072D01*
X9821071Y-17676929D01*
X9821071Y-17605500D01*
X9835357Y-17548357D01*
X9849643Y-17519786D01*
X9863928Y-17505500D01*
X9892500Y-17491214D01*
X10121071Y-17762643D02*
X10135357Y-17776929D01*
X10121071Y-17791214D01*
X10106786Y-17776929D01*
X10121071Y-17762643D01*
X10121071Y-17791214D01*
X10321071Y-17491214D02*
X10349643Y-17491214D01*
X10378214Y-17505500D01*
X10392500Y-17519786D01*
X10406786Y-17548357D01*
X10421071Y-17605500D01*
X10421071Y-17676929D01*
X10406786Y-17734072D01*
X10392500Y-17762643D01*
X10378214Y-17776929D01*
X10349643Y-17791214D01*
X10321071Y-17791214D01*
X10292500Y-17776929D01*
X10278214Y-17762643D01*
X10263928Y-17734072D01*
X10249643Y-17676929D01*
X10249643Y-17605500D01*
X10263928Y-17548357D01*
X10278214Y-17519786D01*
X10292500Y-17505500D01*
X10321071Y-17491214D01*
X10521071Y-17491214D02*
X10706786Y-17491214D01*
X10606786Y-17605500D01*
X10649643Y-17605500D01*
X10678214Y-17619786D01*
X10692500Y-17634072D01*
X10706786Y-17662643D01*
X10706786Y-17734072D01*
X10692500Y-17762643D01*
X10678214Y-17776929D01*
X10649643Y-17791214D01*
X10563928Y-17791214D01*
X10535357Y-17776929D01*
X10521071Y-17762643D01*
X10849643Y-17791214D02*
X10906786Y-17791214D01*
X10935357Y-17776929D01*
X10949643Y-17762643D01*
X10978214Y-17719786D01*
X10992500Y-17662643D01*
X10992500Y-17548357D01*
X10978214Y-17519786D01*
X10963928Y-17505500D01*
X10935357Y-17491214D01*
X10878214Y-17491214D01*
X10849643Y-17505500D01*
X10835357Y-17519786D01*
X10821071Y-17548357D01*
X10821071Y-17619786D01*
X10835357Y-17648357D01*
X10849643Y-17662643D01*
X10878214Y-17676929D01*
X10935357Y-17676929D01*
X10963928Y-17662643D01*
X10978214Y-17648357D01*
X10992500Y-17619786D01*
X11106786Y-17491214D02*
X11106786Y-17548357D01*
X11221071Y-17491214D02*
X11221071Y-17548357D01*
X11663928Y-17905500D02*
X11649643Y-17891214D01*
X11621071Y-17848357D01*
X11606785Y-17819786D01*
X11592500Y-17776929D01*
X11578214Y-17705500D01*
X11578214Y-17648357D01*
X11592500Y-17576929D01*
X11606785Y-17534072D01*
X11621071Y-17505500D01*
X11649643Y-17462643D01*
X11663928Y-17448357D01*
X11906785Y-17591214D02*
X11906785Y-17791214D01*
X11835357Y-17476929D02*
X11763928Y-17691214D01*
X11949643Y-17691214D01*
X12292500Y-17791214D02*
X12292500Y-17491214D01*
X12421071Y-17791214D02*
X12421071Y-17634072D01*
X12406785Y-17605500D01*
X12378214Y-17591214D01*
X12335357Y-17591214D01*
X12306785Y-17605500D01*
X12292500Y-17619786D01*
X12606785Y-17791214D02*
X12578214Y-17776929D01*
X12563928Y-17762643D01*
X12549643Y-17734072D01*
X12549643Y-17648357D01*
X12563928Y-17619786D01*
X12578214Y-17605500D01*
X12606785Y-17591214D01*
X12649643Y-17591214D01*
X12678214Y-17605500D01*
X12692500Y-17619786D01*
X12706785Y-17648357D01*
X12706785Y-17734072D01*
X12692500Y-17762643D01*
X12678214Y-17776929D01*
X12649643Y-17791214D01*
X12606785Y-17791214D01*
X12878214Y-17791214D02*
X12849643Y-17776929D01*
X12835357Y-17748357D01*
X12835357Y-17491214D01*
X13106786Y-17776929D02*
X13078214Y-17791214D01*
X13021071Y-17791214D01*
X12992500Y-17776929D01*
X12978214Y-17748357D01*
X12978214Y-17634072D01*
X12992500Y-17605500D01*
X13021071Y-17591214D01*
X13078214Y-17591214D01*
X13106786Y-17605500D01*
X13121071Y-17634072D01*
X13121071Y-17662643D01*
X12978214Y-17691214D01*
X13235357Y-17776929D02*
X13263928Y-17791214D01*
X13321071Y-17791214D01*
X13349643Y-17776929D01*
X13363928Y-17748357D01*
X13363928Y-17734072D01*
X13349643Y-17705500D01*
X13321071Y-17691214D01*
X13278214Y-17691214D01*
X13249643Y-17676929D01*
X13235357Y-17648357D01*
X13235357Y-17634072D01*
X13249643Y-17605500D01*
X13278214Y-17591214D01*
X13321071Y-17591214D01*
X13349643Y-17605500D01*
X13463928Y-17905500D02*
X13478214Y-17891214D01*
X13506786Y-17848357D01*
X13521071Y-17819786D01*
X13535357Y-17776929D01*
X13549643Y-17705500D01*
X13549643Y-17648357D01*
X13535357Y-17576929D01*
X13521071Y-17534072D01*
X13506786Y-17505500D01*
X13478214Y-17462643D01*
X13463928Y-17448357D01*
M02*
