G04 #@! TF.FileFunction,Copper,L1,Top,Signal*
%FSLAX46Y46*%
G04 Gerber Fmt 4.6, Leading zero omitted, Abs format (unit mm)*
G04 Created by KiCad (PCBNEW 4.0.7) date 02/22/18 18:02:35*
%MOMM*%
%LPD*%
G01*
G04 APERTURE LIST*
%ADD10C,0.100000*%
%ADD11C,1.600000*%
%ADD12R,1.600000X1.600000*%
%ADD13O,1.600000X1.600000*%
%ADD14R,1.800000X1.800000*%
%ADD15C,1.800000*%
%ADD16C,1.000000*%
%ADD17R,1.000000X1.000000*%
%ADD18C,1.400000*%
%ADD19O,1.400000X1.400000*%
%ADD20C,3.000000*%
%ADD21C,0.254000*%
G04 APERTURE END LIST*
D10*
D11*
X96520000Y-99060000D03*
X94020000Y-99060000D03*
X96520000Y-123190000D03*
X94020000Y-123190000D03*
X102870000Y-106680000D03*
X100370000Y-106680000D03*
X110490000Y-82550000D03*
X107990000Y-82550000D03*
X95250000Y-142240000D03*
X97750000Y-142240000D03*
X105410000Y-113030000D03*
X102910000Y-113030000D03*
X110490000Y-97790000D03*
X107990000Y-97790000D03*
X110490000Y-121920000D03*
X107990000Y-121920000D03*
D12*
X102870000Y-133350000D03*
D13*
X110490000Y-133350000D03*
D12*
X102870000Y-87630000D03*
D13*
X95250000Y-87630000D03*
D14*
X83820000Y-133350000D03*
D15*
X83820000Y-130810000D03*
X83820000Y-128270000D03*
D14*
X87630000Y-109220000D03*
D15*
X87630000Y-111760000D03*
D14*
X116840000Y-109220000D03*
D15*
X116840000Y-111760000D03*
D16*
X101600000Y-99060000D03*
X102870000Y-97790000D03*
D17*
X102870000Y-100330000D03*
D16*
X104140000Y-121920000D03*
X102870000Y-123190000D03*
D17*
X102870000Y-120650000D03*
D18*
X91440000Y-102870000D03*
D19*
X96520000Y-102870000D03*
D18*
X91440000Y-106680000D03*
D19*
X96520000Y-106680000D03*
D18*
X97790000Y-78740000D03*
D19*
X102870000Y-78740000D03*
D18*
X107950000Y-142240000D03*
D19*
X102870000Y-142240000D03*
D18*
X102870000Y-92710000D03*
D19*
X97790000Y-92710000D03*
D18*
X107950000Y-138430000D03*
D19*
X102870000Y-138430000D03*
D18*
X91440000Y-113030000D03*
D19*
X96520000Y-113030000D03*
D18*
X113030000Y-106680000D03*
D19*
X107950000Y-106680000D03*
D18*
X97790000Y-82550000D03*
D19*
X102870000Y-82550000D03*
D18*
X107950000Y-128270000D03*
D19*
X102870000Y-128270000D03*
D18*
X113030000Y-113030000D03*
D19*
X107950000Y-113030000D03*
D18*
X113030000Y-116840000D03*
D19*
X107950000Y-116840000D03*
D20*
X75000000Y-75000000D03*
X115000000Y-75000000D03*
X115000000Y-150000000D03*
X75000000Y-150000000D03*
D21*
G36*
X119290000Y-154290000D02*
X70710000Y-154290000D01*
X70710000Y-150422815D01*
X72864630Y-150422815D01*
X73188980Y-151207800D01*
X73789041Y-151808909D01*
X74573459Y-152134628D01*
X75422815Y-152135370D01*
X76207800Y-151811020D01*
X76808909Y-151210959D01*
X77134628Y-150426541D01*
X77134631Y-150422815D01*
X112864630Y-150422815D01*
X113188980Y-151207800D01*
X113789041Y-151808909D01*
X114573459Y-152134628D01*
X115422815Y-152135370D01*
X116207800Y-151811020D01*
X116808909Y-151210959D01*
X117134628Y-150426541D01*
X117135370Y-149577185D01*
X116811020Y-148792200D01*
X116210959Y-148191091D01*
X115426541Y-147865372D01*
X114577185Y-147864630D01*
X113792200Y-148188980D01*
X113191091Y-148789041D01*
X112865372Y-149573459D01*
X112864630Y-150422815D01*
X77134631Y-150422815D01*
X77135370Y-149577185D01*
X76811020Y-148792200D01*
X76210959Y-148191091D01*
X75426541Y-147865372D01*
X74577185Y-147864630D01*
X73792200Y-148188980D01*
X73191091Y-148789041D01*
X72865372Y-149573459D01*
X72864630Y-150422815D01*
X70710000Y-150422815D01*
X70710000Y-143247745D01*
X94421861Y-143247745D01*
X94495995Y-143493864D01*
X95033223Y-143686965D01*
X95603454Y-143659778D01*
X96004005Y-143493864D01*
X96078139Y-143247745D01*
X95250000Y-142419605D01*
X94421861Y-143247745D01*
X70710000Y-143247745D01*
X70710000Y-142023223D01*
X93803035Y-142023223D01*
X93830222Y-142593454D01*
X93996136Y-142994005D01*
X94242255Y-143068139D01*
X95070395Y-142240000D01*
X95429605Y-142240000D01*
X96257745Y-143068139D01*
X96503864Y-142994005D01*
X96506196Y-142987517D01*
X96532757Y-143051800D01*
X96936077Y-143455824D01*
X97463309Y-143674750D01*
X98034187Y-143675248D01*
X98561800Y-143457243D01*
X98965824Y-143053923D01*
X99184750Y-142526691D01*
X99185000Y-142240000D01*
X101508846Y-142240000D01*
X101610467Y-142750882D01*
X101899858Y-143183988D01*
X102332964Y-143473379D01*
X102843846Y-143575000D01*
X102896154Y-143575000D01*
X103407036Y-143473379D01*
X103840142Y-143183988D01*
X104129533Y-142750882D01*
X104178564Y-142504383D01*
X106614769Y-142504383D01*
X106817582Y-142995229D01*
X107192796Y-143371098D01*
X107683287Y-143574768D01*
X108214383Y-143575231D01*
X108705229Y-143372418D01*
X109081098Y-142997204D01*
X109284768Y-142506713D01*
X109285231Y-141975617D01*
X109082418Y-141484771D01*
X108707204Y-141108902D01*
X108216713Y-140905232D01*
X107685617Y-140904769D01*
X107194771Y-141107582D01*
X106818902Y-141482796D01*
X106615232Y-141973287D01*
X106614769Y-142504383D01*
X104178564Y-142504383D01*
X104231154Y-142240000D01*
X104129533Y-141729118D01*
X103840142Y-141296012D01*
X103407036Y-141006621D01*
X102896154Y-140905000D01*
X102843846Y-140905000D01*
X102332964Y-141006621D01*
X101899858Y-141296012D01*
X101610467Y-141729118D01*
X101508846Y-142240000D01*
X99185000Y-142240000D01*
X99185248Y-141955813D01*
X98967243Y-141428200D01*
X98563923Y-141024176D01*
X98036691Y-140805250D01*
X97465813Y-140804752D01*
X96938200Y-141022757D01*
X96534176Y-141426077D01*
X96506577Y-141492544D01*
X96503864Y-141485995D01*
X96257745Y-141411861D01*
X95429605Y-142240000D01*
X95070395Y-142240000D01*
X94242255Y-141411861D01*
X93996136Y-141485995D01*
X93803035Y-142023223D01*
X70710000Y-142023223D01*
X70710000Y-141232255D01*
X94421861Y-141232255D01*
X95250000Y-142060395D01*
X96078139Y-141232255D01*
X96004005Y-140986136D01*
X95466777Y-140793035D01*
X94896546Y-140820222D01*
X94495995Y-140986136D01*
X94421861Y-141232255D01*
X70710000Y-141232255D01*
X70710000Y-138430000D01*
X101508846Y-138430000D01*
X101610467Y-138940882D01*
X101899858Y-139373988D01*
X102332964Y-139663379D01*
X102843846Y-139765000D01*
X102896154Y-139765000D01*
X103407036Y-139663379D01*
X103840142Y-139373988D01*
X104129533Y-138940882D01*
X104178564Y-138694383D01*
X106614769Y-138694383D01*
X106817582Y-139185229D01*
X107192796Y-139561098D01*
X107683287Y-139764768D01*
X108214383Y-139765231D01*
X108705229Y-139562418D01*
X109081098Y-139187204D01*
X109284768Y-138696713D01*
X109285231Y-138165617D01*
X109082418Y-137674771D01*
X108707204Y-137298902D01*
X108216713Y-137095232D01*
X107685617Y-137094769D01*
X107194771Y-137297582D01*
X106818902Y-137672796D01*
X106615232Y-138163287D01*
X106614769Y-138694383D01*
X104178564Y-138694383D01*
X104231154Y-138430000D01*
X104129533Y-137919118D01*
X103840142Y-137486012D01*
X103407036Y-137196621D01*
X102896154Y-137095000D01*
X102843846Y-137095000D01*
X102332964Y-137196621D01*
X101899858Y-137486012D01*
X101610467Y-137919118D01*
X101508846Y-138430000D01*
X70710000Y-138430000D01*
X70710000Y-132450000D01*
X82272560Y-132450000D01*
X82272560Y-134250000D01*
X82316838Y-134485317D01*
X82455910Y-134701441D01*
X82668110Y-134846431D01*
X82920000Y-134897440D01*
X84720000Y-134897440D01*
X84955317Y-134853162D01*
X85171441Y-134714090D01*
X85316431Y-134501890D01*
X85367440Y-134250000D01*
X85367440Y-132550000D01*
X101422560Y-132550000D01*
X101422560Y-134150000D01*
X101466838Y-134385317D01*
X101605910Y-134601441D01*
X101818110Y-134746431D01*
X102070000Y-134797440D01*
X103670000Y-134797440D01*
X103905317Y-134753162D01*
X104121441Y-134614090D01*
X104266431Y-134401890D01*
X104317440Y-134150000D01*
X104317440Y-133350000D01*
X109026887Y-133350000D01*
X109136120Y-133899151D01*
X109447189Y-134364698D01*
X109912736Y-134675767D01*
X110461887Y-134785000D01*
X110518113Y-134785000D01*
X111067264Y-134675767D01*
X111532811Y-134364698D01*
X111843880Y-133899151D01*
X111953113Y-133350000D01*
X111843880Y-132800849D01*
X111532811Y-132335302D01*
X111067264Y-132024233D01*
X110518113Y-131915000D01*
X110461887Y-131915000D01*
X109912736Y-132024233D01*
X109447189Y-132335302D01*
X109136120Y-132800849D01*
X109026887Y-133350000D01*
X104317440Y-133350000D01*
X104317440Y-132550000D01*
X104273162Y-132314683D01*
X104134090Y-132098559D01*
X103921890Y-131953569D01*
X103670000Y-131902560D01*
X102070000Y-131902560D01*
X101834683Y-131946838D01*
X101618559Y-132085910D01*
X101473569Y-132298110D01*
X101422560Y-132550000D01*
X85367440Y-132550000D01*
X85367440Y-132450000D01*
X85323162Y-132214683D01*
X85184090Y-131998559D01*
X84971890Y-131853569D01*
X84951466Y-131849433D01*
X85120551Y-131680643D01*
X85354733Y-131116670D01*
X85355265Y-130506009D01*
X85122068Y-129941629D01*
X84690643Y-129509449D01*
X84669806Y-129500797D01*
X84720554Y-129350159D01*
X83820000Y-128449605D01*
X82919446Y-129350159D01*
X82970035Y-129500327D01*
X82951629Y-129507932D01*
X82519449Y-129939357D01*
X82285267Y-130503330D01*
X82284735Y-131113991D01*
X82517932Y-131678371D01*
X82685880Y-131846613D01*
X82684683Y-131846838D01*
X82468559Y-131985910D01*
X82323569Y-132198110D01*
X82272560Y-132450000D01*
X70710000Y-132450000D01*
X70710000Y-128029336D01*
X82273542Y-128029336D01*
X82299161Y-128639460D01*
X82483357Y-129084148D01*
X82739841Y-129170554D01*
X83640395Y-128270000D01*
X83999605Y-128270000D01*
X84900159Y-129170554D01*
X85156643Y-129084148D01*
X85366458Y-128510664D01*
X85356353Y-128270000D01*
X101508846Y-128270000D01*
X101610467Y-128780882D01*
X101899858Y-129213988D01*
X102332964Y-129503379D01*
X102843846Y-129605000D01*
X102896154Y-129605000D01*
X103407036Y-129503379D01*
X103840142Y-129213988D01*
X104129533Y-128780882D01*
X104178564Y-128534383D01*
X106614769Y-128534383D01*
X106817582Y-129025229D01*
X107192796Y-129401098D01*
X107683287Y-129604768D01*
X108214383Y-129605231D01*
X108705229Y-129402418D01*
X109081098Y-129027204D01*
X109284768Y-128536713D01*
X109285231Y-128005617D01*
X109082418Y-127514771D01*
X108707204Y-127138902D01*
X108216713Y-126935232D01*
X107685617Y-126934769D01*
X107194771Y-127137582D01*
X106818902Y-127512796D01*
X106615232Y-128003287D01*
X106614769Y-128534383D01*
X104178564Y-128534383D01*
X104231154Y-128270000D01*
X104129533Y-127759118D01*
X103840142Y-127326012D01*
X103407036Y-127036621D01*
X102896154Y-126935000D01*
X102843846Y-126935000D01*
X102332964Y-127036621D01*
X101899858Y-127326012D01*
X101610467Y-127759118D01*
X101508846Y-128270000D01*
X85356353Y-128270000D01*
X85340839Y-127900540D01*
X85156643Y-127455852D01*
X84900159Y-127369446D01*
X83999605Y-128270000D01*
X83640395Y-128270000D01*
X82739841Y-127369446D01*
X82483357Y-127455852D01*
X82273542Y-128029336D01*
X70710000Y-128029336D01*
X70710000Y-127189841D01*
X82919446Y-127189841D01*
X83820000Y-128090395D01*
X84720554Y-127189841D01*
X84634148Y-126933357D01*
X84060664Y-126723542D01*
X83450540Y-126749161D01*
X83005852Y-126933357D01*
X82919446Y-127189841D01*
X70710000Y-127189841D01*
X70710000Y-123474187D01*
X92584752Y-123474187D01*
X92802757Y-124001800D01*
X93206077Y-124405824D01*
X93733309Y-124624750D01*
X94304187Y-124625248D01*
X94831800Y-124407243D01*
X95235824Y-124003923D01*
X95269813Y-123922069D01*
X95302757Y-124001800D01*
X95706077Y-124405824D01*
X96233309Y-124624750D01*
X96804187Y-124625248D01*
X97331800Y-124407243D01*
X97735824Y-124003923D01*
X97954750Y-123476691D01*
X97955248Y-122905813D01*
X97737243Y-122378200D01*
X97333923Y-121974176D01*
X96806691Y-121755250D01*
X96235813Y-121754752D01*
X95708200Y-121972757D01*
X95304176Y-122376077D01*
X95270187Y-122457931D01*
X95237243Y-122378200D01*
X94833923Y-121974176D01*
X94306691Y-121755250D01*
X93735813Y-121754752D01*
X93208200Y-121972757D01*
X92804176Y-122376077D01*
X92585250Y-122903309D01*
X92584752Y-123474187D01*
X70710000Y-123474187D01*
X70710000Y-120150000D01*
X101722560Y-120150000D01*
X101722560Y-121150000D01*
X101766838Y-121385317D01*
X101905910Y-121601441D01*
X102118110Y-121746431D01*
X102370000Y-121797440D01*
X103005106Y-121797440D01*
X103004881Y-122055117D01*
X102645225Y-122054803D01*
X102227914Y-122227233D01*
X101908355Y-122546235D01*
X101735197Y-122963244D01*
X101734803Y-123414775D01*
X101907233Y-123832086D01*
X102226235Y-124151645D01*
X102643244Y-124324803D01*
X103094775Y-124325197D01*
X103512086Y-124152767D01*
X103831645Y-123833765D01*
X104004803Y-123416756D01*
X104005119Y-123054883D01*
X104364775Y-123055197D01*
X104782086Y-122882767D01*
X105101645Y-122563765D01*
X105250955Y-122204187D01*
X106554752Y-122204187D01*
X106772757Y-122731800D01*
X107176077Y-123135824D01*
X107703309Y-123354750D01*
X108274187Y-123355248D01*
X108801800Y-123137243D01*
X109205824Y-122733923D01*
X109239813Y-122652069D01*
X109272757Y-122731800D01*
X109676077Y-123135824D01*
X110203309Y-123354750D01*
X110774187Y-123355248D01*
X111301800Y-123137243D01*
X111705824Y-122733923D01*
X111924750Y-122206691D01*
X111925248Y-121635813D01*
X111707243Y-121108200D01*
X111303923Y-120704176D01*
X110776691Y-120485250D01*
X110205813Y-120484752D01*
X109678200Y-120702757D01*
X109274176Y-121106077D01*
X109240187Y-121187931D01*
X109207243Y-121108200D01*
X108803923Y-120704176D01*
X108276691Y-120485250D01*
X107705813Y-120484752D01*
X107178200Y-120702757D01*
X106774176Y-121106077D01*
X106555250Y-121633309D01*
X106554752Y-122204187D01*
X105250955Y-122204187D01*
X105274803Y-122146756D01*
X105275197Y-121695225D01*
X105102767Y-121277914D01*
X104783765Y-120958355D01*
X104366756Y-120785197D01*
X104017440Y-120784892D01*
X104017440Y-120150000D01*
X103973162Y-119914683D01*
X103834090Y-119698559D01*
X103621890Y-119553569D01*
X103370000Y-119502560D01*
X102370000Y-119502560D01*
X102134683Y-119546838D01*
X101918559Y-119685910D01*
X101773569Y-119898110D01*
X101722560Y-120150000D01*
X70710000Y-120150000D01*
X70710000Y-116840000D01*
X106588846Y-116840000D01*
X106690467Y-117350882D01*
X106979858Y-117783988D01*
X107412964Y-118073379D01*
X107923846Y-118175000D01*
X107976154Y-118175000D01*
X108487036Y-118073379D01*
X108920142Y-117783988D01*
X108925963Y-117775275D01*
X112274331Y-117775275D01*
X112336169Y-118011042D01*
X112837122Y-118187419D01*
X113367440Y-118158664D01*
X113723831Y-118011042D01*
X113785669Y-117775275D01*
X113030000Y-117019605D01*
X112274331Y-117775275D01*
X108925963Y-117775275D01*
X109209533Y-117350882D01*
X109311154Y-116840000D01*
X109272789Y-116647122D01*
X111682581Y-116647122D01*
X111711336Y-117177440D01*
X111858958Y-117533831D01*
X112094725Y-117595669D01*
X112850395Y-116840000D01*
X113209605Y-116840000D01*
X113965275Y-117595669D01*
X114201042Y-117533831D01*
X114377419Y-117032878D01*
X114348664Y-116502560D01*
X114201042Y-116146169D01*
X113965275Y-116084331D01*
X113209605Y-116840000D01*
X112850395Y-116840000D01*
X112094725Y-116084331D01*
X111858958Y-116146169D01*
X111682581Y-116647122D01*
X109272789Y-116647122D01*
X109209533Y-116329118D01*
X108925964Y-115904725D01*
X112274331Y-115904725D01*
X113030000Y-116660395D01*
X113785669Y-115904725D01*
X113723831Y-115668958D01*
X113222878Y-115492581D01*
X112692560Y-115521336D01*
X112336169Y-115668958D01*
X112274331Y-115904725D01*
X108925964Y-115904725D01*
X108920142Y-115896012D01*
X108487036Y-115606621D01*
X107976154Y-115505000D01*
X107923846Y-115505000D01*
X107412964Y-115606621D01*
X106979858Y-115896012D01*
X106690467Y-116329118D01*
X106588846Y-116840000D01*
X70710000Y-116840000D01*
X70710000Y-113965275D01*
X90684331Y-113965275D01*
X90746169Y-114201042D01*
X91247122Y-114377419D01*
X91777440Y-114348664D01*
X92133831Y-114201042D01*
X92195669Y-113965275D01*
X91440000Y-113209605D01*
X90684331Y-113965275D01*
X70710000Y-113965275D01*
X70710000Y-112840159D01*
X86729446Y-112840159D01*
X86815852Y-113096643D01*
X87389336Y-113306458D01*
X87999460Y-113280839D01*
X88444148Y-113096643D01*
X88530554Y-112840159D01*
X88527517Y-112837122D01*
X90092581Y-112837122D01*
X90121336Y-113367440D01*
X90268958Y-113723831D01*
X90504725Y-113785669D01*
X91260395Y-113030000D01*
X91619605Y-113030000D01*
X92375275Y-113785669D01*
X92611042Y-113723831D01*
X92787419Y-113222878D01*
X92776961Y-113030000D01*
X95158846Y-113030000D01*
X95260467Y-113540882D01*
X95549858Y-113973988D01*
X95982964Y-114263379D01*
X96493846Y-114365000D01*
X96546154Y-114365000D01*
X97057036Y-114263379D01*
X97490142Y-113973988D01*
X97779533Y-113540882D01*
X97824625Y-113314187D01*
X101474752Y-113314187D01*
X101692757Y-113841800D01*
X102096077Y-114245824D01*
X102623309Y-114464750D01*
X103194187Y-114465248D01*
X103721800Y-114247243D01*
X104125824Y-113843923D01*
X104159813Y-113762069D01*
X104192757Y-113841800D01*
X104596077Y-114245824D01*
X105123309Y-114464750D01*
X105694187Y-114465248D01*
X106221800Y-114247243D01*
X106625824Y-113843923D01*
X106728205Y-113597362D01*
X106979858Y-113973988D01*
X107412964Y-114263379D01*
X107923846Y-114365000D01*
X107976154Y-114365000D01*
X108487036Y-114263379D01*
X108920142Y-113973988D01*
X108925963Y-113965275D01*
X112274331Y-113965275D01*
X112336169Y-114201042D01*
X112837122Y-114377419D01*
X113367440Y-114348664D01*
X113723831Y-114201042D01*
X113785669Y-113965275D01*
X113030000Y-113209605D01*
X112274331Y-113965275D01*
X108925963Y-113965275D01*
X109209533Y-113540882D01*
X109311154Y-113030000D01*
X109272789Y-112837122D01*
X111682581Y-112837122D01*
X111711336Y-113367440D01*
X111858958Y-113723831D01*
X112094725Y-113785669D01*
X112850395Y-113030000D01*
X113209605Y-113030000D01*
X113965275Y-113785669D01*
X114201042Y-113723831D01*
X114377419Y-113222878D01*
X114356668Y-112840159D01*
X115939446Y-112840159D01*
X116025852Y-113096643D01*
X116599336Y-113306458D01*
X117209460Y-113280839D01*
X117654148Y-113096643D01*
X117740554Y-112840159D01*
X116840000Y-111939605D01*
X115939446Y-112840159D01*
X114356668Y-112840159D01*
X114348664Y-112692560D01*
X114201042Y-112336169D01*
X113965275Y-112274331D01*
X113209605Y-113030000D01*
X112850395Y-113030000D01*
X112094725Y-112274331D01*
X111858958Y-112336169D01*
X111682581Y-112837122D01*
X109272789Y-112837122D01*
X109209533Y-112519118D01*
X108925964Y-112094725D01*
X112274331Y-112094725D01*
X113030000Y-112850395D01*
X113785669Y-112094725D01*
X113723831Y-111858958D01*
X113222878Y-111682581D01*
X112692560Y-111711336D01*
X112336169Y-111858958D01*
X112274331Y-112094725D01*
X108925964Y-112094725D01*
X108920142Y-112086012D01*
X108487036Y-111796621D01*
X107976154Y-111695000D01*
X107923846Y-111695000D01*
X107412964Y-111796621D01*
X106979858Y-112086012D01*
X106728228Y-112462604D01*
X106627243Y-112218200D01*
X106223923Y-111814176D01*
X105696691Y-111595250D01*
X105125813Y-111594752D01*
X104598200Y-111812757D01*
X104194176Y-112216077D01*
X104160187Y-112297931D01*
X104127243Y-112218200D01*
X103723923Y-111814176D01*
X103196691Y-111595250D01*
X102625813Y-111594752D01*
X102098200Y-111812757D01*
X101694176Y-112216077D01*
X101475250Y-112743309D01*
X101474752Y-113314187D01*
X97824625Y-113314187D01*
X97881154Y-113030000D01*
X97779533Y-112519118D01*
X97490142Y-112086012D01*
X97057036Y-111796621D01*
X96546154Y-111695000D01*
X96493846Y-111695000D01*
X95982964Y-111796621D01*
X95549858Y-112086012D01*
X95260467Y-112519118D01*
X95158846Y-113030000D01*
X92776961Y-113030000D01*
X92758664Y-112692560D01*
X92611042Y-112336169D01*
X92375275Y-112274331D01*
X91619605Y-113030000D01*
X91260395Y-113030000D01*
X90504725Y-112274331D01*
X90268958Y-112336169D01*
X90092581Y-112837122D01*
X88527517Y-112837122D01*
X87630000Y-111939605D01*
X86729446Y-112840159D01*
X70710000Y-112840159D01*
X70710000Y-108320000D01*
X86082560Y-108320000D01*
X86082560Y-110120000D01*
X86126838Y-110355317D01*
X86265910Y-110571441D01*
X86469574Y-110710598D01*
X86435282Y-110744890D01*
X86549839Y-110859447D01*
X86293357Y-110945852D01*
X86083542Y-111519336D01*
X86109161Y-112129460D01*
X86293357Y-112574148D01*
X86549841Y-112660554D01*
X87450395Y-111760000D01*
X87436253Y-111745858D01*
X87615858Y-111566253D01*
X87630000Y-111580395D01*
X87644143Y-111566253D01*
X87823748Y-111745858D01*
X87809605Y-111760000D01*
X88710159Y-112660554D01*
X88966643Y-112574148D01*
X89142044Y-112094725D01*
X90684331Y-112094725D01*
X91440000Y-112850395D01*
X92195669Y-112094725D01*
X92133831Y-111858958D01*
X91632878Y-111682581D01*
X91102560Y-111711336D01*
X90746169Y-111858958D01*
X90684331Y-112094725D01*
X89142044Y-112094725D01*
X89176458Y-112000664D01*
X89150839Y-111390540D01*
X88966643Y-110945852D01*
X88710161Y-110859447D01*
X88824718Y-110744890D01*
X88788240Y-110708412D01*
X88981441Y-110584090D01*
X89126431Y-110371890D01*
X89177440Y-110120000D01*
X89177440Y-108320000D01*
X115292560Y-108320000D01*
X115292560Y-110120000D01*
X115336838Y-110355317D01*
X115475910Y-110571441D01*
X115679574Y-110710598D01*
X115645282Y-110744890D01*
X115759839Y-110859447D01*
X115503357Y-110945852D01*
X115293542Y-111519336D01*
X115319161Y-112129460D01*
X115503357Y-112574148D01*
X115759841Y-112660554D01*
X116660395Y-111760000D01*
X116646253Y-111745858D01*
X116825858Y-111566253D01*
X116840000Y-111580395D01*
X116854143Y-111566253D01*
X117033748Y-111745858D01*
X117019605Y-111760000D01*
X117920159Y-112660554D01*
X118176643Y-112574148D01*
X118386458Y-112000664D01*
X118360839Y-111390540D01*
X118176643Y-110945852D01*
X117920161Y-110859447D01*
X118034718Y-110744890D01*
X117998240Y-110708412D01*
X118191441Y-110584090D01*
X118336431Y-110371890D01*
X118387440Y-110120000D01*
X118387440Y-108320000D01*
X118343162Y-108084683D01*
X118204090Y-107868559D01*
X117991890Y-107723569D01*
X117740000Y-107672560D01*
X115940000Y-107672560D01*
X115704683Y-107716838D01*
X115488559Y-107855910D01*
X115343569Y-108068110D01*
X115292560Y-108320000D01*
X89177440Y-108320000D01*
X89133162Y-108084683D01*
X88994090Y-107868559D01*
X88781890Y-107723569D01*
X88530000Y-107672560D01*
X86730000Y-107672560D01*
X86494683Y-107716838D01*
X86278559Y-107855910D01*
X86133569Y-108068110D01*
X86082560Y-108320000D01*
X70710000Y-108320000D01*
X70710000Y-107615275D01*
X90684331Y-107615275D01*
X90746169Y-107851042D01*
X91247122Y-108027419D01*
X91777440Y-107998664D01*
X92133831Y-107851042D01*
X92195669Y-107615275D01*
X91440000Y-106859605D01*
X90684331Y-107615275D01*
X70710000Y-107615275D01*
X70710000Y-106487122D01*
X90092581Y-106487122D01*
X90121336Y-107017440D01*
X90268958Y-107373831D01*
X90504725Y-107435669D01*
X91260395Y-106680000D01*
X91619605Y-106680000D01*
X92375275Y-107435669D01*
X92611042Y-107373831D01*
X92787419Y-106872878D01*
X92776961Y-106680000D01*
X95158846Y-106680000D01*
X95260467Y-107190882D01*
X95549858Y-107623988D01*
X95982964Y-107913379D01*
X96493846Y-108015000D01*
X96546154Y-108015000D01*
X97057036Y-107913379D01*
X97490142Y-107623988D01*
X97779533Y-107190882D01*
X97824625Y-106964187D01*
X98934752Y-106964187D01*
X99152757Y-107491800D01*
X99556077Y-107895824D01*
X100083309Y-108114750D01*
X100654187Y-108115248D01*
X101181800Y-107897243D01*
X101585824Y-107493923D01*
X101619813Y-107412069D01*
X101652757Y-107491800D01*
X102056077Y-107895824D01*
X102583309Y-108114750D01*
X103154187Y-108115248D01*
X103681800Y-107897243D01*
X104085824Y-107493923D01*
X104304750Y-106966691D01*
X104305000Y-106680000D01*
X106588846Y-106680000D01*
X106690467Y-107190882D01*
X106979858Y-107623988D01*
X107412964Y-107913379D01*
X107923846Y-108015000D01*
X107976154Y-108015000D01*
X108487036Y-107913379D01*
X108920142Y-107623988D01*
X108925963Y-107615275D01*
X112274331Y-107615275D01*
X112336169Y-107851042D01*
X112837122Y-108027419D01*
X113367440Y-107998664D01*
X113723831Y-107851042D01*
X113785669Y-107615275D01*
X113030000Y-106859605D01*
X112274331Y-107615275D01*
X108925963Y-107615275D01*
X109209533Y-107190882D01*
X109311154Y-106680000D01*
X109272789Y-106487122D01*
X111682581Y-106487122D01*
X111711336Y-107017440D01*
X111858958Y-107373831D01*
X112094725Y-107435669D01*
X112850395Y-106680000D01*
X113209605Y-106680000D01*
X113965275Y-107435669D01*
X114201042Y-107373831D01*
X114377419Y-106872878D01*
X114348664Y-106342560D01*
X114201042Y-105986169D01*
X113965275Y-105924331D01*
X113209605Y-106680000D01*
X112850395Y-106680000D01*
X112094725Y-105924331D01*
X111858958Y-105986169D01*
X111682581Y-106487122D01*
X109272789Y-106487122D01*
X109209533Y-106169118D01*
X108925964Y-105744725D01*
X112274331Y-105744725D01*
X113030000Y-106500395D01*
X113785669Y-105744725D01*
X113723831Y-105508958D01*
X113222878Y-105332581D01*
X112692560Y-105361336D01*
X112336169Y-105508958D01*
X112274331Y-105744725D01*
X108925964Y-105744725D01*
X108920142Y-105736012D01*
X108487036Y-105446621D01*
X107976154Y-105345000D01*
X107923846Y-105345000D01*
X107412964Y-105446621D01*
X106979858Y-105736012D01*
X106690467Y-106169118D01*
X106588846Y-106680000D01*
X104305000Y-106680000D01*
X104305248Y-106395813D01*
X104087243Y-105868200D01*
X103683923Y-105464176D01*
X103156691Y-105245250D01*
X102585813Y-105244752D01*
X102058200Y-105462757D01*
X101654176Y-105866077D01*
X101620187Y-105947931D01*
X101587243Y-105868200D01*
X101183923Y-105464176D01*
X100656691Y-105245250D01*
X100085813Y-105244752D01*
X99558200Y-105462757D01*
X99154176Y-105866077D01*
X98935250Y-106393309D01*
X98934752Y-106964187D01*
X97824625Y-106964187D01*
X97881154Y-106680000D01*
X97779533Y-106169118D01*
X97490142Y-105736012D01*
X97057036Y-105446621D01*
X96546154Y-105345000D01*
X96493846Y-105345000D01*
X95982964Y-105446621D01*
X95549858Y-105736012D01*
X95260467Y-106169118D01*
X95158846Y-106680000D01*
X92776961Y-106680000D01*
X92758664Y-106342560D01*
X92611042Y-105986169D01*
X92375275Y-105924331D01*
X91619605Y-106680000D01*
X91260395Y-106680000D01*
X90504725Y-105924331D01*
X90268958Y-105986169D01*
X90092581Y-106487122D01*
X70710000Y-106487122D01*
X70710000Y-105744725D01*
X90684331Y-105744725D01*
X91440000Y-106500395D01*
X92195669Y-105744725D01*
X92133831Y-105508958D01*
X91632878Y-105332581D01*
X91102560Y-105361336D01*
X90746169Y-105508958D01*
X90684331Y-105744725D01*
X70710000Y-105744725D01*
X70710000Y-103805275D01*
X90684331Y-103805275D01*
X90746169Y-104041042D01*
X91247122Y-104217419D01*
X91777440Y-104188664D01*
X92133831Y-104041042D01*
X92195669Y-103805275D01*
X91440000Y-103049605D01*
X90684331Y-103805275D01*
X70710000Y-103805275D01*
X70710000Y-102677122D01*
X90092581Y-102677122D01*
X90121336Y-103207440D01*
X90268958Y-103563831D01*
X90504725Y-103625669D01*
X91260395Y-102870000D01*
X91619605Y-102870000D01*
X92375275Y-103625669D01*
X92611042Y-103563831D01*
X92787419Y-103062878D01*
X92776961Y-102870000D01*
X95158846Y-102870000D01*
X95260467Y-103380882D01*
X95549858Y-103813988D01*
X95982964Y-104103379D01*
X96493846Y-104205000D01*
X96546154Y-104205000D01*
X97057036Y-104103379D01*
X97490142Y-103813988D01*
X97779533Y-103380882D01*
X97881154Y-102870000D01*
X97779533Y-102359118D01*
X97490142Y-101926012D01*
X97057036Y-101636621D01*
X96546154Y-101535000D01*
X96493846Y-101535000D01*
X95982964Y-101636621D01*
X95549858Y-101926012D01*
X95260467Y-102359118D01*
X95158846Y-102870000D01*
X92776961Y-102870000D01*
X92758664Y-102532560D01*
X92611042Y-102176169D01*
X92375275Y-102114331D01*
X91619605Y-102870000D01*
X91260395Y-102870000D01*
X90504725Y-102114331D01*
X90268958Y-102176169D01*
X90092581Y-102677122D01*
X70710000Y-102677122D01*
X70710000Y-101934725D01*
X90684331Y-101934725D01*
X91440000Y-102690395D01*
X92195669Y-101934725D01*
X92133831Y-101698958D01*
X91632878Y-101522581D01*
X91102560Y-101551336D01*
X90746169Y-101698958D01*
X90684331Y-101934725D01*
X70710000Y-101934725D01*
X70710000Y-99344187D01*
X92584752Y-99344187D01*
X92802757Y-99871800D01*
X93206077Y-100275824D01*
X93733309Y-100494750D01*
X94304187Y-100495248D01*
X94831800Y-100277243D01*
X95235824Y-99873923D01*
X95269813Y-99792069D01*
X95302757Y-99871800D01*
X95706077Y-100275824D01*
X96233309Y-100494750D01*
X96804187Y-100495248D01*
X97331800Y-100277243D01*
X97735824Y-99873923D01*
X97954750Y-99346691D01*
X97954804Y-99284775D01*
X100464803Y-99284775D01*
X100637233Y-99702086D01*
X100956235Y-100021645D01*
X101373244Y-100194803D01*
X101722560Y-100195108D01*
X101722560Y-100830000D01*
X101766838Y-101065317D01*
X101905910Y-101281441D01*
X102118110Y-101426431D01*
X102370000Y-101477440D01*
X103370000Y-101477440D01*
X103605317Y-101433162D01*
X103821441Y-101294090D01*
X103966431Y-101081890D01*
X104017440Y-100830000D01*
X104017440Y-99830000D01*
X103973162Y-99594683D01*
X103834090Y-99378559D01*
X103621890Y-99233569D01*
X103370000Y-99182560D01*
X102734894Y-99182560D01*
X102735119Y-98924883D01*
X103094775Y-98925197D01*
X103512086Y-98752767D01*
X103831645Y-98433765D01*
X103980955Y-98074187D01*
X106554752Y-98074187D01*
X106772757Y-98601800D01*
X107176077Y-99005824D01*
X107703309Y-99224750D01*
X108274187Y-99225248D01*
X108801800Y-99007243D01*
X109205824Y-98603923D01*
X109239813Y-98522069D01*
X109272757Y-98601800D01*
X109676077Y-99005824D01*
X110203309Y-99224750D01*
X110774187Y-99225248D01*
X111301800Y-99007243D01*
X111705824Y-98603923D01*
X111924750Y-98076691D01*
X111925248Y-97505813D01*
X111707243Y-96978200D01*
X111303923Y-96574176D01*
X110776691Y-96355250D01*
X110205813Y-96354752D01*
X109678200Y-96572757D01*
X109274176Y-96976077D01*
X109240187Y-97057931D01*
X109207243Y-96978200D01*
X108803923Y-96574176D01*
X108276691Y-96355250D01*
X107705813Y-96354752D01*
X107178200Y-96572757D01*
X106774176Y-96976077D01*
X106555250Y-97503309D01*
X106554752Y-98074187D01*
X103980955Y-98074187D01*
X104004803Y-98016756D01*
X104005197Y-97565225D01*
X103832767Y-97147914D01*
X103513765Y-96828355D01*
X103096756Y-96655197D01*
X102645225Y-96654803D01*
X102227914Y-96827233D01*
X101908355Y-97146235D01*
X101735197Y-97563244D01*
X101734881Y-97925117D01*
X101375225Y-97924803D01*
X100957914Y-98097233D01*
X100638355Y-98416235D01*
X100465197Y-98833244D01*
X100464803Y-99284775D01*
X97954804Y-99284775D01*
X97955248Y-98775813D01*
X97737243Y-98248200D01*
X97333923Y-97844176D01*
X96806691Y-97625250D01*
X96235813Y-97624752D01*
X95708200Y-97842757D01*
X95304176Y-98246077D01*
X95270187Y-98327931D01*
X95237243Y-98248200D01*
X94833923Y-97844176D01*
X94306691Y-97625250D01*
X93735813Y-97624752D01*
X93208200Y-97842757D01*
X92804176Y-98246077D01*
X92585250Y-98773309D01*
X92584752Y-99344187D01*
X70710000Y-99344187D01*
X70710000Y-92710000D01*
X96428846Y-92710000D01*
X96530467Y-93220882D01*
X96819858Y-93653988D01*
X97252964Y-93943379D01*
X97763846Y-94045000D01*
X97816154Y-94045000D01*
X98327036Y-93943379D01*
X98760142Y-93653988D01*
X99049533Y-93220882D01*
X99098564Y-92974383D01*
X101534769Y-92974383D01*
X101737582Y-93465229D01*
X102112796Y-93841098D01*
X102603287Y-94044768D01*
X103134383Y-94045231D01*
X103625229Y-93842418D01*
X104001098Y-93467204D01*
X104204768Y-92976713D01*
X104205231Y-92445617D01*
X104002418Y-91954771D01*
X103627204Y-91578902D01*
X103136713Y-91375232D01*
X102605617Y-91374769D01*
X102114771Y-91577582D01*
X101738902Y-91952796D01*
X101535232Y-92443287D01*
X101534769Y-92974383D01*
X99098564Y-92974383D01*
X99151154Y-92710000D01*
X99049533Y-92199118D01*
X98760142Y-91766012D01*
X98327036Y-91476621D01*
X97816154Y-91375000D01*
X97763846Y-91375000D01*
X97252964Y-91476621D01*
X96819858Y-91766012D01*
X96530467Y-92199118D01*
X96428846Y-92710000D01*
X70710000Y-92710000D01*
X70710000Y-87630000D01*
X93786887Y-87630000D01*
X93896120Y-88179151D01*
X94207189Y-88644698D01*
X94672736Y-88955767D01*
X95221887Y-89065000D01*
X95278113Y-89065000D01*
X95827264Y-88955767D01*
X96292811Y-88644698D01*
X96603880Y-88179151D01*
X96713113Y-87630000D01*
X96603880Y-87080849D01*
X96436268Y-86830000D01*
X101422560Y-86830000D01*
X101422560Y-88430000D01*
X101466838Y-88665317D01*
X101605910Y-88881441D01*
X101818110Y-89026431D01*
X102070000Y-89077440D01*
X103670000Y-89077440D01*
X103905317Y-89033162D01*
X104121441Y-88894090D01*
X104266431Y-88681890D01*
X104317440Y-88430000D01*
X104317440Y-86830000D01*
X104273162Y-86594683D01*
X104134090Y-86378559D01*
X103921890Y-86233569D01*
X103670000Y-86182560D01*
X102070000Y-86182560D01*
X101834683Y-86226838D01*
X101618559Y-86365910D01*
X101473569Y-86578110D01*
X101422560Y-86830000D01*
X96436268Y-86830000D01*
X96292811Y-86615302D01*
X95827264Y-86304233D01*
X95278113Y-86195000D01*
X95221887Y-86195000D01*
X94672736Y-86304233D01*
X94207189Y-86615302D01*
X93896120Y-87080849D01*
X93786887Y-87630000D01*
X70710000Y-87630000D01*
X70710000Y-82814383D01*
X96454769Y-82814383D01*
X96657582Y-83305229D01*
X97032796Y-83681098D01*
X97523287Y-83884768D01*
X98054383Y-83885231D01*
X98545229Y-83682418D01*
X98921098Y-83307204D01*
X99124768Y-82816713D01*
X99125000Y-82550000D01*
X101508846Y-82550000D01*
X101610467Y-83060882D01*
X101899858Y-83493988D01*
X102332964Y-83783379D01*
X102843846Y-83885000D01*
X102896154Y-83885000D01*
X103407036Y-83783379D01*
X103840142Y-83493988D01*
X104129533Y-83060882D01*
X104174625Y-82834187D01*
X106554752Y-82834187D01*
X106772757Y-83361800D01*
X107176077Y-83765824D01*
X107703309Y-83984750D01*
X108274187Y-83985248D01*
X108801800Y-83767243D01*
X109011663Y-83557745D01*
X109661861Y-83557745D01*
X109735995Y-83803864D01*
X110273223Y-83996965D01*
X110843454Y-83969778D01*
X111244005Y-83803864D01*
X111318139Y-83557745D01*
X110490000Y-82729605D01*
X109661861Y-83557745D01*
X109011663Y-83557745D01*
X109205824Y-83363923D01*
X109233423Y-83297456D01*
X109236136Y-83304005D01*
X109482255Y-83378139D01*
X110310395Y-82550000D01*
X110669605Y-82550000D01*
X111497745Y-83378139D01*
X111743864Y-83304005D01*
X111936965Y-82766777D01*
X111909778Y-82196546D01*
X111743864Y-81795995D01*
X111497745Y-81721861D01*
X110669605Y-82550000D01*
X110310395Y-82550000D01*
X109482255Y-81721861D01*
X109236136Y-81795995D01*
X109233804Y-81802483D01*
X109207243Y-81738200D01*
X109011640Y-81542255D01*
X109661861Y-81542255D01*
X110490000Y-82370395D01*
X111318139Y-81542255D01*
X111244005Y-81296136D01*
X110706777Y-81103035D01*
X110136546Y-81130222D01*
X109735995Y-81296136D01*
X109661861Y-81542255D01*
X109011640Y-81542255D01*
X108803923Y-81334176D01*
X108276691Y-81115250D01*
X107705813Y-81114752D01*
X107178200Y-81332757D01*
X106774176Y-81736077D01*
X106555250Y-82263309D01*
X106554752Y-82834187D01*
X104174625Y-82834187D01*
X104231154Y-82550000D01*
X104129533Y-82039118D01*
X103840142Y-81606012D01*
X103407036Y-81316621D01*
X102896154Y-81215000D01*
X102843846Y-81215000D01*
X102332964Y-81316621D01*
X101899858Y-81606012D01*
X101610467Y-82039118D01*
X101508846Y-82550000D01*
X99125000Y-82550000D01*
X99125231Y-82285617D01*
X98922418Y-81794771D01*
X98547204Y-81418902D01*
X98056713Y-81215232D01*
X97525617Y-81214769D01*
X97034771Y-81417582D01*
X96658902Y-81792796D01*
X96455232Y-82283287D01*
X96454769Y-82814383D01*
X70710000Y-82814383D01*
X70710000Y-79004383D01*
X96454769Y-79004383D01*
X96657582Y-79495229D01*
X97032796Y-79871098D01*
X97523287Y-80074768D01*
X98054383Y-80075231D01*
X98545229Y-79872418D01*
X98921098Y-79497204D01*
X99124768Y-79006713D01*
X99125000Y-78740000D01*
X101508846Y-78740000D01*
X101610467Y-79250882D01*
X101899858Y-79683988D01*
X102332964Y-79973379D01*
X102843846Y-80075000D01*
X102896154Y-80075000D01*
X103407036Y-79973379D01*
X103840142Y-79683988D01*
X104129533Y-79250882D01*
X104231154Y-78740000D01*
X104129533Y-78229118D01*
X103840142Y-77796012D01*
X103407036Y-77506621D01*
X102896154Y-77405000D01*
X102843846Y-77405000D01*
X102332964Y-77506621D01*
X101899858Y-77796012D01*
X101610467Y-78229118D01*
X101508846Y-78740000D01*
X99125000Y-78740000D01*
X99125231Y-78475617D01*
X98922418Y-77984771D01*
X98547204Y-77608902D01*
X98056713Y-77405232D01*
X97525617Y-77404769D01*
X97034771Y-77607582D01*
X96658902Y-77982796D01*
X96455232Y-78473287D01*
X96454769Y-79004383D01*
X70710000Y-79004383D01*
X70710000Y-75422815D01*
X72864630Y-75422815D01*
X73188980Y-76207800D01*
X73789041Y-76808909D01*
X74573459Y-77134628D01*
X75422815Y-77135370D01*
X76207800Y-76811020D01*
X76808909Y-76210959D01*
X77134628Y-75426541D01*
X77134631Y-75422815D01*
X112864630Y-75422815D01*
X113188980Y-76207800D01*
X113789041Y-76808909D01*
X114573459Y-77134628D01*
X115422815Y-77135370D01*
X116207800Y-76811020D01*
X116808909Y-76210959D01*
X117134628Y-75426541D01*
X117135370Y-74577185D01*
X116811020Y-73792200D01*
X116210959Y-73191091D01*
X115426541Y-72865372D01*
X114577185Y-72864630D01*
X113792200Y-73188980D01*
X113191091Y-73789041D01*
X112865372Y-74573459D01*
X112864630Y-75422815D01*
X77134631Y-75422815D01*
X77135370Y-74577185D01*
X76811020Y-73792200D01*
X76210959Y-73191091D01*
X75426541Y-72865372D01*
X74577185Y-72864630D01*
X73792200Y-73188980D01*
X73191091Y-73789041D01*
X72865372Y-74573459D01*
X72864630Y-75422815D01*
X70710000Y-75422815D01*
X70710000Y-70710000D01*
X119290000Y-70710000D01*
X119290000Y-154290000D01*
X119290000Y-154290000D01*
G37*
X119290000Y-154290000D02*
X70710000Y-154290000D01*
X70710000Y-150422815D01*
X72864630Y-150422815D01*
X73188980Y-151207800D01*
X73789041Y-151808909D01*
X74573459Y-152134628D01*
X75422815Y-152135370D01*
X76207800Y-151811020D01*
X76808909Y-151210959D01*
X77134628Y-150426541D01*
X77134631Y-150422815D01*
X112864630Y-150422815D01*
X113188980Y-151207800D01*
X113789041Y-151808909D01*
X114573459Y-152134628D01*
X115422815Y-152135370D01*
X116207800Y-151811020D01*
X116808909Y-151210959D01*
X117134628Y-150426541D01*
X117135370Y-149577185D01*
X116811020Y-148792200D01*
X116210959Y-148191091D01*
X115426541Y-147865372D01*
X114577185Y-147864630D01*
X113792200Y-148188980D01*
X113191091Y-148789041D01*
X112865372Y-149573459D01*
X112864630Y-150422815D01*
X77134631Y-150422815D01*
X77135370Y-149577185D01*
X76811020Y-148792200D01*
X76210959Y-148191091D01*
X75426541Y-147865372D01*
X74577185Y-147864630D01*
X73792200Y-148188980D01*
X73191091Y-148789041D01*
X72865372Y-149573459D01*
X72864630Y-150422815D01*
X70710000Y-150422815D01*
X70710000Y-143247745D01*
X94421861Y-143247745D01*
X94495995Y-143493864D01*
X95033223Y-143686965D01*
X95603454Y-143659778D01*
X96004005Y-143493864D01*
X96078139Y-143247745D01*
X95250000Y-142419605D01*
X94421861Y-143247745D01*
X70710000Y-143247745D01*
X70710000Y-142023223D01*
X93803035Y-142023223D01*
X93830222Y-142593454D01*
X93996136Y-142994005D01*
X94242255Y-143068139D01*
X95070395Y-142240000D01*
X95429605Y-142240000D01*
X96257745Y-143068139D01*
X96503864Y-142994005D01*
X96506196Y-142987517D01*
X96532757Y-143051800D01*
X96936077Y-143455824D01*
X97463309Y-143674750D01*
X98034187Y-143675248D01*
X98561800Y-143457243D01*
X98965824Y-143053923D01*
X99184750Y-142526691D01*
X99185000Y-142240000D01*
X101508846Y-142240000D01*
X101610467Y-142750882D01*
X101899858Y-143183988D01*
X102332964Y-143473379D01*
X102843846Y-143575000D01*
X102896154Y-143575000D01*
X103407036Y-143473379D01*
X103840142Y-143183988D01*
X104129533Y-142750882D01*
X104178564Y-142504383D01*
X106614769Y-142504383D01*
X106817582Y-142995229D01*
X107192796Y-143371098D01*
X107683287Y-143574768D01*
X108214383Y-143575231D01*
X108705229Y-143372418D01*
X109081098Y-142997204D01*
X109284768Y-142506713D01*
X109285231Y-141975617D01*
X109082418Y-141484771D01*
X108707204Y-141108902D01*
X108216713Y-140905232D01*
X107685617Y-140904769D01*
X107194771Y-141107582D01*
X106818902Y-141482796D01*
X106615232Y-141973287D01*
X106614769Y-142504383D01*
X104178564Y-142504383D01*
X104231154Y-142240000D01*
X104129533Y-141729118D01*
X103840142Y-141296012D01*
X103407036Y-141006621D01*
X102896154Y-140905000D01*
X102843846Y-140905000D01*
X102332964Y-141006621D01*
X101899858Y-141296012D01*
X101610467Y-141729118D01*
X101508846Y-142240000D01*
X99185000Y-142240000D01*
X99185248Y-141955813D01*
X98967243Y-141428200D01*
X98563923Y-141024176D01*
X98036691Y-140805250D01*
X97465813Y-140804752D01*
X96938200Y-141022757D01*
X96534176Y-141426077D01*
X96506577Y-141492544D01*
X96503864Y-141485995D01*
X96257745Y-141411861D01*
X95429605Y-142240000D01*
X95070395Y-142240000D01*
X94242255Y-141411861D01*
X93996136Y-141485995D01*
X93803035Y-142023223D01*
X70710000Y-142023223D01*
X70710000Y-141232255D01*
X94421861Y-141232255D01*
X95250000Y-142060395D01*
X96078139Y-141232255D01*
X96004005Y-140986136D01*
X95466777Y-140793035D01*
X94896546Y-140820222D01*
X94495995Y-140986136D01*
X94421861Y-141232255D01*
X70710000Y-141232255D01*
X70710000Y-138430000D01*
X101508846Y-138430000D01*
X101610467Y-138940882D01*
X101899858Y-139373988D01*
X102332964Y-139663379D01*
X102843846Y-139765000D01*
X102896154Y-139765000D01*
X103407036Y-139663379D01*
X103840142Y-139373988D01*
X104129533Y-138940882D01*
X104178564Y-138694383D01*
X106614769Y-138694383D01*
X106817582Y-139185229D01*
X107192796Y-139561098D01*
X107683287Y-139764768D01*
X108214383Y-139765231D01*
X108705229Y-139562418D01*
X109081098Y-139187204D01*
X109284768Y-138696713D01*
X109285231Y-138165617D01*
X109082418Y-137674771D01*
X108707204Y-137298902D01*
X108216713Y-137095232D01*
X107685617Y-137094769D01*
X107194771Y-137297582D01*
X106818902Y-137672796D01*
X106615232Y-138163287D01*
X106614769Y-138694383D01*
X104178564Y-138694383D01*
X104231154Y-138430000D01*
X104129533Y-137919118D01*
X103840142Y-137486012D01*
X103407036Y-137196621D01*
X102896154Y-137095000D01*
X102843846Y-137095000D01*
X102332964Y-137196621D01*
X101899858Y-137486012D01*
X101610467Y-137919118D01*
X101508846Y-138430000D01*
X70710000Y-138430000D01*
X70710000Y-132450000D01*
X82272560Y-132450000D01*
X82272560Y-134250000D01*
X82316838Y-134485317D01*
X82455910Y-134701441D01*
X82668110Y-134846431D01*
X82920000Y-134897440D01*
X84720000Y-134897440D01*
X84955317Y-134853162D01*
X85171441Y-134714090D01*
X85316431Y-134501890D01*
X85367440Y-134250000D01*
X85367440Y-132550000D01*
X101422560Y-132550000D01*
X101422560Y-134150000D01*
X101466838Y-134385317D01*
X101605910Y-134601441D01*
X101818110Y-134746431D01*
X102070000Y-134797440D01*
X103670000Y-134797440D01*
X103905317Y-134753162D01*
X104121441Y-134614090D01*
X104266431Y-134401890D01*
X104317440Y-134150000D01*
X104317440Y-133350000D01*
X109026887Y-133350000D01*
X109136120Y-133899151D01*
X109447189Y-134364698D01*
X109912736Y-134675767D01*
X110461887Y-134785000D01*
X110518113Y-134785000D01*
X111067264Y-134675767D01*
X111532811Y-134364698D01*
X111843880Y-133899151D01*
X111953113Y-133350000D01*
X111843880Y-132800849D01*
X111532811Y-132335302D01*
X111067264Y-132024233D01*
X110518113Y-131915000D01*
X110461887Y-131915000D01*
X109912736Y-132024233D01*
X109447189Y-132335302D01*
X109136120Y-132800849D01*
X109026887Y-133350000D01*
X104317440Y-133350000D01*
X104317440Y-132550000D01*
X104273162Y-132314683D01*
X104134090Y-132098559D01*
X103921890Y-131953569D01*
X103670000Y-131902560D01*
X102070000Y-131902560D01*
X101834683Y-131946838D01*
X101618559Y-132085910D01*
X101473569Y-132298110D01*
X101422560Y-132550000D01*
X85367440Y-132550000D01*
X85367440Y-132450000D01*
X85323162Y-132214683D01*
X85184090Y-131998559D01*
X84971890Y-131853569D01*
X84951466Y-131849433D01*
X85120551Y-131680643D01*
X85354733Y-131116670D01*
X85355265Y-130506009D01*
X85122068Y-129941629D01*
X84690643Y-129509449D01*
X84669806Y-129500797D01*
X84720554Y-129350159D01*
X83820000Y-128449605D01*
X82919446Y-129350159D01*
X82970035Y-129500327D01*
X82951629Y-129507932D01*
X82519449Y-129939357D01*
X82285267Y-130503330D01*
X82284735Y-131113991D01*
X82517932Y-131678371D01*
X82685880Y-131846613D01*
X82684683Y-131846838D01*
X82468559Y-131985910D01*
X82323569Y-132198110D01*
X82272560Y-132450000D01*
X70710000Y-132450000D01*
X70710000Y-128029336D01*
X82273542Y-128029336D01*
X82299161Y-128639460D01*
X82483357Y-129084148D01*
X82739841Y-129170554D01*
X83640395Y-128270000D01*
X83999605Y-128270000D01*
X84900159Y-129170554D01*
X85156643Y-129084148D01*
X85366458Y-128510664D01*
X85356353Y-128270000D01*
X101508846Y-128270000D01*
X101610467Y-128780882D01*
X101899858Y-129213988D01*
X102332964Y-129503379D01*
X102843846Y-129605000D01*
X102896154Y-129605000D01*
X103407036Y-129503379D01*
X103840142Y-129213988D01*
X104129533Y-128780882D01*
X104178564Y-128534383D01*
X106614769Y-128534383D01*
X106817582Y-129025229D01*
X107192796Y-129401098D01*
X107683287Y-129604768D01*
X108214383Y-129605231D01*
X108705229Y-129402418D01*
X109081098Y-129027204D01*
X109284768Y-128536713D01*
X109285231Y-128005617D01*
X109082418Y-127514771D01*
X108707204Y-127138902D01*
X108216713Y-126935232D01*
X107685617Y-126934769D01*
X107194771Y-127137582D01*
X106818902Y-127512796D01*
X106615232Y-128003287D01*
X106614769Y-128534383D01*
X104178564Y-128534383D01*
X104231154Y-128270000D01*
X104129533Y-127759118D01*
X103840142Y-127326012D01*
X103407036Y-127036621D01*
X102896154Y-126935000D01*
X102843846Y-126935000D01*
X102332964Y-127036621D01*
X101899858Y-127326012D01*
X101610467Y-127759118D01*
X101508846Y-128270000D01*
X85356353Y-128270000D01*
X85340839Y-127900540D01*
X85156643Y-127455852D01*
X84900159Y-127369446D01*
X83999605Y-128270000D01*
X83640395Y-128270000D01*
X82739841Y-127369446D01*
X82483357Y-127455852D01*
X82273542Y-128029336D01*
X70710000Y-128029336D01*
X70710000Y-127189841D01*
X82919446Y-127189841D01*
X83820000Y-128090395D01*
X84720554Y-127189841D01*
X84634148Y-126933357D01*
X84060664Y-126723542D01*
X83450540Y-126749161D01*
X83005852Y-126933357D01*
X82919446Y-127189841D01*
X70710000Y-127189841D01*
X70710000Y-123474187D01*
X92584752Y-123474187D01*
X92802757Y-124001800D01*
X93206077Y-124405824D01*
X93733309Y-124624750D01*
X94304187Y-124625248D01*
X94831800Y-124407243D01*
X95235824Y-124003923D01*
X95269813Y-123922069D01*
X95302757Y-124001800D01*
X95706077Y-124405824D01*
X96233309Y-124624750D01*
X96804187Y-124625248D01*
X97331800Y-124407243D01*
X97735824Y-124003923D01*
X97954750Y-123476691D01*
X97955248Y-122905813D01*
X97737243Y-122378200D01*
X97333923Y-121974176D01*
X96806691Y-121755250D01*
X96235813Y-121754752D01*
X95708200Y-121972757D01*
X95304176Y-122376077D01*
X95270187Y-122457931D01*
X95237243Y-122378200D01*
X94833923Y-121974176D01*
X94306691Y-121755250D01*
X93735813Y-121754752D01*
X93208200Y-121972757D01*
X92804176Y-122376077D01*
X92585250Y-122903309D01*
X92584752Y-123474187D01*
X70710000Y-123474187D01*
X70710000Y-120150000D01*
X101722560Y-120150000D01*
X101722560Y-121150000D01*
X101766838Y-121385317D01*
X101905910Y-121601441D01*
X102118110Y-121746431D01*
X102370000Y-121797440D01*
X103005106Y-121797440D01*
X103004881Y-122055117D01*
X102645225Y-122054803D01*
X102227914Y-122227233D01*
X101908355Y-122546235D01*
X101735197Y-122963244D01*
X101734803Y-123414775D01*
X101907233Y-123832086D01*
X102226235Y-124151645D01*
X102643244Y-124324803D01*
X103094775Y-124325197D01*
X103512086Y-124152767D01*
X103831645Y-123833765D01*
X104004803Y-123416756D01*
X104005119Y-123054883D01*
X104364775Y-123055197D01*
X104782086Y-122882767D01*
X105101645Y-122563765D01*
X105250955Y-122204187D01*
X106554752Y-122204187D01*
X106772757Y-122731800D01*
X107176077Y-123135824D01*
X107703309Y-123354750D01*
X108274187Y-123355248D01*
X108801800Y-123137243D01*
X109205824Y-122733923D01*
X109239813Y-122652069D01*
X109272757Y-122731800D01*
X109676077Y-123135824D01*
X110203309Y-123354750D01*
X110774187Y-123355248D01*
X111301800Y-123137243D01*
X111705824Y-122733923D01*
X111924750Y-122206691D01*
X111925248Y-121635813D01*
X111707243Y-121108200D01*
X111303923Y-120704176D01*
X110776691Y-120485250D01*
X110205813Y-120484752D01*
X109678200Y-120702757D01*
X109274176Y-121106077D01*
X109240187Y-121187931D01*
X109207243Y-121108200D01*
X108803923Y-120704176D01*
X108276691Y-120485250D01*
X107705813Y-120484752D01*
X107178200Y-120702757D01*
X106774176Y-121106077D01*
X106555250Y-121633309D01*
X106554752Y-122204187D01*
X105250955Y-122204187D01*
X105274803Y-122146756D01*
X105275197Y-121695225D01*
X105102767Y-121277914D01*
X104783765Y-120958355D01*
X104366756Y-120785197D01*
X104017440Y-120784892D01*
X104017440Y-120150000D01*
X103973162Y-119914683D01*
X103834090Y-119698559D01*
X103621890Y-119553569D01*
X103370000Y-119502560D01*
X102370000Y-119502560D01*
X102134683Y-119546838D01*
X101918559Y-119685910D01*
X101773569Y-119898110D01*
X101722560Y-120150000D01*
X70710000Y-120150000D01*
X70710000Y-116840000D01*
X106588846Y-116840000D01*
X106690467Y-117350882D01*
X106979858Y-117783988D01*
X107412964Y-118073379D01*
X107923846Y-118175000D01*
X107976154Y-118175000D01*
X108487036Y-118073379D01*
X108920142Y-117783988D01*
X108925963Y-117775275D01*
X112274331Y-117775275D01*
X112336169Y-118011042D01*
X112837122Y-118187419D01*
X113367440Y-118158664D01*
X113723831Y-118011042D01*
X113785669Y-117775275D01*
X113030000Y-117019605D01*
X112274331Y-117775275D01*
X108925963Y-117775275D01*
X109209533Y-117350882D01*
X109311154Y-116840000D01*
X109272789Y-116647122D01*
X111682581Y-116647122D01*
X111711336Y-117177440D01*
X111858958Y-117533831D01*
X112094725Y-117595669D01*
X112850395Y-116840000D01*
X113209605Y-116840000D01*
X113965275Y-117595669D01*
X114201042Y-117533831D01*
X114377419Y-117032878D01*
X114348664Y-116502560D01*
X114201042Y-116146169D01*
X113965275Y-116084331D01*
X113209605Y-116840000D01*
X112850395Y-116840000D01*
X112094725Y-116084331D01*
X111858958Y-116146169D01*
X111682581Y-116647122D01*
X109272789Y-116647122D01*
X109209533Y-116329118D01*
X108925964Y-115904725D01*
X112274331Y-115904725D01*
X113030000Y-116660395D01*
X113785669Y-115904725D01*
X113723831Y-115668958D01*
X113222878Y-115492581D01*
X112692560Y-115521336D01*
X112336169Y-115668958D01*
X112274331Y-115904725D01*
X108925964Y-115904725D01*
X108920142Y-115896012D01*
X108487036Y-115606621D01*
X107976154Y-115505000D01*
X107923846Y-115505000D01*
X107412964Y-115606621D01*
X106979858Y-115896012D01*
X106690467Y-116329118D01*
X106588846Y-116840000D01*
X70710000Y-116840000D01*
X70710000Y-113965275D01*
X90684331Y-113965275D01*
X90746169Y-114201042D01*
X91247122Y-114377419D01*
X91777440Y-114348664D01*
X92133831Y-114201042D01*
X92195669Y-113965275D01*
X91440000Y-113209605D01*
X90684331Y-113965275D01*
X70710000Y-113965275D01*
X70710000Y-112840159D01*
X86729446Y-112840159D01*
X86815852Y-113096643D01*
X87389336Y-113306458D01*
X87999460Y-113280839D01*
X88444148Y-113096643D01*
X88530554Y-112840159D01*
X88527517Y-112837122D01*
X90092581Y-112837122D01*
X90121336Y-113367440D01*
X90268958Y-113723831D01*
X90504725Y-113785669D01*
X91260395Y-113030000D01*
X91619605Y-113030000D01*
X92375275Y-113785669D01*
X92611042Y-113723831D01*
X92787419Y-113222878D01*
X92776961Y-113030000D01*
X95158846Y-113030000D01*
X95260467Y-113540882D01*
X95549858Y-113973988D01*
X95982964Y-114263379D01*
X96493846Y-114365000D01*
X96546154Y-114365000D01*
X97057036Y-114263379D01*
X97490142Y-113973988D01*
X97779533Y-113540882D01*
X97824625Y-113314187D01*
X101474752Y-113314187D01*
X101692757Y-113841800D01*
X102096077Y-114245824D01*
X102623309Y-114464750D01*
X103194187Y-114465248D01*
X103721800Y-114247243D01*
X104125824Y-113843923D01*
X104159813Y-113762069D01*
X104192757Y-113841800D01*
X104596077Y-114245824D01*
X105123309Y-114464750D01*
X105694187Y-114465248D01*
X106221800Y-114247243D01*
X106625824Y-113843923D01*
X106728205Y-113597362D01*
X106979858Y-113973988D01*
X107412964Y-114263379D01*
X107923846Y-114365000D01*
X107976154Y-114365000D01*
X108487036Y-114263379D01*
X108920142Y-113973988D01*
X108925963Y-113965275D01*
X112274331Y-113965275D01*
X112336169Y-114201042D01*
X112837122Y-114377419D01*
X113367440Y-114348664D01*
X113723831Y-114201042D01*
X113785669Y-113965275D01*
X113030000Y-113209605D01*
X112274331Y-113965275D01*
X108925963Y-113965275D01*
X109209533Y-113540882D01*
X109311154Y-113030000D01*
X109272789Y-112837122D01*
X111682581Y-112837122D01*
X111711336Y-113367440D01*
X111858958Y-113723831D01*
X112094725Y-113785669D01*
X112850395Y-113030000D01*
X113209605Y-113030000D01*
X113965275Y-113785669D01*
X114201042Y-113723831D01*
X114377419Y-113222878D01*
X114356668Y-112840159D01*
X115939446Y-112840159D01*
X116025852Y-113096643D01*
X116599336Y-113306458D01*
X117209460Y-113280839D01*
X117654148Y-113096643D01*
X117740554Y-112840159D01*
X116840000Y-111939605D01*
X115939446Y-112840159D01*
X114356668Y-112840159D01*
X114348664Y-112692560D01*
X114201042Y-112336169D01*
X113965275Y-112274331D01*
X113209605Y-113030000D01*
X112850395Y-113030000D01*
X112094725Y-112274331D01*
X111858958Y-112336169D01*
X111682581Y-112837122D01*
X109272789Y-112837122D01*
X109209533Y-112519118D01*
X108925964Y-112094725D01*
X112274331Y-112094725D01*
X113030000Y-112850395D01*
X113785669Y-112094725D01*
X113723831Y-111858958D01*
X113222878Y-111682581D01*
X112692560Y-111711336D01*
X112336169Y-111858958D01*
X112274331Y-112094725D01*
X108925964Y-112094725D01*
X108920142Y-112086012D01*
X108487036Y-111796621D01*
X107976154Y-111695000D01*
X107923846Y-111695000D01*
X107412964Y-111796621D01*
X106979858Y-112086012D01*
X106728228Y-112462604D01*
X106627243Y-112218200D01*
X106223923Y-111814176D01*
X105696691Y-111595250D01*
X105125813Y-111594752D01*
X104598200Y-111812757D01*
X104194176Y-112216077D01*
X104160187Y-112297931D01*
X104127243Y-112218200D01*
X103723923Y-111814176D01*
X103196691Y-111595250D01*
X102625813Y-111594752D01*
X102098200Y-111812757D01*
X101694176Y-112216077D01*
X101475250Y-112743309D01*
X101474752Y-113314187D01*
X97824625Y-113314187D01*
X97881154Y-113030000D01*
X97779533Y-112519118D01*
X97490142Y-112086012D01*
X97057036Y-111796621D01*
X96546154Y-111695000D01*
X96493846Y-111695000D01*
X95982964Y-111796621D01*
X95549858Y-112086012D01*
X95260467Y-112519118D01*
X95158846Y-113030000D01*
X92776961Y-113030000D01*
X92758664Y-112692560D01*
X92611042Y-112336169D01*
X92375275Y-112274331D01*
X91619605Y-113030000D01*
X91260395Y-113030000D01*
X90504725Y-112274331D01*
X90268958Y-112336169D01*
X90092581Y-112837122D01*
X88527517Y-112837122D01*
X87630000Y-111939605D01*
X86729446Y-112840159D01*
X70710000Y-112840159D01*
X70710000Y-108320000D01*
X86082560Y-108320000D01*
X86082560Y-110120000D01*
X86126838Y-110355317D01*
X86265910Y-110571441D01*
X86469574Y-110710598D01*
X86435282Y-110744890D01*
X86549839Y-110859447D01*
X86293357Y-110945852D01*
X86083542Y-111519336D01*
X86109161Y-112129460D01*
X86293357Y-112574148D01*
X86549841Y-112660554D01*
X87450395Y-111760000D01*
X87436253Y-111745858D01*
X87615858Y-111566253D01*
X87630000Y-111580395D01*
X87644143Y-111566253D01*
X87823748Y-111745858D01*
X87809605Y-111760000D01*
X88710159Y-112660554D01*
X88966643Y-112574148D01*
X89142044Y-112094725D01*
X90684331Y-112094725D01*
X91440000Y-112850395D01*
X92195669Y-112094725D01*
X92133831Y-111858958D01*
X91632878Y-111682581D01*
X91102560Y-111711336D01*
X90746169Y-111858958D01*
X90684331Y-112094725D01*
X89142044Y-112094725D01*
X89176458Y-112000664D01*
X89150839Y-111390540D01*
X88966643Y-110945852D01*
X88710161Y-110859447D01*
X88824718Y-110744890D01*
X88788240Y-110708412D01*
X88981441Y-110584090D01*
X89126431Y-110371890D01*
X89177440Y-110120000D01*
X89177440Y-108320000D01*
X115292560Y-108320000D01*
X115292560Y-110120000D01*
X115336838Y-110355317D01*
X115475910Y-110571441D01*
X115679574Y-110710598D01*
X115645282Y-110744890D01*
X115759839Y-110859447D01*
X115503357Y-110945852D01*
X115293542Y-111519336D01*
X115319161Y-112129460D01*
X115503357Y-112574148D01*
X115759841Y-112660554D01*
X116660395Y-111760000D01*
X116646253Y-111745858D01*
X116825858Y-111566253D01*
X116840000Y-111580395D01*
X116854143Y-111566253D01*
X117033748Y-111745858D01*
X117019605Y-111760000D01*
X117920159Y-112660554D01*
X118176643Y-112574148D01*
X118386458Y-112000664D01*
X118360839Y-111390540D01*
X118176643Y-110945852D01*
X117920161Y-110859447D01*
X118034718Y-110744890D01*
X117998240Y-110708412D01*
X118191441Y-110584090D01*
X118336431Y-110371890D01*
X118387440Y-110120000D01*
X118387440Y-108320000D01*
X118343162Y-108084683D01*
X118204090Y-107868559D01*
X117991890Y-107723569D01*
X117740000Y-107672560D01*
X115940000Y-107672560D01*
X115704683Y-107716838D01*
X115488559Y-107855910D01*
X115343569Y-108068110D01*
X115292560Y-108320000D01*
X89177440Y-108320000D01*
X89133162Y-108084683D01*
X88994090Y-107868559D01*
X88781890Y-107723569D01*
X88530000Y-107672560D01*
X86730000Y-107672560D01*
X86494683Y-107716838D01*
X86278559Y-107855910D01*
X86133569Y-108068110D01*
X86082560Y-108320000D01*
X70710000Y-108320000D01*
X70710000Y-107615275D01*
X90684331Y-107615275D01*
X90746169Y-107851042D01*
X91247122Y-108027419D01*
X91777440Y-107998664D01*
X92133831Y-107851042D01*
X92195669Y-107615275D01*
X91440000Y-106859605D01*
X90684331Y-107615275D01*
X70710000Y-107615275D01*
X70710000Y-106487122D01*
X90092581Y-106487122D01*
X90121336Y-107017440D01*
X90268958Y-107373831D01*
X90504725Y-107435669D01*
X91260395Y-106680000D01*
X91619605Y-106680000D01*
X92375275Y-107435669D01*
X92611042Y-107373831D01*
X92787419Y-106872878D01*
X92776961Y-106680000D01*
X95158846Y-106680000D01*
X95260467Y-107190882D01*
X95549858Y-107623988D01*
X95982964Y-107913379D01*
X96493846Y-108015000D01*
X96546154Y-108015000D01*
X97057036Y-107913379D01*
X97490142Y-107623988D01*
X97779533Y-107190882D01*
X97824625Y-106964187D01*
X98934752Y-106964187D01*
X99152757Y-107491800D01*
X99556077Y-107895824D01*
X100083309Y-108114750D01*
X100654187Y-108115248D01*
X101181800Y-107897243D01*
X101585824Y-107493923D01*
X101619813Y-107412069D01*
X101652757Y-107491800D01*
X102056077Y-107895824D01*
X102583309Y-108114750D01*
X103154187Y-108115248D01*
X103681800Y-107897243D01*
X104085824Y-107493923D01*
X104304750Y-106966691D01*
X104305000Y-106680000D01*
X106588846Y-106680000D01*
X106690467Y-107190882D01*
X106979858Y-107623988D01*
X107412964Y-107913379D01*
X107923846Y-108015000D01*
X107976154Y-108015000D01*
X108487036Y-107913379D01*
X108920142Y-107623988D01*
X108925963Y-107615275D01*
X112274331Y-107615275D01*
X112336169Y-107851042D01*
X112837122Y-108027419D01*
X113367440Y-107998664D01*
X113723831Y-107851042D01*
X113785669Y-107615275D01*
X113030000Y-106859605D01*
X112274331Y-107615275D01*
X108925963Y-107615275D01*
X109209533Y-107190882D01*
X109311154Y-106680000D01*
X109272789Y-106487122D01*
X111682581Y-106487122D01*
X111711336Y-107017440D01*
X111858958Y-107373831D01*
X112094725Y-107435669D01*
X112850395Y-106680000D01*
X113209605Y-106680000D01*
X113965275Y-107435669D01*
X114201042Y-107373831D01*
X114377419Y-106872878D01*
X114348664Y-106342560D01*
X114201042Y-105986169D01*
X113965275Y-105924331D01*
X113209605Y-106680000D01*
X112850395Y-106680000D01*
X112094725Y-105924331D01*
X111858958Y-105986169D01*
X111682581Y-106487122D01*
X109272789Y-106487122D01*
X109209533Y-106169118D01*
X108925964Y-105744725D01*
X112274331Y-105744725D01*
X113030000Y-106500395D01*
X113785669Y-105744725D01*
X113723831Y-105508958D01*
X113222878Y-105332581D01*
X112692560Y-105361336D01*
X112336169Y-105508958D01*
X112274331Y-105744725D01*
X108925964Y-105744725D01*
X108920142Y-105736012D01*
X108487036Y-105446621D01*
X107976154Y-105345000D01*
X107923846Y-105345000D01*
X107412964Y-105446621D01*
X106979858Y-105736012D01*
X106690467Y-106169118D01*
X106588846Y-106680000D01*
X104305000Y-106680000D01*
X104305248Y-106395813D01*
X104087243Y-105868200D01*
X103683923Y-105464176D01*
X103156691Y-105245250D01*
X102585813Y-105244752D01*
X102058200Y-105462757D01*
X101654176Y-105866077D01*
X101620187Y-105947931D01*
X101587243Y-105868200D01*
X101183923Y-105464176D01*
X100656691Y-105245250D01*
X100085813Y-105244752D01*
X99558200Y-105462757D01*
X99154176Y-105866077D01*
X98935250Y-106393309D01*
X98934752Y-106964187D01*
X97824625Y-106964187D01*
X97881154Y-106680000D01*
X97779533Y-106169118D01*
X97490142Y-105736012D01*
X97057036Y-105446621D01*
X96546154Y-105345000D01*
X96493846Y-105345000D01*
X95982964Y-105446621D01*
X95549858Y-105736012D01*
X95260467Y-106169118D01*
X95158846Y-106680000D01*
X92776961Y-106680000D01*
X92758664Y-106342560D01*
X92611042Y-105986169D01*
X92375275Y-105924331D01*
X91619605Y-106680000D01*
X91260395Y-106680000D01*
X90504725Y-105924331D01*
X90268958Y-105986169D01*
X90092581Y-106487122D01*
X70710000Y-106487122D01*
X70710000Y-105744725D01*
X90684331Y-105744725D01*
X91440000Y-106500395D01*
X92195669Y-105744725D01*
X92133831Y-105508958D01*
X91632878Y-105332581D01*
X91102560Y-105361336D01*
X90746169Y-105508958D01*
X90684331Y-105744725D01*
X70710000Y-105744725D01*
X70710000Y-103805275D01*
X90684331Y-103805275D01*
X90746169Y-104041042D01*
X91247122Y-104217419D01*
X91777440Y-104188664D01*
X92133831Y-104041042D01*
X92195669Y-103805275D01*
X91440000Y-103049605D01*
X90684331Y-103805275D01*
X70710000Y-103805275D01*
X70710000Y-102677122D01*
X90092581Y-102677122D01*
X90121336Y-103207440D01*
X90268958Y-103563831D01*
X90504725Y-103625669D01*
X91260395Y-102870000D01*
X91619605Y-102870000D01*
X92375275Y-103625669D01*
X92611042Y-103563831D01*
X92787419Y-103062878D01*
X92776961Y-102870000D01*
X95158846Y-102870000D01*
X95260467Y-103380882D01*
X95549858Y-103813988D01*
X95982964Y-104103379D01*
X96493846Y-104205000D01*
X96546154Y-104205000D01*
X97057036Y-104103379D01*
X97490142Y-103813988D01*
X97779533Y-103380882D01*
X97881154Y-102870000D01*
X97779533Y-102359118D01*
X97490142Y-101926012D01*
X97057036Y-101636621D01*
X96546154Y-101535000D01*
X96493846Y-101535000D01*
X95982964Y-101636621D01*
X95549858Y-101926012D01*
X95260467Y-102359118D01*
X95158846Y-102870000D01*
X92776961Y-102870000D01*
X92758664Y-102532560D01*
X92611042Y-102176169D01*
X92375275Y-102114331D01*
X91619605Y-102870000D01*
X91260395Y-102870000D01*
X90504725Y-102114331D01*
X90268958Y-102176169D01*
X90092581Y-102677122D01*
X70710000Y-102677122D01*
X70710000Y-101934725D01*
X90684331Y-101934725D01*
X91440000Y-102690395D01*
X92195669Y-101934725D01*
X92133831Y-101698958D01*
X91632878Y-101522581D01*
X91102560Y-101551336D01*
X90746169Y-101698958D01*
X90684331Y-101934725D01*
X70710000Y-101934725D01*
X70710000Y-99344187D01*
X92584752Y-99344187D01*
X92802757Y-99871800D01*
X93206077Y-100275824D01*
X93733309Y-100494750D01*
X94304187Y-100495248D01*
X94831800Y-100277243D01*
X95235824Y-99873923D01*
X95269813Y-99792069D01*
X95302757Y-99871800D01*
X95706077Y-100275824D01*
X96233309Y-100494750D01*
X96804187Y-100495248D01*
X97331800Y-100277243D01*
X97735824Y-99873923D01*
X97954750Y-99346691D01*
X97954804Y-99284775D01*
X100464803Y-99284775D01*
X100637233Y-99702086D01*
X100956235Y-100021645D01*
X101373244Y-100194803D01*
X101722560Y-100195108D01*
X101722560Y-100830000D01*
X101766838Y-101065317D01*
X101905910Y-101281441D01*
X102118110Y-101426431D01*
X102370000Y-101477440D01*
X103370000Y-101477440D01*
X103605317Y-101433162D01*
X103821441Y-101294090D01*
X103966431Y-101081890D01*
X104017440Y-100830000D01*
X104017440Y-99830000D01*
X103973162Y-99594683D01*
X103834090Y-99378559D01*
X103621890Y-99233569D01*
X103370000Y-99182560D01*
X102734894Y-99182560D01*
X102735119Y-98924883D01*
X103094775Y-98925197D01*
X103512086Y-98752767D01*
X103831645Y-98433765D01*
X103980955Y-98074187D01*
X106554752Y-98074187D01*
X106772757Y-98601800D01*
X107176077Y-99005824D01*
X107703309Y-99224750D01*
X108274187Y-99225248D01*
X108801800Y-99007243D01*
X109205824Y-98603923D01*
X109239813Y-98522069D01*
X109272757Y-98601800D01*
X109676077Y-99005824D01*
X110203309Y-99224750D01*
X110774187Y-99225248D01*
X111301800Y-99007243D01*
X111705824Y-98603923D01*
X111924750Y-98076691D01*
X111925248Y-97505813D01*
X111707243Y-96978200D01*
X111303923Y-96574176D01*
X110776691Y-96355250D01*
X110205813Y-96354752D01*
X109678200Y-96572757D01*
X109274176Y-96976077D01*
X109240187Y-97057931D01*
X109207243Y-96978200D01*
X108803923Y-96574176D01*
X108276691Y-96355250D01*
X107705813Y-96354752D01*
X107178200Y-96572757D01*
X106774176Y-96976077D01*
X106555250Y-97503309D01*
X106554752Y-98074187D01*
X103980955Y-98074187D01*
X104004803Y-98016756D01*
X104005197Y-97565225D01*
X103832767Y-97147914D01*
X103513765Y-96828355D01*
X103096756Y-96655197D01*
X102645225Y-96654803D01*
X102227914Y-96827233D01*
X101908355Y-97146235D01*
X101735197Y-97563244D01*
X101734881Y-97925117D01*
X101375225Y-97924803D01*
X100957914Y-98097233D01*
X100638355Y-98416235D01*
X100465197Y-98833244D01*
X100464803Y-99284775D01*
X97954804Y-99284775D01*
X97955248Y-98775813D01*
X97737243Y-98248200D01*
X97333923Y-97844176D01*
X96806691Y-97625250D01*
X96235813Y-97624752D01*
X95708200Y-97842757D01*
X95304176Y-98246077D01*
X95270187Y-98327931D01*
X95237243Y-98248200D01*
X94833923Y-97844176D01*
X94306691Y-97625250D01*
X93735813Y-97624752D01*
X93208200Y-97842757D01*
X92804176Y-98246077D01*
X92585250Y-98773309D01*
X92584752Y-99344187D01*
X70710000Y-99344187D01*
X70710000Y-92710000D01*
X96428846Y-92710000D01*
X96530467Y-93220882D01*
X96819858Y-93653988D01*
X97252964Y-93943379D01*
X97763846Y-94045000D01*
X97816154Y-94045000D01*
X98327036Y-93943379D01*
X98760142Y-93653988D01*
X99049533Y-93220882D01*
X99098564Y-92974383D01*
X101534769Y-92974383D01*
X101737582Y-93465229D01*
X102112796Y-93841098D01*
X102603287Y-94044768D01*
X103134383Y-94045231D01*
X103625229Y-93842418D01*
X104001098Y-93467204D01*
X104204768Y-92976713D01*
X104205231Y-92445617D01*
X104002418Y-91954771D01*
X103627204Y-91578902D01*
X103136713Y-91375232D01*
X102605617Y-91374769D01*
X102114771Y-91577582D01*
X101738902Y-91952796D01*
X101535232Y-92443287D01*
X101534769Y-92974383D01*
X99098564Y-92974383D01*
X99151154Y-92710000D01*
X99049533Y-92199118D01*
X98760142Y-91766012D01*
X98327036Y-91476621D01*
X97816154Y-91375000D01*
X97763846Y-91375000D01*
X97252964Y-91476621D01*
X96819858Y-91766012D01*
X96530467Y-92199118D01*
X96428846Y-92710000D01*
X70710000Y-92710000D01*
X70710000Y-87630000D01*
X93786887Y-87630000D01*
X93896120Y-88179151D01*
X94207189Y-88644698D01*
X94672736Y-88955767D01*
X95221887Y-89065000D01*
X95278113Y-89065000D01*
X95827264Y-88955767D01*
X96292811Y-88644698D01*
X96603880Y-88179151D01*
X96713113Y-87630000D01*
X96603880Y-87080849D01*
X96436268Y-86830000D01*
X101422560Y-86830000D01*
X101422560Y-88430000D01*
X101466838Y-88665317D01*
X101605910Y-88881441D01*
X101818110Y-89026431D01*
X102070000Y-89077440D01*
X103670000Y-89077440D01*
X103905317Y-89033162D01*
X104121441Y-88894090D01*
X104266431Y-88681890D01*
X104317440Y-88430000D01*
X104317440Y-86830000D01*
X104273162Y-86594683D01*
X104134090Y-86378559D01*
X103921890Y-86233569D01*
X103670000Y-86182560D01*
X102070000Y-86182560D01*
X101834683Y-86226838D01*
X101618559Y-86365910D01*
X101473569Y-86578110D01*
X101422560Y-86830000D01*
X96436268Y-86830000D01*
X96292811Y-86615302D01*
X95827264Y-86304233D01*
X95278113Y-86195000D01*
X95221887Y-86195000D01*
X94672736Y-86304233D01*
X94207189Y-86615302D01*
X93896120Y-87080849D01*
X93786887Y-87630000D01*
X70710000Y-87630000D01*
X70710000Y-82814383D01*
X96454769Y-82814383D01*
X96657582Y-83305229D01*
X97032796Y-83681098D01*
X97523287Y-83884768D01*
X98054383Y-83885231D01*
X98545229Y-83682418D01*
X98921098Y-83307204D01*
X99124768Y-82816713D01*
X99125000Y-82550000D01*
X101508846Y-82550000D01*
X101610467Y-83060882D01*
X101899858Y-83493988D01*
X102332964Y-83783379D01*
X102843846Y-83885000D01*
X102896154Y-83885000D01*
X103407036Y-83783379D01*
X103840142Y-83493988D01*
X104129533Y-83060882D01*
X104174625Y-82834187D01*
X106554752Y-82834187D01*
X106772757Y-83361800D01*
X107176077Y-83765824D01*
X107703309Y-83984750D01*
X108274187Y-83985248D01*
X108801800Y-83767243D01*
X109011663Y-83557745D01*
X109661861Y-83557745D01*
X109735995Y-83803864D01*
X110273223Y-83996965D01*
X110843454Y-83969778D01*
X111244005Y-83803864D01*
X111318139Y-83557745D01*
X110490000Y-82729605D01*
X109661861Y-83557745D01*
X109011663Y-83557745D01*
X109205824Y-83363923D01*
X109233423Y-83297456D01*
X109236136Y-83304005D01*
X109482255Y-83378139D01*
X110310395Y-82550000D01*
X110669605Y-82550000D01*
X111497745Y-83378139D01*
X111743864Y-83304005D01*
X111936965Y-82766777D01*
X111909778Y-82196546D01*
X111743864Y-81795995D01*
X111497745Y-81721861D01*
X110669605Y-82550000D01*
X110310395Y-82550000D01*
X109482255Y-81721861D01*
X109236136Y-81795995D01*
X109233804Y-81802483D01*
X109207243Y-81738200D01*
X109011640Y-81542255D01*
X109661861Y-81542255D01*
X110490000Y-82370395D01*
X111318139Y-81542255D01*
X111244005Y-81296136D01*
X110706777Y-81103035D01*
X110136546Y-81130222D01*
X109735995Y-81296136D01*
X109661861Y-81542255D01*
X109011640Y-81542255D01*
X108803923Y-81334176D01*
X108276691Y-81115250D01*
X107705813Y-81114752D01*
X107178200Y-81332757D01*
X106774176Y-81736077D01*
X106555250Y-82263309D01*
X106554752Y-82834187D01*
X104174625Y-82834187D01*
X104231154Y-82550000D01*
X104129533Y-82039118D01*
X103840142Y-81606012D01*
X103407036Y-81316621D01*
X102896154Y-81215000D01*
X102843846Y-81215000D01*
X102332964Y-81316621D01*
X101899858Y-81606012D01*
X101610467Y-82039118D01*
X101508846Y-82550000D01*
X99125000Y-82550000D01*
X99125231Y-82285617D01*
X98922418Y-81794771D01*
X98547204Y-81418902D01*
X98056713Y-81215232D01*
X97525617Y-81214769D01*
X97034771Y-81417582D01*
X96658902Y-81792796D01*
X96455232Y-82283287D01*
X96454769Y-82814383D01*
X70710000Y-82814383D01*
X70710000Y-79004383D01*
X96454769Y-79004383D01*
X96657582Y-79495229D01*
X97032796Y-79871098D01*
X97523287Y-80074768D01*
X98054383Y-80075231D01*
X98545229Y-79872418D01*
X98921098Y-79497204D01*
X99124768Y-79006713D01*
X99125000Y-78740000D01*
X101508846Y-78740000D01*
X101610467Y-79250882D01*
X101899858Y-79683988D01*
X102332964Y-79973379D01*
X102843846Y-80075000D01*
X102896154Y-80075000D01*
X103407036Y-79973379D01*
X103840142Y-79683988D01*
X104129533Y-79250882D01*
X104231154Y-78740000D01*
X104129533Y-78229118D01*
X103840142Y-77796012D01*
X103407036Y-77506621D01*
X102896154Y-77405000D01*
X102843846Y-77405000D01*
X102332964Y-77506621D01*
X101899858Y-77796012D01*
X101610467Y-78229118D01*
X101508846Y-78740000D01*
X99125000Y-78740000D01*
X99125231Y-78475617D01*
X98922418Y-77984771D01*
X98547204Y-77608902D01*
X98056713Y-77405232D01*
X97525617Y-77404769D01*
X97034771Y-77607582D01*
X96658902Y-77982796D01*
X96455232Y-78473287D01*
X96454769Y-79004383D01*
X70710000Y-79004383D01*
X70710000Y-75422815D01*
X72864630Y-75422815D01*
X73188980Y-76207800D01*
X73789041Y-76808909D01*
X74573459Y-77134628D01*
X75422815Y-77135370D01*
X76207800Y-76811020D01*
X76808909Y-76210959D01*
X77134628Y-75426541D01*
X77134631Y-75422815D01*
X112864630Y-75422815D01*
X113188980Y-76207800D01*
X113789041Y-76808909D01*
X114573459Y-77134628D01*
X115422815Y-77135370D01*
X116207800Y-76811020D01*
X116808909Y-76210959D01*
X117134628Y-75426541D01*
X117135370Y-74577185D01*
X116811020Y-73792200D01*
X116210959Y-73191091D01*
X115426541Y-72865372D01*
X114577185Y-72864630D01*
X113792200Y-73188980D01*
X113191091Y-73789041D01*
X112865372Y-74573459D01*
X112864630Y-75422815D01*
X77134631Y-75422815D01*
X77135370Y-74577185D01*
X76811020Y-73792200D01*
X76210959Y-73191091D01*
X75426541Y-72865372D01*
X74577185Y-72864630D01*
X73792200Y-73188980D01*
X73191091Y-73789041D01*
X72865372Y-74573459D01*
X72864630Y-75422815D01*
X70710000Y-75422815D01*
X70710000Y-70710000D01*
X119290000Y-70710000D01*
X119290000Y-154290000D01*
M02*
