G04 #@! TF.FileFunction,Copper,L2,Bot,Signal*
%FSLAX46Y46*%
G04 Gerber Fmt 4.6, Leading zero omitted, Abs format (unit mm)*
G04 Created by KiCad (PCBNEW 4.0.7) date 08/30/18 18:17:14*
%MOMM*%
%LPD*%
G01*
G04 APERTURE LIST*
%ADD10C,0.100000*%
%ADD11C,1.600000*%
%ADD12C,1.500000*%
%ADD13R,1.600000X1.600000*%
%ADD14O,1.600000X1.600000*%
%ADD15R,1.800000X1.800000*%
%ADD16C,1.800000*%
%ADD17O,1.200000X1.600000*%
%ADD18O,1.200000X1.200000*%
%ADD19C,4.000000*%
%ADD20C,1.000000*%
%ADD21C,0.254000*%
G04 APERTURE END LIST*
D10*
D11*
X123190000Y-63500000D03*
D12*
X123190000Y-68580000D03*
D11*
X123190000Y-77470000D03*
D12*
X123190000Y-72390000D03*
D11*
X156210000Y-74930000D03*
D12*
X156210000Y-80010000D03*
D11*
X118110000Y-72390000D03*
D12*
X118110000Y-67310000D03*
D11*
X146050000Y-91440000D03*
D12*
X146050000Y-96520000D03*
D11*
X123190000Y-54610000D03*
D12*
X123190000Y-59690000D03*
D11*
X146050000Y-78740000D03*
D12*
X146050000Y-73660000D03*
D11*
X146050000Y-82550000D03*
D12*
X146050000Y-87630000D03*
D13*
X148590000Y-68580000D03*
D14*
X148590000Y-55880000D03*
D13*
X118110000Y-76200000D03*
D14*
X118110000Y-88900000D03*
D15*
X133350000Y-53340000D03*
D16*
X135890000Y-53340000D03*
X138430000Y-53340000D03*
D15*
X110490000Y-63500000D03*
D16*
X110490000Y-66040000D03*
D15*
X162560000Y-82550000D03*
D16*
X162560000Y-80010000D03*
D17*
X139700000Y-74930000D03*
D18*
X138430000Y-76200000D03*
X139700000Y-77470000D03*
D17*
X129540000Y-77470000D03*
D18*
X130810000Y-76200000D03*
X129540000Y-74930000D03*
D11*
X156210000Y-55880000D03*
D14*
X156210000Y-71120000D03*
D11*
X110490000Y-88900000D03*
D14*
X110490000Y-73660000D03*
D11*
X128270000Y-64770000D03*
D14*
X143510000Y-64770000D03*
D11*
X140970000Y-95250000D03*
D14*
X125730000Y-95250000D03*
D11*
X152400000Y-71120000D03*
D14*
X152400000Y-55880000D03*
D11*
X128270000Y-68580000D03*
D14*
X143510000Y-68580000D03*
D11*
X114300000Y-73660000D03*
D14*
X114300000Y-88900000D03*
D11*
X128270000Y-60960000D03*
D14*
X143510000Y-60960000D03*
D11*
X140970000Y-91440000D03*
D14*
X125730000Y-91440000D03*
D11*
X125730000Y-83820000D03*
D14*
X140970000Y-83820000D03*
D11*
X128270000Y-57150000D03*
D14*
X143510000Y-57150000D03*
D11*
X140970000Y-87630000D03*
D14*
X125730000Y-87630000D03*
D19*
X110000000Y-95000000D03*
X165000000Y-95000000D03*
X110000000Y-55000000D03*
X165000000Y-55000000D03*
D20*
X128270000Y-68580000D02*
X135890000Y-76200000D01*
X135890000Y-76200000D02*
X138430000Y-76200000D01*
X128270000Y-64770000D02*
X126365000Y-66675000D01*
X126365000Y-66675000D02*
X125730000Y-66040000D01*
X123190000Y-63500000D02*
X125730000Y-66040000D01*
X125730000Y-66040000D02*
X128270000Y-68580000D01*
X123190000Y-68580000D02*
X118110000Y-63500000D01*
X118110000Y-63500000D02*
X110490000Y-63500000D01*
X123190000Y-68580000D02*
X123190000Y-72390000D01*
X123190000Y-76200000D02*
X125730000Y-76200000D01*
X127000000Y-74930000D02*
X129540000Y-74930000D01*
X125730000Y-76200000D02*
X127000000Y-74930000D01*
X123190000Y-77470000D02*
X123190000Y-81280000D01*
X123190000Y-81280000D02*
X125730000Y-83820000D01*
X123190000Y-76200000D02*
X123190000Y-77470000D01*
X123190000Y-76200000D02*
X118110000Y-76200000D01*
X156210000Y-71120000D02*
X154305000Y-73025000D01*
X154305000Y-73025000D02*
X153670000Y-72390000D01*
X152400000Y-71120000D02*
X153670000Y-72390000D01*
X153670000Y-72390000D02*
X156210000Y-74930000D01*
X118110000Y-72390000D02*
X115570000Y-72390000D01*
X115570000Y-72390000D02*
X114300000Y-73660000D01*
X114300000Y-73660000D02*
X110490000Y-73660000D01*
X140970000Y-91440000D02*
X138430000Y-91440000D01*
X129540000Y-82550000D02*
X129540000Y-77470000D01*
X138430000Y-91440000D02*
X129540000Y-82550000D01*
X140970000Y-91440000D02*
X146050000Y-91440000D01*
X146050000Y-96520000D02*
X142240000Y-96520000D01*
X142240000Y-96520000D02*
X140970000Y-95250000D01*
X123190000Y-54610000D02*
X125730000Y-54610000D01*
X125730000Y-54610000D02*
X128270000Y-57150000D01*
X128270000Y-60960000D02*
X130810000Y-60960000D01*
X139700000Y-69850000D02*
X139700000Y-74930000D01*
X130810000Y-60960000D02*
X139700000Y-69850000D01*
X123190000Y-59690000D02*
X127000000Y-59690000D01*
X127000000Y-59690000D02*
X128270000Y-60960000D01*
X146050000Y-82550000D02*
X162560000Y-82550000D01*
X146050000Y-78740000D02*
X146050000Y-82550000D01*
X143510000Y-68580000D02*
X143510000Y-71120000D01*
X143510000Y-71120000D02*
X146050000Y-73660000D01*
X146050000Y-73660000D02*
X148590000Y-71120000D01*
X148590000Y-71120000D02*
X148590000Y-68580000D01*
X139700000Y-77470000D02*
X142240000Y-77470000D01*
X142240000Y-77470000D02*
X146050000Y-73660000D01*
X130810000Y-76200000D02*
X138430000Y-83820000D01*
X138430000Y-83820000D02*
X140970000Y-83820000D01*
X140970000Y-87630000D02*
X140970000Y-83820000D01*
X146050000Y-87630000D02*
X140970000Y-87630000D01*
X148590000Y-55880000D02*
X152400000Y-55880000D01*
X114300000Y-88900000D02*
X118110000Y-88900000D01*
X110490000Y-88900000D02*
X110490000Y-78740000D01*
X130810000Y-53340000D02*
X133350000Y-53340000D01*
X129540000Y-52070000D02*
X130810000Y-53340000D01*
X119380000Y-52070000D02*
X129540000Y-52070000D01*
X118110000Y-53340000D02*
X119380000Y-52070000D01*
X118110000Y-55880000D02*
X118110000Y-53340000D01*
X114300000Y-59690000D02*
X118110000Y-55880000D01*
X109220000Y-59690000D02*
X114300000Y-59690000D01*
X107950000Y-60960000D02*
X109220000Y-59690000D01*
X107950000Y-76200000D02*
X107950000Y-60960000D01*
X110490000Y-78740000D02*
X107950000Y-76200000D01*
X135890000Y-53340000D02*
X135890000Y-55880000D01*
X156210000Y-54610000D02*
X156210000Y-55880000D01*
X154940000Y-53340000D02*
X156210000Y-54610000D01*
X143510000Y-53340000D02*
X154940000Y-53340000D01*
X139700000Y-57150000D02*
X143510000Y-53340000D01*
X137160000Y-57150000D02*
X139700000Y-57150000D01*
X135890000Y-55880000D02*
X137160000Y-57150000D01*
D21*
G36*
X169290000Y-99290000D02*
X105710000Y-99290000D01*
X105710000Y-96875022D01*
X108304584Y-96875022D01*
X108525353Y-97245743D01*
X109497012Y-97639119D01*
X110545247Y-97630713D01*
X111474647Y-97245743D01*
X111695416Y-96875022D01*
X110000000Y-95179605D01*
X108304584Y-96875022D01*
X105710000Y-96875022D01*
X105710000Y-94497012D01*
X107360881Y-94497012D01*
X107369287Y-95545247D01*
X107754257Y-96474647D01*
X108124978Y-96695416D01*
X109820395Y-95000000D01*
X110179605Y-95000000D01*
X111875022Y-96695416D01*
X112245743Y-96474647D01*
X112600232Y-95599039D01*
X124338096Y-95599039D01*
X124498959Y-95987423D01*
X124874866Y-96402389D01*
X125380959Y-96641914D01*
X125603000Y-96520629D01*
X125603000Y-95377000D01*
X125857000Y-95377000D01*
X125857000Y-96520629D01*
X126079041Y-96641914D01*
X126585134Y-96402389D01*
X126961041Y-95987423D01*
X127121904Y-95599039D01*
X127086275Y-95534187D01*
X139534752Y-95534187D01*
X139752757Y-96061800D01*
X140156077Y-96465824D01*
X140683309Y-96684750D01*
X140799720Y-96684852D01*
X141437434Y-97322566D01*
X141805654Y-97568603D01*
X142240000Y-97655000D01*
X145226042Y-97655000D01*
X145264436Y-97693461D01*
X145773298Y-97904759D01*
X146324285Y-97905240D01*
X146833515Y-97694831D01*
X147223461Y-97305564D01*
X147402237Y-96875022D01*
X163304584Y-96875022D01*
X163525353Y-97245743D01*
X164497012Y-97639119D01*
X165545247Y-97630713D01*
X166474647Y-97245743D01*
X166695416Y-96875022D01*
X165000000Y-95179605D01*
X163304584Y-96875022D01*
X147402237Y-96875022D01*
X147434759Y-96796702D01*
X147435240Y-96245715D01*
X147224831Y-95736485D01*
X146835564Y-95346539D01*
X146326702Y-95135241D01*
X145775715Y-95134760D01*
X145266485Y-95345169D01*
X145226585Y-95385000D01*
X142710132Y-95385000D01*
X142405148Y-95080016D01*
X142405248Y-94965813D01*
X142211544Y-94497012D01*
X162360881Y-94497012D01*
X162369287Y-95545247D01*
X162754257Y-96474647D01*
X163124978Y-96695416D01*
X164820395Y-95000000D01*
X165179605Y-95000000D01*
X166875022Y-96695416D01*
X167245743Y-96474647D01*
X167639119Y-95502988D01*
X167630713Y-94454753D01*
X167245743Y-93525353D01*
X166875022Y-93304584D01*
X165179605Y-95000000D01*
X164820395Y-95000000D01*
X163124978Y-93304584D01*
X162754257Y-93525353D01*
X162360881Y-94497012D01*
X142211544Y-94497012D01*
X142187243Y-94438200D01*
X141783923Y-94034176D01*
X141256691Y-93815250D01*
X140685813Y-93814752D01*
X140158200Y-94032757D01*
X139754176Y-94436077D01*
X139535250Y-94963309D01*
X139534752Y-95534187D01*
X127086275Y-95534187D01*
X126999915Y-95377000D01*
X125857000Y-95377000D01*
X125603000Y-95377000D01*
X124460085Y-95377000D01*
X124338096Y-95599039D01*
X112600232Y-95599039D01*
X112639119Y-95502988D01*
X112634292Y-94900961D01*
X124338096Y-94900961D01*
X124460085Y-95123000D01*
X125603000Y-95123000D01*
X125603000Y-93979371D01*
X125857000Y-93979371D01*
X125857000Y-95123000D01*
X126999915Y-95123000D01*
X127121904Y-94900961D01*
X126961041Y-94512577D01*
X126585134Y-94097611D01*
X126079041Y-93858086D01*
X125857000Y-93979371D01*
X125603000Y-93979371D01*
X125380959Y-93858086D01*
X124874866Y-94097611D01*
X124498959Y-94512577D01*
X124338096Y-94900961D01*
X112634292Y-94900961D01*
X112630713Y-94454753D01*
X112245743Y-93525353D01*
X111875022Y-93304584D01*
X110179605Y-95000000D01*
X109820395Y-95000000D01*
X108124978Y-93304584D01*
X107754257Y-93525353D01*
X107360881Y-94497012D01*
X105710000Y-94497012D01*
X105710000Y-93124978D01*
X108304584Y-93124978D01*
X110000000Y-94820395D01*
X111695416Y-93124978D01*
X163304584Y-93124978D01*
X165000000Y-94820395D01*
X166695416Y-93124978D01*
X166474647Y-92754257D01*
X165502988Y-92360881D01*
X164454753Y-92369287D01*
X163525353Y-92754257D01*
X163304584Y-93124978D01*
X111695416Y-93124978D01*
X111474647Y-92754257D01*
X110502988Y-92360881D01*
X109454753Y-92369287D01*
X108525353Y-92754257D01*
X108304584Y-93124978D01*
X105710000Y-93124978D01*
X105710000Y-91789039D01*
X124338096Y-91789039D01*
X124498959Y-92177423D01*
X124874866Y-92592389D01*
X125380959Y-92831914D01*
X125603000Y-92710629D01*
X125603000Y-91567000D01*
X125857000Y-91567000D01*
X125857000Y-92710629D01*
X126079041Y-92831914D01*
X126585134Y-92592389D01*
X126961041Y-92177423D01*
X127121904Y-91789039D01*
X126999915Y-91567000D01*
X125857000Y-91567000D01*
X125603000Y-91567000D01*
X124460085Y-91567000D01*
X124338096Y-91789039D01*
X105710000Y-91789039D01*
X105710000Y-91090961D01*
X124338096Y-91090961D01*
X124460085Y-91313000D01*
X125603000Y-91313000D01*
X125603000Y-90169371D01*
X125857000Y-90169371D01*
X125857000Y-91313000D01*
X126999915Y-91313000D01*
X127121904Y-91090961D01*
X126961041Y-90702577D01*
X126585134Y-90287611D01*
X126079041Y-90048086D01*
X125857000Y-90169371D01*
X125603000Y-90169371D01*
X125380959Y-90048086D01*
X124874866Y-90287611D01*
X124498959Y-90702577D01*
X124338096Y-91090961D01*
X105710000Y-91090961D01*
X105710000Y-60960000D01*
X106815000Y-60960000D01*
X106815000Y-76200000D01*
X106901397Y-76634346D01*
X107127806Y-76973191D01*
X107147434Y-77002566D01*
X109355000Y-79210133D01*
X109355000Y-88005394D01*
X109274176Y-88086077D01*
X109055250Y-88613309D01*
X109054752Y-89184187D01*
X109272757Y-89711800D01*
X109676077Y-90115824D01*
X110203309Y-90334750D01*
X110774187Y-90335248D01*
X111301800Y-90117243D01*
X111705824Y-89713923D01*
X111924750Y-89186691D01*
X111925024Y-88871887D01*
X112865000Y-88871887D01*
X112865000Y-88928113D01*
X112974233Y-89477264D01*
X113285302Y-89942811D01*
X113750849Y-90253880D01*
X114300000Y-90363113D01*
X114849151Y-90253880D01*
X115176728Y-90035000D01*
X117233272Y-90035000D01*
X117560849Y-90253880D01*
X118110000Y-90363113D01*
X118659151Y-90253880D01*
X119124698Y-89942811D01*
X119435767Y-89477264D01*
X119545000Y-88928113D01*
X119545000Y-88871887D01*
X119435767Y-88322736D01*
X119206116Y-87979039D01*
X124338096Y-87979039D01*
X124498959Y-88367423D01*
X124874866Y-88782389D01*
X125380959Y-89021914D01*
X125603000Y-88900629D01*
X125603000Y-87757000D01*
X125857000Y-87757000D01*
X125857000Y-88900629D01*
X126079041Y-89021914D01*
X126585134Y-88782389D01*
X126961041Y-88367423D01*
X127121904Y-87979039D01*
X126999915Y-87757000D01*
X125857000Y-87757000D01*
X125603000Y-87757000D01*
X124460085Y-87757000D01*
X124338096Y-87979039D01*
X119206116Y-87979039D01*
X119124698Y-87857189D01*
X118659151Y-87546120D01*
X118110000Y-87436887D01*
X117560849Y-87546120D01*
X117233272Y-87765000D01*
X115176728Y-87765000D01*
X114849151Y-87546120D01*
X114300000Y-87436887D01*
X113750849Y-87546120D01*
X113285302Y-87857189D01*
X112974233Y-88322736D01*
X112865000Y-88871887D01*
X111925024Y-88871887D01*
X111925248Y-88615813D01*
X111707243Y-88088200D01*
X111625000Y-88005813D01*
X111625000Y-87280961D01*
X124338096Y-87280961D01*
X124460085Y-87503000D01*
X125603000Y-87503000D01*
X125603000Y-86359371D01*
X125857000Y-86359371D01*
X125857000Y-87503000D01*
X126999915Y-87503000D01*
X127121904Y-87280961D01*
X126961041Y-86892577D01*
X126585134Y-86477611D01*
X126079041Y-86238086D01*
X125857000Y-86359371D01*
X125603000Y-86359371D01*
X125380959Y-86238086D01*
X124874866Y-86477611D01*
X124498959Y-86892577D01*
X124338096Y-87280961D01*
X111625000Y-87280961D01*
X111625000Y-78740000D01*
X111538603Y-78305654D01*
X111312194Y-77966809D01*
X111292566Y-77937433D01*
X109085000Y-75729868D01*
X109085000Y-75400000D01*
X116662560Y-75400000D01*
X116662560Y-77000000D01*
X116706838Y-77235317D01*
X116845910Y-77451441D01*
X117058110Y-77596431D01*
X117310000Y-77647440D01*
X118910000Y-77647440D01*
X119145317Y-77603162D01*
X119361441Y-77464090D01*
X119449644Y-77335000D01*
X121755118Y-77335000D01*
X121754752Y-77754187D01*
X121972757Y-78281800D01*
X122055000Y-78364187D01*
X122055000Y-81280000D01*
X122141397Y-81714346D01*
X122157336Y-81738200D01*
X122387434Y-82082566D01*
X124294852Y-83989984D01*
X124294752Y-84104187D01*
X124512757Y-84631800D01*
X124916077Y-85035824D01*
X125443309Y-85254750D01*
X126014187Y-85255248D01*
X126541800Y-85037243D01*
X126945824Y-84633923D01*
X127164750Y-84106691D01*
X127165248Y-83535813D01*
X126947243Y-83008200D01*
X126543923Y-82604176D01*
X126016691Y-82385250D01*
X125900281Y-82385148D01*
X124325000Y-80809868D01*
X124325000Y-78364606D01*
X124405824Y-78283923D01*
X124624750Y-77756691D01*
X124625118Y-77335000D01*
X125730000Y-77335000D01*
X126164346Y-77248603D01*
X126532566Y-77002566D01*
X127470132Y-76065000D01*
X129022209Y-76065000D01*
X129067386Y-76095186D01*
X129081739Y-76098041D01*
X129067386Y-76100896D01*
X128666723Y-76368610D01*
X128399009Y-76769273D01*
X128305000Y-77241887D01*
X128305000Y-77698113D01*
X128399009Y-78170727D01*
X128405000Y-78179693D01*
X128405000Y-82550000D01*
X128491397Y-82984346D01*
X128737434Y-83352566D01*
X137627434Y-92242567D01*
X137995655Y-92488604D01*
X138430000Y-92575000D01*
X140075394Y-92575000D01*
X140156077Y-92655824D01*
X140683309Y-92874750D01*
X141254187Y-92875248D01*
X141781800Y-92657243D01*
X141864187Y-92575000D01*
X145155394Y-92575000D01*
X145236077Y-92655824D01*
X145763309Y-92874750D01*
X146334187Y-92875248D01*
X146861800Y-92657243D01*
X147265824Y-92253923D01*
X147484750Y-91726691D01*
X147485248Y-91155813D01*
X147267243Y-90628200D01*
X146863923Y-90224176D01*
X146336691Y-90005250D01*
X145765813Y-90004752D01*
X145238200Y-90222757D01*
X145155813Y-90305000D01*
X141864606Y-90305000D01*
X141783923Y-90224176D01*
X141256691Y-90005250D01*
X140685813Y-90004752D01*
X140158200Y-90222757D01*
X140075813Y-90305000D01*
X138900133Y-90305000D01*
X130675000Y-82079868D01*
X130675000Y-78179693D01*
X130680991Y-78170727D01*
X130763051Y-77758183D01*
X137627434Y-84622566D01*
X137995654Y-84868603D01*
X138430000Y-84955000D01*
X139835000Y-84955000D01*
X139835000Y-86735394D01*
X139754176Y-86816077D01*
X139535250Y-87343309D01*
X139534752Y-87914187D01*
X139752757Y-88441800D01*
X140156077Y-88845824D01*
X140683309Y-89064750D01*
X141254187Y-89065248D01*
X141781800Y-88847243D01*
X141864187Y-88765000D01*
X145226042Y-88765000D01*
X145264436Y-88803461D01*
X145773298Y-89014759D01*
X146324285Y-89015240D01*
X146833515Y-88804831D01*
X147223461Y-88415564D01*
X147434759Y-87906702D01*
X147435240Y-87355715D01*
X147224831Y-86846485D01*
X146835564Y-86456539D01*
X146326702Y-86245241D01*
X145775715Y-86244760D01*
X145266485Y-86455169D01*
X145226585Y-86495000D01*
X142105000Y-86495000D01*
X142105000Y-84696728D01*
X142323880Y-84369151D01*
X142433113Y-83820000D01*
X142323880Y-83270849D01*
X142012811Y-82805302D01*
X141547264Y-82494233D01*
X140998113Y-82385000D01*
X140941887Y-82385000D01*
X140392736Y-82494233D01*
X140107233Y-82685000D01*
X138900132Y-82685000D01*
X135239319Y-79024187D01*
X144614752Y-79024187D01*
X144832757Y-79551800D01*
X144915000Y-79634187D01*
X144915000Y-81655394D01*
X144834176Y-81736077D01*
X144615250Y-82263309D01*
X144614752Y-82834187D01*
X144832757Y-83361800D01*
X145236077Y-83765824D01*
X145763309Y-83984750D01*
X146334187Y-83985248D01*
X146861800Y-83767243D01*
X146944187Y-83685000D01*
X161056778Y-83685000D01*
X161056838Y-83685317D01*
X161195910Y-83901441D01*
X161408110Y-84046431D01*
X161660000Y-84097440D01*
X163460000Y-84097440D01*
X163695317Y-84053162D01*
X163911441Y-83914090D01*
X164056431Y-83701890D01*
X164107440Y-83450000D01*
X164107440Y-81650000D01*
X164063162Y-81414683D01*
X163924090Y-81198559D01*
X163720426Y-81059402D01*
X163754718Y-81025110D01*
X163640161Y-80910553D01*
X163896643Y-80824148D01*
X164106458Y-80250664D01*
X164080839Y-79640540D01*
X163896643Y-79195852D01*
X163640159Y-79109446D01*
X162739605Y-80010000D01*
X162753748Y-80024143D01*
X162574143Y-80203748D01*
X162560000Y-80189605D01*
X162545858Y-80203748D01*
X162366253Y-80024143D01*
X162380395Y-80010000D01*
X161479841Y-79109446D01*
X161223357Y-79195852D01*
X161013542Y-79769336D01*
X161039161Y-80379460D01*
X161223357Y-80824148D01*
X161479839Y-80910553D01*
X161365282Y-81025110D01*
X161401760Y-81061588D01*
X161208559Y-81185910D01*
X161063569Y-81398110D01*
X161060149Y-81415000D01*
X147185000Y-81415000D01*
X147185000Y-80981517D01*
X155418088Y-80981517D01*
X155486077Y-81222460D01*
X156005171Y-81407201D01*
X156555448Y-81379230D01*
X156933923Y-81222460D01*
X157001912Y-80981517D01*
X156210000Y-80189605D01*
X155418088Y-80981517D01*
X147185000Y-80981517D01*
X147185000Y-79805171D01*
X154812799Y-79805171D01*
X154840770Y-80355448D01*
X154997540Y-80733923D01*
X155238483Y-80801912D01*
X156030395Y-80010000D01*
X156389605Y-80010000D01*
X157181517Y-80801912D01*
X157422460Y-80733923D01*
X157607201Y-80214829D01*
X157579230Y-79664552D01*
X157422460Y-79286077D01*
X157181517Y-79218088D01*
X156389605Y-80010000D01*
X156030395Y-80010000D01*
X155238483Y-79218088D01*
X154997540Y-79286077D01*
X154812799Y-79805171D01*
X147185000Y-79805171D01*
X147185000Y-79634606D01*
X147265824Y-79553923D01*
X147479853Y-79038483D01*
X155418088Y-79038483D01*
X156210000Y-79830395D01*
X157001912Y-79038483D01*
X156971256Y-78929841D01*
X161659446Y-78929841D01*
X162560000Y-79830395D01*
X163460554Y-78929841D01*
X163374148Y-78673357D01*
X162800664Y-78463542D01*
X162190540Y-78489161D01*
X161745852Y-78673357D01*
X161659446Y-78929841D01*
X156971256Y-78929841D01*
X156933923Y-78797540D01*
X156414829Y-78612799D01*
X155864552Y-78640770D01*
X155486077Y-78797540D01*
X155418088Y-79038483D01*
X147479853Y-79038483D01*
X147484750Y-79026691D01*
X147485248Y-78455813D01*
X147267243Y-77928200D01*
X146863923Y-77524176D01*
X146336691Y-77305250D01*
X145765813Y-77304752D01*
X145238200Y-77522757D01*
X144834176Y-77926077D01*
X144615250Y-78453309D01*
X144614752Y-79024187D01*
X135239319Y-79024187D01*
X131959103Y-75743971D01*
X131950991Y-75703191D01*
X131683277Y-75302528D01*
X131282614Y-75034814D01*
X130810000Y-74940805D01*
X130775000Y-74947767D01*
X130775000Y-74905805D01*
X130680991Y-74433191D01*
X130413277Y-74032528D01*
X130012614Y-73764814D01*
X129540000Y-73670805D01*
X129067386Y-73764814D01*
X129022209Y-73795000D01*
X127000000Y-73795000D01*
X126565654Y-73881397D01*
X126467935Y-73946691D01*
X126197434Y-74127434D01*
X125259868Y-75065000D01*
X119449018Y-75065000D01*
X119374090Y-74948559D01*
X119161890Y-74803569D01*
X118910000Y-74752560D01*
X117310000Y-74752560D01*
X117074683Y-74796838D01*
X116858559Y-74935910D01*
X116713569Y-75148110D01*
X116662560Y-75400000D01*
X109085000Y-75400000D01*
X109085000Y-73838933D01*
X109164233Y-74237264D01*
X109475302Y-74702811D01*
X109940849Y-75013880D01*
X110490000Y-75123113D01*
X111039151Y-75013880D01*
X111366728Y-74795000D01*
X113405394Y-74795000D01*
X113486077Y-74875824D01*
X114013309Y-75094750D01*
X114584187Y-75095248D01*
X115111800Y-74877243D01*
X115515824Y-74473923D01*
X115734750Y-73946691D01*
X115734852Y-73830280D01*
X116040132Y-73525000D01*
X117215394Y-73525000D01*
X117296077Y-73605824D01*
X117823309Y-73824750D01*
X118394187Y-73825248D01*
X118921800Y-73607243D01*
X119325824Y-73203923D01*
X119544750Y-72676691D01*
X119545248Y-72105813D01*
X119327243Y-71578200D01*
X118923923Y-71174176D01*
X118396691Y-70955250D01*
X117825813Y-70954752D01*
X117298200Y-71172757D01*
X117215813Y-71255000D01*
X115570000Y-71255000D01*
X115135654Y-71341397D01*
X115037935Y-71406691D01*
X114767434Y-71587434D01*
X114130016Y-72224852D01*
X114015813Y-72224752D01*
X113488200Y-72442757D01*
X113405813Y-72525000D01*
X111366728Y-72525000D01*
X111039151Y-72306120D01*
X110490000Y-72196887D01*
X109940849Y-72306120D01*
X109475302Y-72617189D01*
X109164233Y-73082736D01*
X109085000Y-73481067D01*
X109085000Y-68281517D01*
X117318088Y-68281517D01*
X117386077Y-68522460D01*
X117905171Y-68707201D01*
X118455448Y-68679230D01*
X118833923Y-68522460D01*
X118901912Y-68281517D01*
X118110000Y-67489605D01*
X117318088Y-68281517D01*
X109085000Y-68281517D01*
X109085000Y-67120159D01*
X109589446Y-67120159D01*
X109675852Y-67376643D01*
X110249336Y-67586458D01*
X110859460Y-67560839D01*
X111304148Y-67376643D01*
X111390554Y-67120159D01*
X111375566Y-67105171D01*
X116712799Y-67105171D01*
X116740770Y-67655448D01*
X116897540Y-68033923D01*
X117138483Y-68101912D01*
X117930395Y-67310000D01*
X118289605Y-67310000D01*
X119081517Y-68101912D01*
X119322460Y-68033923D01*
X119507201Y-67514829D01*
X119479230Y-66964552D01*
X119322460Y-66586077D01*
X119081517Y-66518088D01*
X118289605Y-67310000D01*
X117930395Y-67310000D01*
X117138483Y-66518088D01*
X116897540Y-66586077D01*
X116712799Y-67105171D01*
X111375566Y-67105171D01*
X110490000Y-66219605D01*
X109589446Y-67120159D01*
X109085000Y-67120159D01*
X109085000Y-66689120D01*
X109153357Y-66854148D01*
X109409841Y-66940554D01*
X110310395Y-66040000D01*
X110296253Y-66025858D01*
X110475858Y-65846253D01*
X110490000Y-65860395D01*
X110504143Y-65846253D01*
X110683748Y-66025858D01*
X110669605Y-66040000D01*
X111570159Y-66940554D01*
X111826643Y-66854148D01*
X112015304Y-66338483D01*
X117318088Y-66338483D01*
X118110000Y-67130395D01*
X118901912Y-66338483D01*
X118833923Y-66097540D01*
X118314829Y-65912799D01*
X117764552Y-65940770D01*
X117386077Y-66097540D01*
X117318088Y-66338483D01*
X112015304Y-66338483D01*
X112036458Y-66280664D01*
X112010839Y-65670540D01*
X111826643Y-65225852D01*
X111570161Y-65139447D01*
X111684718Y-65024890D01*
X111648240Y-64988412D01*
X111841441Y-64864090D01*
X111986431Y-64651890D01*
X111989851Y-64635000D01*
X117639868Y-64635000D01*
X121804807Y-68799939D01*
X121804760Y-68854285D01*
X122015169Y-69363515D01*
X122055000Y-69403415D01*
X122055000Y-71566042D01*
X122016539Y-71604436D01*
X121805241Y-72113298D01*
X121804760Y-72664285D01*
X122015169Y-73173515D01*
X122404436Y-73563461D01*
X122913298Y-73774759D01*
X123464285Y-73775240D01*
X123973515Y-73564831D01*
X124363461Y-73175564D01*
X124574759Y-72666702D01*
X124575240Y-72115715D01*
X124364831Y-71606485D01*
X124325000Y-71566585D01*
X124325000Y-69403958D01*
X124363461Y-69365564D01*
X124574759Y-68856702D01*
X124575240Y-68305715D01*
X124364831Y-67796485D01*
X123975564Y-67406539D01*
X123466702Y-67195241D01*
X123410324Y-67195192D01*
X119999319Y-63784187D01*
X121754752Y-63784187D01*
X121972757Y-64311800D01*
X122376077Y-64715824D01*
X122903309Y-64934750D01*
X123019719Y-64934852D01*
X124927433Y-66842566D01*
X124927436Y-66842568D01*
X126834852Y-68749984D01*
X126834752Y-68864187D01*
X127052757Y-69391800D01*
X127456077Y-69795824D01*
X127983309Y-70014750D01*
X128099720Y-70014852D01*
X135087434Y-77002566D01*
X135455654Y-77248603D01*
X135890000Y-77335000D01*
X137912209Y-77335000D01*
X137957386Y-77365186D01*
X138430000Y-77459195D01*
X138465000Y-77452233D01*
X138465000Y-77494195D01*
X138559009Y-77966809D01*
X138826723Y-78367472D01*
X139227386Y-78635186D01*
X139700000Y-78729195D01*
X140172614Y-78635186D01*
X140217791Y-78605000D01*
X142240000Y-78605000D01*
X142674346Y-78518603D01*
X143042566Y-78272566D01*
X146269939Y-75045193D01*
X146324285Y-75045240D01*
X146833515Y-74834831D01*
X147223461Y-74445564D01*
X147434759Y-73936702D01*
X147434808Y-73880324D01*
X149392566Y-71922567D01*
X149638603Y-71554346D01*
X149667973Y-71406691D01*
X149668471Y-71404187D01*
X150964752Y-71404187D01*
X151182757Y-71931800D01*
X151586077Y-72335824D01*
X152113309Y-72554750D01*
X152229720Y-72554852D01*
X154774852Y-75099984D01*
X154774752Y-75214187D01*
X154992757Y-75741800D01*
X155396077Y-76145824D01*
X155923309Y-76364750D01*
X156494187Y-76365248D01*
X157021800Y-76147243D01*
X157425824Y-75743923D01*
X157644750Y-75216691D01*
X157645248Y-74645813D01*
X157427243Y-74118200D01*
X157023923Y-73714176D01*
X156496691Y-73495250D01*
X156380281Y-73495148D01*
X155910132Y-73025000D01*
X156387283Y-72547849D01*
X156759151Y-72473880D01*
X157224698Y-72162811D01*
X157535767Y-71697264D01*
X157645000Y-71148113D01*
X157645000Y-71091887D01*
X157535767Y-70542736D01*
X157224698Y-70077189D01*
X156759151Y-69766120D01*
X156210000Y-69656887D01*
X155660849Y-69766120D01*
X155195302Y-70077189D01*
X154884233Y-70542736D01*
X154810264Y-70914604D01*
X154305000Y-71419868D01*
X153835148Y-70950016D01*
X153835248Y-70835813D01*
X153617243Y-70308200D01*
X153213923Y-69904176D01*
X152686691Y-69685250D01*
X152115813Y-69684752D01*
X151588200Y-69902757D01*
X151184176Y-70306077D01*
X150965250Y-70833309D01*
X150964752Y-71404187D01*
X149668471Y-71404187D01*
X149725000Y-71120000D01*
X149725000Y-69919018D01*
X149841441Y-69844090D01*
X149986431Y-69631890D01*
X150037440Y-69380000D01*
X150037440Y-67780000D01*
X149993162Y-67544683D01*
X149854090Y-67328559D01*
X149641890Y-67183569D01*
X149390000Y-67132560D01*
X147790000Y-67132560D01*
X147554683Y-67176838D01*
X147338559Y-67315910D01*
X147193569Y-67528110D01*
X147142560Y-67780000D01*
X147142560Y-69380000D01*
X147186838Y-69615317D01*
X147325910Y-69831441D01*
X147455000Y-69919644D01*
X147455000Y-70649867D01*
X146050000Y-72054867D01*
X144645000Y-70649868D01*
X144645000Y-69456728D01*
X144863880Y-69129151D01*
X144973113Y-68580000D01*
X144863880Y-68030849D01*
X144552811Y-67565302D01*
X144087264Y-67254233D01*
X143538113Y-67145000D01*
X143481887Y-67145000D01*
X142932736Y-67254233D01*
X142467189Y-67565302D01*
X142156120Y-68030849D01*
X142046887Y-68580000D01*
X142156120Y-69129151D01*
X142375000Y-69456728D01*
X142375000Y-71120000D01*
X142461397Y-71554346D01*
X142556892Y-71697264D01*
X142707434Y-71922566D01*
X144444868Y-73660000D01*
X141769868Y-76335000D01*
X140217791Y-76335000D01*
X140172614Y-76304814D01*
X140158261Y-76301959D01*
X140172614Y-76299104D01*
X140573277Y-76031390D01*
X140840991Y-75630727D01*
X140935000Y-75158113D01*
X140935000Y-74701887D01*
X140840991Y-74229273D01*
X140835000Y-74220307D01*
X140835000Y-69850000D01*
X140802130Y-69684752D01*
X140748604Y-69415655D01*
X140502567Y-69047434D01*
X136574172Y-65119039D01*
X142118096Y-65119039D01*
X142278959Y-65507423D01*
X142654866Y-65922389D01*
X143160959Y-66161914D01*
X143383000Y-66040629D01*
X143383000Y-64897000D01*
X143637000Y-64897000D01*
X143637000Y-66040629D01*
X143859041Y-66161914D01*
X144365134Y-65922389D01*
X144741041Y-65507423D01*
X144901904Y-65119039D01*
X144779915Y-64897000D01*
X143637000Y-64897000D01*
X143383000Y-64897000D01*
X142240085Y-64897000D01*
X142118096Y-65119039D01*
X136574172Y-65119039D01*
X135876094Y-64420961D01*
X142118096Y-64420961D01*
X142240085Y-64643000D01*
X143383000Y-64643000D01*
X143383000Y-63499371D01*
X143637000Y-63499371D01*
X143637000Y-64643000D01*
X144779915Y-64643000D01*
X144901904Y-64420961D01*
X144741041Y-64032577D01*
X144365134Y-63617611D01*
X143859041Y-63378086D01*
X143637000Y-63499371D01*
X143383000Y-63499371D01*
X143160959Y-63378086D01*
X142654866Y-63617611D01*
X142278959Y-64032577D01*
X142118096Y-64420961D01*
X135876094Y-64420961D01*
X132764172Y-61309039D01*
X142118096Y-61309039D01*
X142278959Y-61697423D01*
X142654866Y-62112389D01*
X143160959Y-62351914D01*
X143383000Y-62230629D01*
X143383000Y-61087000D01*
X143637000Y-61087000D01*
X143637000Y-62230629D01*
X143859041Y-62351914D01*
X144365134Y-62112389D01*
X144741041Y-61697423D01*
X144901904Y-61309039D01*
X144779915Y-61087000D01*
X143637000Y-61087000D01*
X143383000Y-61087000D01*
X142240085Y-61087000D01*
X142118096Y-61309039D01*
X132764172Y-61309039D01*
X132066094Y-60610961D01*
X142118096Y-60610961D01*
X142240085Y-60833000D01*
X143383000Y-60833000D01*
X143383000Y-59689371D01*
X143637000Y-59689371D01*
X143637000Y-60833000D01*
X144779915Y-60833000D01*
X144901904Y-60610961D01*
X144741041Y-60222577D01*
X144365134Y-59807611D01*
X143859041Y-59568086D01*
X143637000Y-59689371D01*
X143383000Y-59689371D01*
X143160959Y-59568086D01*
X142654866Y-59807611D01*
X142278959Y-60222577D01*
X142118096Y-60610961D01*
X132066094Y-60610961D01*
X131612566Y-60157434D01*
X131563045Y-60124345D01*
X131244346Y-59911397D01*
X130810000Y-59825000D01*
X129164606Y-59825000D01*
X129083923Y-59744176D01*
X128556691Y-59525250D01*
X128440280Y-59525148D01*
X127802566Y-58887434D01*
X127434346Y-58641397D01*
X127000000Y-58555000D01*
X124013958Y-58555000D01*
X123975564Y-58516539D01*
X123466702Y-58305241D01*
X122915715Y-58304760D01*
X122406485Y-58515169D01*
X122016539Y-58904436D01*
X121805241Y-59413298D01*
X121804760Y-59964285D01*
X122015169Y-60473515D01*
X122404436Y-60863461D01*
X122913298Y-61074759D01*
X123464285Y-61075240D01*
X123973515Y-60864831D01*
X124013415Y-60825000D01*
X126529868Y-60825000D01*
X126834852Y-61129984D01*
X126834752Y-61244187D01*
X127052757Y-61771800D01*
X127456077Y-62175824D01*
X127983309Y-62394750D01*
X128554187Y-62395248D01*
X129081800Y-62177243D01*
X129164187Y-62095000D01*
X130339868Y-62095000D01*
X138565000Y-70320133D01*
X138565000Y-74220307D01*
X138559009Y-74229273D01*
X138465000Y-74701887D01*
X138465000Y-74947767D01*
X138430000Y-74940805D01*
X137957386Y-75034814D01*
X137912209Y-75065000D01*
X136360132Y-75065000D01*
X129705148Y-68410016D01*
X129705248Y-68295813D01*
X129487243Y-67768200D01*
X129083923Y-67364176D01*
X128556691Y-67145250D01*
X128440281Y-67145148D01*
X127970132Y-66675000D01*
X128439984Y-66205148D01*
X128554187Y-66205248D01*
X129081800Y-65987243D01*
X129485824Y-65583923D01*
X129704750Y-65056691D01*
X129705248Y-64485813D01*
X129487243Y-63958200D01*
X129083923Y-63554176D01*
X128556691Y-63335250D01*
X127985813Y-63334752D01*
X127458200Y-63552757D01*
X127054176Y-63956077D01*
X126835250Y-64483309D01*
X126835148Y-64599720D01*
X126365000Y-65069868D01*
X124625148Y-63330016D01*
X124625248Y-63215813D01*
X124407243Y-62688200D01*
X124003923Y-62284176D01*
X123476691Y-62065250D01*
X122905813Y-62064752D01*
X122378200Y-62282757D01*
X121974176Y-62686077D01*
X121755250Y-63213309D01*
X121754752Y-63784187D01*
X119999319Y-63784187D01*
X118912566Y-62697434D01*
X118895569Y-62686077D01*
X118544346Y-62451397D01*
X118110000Y-62365000D01*
X111993222Y-62365000D01*
X111993162Y-62364683D01*
X111854090Y-62148559D01*
X111641890Y-62003569D01*
X111390000Y-61952560D01*
X109590000Y-61952560D01*
X109354683Y-61996838D01*
X109138559Y-62135910D01*
X109085000Y-62214296D01*
X109085000Y-61430132D01*
X109690132Y-60825000D01*
X114300000Y-60825000D01*
X114734346Y-60738603D01*
X115102566Y-60492566D01*
X118912566Y-56682566D01*
X119158604Y-56314345D01*
X119245000Y-55880000D01*
X119245000Y-53810132D01*
X119850132Y-53205000D01*
X122832607Y-53205000D01*
X122378200Y-53392757D01*
X121974176Y-53796077D01*
X121755250Y-54323309D01*
X121754752Y-54894187D01*
X121972757Y-55421800D01*
X122376077Y-55825824D01*
X122903309Y-56044750D01*
X123474187Y-56045248D01*
X124001800Y-55827243D01*
X124084187Y-55745000D01*
X125259868Y-55745000D01*
X126834852Y-57319984D01*
X126834752Y-57434187D01*
X127052757Y-57961800D01*
X127456077Y-58365824D01*
X127983309Y-58584750D01*
X128554187Y-58585248D01*
X129081800Y-58367243D01*
X129485824Y-57963923D01*
X129704750Y-57436691D01*
X129705248Y-56865813D01*
X129487243Y-56338200D01*
X129083923Y-55934176D01*
X128556691Y-55715250D01*
X128440281Y-55715148D01*
X126532566Y-53807434D01*
X126483045Y-53774345D01*
X126164346Y-53561397D01*
X125730000Y-53475000D01*
X124084606Y-53475000D01*
X124003923Y-53394176D01*
X123548337Y-53205000D01*
X129069868Y-53205000D01*
X130007434Y-54142566D01*
X130375654Y-54388603D01*
X130810000Y-54475000D01*
X131846778Y-54475000D01*
X131846838Y-54475317D01*
X131985910Y-54691441D01*
X132198110Y-54836431D01*
X132450000Y-54887440D01*
X134250000Y-54887440D01*
X134485317Y-54843162D01*
X134701441Y-54704090D01*
X134755000Y-54625704D01*
X134755000Y-55880000D01*
X134841397Y-56314346D01*
X134863506Y-56347434D01*
X135087434Y-56682566D01*
X136357434Y-57952566D01*
X136725654Y-58198603D01*
X137160000Y-58285000D01*
X139700000Y-58285000D01*
X140134346Y-58198603D01*
X140502566Y-57952566D01*
X140956093Y-57499039D01*
X142118096Y-57499039D01*
X142278959Y-57887423D01*
X142654866Y-58302389D01*
X143160959Y-58541914D01*
X143383000Y-58420629D01*
X143383000Y-57277000D01*
X143637000Y-57277000D01*
X143637000Y-58420629D01*
X143859041Y-58541914D01*
X144365134Y-58302389D01*
X144741041Y-57887423D01*
X144901904Y-57499039D01*
X144779915Y-57277000D01*
X143637000Y-57277000D01*
X143383000Y-57277000D01*
X142240085Y-57277000D01*
X142118096Y-57499039D01*
X140956093Y-57499039D01*
X141654171Y-56800961D01*
X142118096Y-56800961D01*
X142240085Y-57023000D01*
X143383000Y-57023000D01*
X143383000Y-55879371D01*
X143637000Y-55879371D01*
X143637000Y-57023000D01*
X144779915Y-57023000D01*
X144901904Y-56800961D01*
X144741041Y-56412577D01*
X144365134Y-55997611D01*
X143859041Y-55758086D01*
X143637000Y-55879371D01*
X143383000Y-55879371D01*
X143160959Y-55758086D01*
X142654866Y-55997611D01*
X142278959Y-56412577D01*
X142118096Y-56800961D01*
X141654171Y-56800961D01*
X143980132Y-54475000D01*
X148297846Y-54475000D01*
X148040849Y-54526120D01*
X147575302Y-54837189D01*
X147264233Y-55302736D01*
X147155000Y-55851887D01*
X147155000Y-55908113D01*
X147264233Y-56457264D01*
X147575302Y-56922811D01*
X148040849Y-57233880D01*
X148590000Y-57343113D01*
X149139151Y-57233880D01*
X149466728Y-57015000D01*
X151523272Y-57015000D01*
X151850849Y-57233880D01*
X152400000Y-57343113D01*
X152949151Y-57233880D01*
X153414698Y-56922811D01*
X153725767Y-56457264D01*
X153835000Y-55908113D01*
X153835000Y-55851887D01*
X153725767Y-55302736D01*
X153414698Y-54837189D01*
X152949151Y-54526120D01*
X152692154Y-54475000D01*
X154469868Y-54475000D01*
X155027590Y-55032722D01*
X154994176Y-55066077D01*
X154775250Y-55593309D01*
X154774752Y-56164187D01*
X154992757Y-56691800D01*
X155396077Y-57095824D01*
X155923309Y-57314750D01*
X156494187Y-57315248D01*
X157021800Y-57097243D01*
X157244408Y-56875022D01*
X163304584Y-56875022D01*
X163525353Y-57245743D01*
X164497012Y-57639119D01*
X165545247Y-57630713D01*
X166474647Y-57245743D01*
X166695416Y-56875022D01*
X165000000Y-55179605D01*
X163304584Y-56875022D01*
X157244408Y-56875022D01*
X157425824Y-56693923D01*
X157644750Y-56166691D01*
X157645248Y-55595813D01*
X157427243Y-55068200D01*
X157345000Y-54985813D01*
X157345000Y-54610000D01*
X157322526Y-54497012D01*
X162360881Y-54497012D01*
X162369287Y-55545247D01*
X162754257Y-56474647D01*
X163124978Y-56695416D01*
X164820395Y-55000000D01*
X165179605Y-55000000D01*
X166875022Y-56695416D01*
X167245743Y-56474647D01*
X167639119Y-55502988D01*
X167630713Y-54454753D01*
X167245743Y-53525353D01*
X166875022Y-53304584D01*
X165179605Y-55000000D01*
X164820395Y-55000000D01*
X163124978Y-53304584D01*
X162754257Y-53525353D01*
X162360881Y-54497012D01*
X157322526Y-54497012D01*
X157258603Y-54175654D01*
X157012566Y-53807434D01*
X156330110Y-53124978D01*
X163304584Y-53124978D01*
X165000000Y-54820395D01*
X166695416Y-53124978D01*
X166474647Y-52754257D01*
X165502988Y-52360881D01*
X164454753Y-52369287D01*
X163525353Y-52754257D01*
X163304584Y-53124978D01*
X156330110Y-53124978D01*
X155742566Y-52537434D01*
X155644082Y-52471629D01*
X155374346Y-52291397D01*
X154940000Y-52205000D01*
X143510000Y-52205000D01*
X143075655Y-52291396D01*
X142707434Y-52537434D01*
X139229868Y-56015000D01*
X137630132Y-56015000D01*
X137025000Y-55409868D01*
X137025000Y-54420159D01*
X137529446Y-54420159D01*
X137615852Y-54676643D01*
X138189336Y-54886458D01*
X138799460Y-54860839D01*
X139244148Y-54676643D01*
X139330554Y-54420159D01*
X138430000Y-53519605D01*
X137529446Y-54420159D01*
X137025000Y-54420159D01*
X137025000Y-54375905D01*
X137190551Y-54210643D01*
X137199203Y-54189806D01*
X137349841Y-54240554D01*
X138250395Y-53340000D01*
X138609605Y-53340000D01*
X139510159Y-54240554D01*
X139766643Y-54154148D01*
X139976458Y-53580664D01*
X139950839Y-52970540D01*
X139766643Y-52525852D01*
X139510159Y-52439446D01*
X138609605Y-53340000D01*
X138250395Y-53340000D01*
X137349841Y-52439446D01*
X137199673Y-52490035D01*
X137192068Y-52471629D01*
X136980650Y-52259841D01*
X137529446Y-52259841D01*
X138430000Y-53160395D01*
X139330554Y-52259841D01*
X139244148Y-52003357D01*
X138670664Y-51793542D01*
X138060540Y-51819161D01*
X137615852Y-52003357D01*
X137529446Y-52259841D01*
X136980650Y-52259841D01*
X136760643Y-52039449D01*
X136196670Y-51805267D01*
X135586009Y-51804735D01*
X135021629Y-52037932D01*
X134853387Y-52205880D01*
X134853162Y-52204683D01*
X134714090Y-51988559D01*
X134501890Y-51843569D01*
X134250000Y-51792560D01*
X132450000Y-51792560D01*
X132214683Y-51836838D01*
X131998559Y-51975910D01*
X131853569Y-52188110D01*
X131850149Y-52205000D01*
X131280132Y-52205000D01*
X130342566Y-51267434D01*
X129974346Y-51021397D01*
X129540000Y-50935000D01*
X119380000Y-50935000D01*
X118945654Y-51021397D01*
X118577434Y-51267434D01*
X117307434Y-52537434D01*
X117061397Y-52905654D01*
X116975000Y-53340000D01*
X116975000Y-55409868D01*
X113829868Y-58555000D01*
X109220000Y-58555000D01*
X108785654Y-58641397D01*
X108417434Y-58887434D01*
X107147434Y-60157434D01*
X106901397Y-60525654D01*
X106815000Y-60960000D01*
X105710000Y-60960000D01*
X105710000Y-56875022D01*
X108304584Y-56875022D01*
X108525353Y-57245743D01*
X109497012Y-57639119D01*
X110545247Y-57630713D01*
X111474647Y-57245743D01*
X111695416Y-56875022D01*
X110000000Y-55179605D01*
X108304584Y-56875022D01*
X105710000Y-56875022D01*
X105710000Y-54497012D01*
X107360881Y-54497012D01*
X107369287Y-55545247D01*
X107754257Y-56474647D01*
X108124978Y-56695416D01*
X109820395Y-55000000D01*
X110179605Y-55000000D01*
X111875022Y-56695416D01*
X112245743Y-56474647D01*
X112639119Y-55502988D01*
X112630713Y-54454753D01*
X112245743Y-53525353D01*
X111875022Y-53304584D01*
X110179605Y-55000000D01*
X109820395Y-55000000D01*
X108124978Y-53304584D01*
X107754257Y-53525353D01*
X107360881Y-54497012D01*
X105710000Y-54497012D01*
X105710000Y-53124978D01*
X108304584Y-53124978D01*
X110000000Y-54820395D01*
X111695416Y-53124978D01*
X111474647Y-52754257D01*
X110502988Y-52360881D01*
X109454753Y-52369287D01*
X108525353Y-52754257D01*
X108304584Y-53124978D01*
X105710000Y-53124978D01*
X105710000Y-50710000D01*
X169290000Y-50710000D01*
X169290000Y-99290000D01*
X169290000Y-99290000D01*
G37*
X169290000Y-99290000D02*
X105710000Y-99290000D01*
X105710000Y-96875022D01*
X108304584Y-96875022D01*
X108525353Y-97245743D01*
X109497012Y-97639119D01*
X110545247Y-97630713D01*
X111474647Y-97245743D01*
X111695416Y-96875022D01*
X110000000Y-95179605D01*
X108304584Y-96875022D01*
X105710000Y-96875022D01*
X105710000Y-94497012D01*
X107360881Y-94497012D01*
X107369287Y-95545247D01*
X107754257Y-96474647D01*
X108124978Y-96695416D01*
X109820395Y-95000000D01*
X110179605Y-95000000D01*
X111875022Y-96695416D01*
X112245743Y-96474647D01*
X112600232Y-95599039D01*
X124338096Y-95599039D01*
X124498959Y-95987423D01*
X124874866Y-96402389D01*
X125380959Y-96641914D01*
X125603000Y-96520629D01*
X125603000Y-95377000D01*
X125857000Y-95377000D01*
X125857000Y-96520629D01*
X126079041Y-96641914D01*
X126585134Y-96402389D01*
X126961041Y-95987423D01*
X127121904Y-95599039D01*
X127086275Y-95534187D01*
X139534752Y-95534187D01*
X139752757Y-96061800D01*
X140156077Y-96465824D01*
X140683309Y-96684750D01*
X140799720Y-96684852D01*
X141437434Y-97322566D01*
X141805654Y-97568603D01*
X142240000Y-97655000D01*
X145226042Y-97655000D01*
X145264436Y-97693461D01*
X145773298Y-97904759D01*
X146324285Y-97905240D01*
X146833515Y-97694831D01*
X147223461Y-97305564D01*
X147402237Y-96875022D01*
X163304584Y-96875022D01*
X163525353Y-97245743D01*
X164497012Y-97639119D01*
X165545247Y-97630713D01*
X166474647Y-97245743D01*
X166695416Y-96875022D01*
X165000000Y-95179605D01*
X163304584Y-96875022D01*
X147402237Y-96875022D01*
X147434759Y-96796702D01*
X147435240Y-96245715D01*
X147224831Y-95736485D01*
X146835564Y-95346539D01*
X146326702Y-95135241D01*
X145775715Y-95134760D01*
X145266485Y-95345169D01*
X145226585Y-95385000D01*
X142710132Y-95385000D01*
X142405148Y-95080016D01*
X142405248Y-94965813D01*
X142211544Y-94497012D01*
X162360881Y-94497012D01*
X162369287Y-95545247D01*
X162754257Y-96474647D01*
X163124978Y-96695416D01*
X164820395Y-95000000D01*
X165179605Y-95000000D01*
X166875022Y-96695416D01*
X167245743Y-96474647D01*
X167639119Y-95502988D01*
X167630713Y-94454753D01*
X167245743Y-93525353D01*
X166875022Y-93304584D01*
X165179605Y-95000000D01*
X164820395Y-95000000D01*
X163124978Y-93304584D01*
X162754257Y-93525353D01*
X162360881Y-94497012D01*
X142211544Y-94497012D01*
X142187243Y-94438200D01*
X141783923Y-94034176D01*
X141256691Y-93815250D01*
X140685813Y-93814752D01*
X140158200Y-94032757D01*
X139754176Y-94436077D01*
X139535250Y-94963309D01*
X139534752Y-95534187D01*
X127086275Y-95534187D01*
X126999915Y-95377000D01*
X125857000Y-95377000D01*
X125603000Y-95377000D01*
X124460085Y-95377000D01*
X124338096Y-95599039D01*
X112600232Y-95599039D01*
X112639119Y-95502988D01*
X112634292Y-94900961D01*
X124338096Y-94900961D01*
X124460085Y-95123000D01*
X125603000Y-95123000D01*
X125603000Y-93979371D01*
X125857000Y-93979371D01*
X125857000Y-95123000D01*
X126999915Y-95123000D01*
X127121904Y-94900961D01*
X126961041Y-94512577D01*
X126585134Y-94097611D01*
X126079041Y-93858086D01*
X125857000Y-93979371D01*
X125603000Y-93979371D01*
X125380959Y-93858086D01*
X124874866Y-94097611D01*
X124498959Y-94512577D01*
X124338096Y-94900961D01*
X112634292Y-94900961D01*
X112630713Y-94454753D01*
X112245743Y-93525353D01*
X111875022Y-93304584D01*
X110179605Y-95000000D01*
X109820395Y-95000000D01*
X108124978Y-93304584D01*
X107754257Y-93525353D01*
X107360881Y-94497012D01*
X105710000Y-94497012D01*
X105710000Y-93124978D01*
X108304584Y-93124978D01*
X110000000Y-94820395D01*
X111695416Y-93124978D01*
X163304584Y-93124978D01*
X165000000Y-94820395D01*
X166695416Y-93124978D01*
X166474647Y-92754257D01*
X165502988Y-92360881D01*
X164454753Y-92369287D01*
X163525353Y-92754257D01*
X163304584Y-93124978D01*
X111695416Y-93124978D01*
X111474647Y-92754257D01*
X110502988Y-92360881D01*
X109454753Y-92369287D01*
X108525353Y-92754257D01*
X108304584Y-93124978D01*
X105710000Y-93124978D01*
X105710000Y-91789039D01*
X124338096Y-91789039D01*
X124498959Y-92177423D01*
X124874866Y-92592389D01*
X125380959Y-92831914D01*
X125603000Y-92710629D01*
X125603000Y-91567000D01*
X125857000Y-91567000D01*
X125857000Y-92710629D01*
X126079041Y-92831914D01*
X126585134Y-92592389D01*
X126961041Y-92177423D01*
X127121904Y-91789039D01*
X126999915Y-91567000D01*
X125857000Y-91567000D01*
X125603000Y-91567000D01*
X124460085Y-91567000D01*
X124338096Y-91789039D01*
X105710000Y-91789039D01*
X105710000Y-91090961D01*
X124338096Y-91090961D01*
X124460085Y-91313000D01*
X125603000Y-91313000D01*
X125603000Y-90169371D01*
X125857000Y-90169371D01*
X125857000Y-91313000D01*
X126999915Y-91313000D01*
X127121904Y-91090961D01*
X126961041Y-90702577D01*
X126585134Y-90287611D01*
X126079041Y-90048086D01*
X125857000Y-90169371D01*
X125603000Y-90169371D01*
X125380959Y-90048086D01*
X124874866Y-90287611D01*
X124498959Y-90702577D01*
X124338096Y-91090961D01*
X105710000Y-91090961D01*
X105710000Y-60960000D01*
X106815000Y-60960000D01*
X106815000Y-76200000D01*
X106901397Y-76634346D01*
X107127806Y-76973191D01*
X107147434Y-77002566D01*
X109355000Y-79210133D01*
X109355000Y-88005394D01*
X109274176Y-88086077D01*
X109055250Y-88613309D01*
X109054752Y-89184187D01*
X109272757Y-89711800D01*
X109676077Y-90115824D01*
X110203309Y-90334750D01*
X110774187Y-90335248D01*
X111301800Y-90117243D01*
X111705824Y-89713923D01*
X111924750Y-89186691D01*
X111925024Y-88871887D01*
X112865000Y-88871887D01*
X112865000Y-88928113D01*
X112974233Y-89477264D01*
X113285302Y-89942811D01*
X113750849Y-90253880D01*
X114300000Y-90363113D01*
X114849151Y-90253880D01*
X115176728Y-90035000D01*
X117233272Y-90035000D01*
X117560849Y-90253880D01*
X118110000Y-90363113D01*
X118659151Y-90253880D01*
X119124698Y-89942811D01*
X119435767Y-89477264D01*
X119545000Y-88928113D01*
X119545000Y-88871887D01*
X119435767Y-88322736D01*
X119206116Y-87979039D01*
X124338096Y-87979039D01*
X124498959Y-88367423D01*
X124874866Y-88782389D01*
X125380959Y-89021914D01*
X125603000Y-88900629D01*
X125603000Y-87757000D01*
X125857000Y-87757000D01*
X125857000Y-88900629D01*
X126079041Y-89021914D01*
X126585134Y-88782389D01*
X126961041Y-88367423D01*
X127121904Y-87979039D01*
X126999915Y-87757000D01*
X125857000Y-87757000D01*
X125603000Y-87757000D01*
X124460085Y-87757000D01*
X124338096Y-87979039D01*
X119206116Y-87979039D01*
X119124698Y-87857189D01*
X118659151Y-87546120D01*
X118110000Y-87436887D01*
X117560849Y-87546120D01*
X117233272Y-87765000D01*
X115176728Y-87765000D01*
X114849151Y-87546120D01*
X114300000Y-87436887D01*
X113750849Y-87546120D01*
X113285302Y-87857189D01*
X112974233Y-88322736D01*
X112865000Y-88871887D01*
X111925024Y-88871887D01*
X111925248Y-88615813D01*
X111707243Y-88088200D01*
X111625000Y-88005813D01*
X111625000Y-87280961D01*
X124338096Y-87280961D01*
X124460085Y-87503000D01*
X125603000Y-87503000D01*
X125603000Y-86359371D01*
X125857000Y-86359371D01*
X125857000Y-87503000D01*
X126999915Y-87503000D01*
X127121904Y-87280961D01*
X126961041Y-86892577D01*
X126585134Y-86477611D01*
X126079041Y-86238086D01*
X125857000Y-86359371D01*
X125603000Y-86359371D01*
X125380959Y-86238086D01*
X124874866Y-86477611D01*
X124498959Y-86892577D01*
X124338096Y-87280961D01*
X111625000Y-87280961D01*
X111625000Y-78740000D01*
X111538603Y-78305654D01*
X111312194Y-77966809D01*
X111292566Y-77937433D01*
X109085000Y-75729868D01*
X109085000Y-75400000D01*
X116662560Y-75400000D01*
X116662560Y-77000000D01*
X116706838Y-77235317D01*
X116845910Y-77451441D01*
X117058110Y-77596431D01*
X117310000Y-77647440D01*
X118910000Y-77647440D01*
X119145317Y-77603162D01*
X119361441Y-77464090D01*
X119449644Y-77335000D01*
X121755118Y-77335000D01*
X121754752Y-77754187D01*
X121972757Y-78281800D01*
X122055000Y-78364187D01*
X122055000Y-81280000D01*
X122141397Y-81714346D01*
X122157336Y-81738200D01*
X122387434Y-82082566D01*
X124294852Y-83989984D01*
X124294752Y-84104187D01*
X124512757Y-84631800D01*
X124916077Y-85035824D01*
X125443309Y-85254750D01*
X126014187Y-85255248D01*
X126541800Y-85037243D01*
X126945824Y-84633923D01*
X127164750Y-84106691D01*
X127165248Y-83535813D01*
X126947243Y-83008200D01*
X126543923Y-82604176D01*
X126016691Y-82385250D01*
X125900281Y-82385148D01*
X124325000Y-80809868D01*
X124325000Y-78364606D01*
X124405824Y-78283923D01*
X124624750Y-77756691D01*
X124625118Y-77335000D01*
X125730000Y-77335000D01*
X126164346Y-77248603D01*
X126532566Y-77002566D01*
X127470132Y-76065000D01*
X129022209Y-76065000D01*
X129067386Y-76095186D01*
X129081739Y-76098041D01*
X129067386Y-76100896D01*
X128666723Y-76368610D01*
X128399009Y-76769273D01*
X128305000Y-77241887D01*
X128305000Y-77698113D01*
X128399009Y-78170727D01*
X128405000Y-78179693D01*
X128405000Y-82550000D01*
X128491397Y-82984346D01*
X128737434Y-83352566D01*
X137627434Y-92242567D01*
X137995655Y-92488604D01*
X138430000Y-92575000D01*
X140075394Y-92575000D01*
X140156077Y-92655824D01*
X140683309Y-92874750D01*
X141254187Y-92875248D01*
X141781800Y-92657243D01*
X141864187Y-92575000D01*
X145155394Y-92575000D01*
X145236077Y-92655824D01*
X145763309Y-92874750D01*
X146334187Y-92875248D01*
X146861800Y-92657243D01*
X147265824Y-92253923D01*
X147484750Y-91726691D01*
X147485248Y-91155813D01*
X147267243Y-90628200D01*
X146863923Y-90224176D01*
X146336691Y-90005250D01*
X145765813Y-90004752D01*
X145238200Y-90222757D01*
X145155813Y-90305000D01*
X141864606Y-90305000D01*
X141783923Y-90224176D01*
X141256691Y-90005250D01*
X140685813Y-90004752D01*
X140158200Y-90222757D01*
X140075813Y-90305000D01*
X138900133Y-90305000D01*
X130675000Y-82079868D01*
X130675000Y-78179693D01*
X130680991Y-78170727D01*
X130763051Y-77758183D01*
X137627434Y-84622566D01*
X137995654Y-84868603D01*
X138430000Y-84955000D01*
X139835000Y-84955000D01*
X139835000Y-86735394D01*
X139754176Y-86816077D01*
X139535250Y-87343309D01*
X139534752Y-87914187D01*
X139752757Y-88441800D01*
X140156077Y-88845824D01*
X140683309Y-89064750D01*
X141254187Y-89065248D01*
X141781800Y-88847243D01*
X141864187Y-88765000D01*
X145226042Y-88765000D01*
X145264436Y-88803461D01*
X145773298Y-89014759D01*
X146324285Y-89015240D01*
X146833515Y-88804831D01*
X147223461Y-88415564D01*
X147434759Y-87906702D01*
X147435240Y-87355715D01*
X147224831Y-86846485D01*
X146835564Y-86456539D01*
X146326702Y-86245241D01*
X145775715Y-86244760D01*
X145266485Y-86455169D01*
X145226585Y-86495000D01*
X142105000Y-86495000D01*
X142105000Y-84696728D01*
X142323880Y-84369151D01*
X142433113Y-83820000D01*
X142323880Y-83270849D01*
X142012811Y-82805302D01*
X141547264Y-82494233D01*
X140998113Y-82385000D01*
X140941887Y-82385000D01*
X140392736Y-82494233D01*
X140107233Y-82685000D01*
X138900132Y-82685000D01*
X135239319Y-79024187D01*
X144614752Y-79024187D01*
X144832757Y-79551800D01*
X144915000Y-79634187D01*
X144915000Y-81655394D01*
X144834176Y-81736077D01*
X144615250Y-82263309D01*
X144614752Y-82834187D01*
X144832757Y-83361800D01*
X145236077Y-83765824D01*
X145763309Y-83984750D01*
X146334187Y-83985248D01*
X146861800Y-83767243D01*
X146944187Y-83685000D01*
X161056778Y-83685000D01*
X161056838Y-83685317D01*
X161195910Y-83901441D01*
X161408110Y-84046431D01*
X161660000Y-84097440D01*
X163460000Y-84097440D01*
X163695317Y-84053162D01*
X163911441Y-83914090D01*
X164056431Y-83701890D01*
X164107440Y-83450000D01*
X164107440Y-81650000D01*
X164063162Y-81414683D01*
X163924090Y-81198559D01*
X163720426Y-81059402D01*
X163754718Y-81025110D01*
X163640161Y-80910553D01*
X163896643Y-80824148D01*
X164106458Y-80250664D01*
X164080839Y-79640540D01*
X163896643Y-79195852D01*
X163640159Y-79109446D01*
X162739605Y-80010000D01*
X162753748Y-80024143D01*
X162574143Y-80203748D01*
X162560000Y-80189605D01*
X162545858Y-80203748D01*
X162366253Y-80024143D01*
X162380395Y-80010000D01*
X161479841Y-79109446D01*
X161223357Y-79195852D01*
X161013542Y-79769336D01*
X161039161Y-80379460D01*
X161223357Y-80824148D01*
X161479839Y-80910553D01*
X161365282Y-81025110D01*
X161401760Y-81061588D01*
X161208559Y-81185910D01*
X161063569Y-81398110D01*
X161060149Y-81415000D01*
X147185000Y-81415000D01*
X147185000Y-80981517D01*
X155418088Y-80981517D01*
X155486077Y-81222460D01*
X156005171Y-81407201D01*
X156555448Y-81379230D01*
X156933923Y-81222460D01*
X157001912Y-80981517D01*
X156210000Y-80189605D01*
X155418088Y-80981517D01*
X147185000Y-80981517D01*
X147185000Y-79805171D01*
X154812799Y-79805171D01*
X154840770Y-80355448D01*
X154997540Y-80733923D01*
X155238483Y-80801912D01*
X156030395Y-80010000D01*
X156389605Y-80010000D01*
X157181517Y-80801912D01*
X157422460Y-80733923D01*
X157607201Y-80214829D01*
X157579230Y-79664552D01*
X157422460Y-79286077D01*
X157181517Y-79218088D01*
X156389605Y-80010000D01*
X156030395Y-80010000D01*
X155238483Y-79218088D01*
X154997540Y-79286077D01*
X154812799Y-79805171D01*
X147185000Y-79805171D01*
X147185000Y-79634606D01*
X147265824Y-79553923D01*
X147479853Y-79038483D01*
X155418088Y-79038483D01*
X156210000Y-79830395D01*
X157001912Y-79038483D01*
X156971256Y-78929841D01*
X161659446Y-78929841D01*
X162560000Y-79830395D01*
X163460554Y-78929841D01*
X163374148Y-78673357D01*
X162800664Y-78463542D01*
X162190540Y-78489161D01*
X161745852Y-78673357D01*
X161659446Y-78929841D01*
X156971256Y-78929841D01*
X156933923Y-78797540D01*
X156414829Y-78612799D01*
X155864552Y-78640770D01*
X155486077Y-78797540D01*
X155418088Y-79038483D01*
X147479853Y-79038483D01*
X147484750Y-79026691D01*
X147485248Y-78455813D01*
X147267243Y-77928200D01*
X146863923Y-77524176D01*
X146336691Y-77305250D01*
X145765813Y-77304752D01*
X145238200Y-77522757D01*
X144834176Y-77926077D01*
X144615250Y-78453309D01*
X144614752Y-79024187D01*
X135239319Y-79024187D01*
X131959103Y-75743971D01*
X131950991Y-75703191D01*
X131683277Y-75302528D01*
X131282614Y-75034814D01*
X130810000Y-74940805D01*
X130775000Y-74947767D01*
X130775000Y-74905805D01*
X130680991Y-74433191D01*
X130413277Y-74032528D01*
X130012614Y-73764814D01*
X129540000Y-73670805D01*
X129067386Y-73764814D01*
X129022209Y-73795000D01*
X127000000Y-73795000D01*
X126565654Y-73881397D01*
X126467935Y-73946691D01*
X126197434Y-74127434D01*
X125259868Y-75065000D01*
X119449018Y-75065000D01*
X119374090Y-74948559D01*
X119161890Y-74803569D01*
X118910000Y-74752560D01*
X117310000Y-74752560D01*
X117074683Y-74796838D01*
X116858559Y-74935910D01*
X116713569Y-75148110D01*
X116662560Y-75400000D01*
X109085000Y-75400000D01*
X109085000Y-73838933D01*
X109164233Y-74237264D01*
X109475302Y-74702811D01*
X109940849Y-75013880D01*
X110490000Y-75123113D01*
X111039151Y-75013880D01*
X111366728Y-74795000D01*
X113405394Y-74795000D01*
X113486077Y-74875824D01*
X114013309Y-75094750D01*
X114584187Y-75095248D01*
X115111800Y-74877243D01*
X115515824Y-74473923D01*
X115734750Y-73946691D01*
X115734852Y-73830280D01*
X116040132Y-73525000D01*
X117215394Y-73525000D01*
X117296077Y-73605824D01*
X117823309Y-73824750D01*
X118394187Y-73825248D01*
X118921800Y-73607243D01*
X119325824Y-73203923D01*
X119544750Y-72676691D01*
X119545248Y-72105813D01*
X119327243Y-71578200D01*
X118923923Y-71174176D01*
X118396691Y-70955250D01*
X117825813Y-70954752D01*
X117298200Y-71172757D01*
X117215813Y-71255000D01*
X115570000Y-71255000D01*
X115135654Y-71341397D01*
X115037935Y-71406691D01*
X114767434Y-71587434D01*
X114130016Y-72224852D01*
X114015813Y-72224752D01*
X113488200Y-72442757D01*
X113405813Y-72525000D01*
X111366728Y-72525000D01*
X111039151Y-72306120D01*
X110490000Y-72196887D01*
X109940849Y-72306120D01*
X109475302Y-72617189D01*
X109164233Y-73082736D01*
X109085000Y-73481067D01*
X109085000Y-68281517D01*
X117318088Y-68281517D01*
X117386077Y-68522460D01*
X117905171Y-68707201D01*
X118455448Y-68679230D01*
X118833923Y-68522460D01*
X118901912Y-68281517D01*
X118110000Y-67489605D01*
X117318088Y-68281517D01*
X109085000Y-68281517D01*
X109085000Y-67120159D01*
X109589446Y-67120159D01*
X109675852Y-67376643D01*
X110249336Y-67586458D01*
X110859460Y-67560839D01*
X111304148Y-67376643D01*
X111390554Y-67120159D01*
X111375566Y-67105171D01*
X116712799Y-67105171D01*
X116740770Y-67655448D01*
X116897540Y-68033923D01*
X117138483Y-68101912D01*
X117930395Y-67310000D01*
X118289605Y-67310000D01*
X119081517Y-68101912D01*
X119322460Y-68033923D01*
X119507201Y-67514829D01*
X119479230Y-66964552D01*
X119322460Y-66586077D01*
X119081517Y-66518088D01*
X118289605Y-67310000D01*
X117930395Y-67310000D01*
X117138483Y-66518088D01*
X116897540Y-66586077D01*
X116712799Y-67105171D01*
X111375566Y-67105171D01*
X110490000Y-66219605D01*
X109589446Y-67120159D01*
X109085000Y-67120159D01*
X109085000Y-66689120D01*
X109153357Y-66854148D01*
X109409841Y-66940554D01*
X110310395Y-66040000D01*
X110296253Y-66025858D01*
X110475858Y-65846253D01*
X110490000Y-65860395D01*
X110504143Y-65846253D01*
X110683748Y-66025858D01*
X110669605Y-66040000D01*
X111570159Y-66940554D01*
X111826643Y-66854148D01*
X112015304Y-66338483D01*
X117318088Y-66338483D01*
X118110000Y-67130395D01*
X118901912Y-66338483D01*
X118833923Y-66097540D01*
X118314829Y-65912799D01*
X117764552Y-65940770D01*
X117386077Y-66097540D01*
X117318088Y-66338483D01*
X112015304Y-66338483D01*
X112036458Y-66280664D01*
X112010839Y-65670540D01*
X111826643Y-65225852D01*
X111570161Y-65139447D01*
X111684718Y-65024890D01*
X111648240Y-64988412D01*
X111841441Y-64864090D01*
X111986431Y-64651890D01*
X111989851Y-64635000D01*
X117639868Y-64635000D01*
X121804807Y-68799939D01*
X121804760Y-68854285D01*
X122015169Y-69363515D01*
X122055000Y-69403415D01*
X122055000Y-71566042D01*
X122016539Y-71604436D01*
X121805241Y-72113298D01*
X121804760Y-72664285D01*
X122015169Y-73173515D01*
X122404436Y-73563461D01*
X122913298Y-73774759D01*
X123464285Y-73775240D01*
X123973515Y-73564831D01*
X124363461Y-73175564D01*
X124574759Y-72666702D01*
X124575240Y-72115715D01*
X124364831Y-71606485D01*
X124325000Y-71566585D01*
X124325000Y-69403958D01*
X124363461Y-69365564D01*
X124574759Y-68856702D01*
X124575240Y-68305715D01*
X124364831Y-67796485D01*
X123975564Y-67406539D01*
X123466702Y-67195241D01*
X123410324Y-67195192D01*
X119999319Y-63784187D01*
X121754752Y-63784187D01*
X121972757Y-64311800D01*
X122376077Y-64715824D01*
X122903309Y-64934750D01*
X123019719Y-64934852D01*
X124927433Y-66842566D01*
X124927436Y-66842568D01*
X126834852Y-68749984D01*
X126834752Y-68864187D01*
X127052757Y-69391800D01*
X127456077Y-69795824D01*
X127983309Y-70014750D01*
X128099720Y-70014852D01*
X135087434Y-77002566D01*
X135455654Y-77248603D01*
X135890000Y-77335000D01*
X137912209Y-77335000D01*
X137957386Y-77365186D01*
X138430000Y-77459195D01*
X138465000Y-77452233D01*
X138465000Y-77494195D01*
X138559009Y-77966809D01*
X138826723Y-78367472D01*
X139227386Y-78635186D01*
X139700000Y-78729195D01*
X140172614Y-78635186D01*
X140217791Y-78605000D01*
X142240000Y-78605000D01*
X142674346Y-78518603D01*
X143042566Y-78272566D01*
X146269939Y-75045193D01*
X146324285Y-75045240D01*
X146833515Y-74834831D01*
X147223461Y-74445564D01*
X147434759Y-73936702D01*
X147434808Y-73880324D01*
X149392566Y-71922567D01*
X149638603Y-71554346D01*
X149667973Y-71406691D01*
X149668471Y-71404187D01*
X150964752Y-71404187D01*
X151182757Y-71931800D01*
X151586077Y-72335824D01*
X152113309Y-72554750D01*
X152229720Y-72554852D01*
X154774852Y-75099984D01*
X154774752Y-75214187D01*
X154992757Y-75741800D01*
X155396077Y-76145824D01*
X155923309Y-76364750D01*
X156494187Y-76365248D01*
X157021800Y-76147243D01*
X157425824Y-75743923D01*
X157644750Y-75216691D01*
X157645248Y-74645813D01*
X157427243Y-74118200D01*
X157023923Y-73714176D01*
X156496691Y-73495250D01*
X156380281Y-73495148D01*
X155910132Y-73025000D01*
X156387283Y-72547849D01*
X156759151Y-72473880D01*
X157224698Y-72162811D01*
X157535767Y-71697264D01*
X157645000Y-71148113D01*
X157645000Y-71091887D01*
X157535767Y-70542736D01*
X157224698Y-70077189D01*
X156759151Y-69766120D01*
X156210000Y-69656887D01*
X155660849Y-69766120D01*
X155195302Y-70077189D01*
X154884233Y-70542736D01*
X154810264Y-70914604D01*
X154305000Y-71419868D01*
X153835148Y-70950016D01*
X153835248Y-70835813D01*
X153617243Y-70308200D01*
X153213923Y-69904176D01*
X152686691Y-69685250D01*
X152115813Y-69684752D01*
X151588200Y-69902757D01*
X151184176Y-70306077D01*
X150965250Y-70833309D01*
X150964752Y-71404187D01*
X149668471Y-71404187D01*
X149725000Y-71120000D01*
X149725000Y-69919018D01*
X149841441Y-69844090D01*
X149986431Y-69631890D01*
X150037440Y-69380000D01*
X150037440Y-67780000D01*
X149993162Y-67544683D01*
X149854090Y-67328559D01*
X149641890Y-67183569D01*
X149390000Y-67132560D01*
X147790000Y-67132560D01*
X147554683Y-67176838D01*
X147338559Y-67315910D01*
X147193569Y-67528110D01*
X147142560Y-67780000D01*
X147142560Y-69380000D01*
X147186838Y-69615317D01*
X147325910Y-69831441D01*
X147455000Y-69919644D01*
X147455000Y-70649867D01*
X146050000Y-72054867D01*
X144645000Y-70649868D01*
X144645000Y-69456728D01*
X144863880Y-69129151D01*
X144973113Y-68580000D01*
X144863880Y-68030849D01*
X144552811Y-67565302D01*
X144087264Y-67254233D01*
X143538113Y-67145000D01*
X143481887Y-67145000D01*
X142932736Y-67254233D01*
X142467189Y-67565302D01*
X142156120Y-68030849D01*
X142046887Y-68580000D01*
X142156120Y-69129151D01*
X142375000Y-69456728D01*
X142375000Y-71120000D01*
X142461397Y-71554346D01*
X142556892Y-71697264D01*
X142707434Y-71922566D01*
X144444868Y-73660000D01*
X141769868Y-76335000D01*
X140217791Y-76335000D01*
X140172614Y-76304814D01*
X140158261Y-76301959D01*
X140172614Y-76299104D01*
X140573277Y-76031390D01*
X140840991Y-75630727D01*
X140935000Y-75158113D01*
X140935000Y-74701887D01*
X140840991Y-74229273D01*
X140835000Y-74220307D01*
X140835000Y-69850000D01*
X140802130Y-69684752D01*
X140748604Y-69415655D01*
X140502567Y-69047434D01*
X136574172Y-65119039D01*
X142118096Y-65119039D01*
X142278959Y-65507423D01*
X142654866Y-65922389D01*
X143160959Y-66161914D01*
X143383000Y-66040629D01*
X143383000Y-64897000D01*
X143637000Y-64897000D01*
X143637000Y-66040629D01*
X143859041Y-66161914D01*
X144365134Y-65922389D01*
X144741041Y-65507423D01*
X144901904Y-65119039D01*
X144779915Y-64897000D01*
X143637000Y-64897000D01*
X143383000Y-64897000D01*
X142240085Y-64897000D01*
X142118096Y-65119039D01*
X136574172Y-65119039D01*
X135876094Y-64420961D01*
X142118096Y-64420961D01*
X142240085Y-64643000D01*
X143383000Y-64643000D01*
X143383000Y-63499371D01*
X143637000Y-63499371D01*
X143637000Y-64643000D01*
X144779915Y-64643000D01*
X144901904Y-64420961D01*
X144741041Y-64032577D01*
X144365134Y-63617611D01*
X143859041Y-63378086D01*
X143637000Y-63499371D01*
X143383000Y-63499371D01*
X143160959Y-63378086D01*
X142654866Y-63617611D01*
X142278959Y-64032577D01*
X142118096Y-64420961D01*
X135876094Y-64420961D01*
X132764172Y-61309039D01*
X142118096Y-61309039D01*
X142278959Y-61697423D01*
X142654866Y-62112389D01*
X143160959Y-62351914D01*
X143383000Y-62230629D01*
X143383000Y-61087000D01*
X143637000Y-61087000D01*
X143637000Y-62230629D01*
X143859041Y-62351914D01*
X144365134Y-62112389D01*
X144741041Y-61697423D01*
X144901904Y-61309039D01*
X144779915Y-61087000D01*
X143637000Y-61087000D01*
X143383000Y-61087000D01*
X142240085Y-61087000D01*
X142118096Y-61309039D01*
X132764172Y-61309039D01*
X132066094Y-60610961D01*
X142118096Y-60610961D01*
X142240085Y-60833000D01*
X143383000Y-60833000D01*
X143383000Y-59689371D01*
X143637000Y-59689371D01*
X143637000Y-60833000D01*
X144779915Y-60833000D01*
X144901904Y-60610961D01*
X144741041Y-60222577D01*
X144365134Y-59807611D01*
X143859041Y-59568086D01*
X143637000Y-59689371D01*
X143383000Y-59689371D01*
X143160959Y-59568086D01*
X142654866Y-59807611D01*
X142278959Y-60222577D01*
X142118096Y-60610961D01*
X132066094Y-60610961D01*
X131612566Y-60157434D01*
X131563045Y-60124345D01*
X131244346Y-59911397D01*
X130810000Y-59825000D01*
X129164606Y-59825000D01*
X129083923Y-59744176D01*
X128556691Y-59525250D01*
X128440280Y-59525148D01*
X127802566Y-58887434D01*
X127434346Y-58641397D01*
X127000000Y-58555000D01*
X124013958Y-58555000D01*
X123975564Y-58516539D01*
X123466702Y-58305241D01*
X122915715Y-58304760D01*
X122406485Y-58515169D01*
X122016539Y-58904436D01*
X121805241Y-59413298D01*
X121804760Y-59964285D01*
X122015169Y-60473515D01*
X122404436Y-60863461D01*
X122913298Y-61074759D01*
X123464285Y-61075240D01*
X123973515Y-60864831D01*
X124013415Y-60825000D01*
X126529868Y-60825000D01*
X126834852Y-61129984D01*
X126834752Y-61244187D01*
X127052757Y-61771800D01*
X127456077Y-62175824D01*
X127983309Y-62394750D01*
X128554187Y-62395248D01*
X129081800Y-62177243D01*
X129164187Y-62095000D01*
X130339868Y-62095000D01*
X138565000Y-70320133D01*
X138565000Y-74220307D01*
X138559009Y-74229273D01*
X138465000Y-74701887D01*
X138465000Y-74947767D01*
X138430000Y-74940805D01*
X137957386Y-75034814D01*
X137912209Y-75065000D01*
X136360132Y-75065000D01*
X129705148Y-68410016D01*
X129705248Y-68295813D01*
X129487243Y-67768200D01*
X129083923Y-67364176D01*
X128556691Y-67145250D01*
X128440281Y-67145148D01*
X127970132Y-66675000D01*
X128439984Y-66205148D01*
X128554187Y-66205248D01*
X129081800Y-65987243D01*
X129485824Y-65583923D01*
X129704750Y-65056691D01*
X129705248Y-64485813D01*
X129487243Y-63958200D01*
X129083923Y-63554176D01*
X128556691Y-63335250D01*
X127985813Y-63334752D01*
X127458200Y-63552757D01*
X127054176Y-63956077D01*
X126835250Y-64483309D01*
X126835148Y-64599720D01*
X126365000Y-65069868D01*
X124625148Y-63330016D01*
X124625248Y-63215813D01*
X124407243Y-62688200D01*
X124003923Y-62284176D01*
X123476691Y-62065250D01*
X122905813Y-62064752D01*
X122378200Y-62282757D01*
X121974176Y-62686077D01*
X121755250Y-63213309D01*
X121754752Y-63784187D01*
X119999319Y-63784187D01*
X118912566Y-62697434D01*
X118895569Y-62686077D01*
X118544346Y-62451397D01*
X118110000Y-62365000D01*
X111993222Y-62365000D01*
X111993162Y-62364683D01*
X111854090Y-62148559D01*
X111641890Y-62003569D01*
X111390000Y-61952560D01*
X109590000Y-61952560D01*
X109354683Y-61996838D01*
X109138559Y-62135910D01*
X109085000Y-62214296D01*
X109085000Y-61430132D01*
X109690132Y-60825000D01*
X114300000Y-60825000D01*
X114734346Y-60738603D01*
X115102566Y-60492566D01*
X118912566Y-56682566D01*
X119158604Y-56314345D01*
X119245000Y-55880000D01*
X119245000Y-53810132D01*
X119850132Y-53205000D01*
X122832607Y-53205000D01*
X122378200Y-53392757D01*
X121974176Y-53796077D01*
X121755250Y-54323309D01*
X121754752Y-54894187D01*
X121972757Y-55421800D01*
X122376077Y-55825824D01*
X122903309Y-56044750D01*
X123474187Y-56045248D01*
X124001800Y-55827243D01*
X124084187Y-55745000D01*
X125259868Y-55745000D01*
X126834852Y-57319984D01*
X126834752Y-57434187D01*
X127052757Y-57961800D01*
X127456077Y-58365824D01*
X127983309Y-58584750D01*
X128554187Y-58585248D01*
X129081800Y-58367243D01*
X129485824Y-57963923D01*
X129704750Y-57436691D01*
X129705248Y-56865813D01*
X129487243Y-56338200D01*
X129083923Y-55934176D01*
X128556691Y-55715250D01*
X128440281Y-55715148D01*
X126532566Y-53807434D01*
X126483045Y-53774345D01*
X126164346Y-53561397D01*
X125730000Y-53475000D01*
X124084606Y-53475000D01*
X124003923Y-53394176D01*
X123548337Y-53205000D01*
X129069868Y-53205000D01*
X130007434Y-54142566D01*
X130375654Y-54388603D01*
X130810000Y-54475000D01*
X131846778Y-54475000D01*
X131846838Y-54475317D01*
X131985910Y-54691441D01*
X132198110Y-54836431D01*
X132450000Y-54887440D01*
X134250000Y-54887440D01*
X134485317Y-54843162D01*
X134701441Y-54704090D01*
X134755000Y-54625704D01*
X134755000Y-55880000D01*
X134841397Y-56314346D01*
X134863506Y-56347434D01*
X135087434Y-56682566D01*
X136357434Y-57952566D01*
X136725654Y-58198603D01*
X137160000Y-58285000D01*
X139700000Y-58285000D01*
X140134346Y-58198603D01*
X140502566Y-57952566D01*
X140956093Y-57499039D01*
X142118096Y-57499039D01*
X142278959Y-57887423D01*
X142654866Y-58302389D01*
X143160959Y-58541914D01*
X143383000Y-58420629D01*
X143383000Y-57277000D01*
X143637000Y-57277000D01*
X143637000Y-58420629D01*
X143859041Y-58541914D01*
X144365134Y-58302389D01*
X144741041Y-57887423D01*
X144901904Y-57499039D01*
X144779915Y-57277000D01*
X143637000Y-57277000D01*
X143383000Y-57277000D01*
X142240085Y-57277000D01*
X142118096Y-57499039D01*
X140956093Y-57499039D01*
X141654171Y-56800961D01*
X142118096Y-56800961D01*
X142240085Y-57023000D01*
X143383000Y-57023000D01*
X143383000Y-55879371D01*
X143637000Y-55879371D01*
X143637000Y-57023000D01*
X144779915Y-57023000D01*
X144901904Y-56800961D01*
X144741041Y-56412577D01*
X144365134Y-55997611D01*
X143859041Y-55758086D01*
X143637000Y-55879371D01*
X143383000Y-55879371D01*
X143160959Y-55758086D01*
X142654866Y-55997611D01*
X142278959Y-56412577D01*
X142118096Y-56800961D01*
X141654171Y-56800961D01*
X143980132Y-54475000D01*
X148297846Y-54475000D01*
X148040849Y-54526120D01*
X147575302Y-54837189D01*
X147264233Y-55302736D01*
X147155000Y-55851887D01*
X147155000Y-55908113D01*
X147264233Y-56457264D01*
X147575302Y-56922811D01*
X148040849Y-57233880D01*
X148590000Y-57343113D01*
X149139151Y-57233880D01*
X149466728Y-57015000D01*
X151523272Y-57015000D01*
X151850849Y-57233880D01*
X152400000Y-57343113D01*
X152949151Y-57233880D01*
X153414698Y-56922811D01*
X153725767Y-56457264D01*
X153835000Y-55908113D01*
X153835000Y-55851887D01*
X153725767Y-55302736D01*
X153414698Y-54837189D01*
X152949151Y-54526120D01*
X152692154Y-54475000D01*
X154469868Y-54475000D01*
X155027590Y-55032722D01*
X154994176Y-55066077D01*
X154775250Y-55593309D01*
X154774752Y-56164187D01*
X154992757Y-56691800D01*
X155396077Y-57095824D01*
X155923309Y-57314750D01*
X156494187Y-57315248D01*
X157021800Y-57097243D01*
X157244408Y-56875022D01*
X163304584Y-56875022D01*
X163525353Y-57245743D01*
X164497012Y-57639119D01*
X165545247Y-57630713D01*
X166474647Y-57245743D01*
X166695416Y-56875022D01*
X165000000Y-55179605D01*
X163304584Y-56875022D01*
X157244408Y-56875022D01*
X157425824Y-56693923D01*
X157644750Y-56166691D01*
X157645248Y-55595813D01*
X157427243Y-55068200D01*
X157345000Y-54985813D01*
X157345000Y-54610000D01*
X157322526Y-54497012D01*
X162360881Y-54497012D01*
X162369287Y-55545247D01*
X162754257Y-56474647D01*
X163124978Y-56695416D01*
X164820395Y-55000000D01*
X165179605Y-55000000D01*
X166875022Y-56695416D01*
X167245743Y-56474647D01*
X167639119Y-55502988D01*
X167630713Y-54454753D01*
X167245743Y-53525353D01*
X166875022Y-53304584D01*
X165179605Y-55000000D01*
X164820395Y-55000000D01*
X163124978Y-53304584D01*
X162754257Y-53525353D01*
X162360881Y-54497012D01*
X157322526Y-54497012D01*
X157258603Y-54175654D01*
X157012566Y-53807434D01*
X156330110Y-53124978D01*
X163304584Y-53124978D01*
X165000000Y-54820395D01*
X166695416Y-53124978D01*
X166474647Y-52754257D01*
X165502988Y-52360881D01*
X164454753Y-52369287D01*
X163525353Y-52754257D01*
X163304584Y-53124978D01*
X156330110Y-53124978D01*
X155742566Y-52537434D01*
X155644082Y-52471629D01*
X155374346Y-52291397D01*
X154940000Y-52205000D01*
X143510000Y-52205000D01*
X143075655Y-52291396D01*
X142707434Y-52537434D01*
X139229868Y-56015000D01*
X137630132Y-56015000D01*
X137025000Y-55409868D01*
X137025000Y-54420159D01*
X137529446Y-54420159D01*
X137615852Y-54676643D01*
X138189336Y-54886458D01*
X138799460Y-54860839D01*
X139244148Y-54676643D01*
X139330554Y-54420159D01*
X138430000Y-53519605D01*
X137529446Y-54420159D01*
X137025000Y-54420159D01*
X137025000Y-54375905D01*
X137190551Y-54210643D01*
X137199203Y-54189806D01*
X137349841Y-54240554D01*
X138250395Y-53340000D01*
X138609605Y-53340000D01*
X139510159Y-54240554D01*
X139766643Y-54154148D01*
X139976458Y-53580664D01*
X139950839Y-52970540D01*
X139766643Y-52525852D01*
X139510159Y-52439446D01*
X138609605Y-53340000D01*
X138250395Y-53340000D01*
X137349841Y-52439446D01*
X137199673Y-52490035D01*
X137192068Y-52471629D01*
X136980650Y-52259841D01*
X137529446Y-52259841D01*
X138430000Y-53160395D01*
X139330554Y-52259841D01*
X139244148Y-52003357D01*
X138670664Y-51793542D01*
X138060540Y-51819161D01*
X137615852Y-52003357D01*
X137529446Y-52259841D01*
X136980650Y-52259841D01*
X136760643Y-52039449D01*
X136196670Y-51805267D01*
X135586009Y-51804735D01*
X135021629Y-52037932D01*
X134853387Y-52205880D01*
X134853162Y-52204683D01*
X134714090Y-51988559D01*
X134501890Y-51843569D01*
X134250000Y-51792560D01*
X132450000Y-51792560D01*
X132214683Y-51836838D01*
X131998559Y-51975910D01*
X131853569Y-52188110D01*
X131850149Y-52205000D01*
X131280132Y-52205000D01*
X130342566Y-51267434D01*
X129974346Y-51021397D01*
X129540000Y-50935000D01*
X119380000Y-50935000D01*
X118945654Y-51021397D01*
X118577434Y-51267434D01*
X117307434Y-52537434D01*
X117061397Y-52905654D01*
X116975000Y-53340000D01*
X116975000Y-55409868D01*
X113829868Y-58555000D01*
X109220000Y-58555000D01*
X108785654Y-58641397D01*
X108417434Y-58887434D01*
X107147434Y-60157434D01*
X106901397Y-60525654D01*
X106815000Y-60960000D01*
X105710000Y-60960000D01*
X105710000Y-56875022D01*
X108304584Y-56875022D01*
X108525353Y-57245743D01*
X109497012Y-57639119D01*
X110545247Y-57630713D01*
X111474647Y-57245743D01*
X111695416Y-56875022D01*
X110000000Y-55179605D01*
X108304584Y-56875022D01*
X105710000Y-56875022D01*
X105710000Y-54497012D01*
X107360881Y-54497012D01*
X107369287Y-55545247D01*
X107754257Y-56474647D01*
X108124978Y-56695416D01*
X109820395Y-55000000D01*
X110179605Y-55000000D01*
X111875022Y-56695416D01*
X112245743Y-56474647D01*
X112639119Y-55502988D01*
X112630713Y-54454753D01*
X112245743Y-53525353D01*
X111875022Y-53304584D01*
X110179605Y-55000000D01*
X109820395Y-55000000D01*
X108124978Y-53304584D01*
X107754257Y-53525353D01*
X107360881Y-54497012D01*
X105710000Y-54497012D01*
X105710000Y-53124978D01*
X108304584Y-53124978D01*
X110000000Y-54820395D01*
X111695416Y-53124978D01*
X111474647Y-52754257D01*
X110502988Y-52360881D01*
X109454753Y-52369287D01*
X108525353Y-52754257D01*
X108304584Y-53124978D01*
X105710000Y-53124978D01*
X105710000Y-50710000D01*
X169290000Y-50710000D01*
X169290000Y-99290000D01*
M02*
