M48
;DRILL file {KiCad 4.0.7} date 08/30/18 18:17:10
;FORMAT={-:-/ absolute / inch / decimal}
FMAT,2
INCH,TZ
T1C0.031
T2C0.059
%
G90
G05
M72
T1
X4.35Y-2.5
X4.35Y-2.6
X4.35Y-2.9
X4.35Y-3.5
X4.5Y-2.9
X4.5Y-3.5
X4.65Y-2.65
X4.65Y-2.85
X4.65Y-3.
X4.65Y-3.5
X4.85Y-2.15
X4.85Y-2.35
X4.85Y-2.5
X4.85Y-2.7
X4.85Y-2.85
X4.85Y-3.05
X4.95Y-3.3
X4.95Y-3.45
X4.95Y-3.6
X4.95Y-3.75
X5.05Y-2.25
X5.05Y-2.4
X5.05Y-2.55
X5.05Y-2.7
X5.1Y-2.95
X5.1Y-3.05
X5.15Y-3.
X5.25Y-2.1
X5.35Y-2.1
X5.45Y-2.1
X5.45Y-3.
X5.5Y-2.95
X5.5Y-3.05
X5.55Y-3.3
X5.55Y-3.45
X5.55Y-3.6
X5.55Y-3.75
X5.65Y-2.25
X5.65Y-2.4
X5.65Y-2.55
X5.65Y-2.7
X5.75Y-2.9
X5.75Y-3.1
X5.75Y-3.25
X5.75Y-3.45
X5.75Y-3.6
X5.75Y-3.8
X5.85Y-2.2
X5.85Y-2.7
X6.Y-2.2
X6.Y-2.8
X6.15Y-2.2
X6.15Y-2.8
X6.15Y-2.95
X6.15Y-3.15
X6.4Y-3.15
X6.4Y-3.25
T2
X4.3307Y-2.1654
X4.3307Y-3.7402
X6.4961Y-2.1654
X6.4961Y-3.7402
T0
M30
