G04 #@! TF.FileFunction,Copper,L2,Bot,Signal*
%FSLAX46Y46*%
G04 Gerber Fmt 4.6, Leading zero omitted, Abs format (unit mm)*
G04 Created by KiCad (PCBNEW 4.0.7) date 03/01/18 18:42:28*
%MOMM*%
%LPD*%
G01*
G04 APERTURE LIST*
%ADD10C,0.100000*%
%ADD11C,1.600000*%
%ADD12R,1.800000X1.800000*%
%ADD13C,1.800000*%
%ADD14C,3.000000*%
%ADD15C,2.000000*%
%ADD16C,0.254000*%
G04 APERTURE END LIST*
D10*
D11*
X73660000Y-66040000D03*
X73660000Y-68540000D03*
X88900000Y-60960000D03*
X91400000Y-60960000D03*
X96520000Y-66040000D03*
X96520000Y-68540000D03*
X111760000Y-60960000D03*
X114260000Y-60960000D03*
X119380000Y-66040000D03*
X119380000Y-68540000D03*
X134620000Y-60960000D03*
X137120000Y-60960000D03*
X142240000Y-66040000D03*
X142240000Y-68540000D03*
D12*
X63500000Y-66040000D03*
D13*
X63500000Y-68580000D03*
D12*
X152400000Y-66040000D03*
D13*
X152400000Y-68580000D03*
D11*
X80010000Y-60960000D03*
X82550000Y-60960000D03*
X102870000Y-60960000D03*
X105410000Y-60960000D03*
X125730000Y-60960000D03*
X128270000Y-60960000D03*
D14*
X60960000Y-53340000D03*
X154940000Y-53340000D03*
X154940000Y-76200000D03*
X60960000Y-76200000D03*
D15*
X63500000Y-66040000D02*
X73660000Y-66040000D01*
X73660000Y-66040000D02*
X74930000Y-66040000D01*
X74930000Y-66040000D02*
X80010000Y-60960000D01*
X82550000Y-60960000D02*
X88900000Y-60960000D01*
X96520000Y-66040000D02*
X96520000Y-60960000D01*
X91400000Y-60960000D02*
X96520000Y-60960000D01*
X96520000Y-60960000D02*
X102870000Y-60960000D01*
X105410000Y-60960000D02*
X111760000Y-60960000D01*
X119380000Y-66040000D02*
X119380000Y-60960000D01*
X114260000Y-60960000D02*
X119380000Y-60960000D01*
X119380000Y-60960000D02*
X125730000Y-60960000D01*
X128270000Y-60960000D02*
X134620000Y-60960000D01*
X142240000Y-66040000D02*
X142200000Y-66040000D01*
X142200000Y-66040000D02*
X137120000Y-60960000D01*
D16*
G36*
X159310000Y-80570000D02*
X56590000Y-80570000D01*
X56590000Y-76622815D01*
X58824630Y-76622815D01*
X59148980Y-77407800D01*
X59749041Y-78008909D01*
X60533459Y-78334628D01*
X61382815Y-78335370D01*
X62167800Y-78011020D01*
X62768909Y-77410959D01*
X63094628Y-76626541D01*
X63094631Y-76622815D01*
X152804630Y-76622815D01*
X153128980Y-77407800D01*
X153729041Y-78008909D01*
X154513459Y-78334628D01*
X155362815Y-78335370D01*
X156147800Y-78011020D01*
X156748909Y-77410959D01*
X157074628Y-76626541D01*
X157075370Y-75777185D01*
X156751020Y-74992200D01*
X156150959Y-74391091D01*
X155366541Y-74065372D01*
X154517185Y-74064630D01*
X153732200Y-74388980D01*
X153131091Y-74989041D01*
X152805372Y-75773459D01*
X152804630Y-76622815D01*
X63094631Y-76622815D01*
X63095370Y-75777185D01*
X62771020Y-74992200D01*
X62170959Y-74391091D01*
X61386541Y-74065372D01*
X60537185Y-74064630D01*
X59752200Y-74388980D01*
X59151091Y-74989041D01*
X58825372Y-75773459D01*
X58824630Y-76622815D01*
X56590000Y-76622815D01*
X56590000Y-69660159D01*
X62599446Y-69660159D01*
X62685852Y-69916643D01*
X63259336Y-70126458D01*
X63869460Y-70100839D01*
X64314148Y-69916643D01*
X64400554Y-69660159D01*
X64288140Y-69547745D01*
X72831861Y-69547745D01*
X72905995Y-69793864D01*
X73443223Y-69986965D01*
X74013454Y-69959778D01*
X74414005Y-69793864D01*
X74488139Y-69547745D01*
X95691861Y-69547745D01*
X95765995Y-69793864D01*
X96303223Y-69986965D01*
X96873454Y-69959778D01*
X97274005Y-69793864D01*
X97348139Y-69547745D01*
X118551861Y-69547745D01*
X118625995Y-69793864D01*
X119163223Y-69986965D01*
X119733454Y-69959778D01*
X120134005Y-69793864D01*
X120208139Y-69547745D01*
X141411861Y-69547745D01*
X141485995Y-69793864D01*
X142023223Y-69986965D01*
X142593454Y-69959778D01*
X142994005Y-69793864D01*
X143034278Y-69660159D01*
X151499446Y-69660159D01*
X151585852Y-69916643D01*
X152159336Y-70126458D01*
X152769460Y-70100839D01*
X153214148Y-69916643D01*
X153300554Y-69660159D01*
X152400000Y-68759605D01*
X151499446Y-69660159D01*
X143034278Y-69660159D01*
X143068139Y-69547745D01*
X142240000Y-68719605D01*
X141411861Y-69547745D01*
X120208139Y-69547745D01*
X119380000Y-68719605D01*
X118551861Y-69547745D01*
X97348139Y-69547745D01*
X96520000Y-68719605D01*
X95691861Y-69547745D01*
X74488139Y-69547745D01*
X73660000Y-68719605D01*
X72831861Y-69547745D01*
X64288140Y-69547745D01*
X63500000Y-68759605D01*
X62599446Y-69660159D01*
X56590000Y-69660159D01*
X56590000Y-66040000D01*
X61865000Y-66040000D01*
X61952560Y-66480193D01*
X61952560Y-66940000D01*
X61996838Y-67175317D01*
X62135910Y-67391441D01*
X62339574Y-67530598D01*
X62305282Y-67564890D01*
X62419839Y-67679447D01*
X62163357Y-67765852D01*
X61953542Y-68339336D01*
X61979161Y-68949460D01*
X62163357Y-69394148D01*
X62419841Y-69480554D01*
X63320395Y-68580000D01*
X63306253Y-68565858D01*
X63485858Y-68386253D01*
X63500000Y-68400395D01*
X63514143Y-68386253D01*
X63693748Y-68565858D01*
X63679605Y-68580000D01*
X64580159Y-69480554D01*
X64836643Y-69394148D01*
X65046458Y-68820664D01*
X65020839Y-68210540D01*
X64836643Y-67765852D01*
X64580161Y-67679447D01*
X64584608Y-67675000D01*
X72615392Y-67675000D01*
X72652253Y-67711861D01*
X72406136Y-67785995D01*
X72213035Y-68323223D01*
X72240222Y-68893454D01*
X72406136Y-69294005D01*
X72652255Y-69368139D01*
X73480395Y-68540000D01*
X73466252Y-68525858D01*
X73645858Y-68346252D01*
X73660000Y-68360395D01*
X73674142Y-68346252D01*
X73853748Y-68525858D01*
X73839605Y-68540000D01*
X74667745Y-69368139D01*
X74913864Y-69294005D01*
X75106965Y-68756777D01*
X75086295Y-68323223D01*
X95073035Y-68323223D01*
X95100222Y-68893454D01*
X95266136Y-69294005D01*
X95512255Y-69368139D01*
X96340395Y-68540000D01*
X96699605Y-68540000D01*
X97527745Y-69368139D01*
X97773864Y-69294005D01*
X97966965Y-68756777D01*
X97946295Y-68323223D01*
X117933035Y-68323223D01*
X117960222Y-68893454D01*
X118126136Y-69294005D01*
X118372255Y-69368139D01*
X119200395Y-68540000D01*
X119559605Y-68540000D01*
X120387745Y-69368139D01*
X120633864Y-69294005D01*
X120826965Y-68756777D01*
X120806295Y-68323223D01*
X140793035Y-68323223D01*
X140820222Y-68893454D01*
X140986136Y-69294005D01*
X141232255Y-69368139D01*
X142060395Y-68540000D01*
X142419605Y-68540000D01*
X143247745Y-69368139D01*
X143493864Y-69294005D01*
X143686965Y-68756777D01*
X143659778Y-68186546D01*
X143493864Y-67785995D01*
X143247745Y-67711861D01*
X142419605Y-68540000D01*
X142060395Y-68540000D01*
X141232255Y-67711861D01*
X140986136Y-67785995D01*
X140793035Y-68323223D01*
X120806295Y-68323223D01*
X120799778Y-68186546D01*
X120633864Y-67785995D01*
X120387745Y-67711861D01*
X119559605Y-68540000D01*
X119200395Y-68540000D01*
X118372255Y-67711861D01*
X118126136Y-67785995D01*
X117933035Y-68323223D01*
X97946295Y-68323223D01*
X97939778Y-68186546D01*
X97773864Y-67785995D01*
X97527745Y-67711861D01*
X96699605Y-68540000D01*
X96340395Y-68540000D01*
X95512255Y-67711861D01*
X95266136Y-67785995D01*
X95073035Y-68323223D01*
X75086295Y-68323223D01*
X75079778Y-68186546D01*
X74913864Y-67785995D01*
X74667747Y-67711861D01*
X74704608Y-67675000D01*
X74929995Y-67675000D01*
X74930000Y-67675001D01*
X75555688Y-67550543D01*
X76086120Y-67196120D01*
X81166120Y-62116120D01*
X81280000Y-61945686D01*
X81393880Y-62116120D01*
X81924313Y-62470543D01*
X82550000Y-62595000D01*
X88900000Y-62595000D01*
X89525687Y-62470543D01*
X90056120Y-62116120D01*
X90150000Y-61975618D01*
X90243880Y-62116120D01*
X90774313Y-62470543D01*
X91400000Y-62595000D01*
X94885000Y-62595000D01*
X94885000Y-66040000D01*
X95009457Y-66665687D01*
X95363880Y-67196120D01*
X95721195Y-67434869D01*
X95691861Y-67532255D01*
X96520000Y-68360395D01*
X97348139Y-67532255D01*
X97318805Y-67434869D01*
X97676120Y-67196120D01*
X98030543Y-66665687D01*
X98155000Y-66040000D01*
X98155000Y-62595000D01*
X102870000Y-62595000D01*
X103495687Y-62470543D01*
X104026120Y-62116120D01*
X104140000Y-61945686D01*
X104253880Y-62116120D01*
X104784313Y-62470543D01*
X105410000Y-62595000D01*
X111760000Y-62595000D01*
X112385687Y-62470543D01*
X112916120Y-62116120D01*
X113010000Y-61975618D01*
X113103880Y-62116120D01*
X113634313Y-62470543D01*
X114260000Y-62595000D01*
X117745000Y-62595000D01*
X117745000Y-66040000D01*
X117869457Y-66665687D01*
X118223880Y-67196120D01*
X118581195Y-67434869D01*
X118551861Y-67532255D01*
X119380000Y-68360395D01*
X120208139Y-67532255D01*
X120178805Y-67434869D01*
X120536120Y-67196120D01*
X120890543Y-66665687D01*
X121015000Y-66040000D01*
X121015000Y-62595000D01*
X125730000Y-62595000D01*
X126355687Y-62470543D01*
X126886120Y-62116120D01*
X127000000Y-61945686D01*
X127113880Y-62116120D01*
X127644313Y-62470543D01*
X128270000Y-62595000D01*
X134620000Y-62595000D01*
X135245687Y-62470543D01*
X135776120Y-62116120D01*
X135870000Y-61975618D01*
X135963880Y-62116120D01*
X141043880Y-67196120D01*
X141434493Y-67457119D01*
X141411861Y-67532255D01*
X142240000Y-68360395D01*
X143068139Y-67532255D01*
X143038805Y-67434869D01*
X143396120Y-67196120D01*
X143750543Y-66665687D01*
X143875000Y-66040000D01*
X143750543Y-65414313D01*
X143567254Y-65140000D01*
X150852560Y-65140000D01*
X150852560Y-66940000D01*
X150896838Y-67175317D01*
X151035910Y-67391441D01*
X151239574Y-67530598D01*
X151205282Y-67564890D01*
X151319839Y-67679447D01*
X151063357Y-67765852D01*
X150853542Y-68339336D01*
X150879161Y-68949460D01*
X151063357Y-69394148D01*
X151319841Y-69480554D01*
X152220395Y-68580000D01*
X152206253Y-68565858D01*
X152385858Y-68386253D01*
X152400000Y-68400395D01*
X152414143Y-68386253D01*
X152593748Y-68565858D01*
X152579605Y-68580000D01*
X153480159Y-69480554D01*
X153736643Y-69394148D01*
X153946458Y-68820664D01*
X153920839Y-68210540D01*
X153736643Y-67765852D01*
X153480161Y-67679447D01*
X153594718Y-67564890D01*
X153558240Y-67528412D01*
X153751441Y-67404090D01*
X153896431Y-67191890D01*
X153947440Y-66940000D01*
X153947440Y-65140000D01*
X153903162Y-64904683D01*
X153764090Y-64688559D01*
X153551890Y-64543569D01*
X153300000Y-64492560D01*
X151500000Y-64492560D01*
X151264683Y-64536838D01*
X151048559Y-64675910D01*
X150903569Y-64888110D01*
X150852560Y-65140000D01*
X143567254Y-65140000D01*
X143396120Y-64883880D01*
X143275574Y-64803334D01*
X138276120Y-59803880D01*
X137745688Y-59449457D01*
X137120000Y-59324999D01*
X136494312Y-59449457D01*
X135963880Y-59803880D01*
X135870000Y-59944382D01*
X135776120Y-59803880D01*
X135245687Y-59449457D01*
X134620000Y-59325000D01*
X128270000Y-59325000D01*
X127644313Y-59449457D01*
X127113880Y-59803880D01*
X127000000Y-59974314D01*
X126886120Y-59803880D01*
X126355687Y-59449457D01*
X125730000Y-59325000D01*
X114260000Y-59325000D01*
X113634313Y-59449457D01*
X113103880Y-59803880D01*
X113010000Y-59944382D01*
X112916120Y-59803880D01*
X112385687Y-59449457D01*
X111760000Y-59325000D01*
X105410000Y-59325000D01*
X104784313Y-59449457D01*
X104253880Y-59803880D01*
X104140000Y-59974314D01*
X104026120Y-59803880D01*
X103495687Y-59449457D01*
X102870000Y-59325000D01*
X91400000Y-59325000D01*
X90774313Y-59449457D01*
X90243880Y-59803880D01*
X90150000Y-59944382D01*
X90056120Y-59803880D01*
X89525687Y-59449457D01*
X88900000Y-59325000D01*
X82550000Y-59325000D01*
X81924313Y-59449457D01*
X81393880Y-59803880D01*
X81280000Y-59974314D01*
X81166120Y-59803880D01*
X80635688Y-59449457D01*
X80010000Y-59324999D01*
X79384312Y-59449457D01*
X78853880Y-59803880D01*
X74252760Y-64405000D01*
X63500000Y-64405000D01*
X63059807Y-64492560D01*
X62600000Y-64492560D01*
X62364683Y-64536838D01*
X62148559Y-64675910D01*
X62003569Y-64888110D01*
X61952560Y-65140000D01*
X61952560Y-65599807D01*
X61865000Y-66040000D01*
X56590000Y-66040000D01*
X56590000Y-53762815D01*
X58824630Y-53762815D01*
X59148980Y-54547800D01*
X59749041Y-55148909D01*
X60533459Y-55474628D01*
X61382815Y-55475370D01*
X62167800Y-55151020D01*
X62768909Y-54550959D01*
X63094628Y-53766541D01*
X63094631Y-53762815D01*
X152804630Y-53762815D01*
X153128980Y-54547800D01*
X153729041Y-55148909D01*
X154513459Y-55474628D01*
X155362815Y-55475370D01*
X156147800Y-55151020D01*
X156748909Y-54550959D01*
X157074628Y-53766541D01*
X157075370Y-52917185D01*
X156751020Y-52132200D01*
X156150959Y-51531091D01*
X155366541Y-51205372D01*
X154517185Y-51204630D01*
X153732200Y-51528980D01*
X153131091Y-52129041D01*
X152805372Y-52913459D01*
X152804630Y-53762815D01*
X63094631Y-53762815D01*
X63095370Y-52917185D01*
X62771020Y-52132200D01*
X62170959Y-51531091D01*
X61386541Y-51205372D01*
X60537185Y-51204630D01*
X59752200Y-51528980D01*
X59151091Y-52129041D01*
X58825372Y-52913459D01*
X58824630Y-53762815D01*
X56590000Y-53762815D01*
X56590000Y-48970000D01*
X159310000Y-48970000D01*
X159310000Y-80570000D01*
X159310000Y-80570000D01*
G37*
X159310000Y-80570000D02*
X56590000Y-80570000D01*
X56590000Y-76622815D01*
X58824630Y-76622815D01*
X59148980Y-77407800D01*
X59749041Y-78008909D01*
X60533459Y-78334628D01*
X61382815Y-78335370D01*
X62167800Y-78011020D01*
X62768909Y-77410959D01*
X63094628Y-76626541D01*
X63094631Y-76622815D01*
X152804630Y-76622815D01*
X153128980Y-77407800D01*
X153729041Y-78008909D01*
X154513459Y-78334628D01*
X155362815Y-78335370D01*
X156147800Y-78011020D01*
X156748909Y-77410959D01*
X157074628Y-76626541D01*
X157075370Y-75777185D01*
X156751020Y-74992200D01*
X156150959Y-74391091D01*
X155366541Y-74065372D01*
X154517185Y-74064630D01*
X153732200Y-74388980D01*
X153131091Y-74989041D01*
X152805372Y-75773459D01*
X152804630Y-76622815D01*
X63094631Y-76622815D01*
X63095370Y-75777185D01*
X62771020Y-74992200D01*
X62170959Y-74391091D01*
X61386541Y-74065372D01*
X60537185Y-74064630D01*
X59752200Y-74388980D01*
X59151091Y-74989041D01*
X58825372Y-75773459D01*
X58824630Y-76622815D01*
X56590000Y-76622815D01*
X56590000Y-69660159D01*
X62599446Y-69660159D01*
X62685852Y-69916643D01*
X63259336Y-70126458D01*
X63869460Y-70100839D01*
X64314148Y-69916643D01*
X64400554Y-69660159D01*
X64288140Y-69547745D01*
X72831861Y-69547745D01*
X72905995Y-69793864D01*
X73443223Y-69986965D01*
X74013454Y-69959778D01*
X74414005Y-69793864D01*
X74488139Y-69547745D01*
X95691861Y-69547745D01*
X95765995Y-69793864D01*
X96303223Y-69986965D01*
X96873454Y-69959778D01*
X97274005Y-69793864D01*
X97348139Y-69547745D01*
X118551861Y-69547745D01*
X118625995Y-69793864D01*
X119163223Y-69986965D01*
X119733454Y-69959778D01*
X120134005Y-69793864D01*
X120208139Y-69547745D01*
X141411861Y-69547745D01*
X141485995Y-69793864D01*
X142023223Y-69986965D01*
X142593454Y-69959778D01*
X142994005Y-69793864D01*
X143034278Y-69660159D01*
X151499446Y-69660159D01*
X151585852Y-69916643D01*
X152159336Y-70126458D01*
X152769460Y-70100839D01*
X153214148Y-69916643D01*
X153300554Y-69660159D01*
X152400000Y-68759605D01*
X151499446Y-69660159D01*
X143034278Y-69660159D01*
X143068139Y-69547745D01*
X142240000Y-68719605D01*
X141411861Y-69547745D01*
X120208139Y-69547745D01*
X119380000Y-68719605D01*
X118551861Y-69547745D01*
X97348139Y-69547745D01*
X96520000Y-68719605D01*
X95691861Y-69547745D01*
X74488139Y-69547745D01*
X73660000Y-68719605D01*
X72831861Y-69547745D01*
X64288140Y-69547745D01*
X63500000Y-68759605D01*
X62599446Y-69660159D01*
X56590000Y-69660159D01*
X56590000Y-66040000D01*
X61865000Y-66040000D01*
X61952560Y-66480193D01*
X61952560Y-66940000D01*
X61996838Y-67175317D01*
X62135910Y-67391441D01*
X62339574Y-67530598D01*
X62305282Y-67564890D01*
X62419839Y-67679447D01*
X62163357Y-67765852D01*
X61953542Y-68339336D01*
X61979161Y-68949460D01*
X62163357Y-69394148D01*
X62419841Y-69480554D01*
X63320395Y-68580000D01*
X63306253Y-68565858D01*
X63485858Y-68386253D01*
X63500000Y-68400395D01*
X63514143Y-68386253D01*
X63693748Y-68565858D01*
X63679605Y-68580000D01*
X64580159Y-69480554D01*
X64836643Y-69394148D01*
X65046458Y-68820664D01*
X65020839Y-68210540D01*
X64836643Y-67765852D01*
X64580161Y-67679447D01*
X64584608Y-67675000D01*
X72615392Y-67675000D01*
X72652253Y-67711861D01*
X72406136Y-67785995D01*
X72213035Y-68323223D01*
X72240222Y-68893454D01*
X72406136Y-69294005D01*
X72652255Y-69368139D01*
X73480395Y-68540000D01*
X73466252Y-68525858D01*
X73645858Y-68346252D01*
X73660000Y-68360395D01*
X73674142Y-68346252D01*
X73853748Y-68525858D01*
X73839605Y-68540000D01*
X74667745Y-69368139D01*
X74913864Y-69294005D01*
X75106965Y-68756777D01*
X75086295Y-68323223D01*
X95073035Y-68323223D01*
X95100222Y-68893454D01*
X95266136Y-69294005D01*
X95512255Y-69368139D01*
X96340395Y-68540000D01*
X96699605Y-68540000D01*
X97527745Y-69368139D01*
X97773864Y-69294005D01*
X97966965Y-68756777D01*
X97946295Y-68323223D01*
X117933035Y-68323223D01*
X117960222Y-68893454D01*
X118126136Y-69294005D01*
X118372255Y-69368139D01*
X119200395Y-68540000D01*
X119559605Y-68540000D01*
X120387745Y-69368139D01*
X120633864Y-69294005D01*
X120826965Y-68756777D01*
X120806295Y-68323223D01*
X140793035Y-68323223D01*
X140820222Y-68893454D01*
X140986136Y-69294005D01*
X141232255Y-69368139D01*
X142060395Y-68540000D01*
X142419605Y-68540000D01*
X143247745Y-69368139D01*
X143493864Y-69294005D01*
X143686965Y-68756777D01*
X143659778Y-68186546D01*
X143493864Y-67785995D01*
X143247745Y-67711861D01*
X142419605Y-68540000D01*
X142060395Y-68540000D01*
X141232255Y-67711861D01*
X140986136Y-67785995D01*
X140793035Y-68323223D01*
X120806295Y-68323223D01*
X120799778Y-68186546D01*
X120633864Y-67785995D01*
X120387745Y-67711861D01*
X119559605Y-68540000D01*
X119200395Y-68540000D01*
X118372255Y-67711861D01*
X118126136Y-67785995D01*
X117933035Y-68323223D01*
X97946295Y-68323223D01*
X97939778Y-68186546D01*
X97773864Y-67785995D01*
X97527745Y-67711861D01*
X96699605Y-68540000D01*
X96340395Y-68540000D01*
X95512255Y-67711861D01*
X95266136Y-67785995D01*
X95073035Y-68323223D01*
X75086295Y-68323223D01*
X75079778Y-68186546D01*
X74913864Y-67785995D01*
X74667747Y-67711861D01*
X74704608Y-67675000D01*
X74929995Y-67675000D01*
X74930000Y-67675001D01*
X75555688Y-67550543D01*
X76086120Y-67196120D01*
X81166120Y-62116120D01*
X81280000Y-61945686D01*
X81393880Y-62116120D01*
X81924313Y-62470543D01*
X82550000Y-62595000D01*
X88900000Y-62595000D01*
X89525687Y-62470543D01*
X90056120Y-62116120D01*
X90150000Y-61975618D01*
X90243880Y-62116120D01*
X90774313Y-62470543D01*
X91400000Y-62595000D01*
X94885000Y-62595000D01*
X94885000Y-66040000D01*
X95009457Y-66665687D01*
X95363880Y-67196120D01*
X95721195Y-67434869D01*
X95691861Y-67532255D01*
X96520000Y-68360395D01*
X97348139Y-67532255D01*
X97318805Y-67434869D01*
X97676120Y-67196120D01*
X98030543Y-66665687D01*
X98155000Y-66040000D01*
X98155000Y-62595000D01*
X102870000Y-62595000D01*
X103495687Y-62470543D01*
X104026120Y-62116120D01*
X104140000Y-61945686D01*
X104253880Y-62116120D01*
X104784313Y-62470543D01*
X105410000Y-62595000D01*
X111760000Y-62595000D01*
X112385687Y-62470543D01*
X112916120Y-62116120D01*
X113010000Y-61975618D01*
X113103880Y-62116120D01*
X113634313Y-62470543D01*
X114260000Y-62595000D01*
X117745000Y-62595000D01*
X117745000Y-66040000D01*
X117869457Y-66665687D01*
X118223880Y-67196120D01*
X118581195Y-67434869D01*
X118551861Y-67532255D01*
X119380000Y-68360395D01*
X120208139Y-67532255D01*
X120178805Y-67434869D01*
X120536120Y-67196120D01*
X120890543Y-66665687D01*
X121015000Y-66040000D01*
X121015000Y-62595000D01*
X125730000Y-62595000D01*
X126355687Y-62470543D01*
X126886120Y-62116120D01*
X127000000Y-61945686D01*
X127113880Y-62116120D01*
X127644313Y-62470543D01*
X128270000Y-62595000D01*
X134620000Y-62595000D01*
X135245687Y-62470543D01*
X135776120Y-62116120D01*
X135870000Y-61975618D01*
X135963880Y-62116120D01*
X141043880Y-67196120D01*
X141434493Y-67457119D01*
X141411861Y-67532255D01*
X142240000Y-68360395D01*
X143068139Y-67532255D01*
X143038805Y-67434869D01*
X143396120Y-67196120D01*
X143750543Y-66665687D01*
X143875000Y-66040000D01*
X143750543Y-65414313D01*
X143567254Y-65140000D01*
X150852560Y-65140000D01*
X150852560Y-66940000D01*
X150896838Y-67175317D01*
X151035910Y-67391441D01*
X151239574Y-67530598D01*
X151205282Y-67564890D01*
X151319839Y-67679447D01*
X151063357Y-67765852D01*
X150853542Y-68339336D01*
X150879161Y-68949460D01*
X151063357Y-69394148D01*
X151319841Y-69480554D01*
X152220395Y-68580000D01*
X152206253Y-68565858D01*
X152385858Y-68386253D01*
X152400000Y-68400395D01*
X152414143Y-68386253D01*
X152593748Y-68565858D01*
X152579605Y-68580000D01*
X153480159Y-69480554D01*
X153736643Y-69394148D01*
X153946458Y-68820664D01*
X153920839Y-68210540D01*
X153736643Y-67765852D01*
X153480161Y-67679447D01*
X153594718Y-67564890D01*
X153558240Y-67528412D01*
X153751441Y-67404090D01*
X153896431Y-67191890D01*
X153947440Y-66940000D01*
X153947440Y-65140000D01*
X153903162Y-64904683D01*
X153764090Y-64688559D01*
X153551890Y-64543569D01*
X153300000Y-64492560D01*
X151500000Y-64492560D01*
X151264683Y-64536838D01*
X151048559Y-64675910D01*
X150903569Y-64888110D01*
X150852560Y-65140000D01*
X143567254Y-65140000D01*
X143396120Y-64883880D01*
X143275574Y-64803334D01*
X138276120Y-59803880D01*
X137745688Y-59449457D01*
X137120000Y-59324999D01*
X136494312Y-59449457D01*
X135963880Y-59803880D01*
X135870000Y-59944382D01*
X135776120Y-59803880D01*
X135245687Y-59449457D01*
X134620000Y-59325000D01*
X128270000Y-59325000D01*
X127644313Y-59449457D01*
X127113880Y-59803880D01*
X127000000Y-59974314D01*
X126886120Y-59803880D01*
X126355687Y-59449457D01*
X125730000Y-59325000D01*
X114260000Y-59325000D01*
X113634313Y-59449457D01*
X113103880Y-59803880D01*
X113010000Y-59944382D01*
X112916120Y-59803880D01*
X112385687Y-59449457D01*
X111760000Y-59325000D01*
X105410000Y-59325000D01*
X104784313Y-59449457D01*
X104253880Y-59803880D01*
X104140000Y-59974314D01*
X104026120Y-59803880D01*
X103495687Y-59449457D01*
X102870000Y-59325000D01*
X91400000Y-59325000D01*
X90774313Y-59449457D01*
X90243880Y-59803880D01*
X90150000Y-59944382D01*
X90056120Y-59803880D01*
X89525687Y-59449457D01*
X88900000Y-59325000D01*
X82550000Y-59325000D01*
X81924313Y-59449457D01*
X81393880Y-59803880D01*
X81280000Y-59974314D01*
X81166120Y-59803880D01*
X80635688Y-59449457D01*
X80010000Y-59324999D01*
X79384312Y-59449457D01*
X78853880Y-59803880D01*
X74252760Y-64405000D01*
X63500000Y-64405000D01*
X63059807Y-64492560D01*
X62600000Y-64492560D01*
X62364683Y-64536838D01*
X62148559Y-64675910D01*
X62003569Y-64888110D01*
X61952560Y-65140000D01*
X61952560Y-65599807D01*
X61865000Y-66040000D01*
X56590000Y-66040000D01*
X56590000Y-53762815D01*
X58824630Y-53762815D01*
X59148980Y-54547800D01*
X59749041Y-55148909D01*
X60533459Y-55474628D01*
X61382815Y-55475370D01*
X62167800Y-55151020D01*
X62768909Y-54550959D01*
X63094628Y-53766541D01*
X63094631Y-53762815D01*
X152804630Y-53762815D01*
X153128980Y-54547800D01*
X153729041Y-55148909D01*
X154513459Y-55474628D01*
X155362815Y-55475370D01*
X156147800Y-55151020D01*
X156748909Y-54550959D01*
X157074628Y-53766541D01*
X157075370Y-52917185D01*
X156751020Y-52132200D01*
X156150959Y-51531091D01*
X155366541Y-51205372D01*
X154517185Y-51204630D01*
X153732200Y-51528980D01*
X153131091Y-52129041D01*
X152805372Y-52913459D01*
X152804630Y-53762815D01*
X63094631Y-53762815D01*
X63095370Y-52917185D01*
X62771020Y-52132200D01*
X62170959Y-51531091D01*
X61386541Y-51205372D01*
X60537185Y-51204630D01*
X59752200Y-51528980D01*
X59151091Y-52129041D01*
X58825372Y-52913459D01*
X58824630Y-53762815D01*
X56590000Y-53762815D01*
X56590000Y-48970000D01*
X159310000Y-48970000D01*
X159310000Y-80570000D01*
M02*
