M48
;DRILL file {KiCad 4.0.7} date 02/22/18 17:58:33
;FORMAT={-:-/ absolute / inch / decimal}
FMAT,2
INCH,TZ
T1C0.031
T2C0.039
%
G90
G05
M72
T1
X2.5Y-2.6
X2.5Y-2.7
X2.9Y-2.6
X2.9Y-2.6984
X3.15Y-2.4
X3.25Y-2.4
X3.5Y-2.4
X3.5984Y-2.4
X3.8Y-2.6
X3.8Y-2.6984
X4.05Y-2.4
X4.15Y-2.4
X4.4Y-2.4
X4.4984Y-2.4
X4.7Y-2.6
X4.7Y-2.6984
X4.95Y-2.4
X5.05Y-2.4
X5.3Y-2.4
X5.3984Y-2.4
X5.6Y-2.6
X5.6Y-2.6984
X6.Y-2.6
X6.Y-2.7
T2
X2.4Y-2.1
X2.4Y-3.
X6.1Y-2.1
X6.1Y-3.
T0
M30
