G04 #@! TF.FileFunction,Legend,Top*
%FSLAX46Y46*%
G04 Gerber Fmt 4.6, Leading zero omitted, Abs format (unit mm)*
G04 Created by KiCad (PCBNEW 4.0.7) date 06/13/18 13:11:16*
%MOMM*%
%LPD*%
G01*
G04 APERTURE LIST*
%ADD10C,0.100000*%
%ADD11C,0.300000*%
%ADD12C,0.250000*%
%ADD13C,0.120000*%
%ADD14C,0.010000*%
%ADD15C,0.150000*%
%ADD16C,0.125000*%
G04 APERTURE END LIST*
D10*
D11*
X176014286Y-83228571D02*
X176014286Y-81728571D01*
X176014286Y-82442857D02*
X176871429Y-82442857D01*
X176871429Y-83228571D02*
X176871429Y-81728571D01*
X178085715Y-82442857D02*
X177585715Y-82442857D01*
X177585715Y-83228571D02*
X177585715Y-81728571D01*
X178300001Y-81728571D01*
X178800000Y-81871429D02*
X178871429Y-81800000D01*
X179014286Y-81728571D01*
X179371429Y-81728571D01*
X179514286Y-81800000D01*
X179585715Y-81871429D01*
X179657143Y-82014286D01*
X179657143Y-82157143D01*
X179585715Y-82371429D01*
X178728572Y-83228571D01*
X179657143Y-83228571D01*
X165345000Y-97277143D02*
X165345000Y-96562857D01*
X165773571Y-97420000D02*
X164273571Y-96920000D01*
X165773571Y-96420000D01*
X165773571Y-95920000D02*
X164773571Y-95920000D01*
X164916429Y-95920000D02*
X164845000Y-95848572D01*
X164773571Y-95705714D01*
X164773571Y-95491429D01*
X164845000Y-95348572D01*
X164987857Y-95277143D01*
X165773571Y-95277143D01*
X164987857Y-95277143D02*
X164845000Y-95205714D01*
X164773571Y-95062857D01*
X164773571Y-94848572D01*
X164845000Y-94705714D01*
X164987857Y-94634286D01*
X165773571Y-94634286D01*
X164773571Y-93920000D02*
X166273571Y-93920000D01*
X164845000Y-93920000D02*
X164773571Y-93777143D01*
X164773571Y-93491429D01*
X164845000Y-93348572D01*
X164916429Y-93277143D01*
X165059286Y-93205714D01*
X165487857Y-93205714D01*
X165630714Y-93277143D01*
X165702143Y-93348572D01*
X165773571Y-93491429D01*
X165773571Y-93777143D01*
X165702143Y-93920000D01*
X165773571Y-92348571D02*
X165702143Y-92491429D01*
X165559286Y-92562857D01*
X164273571Y-92562857D01*
X165773571Y-91777143D02*
X164773571Y-91777143D01*
X164273571Y-91777143D02*
X164345000Y-91848572D01*
X164416429Y-91777143D01*
X164345000Y-91705715D01*
X164273571Y-91777143D01*
X164416429Y-91777143D01*
X164773571Y-91277143D02*
X164773571Y-90705714D01*
X165773571Y-91062857D02*
X164487857Y-91062857D01*
X164345000Y-90991429D01*
X164273571Y-90848571D01*
X164273571Y-90705714D01*
X165773571Y-90205714D02*
X164773571Y-90205714D01*
X164273571Y-90205714D02*
X164345000Y-90277143D01*
X164416429Y-90205714D01*
X164345000Y-90134286D01*
X164273571Y-90205714D01*
X164416429Y-90205714D01*
X165702143Y-88848571D02*
X165773571Y-88991428D01*
X165773571Y-89277142D01*
X165702143Y-89420000D01*
X165630714Y-89491428D01*
X165487857Y-89562857D01*
X165059286Y-89562857D01*
X164916429Y-89491428D01*
X164845000Y-89420000D01*
X164773571Y-89277142D01*
X164773571Y-88991428D01*
X164845000Y-88848571D01*
X165773571Y-87562857D02*
X164987857Y-87562857D01*
X164845000Y-87634286D01*
X164773571Y-87777143D01*
X164773571Y-88062857D01*
X164845000Y-88205714D01*
X165702143Y-87562857D02*
X165773571Y-87705714D01*
X165773571Y-88062857D01*
X165702143Y-88205714D01*
X165559286Y-88277143D01*
X165416429Y-88277143D01*
X165273571Y-88205714D01*
X165202143Y-88062857D01*
X165202143Y-87705714D01*
X165130714Y-87562857D01*
X164773571Y-87062857D02*
X164773571Y-86491428D01*
X164273571Y-86848571D02*
X165559286Y-86848571D01*
X165702143Y-86777143D01*
X165773571Y-86634285D01*
X165773571Y-86491428D01*
X165702143Y-85420000D02*
X165773571Y-85562857D01*
X165773571Y-85848571D01*
X165702143Y-85991428D01*
X165559286Y-86062857D01*
X164987857Y-86062857D01*
X164845000Y-85991428D01*
X164773571Y-85848571D01*
X164773571Y-85562857D01*
X164845000Y-85420000D01*
X164987857Y-85348571D01*
X165130714Y-85348571D01*
X165273571Y-86062857D01*
X164773571Y-84062857D02*
X165773571Y-84062857D01*
X164773571Y-84705714D02*
X165559286Y-84705714D01*
X165702143Y-84634286D01*
X165773571Y-84491428D01*
X165773571Y-84277143D01*
X165702143Y-84134286D01*
X165630714Y-84062857D01*
X165773571Y-83348571D02*
X164773571Y-83348571D01*
X165059286Y-83348571D02*
X164916429Y-83277143D01*
X164845000Y-83205714D01*
X164773571Y-83062857D01*
X164773571Y-82920000D01*
X167537857Y-97991428D02*
X167609286Y-97777142D01*
X167680714Y-97705714D01*
X167823571Y-97634285D01*
X168037857Y-97634285D01*
X168180714Y-97705714D01*
X168252143Y-97777142D01*
X168323571Y-97920000D01*
X168323571Y-98491428D01*
X166823571Y-98491428D01*
X166823571Y-97991428D01*
X166895000Y-97848571D01*
X166966429Y-97777142D01*
X167109286Y-97705714D01*
X167252143Y-97705714D01*
X167395000Y-97777142D01*
X167466429Y-97848571D01*
X167537857Y-97991428D01*
X167537857Y-98491428D01*
X168323571Y-96991428D02*
X167323571Y-96991428D01*
X166823571Y-96991428D02*
X166895000Y-97062857D01*
X166966429Y-96991428D01*
X166895000Y-96920000D01*
X166823571Y-96991428D01*
X166966429Y-96991428D01*
X167752143Y-96277142D02*
X167752143Y-95134285D01*
X168323571Y-93777142D02*
X166823571Y-93777142D01*
X168252143Y-93777142D02*
X168323571Y-93919999D01*
X168323571Y-94205713D01*
X168252143Y-94348571D01*
X168180714Y-94419999D01*
X168037857Y-94491428D01*
X167609286Y-94491428D01*
X167466429Y-94419999D01*
X167395000Y-94348571D01*
X167323571Y-94205713D01*
X167323571Y-93919999D01*
X167395000Y-93777142D01*
X168323571Y-93062856D02*
X167323571Y-93062856D01*
X166823571Y-93062856D02*
X166895000Y-93134285D01*
X166966429Y-93062856D01*
X166895000Y-92991428D01*
X166823571Y-93062856D01*
X166966429Y-93062856D01*
X168323571Y-92348570D02*
X167323571Y-92348570D01*
X167609286Y-92348570D02*
X167466429Y-92277142D01*
X167395000Y-92205713D01*
X167323571Y-92062856D01*
X167323571Y-91919999D01*
X168252143Y-90848571D02*
X168323571Y-90991428D01*
X168323571Y-91277142D01*
X168252143Y-91419999D01*
X168109286Y-91491428D01*
X167537857Y-91491428D01*
X167395000Y-91419999D01*
X167323571Y-91277142D01*
X167323571Y-90991428D01*
X167395000Y-90848571D01*
X167537857Y-90777142D01*
X167680714Y-90777142D01*
X167823571Y-91491428D01*
X168252143Y-89491428D02*
X168323571Y-89634285D01*
X168323571Y-89919999D01*
X168252143Y-90062857D01*
X168180714Y-90134285D01*
X168037857Y-90205714D01*
X167609286Y-90205714D01*
X167466429Y-90134285D01*
X167395000Y-90062857D01*
X167323571Y-89919999D01*
X167323571Y-89634285D01*
X167395000Y-89491428D01*
X167323571Y-89062857D02*
X167323571Y-88491428D01*
X166823571Y-88848571D02*
X168109286Y-88848571D01*
X168252143Y-88777143D01*
X168323571Y-88634285D01*
X168323571Y-88491428D01*
X168323571Y-87991428D02*
X167323571Y-87991428D01*
X166823571Y-87991428D02*
X166895000Y-88062857D01*
X166966429Y-87991428D01*
X166895000Y-87920000D01*
X166823571Y-87991428D01*
X166966429Y-87991428D01*
X168323571Y-87062856D02*
X168252143Y-87205714D01*
X168180714Y-87277142D01*
X168037857Y-87348571D01*
X167609286Y-87348571D01*
X167466429Y-87277142D01*
X167395000Y-87205714D01*
X167323571Y-87062856D01*
X167323571Y-86848571D01*
X167395000Y-86705714D01*
X167466429Y-86634285D01*
X167609286Y-86562856D01*
X168037857Y-86562856D01*
X168180714Y-86634285D01*
X168252143Y-86705714D01*
X168323571Y-86848571D01*
X168323571Y-87062856D01*
X167323571Y-85919999D02*
X168323571Y-85919999D01*
X167466429Y-85919999D02*
X167395000Y-85848571D01*
X167323571Y-85705713D01*
X167323571Y-85491428D01*
X167395000Y-85348571D01*
X167537857Y-85277142D01*
X168323571Y-85277142D01*
X167323571Y-84562856D02*
X168323571Y-84562856D01*
X167466429Y-84562856D02*
X167395000Y-84491428D01*
X167323571Y-84348570D01*
X167323571Y-84134285D01*
X167395000Y-83991428D01*
X167537857Y-83919999D01*
X168323571Y-83919999D01*
X168252143Y-82634285D02*
X168323571Y-82777142D01*
X168323571Y-83062856D01*
X168252143Y-83205713D01*
X168109286Y-83277142D01*
X167537857Y-83277142D01*
X167395000Y-83205713D01*
X167323571Y-83062856D01*
X167323571Y-82777142D01*
X167395000Y-82634285D01*
X167537857Y-82562856D01*
X167680714Y-82562856D01*
X167823571Y-83277142D01*
X168323571Y-81705713D02*
X168252143Y-81848571D01*
X168109286Y-81919999D01*
X166823571Y-81919999D01*
X176657143Y-79260000D02*
X176514286Y-79188571D01*
X176300000Y-79188571D01*
X176085715Y-79260000D01*
X175942857Y-79402857D01*
X175871429Y-79545714D01*
X175800000Y-79831429D01*
X175800000Y-80045714D01*
X175871429Y-80331429D01*
X175942857Y-80474286D01*
X176085715Y-80617143D01*
X176300000Y-80688571D01*
X176442857Y-80688571D01*
X176657143Y-80617143D01*
X176728572Y-80545714D01*
X176728572Y-80045714D01*
X176442857Y-80045714D01*
X177371429Y-80688571D02*
X177371429Y-79188571D01*
X178228572Y-80688571D01*
X178228572Y-79188571D01*
X178942858Y-80688571D02*
X178942858Y-79188571D01*
X179300001Y-79188571D01*
X179514286Y-79260000D01*
X179657144Y-79402857D01*
X179728572Y-79545714D01*
X179800001Y-79831429D01*
X179800001Y-80045714D01*
X179728572Y-80331429D01*
X179657144Y-80474286D01*
X179514286Y-80617143D01*
X179300001Y-80688571D01*
X178942858Y-80688571D01*
X106807143Y-70370000D02*
X106664286Y-70298571D01*
X106450000Y-70298571D01*
X106235715Y-70370000D01*
X106092857Y-70512857D01*
X106021429Y-70655714D01*
X105950000Y-70941429D01*
X105950000Y-71155714D01*
X106021429Y-71441429D01*
X106092857Y-71584286D01*
X106235715Y-71727143D01*
X106450000Y-71798571D01*
X106592857Y-71798571D01*
X106807143Y-71727143D01*
X106878572Y-71655714D01*
X106878572Y-71155714D01*
X106592857Y-71155714D01*
X107521429Y-71798571D02*
X107521429Y-70298571D01*
X108378572Y-71798571D01*
X108378572Y-70298571D01*
X109092858Y-71798571D02*
X109092858Y-70298571D01*
X109450001Y-70298571D01*
X109664286Y-70370000D01*
X109807144Y-70512857D01*
X109878572Y-70655714D01*
X109950001Y-70941429D01*
X109950001Y-71155714D01*
X109878572Y-71441429D01*
X109807144Y-71584286D01*
X109664286Y-71727143D01*
X109450001Y-71798571D01*
X109092858Y-71798571D01*
D12*
X140461905Y-51347619D02*
X139890476Y-51347619D01*
X140176191Y-50347619D02*
X140176191Y-51347619D01*
X139652381Y-51347619D02*
X138985714Y-50347619D01*
X138985714Y-51347619D02*
X139652381Y-50347619D01*
X142406666Y-50347619D02*
X142740000Y-50823810D01*
X142978095Y-50347619D02*
X142978095Y-51347619D01*
X142597142Y-51347619D01*
X142501904Y-51300000D01*
X142454285Y-51252381D01*
X142406666Y-51157143D01*
X142406666Y-51014286D01*
X142454285Y-50919048D01*
X142501904Y-50871429D01*
X142597142Y-50823810D01*
X142978095Y-50823810D01*
X142073333Y-51347619D02*
X141406666Y-50347619D01*
X141406666Y-51347619D02*
X142073333Y-50347619D01*
X146811904Y-51300000D02*
X146907142Y-51347619D01*
X147049999Y-51347619D01*
X147192857Y-51300000D01*
X147288095Y-51204762D01*
X147335714Y-51109524D01*
X147383333Y-50919048D01*
X147383333Y-50776190D01*
X147335714Y-50585714D01*
X147288095Y-50490476D01*
X147192857Y-50395238D01*
X147049999Y-50347619D01*
X146954761Y-50347619D01*
X146811904Y-50395238D01*
X146764285Y-50442857D01*
X146764285Y-50776190D01*
X146954761Y-50776190D01*
X146335714Y-50347619D02*
X146335714Y-51347619D01*
X145764285Y-50347619D01*
X145764285Y-51347619D01*
X145288095Y-50347619D02*
X145288095Y-51347619D01*
X145050000Y-51347619D01*
X144907142Y-51300000D01*
X144811904Y-51204762D01*
X144764285Y-51109524D01*
X144716666Y-50919048D01*
X144716666Y-50776190D01*
X144764285Y-50585714D01*
X144811904Y-50490476D01*
X144907142Y-50395238D01*
X145050000Y-50347619D01*
X145288095Y-50347619D01*
D11*
X106164286Y-69258571D02*
X106164286Y-67758571D01*
X106164286Y-68472857D02*
X107021429Y-68472857D01*
X107021429Y-69258571D02*
X107021429Y-67758571D01*
X108235715Y-68472857D02*
X107735715Y-68472857D01*
X107735715Y-69258571D02*
X107735715Y-67758571D01*
X108450001Y-67758571D01*
X109807143Y-69258571D02*
X108950000Y-69258571D01*
X109378572Y-69258571D02*
X109378572Y-67758571D01*
X109235715Y-67972857D01*
X109092857Y-68115714D01*
X108950000Y-68187143D01*
D10*
X129540000Y-62230000D02*
X127000000Y-62230000D01*
X127000000Y-62230000D02*
X127000000Y-69850000D01*
X127000000Y-69850000D02*
X129540000Y-69850000D01*
X129540000Y-69850000D02*
X129540000Y-62230000D01*
X127000000Y-78740000D02*
X129540000Y-78740000D01*
X129540000Y-78740000D02*
X129540000Y-71120000D01*
X129540000Y-71120000D02*
X127000000Y-71120000D01*
X127000000Y-71120000D02*
X127000000Y-78740000D01*
X162560000Y-73660000D02*
X160020000Y-73660000D01*
X160020000Y-73660000D02*
X160020000Y-81280000D01*
X160020000Y-81280000D02*
X162560000Y-81280000D01*
X162560000Y-81280000D02*
X162560000Y-73660000D01*
X121920000Y-77470000D02*
X124460000Y-77470000D01*
X124460000Y-77470000D02*
X124460000Y-69850000D01*
X124460000Y-69850000D02*
X121920000Y-69850000D01*
X121920000Y-69850000D02*
X121920000Y-77470000D01*
X157480000Y-90170000D02*
X154940000Y-90170000D01*
X154940000Y-90170000D02*
X154940000Y-97790000D01*
X154940000Y-97790000D02*
X157480000Y-97790000D01*
X157480000Y-97790000D02*
X157480000Y-90170000D01*
X129540000Y-53340000D02*
X127000000Y-53340000D01*
X127000000Y-53340000D02*
X127000000Y-60960000D01*
X127000000Y-60960000D02*
X129540000Y-60960000D01*
X129540000Y-60960000D02*
X129540000Y-53340000D01*
X154940000Y-80010000D02*
X157480000Y-80010000D01*
X157480000Y-80010000D02*
X157480000Y-72390000D01*
X157480000Y-72390000D02*
X154940000Y-72390000D01*
X154940000Y-72390000D02*
X154940000Y-80010000D01*
X157480000Y-81280000D02*
X154940000Y-81280000D01*
X154940000Y-81280000D02*
X154940000Y-88900000D01*
X154940000Y-88900000D02*
X157480000Y-88900000D01*
X157480000Y-88900000D02*
X157480000Y-81280000D01*
D13*
X155150000Y-64290000D02*
X157270000Y-64290000D01*
X157270000Y-64290000D02*
X157270000Y-60170000D01*
X157270000Y-60170000D02*
X155150000Y-60170000D01*
X155150000Y-60170000D02*
X155150000Y-64290000D01*
X156210000Y-67600000D02*
X156210000Y-64290000D01*
X156210000Y-56860000D02*
X156210000Y-60170000D01*
X155150000Y-63630000D02*
X157270000Y-63630000D01*
X129330000Y-86840000D02*
X127210000Y-86840000D01*
X127210000Y-86840000D02*
X127210000Y-90960000D01*
X127210000Y-90960000D02*
X129330000Y-90960000D01*
X129330000Y-90960000D02*
X129330000Y-86840000D01*
X128270000Y-83530000D02*
X128270000Y-86840000D01*
X128270000Y-94270000D02*
X128270000Y-90960000D01*
X129330000Y-87500000D02*
X127210000Y-87500000D01*
X151162281Y-74617669D02*
X152074448Y-73705501D01*
X152074448Y-73705501D02*
X151084499Y-72715552D01*
X151084499Y-72715552D02*
X150172331Y-73627719D01*
X150172544Y-73627850D02*
G75*
G03X151162281Y-74617669I-1582544J-2572150D01*
G01*
X133317719Y-77782331D02*
X132405552Y-78694499D01*
X132405552Y-78694499D02*
X133395501Y-79684448D01*
X133395501Y-79684448D02*
X134307669Y-78772281D01*
X134307456Y-78772150D02*
G75*
G03X133317719Y-77782331I1582544J2572150D01*
G01*
X167680000Y-60290000D02*
X165060000Y-60290000D01*
X165060000Y-60290000D02*
X165060000Y-66710000D01*
X165060000Y-66710000D02*
X167680000Y-66710000D01*
X167680000Y-66710000D02*
X167680000Y-60290000D01*
X166370000Y-56860000D02*
X166370000Y-60290000D01*
X166370000Y-70140000D02*
X166370000Y-66710000D01*
X116800000Y-90840000D02*
X119420000Y-90840000D01*
X119420000Y-90840000D02*
X119420000Y-84420000D01*
X119420000Y-84420000D02*
X116800000Y-84420000D01*
X116800000Y-84420000D02*
X116800000Y-90840000D01*
X118110000Y-94270000D02*
X118110000Y-90840000D01*
X118110000Y-80990000D02*
X118110000Y-84420000D01*
X139030000Y-63460000D02*
X139030000Y-66080000D01*
X139030000Y-66080000D02*
X145450000Y-66080000D01*
X145450000Y-66080000D02*
X145450000Y-63460000D01*
X145450000Y-63460000D02*
X139030000Y-63460000D01*
X135600000Y-64770000D02*
X139030000Y-64770000D01*
X148880000Y-64770000D02*
X145450000Y-64770000D01*
X145450000Y-96560000D02*
X145450000Y-93940000D01*
X145450000Y-93940000D02*
X139030000Y-93940000D01*
X139030000Y-93940000D02*
X139030000Y-96560000D01*
X139030000Y-96560000D02*
X145450000Y-96560000D01*
X148880000Y-95250000D02*
X145450000Y-95250000D01*
X135600000Y-95250000D02*
X139030000Y-95250000D01*
X159980000Y-66710000D02*
X162600000Y-66710000D01*
X162600000Y-66710000D02*
X162600000Y-60290000D01*
X162600000Y-60290000D02*
X159980000Y-60290000D01*
X159980000Y-60290000D02*
X159980000Y-66710000D01*
X161290000Y-70140000D02*
X161290000Y-66710000D01*
X161290000Y-56860000D02*
X161290000Y-60290000D01*
X139030000Y-67270000D02*
X139030000Y-69890000D01*
X139030000Y-69890000D02*
X145450000Y-69890000D01*
X145450000Y-69890000D02*
X145450000Y-67270000D01*
X145450000Y-67270000D02*
X139030000Y-67270000D01*
X135600000Y-68580000D02*
X139030000Y-68580000D01*
X148880000Y-68580000D02*
X145450000Y-68580000D01*
X124500000Y-84420000D02*
X121880000Y-84420000D01*
X121880000Y-84420000D02*
X121880000Y-90840000D01*
X121880000Y-90840000D02*
X124500000Y-90840000D01*
X124500000Y-90840000D02*
X124500000Y-84420000D01*
X123190000Y-80990000D02*
X123190000Y-84420000D01*
X123190000Y-94270000D02*
X123190000Y-90840000D01*
X139030000Y-59650000D02*
X139030000Y-62270000D01*
X139030000Y-62270000D02*
X145450000Y-62270000D01*
X145450000Y-62270000D02*
X145450000Y-59650000D01*
X145450000Y-59650000D02*
X139030000Y-59650000D01*
X135600000Y-60960000D02*
X139030000Y-60960000D01*
X148880000Y-60960000D02*
X145450000Y-60960000D01*
X145450000Y-92750000D02*
X145450000Y-90130000D01*
X145450000Y-90130000D02*
X139030000Y-90130000D01*
X139030000Y-90130000D02*
X139030000Y-92750000D01*
X139030000Y-92750000D02*
X145450000Y-92750000D01*
X148880000Y-91440000D02*
X145450000Y-91440000D01*
X135600000Y-91440000D02*
X139030000Y-91440000D01*
X139030000Y-82510000D02*
X139030000Y-85130000D01*
X139030000Y-85130000D02*
X145450000Y-85130000D01*
X145450000Y-85130000D02*
X145450000Y-82510000D01*
X145450000Y-82510000D02*
X139030000Y-82510000D01*
X135600000Y-83820000D02*
X139030000Y-83820000D01*
X148880000Y-83820000D02*
X145450000Y-83820000D01*
X139030000Y-55840000D02*
X139030000Y-58460000D01*
X139030000Y-58460000D02*
X145450000Y-58460000D01*
X145450000Y-58460000D02*
X145450000Y-55840000D01*
X145450000Y-55840000D02*
X139030000Y-55840000D01*
X135600000Y-57150000D02*
X139030000Y-57150000D01*
X148880000Y-57150000D02*
X145450000Y-57150000D01*
X145450000Y-88940000D02*
X145450000Y-86320000D01*
X145450000Y-86320000D02*
X139030000Y-86320000D01*
X139030000Y-86320000D02*
X139030000Y-88940000D01*
X139030000Y-88940000D02*
X145450000Y-88940000D01*
X148880000Y-87630000D02*
X145450000Y-87630000D01*
X135600000Y-87630000D02*
X139030000Y-87630000D01*
D10*
X107500000Y-95000000D02*
X108500000Y-93000000D01*
X108500000Y-93000000D02*
X111500000Y-93000000D01*
X111500000Y-93000000D02*
X112500000Y-95000000D01*
X112500000Y-95000000D02*
X111250000Y-97000000D01*
X111250000Y-97000000D02*
X108750000Y-97000000D01*
X108750000Y-97000000D02*
X107500000Y-95000000D01*
X172500000Y-95000000D02*
X173500000Y-93000000D01*
X173500000Y-93000000D02*
X176500000Y-93000000D01*
X176500000Y-93000000D02*
X177500000Y-95000000D01*
X177500000Y-95000000D02*
X176250000Y-97000000D01*
X176250000Y-97000000D02*
X173750000Y-97000000D01*
X173750000Y-97000000D02*
X172500000Y-95000000D01*
X107500000Y-55000000D02*
X108500000Y-53000000D01*
X108500000Y-53000000D02*
X111500000Y-53000000D01*
X111500000Y-53000000D02*
X112500000Y-55000000D01*
X112500000Y-55000000D02*
X111250000Y-57000000D01*
X111250000Y-57000000D02*
X108750000Y-57000000D01*
X108750000Y-57000000D02*
X107500000Y-55000000D01*
X172500000Y-55000000D02*
X173500000Y-53000000D01*
X173500000Y-53000000D02*
X176500000Y-53000000D01*
X176500000Y-53000000D02*
X177500000Y-55000000D01*
X177500000Y-55000000D02*
X176250000Y-57000000D01*
X176250000Y-57000000D02*
X173750000Y-57000000D01*
X173750000Y-57000000D02*
X172500000Y-55000000D01*
D14*
G36*
X176411111Y-62177778D02*
X176411111Y-67822222D01*
X175028222Y-67822222D01*
X175028222Y-67681111D01*
X176270000Y-67681111D01*
X176270000Y-67511778D01*
X175890475Y-67511778D01*
X175890475Y-66806222D01*
X175987777Y-66806222D01*
X175987777Y-66270000D01*
X176270000Y-66270000D01*
X176270000Y-66072445D01*
X176128889Y-66072445D01*
X176045354Y-66070595D01*
X176003699Y-66059222D01*
X175989362Y-66029589D01*
X175987777Y-65987778D01*
X175980784Y-65927809D01*
X175947797Y-65905705D01*
X175903111Y-65903111D01*
X175843141Y-65910104D01*
X175821038Y-65943091D01*
X175818444Y-65987778D01*
X175818444Y-66072445D01*
X175028222Y-66072445D01*
X175028222Y-65677334D01*
X176270000Y-65677334D01*
X176270000Y-65479778D01*
X175677333Y-65479778D01*
X175677333Y-64915334D01*
X176270000Y-64915334D01*
X176270000Y-64717778D01*
X175046150Y-64717778D01*
X175046150Y-64572228D01*
X175049389Y-64571963D01*
X175079555Y-64553398D01*
X175146886Y-64509375D01*
X175241877Y-64446181D01*
X175355019Y-64370102D01*
X175373003Y-64357945D01*
X175675451Y-64153334D01*
X176270000Y-64153334D01*
X176270000Y-63955778D01*
X175676234Y-63955778D01*
X175359283Y-63743717D01*
X175042333Y-63531656D01*
X175033194Y-63620681D01*
X175030883Y-63668333D01*
X175040182Y-63707625D01*
X175068613Y-63746969D01*
X175123697Y-63794779D01*
X175212956Y-63859467D01*
X175300763Y-63919955D01*
X175502748Y-64058125D01*
X175265485Y-64219951D01*
X175157678Y-64294798D01*
X175088607Y-64348260D01*
X175049715Y-64389771D01*
X175032448Y-64428762D01*
X175028253Y-64474666D01*
X175028222Y-64481573D01*
X175028222Y-63419556D01*
X175458611Y-63419398D01*
X175663337Y-63417397D01*
X175820533Y-63410444D01*
X175939018Y-63396862D01*
X176027612Y-63374974D01*
X176095134Y-63343101D01*
X176150403Y-63299568D01*
X176164872Y-63285073D01*
X176234854Y-63175418D01*
X176274279Y-63035448D01*
X176281642Y-62883237D01*
X176255440Y-62736862D01*
X176217694Y-62649901D01*
X176170484Y-62585001D01*
X176108767Y-62536126D01*
X176024709Y-62501247D01*
X175910479Y-62478334D01*
X175758245Y-62465356D01*
X175560173Y-62460285D01*
X175484978Y-62460000D01*
X175028222Y-62460000D01*
X175028222Y-62657556D01*
X175492315Y-62657556D01*
X175664547Y-62657889D01*
X175789808Y-62659682D01*
X175877567Y-62664120D01*
X175937297Y-62672392D01*
X175978468Y-62685685D01*
X176010554Y-62705187D01*
X176035593Y-62725668D01*
X176084849Y-62777305D01*
X176108312Y-62835816D01*
X176114735Y-62924519D01*
X176114777Y-62936551D01*
X176107526Y-63038056D01*
X176081235Y-63106410D01*
X176050567Y-63143605D01*
X176024146Y-63167187D01*
X175993127Y-63184413D01*
X175948481Y-63196501D01*
X175881178Y-63204667D01*
X175782189Y-63210128D01*
X175642484Y-63214101D01*
X175507290Y-63216803D01*
X175028222Y-63225717D01*
X175028222Y-63419556D01*
X175028222Y-64481573D01*
X175033391Y-64544447D01*
X175046150Y-64572228D01*
X175046150Y-64717778D01*
X175028222Y-64717778D01*
X175028222Y-64915334D01*
X175508000Y-64915334D01*
X175508000Y-65479778D01*
X175028222Y-65479778D01*
X175028222Y-65677334D01*
X175028222Y-66072445D01*
X175028494Y-66192389D01*
X175028766Y-66312334D01*
X175410969Y-66559278D01*
X175569911Y-66659927D01*
X175690611Y-66731132D01*
X175780442Y-66776693D01*
X175846781Y-66800406D01*
X175890475Y-66806222D01*
X175890475Y-67511778D01*
X175677333Y-67511778D01*
X175677333Y-67000029D01*
X175599722Y-67008959D01*
X175562512Y-67015163D01*
X175539205Y-67030924D01*
X175525976Y-67067651D01*
X175519002Y-67136751D01*
X175514459Y-67249634D01*
X175513956Y-67264834D01*
X175505802Y-67511778D01*
X175197555Y-67511778D01*
X175197555Y-66975556D01*
X175028222Y-66975556D01*
X175028222Y-67681111D01*
X175028222Y-67822222D01*
X174480853Y-67822222D01*
X174480853Y-64178154D01*
X174539878Y-64169326D01*
X174620015Y-64151725D01*
X174609415Y-63941811D01*
X174615530Y-63744098D01*
X174651008Y-63554375D01*
X174711710Y-63386843D01*
X174793497Y-63255703D01*
X174816836Y-63230186D01*
X174887506Y-63154459D01*
X174924997Y-63096889D01*
X174939688Y-63039735D01*
X174941327Y-63017389D01*
X174920986Y-62975413D01*
X174891284Y-62968000D01*
X174795857Y-62994735D01*
X174702787Y-63069043D01*
X174616138Y-63182078D01*
X174539976Y-63324994D01*
X174478366Y-63488947D01*
X174435374Y-63665089D01*
X174415063Y-63844575D01*
X174418933Y-63995825D01*
X174429740Y-64086822D01*
X174440661Y-64152269D01*
X174447714Y-64174900D01*
X174480853Y-64178154D01*
X174480853Y-67822222D01*
X174141785Y-67822222D01*
X174141785Y-64275381D01*
X174213713Y-64260411D01*
X174231564Y-64254426D01*
X174336777Y-64217792D01*
X174326887Y-64006136D01*
X174338956Y-63715501D01*
X174404407Y-63438501D01*
X174462970Y-63290460D01*
X174520339Y-63183871D01*
X174591370Y-63080960D01*
X174666090Y-62993457D01*
X174734524Y-62933090D01*
X174785191Y-62911556D01*
X174816067Y-62887046D01*
X174848810Y-62826362D01*
X174874699Y-62748769D01*
X174884230Y-62692834D01*
X174861312Y-62666896D01*
X174797868Y-62657556D01*
X174695030Y-62678892D01*
X174579479Y-62735358D01*
X174470580Y-62815645D01*
X174401596Y-62888991D01*
X174305889Y-63037233D01*
X174215782Y-63217185D01*
X174142567Y-63404397D01*
X174107714Y-63525389D01*
X174090635Y-63628521D01*
X174079658Y-63757029D01*
X174074787Y-63896307D01*
X174076028Y-64031753D01*
X174083384Y-64148761D01*
X174096861Y-64232728D01*
X174107477Y-64260523D01*
X174141785Y-64275381D01*
X174141785Y-67822222D01*
X173772522Y-67822222D01*
X173772522Y-64398376D01*
X173840954Y-64382781D01*
X173899411Y-64364974D01*
X173984712Y-64332393D01*
X174024111Y-64303958D01*
X174027031Y-64272640D01*
X174026198Y-64270377D01*
X174014525Y-64219108D01*
X174001989Y-64131507D01*
X173992365Y-64038026D01*
X173991965Y-63823445D01*
X174023041Y-63599989D01*
X174081381Y-63378074D01*
X174162777Y-63168121D01*
X174263017Y-62980549D01*
X174377893Y-62825776D01*
X174503195Y-62714222D01*
X174535211Y-62694555D01*
X174624016Y-62628257D01*
X174674294Y-62542853D01*
X174680331Y-62524816D01*
X174707042Y-62430144D01*
X174710019Y-62376895D01*
X174684151Y-62353210D01*
X174624330Y-62347230D01*
X174603764Y-62347111D01*
X174450840Y-62374305D01*
X174301794Y-62451772D01*
X174160287Y-62573340D01*
X174029980Y-62732841D01*
X173914535Y-62924101D01*
X173817613Y-63140952D01*
X173742875Y-63377221D01*
X173693983Y-63626737D01*
X173674597Y-63883331D01*
X173674426Y-63913445D01*
X173678964Y-64069258D01*
X173690936Y-64207605D01*
X173708782Y-64316917D01*
X173730941Y-64385625D01*
X173739815Y-64398334D01*
X173772522Y-64398376D01*
X173772522Y-67822222D01*
X173588889Y-67822222D01*
X173588889Y-62177778D01*
X176411111Y-62177778D01*
X176411111Y-62177778D01*
G37*
X176411111Y-62177778D02*
X176411111Y-67822222D01*
X175028222Y-67822222D01*
X175028222Y-67681111D01*
X176270000Y-67681111D01*
X176270000Y-67511778D01*
X175890475Y-67511778D01*
X175890475Y-66806222D01*
X175987777Y-66806222D01*
X175987777Y-66270000D01*
X176270000Y-66270000D01*
X176270000Y-66072445D01*
X176128889Y-66072445D01*
X176045354Y-66070595D01*
X176003699Y-66059222D01*
X175989362Y-66029589D01*
X175987777Y-65987778D01*
X175980784Y-65927809D01*
X175947797Y-65905705D01*
X175903111Y-65903111D01*
X175843141Y-65910104D01*
X175821038Y-65943091D01*
X175818444Y-65987778D01*
X175818444Y-66072445D01*
X175028222Y-66072445D01*
X175028222Y-65677334D01*
X176270000Y-65677334D01*
X176270000Y-65479778D01*
X175677333Y-65479778D01*
X175677333Y-64915334D01*
X176270000Y-64915334D01*
X176270000Y-64717778D01*
X175046150Y-64717778D01*
X175046150Y-64572228D01*
X175049389Y-64571963D01*
X175079555Y-64553398D01*
X175146886Y-64509375D01*
X175241877Y-64446181D01*
X175355019Y-64370102D01*
X175373003Y-64357945D01*
X175675451Y-64153334D01*
X176270000Y-64153334D01*
X176270000Y-63955778D01*
X175676234Y-63955778D01*
X175359283Y-63743717D01*
X175042333Y-63531656D01*
X175033194Y-63620681D01*
X175030883Y-63668333D01*
X175040182Y-63707625D01*
X175068613Y-63746969D01*
X175123697Y-63794779D01*
X175212956Y-63859467D01*
X175300763Y-63919955D01*
X175502748Y-64058125D01*
X175265485Y-64219951D01*
X175157678Y-64294798D01*
X175088607Y-64348260D01*
X175049715Y-64389771D01*
X175032448Y-64428762D01*
X175028253Y-64474666D01*
X175028222Y-64481573D01*
X175028222Y-63419556D01*
X175458611Y-63419398D01*
X175663337Y-63417397D01*
X175820533Y-63410444D01*
X175939018Y-63396862D01*
X176027612Y-63374974D01*
X176095134Y-63343101D01*
X176150403Y-63299568D01*
X176164872Y-63285073D01*
X176234854Y-63175418D01*
X176274279Y-63035448D01*
X176281642Y-62883237D01*
X176255440Y-62736862D01*
X176217694Y-62649901D01*
X176170484Y-62585001D01*
X176108767Y-62536126D01*
X176024709Y-62501247D01*
X175910479Y-62478334D01*
X175758245Y-62465356D01*
X175560173Y-62460285D01*
X175484978Y-62460000D01*
X175028222Y-62460000D01*
X175028222Y-62657556D01*
X175492315Y-62657556D01*
X175664547Y-62657889D01*
X175789808Y-62659682D01*
X175877567Y-62664120D01*
X175937297Y-62672392D01*
X175978468Y-62685685D01*
X176010554Y-62705187D01*
X176035593Y-62725668D01*
X176084849Y-62777305D01*
X176108312Y-62835816D01*
X176114735Y-62924519D01*
X176114777Y-62936551D01*
X176107526Y-63038056D01*
X176081235Y-63106410D01*
X176050567Y-63143605D01*
X176024146Y-63167187D01*
X175993127Y-63184413D01*
X175948481Y-63196501D01*
X175881178Y-63204667D01*
X175782189Y-63210128D01*
X175642484Y-63214101D01*
X175507290Y-63216803D01*
X175028222Y-63225717D01*
X175028222Y-63419556D01*
X175028222Y-64481573D01*
X175033391Y-64544447D01*
X175046150Y-64572228D01*
X175046150Y-64717778D01*
X175028222Y-64717778D01*
X175028222Y-64915334D01*
X175508000Y-64915334D01*
X175508000Y-65479778D01*
X175028222Y-65479778D01*
X175028222Y-65677334D01*
X175028222Y-66072445D01*
X175028494Y-66192389D01*
X175028766Y-66312334D01*
X175410969Y-66559278D01*
X175569911Y-66659927D01*
X175690611Y-66731132D01*
X175780442Y-66776693D01*
X175846781Y-66800406D01*
X175890475Y-66806222D01*
X175890475Y-67511778D01*
X175677333Y-67511778D01*
X175677333Y-67000029D01*
X175599722Y-67008959D01*
X175562512Y-67015163D01*
X175539205Y-67030924D01*
X175525976Y-67067651D01*
X175519002Y-67136751D01*
X175514459Y-67249634D01*
X175513956Y-67264834D01*
X175505802Y-67511778D01*
X175197555Y-67511778D01*
X175197555Y-66975556D01*
X175028222Y-66975556D01*
X175028222Y-67681111D01*
X175028222Y-67822222D01*
X174480853Y-67822222D01*
X174480853Y-64178154D01*
X174539878Y-64169326D01*
X174620015Y-64151725D01*
X174609415Y-63941811D01*
X174615530Y-63744098D01*
X174651008Y-63554375D01*
X174711710Y-63386843D01*
X174793497Y-63255703D01*
X174816836Y-63230186D01*
X174887506Y-63154459D01*
X174924997Y-63096889D01*
X174939688Y-63039735D01*
X174941327Y-63017389D01*
X174920986Y-62975413D01*
X174891284Y-62968000D01*
X174795857Y-62994735D01*
X174702787Y-63069043D01*
X174616138Y-63182078D01*
X174539976Y-63324994D01*
X174478366Y-63488947D01*
X174435374Y-63665089D01*
X174415063Y-63844575D01*
X174418933Y-63995825D01*
X174429740Y-64086822D01*
X174440661Y-64152269D01*
X174447714Y-64174900D01*
X174480853Y-64178154D01*
X174480853Y-67822222D01*
X174141785Y-67822222D01*
X174141785Y-64275381D01*
X174213713Y-64260411D01*
X174231564Y-64254426D01*
X174336777Y-64217792D01*
X174326887Y-64006136D01*
X174338956Y-63715501D01*
X174404407Y-63438501D01*
X174462970Y-63290460D01*
X174520339Y-63183871D01*
X174591370Y-63080960D01*
X174666090Y-62993457D01*
X174734524Y-62933090D01*
X174785191Y-62911556D01*
X174816067Y-62887046D01*
X174848810Y-62826362D01*
X174874699Y-62748769D01*
X174884230Y-62692834D01*
X174861312Y-62666896D01*
X174797868Y-62657556D01*
X174695030Y-62678892D01*
X174579479Y-62735358D01*
X174470580Y-62815645D01*
X174401596Y-62888991D01*
X174305889Y-63037233D01*
X174215782Y-63217185D01*
X174142567Y-63404397D01*
X174107714Y-63525389D01*
X174090635Y-63628521D01*
X174079658Y-63757029D01*
X174074787Y-63896307D01*
X174076028Y-64031753D01*
X174083384Y-64148761D01*
X174096861Y-64232728D01*
X174107477Y-64260523D01*
X174141785Y-64275381D01*
X174141785Y-67822222D01*
X173772522Y-67822222D01*
X173772522Y-64398376D01*
X173840954Y-64382781D01*
X173899411Y-64364974D01*
X173984712Y-64332393D01*
X174024111Y-64303958D01*
X174027031Y-64272640D01*
X174026198Y-64270377D01*
X174014525Y-64219108D01*
X174001989Y-64131507D01*
X173992365Y-64038026D01*
X173991965Y-63823445D01*
X174023041Y-63599989D01*
X174081381Y-63378074D01*
X174162777Y-63168121D01*
X174263017Y-62980549D01*
X174377893Y-62825776D01*
X174503195Y-62714222D01*
X174535211Y-62694555D01*
X174624016Y-62628257D01*
X174674294Y-62542853D01*
X174680331Y-62524816D01*
X174707042Y-62430144D01*
X174710019Y-62376895D01*
X174684151Y-62353210D01*
X174624330Y-62347230D01*
X174603764Y-62347111D01*
X174450840Y-62374305D01*
X174301794Y-62451772D01*
X174160287Y-62573340D01*
X174029980Y-62732841D01*
X173914535Y-62924101D01*
X173817613Y-63140952D01*
X173742875Y-63377221D01*
X173693983Y-63626737D01*
X173674597Y-63883331D01*
X173674426Y-63913445D01*
X173678964Y-64069258D01*
X173690936Y-64207605D01*
X173708782Y-64316917D01*
X173730941Y-64385625D01*
X173739815Y-64398334D01*
X173772522Y-64398376D01*
X173772522Y-67822222D01*
X173588889Y-67822222D01*
X173588889Y-62177778D01*
X176411111Y-62177778D01*
G36*
X175818444Y-66270000D02*
X175818444Y-66455110D01*
X175815828Y-66556553D01*
X175806868Y-66609487D01*
X175789891Y-66621657D01*
X175783166Y-66618628D01*
X175745833Y-66595009D01*
X175672700Y-66548169D01*
X175575358Y-66485548D01*
X175494704Y-66433518D01*
X175241519Y-66270000D01*
X175818444Y-66270000D01*
X175818444Y-66270000D01*
G37*
X175818444Y-66270000D02*
X175818444Y-66455110D01*
X175815828Y-66556553D01*
X175806868Y-66609487D01*
X175789891Y-66621657D01*
X175783166Y-66618628D01*
X175745833Y-66595009D01*
X175672700Y-66548169D01*
X175575358Y-66485548D01*
X175494704Y-66433518D01*
X175241519Y-66270000D01*
X175818444Y-66270000D01*
D15*
X128627143Y-71286666D02*
X128674762Y-71334285D01*
X128722381Y-71477142D01*
X128722381Y-71572380D01*
X128674762Y-71715238D01*
X128579524Y-71810476D01*
X128484286Y-71858095D01*
X128293810Y-71905714D01*
X128150952Y-71905714D01*
X127960476Y-71858095D01*
X127865238Y-71810476D01*
X127770000Y-71715238D01*
X127722381Y-71572380D01*
X127722381Y-71477142D01*
X127770000Y-71334285D01*
X127817619Y-71286666D01*
X128722381Y-70334285D02*
X128722381Y-70905714D01*
X128722381Y-70620000D02*
X127722381Y-70620000D01*
X127865238Y-70715238D01*
X127960476Y-70810476D01*
X128008095Y-70905714D01*
X126087143Y-77636666D02*
X126134762Y-77684285D01*
X126182381Y-77827142D01*
X126182381Y-77922380D01*
X126134762Y-78065238D01*
X126039524Y-78160476D01*
X125944286Y-78208095D01*
X125753810Y-78255714D01*
X125610952Y-78255714D01*
X125420476Y-78208095D01*
X125325238Y-78160476D01*
X125230000Y-78065238D01*
X125182381Y-77922380D01*
X125182381Y-77827142D01*
X125230000Y-77684285D01*
X125277619Y-77636666D01*
X125277619Y-77255714D02*
X125230000Y-77208095D01*
X125182381Y-77112857D01*
X125182381Y-76874761D01*
X125230000Y-76779523D01*
X125277619Y-76731904D01*
X125372857Y-76684285D01*
X125468095Y-76684285D01*
X125610952Y-76731904D01*
X126182381Y-77303333D01*
X126182381Y-76684285D01*
X164187143Y-75096666D02*
X164234762Y-75144285D01*
X164282381Y-75287142D01*
X164282381Y-75382380D01*
X164234762Y-75525238D01*
X164139524Y-75620476D01*
X164044286Y-75668095D01*
X163853810Y-75715714D01*
X163710952Y-75715714D01*
X163520476Y-75668095D01*
X163425238Y-75620476D01*
X163330000Y-75525238D01*
X163282381Y-75382380D01*
X163282381Y-75287142D01*
X163330000Y-75144285D01*
X163377619Y-75096666D01*
X163282381Y-74763333D02*
X163282381Y-74144285D01*
X163663333Y-74477619D01*
X163663333Y-74334761D01*
X163710952Y-74239523D01*
X163758571Y-74191904D01*
X163853810Y-74144285D01*
X164091905Y-74144285D01*
X164187143Y-74191904D01*
X164234762Y-74239523D01*
X164282381Y-74334761D01*
X164282381Y-74620476D01*
X164234762Y-74715714D01*
X164187143Y-74763333D01*
X121007143Y-76366666D02*
X121054762Y-76414285D01*
X121102381Y-76557142D01*
X121102381Y-76652380D01*
X121054762Y-76795238D01*
X120959524Y-76890476D01*
X120864286Y-76938095D01*
X120673810Y-76985714D01*
X120530952Y-76985714D01*
X120340476Y-76938095D01*
X120245238Y-76890476D01*
X120150000Y-76795238D01*
X120102381Y-76652380D01*
X120102381Y-76557142D01*
X120150000Y-76414285D01*
X120197619Y-76366666D01*
X120435714Y-75509523D02*
X121102381Y-75509523D01*
X120054762Y-75747619D02*
X120769048Y-75985714D01*
X120769048Y-75366666D01*
X157837143Y-89066666D02*
X157884762Y-89114285D01*
X157932381Y-89257142D01*
X157932381Y-89352380D01*
X157884762Y-89495238D01*
X157789524Y-89590476D01*
X157694286Y-89638095D01*
X157503810Y-89685714D01*
X157360952Y-89685714D01*
X157170476Y-89638095D01*
X157075238Y-89590476D01*
X156980000Y-89495238D01*
X156932381Y-89352380D01*
X156932381Y-89257142D01*
X156980000Y-89114285D01*
X157027619Y-89066666D01*
X156932381Y-88161904D02*
X156932381Y-88638095D01*
X157408571Y-88685714D01*
X157360952Y-88638095D01*
X157313333Y-88542857D01*
X157313333Y-88304761D01*
X157360952Y-88209523D01*
X157408571Y-88161904D01*
X157503810Y-88114285D01*
X157741905Y-88114285D01*
X157837143Y-88161904D01*
X157884762Y-88209523D01*
X157932381Y-88304761D01*
X157932381Y-88542857D01*
X157884762Y-88638095D01*
X157837143Y-88685714D01*
X131167143Y-54776666D02*
X131214762Y-54824285D01*
X131262381Y-54967142D01*
X131262381Y-55062380D01*
X131214762Y-55205238D01*
X131119524Y-55300476D01*
X131024286Y-55348095D01*
X130833810Y-55395714D01*
X130690952Y-55395714D01*
X130500476Y-55348095D01*
X130405238Y-55300476D01*
X130310000Y-55205238D01*
X130262381Y-55062380D01*
X130262381Y-54967142D01*
X130310000Y-54824285D01*
X130357619Y-54776666D01*
X130262381Y-53919523D02*
X130262381Y-54110000D01*
X130310000Y-54205238D01*
X130357619Y-54252857D01*
X130500476Y-54348095D01*
X130690952Y-54395714D01*
X131071905Y-54395714D01*
X131167143Y-54348095D01*
X131214762Y-54300476D01*
X131262381Y-54205238D01*
X131262381Y-54014761D01*
X131214762Y-53919523D01*
X131167143Y-53871904D01*
X131071905Y-53824285D01*
X130833810Y-53824285D01*
X130738571Y-53871904D01*
X130690952Y-53919523D01*
X130643333Y-54014761D01*
X130643333Y-54205238D01*
X130690952Y-54300476D01*
X130738571Y-54348095D01*
X130833810Y-54395714D01*
X159107143Y-78906666D02*
X159154762Y-78954285D01*
X159202381Y-79097142D01*
X159202381Y-79192380D01*
X159154762Y-79335238D01*
X159059524Y-79430476D01*
X158964286Y-79478095D01*
X158773810Y-79525714D01*
X158630952Y-79525714D01*
X158440476Y-79478095D01*
X158345238Y-79430476D01*
X158250000Y-79335238D01*
X158202381Y-79192380D01*
X158202381Y-79097142D01*
X158250000Y-78954285D01*
X158297619Y-78906666D01*
X158202381Y-78573333D02*
X158202381Y-77906666D01*
X159202381Y-78335238D01*
X159107143Y-82716666D02*
X159154762Y-82764285D01*
X159202381Y-82907142D01*
X159202381Y-83002380D01*
X159154762Y-83145238D01*
X159059524Y-83240476D01*
X158964286Y-83288095D01*
X158773810Y-83335714D01*
X158630952Y-83335714D01*
X158440476Y-83288095D01*
X158345238Y-83240476D01*
X158250000Y-83145238D01*
X158202381Y-83002380D01*
X158202381Y-82907142D01*
X158250000Y-82764285D01*
X158297619Y-82716666D01*
X158630952Y-82145238D02*
X158583333Y-82240476D01*
X158535714Y-82288095D01*
X158440476Y-82335714D01*
X158392857Y-82335714D01*
X158297619Y-82288095D01*
X158250000Y-82240476D01*
X158202381Y-82145238D01*
X158202381Y-81954761D01*
X158250000Y-81859523D01*
X158297619Y-81811904D01*
X158392857Y-81764285D01*
X158440476Y-81764285D01*
X158535714Y-81811904D01*
X158583333Y-81859523D01*
X158630952Y-81954761D01*
X158630952Y-82145238D01*
X158678571Y-82240476D01*
X158726190Y-82288095D01*
X158821429Y-82335714D01*
X159011905Y-82335714D01*
X159107143Y-82288095D01*
X159154762Y-82240476D01*
X159202381Y-82145238D01*
X159202381Y-81954761D01*
X159154762Y-81859523D01*
X159107143Y-81811904D01*
X159011905Y-81764285D01*
X158821429Y-81764285D01*
X158726190Y-81811904D01*
X158678571Y-81859523D01*
X158630952Y-81954761D01*
X157932381Y-59158095D02*
X156932381Y-59158095D01*
X156932381Y-58920000D01*
X156980000Y-58777142D01*
X157075238Y-58681904D01*
X157170476Y-58634285D01*
X157360952Y-58586666D01*
X157503810Y-58586666D01*
X157694286Y-58634285D01*
X157789524Y-58681904D01*
X157884762Y-58777142D01*
X157932381Y-58920000D01*
X157932381Y-59158095D01*
X157932381Y-57634285D02*
X157932381Y-58205714D01*
X157932381Y-57920000D02*
X156932381Y-57920000D01*
X157075238Y-58015238D01*
X157170476Y-58110476D01*
X157218095Y-58205714D01*
X129992381Y-93448095D02*
X128992381Y-93448095D01*
X128992381Y-93210000D01*
X129040000Y-93067142D01*
X129135238Y-92971904D01*
X129230476Y-92924285D01*
X129420952Y-92876666D01*
X129563810Y-92876666D01*
X129754286Y-92924285D01*
X129849524Y-92971904D01*
X129944762Y-93067142D01*
X129992381Y-93210000D01*
X129992381Y-93448095D01*
X129087619Y-92495714D02*
X129040000Y-92448095D01*
X128992381Y-92352857D01*
X128992381Y-92114761D01*
X129040000Y-92019523D01*
X129087619Y-91971904D01*
X129182857Y-91924285D01*
X129278095Y-91924285D01*
X129420952Y-91971904D01*
X129992381Y-92543333D01*
X129992381Y-91924285D01*
X136826667Y-52792381D02*
X136826667Y-53506667D01*
X136779047Y-53649524D01*
X136683809Y-53744762D01*
X136540952Y-53792381D01*
X136445714Y-53792381D01*
X137826667Y-53792381D02*
X137255238Y-53792381D01*
X137540952Y-53792381D02*
X137540952Y-52792381D01*
X137445714Y-52935238D01*
X137350476Y-53030476D01*
X137255238Y-53078095D01*
X113752381Y-70183333D02*
X114466667Y-70183333D01*
X114609524Y-70230953D01*
X114704762Y-70326191D01*
X114752381Y-70469048D01*
X114752381Y-70564286D01*
X113847619Y-69754762D02*
X113800000Y-69707143D01*
X113752381Y-69611905D01*
X113752381Y-69373809D01*
X113800000Y-69278571D01*
X113847619Y-69230952D01*
X113942857Y-69183333D01*
X114038095Y-69183333D01*
X114180952Y-69230952D01*
X114752381Y-69802381D01*
X114752381Y-69183333D01*
X170902381Y-81613333D02*
X171616667Y-81613333D01*
X171759524Y-81660953D01*
X171854762Y-81756191D01*
X171902381Y-81899048D01*
X171902381Y-81994286D01*
X170902381Y-81232381D02*
X170902381Y-80613333D01*
X171283333Y-80946667D01*
X171283333Y-80803809D01*
X171330952Y-80708571D01*
X171378571Y-80660952D01*
X171473810Y-80613333D01*
X171711905Y-80613333D01*
X171807143Y-80660952D01*
X171854762Y-80708571D01*
X171902381Y-80803809D01*
X171902381Y-81089524D01*
X171854762Y-81184762D01*
X171807143Y-81232381D01*
X152947619Y-72485238D02*
X152900000Y-72580476D01*
X152804762Y-72675714D01*
X152661905Y-72818571D01*
X152614286Y-72913810D01*
X152614286Y-73009048D01*
X152852381Y-72961429D02*
X152804762Y-73056667D01*
X152709524Y-73151905D01*
X152519048Y-73199524D01*
X152185714Y-73199524D01*
X151995238Y-73151905D01*
X151900000Y-73056667D01*
X151852381Y-72961429D01*
X151852381Y-72770952D01*
X151900000Y-72675714D01*
X151995238Y-72580476D01*
X152185714Y-72532857D01*
X152519048Y-72532857D01*
X152709524Y-72580476D01*
X152804762Y-72675714D01*
X152852381Y-72770952D01*
X152852381Y-72961429D01*
X152852381Y-71580476D02*
X152852381Y-72151905D01*
X152852381Y-71866191D02*
X151852381Y-71866191D01*
X151995238Y-71961429D01*
X152090476Y-72056667D01*
X152138095Y-72151905D01*
D16*
X146649286Y-75338786D02*
X146673095Y-75267357D01*
X146696905Y-75243548D01*
X146744524Y-75219738D01*
X146815952Y-75219738D01*
X146863571Y-75243548D01*
X146887381Y-75267357D01*
X146911190Y-75314976D01*
X146911190Y-75505452D01*
X146411190Y-75505452D01*
X146411190Y-75338786D01*
X146435000Y-75291167D01*
X146458810Y-75267357D01*
X146506429Y-75243548D01*
X146554048Y-75243548D01*
X146601667Y-75267357D01*
X146625476Y-75291167D01*
X146649286Y-75338786D01*
X146649286Y-75505452D01*
X149721071Y-77823238D02*
X149744881Y-77847048D01*
X149768690Y-77918476D01*
X149768690Y-77966095D01*
X149744881Y-78037524D01*
X149697262Y-78085143D01*
X149649643Y-78108952D01*
X149554405Y-78132762D01*
X149482976Y-78132762D01*
X149387738Y-78108952D01*
X149340119Y-78085143D01*
X149292500Y-78037524D01*
X149268690Y-77966095D01*
X149268690Y-77918476D01*
X149292500Y-77847048D01*
X149316310Y-77823238D01*
X149443286Y-74465642D02*
X149443286Y-74298976D01*
X149705190Y-74227547D02*
X149705190Y-74465642D01*
X149205190Y-74465642D01*
X149205190Y-74227547D01*
D15*
X132627619Y-80105238D02*
X132580000Y-80200476D01*
X132484762Y-80295714D01*
X132341905Y-80438571D01*
X132294286Y-80533810D01*
X132294286Y-80629048D01*
X132532381Y-80581429D02*
X132484762Y-80676667D01*
X132389524Y-80771905D01*
X132199048Y-80819524D01*
X131865714Y-80819524D01*
X131675238Y-80771905D01*
X131580000Y-80676667D01*
X131532381Y-80581429D01*
X131532381Y-80390952D01*
X131580000Y-80295714D01*
X131675238Y-80200476D01*
X131865714Y-80152857D01*
X132199048Y-80152857D01*
X132389524Y-80200476D01*
X132484762Y-80295714D01*
X132532381Y-80390952D01*
X132532381Y-80581429D01*
X131627619Y-79771905D02*
X131580000Y-79724286D01*
X131532381Y-79629048D01*
X131532381Y-79390952D01*
X131580000Y-79295714D01*
X131627619Y-79248095D01*
X131722857Y-79200476D01*
X131818095Y-79200476D01*
X131960952Y-79248095D01*
X132532381Y-79819524D01*
X132532381Y-79200476D01*
D16*
X137759286Y-76989786D02*
X137783095Y-76918357D01*
X137806905Y-76894548D01*
X137854524Y-76870738D01*
X137925952Y-76870738D01*
X137973571Y-76894548D01*
X137997381Y-76918357D01*
X138021190Y-76965976D01*
X138021190Y-77156452D01*
X137521190Y-77156452D01*
X137521190Y-76989786D01*
X137545000Y-76942167D01*
X137568810Y-76918357D01*
X137616429Y-76894548D01*
X137664048Y-76894548D01*
X137711667Y-76918357D01*
X137735476Y-76942167D01*
X137759286Y-76989786D01*
X137759286Y-77156452D01*
X135116071Y-74267238D02*
X135139881Y-74291048D01*
X135163690Y-74362476D01*
X135163690Y-74410095D01*
X135139881Y-74481524D01*
X135092262Y-74529143D01*
X135044643Y-74552952D01*
X134949405Y-74576762D01*
X134877976Y-74576762D01*
X134782738Y-74552952D01*
X134735119Y-74529143D01*
X134687500Y-74481524D01*
X134663690Y-74410095D01*
X134663690Y-74362476D01*
X134687500Y-74291048D01*
X134711310Y-74267238D01*
X134965286Y-78148642D02*
X134965286Y-77981976D01*
X135227190Y-77910547D02*
X135227190Y-78148642D01*
X134727190Y-78148642D01*
X134727190Y-77910547D01*
D15*
X168092381Y-58586666D02*
X167616190Y-58920000D01*
X168092381Y-59158095D02*
X167092381Y-59158095D01*
X167092381Y-58777142D01*
X167140000Y-58681904D01*
X167187619Y-58634285D01*
X167282857Y-58586666D01*
X167425714Y-58586666D01*
X167520952Y-58634285D01*
X167568571Y-58681904D01*
X167616190Y-58777142D01*
X167616190Y-59158095D01*
X168092381Y-57634285D02*
X168092381Y-58205714D01*
X168092381Y-57920000D02*
X167092381Y-57920000D01*
X167235238Y-58015238D01*
X167330476Y-58110476D01*
X167378095Y-58205714D01*
X119832381Y-92876666D02*
X119356190Y-93210000D01*
X119832381Y-93448095D02*
X118832381Y-93448095D01*
X118832381Y-93067142D01*
X118880000Y-92971904D01*
X118927619Y-92924285D01*
X119022857Y-92876666D01*
X119165714Y-92876666D01*
X119260952Y-92924285D01*
X119308571Y-92971904D01*
X119356190Y-93067142D01*
X119356190Y-93448095D01*
X118927619Y-92495714D02*
X118880000Y-92448095D01*
X118832381Y-92352857D01*
X118832381Y-92114761D01*
X118880000Y-92019523D01*
X118927619Y-91971904D01*
X119022857Y-91924285D01*
X119118095Y-91924285D01*
X119260952Y-91971904D01*
X119832381Y-92543333D01*
X119832381Y-91924285D01*
X136993334Y-63952381D02*
X136660000Y-63476190D01*
X136421905Y-63952381D02*
X136421905Y-62952381D01*
X136802858Y-62952381D01*
X136898096Y-63000000D01*
X136945715Y-63047619D01*
X136993334Y-63142857D01*
X136993334Y-63285714D01*
X136945715Y-63380952D01*
X136898096Y-63428571D01*
X136802858Y-63476190D01*
X136421905Y-63476190D01*
X137326667Y-62952381D02*
X137945715Y-62952381D01*
X137612381Y-63333333D01*
X137755239Y-63333333D01*
X137850477Y-63380952D01*
X137898096Y-63428571D01*
X137945715Y-63523810D01*
X137945715Y-63761905D01*
X137898096Y-63857143D01*
X137850477Y-63904762D01*
X137755239Y-63952381D01*
X137469524Y-63952381D01*
X137374286Y-63904762D01*
X137326667Y-63857143D01*
X136993334Y-94432381D02*
X136660000Y-93956190D01*
X136421905Y-94432381D02*
X136421905Y-93432381D01*
X136802858Y-93432381D01*
X136898096Y-93480000D01*
X136945715Y-93527619D01*
X136993334Y-93622857D01*
X136993334Y-93765714D01*
X136945715Y-93860952D01*
X136898096Y-93908571D01*
X136802858Y-93956190D01*
X136421905Y-93956190D01*
X137850477Y-93765714D02*
X137850477Y-94432381D01*
X137612381Y-93384762D02*
X137374286Y-94099048D01*
X137993334Y-94099048D01*
X163012381Y-58586666D02*
X162536190Y-58920000D01*
X163012381Y-59158095D02*
X162012381Y-59158095D01*
X162012381Y-58777142D01*
X162060000Y-58681904D01*
X162107619Y-58634285D01*
X162202857Y-58586666D01*
X162345714Y-58586666D01*
X162440952Y-58634285D01*
X162488571Y-58681904D01*
X162536190Y-58777142D01*
X162536190Y-59158095D01*
X162012381Y-57681904D02*
X162012381Y-58158095D01*
X162488571Y-58205714D01*
X162440952Y-58158095D01*
X162393333Y-58062857D01*
X162393333Y-57824761D01*
X162440952Y-57729523D01*
X162488571Y-57681904D01*
X162583810Y-57634285D01*
X162821905Y-57634285D01*
X162917143Y-57681904D01*
X162964762Y-57729523D01*
X163012381Y-57824761D01*
X163012381Y-58062857D01*
X162964762Y-58158095D01*
X162917143Y-58205714D01*
X136993334Y-67762381D02*
X136660000Y-67286190D01*
X136421905Y-67762381D02*
X136421905Y-66762381D01*
X136802858Y-66762381D01*
X136898096Y-66810000D01*
X136945715Y-66857619D01*
X136993334Y-66952857D01*
X136993334Y-67095714D01*
X136945715Y-67190952D01*
X136898096Y-67238571D01*
X136802858Y-67286190D01*
X136421905Y-67286190D01*
X137850477Y-66762381D02*
X137660000Y-66762381D01*
X137564762Y-66810000D01*
X137517143Y-66857619D01*
X137421905Y-67000476D01*
X137374286Y-67190952D01*
X137374286Y-67571905D01*
X137421905Y-67667143D01*
X137469524Y-67714762D01*
X137564762Y-67762381D01*
X137755239Y-67762381D01*
X137850477Y-67714762D01*
X137898096Y-67667143D01*
X137945715Y-67571905D01*
X137945715Y-67333810D01*
X137898096Y-67238571D01*
X137850477Y-67190952D01*
X137755239Y-67143333D01*
X137564762Y-67143333D01*
X137469524Y-67190952D01*
X137421905Y-67238571D01*
X137374286Y-67333810D01*
X124912381Y-92876666D02*
X124436190Y-93210000D01*
X124912381Y-93448095D02*
X123912381Y-93448095D01*
X123912381Y-93067142D01*
X123960000Y-92971904D01*
X124007619Y-92924285D01*
X124102857Y-92876666D01*
X124245714Y-92876666D01*
X124340952Y-92924285D01*
X124388571Y-92971904D01*
X124436190Y-93067142D01*
X124436190Y-93448095D01*
X123912381Y-92543333D02*
X123912381Y-91876666D01*
X124912381Y-92305238D01*
X136993334Y-60142381D02*
X136660000Y-59666190D01*
X136421905Y-60142381D02*
X136421905Y-59142381D01*
X136802858Y-59142381D01*
X136898096Y-59190000D01*
X136945715Y-59237619D01*
X136993334Y-59332857D01*
X136993334Y-59475714D01*
X136945715Y-59570952D01*
X136898096Y-59618571D01*
X136802858Y-59666190D01*
X136421905Y-59666190D01*
X137564762Y-59570952D02*
X137469524Y-59523333D01*
X137421905Y-59475714D01*
X137374286Y-59380476D01*
X137374286Y-59332857D01*
X137421905Y-59237619D01*
X137469524Y-59190000D01*
X137564762Y-59142381D01*
X137755239Y-59142381D01*
X137850477Y-59190000D01*
X137898096Y-59237619D01*
X137945715Y-59332857D01*
X137945715Y-59380476D01*
X137898096Y-59475714D01*
X137850477Y-59523333D01*
X137755239Y-59570952D01*
X137564762Y-59570952D01*
X137469524Y-59618571D01*
X137421905Y-59666190D01*
X137374286Y-59761429D01*
X137374286Y-59951905D01*
X137421905Y-60047143D01*
X137469524Y-60094762D01*
X137564762Y-60142381D01*
X137755239Y-60142381D01*
X137850477Y-60094762D01*
X137898096Y-60047143D01*
X137945715Y-59951905D01*
X137945715Y-59761429D01*
X137898096Y-59666190D01*
X137850477Y-59618571D01*
X137755239Y-59570952D01*
X136993334Y-90622381D02*
X136660000Y-90146190D01*
X136421905Y-90622381D02*
X136421905Y-89622381D01*
X136802858Y-89622381D01*
X136898096Y-89670000D01*
X136945715Y-89717619D01*
X136993334Y-89812857D01*
X136993334Y-89955714D01*
X136945715Y-90050952D01*
X136898096Y-90098571D01*
X136802858Y-90146190D01*
X136421905Y-90146190D01*
X137469524Y-90622381D02*
X137660000Y-90622381D01*
X137755239Y-90574762D01*
X137802858Y-90527143D01*
X137898096Y-90384286D01*
X137945715Y-90193810D01*
X137945715Y-89812857D01*
X137898096Y-89717619D01*
X137850477Y-89670000D01*
X137755239Y-89622381D01*
X137564762Y-89622381D01*
X137469524Y-89670000D01*
X137421905Y-89717619D01*
X137374286Y-89812857D01*
X137374286Y-90050952D01*
X137421905Y-90146190D01*
X137469524Y-90193810D01*
X137564762Y-90241429D01*
X137755239Y-90241429D01*
X137850477Y-90193810D01*
X137898096Y-90146190D01*
X137945715Y-90050952D01*
X136517143Y-83002381D02*
X136183809Y-82526190D01*
X135945714Y-83002381D02*
X135945714Y-82002381D01*
X136326667Y-82002381D01*
X136421905Y-82050000D01*
X136469524Y-82097619D01*
X136517143Y-82192857D01*
X136517143Y-82335714D01*
X136469524Y-82430952D01*
X136421905Y-82478571D01*
X136326667Y-82526190D01*
X135945714Y-82526190D01*
X137469524Y-83002381D02*
X136898095Y-83002381D01*
X137183809Y-83002381D02*
X137183809Y-82002381D01*
X137088571Y-82145238D01*
X136993333Y-82240476D01*
X136898095Y-82288095D01*
X138088571Y-82002381D02*
X138183810Y-82002381D01*
X138279048Y-82050000D01*
X138326667Y-82097619D01*
X138374286Y-82192857D01*
X138421905Y-82383333D01*
X138421905Y-82621429D01*
X138374286Y-82811905D01*
X138326667Y-82907143D01*
X138279048Y-82954762D01*
X138183810Y-83002381D01*
X138088571Y-83002381D01*
X137993333Y-82954762D01*
X137945714Y-82907143D01*
X137898095Y-82811905D01*
X137850476Y-82621429D01*
X137850476Y-82383333D01*
X137898095Y-82192857D01*
X137945714Y-82097619D01*
X137993333Y-82050000D01*
X138088571Y-82002381D01*
X136517143Y-56332381D02*
X136183809Y-55856190D01*
X135945714Y-56332381D02*
X135945714Y-55332381D01*
X136326667Y-55332381D01*
X136421905Y-55380000D01*
X136469524Y-55427619D01*
X136517143Y-55522857D01*
X136517143Y-55665714D01*
X136469524Y-55760952D01*
X136421905Y-55808571D01*
X136326667Y-55856190D01*
X135945714Y-55856190D01*
X137469524Y-56332381D02*
X136898095Y-56332381D01*
X137183809Y-56332381D02*
X137183809Y-55332381D01*
X137088571Y-55475238D01*
X136993333Y-55570476D01*
X136898095Y-55618095D01*
X138421905Y-56332381D02*
X137850476Y-56332381D01*
X138136190Y-56332381D02*
X138136190Y-55332381D01*
X138040952Y-55475238D01*
X137945714Y-55570476D01*
X137850476Y-55618095D01*
X136517143Y-86812381D02*
X136183809Y-86336190D01*
X135945714Y-86812381D02*
X135945714Y-85812381D01*
X136326667Y-85812381D01*
X136421905Y-85860000D01*
X136469524Y-85907619D01*
X136517143Y-86002857D01*
X136517143Y-86145714D01*
X136469524Y-86240952D01*
X136421905Y-86288571D01*
X136326667Y-86336190D01*
X135945714Y-86336190D01*
X137469524Y-86812381D02*
X136898095Y-86812381D01*
X137183809Y-86812381D02*
X137183809Y-85812381D01*
X137088571Y-85955238D01*
X136993333Y-86050476D01*
X136898095Y-86098095D01*
X137850476Y-85907619D02*
X137898095Y-85860000D01*
X137993333Y-85812381D01*
X138231429Y-85812381D01*
X138326667Y-85860000D01*
X138374286Y-85907619D01*
X138421905Y-86002857D01*
X138421905Y-86098095D01*
X138374286Y-86240952D01*
X137802857Y-86812381D01*
X138421905Y-86812381D01*
M02*
