M48
;DRILL file {KiCad 4.0.7} date 06/13/18 13:11:12
;FORMAT={-:-/ absolute / inch / decimal}
FMAT,2
INCH,TZ
T1C0.031
T2C0.118
%
G90
G05
M72
T1
X4.4Y-2.7
X4.4Y-2.8
X4.65Y-3.15
X4.65Y-3.75
X4.85Y-2.8
X4.85Y-3.
X4.85Y-3.15
X4.85Y-3.75
X5.05Y-2.15
X5.05Y-2.35
X5.05Y-2.5
X5.05Y-2.7
X5.05Y-2.85
X5.05Y-3.05
X5.05Y-3.25
X5.05Y-3.75
X5.3Y-2.25
X5.3Y-2.4
X5.3Y-2.55
X5.3Y-2.7
X5.3Y-3.3
X5.3Y-3.45
X5.3Y-3.6
X5.3Y-3.75
X5.35Y-2.95
X5.35Y-3.05
X5.4Y-3.
X5.5Y-2.1
X5.6Y-2.1
X5.7Y-2.1
X5.8Y-3.
X5.85Y-2.95
X5.85Y-3.05
X5.9Y-2.25
X5.9Y-2.4
X5.9Y-2.55
X5.9Y-2.7
X5.9Y-3.3
X5.9Y-3.45
X5.9Y-3.6
X5.9Y-3.75
X6.15Y-2.2
X6.15Y-2.7
X6.15Y-2.9
X6.15Y-3.1
X6.15Y-3.25
X6.15Y-3.45
X6.15Y-3.6
X6.15Y-3.8
X6.35Y-2.2
X6.35Y-2.8
X6.35Y-2.95
X6.35Y-3.15
X6.55Y-2.2
X6.55Y-2.8
X6.85Y-3.15
X6.85Y-3.25
T2
X4.3307Y-2.1654
X4.3307Y-3.7402
X6.8898Y-2.1654
X6.8898Y-3.7402
T0
M30
