G04 #@! TF.FileFunction,Copper,L1,Top,Signal*
%FSLAX46Y46*%
G04 Gerber Fmt 4.6, Leading zero omitted, Abs format (unit mm)*
G04 Created by KiCad (PCBNEW 4.0.7) date 06/13/18 13:11:16*
%MOMM*%
%LPD*%
G01*
G04 APERTURE LIST*
%ADD10C,0.100000*%
%ADD11C,1.600000*%
%ADD12C,1.500000*%
%ADD13R,1.600000X1.600000*%
%ADD14O,1.600000X1.600000*%
%ADD15R,1.800000X1.800000*%
%ADD16C,1.800000*%
%ADD17O,1.200000X1.600000*%
%ADD18O,1.200000X1.200000*%
%ADD19C,5.000000*%
%ADD20C,0.254000*%
G04 APERTURE END LIST*
D10*
D11*
X128270000Y-63500000D03*
D12*
X128270000Y-68580000D03*
D11*
X128270000Y-77470000D03*
D12*
X128270000Y-72390000D03*
D11*
X161290000Y-74930000D03*
D12*
X161290000Y-80010000D03*
D11*
X123190000Y-76200000D03*
D12*
X123190000Y-71120000D03*
D11*
X156210000Y-91440000D03*
D12*
X156210000Y-96520000D03*
D11*
X128270000Y-54610000D03*
D12*
X128270000Y-59690000D03*
D11*
X156210000Y-78740000D03*
D12*
X156210000Y-73660000D03*
D11*
X156210000Y-82550000D03*
D12*
X156210000Y-87630000D03*
D13*
X156210000Y-68580000D03*
D14*
X156210000Y-55880000D03*
D13*
X128270000Y-82550000D03*
D14*
X128270000Y-95250000D03*
D15*
X139700000Y-53340000D03*
D16*
X142240000Y-53340000D03*
X144780000Y-53340000D03*
D15*
X111760000Y-68580000D03*
D16*
X111760000Y-71120000D03*
D15*
X173990000Y-82550000D03*
D16*
X173990000Y-80010000D03*
D17*
X148590000Y-74930000D03*
D18*
X147320000Y-76200000D03*
X148590000Y-77470000D03*
D17*
X135890000Y-77470000D03*
D18*
X137160000Y-76200000D03*
X135890000Y-74930000D03*
D11*
X166370000Y-55880000D03*
D14*
X166370000Y-71120000D03*
D11*
X118110000Y-95250000D03*
D14*
X118110000Y-80010000D03*
D11*
X134620000Y-64770000D03*
D14*
X149860000Y-64770000D03*
D11*
X149860000Y-95250000D03*
D14*
X134620000Y-95250000D03*
D11*
X161290000Y-71120000D03*
D14*
X161290000Y-55880000D03*
D11*
X134620000Y-68580000D03*
D14*
X149860000Y-68580000D03*
D11*
X123190000Y-80010000D03*
D14*
X123190000Y-95250000D03*
D11*
X134620000Y-60960000D03*
D14*
X149860000Y-60960000D03*
D11*
X149860000Y-91440000D03*
D14*
X134620000Y-91440000D03*
D11*
X134620000Y-83820000D03*
D14*
X149860000Y-83820000D03*
D11*
X134620000Y-57150000D03*
D14*
X149860000Y-57150000D03*
D11*
X149860000Y-87630000D03*
D14*
X134620000Y-87630000D03*
D19*
X110000000Y-95000000D03*
X175000000Y-95000000D03*
X110000000Y-55000000D03*
X175000000Y-55000000D03*
D20*
G36*
X179290000Y-99290000D02*
X105710000Y-99290000D01*
X105710000Y-97235880D01*
X107943725Y-97235880D01*
X108225421Y-97658564D01*
X109377892Y-98135294D01*
X110625072Y-98134705D01*
X111774579Y-97658564D01*
X112056275Y-97235880D01*
X110000000Y-95179605D01*
X107943725Y-97235880D01*
X105710000Y-97235880D01*
X105710000Y-94377892D01*
X106864706Y-94377892D01*
X106865295Y-95625072D01*
X107341436Y-96774579D01*
X107764120Y-97056275D01*
X109820395Y-95000000D01*
X110179605Y-95000000D01*
X112235880Y-97056275D01*
X112628995Y-96794285D01*
X154824760Y-96794285D01*
X155035169Y-97303515D01*
X155424436Y-97693461D01*
X155933298Y-97904759D01*
X156484285Y-97905240D01*
X156993515Y-97694831D01*
X157383461Y-97305564D01*
X157412396Y-97235880D01*
X172943725Y-97235880D01*
X173225421Y-97658564D01*
X174377892Y-98135294D01*
X175625072Y-98134705D01*
X176774579Y-97658564D01*
X177056275Y-97235880D01*
X175000000Y-95179605D01*
X172943725Y-97235880D01*
X157412396Y-97235880D01*
X157594759Y-96796702D01*
X157595240Y-96245715D01*
X157384831Y-95736485D01*
X156995564Y-95346539D01*
X156486702Y-95135241D01*
X155935715Y-95134760D01*
X155426485Y-95345169D01*
X155036539Y-95734436D01*
X154825241Y-96243298D01*
X154824760Y-96794285D01*
X112628995Y-96794285D01*
X112658564Y-96774579D01*
X113135294Y-95622108D01*
X113135253Y-95534187D01*
X116674752Y-95534187D01*
X116892757Y-96061800D01*
X117296077Y-96465824D01*
X117823309Y-96684750D01*
X118394187Y-96685248D01*
X118921800Y-96467243D01*
X119325824Y-96063923D01*
X119544750Y-95536691D01*
X119545024Y-95221887D01*
X121755000Y-95221887D01*
X121755000Y-95278113D01*
X121864233Y-95827264D01*
X122175302Y-96292811D01*
X122640849Y-96603880D01*
X123190000Y-96713113D01*
X123739151Y-96603880D01*
X124204698Y-96292811D01*
X124515767Y-95827264D01*
X124625000Y-95278113D01*
X124625000Y-95221887D01*
X126835000Y-95221887D01*
X126835000Y-95278113D01*
X126944233Y-95827264D01*
X127255302Y-96292811D01*
X127720849Y-96603880D01*
X128270000Y-96713113D01*
X128819151Y-96603880D01*
X129284698Y-96292811D01*
X129595767Y-95827264D01*
X129641163Y-95599039D01*
X133228096Y-95599039D01*
X133388959Y-95987423D01*
X133764866Y-96402389D01*
X134270959Y-96641914D01*
X134493000Y-96520629D01*
X134493000Y-95377000D01*
X134747000Y-95377000D01*
X134747000Y-96520629D01*
X134969041Y-96641914D01*
X135475134Y-96402389D01*
X135851041Y-95987423D01*
X136011904Y-95599039D01*
X135976275Y-95534187D01*
X148424752Y-95534187D01*
X148642757Y-96061800D01*
X149046077Y-96465824D01*
X149573309Y-96684750D01*
X150144187Y-96685248D01*
X150671800Y-96467243D01*
X151075824Y-96063923D01*
X151294750Y-95536691D01*
X151295248Y-94965813D01*
X151077243Y-94438200D01*
X151017041Y-94377892D01*
X171864706Y-94377892D01*
X171865295Y-95625072D01*
X172341436Y-96774579D01*
X172764120Y-97056275D01*
X174820395Y-95000000D01*
X175179605Y-95000000D01*
X177235880Y-97056275D01*
X177658564Y-96774579D01*
X178135294Y-95622108D01*
X178134705Y-94374928D01*
X177658564Y-93225421D01*
X177235880Y-92943725D01*
X175179605Y-95000000D01*
X174820395Y-95000000D01*
X172764120Y-92943725D01*
X172341436Y-93225421D01*
X171864706Y-94377892D01*
X151017041Y-94377892D01*
X150673923Y-94034176D01*
X150146691Y-93815250D01*
X149575813Y-93814752D01*
X149048200Y-94032757D01*
X148644176Y-94436077D01*
X148425250Y-94963309D01*
X148424752Y-95534187D01*
X135976275Y-95534187D01*
X135889915Y-95377000D01*
X134747000Y-95377000D01*
X134493000Y-95377000D01*
X133350085Y-95377000D01*
X133228096Y-95599039D01*
X129641163Y-95599039D01*
X129705000Y-95278113D01*
X129705000Y-95221887D01*
X129641164Y-94900961D01*
X133228096Y-94900961D01*
X133350085Y-95123000D01*
X134493000Y-95123000D01*
X134493000Y-93979371D01*
X134747000Y-93979371D01*
X134747000Y-95123000D01*
X135889915Y-95123000D01*
X136011904Y-94900961D01*
X135851041Y-94512577D01*
X135475134Y-94097611D01*
X134969041Y-93858086D01*
X134747000Y-93979371D01*
X134493000Y-93979371D01*
X134270959Y-93858086D01*
X133764866Y-94097611D01*
X133388959Y-94512577D01*
X133228096Y-94900961D01*
X129641164Y-94900961D01*
X129595767Y-94672736D01*
X129284698Y-94207189D01*
X128819151Y-93896120D01*
X128270000Y-93786887D01*
X127720849Y-93896120D01*
X127255302Y-94207189D01*
X126944233Y-94672736D01*
X126835000Y-95221887D01*
X124625000Y-95221887D01*
X124515767Y-94672736D01*
X124204698Y-94207189D01*
X123739151Y-93896120D01*
X123190000Y-93786887D01*
X122640849Y-93896120D01*
X122175302Y-94207189D01*
X121864233Y-94672736D01*
X121755000Y-95221887D01*
X119545024Y-95221887D01*
X119545248Y-94965813D01*
X119327243Y-94438200D01*
X118923923Y-94034176D01*
X118396691Y-93815250D01*
X117825813Y-93814752D01*
X117298200Y-94032757D01*
X116894176Y-94436077D01*
X116675250Y-94963309D01*
X116674752Y-95534187D01*
X113135253Y-95534187D01*
X113134705Y-94374928D01*
X112658564Y-93225421D01*
X112235880Y-92943725D01*
X110179605Y-95000000D01*
X109820395Y-95000000D01*
X107764120Y-92943725D01*
X107341436Y-93225421D01*
X106864706Y-94377892D01*
X105710000Y-94377892D01*
X105710000Y-92764120D01*
X107943725Y-92764120D01*
X110000000Y-94820395D01*
X112056275Y-92764120D01*
X111774579Y-92341436D01*
X110622108Y-91864706D01*
X109374928Y-91865295D01*
X108225421Y-92341436D01*
X107943725Y-92764120D01*
X105710000Y-92764120D01*
X105710000Y-91789039D01*
X133228096Y-91789039D01*
X133388959Y-92177423D01*
X133764866Y-92592389D01*
X134270959Y-92831914D01*
X134493000Y-92710629D01*
X134493000Y-91567000D01*
X134747000Y-91567000D01*
X134747000Y-92710629D01*
X134969041Y-92831914D01*
X135475134Y-92592389D01*
X135851041Y-92177423D01*
X136011904Y-91789039D01*
X135976275Y-91724187D01*
X148424752Y-91724187D01*
X148642757Y-92251800D01*
X149046077Y-92655824D01*
X149573309Y-92874750D01*
X150144187Y-92875248D01*
X150671800Y-92657243D01*
X151075824Y-92253923D01*
X151294750Y-91726691D01*
X151294752Y-91724187D01*
X154774752Y-91724187D01*
X154992757Y-92251800D01*
X155396077Y-92655824D01*
X155923309Y-92874750D01*
X156494187Y-92875248D01*
X156763137Y-92764120D01*
X172943725Y-92764120D01*
X175000000Y-94820395D01*
X177056275Y-92764120D01*
X176774579Y-92341436D01*
X175622108Y-91864706D01*
X174374928Y-91865295D01*
X173225421Y-92341436D01*
X172943725Y-92764120D01*
X156763137Y-92764120D01*
X157021800Y-92657243D01*
X157425824Y-92253923D01*
X157644750Y-91726691D01*
X157645248Y-91155813D01*
X157427243Y-90628200D01*
X157023923Y-90224176D01*
X156496691Y-90005250D01*
X155925813Y-90004752D01*
X155398200Y-90222757D01*
X154994176Y-90626077D01*
X154775250Y-91153309D01*
X154774752Y-91724187D01*
X151294752Y-91724187D01*
X151295248Y-91155813D01*
X151077243Y-90628200D01*
X150673923Y-90224176D01*
X150146691Y-90005250D01*
X149575813Y-90004752D01*
X149048200Y-90222757D01*
X148644176Y-90626077D01*
X148425250Y-91153309D01*
X148424752Y-91724187D01*
X135976275Y-91724187D01*
X135889915Y-91567000D01*
X134747000Y-91567000D01*
X134493000Y-91567000D01*
X133350085Y-91567000D01*
X133228096Y-91789039D01*
X105710000Y-91789039D01*
X105710000Y-91090961D01*
X133228096Y-91090961D01*
X133350085Y-91313000D01*
X134493000Y-91313000D01*
X134493000Y-90169371D01*
X134747000Y-90169371D01*
X134747000Y-91313000D01*
X135889915Y-91313000D01*
X136011904Y-91090961D01*
X135851041Y-90702577D01*
X135475134Y-90287611D01*
X134969041Y-90048086D01*
X134747000Y-90169371D01*
X134493000Y-90169371D01*
X134270959Y-90048086D01*
X133764866Y-90287611D01*
X133388959Y-90702577D01*
X133228096Y-91090961D01*
X105710000Y-91090961D01*
X105710000Y-87979039D01*
X133228096Y-87979039D01*
X133388959Y-88367423D01*
X133764866Y-88782389D01*
X134270959Y-89021914D01*
X134493000Y-88900629D01*
X134493000Y-87757000D01*
X134747000Y-87757000D01*
X134747000Y-88900629D01*
X134969041Y-89021914D01*
X135475134Y-88782389D01*
X135851041Y-88367423D01*
X136011904Y-87979039D01*
X135976275Y-87914187D01*
X148424752Y-87914187D01*
X148642757Y-88441800D01*
X149046077Y-88845824D01*
X149573309Y-89064750D01*
X150144187Y-89065248D01*
X150671800Y-88847243D01*
X151075824Y-88443923D01*
X151294750Y-87916691D01*
X151294760Y-87904285D01*
X154824760Y-87904285D01*
X155035169Y-88413515D01*
X155424436Y-88803461D01*
X155933298Y-89014759D01*
X156484285Y-89015240D01*
X156993515Y-88804831D01*
X157383461Y-88415564D01*
X157594759Y-87906702D01*
X157595240Y-87355715D01*
X157384831Y-86846485D01*
X156995564Y-86456539D01*
X156486702Y-86245241D01*
X155935715Y-86244760D01*
X155426485Y-86455169D01*
X155036539Y-86844436D01*
X154825241Y-87353298D01*
X154824760Y-87904285D01*
X151294760Y-87904285D01*
X151295248Y-87345813D01*
X151077243Y-86818200D01*
X150673923Y-86414176D01*
X150146691Y-86195250D01*
X149575813Y-86194752D01*
X149048200Y-86412757D01*
X148644176Y-86816077D01*
X148425250Y-87343309D01*
X148424752Y-87914187D01*
X135976275Y-87914187D01*
X135889915Y-87757000D01*
X134747000Y-87757000D01*
X134493000Y-87757000D01*
X133350085Y-87757000D01*
X133228096Y-87979039D01*
X105710000Y-87979039D01*
X105710000Y-87280961D01*
X133228096Y-87280961D01*
X133350085Y-87503000D01*
X134493000Y-87503000D01*
X134493000Y-86359371D01*
X134747000Y-86359371D01*
X134747000Y-87503000D01*
X135889915Y-87503000D01*
X136011904Y-87280961D01*
X135851041Y-86892577D01*
X135475134Y-86477611D01*
X134969041Y-86238086D01*
X134747000Y-86359371D01*
X134493000Y-86359371D01*
X134270959Y-86238086D01*
X133764866Y-86477611D01*
X133388959Y-86892577D01*
X133228096Y-87280961D01*
X105710000Y-87280961D01*
X105710000Y-84104187D01*
X133184752Y-84104187D01*
X133402757Y-84631800D01*
X133806077Y-85035824D01*
X134333309Y-85254750D01*
X134904187Y-85255248D01*
X135431800Y-85037243D01*
X135835824Y-84633923D01*
X136054750Y-84106691D01*
X136055000Y-83820000D01*
X148396887Y-83820000D01*
X148506120Y-84369151D01*
X148817189Y-84834698D01*
X149282736Y-85145767D01*
X149831887Y-85255000D01*
X149888113Y-85255000D01*
X150437264Y-85145767D01*
X150902811Y-84834698D01*
X151213880Y-84369151D01*
X151323113Y-83820000D01*
X151213880Y-83270849D01*
X150922112Y-82834187D01*
X154774752Y-82834187D01*
X154992757Y-83361800D01*
X155396077Y-83765824D01*
X155923309Y-83984750D01*
X156494187Y-83985248D01*
X157021800Y-83767243D01*
X157425824Y-83363923D01*
X157644750Y-82836691D01*
X157645248Y-82265813D01*
X157427243Y-81738200D01*
X157339197Y-81650000D01*
X172442560Y-81650000D01*
X172442560Y-83450000D01*
X172486838Y-83685317D01*
X172625910Y-83901441D01*
X172838110Y-84046431D01*
X173090000Y-84097440D01*
X174890000Y-84097440D01*
X175125317Y-84053162D01*
X175341441Y-83914090D01*
X175486431Y-83701890D01*
X175537440Y-83450000D01*
X175537440Y-81650000D01*
X175493162Y-81414683D01*
X175354090Y-81198559D01*
X175150426Y-81059402D01*
X175184718Y-81025110D01*
X175070161Y-80910553D01*
X175326643Y-80824148D01*
X175536458Y-80250664D01*
X175510839Y-79640540D01*
X175326643Y-79195852D01*
X175070159Y-79109446D01*
X174169605Y-80010000D01*
X174183748Y-80024143D01*
X174004143Y-80203748D01*
X173990000Y-80189605D01*
X173975858Y-80203748D01*
X173796253Y-80024143D01*
X173810395Y-80010000D01*
X172909841Y-79109446D01*
X172653357Y-79195852D01*
X172443542Y-79769336D01*
X172469161Y-80379460D01*
X172653357Y-80824148D01*
X172909839Y-80910553D01*
X172795282Y-81025110D01*
X172831760Y-81061588D01*
X172638559Y-81185910D01*
X172493569Y-81398110D01*
X172442560Y-81650000D01*
X157339197Y-81650000D01*
X157023923Y-81334176D01*
X156496691Y-81115250D01*
X155925813Y-81114752D01*
X155398200Y-81332757D01*
X154994176Y-81736077D01*
X154775250Y-82263309D01*
X154774752Y-82834187D01*
X150922112Y-82834187D01*
X150902811Y-82805302D01*
X150437264Y-82494233D01*
X149888113Y-82385000D01*
X149831887Y-82385000D01*
X149282736Y-82494233D01*
X148817189Y-82805302D01*
X148506120Y-83270849D01*
X148396887Y-83820000D01*
X136055000Y-83820000D01*
X136055248Y-83535813D01*
X135837243Y-83008200D01*
X135433923Y-82604176D01*
X134906691Y-82385250D01*
X134335813Y-82384752D01*
X133808200Y-82602757D01*
X133404176Y-83006077D01*
X133185250Y-83533309D01*
X133184752Y-84104187D01*
X105710000Y-84104187D01*
X105710000Y-81750000D01*
X126822560Y-81750000D01*
X126822560Y-83350000D01*
X126866838Y-83585317D01*
X127005910Y-83801441D01*
X127218110Y-83946431D01*
X127470000Y-83997440D01*
X129070000Y-83997440D01*
X129305317Y-83953162D01*
X129521441Y-83814090D01*
X129666431Y-83601890D01*
X129717440Y-83350000D01*
X129717440Y-81750000D01*
X129673162Y-81514683D01*
X129534090Y-81298559D01*
X129321890Y-81153569D01*
X129070000Y-81102560D01*
X127470000Y-81102560D01*
X127234683Y-81146838D01*
X127018559Y-81285910D01*
X126873569Y-81498110D01*
X126822560Y-81750000D01*
X105710000Y-81750000D01*
X105710000Y-79981887D01*
X116675000Y-79981887D01*
X116675000Y-80038113D01*
X116784233Y-80587264D01*
X117095302Y-81052811D01*
X117560849Y-81363880D01*
X118110000Y-81473113D01*
X118659151Y-81363880D01*
X119124698Y-81052811D01*
X119435767Y-80587264D01*
X119494063Y-80294187D01*
X121754752Y-80294187D01*
X121972757Y-80821800D01*
X122376077Y-81225824D01*
X122903309Y-81444750D01*
X123474187Y-81445248D01*
X124001800Y-81227243D01*
X124247954Y-80981517D01*
X160498088Y-80981517D01*
X160566077Y-81222460D01*
X161085171Y-81407201D01*
X161635448Y-81379230D01*
X162013923Y-81222460D01*
X162081912Y-80981517D01*
X161290000Y-80189605D01*
X160498088Y-80981517D01*
X124247954Y-80981517D01*
X124405824Y-80823923D01*
X124624750Y-80296691D01*
X124625248Y-79725813D01*
X124407243Y-79198200D01*
X124233534Y-79024187D01*
X154774752Y-79024187D01*
X154992757Y-79551800D01*
X155396077Y-79955824D01*
X155923309Y-80174750D01*
X156494187Y-80175248D01*
X157021800Y-79957243D01*
X157174137Y-79805171D01*
X159892799Y-79805171D01*
X159920770Y-80355448D01*
X160077540Y-80733923D01*
X160318483Y-80801912D01*
X161110395Y-80010000D01*
X161469605Y-80010000D01*
X162261517Y-80801912D01*
X162502460Y-80733923D01*
X162687201Y-80214829D01*
X162659230Y-79664552D01*
X162502460Y-79286077D01*
X162261517Y-79218088D01*
X161469605Y-80010000D01*
X161110395Y-80010000D01*
X160318483Y-79218088D01*
X160077540Y-79286077D01*
X159892799Y-79805171D01*
X157174137Y-79805171D01*
X157425824Y-79553923D01*
X157639853Y-79038483D01*
X160498088Y-79038483D01*
X161290000Y-79830395D01*
X162081912Y-79038483D01*
X162051256Y-78929841D01*
X173089446Y-78929841D01*
X173990000Y-79830395D01*
X174890554Y-78929841D01*
X174804148Y-78673357D01*
X174230664Y-78463542D01*
X173620540Y-78489161D01*
X173175852Y-78673357D01*
X173089446Y-78929841D01*
X162051256Y-78929841D01*
X162013923Y-78797540D01*
X161494829Y-78612799D01*
X160944552Y-78640770D01*
X160566077Y-78797540D01*
X160498088Y-79038483D01*
X157639853Y-79038483D01*
X157644750Y-79026691D01*
X157645248Y-78455813D01*
X157427243Y-77928200D01*
X157023923Y-77524176D01*
X156496691Y-77305250D01*
X155925813Y-77304752D01*
X155398200Y-77522757D01*
X154994176Y-77926077D01*
X154775250Y-78453309D01*
X154774752Y-79024187D01*
X124233534Y-79024187D01*
X124003923Y-78794176D01*
X123476691Y-78575250D01*
X122905813Y-78574752D01*
X122378200Y-78792757D01*
X121974176Y-79196077D01*
X121755250Y-79723309D01*
X121754752Y-80294187D01*
X119494063Y-80294187D01*
X119545000Y-80038113D01*
X119545000Y-79981887D01*
X119435767Y-79432736D01*
X119124698Y-78967189D01*
X118659151Y-78656120D01*
X118110000Y-78546887D01*
X117560849Y-78656120D01*
X117095302Y-78967189D01*
X116784233Y-79432736D01*
X116675000Y-79981887D01*
X105710000Y-79981887D01*
X105710000Y-77754187D01*
X126834752Y-77754187D01*
X127052757Y-78281800D01*
X127456077Y-78685824D01*
X127983309Y-78904750D01*
X128554187Y-78905248D01*
X129081800Y-78687243D01*
X129485824Y-78283923D01*
X129704750Y-77756691D01*
X129705248Y-77185813D01*
X129487243Y-76658200D01*
X129083923Y-76254176D01*
X128556691Y-76035250D01*
X127985813Y-76034752D01*
X127458200Y-76252757D01*
X127054176Y-76656077D01*
X126835250Y-77183309D01*
X126834752Y-77754187D01*
X105710000Y-77754187D01*
X105710000Y-76484187D01*
X121754752Y-76484187D01*
X121972757Y-77011800D01*
X122376077Y-77415824D01*
X122903309Y-77634750D01*
X123474187Y-77635248D01*
X124001800Y-77417243D01*
X124405824Y-77013923D01*
X124624750Y-76486691D01*
X124625248Y-75915813D01*
X124407243Y-75388200D01*
X124003923Y-74984176D01*
X123815185Y-74905805D01*
X134655000Y-74905805D01*
X134655000Y-74954195D01*
X134749009Y-75426809D01*
X135016723Y-75827472D01*
X135417386Y-76095186D01*
X135431739Y-76098041D01*
X135417386Y-76100896D01*
X135016723Y-76368610D01*
X134749009Y-76769273D01*
X134655000Y-77241887D01*
X134655000Y-77698113D01*
X134749009Y-78170727D01*
X135016723Y-78571390D01*
X135417386Y-78839104D01*
X135890000Y-78933113D01*
X136362614Y-78839104D01*
X136763277Y-78571390D01*
X137030991Y-78170727D01*
X137125000Y-77698113D01*
X137125000Y-77452233D01*
X137160000Y-77459195D01*
X137632614Y-77365186D01*
X138033277Y-77097472D01*
X138300991Y-76696809D01*
X138395000Y-76224195D01*
X138395000Y-76175805D01*
X146085000Y-76175805D01*
X146085000Y-76224195D01*
X146179009Y-76696809D01*
X146446723Y-77097472D01*
X146847386Y-77365186D01*
X147320000Y-77459195D01*
X147355000Y-77452233D01*
X147355000Y-77494195D01*
X147449009Y-77966809D01*
X147716723Y-78367472D01*
X148117386Y-78635186D01*
X148590000Y-78729195D01*
X149062614Y-78635186D01*
X149463277Y-78367472D01*
X149730991Y-77966809D01*
X149825000Y-77494195D01*
X149825000Y-77445805D01*
X149730991Y-76973191D01*
X149463277Y-76572528D01*
X149062614Y-76304814D01*
X149048261Y-76301959D01*
X149062614Y-76299104D01*
X149463277Y-76031390D01*
X149730991Y-75630727D01*
X149813846Y-75214187D01*
X159854752Y-75214187D01*
X160072757Y-75741800D01*
X160476077Y-76145824D01*
X161003309Y-76364750D01*
X161574187Y-76365248D01*
X162101800Y-76147243D01*
X162505824Y-75743923D01*
X162724750Y-75216691D01*
X162725248Y-74645813D01*
X162507243Y-74118200D01*
X162103923Y-73714176D01*
X161576691Y-73495250D01*
X161005813Y-73494752D01*
X160478200Y-73712757D01*
X160074176Y-74116077D01*
X159855250Y-74643309D01*
X159854752Y-75214187D01*
X149813846Y-75214187D01*
X149825000Y-75158113D01*
X149825000Y-74701887D01*
X149730991Y-74229273D01*
X149533887Y-73934285D01*
X154824760Y-73934285D01*
X155035169Y-74443515D01*
X155424436Y-74833461D01*
X155933298Y-75044759D01*
X156484285Y-75045240D01*
X156993515Y-74834831D01*
X157383461Y-74445564D01*
X157594759Y-73936702D01*
X157595240Y-73385715D01*
X157384831Y-72876485D01*
X156995564Y-72486539D01*
X156486702Y-72275241D01*
X155935715Y-72274760D01*
X155426485Y-72485169D01*
X155036539Y-72874436D01*
X154825241Y-73383298D01*
X154824760Y-73934285D01*
X149533887Y-73934285D01*
X149463277Y-73828610D01*
X149062614Y-73560896D01*
X148590000Y-73466887D01*
X148117386Y-73560896D01*
X147716723Y-73828610D01*
X147449009Y-74229273D01*
X147355000Y-74701887D01*
X147355000Y-74947767D01*
X147320000Y-74940805D01*
X146847386Y-75034814D01*
X146446723Y-75302528D01*
X146179009Y-75703191D01*
X146085000Y-76175805D01*
X138395000Y-76175805D01*
X138300991Y-75703191D01*
X138033277Y-75302528D01*
X137632614Y-75034814D01*
X137160000Y-74940805D01*
X137125000Y-74947767D01*
X137125000Y-74905805D01*
X137030991Y-74433191D01*
X136763277Y-74032528D01*
X136362614Y-73764814D01*
X135890000Y-73670805D01*
X135417386Y-73764814D01*
X135016723Y-74032528D01*
X134749009Y-74433191D01*
X134655000Y-74905805D01*
X123815185Y-74905805D01*
X123476691Y-74765250D01*
X122905813Y-74764752D01*
X122378200Y-74982757D01*
X121974176Y-75386077D01*
X121755250Y-75913309D01*
X121754752Y-76484187D01*
X105710000Y-76484187D01*
X105710000Y-72200159D01*
X110859446Y-72200159D01*
X110945852Y-72456643D01*
X111519336Y-72666458D01*
X111571086Y-72664285D01*
X126884760Y-72664285D01*
X127095169Y-73173515D01*
X127484436Y-73563461D01*
X127993298Y-73774759D01*
X128544285Y-73775240D01*
X129053515Y-73564831D01*
X129443461Y-73175564D01*
X129654759Y-72666702D01*
X129655240Y-72115715D01*
X129444831Y-71606485D01*
X129242886Y-71404187D01*
X159854752Y-71404187D01*
X160072757Y-71931800D01*
X160476077Y-72335824D01*
X161003309Y-72554750D01*
X161574187Y-72555248D01*
X162101800Y-72337243D01*
X162505824Y-71933923D01*
X162724750Y-71406691D01*
X162725024Y-71091887D01*
X164935000Y-71091887D01*
X164935000Y-71148113D01*
X165044233Y-71697264D01*
X165355302Y-72162811D01*
X165820849Y-72473880D01*
X166370000Y-72583113D01*
X166919151Y-72473880D01*
X167384698Y-72162811D01*
X167695767Y-71697264D01*
X167805000Y-71148113D01*
X167805000Y-71091887D01*
X167695767Y-70542736D01*
X167384698Y-70077189D01*
X166919151Y-69766120D01*
X166370000Y-69656887D01*
X165820849Y-69766120D01*
X165355302Y-70077189D01*
X165044233Y-70542736D01*
X164935000Y-71091887D01*
X162725024Y-71091887D01*
X162725248Y-70835813D01*
X162507243Y-70308200D01*
X162103923Y-69904176D01*
X161576691Y-69685250D01*
X161005813Y-69684752D01*
X160478200Y-69902757D01*
X160074176Y-70306077D01*
X159855250Y-70833309D01*
X159854752Y-71404187D01*
X129242886Y-71404187D01*
X129055564Y-71216539D01*
X128546702Y-71005241D01*
X127995715Y-71004760D01*
X127486485Y-71215169D01*
X127096539Y-71604436D01*
X126885241Y-72113298D01*
X126884760Y-72664285D01*
X111571086Y-72664285D01*
X112129460Y-72640839D01*
X112574148Y-72456643D01*
X112660554Y-72200159D01*
X112551912Y-72091517D01*
X122398088Y-72091517D01*
X122466077Y-72332460D01*
X122985171Y-72517201D01*
X123535448Y-72489230D01*
X123913923Y-72332460D01*
X123981912Y-72091517D01*
X123190000Y-71299605D01*
X122398088Y-72091517D01*
X112551912Y-72091517D01*
X111760000Y-71299605D01*
X110859446Y-72200159D01*
X105710000Y-72200159D01*
X105710000Y-67680000D01*
X110212560Y-67680000D01*
X110212560Y-69480000D01*
X110256838Y-69715317D01*
X110395910Y-69931441D01*
X110599574Y-70070598D01*
X110565282Y-70104890D01*
X110679839Y-70219447D01*
X110423357Y-70305852D01*
X110213542Y-70879336D01*
X110239161Y-71489460D01*
X110423357Y-71934148D01*
X110679841Y-72020554D01*
X111580395Y-71120000D01*
X111566253Y-71105858D01*
X111745858Y-70926253D01*
X111760000Y-70940395D01*
X111774143Y-70926253D01*
X111953748Y-71105858D01*
X111939605Y-71120000D01*
X112840159Y-72020554D01*
X113096643Y-71934148D01*
X113306458Y-71360664D01*
X113287752Y-70915171D01*
X121792799Y-70915171D01*
X121820770Y-71465448D01*
X121977540Y-71843923D01*
X122218483Y-71911912D01*
X123010395Y-71120000D01*
X123369605Y-71120000D01*
X124161517Y-71911912D01*
X124402460Y-71843923D01*
X124587201Y-71324829D01*
X124559230Y-70774552D01*
X124402460Y-70396077D01*
X124161517Y-70328088D01*
X123369605Y-71120000D01*
X123010395Y-71120000D01*
X122218483Y-70328088D01*
X121977540Y-70396077D01*
X121792799Y-70915171D01*
X113287752Y-70915171D01*
X113280839Y-70750540D01*
X113096643Y-70305852D01*
X112840161Y-70219447D01*
X112911125Y-70148483D01*
X122398088Y-70148483D01*
X123190000Y-70940395D01*
X123981912Y-70148483D01*
X123913923Y-69907540D01*
X123394829Y-69722799D01*
X122844552Y-69750770D01*
X122466077Y-69907540D01*
X122398088Y-70148483D01*
X112911125Y-70148483D01*
X112954718Y-70104890D01*
X112918240Y-70068412D01*
X113111441Y-69944090D01*
X113256431Y-69731890D01*
X113307440Y-69480000D01*
X113307440Y-68854285D01*
X126884760Y-68854285D01*
X127095169Y-69363515D01*
X127484436Y-69753461D01*
X127993298Y-69964759D01*
X128544285Y-69965240D01*
X129053515Y-69754831D01*
X129443461Y-69365564D01*
X129651650Y-68864187D01*
X133184752Y-68864187D01*
X133402757Y-69391800D01*
X133806077Y-69795824D01*
X134333309Y-70014750D01*
X134904187Y-70015248D01*
X135431800Y-69797243D01*
X135835824Y-69393923D01*
X136054750Y-68866691D01*
X136055000Y-68580000D01*
X148396887Y-68580000D01*
X148506120Y-69129151D01*
X148817189Y-69594698D01*
X149282736Y-69905767D01*
X149831887Y-70015000D01*
X149888113Y-70015000D01*
X150437264Y-69905767D01*
X150902811Y-69594698D01*
X151213880Y-69129151D01*
X151323113Y-68580000D01*
X151213880Y-68030849D01*
X151046268Y-67780000D01*
X154762560Y-67780000D01*
X154762560Y-69380000D01*
X154806838Y-69615317D01*
X154945910Y-69831441D01*
X155158110Y-69976431D01*
X155410000Y-70027440D01*
X157010000Y-70027440D01*
X157245317Y-69983162D01*
X157461441Y-69844090D01*
X157606431Y-69631890D01*
X157657440Y-69380000D01*
X157657440Y-67780000D01*
X157613162Y-67544683D01*
X157474090Y-67328559D01*
X157261890Y-67183569D01*
X157010000Y-67132560D01*
X155410000Y-67132560D01*
X155174683Y-67176838D01*
X154958559Y-67315910D01*
X154813569Y-67528110D01*
X154762560Y-67780000D01*
X151046268Y-67780000D01*
X150902811Y-67565302D01*
X150437264Y-67254233D01*
X149888113Y-67145000D01*
X149831887Y-67145000D01*
X149282736Y-67254233D01*
X148817189Y-67565302D01*
X148506120Y-68030849D01*
X148396887Y-68580000D01*
X136055000Y-68580000D01*
X136055248Y-68295813D01*
X135837243Y-67768200D01*
X135433923Y-67364176D01*
X134906691Y-67145250D01*
X134335813Y-67144752D01*
X133808200Y-67362757D01*
X133404176Y-67766077D01*
X133185250Y-68293309D01*
X133184752Y-68864187D01*
X129651650Y-68864187D01*
X129654759Y-68856702D01*
X129655240Y-68305715D01*
X129444831Y-67796485D01*
X129055564Y-67406539D01*
X128546702Y-67195241D01*
X127995715Y-67194760D01*
X127486485Y-67405169D01*
X127096539Y-67794436D01*
X126885241Y-68303298D01*
X126884760Y-68854285D01*
X113307440Y-68854285D01*
X113307440Y-67680000D01*
X113263162Y-67444683D01*
X113124090Y-67228559D01*
X112911890Y-67083569D01*
X112660000Y-67032560D01*
X110860000Y-67032560D01*
X110624683Y-67076838D01*
X110408559Y-67215910D01*
X110263569Y-67428110D01*
X110212560Y-67680000D01*
X105710000Y-67680000D01*
X105710000Y-65054187D01*
X133184752Y-65054187D01*
X133402757Y-65581800D01*
X133806077Y-65985824D01*
X134333309Y-66204750D01*
X134904187Y-66205248D01*
X135431800Y-65987243D01*
X135835824Y-65583923D01*
X136028860Y-65119039D01*
X148468096Y-65119039D01*
X148628959Y-65507423D01*
X149004866Y-65922389D01*
X149510959Y-66161914D01*
X149733000Y-66040629D01*
X149733000Y-64897000D01*
X149987000Y-64897000D01*
X149987000Y-66040629D01*
X150209041Y-66161914D01*
X150715134Y-65922389D01*
X151091041Y-65507423D01*
X151251904Y-65119039D01*
X151129915Y-64897000D01*
X149987000Y-64897000D01*
X149733000Y-64897000D01*
X148590085Y-64897000D01*
X148468096Y-65119039D01*
X136028860Y-65119039D01*
X136054750Y-65056691D01*
X136055248Y-64485813D01*
X136028452Y-64420961D01*
X148468096Y-64420961D01*
X148590085Y-64643000D01*
X149733000Y-64643000D01*
X149733000Y-63499371D01*
X149987000Y-63499371D01*
X149987000Y-64643000D01*
X151129915Y-64643000D01*
X151251904Y-64420961D01*
X151091041Y-64032577D01*
X150715134Y-63617611D01*
X150209041Y-63378086D01*
X149987000Y-63499371D01*
X149733000Y-63499371D01*
X149510959Y-63378086D01*
X149004866Y-63617611D01*
X148628959Y-64032577D01*
X148468096Y-64420961D01*
X136028452Y-64420961D01*
X135837243Y-63958200D01*
X135433923Y-63554176D01*
X134906691Y-63335250D01*
X134335813Y-63334752D01*
X133808200Y-63552757D01*
X133404176Y-63956077D01*
X133185250Y-64483309D01*
X133184752Y-65054187D01*
X105710000Y-65054187D01*
X105710000Y-63784187D01*
X126834752Y-63784187D01*
X127052757Y-64311800D01*
X127456077Y-64715824D01*
X127983309Y-64934750D01*
X128554187Y-64935248D01*
X129081800Y-64717243D01*
X129485824Y-64313923D01*
X129704750Y-63786691D01*
X129705248Y-63215813D01*
X129487243Y-62688200D01*
X129083923Y-62284176D01*
X128556691Y-62065250D01*
X127985813Y-62064752D01*
X127458200Y-62282757D01*
X127054176Y-62686077D01*
X126835250Y-63213309D01*
X126834752Y-63784187D01*
X105710000Y-63784187D01*
X105710000Y-61244187D01*
X133184752Y-61244187D01*
X133402757Y-61771800D01*
X133806077Y-62175824D01*
X134333309Y-62394750D01*
X134904187Y-62395248D01*
X135431800Y-62177243D01*
X135835824Y-61773923D01*
X136028860Y-61309039D01*
X148468096Y-61309039D01*
X148628959Y-61697423D01*
X149004866Y-62112389D01*
X149510959Y-62351914D01*
X149733000Y-62230629D01*
X149733000Y-61087000D01*
X149987000Y-61087000D01*
X149987000Y-62230629D01*
X150209041Y-62351914D01*
X150715134Y-62112389D01*
X151091041Y-61697423D01*
X151251904Y-61309039D01*
X151129915Y-61087000D01*
X149987000Y-61087000D01*
X149733000Y-61087000D01*
X148590085Y-61087000D01*
X148468096Y-61309039D01*
X136028860Y-61309039D01*
X136054750Y-61246691D01*
X136055248Y-60675813D01*
X136028452Y-60610961D01*
X148468096Y-60610961D01*
X148590085Y-60833000D01*
X149733000Y-60833000D01*
X149733000Y-59689371D01*
X149987000Y-59689371D01*
X149987000Y-60833000D01*
X151129915Y-60833000D01*
X151251904Y-60610961D01*
X151091041Y-60222577D01*
X150715134Y-59807611D01*
X150209041Y-59568086D01*
X149987000Y-59689371D01*
X149733000Y-59689371D01*
X149510959Y-59568086D01*
X149004866Y-59807611D01*
X148628959Y-60222577D01*
X148468096Y-60610961D01*
X136028452Y-60610961D01*
X135837243Y-60148200D01*
X135433923Y-59744176D01*
X134906691Y-59525250D01*
X134335813Y-59524752D01*
X133808200Y-59742757D01*
X133404176Y-60146077D01*
X133185250Y-60673309D01*
X133184752Y-61244187D01*
X105710000Y-61244187D01*
X105710000Y-59964285D01*
X126884760Y-59964285D01*
X127095169Y-60473515D01*
X127484436Y-60863461D01*
X127993298Y-61074759D01*
X128544285Y-61075240D01*
X129053515Y-60864831D01*
X129443461Y-60475564D01*
X129654759Y-59966702D01*
X129655240Y-59415715D01*
X129444831Y-58906485D01*
X129055564Y-58516539D01*
X128546702Y-58305241D01*
X127995715Y-58304760D01*
X127486485Y-58515169D01*
X127096539Y-58904436D01*
X126885241Y-59413298D01*
X126884760Y-59964285D01*
X105710000Y-59964285D01*
X105710000Y-57235880D01*
X107943725Y-57235880D01*
X108225421Y-57658564D01*
X109377892Y-58135294D01*
X110625072Y-58134705D01*
X111774579Y-57658564D01*
X111924114Y-57434187D01*
X133184752Y-57434187D01*
X133402757Y-57961800D01*
X133806077Y-58365824D01*
X134333309Y-58584750D01*
X134904187Y-58585248D01*
X135431800Y-58367243D01*
X135835824Y-57963923D01*
X136028860Y-57499039D01*
X148468096Y-57499039D01*
X148628959Y-57887423D01*
X149004866Y-58302389D01*
X149510959Y-58541914D01*
X149733000Y-58420629D01*
X149733000Y-57277000D01*
X149987000Y-57277000D01*
X149987000Y-58420629D01*
X150209041Y-58541914D01*
X150715134Y-58302389D01*
X151091041Y-57887423D01*
X151251904Y-57499039D01*
X151129915Y-57277000D01*
X149987000Y-57277000D01*
X149733000Y-57277000D01*
X148590085Y-57277000D01*
X148468096Y-57499039D01*
X136028860Y-57499039D01*
X136054750Y-57436691D01*
X136055248Y-56865813D01*
X136028452Y-56800961D01*
X148468096Y-56800961D01*
X148590085Y-57023000D01*
X149733000Y-57023000D01*
X149733000Y-55879371D01*
X149987000Y-55879371D01*
X149987000Y-57023000D01*
X151129915Y-57023000D01*
X151251904Y-56800961D01*
X151091041Y-56412577D01*
X150715134Y-55997611D01*
X150407234Y-55851887D01*
X154775000Y-55851887D01*
X154775000Y-55908113D01*
X154884233Y-56457264D01*
X155195302Y-56922811D01*
X155660849Y-57233880D01*
X156210000Y-57343113D01*
X156759151Y-57233880D01*
X157224698Y-56922811D01*
X157535767Y-56457264D01*
X157645000Y-55908113D01*
X157645000Y-55851887D01*
X159855000Y-55851887D01*
X159855000Y-55908113D01*
X159964233Y-56457264D01*
X160275302Y-56922811D01*
X160740849Y-57233880D01*
X161290000Y-57343113D01*
X161839151Y-57233880D01*
X162304698Y-56922811D01*
X162615767Y-56457264D01*
X162674063Y-56164187D01*
X164934752Y-56164187D01*
X165152757Y-56691800D01*
X165556077Y-57095824D01*
X166083309Y-57314750D01*
X166654187Y-57315248D01*
X166846272Y-57235880D01*
X172943725Y-57235880D01*
X173225421Y-57658564D01*
X174377892Y-58135294D01*
X175625072Y-58134705D01*
X176774579Y-57658564D01*
X177056275Y-57235880D01*
X175000000Y-55179605D01*
X172943725Y-57235880D01*
X166846272Y-57235880D01*
X167181800Y-57097243D01*
X167585824Y-56693923D01*
X167804750Y-56166691D01*
X167805248Y-55595813D01*
X167587243Y-55068200D01*
X167183923Y-54664176D01*
X166656691Y-54445250D01*
X166085813Y-54444752D01*
X165558200Y-54662757D01*
X165154176Y-55066077D01*
X164935250Y-55593309D01*
X164934752Y-56164187D01*
X162674063Y-56164187D01*
X162725000Y-55908113D01*
X162725000Y-55851887D01*
X162615767Y-55302736D01*
X162304698Y-54837189D01*
X161839151Y-54526120D01*
X161290000Y-54416887D01*
X160740849Y-54526120D01*
X160275302Y-54837189D01*
X159964233Y-55302736D01*
X159855000Y-55851887D01*
X157645000Y-55851887D01*
X157535767Y-55302736D01*
X157224698Y-54837189D01*
X156759151Y-54526120D01*
X156210000Y-54416887D01*
X155660849Y-54526120D01*
X155195302Y-54837189D01*
X154884233Y-55302736D01*
X154775000Y-55851887D01*
X150407234Y-55851887D01*
X150209041Y-55758086D01*
X149987000Y-55879371D01*
X149733000Y-55879371D01*
X149510959Y-55758086D01*
X149004866Y-55997611D01*
X148628959Y-56412577D01*
X148468096Y-56800961D01*
X136028452Y-56800961D01*
X135837243Y-56338200D01*
X135433923Y-55934176D01*
X134906691Y-55715250D01*
X134335813Y-55714752D01*
X133808200Y-55932757D01*
X133404176Y-56336077D01*
X133185250Y-56863309D01*
X133184752Y-57434187D01*
X111924114Y-57434187D01*
X112056275Y-57235880D01*
X110000000Y-55179605D01*
X107943725Y-57235880D01*
X105710000Y-57235880D01*
X105710000Y-54377892D01*
X106864706Y-54377892D01*
X106865295Y-55625072D01*
X107341436Y-56774579D01*
X107764120Y-57056275D01*
X109820395Y-55000000D01*
X110179605Y-55000000D01*
X112235880Y-57056275D01*
X112658564Y-56774579D01*
X113135294Y-55622108D01*
X113134951Y-54894187D01*
X126834752Y-54894187D01*
X127052757Y-55421800D01*
X127456077Y-55825824D01*
X127983309Y-56044750D01*
X128554187Y-56045248D01*
X129081800Y-55827243D01*
X129485824Y-55423923D01*
X129704750Y-54896691D01*
X129705248Y-54325813D01*
X129487243Y-53798200D01*
X129083923Y-53394176D01*
X128556691Y-53175250D01*
X127985813Y-53174752D01*
X127458200Y-53392757D01*
X127054176Y-53796077D01*
X126835250Y-54323309D01*
X126834752Y-54894187D01*
X113134951Y-54894187D01*
X113134705Y-54374928D01*
X112658564Y-53225421D01*
X112235880Y-52943725D01*
X110179605Y-55000000D01*
X109820395Y-55000000D01*
X107764120Y-52943725D01*
X107341436Y-53225421D01*
X106864706Y-54377892D01*
X105710000Y-54377892D01*
X105710000Y-52764120D01*
X107943725Y-52764120D01*
X110000000Y-54820395D01*
X112056275Y-52764120D01*
X111840267Y-52440000D01*
X138152560Y-52440000D01*
X138152560Y-54240000D01*
X138196838Y-54475317D01*
X138335910Y-54691441D01*
X138548110Y-54836431D01*
X138800000Y-54887440D01*
X140600000Y-54887440D01*
X140835317Y-54843162D01*
X141051441Y-54704090D01*
X141196431Y-54491890D01*
X141200567Y-54471466D01*
X141369357Y-54640551D01*
X141933330Y-54874733D01*
X142543991Y-54875265D01*
X143108371Y-54642068D01*
X143330668Y-54420159D01*
X143879446Y-54420159D01*
X143965852Y-54676643D01*
X144539336Y-54886458D01*
X145149460Y-54860839D01*
X145594148Y-54676643D01*
X145680554Y-54420159D01*
X145638287Y-54377892D01*
X171864706Y-54377892D01*
X171865295Y-55625072D01*
X172341436Y-56774579D01*
X172764120Y-57056275D01*
X174820395Y-55000000D01*
X175179605Y-55000000D01*
X177235880Y-57056275D01*
X177658564Y-56774579D01*
X178135294Y-55622108D01*
X178134705Y-54374928D01*
X177658564Y-53225421D01*
X177235880Y-52943725D01*
X175179605Y-55000000D01*
X174820395Y-55000000D01*
X172764120Y-52943725D01*
X172341436Y-53225421D01*
X171864706Y-54377892D01*
X145638287Y-54377892D01*
X144780000Y-53519605D01*
X143879446Y-54420159D01*
X143330668Y-54420159D01*
X143540551Y-54210643D01*
X143549203Y-54189806D01*
X143699841Y-54240554D01*
X144600395Y-53340000D01*
X144959605Y-53340000D01*
X145860159Y-54240554D01*
X146116643Y-54154148D01*
X146326458Y-53580664D01*
X146300839Y-52970540D01*
X146215337Y-52764120D01*
X172943725Y-52764120D01*
X175000000Y-54820395D01*
X177056275Y-52764120D01*
X176774579Y-52341436D01*
X175622108Y-51864706D01*
X174374928Y-51865295D01*
X173225421Y-52341436D01*
X172943725Y-52764120D01*
X146215337Y-52764120D01*
X146116643Y-52525852D01*
X145860159Y-52439446D01*
X144959605Y-53340000D01*
X144600395Y-53340000D01*
X143699841Y-52439446D01*
X143549673Y-52490035D01*
X143542068Y-52471629D01*
X143330650Y-52259841D01*
X143879446Y-52259841D01*
X144780000Y-53160395D01*
X145680554Y-52259841D01*
X145594148Y-52003357D01*
X145020664Y-51793542D01*
X144410540Y-51819161D01*
X143965852Y-52003357D01*
X143879446Y-52259841D01*
X143330650Y-52259841D01*
X143110643Y-52039449D01*
X142546670Y-51805267D01*
X141936009Y-51804735D01*
X141371629Y-52037932D01*
X141203387Y-52205880D01*
X141203162Y-52204683D01*
X141064090Y-51988559D01*
X140851890Y-51843569D01*
X140600000Y-51792560D01*
X138800000Y-51792560D01*
X138564683Y-51836838D01*
X138348559Y-51975910D01*
X138203569Y-52188110D01*
X138152560Y-52440000D01*
X111840267Y-52440000D01*
X111774579Y-52341436D01*
X110622108Y-51864706D01*
X109374928Y-51865295D01*
X108225421Y-52341436D01*
X107943725Y-52764120D01*
X105710000Y-52764120D01*
X105710000Y-50710000D01*
X179290000Y-50710000D01*
X179290000Y-99290000D01*
X179290000Y-99290000D01*
G37*
X179290000Y-99290000D02*
X105710000Y-99290000D01*
X105710000Y-97235880D01*
X107943725Y-97235880D01*
X108225421Y-97658564D01*
X109377892Y-98135294D01*
X110625072Y-98134705D01*
X111774579Y-97658564D01*
X112056275Y-97235880D01*
X110000000Y-95179605D01*
X107943725Y-97235880D01*
X105710000Y-97235880D01*
X105710000Y-94377892D01*
X106864706Y-94377892D01*
X106865295Y-95625072D01*
X107341436Y-96774579D01*
X107764120Y-97056275D01*
X109820395Y-95000000D01*
X110179605Y-95000000D01*
X112235880Y-97056275D01*
X112628995Y-96794285D01*
X154824760Y-96794285D01*
X155035169Y-97303515D01*
X155424436Y-97693461D01*
X155933298Y-97904759D01*
X156484285Y-97905240D01*
X156993515Y-97694831D01*
X157383461Y-97305564D01*
X157412396Y-97235880D01*
X172943725Y-97235880D01*
X173225421Y-97658564D01*
X174377892Y-98135294D01*
X175625072Y-98134705D01*
X176774579Y-97658564D01*
X177056275Y-97235880D01*
X175000000Y-95179605D01*
X172943725Y-97235880D01*
X157412396Y-97235880D01*
X157594759Y-96796702D01*
X157595240Y-96245715D01*
X157384831Y-95736485D01*
X156995564Y-95346539D01*
X156486702Y-95135241D01*
X155935715Y-95134760D01*
X155426485Y-95345169D01*
X155036539Y-95734436D01*
X154825241Y-96243298D01*
X154824760Y-96794285D01*
X112628995Y-96794285D01*
X112658564Y-96774579D01*
X113135294Y-95622108D01*
X113135253Y-95534187D01*
X116674752Y-95534187D01*
X116892757Y-96061800D01*
X117296077Y-96465824D01*
X117823309Y-96684750D01*
X118394187Y-96685248D01*
X118921800Y-96467243D01*
X119325824Y-96063923D01*
X119544750Y-95536691D01*
X119545024Y-95221887D01*
X121755000Y-95221887D01*
X121755000Y-95278113D01*
X121864233Y-95827264D01*
X122175302Y-96292811D01*
X122640849Y-96603880D01*
X123190000Y-96713113D01*
X123739151Y-96603880D01*
X124204698Y-96292811D01*
X124515767Y-95827264D01*
X124625000Y-95278113D01*
X124625000Y-95221887D01*
X126835000Y-95221887D01*
X126835000Y-95278113D01*
X126944233Y-95827264D01*
X127255302Y-96292811D01*
X127720849Y-96603880D01*
X128270000Y-96713113D01*
X128819151Y-96603880D01*
X129284698Y-96292811D01*
X129595767Y-95827264D01*
X129641163Y-95599039D01*
X133228096Y-95599039D01*
X133388959Y-95987423D01*
X133764866Y-96402389D01*
X134270959Y-96641914D01*
X134493000Y-96520629D01*
X134493000Y-95377000D01*
X134747000Y-95377000D01*
X134747000Y-96520629D01*
X134969041Y-96641914D01*
X135475134Y-96402389D01*
X135851041Y-95987423D01*
X136011904Y-95599039D01*
X135976275Y-95534187D01*
X148424752Y-95534187D01*
X148642757Y-96061800D01*
X149046077Y-96465824D01*
X149573309Y-96684750D01*
X150144187Y-96685248D01*
X150671800Y-96467243D01*
X151075824Y-96063923D01*
X151294750Y-95536691D01*
X151295248Y-94965813D01*
X151077243Y-94438200D01*
X151017041Y-94377892D01*
X171864706Y-94377892D01*
X171865295Y-95625072D01*
X172341436Y-96774579D01*
X172764120Y-97056275D01*
X174820395Y-95000000D01*
X175179605Y-95000000D01*
X177235880Y-97056275D01*
X177658564Y-96774579D01*
X178135294Y-95622108D01*
X178134705Y-94374928D01*
X177658564Y-93225421D01*
X177235880Y-92943725D01*
X175179605Y-95000000D01*
X174820395Y-95000000D01*
X172764120Y-92943725D01*
X172341436Y-93225421D01*
X171864706Y-94377892D01*
X151017041Y-94377892D01*
X150673923Y-94034176D01*
X150146691Y-93815250D01*
X149575813Y-93814752D01*
X149048200Y-94032757D01*
X148644176Y-94436077D01*
X148425250Y-94963309D01*
X148424752Y-95534187D01*
X135976275Y-95534187D01*
X135889915Y-95377000D01*
X134747000Y-95377000D01*
X134493000Y-95377000D01*
X133350085Y-95377000D01*
X133228096Y-95599039D01*
X129641163Y-95599039D01*
X129705000Y-95278113D01*
X129705000Y-95221887D01*
X129641164Y-94900961D01*
X133228096Y-94900961D01*
X133350085Y-95123000D01*
X134493000Y-95123000D01*
X134493000Y-93979371D01*
X134747000Y-93979371D01*
X134747000Y-95123000D01*
X135889915Y-95123000D01*
X136011904Y-94900961D01*
X135851041Y-94512577D01*
X135475134Y-94097611D01*
X134969041Y-93858086D01*
X134747000Y-93979371D01*
X134493000Y-93979371D01*
X134270959Y-93858086D01*
X133764866Y-94097611D01*
X133388959Y-94512577D01*
X133228096Y-94900961D01*
X129641164Y-94900961D01*
X129595767Y-94672736D01*
X129284698Y-94207189D01*
X128819151Y-93896120D01*
X128270000Y-93786887D01*
X127720849Y-93896120D01*
X127255302Y-94207189D01*
X126944233Y-94672736D01*
X126835000Y-95221887D01*
X124625000Y-95221887D01*
X124515767Y-94672736D01*
X124204698Y-94207189D01*
X123739151Y-93896120D01*
X123190000Y-93786887D01*
X122640849Y-93896120D01*
X122175302Y-94207189D01*
X121864233Y-94672736D01*
X121755000Y-95221887D01*
X119545024Y-95221887D01*
X119545248Y-94965813D01*
X119327243Y-94438200D01*
X118923923Y-94034176D01*
X118396691Y-93815250D01*
X117825813Y-93814752D01*
X117298200Y-94032757D01*
X116894176Y-94436077D01*
X116675250Y-94963309D01*
X116674752Y-95534187D01*
X113135253Y-95534187D01*
X113134705Y-94374928D01*
X112658564Y-93225421D01*
X112235880Y-92943725D01*
X110179605Y-95000000D01*
X109820395Y-95000000D01*
X107764120Y-92943725D01*
X107341436Y-93225421D01*
X106864706Y-94377892D01*
X105710000Y-94377892D01*
X105710000Y-92764120D01*
X107943725Y-92764120D01*
X110000000Y-94820395D01*
X112056275Y-92764120D01*
X111774579Y-92341436D01*
X110622108Y-91864706D01*
X109374928Y-91865295D01*
X108225421Y-92341436D01*
X107943725Y-92764120D01*
X105710000Y-92764120D01*
X105710000Y-91789039D01*
X133228096Y-91789039D01*
X133388959Y-92177423D01*
X133764866Y-92592389D01*
X134270959Y-92831914D01*
X134493000Y-92710629D01*
X134493000Y-91567000D01*
X134747000Y-91567000D01*
X134747000Y-92710629D01*
X134969041Y-92831914D01*
X135475134Y-92592389D01*
X135851041Y-92177423D01*
X136011904Y-91789039D01*
X135976275Y-91724187D01*
X148424752Y-91724187D01*
X148642757Y-92251800D01*
X149046077Y-92655824D01*
X149573309Y-92874750D01*
X150144187Y-92875248D01*
X150671800Y-92657243D01*
X151075824Y-92253923D01*
X151294750Y-91726691D01*
X151294752Y-91724187D01*
X154774752Y-91724187D01*
X154992757Y-92251800D01*
X155396077Y-92655824D01*
X155923309Y-92874750D01*
X156494187Y-92875248D01*
X156763137Y-92764120D01*
X172943725Y-92764120D01*
X175000000Y-94820395D01*
X177056275Y-92764120D01*
X176774579Y-92341436D01*
X175622108Y-91864706D01*
X174374928Y-91865295D01*
X173225421Y-92341436D01*
X172943725Y-92764120D01*
X156763137Y-92764120D01*
X157021800Y-92657243D01*
X157425824Y-92253923D01*
X157644750Y-91726691D01*
X157645248Y-91155813D01*
X157427243Y-90628200D01*
X157023923Y-90224176D01*
X156496691Y-90005250D01*
X155925813Y-90004752D01*
X155398200Y-90222757D01*
X154994176Y-90626077D01*
X154775250Y-91153309D01*
X154774752Y-91724187D01*
X151294752Y-91724187D01*
X151295248Y-91155813D01*
X151077243Y-90628200D01*
X150673923Y-90224176D01*
X150146691Y-90005250D01*
X149575813Y-90004752D01*
X149048200Y-90222757D01*
X148644176Y-90626077D01*
X148425250Y-91153309D01*
X148424752Y-91724187D01*
X135976275Y-91724187D01*
X135889915Y-91567000D01*
X134747000Y-91567000D01*
X134493000Y-91567000D01*
X133350085Y-91567000D01*
X133228096Y-91789039D01*
X105710000Y-91789039D01*
X105710000Y-91090961D01*
X133228096Y-91090961D01*
X133350085Y-91313000D01*
X134493000Y-91313000D01*
X134493000Y-90169371D01*
X134747000Y-90169371D01*
X134747000Y-91313000D01*
X135889915Y-91313000D01*
X136011904Y-91090961D01*
X135851041Y-90702577D01*
X135475134Y-90287611D01*
X134969041Y-90048086D01*
X134747000Y-90169371D01*
X134493000Y-90169371D01*
X134270959Y-90048086D01*
X133764866Y-90287611D01*
X133388959Y-90702577D01*
X133228096Y-91090961D01*
X105710000Y-91090961D01*
X105710000Y-87979039D01*
X133228096Y-87979039D01*
X133388959Y-88367423D01*
X133764866Y-88782389D01*
X134270959Y-89021914D01*
X134493000Y-88900629D01*
X134493000Y-87757000D01*
X134747000Y-87757000D01*
X134747000Y-88900629D01*
X134969041Y-89021914D01*
X135475134Y-88782389D01*
X135851041Y-88367423D01*
X136011904Y-87979039D01*
X135976275Y-87914187D01*
X148424752Y-87914187D01*
X148642757Y-88441800D01*
X149046077Y-88845824D01*
X149573309Y-89064750D01*
X150144187Y-89065248D01*
X150671800Y-88847243D01*
X151075824Y-88443923D01*
X151294750Y-87916691D01*
X151294760Y-87904285D01*
X154824760Y-87904285D01*
X155035169Y-88413515D01*
X155424436Y-88803461D01*
X155933298Y-89014759D01*
X156484285Y-89015240D01*
X156993515Y-88804831D01*
X157383461Y-88415564D01*
X157594759Y-87906702D01*
X157595240Y-87355715D01*
X157384831Y-86846485D01*
X156995564Y-86456539D01*
X156486702Y-86245241D01*
X155935715Y-86244760D01*
X155426485Y-86455169D01*
X155036539Y-86844436D01*
X154825241Y-87353298D01*
X154824760Y-87904285D01*
X151294760Y-87904285D01*
X151295248Y-87345813D01*
X151077243Y-86818200D01*
X150673923Y-86414176D01*
X150146691Y-86195250D01*
X149575813Y-86194752D01*
X149048200Y-86412757D01*
X148644176Y-86816077D01*
X148425250Y-87343309D01*
X148424752Y-87914187D01*
X135976275Y-87914187D01*
X135889915Y-87757000D01*
X134747000Y-87757000D01*
X134493000Y-87757000D01*
X133350085Y-87757000D01*
X133228096Y-87979039D01*
X105710000Y-87979039D01*
X105710000Y-87280961D01*
X133228096Y-87280961D01*
X133350085Y-87503000D01*
X134493000Y-87503000D01*
X134493000Y-86359371D01*
X134747000Y-86359371D01*
X134747000Y-87503000D01*
X135889915Y-87503000D01*
X136011904Y-87280961D01*
X135851041Y-86892577D01*
X135475134Y-86477611D01*
X134969041Y-86238086D01*
X134747000Y-86359371D01*
X134493000Y-86359371D01*
X134270959Y-86238086D01*
X133764866Y-86477611D01*
X133388959Y-86892577D01*
X133228096Y-87280961D01*
X105710000Y-87280961D01*
X105710000Y-84104187D01*
X133184752Y-84104187D01*
X133402757Y-84631800D01*
X133806077Y-85035824D01*
X134333309Y-85254750D01*
X134904187Y-85255248D01*
X135431800Y-85037243D01*
X135835824Y-84633923D01*
X136054750Y-84106691D01*
X136055000Y-83820000D01*
X148396887Y-83820000D01*
X148506120Y-84369151D01*
X148817189Y-84834698D01*
X149282736Y-85145767D01*
X149831887Y-85255000D01*
X149888113Y-85255000D01*
X150437264Y-85145767D01*
X150902811Y-84834698D01*
X151213880Y-84369151D01*
X151323113Y-83820000D01*
X151213880Y-83270849D01*
X150922112Y-82834187D01*
X154774752Y-82834187D01*
X154992757Y-83361800D01*
X155396077Y-83765824D01*
X155923309Y-83984750D01*
X156494187Y-83985248D01*
X157021800Y-83767243D01*
X157425824Y-83363923D01*
X157644750Y-82836691D01*
X157645248Y-82265813D01*
X157427243Y-81738200D01*
X157339197Y-81650000D01*
X172442560Y-81650000D01*
X172442560Y-83450000D01*
X172486838Y-83685317D01*
X172625910Y-83901441D01*
X172838110Y-84046431D01*
X173090000Y-84097440D01*
X174890000Y-84097440D01*
X175125317Y-84053162D01*
X175341441Y-83914090D01*
X175486431Y-83701890D01*
X175537440Y-83450000D01*
X175537440Y-81650000D01*
X175493162Y-81414683D01*
X175354090Y-81198559D01*
X175150426Y-81059402D01*
X175184718Y-81025110D01*
X175070161Y-80910553D01*
X175326643Y-80824148D01*
X175536458Y-80250664D01*
X175510839Y-79640540D01*
X175326643Y-79195852D01*
X175070159Y-79109446D01*
X174169605Y-80010000D01*
X174183748Y-80024143D01*
X174004143Y-80203748D01*
X173990000Y-80189605D01*
X173975858Y-80203748D01*
X173796253Y-80024143D01*
X173810395Y-80010000D01*
X172909841Y-79109446D01*
X172653357Y-79195852D01*
X172443542Y-79769336D01*
X172469161Y-80379460D01*
X172653357Y-80824148D01*
X172909839Y-80910553D01*
X172795282Y-81025110D01*
X172831760Y-81061588D01*
X172638559Y-81185910D01*
X172493569Y-81398110D01*
X172442560Y-81650000D01*
X157339197Y-81650000D01*
X157023923Y-81334176D01*
X156496691Y-81115250D01*
X155925813Y-81114752D01*
X155398200Y-81332757D01*
X154994176Y-81736077D01*
X154775250Y-82263309D01*
X154774752Y-82834187D01*
X150922112Y-82834187D01*
X150902811Y-82805302D01*
X150437264Y-82494233D01*
X149888113Y-82385000D01*
X149831887Y-82385000D01*
X149282736Y-82494233D01*
X148817189Y-82805302D01*
X148506120Y-83270849D01*
X148396887Y-83820000D01*
X136055000Y-83820000D01*
X136055248Y-83535813D01*
X135837243Y-83008200D01*
X135433923Y-82604176D01*
X134906691Y-82385250D01*
X134335813Y-82384752D01*
X133808200Y-82602757D01*
X133404176Y-83006077D01*
X133185250Y-83533309D01*
X133184752Y-84104187D01*
X105710000Y-84104187D01*
X105710000Y-81750000D01*
X126822560Y-81750000D01*
X126822560Y-83350000D01*
X126866838Y-83585317D01*
X127005910Y-83801441D01*
X127218110Y-83946431D01*
X127470000Y-83997440D01*
X129070000Y-83997440D01*
X129305317Y-83953162D01*
X129521441Y-83814090D01*
X129666431Y-83601890D01*
X129717440Y-83350000D01*
X129717440Y-81750000D01*
X129673162Y-81514683D01*
X129534090Y-81298559D01*
X129321890Y-81153569D01*
X129070000Y-81102560D01*
X127470000Y-81102560D01*
X127234683Y-81146838D01*
X127018559Y-81285910D01*
X126873569Y-81498110D01*
X126822560Y-81750000D01*
X105710000Y-81750000D01*
X105710000Y-79981887D01*
X116675000Y-79981887D01*
X116675000Y-80038113D01*
X116784233Y-80587264D01*
X117095302Y-81052811D01*
X117560849Y-81363880D01*
X118110000Y-81473113D01*
X118659151Y-81363880D01*
X119124698Y-81052811D01*
X119435767Y-80587264D01*
X119494063Y-80294187D01*
X121754752Y-80294187D01*
X121972757Y-80821800D01*
X122376077Y-81225824D01*
X122903309Y-81444750D01*
X123474187Y-81445248D01*
X124001800Y-81227243D01*
X124247954Y-80981517D01*
X160498088Y-80981517D01*
X160566077Y-81222460D01*
X161085171Y-81407201D01*
X161635448Y-81379230D01*
X162013923Y-81222460D01*
X162081912Y-80981517D01*
X161290000Y-80189605D01*
X160498088Y-80981517D01*
X124247954Y-80981517D01*
X124405824Y-80823923D01*
X124624750Y-80296691D01*
X124625248Y-79725813D01*
X124407243Y-79198200D01*
X124233534Y-79024187D01*
X154774752Y-79024187D01*
X154992757Y-79551800D01*
X155396077Y-79955824D01*
X155923309Y-80174750D01*
X156494187Y-80175248D01*
X157021800Y-79957243D01*
X157174137Y-79805171D01*
X159892799Y-79805171D01*
X159920770Y-80355448D01*
X160077540Y-80733923D01*
X160318483Y-80801912D01*
X161110395Y-80010000D01*
X161469605Y-80010000D01*
X162261517Y-80801912D01*
X162502460Y-80733923D01*
X162687201Y-80214829D01*
X162659230Y-79664552D01*
X162502460Y-79286077D01*
X162261517Y-79218088D01*
X161469605Y-80010000D01*
X161110395Y-80010000D01*
X160318483Y-79218088D01*
X160077540Y-79286077D01*
X159892799Y-79805171D01*
X157174137Y-79805171D01*
X157425824Y-79553923D01*
X157639853Y-79038483D01*
X160498088Y-79038483D01*
X161290000Y-79830395D01*
X162081912Y-79038483D01*
X162051256Y-78929841D01*
X173089446Y-78929841D01*
X173990000Y-79830395D01*
X174890554Y-78929841D01*
X174804148Y-78673357D01*
X174230664Y-78463542D01*
X173620540Y-78489161D01*
X173175852Y-78673357D01*
X173089446Y-78929841D01*
X162051256Y-78929841D01*
X162013923Y-78797540D01*
X161494829Y-78612799D01*
X160944552Y-78640770D01*
X160566077Y-78797540D01*
X160498088Y-79038483D01*
X157639853Y-79038483D01*
X157644750Y-79026691D01*
X157645248Y-78455813D01*
X157427243Y-77928200D01*
X157023923Y-77524176D01*
X156496691Y-77305250D01*
X155925813Y-77304752D01*
X155398200Y-77522757D01*
X154994176Y-77926077D01*
X154775250Y-78453309D01*
X154774752Y-79024187D01*
X124233534Y-79024187D01*
X124003923Y-78794176D01*
X123476691Y-78575250D01*
X122905813Y-78574752D01*
X122378200Y-78792757D01*
X121974176Y-79196077D01*
X121755250Y-79723309D01*
X121754752Y-80294187D01*
X119494063Y-80294187D01*
X119545000Y-80038113D01*
X119545000Y-79981887D01*
X119435767Y-79432736D01*
X119124698Y-78967189D01*
X118659151Y-78656120D01*
X118110000Y-78546887D01*
X117560849Y-78656120D01*
X117095302Y-78967189D01*
X116784233Y-79432736D01*
X116675000Y-79981887D01*
X105710000Y-79981887D01*
X105710000Y-77754187D01*
X126834752Y-77754187D01*
X127052757Y-78281800D01*
X127456077Y-78685824D01*
X127983309Y-78904750D01*
X128554187Y-78905248D01*
X129081800Y-78687243D01*
X129485824Y-78283923D01*
X129704750Y-77756691D01*
X129705248Y-77185813D01*
X129487243Y-76658200D01*
X129083923Y-76254176D01*
X128556691Y-76035250D01*
X127985813Y-76034752D01*
X127458200Y-76252757D01*
X127054176Y-76656077D01*
X126835250Y-77183309D01*
X126834752Y-77754187D01*
X105710000Y-77754187D01*
X105710000Y-76484187D01*
X121754752Y-76484187D01*
X121972757Y-77011800D01*
X122376077Y-77415824D01*
X122903309Y-77634750D01*
X123474187Y-77635248D01*
X124001800Y-77417243D01*
X124405824Y-77013923D01*
X124624750Y-76486691D01*
X124625248Y-75915813D01*
X124407243Y-75388200D01*
X124003923Y-74984176D01*
X123815185Y-74905805D01*
X134655000Y-74905805D01*
X134655000Y-74954195D01*
X134749009Y-75426809D01*
X135016723Y-75827472D01*
X135417386Y-76095186D01*
X135431739Y-76098041D01*
X135417386Y-76100896D01*
X135016723Y-76368610D01*
X134749009Y-76769273D01*
X134655000Y-77241887D01*
X134655000Y-77698113D01*
X134749009Y-78170727D01*
X135016723Y-78571390D01*
X135417386Y-78839104D01*
X135890000Y-78933113D01*
X136362614Y-78839104D01*
X136763277Y-78571390D01*
X137030991Y-78170727D01*
X137125000Y-77698113D01*
X137125000Y-77452233D01*
X137160000Y-77459195D01*
X137632614Y-77365186D01*
X138033277Y-77097472D01*
X138300991Y-76696809D01*
X138395000Y-76224195D01*
X138395000Y-76175805D01*
X146085000Y-76175805D01*
X146085000Y-76224195D01*
X146179009Y-76696809D01*
X146446723Y-77097472D01*
X146847386Y-77365186D01*
X147320000Y-77459195D01*
X147355000Y-77452233D01*
X147355000Y-77494195D01*
X147449009Y-77966809D01*
X147716723Y-78367472D01*
X148117386Y-78635186D01*
X148590000Y-78729195D01*
X149062614Y-78635186D01*
X149463277Y-78367472D01*
X149730991Y-77966809D01*
X149825000Y-77494195D01*
X149825000Y-77445805D01*
X149730991Y-76973191D01*
X149463277Y-76572528D01*
X149062614Y-76304814D01*
X149048261Y-76301959D01*
X149062614Y-76299104D01*
X149463277Y-76031390D01*
X149730991Y-75630727D01*
X149813846Y-75214187D01*
X159854752Y-75214187D01*
X160072757Y-75741800D01*
X160476077Y-76145824D01*
X161003309Y-76364750D01*
X161574187Y-76365248D01*
X162101800Y-76147243D01*
X162505824Y-75743923D01*
X162724750Y-75216691D01*
X162725248Y-74645813D01*
X162507243Y-74118200D01*
X162103923Y-73714176D01*
X161576691Y-73495250D01*
X161005813Y-73494752D01*
X160478200Y-73712757D01*
X160074176Y-74116077D01*
X159855250Y-74643309D01*
X159854752Y-75214187D01*
X149813846Y-75214187D01*
X149825000Y-75158113D01*
X149825000Y-74701887D01*
X149730991Y-74229273D01*
X149533887Y-73934285D01*
X154824760Y-73934285D01*
X155035169Y-74443515D01*
X155424436Y-74833461D01*
X155933298Y-75044759D01*
X156484285Y-75045240D01*
X156993515Y-74834831D01*
X157383461Y-74445564D01*
X157594759Y-73936702D01*
X157595240Y-73385715D01*
X157384831Y-72876485D01*
X156995564Y-72486539D01*
X156486702Y-72275241D01*
X155935715Y-72274760D01*
X155426485Y-72485169D01*
X155036539Y-72874436D01*
X154825241Y-73383298D01*
X154824760Y-73934285D01*
X149533887Y-73934285D01*
X149463277Y-73828610D01*
X149062614Y-73560896D01*
X148590000Y-73466887D01*
X148117386Y-73560896D01*
X147716723Y-73828610D01*
X147449009Y-74229273D01*
X147355000Y-74701887D01*
X147355000Y-74947767D01*
X147320000Y-74940805D01*
X146847386Y-75034814D01*
X146446723Y-75302528D01*
X146179009Y-75703191D01*
X146085000Y-76175805D01*
X138395000Y-76175805D01*
X138300991Y-75703191D01*
X138033277Y-75302528D01*
X137632614Y-75034814D01*
X137160000Y-74940805D01*
X137125000Y-74947767D01*
X137125000Y-74905805D01*
X137030991Y-74433191D01*
X136763277Y-74032528D01*
X136362614Y-73764814D01*
X135890000Y-73670805D01*
X135417386Y-73764814D01*
X135016723Y-74032528D01*
X134749009Y-74433191D01*
X134655000Y-74905805D01*
X123815185Y-74905805D01*
X123476691Y-74765250D01*
X122905813Y-74764752D01*
X122378200Y-74982757D01*
X121974176Y-75386077D01*
X121755250Y-75913309D01*
X121754752Y-76484187D01*
X105710000Y-76484187D01*
X105710000Y-72200159D01*
X110859446Y-72200159D01*
X110945852Y-72456643D01*
X111519336Y-72666458D01*
X111571086Y-72664285D01*
X126884760Y-72664285D01*
X127095169Y-73173515D01*
X127484436Y-73563461D01*
X127993298Y-73774759D01*
X128544285Y-73775240D01*
X129053515Y-73564831D01*
X129443461Y-73175564D01*
X129654759Y-72666702D01*
X129655240Y-72115715D01*
X129444831Y-71606485D01*
X129242886Y-71404187D01*
X159854752Y-71404187D01*
X160072757Y-71931800D01*
X160476077Y-72335824D01*
X161003309Y-72554750D01*
X161574187Y-72555248D01*
X162101800Y-72337243D01*
X162505824Y-71933923D01*
X162724750Y-71406691D01*
X162725024Y-71091887D01*
X164935000Y-71091887D01*
X164935000Y-71148113D01*
X165044233Y-71697264D01*
X165355302Y-72162811D01*
X165820849Y-72473880D01*
X166370000Y-72583113D01*
X166919151Y-72473880D01*
X167384698Y-72162811D01*
X167695767Y-71697264D01*
X167805000Y-71148113D01*
X167805000Y-71091887D01*
X167695767Y-70542736D01*
X167384698Y-70077189D01*
X166919151Y-69766120D01*
X166370000Y-69656887D01*
X165820849Y-69766120D01*
X165355302Y-70077189D01*
X165044233Y-70542736D01*
X164935000Y-71091887D01*
X162725024Y-71091887D01*
X162725248Y-70835813D01*
X162507243Y-70308200D01*
X162103923Y-69904176D01*
X161576691Y-69685250D01*
X161005813Y-69684752D01*
X160478200Y-69902757D01*
X160074176Y-70306077D01*
X159855250Y-70833309D01*
X159854752Y-71404187D01*
X129242886Y-71404187D01*
X129055564Y-71216539D01*
X128546702Y-71005241D01*
X127995715Y-71004760D01*
X127486485Y-71215169D01*
X127096539Y-71604436D01*
X126885241Y-72113298D01*
X126884760Y-72664285D01*
X111571086Y-72664285D01*
X112129460Y-72640839D01*
X112574148Y-72456643D01*
X112660554Y-72200159D01*
X112551912Y-72091517D01*
X122398088Y-72091517D01*
X122466077Y-72332460D01*
X122985171Y-72517201D01*
X123535448Y-72489230D01*
X123913923Y-72332460D01*
X123981912Y-72091517D01*
X123190000Y-71299605D01*
X122398088Y-72091517D01*
X112551912Y-72091517D01*
X111760000Y-71299605D01*
X110859446Y-72200159D01*
X105710000Y-72200159D01*
X105710000Y-67680000D01*
X110212560Y-67680000D01*
X110212560Y-69480000D01*
X110256838Y-69715317D01*
X110395910Y-69931441D01*
X110599574Y-70070598D01*
X110565282Y-70104890D01*
X110679839Y-70219447D01*
X110423357Y-70305852D01*
X110213542Y-70879336D01*
X110239161Y-71489460D01*
X110423357Y-71934148D01*
X110679841Y-72020554D01*
X111580395Y-71120000D01*
X111566253Y-71105858D01*
X111745858Y-70926253D01*
X111760000Y-70940395D01*
X111774143Y-70926253D01*
X111953748Y-71105858D01*
X111939605Y-71120000D01*
X112840159Y-72020554D01*
X113096643Y-71934148D01*
X113306458Y-71360664D01*
X113287752Y-70915171D01*
X121792799Y-70915171D01*
X121820770Y-71465448D01*
X121977540Y-71843923D01*
X122218483Y-71911912D01*
X123010395Y-71120000D01*
X123369605Y-71120000D01*
X124161517Y-71911912D01*
X124402460Y-71843923D01*
X124587201Y-71324829D01*
X124559230Y-70774552D01*
X124402460Y-70396077D01*
X124161517Y-70328088D01*
X123369605Y-71120000D01*
X123010395Y-71120000D01*
X122218483Y-70328088D01*
X121977540Y-70396077D01*
X121792799Y-70915171D01*
X113287752Y-70915171D01*
X113280839Y-70750540D01*
X113096643Y-70305852D01*
X112840161Y-70219447D01*
X112911125Y-70148483D01*
X122398088Y-70148483D01*
X123190000Y-70940395D01*
X123981912Y-70148483D01*
X123913923Y-69907540D01*
X123394829Y-69722799D01*
X122844552Y-69750770D01*
X122466077Y-69907540D01*
X122398088Y-70148483D01*
X112911125Y-70148483D01*
X112954718Y-70104890D01*
X112918240Y-70068412D01*
X113111441Y-69944090D01*
X113256431Y-69731890D01*
X113307440Y-69480000D01*
X113307440Y-68854285D01*
X126884760Y-68854285D01*
X127095169Y-69363515D01*
X127484436Y-69753461D01*
X127993298Y-69964759D01*
X128544285Y-69965240D01*
X129053515Y-69754831D01*
X129443461Y-69365564D01*
X129651650Y-68864187D01*
X133184752Y-68864187D01*
X133402757Y-69391800D01*
X133806077Y-69795824D01*
X134333309Y-70014750D01*
X134904187Y-70015248D01*
X135431800Y-69797243D01*
X135835824Y-69393923D01*
X136054750Y-68866691D01*
X136055000Y-68580000D01*
X148396887Y-68580000D01*
X148506120Y-69129151D01*
X148817189Y-69594698D01*
X149282736Y-69905767D01*
X149831887Y-70015000D01*
X149888113Y-70015000D01*
X150437264Y-69905767D01*
X150902811Y-69594698D01*
X151213880Y-69129151D01*
X151323113Y-68580000D01*
X151213880Y-68030849D01*
X151046268Y-67780000D01*
X154762560Y-67780000D01*
X154762560Y-69380000D01*
X154806838Y-69615317D01*
X154945910Y-69831441D01*
X155158110Y-69976431D01*
X155410000Y-70027440D01*
X157010000Y-70027440D01*
X157245317Y-69983162D01*
X157461441Y-69844090D01*
X157606431Y-69631890D01*
X157657440Y-69380000D01*
X157657440Y-67780000D01*
X157613162Y-67544683D01*
X157474090Y-67328559D01*
X157261890Y-67183569D01*
X157010000Y-67132560D01*
X155410000Y-67132560D01*
X155174683Y-67176838D01*
X154958559Y-67315910D01*
X154813569Y-67528110D01*
X154762560Y-67780000D01*
X151046268Y-67780000D01*
X150902811Y-67565302D01*
X150437264Y-67254233D01*
X149888113Y-67145000D01*
X149831887Y-67145000D01*
X149282736Y-67254233D01*
X148817189Y-67565302D01*
X148506120Y-68030849D01*
X148396887Y-68580000D01*
X136055000Y-68580000D01*
X136055248Y-68295813D01*
X135837243Y-67768200D01*
X135433923Y-67364176D01*
X134906691Y-67145250D01*
X134335813Y-67144752D01*
X133808200Y-67362757D01*
X133404176Y-67766077D01*
X133185250Y-68293309D01*
X133184752Y-68864187D01*
X129651650Y-68864187D01*
X129654759Y-68856702D01*
X129655240Y-68305715D01*
X129444831Y-67796485D01*
X129055564Y-67406539D01*
X128546702Y-67195241D01*
X127995715Y-67194760D01*
X127486485Y-67405169D01*
X127096539Y-67794436D01*
X126885241Y-68303298D01*
X126884760Y-68854285D01*
X113307440Y-68854285D01*
X113307440Y-67680000D01*
X113263162Y-67444683D01*
X113124090Y-67228559D01*
X112911890Y-67083569D01*
X112660000Y-67032560D01*
X110860000Y-67032560D01*
X110624683Y-67076838D01*
X110408559Y-67215910D01*
X110263569Y-67428110D01*
X110212560Y-67680000D01*
X105710000Y-67680000D01*
X105710000Y-65054187D01*
X133184752Y-65054187D01*
X133402757Y-65581800D01*
X133806077Y-65985824D01*
X134333309Y-66204750D01*
X134904187Y-66205248D01*
X135431800Y-65987243D01*
X135835824Y-65583923D01*
X136028860Y-65119039D01*
X148468096Y-65119039D01*
X148628959Y-65507423D01*
X149004866Y-65922389D01*
X149510959Y-66161914D01*
X149733000Y-66040629D01*
X149733000Y-64897000D01*
X149987000Y-64897000D01*
X149987000Y-66040629D01*
X150209041Y-66161914D01*
X150715134Y-65922389D01*
X151091041Y-65507423D01*
X151251904Y-65119039D01*
X151129915Y-64897000D01*
X149987000Y-64897000D01*
X149733000Y-64897000D01*
X148590085Y-64897000D01*
X148468096Y-65119039D01*
X136028860Y-65119039D01*
X136054750Y-65056691D01*
X136055248Y-64485813D01*
X136028452Y-64420961D01*
X148468096Y-64420961D01*
X148590085Y-64643000D01*
X149733000Y-64643000D01*
X149733000Y-63499371D01*
X149987000Y-63499371D01*
X149987000Y-64643000D01*
X151129915Y-64643000D01*
X151251904Y-64420961D01*
X151091041Y-64032577D01*
X150715134Y-63617611D01*
X150209041Y-63378086D01*
X149987000Y-63499371D01*
X149733000Y-63499371D01*
X149510959Y-63378086D01*
X149004866Y-63617611D01*
X148628959Y-64032577D01*
X148468096Y-64420961D01*
X136028452Y-64420961D01*
X135837243Y-63958200D01*
X135433923Y-63554176D01*
X134906691Y-63335250D01*
X134335813Y-63334752D01*
X133808200Y-63552757D01*
X133404176Y-63956077D01*
X133185250Y-64483309D01*
X133184752Y-65054187D01*
X105710000Y-65054187D01*
X105710000Y-63784187D01*
X126834752Y-63784187D01*
X127052757Y-64311800D01*
X127456077Y-64715824D01*
X127983309Y-64934750D01*
X128554187Y-64935248D01*
X129081800Y-64717243D01*
X129485824Y-64313923D01*
X129704750Y-63786691D01*
X129705248Y-63215813D01*
X129487243Y-62688200D01*
X129083923Y-62284176D01*
X128556691Y-62065250D01*
X127985813Y-62064752D01*
X127458200Y-62282757D01*
X127054176Y-62686077D01*
X126835250Y-63213309D01*
X126834752Y-63784187D01*
X105710000Y-63784187D01*
X105710000Y-61244187D01*
X133184752Y-61244187D01*
X133402757Y-61771800D01*
X133806077Y-62175824D01*
X134333309Y-62394750D01*
X134904187Y-62395248D01*
X135431800Y-62177243D01*
X135835824Y-61773923D01*
X136028860Y-61309039D01*
X148468096Y-61309039D01*
X148628959Y-61697423D01*
X149004866Y-62112389D01*
X149510959Y-62351914D01*
X149733000Y-62230629D01*
X149733000Y-61087000D01*
X149987000Y-61087000D01*
X149987000Y-62230629D01*
X150209041Y-62351914D01*
X150715134Y-62112389D01*
X151091041Y-61697423D01*
X151251904Y-61309039D01*
X151129915Y-61087000D01*
X149987000Y-61087000D01*
X149733000Y-61087000D01*
X148590085Y-61087000D01*
X148468096Y-61309039D01*
X136028860Y-61309039D01*
X136054750Y-61246691D01*
X136055248Y-60675813D01*
X136028452Y-60610961D01*
X148468096Y-60610961D01*
X148590085Y-60833000D01*
X149733000Y-60833000D01*
X149733000Y-59689371D01*
X149987000Y-59689371D01*
X149987000Y-60833000D01*
X151129915Y-60833000D01*
X151251904Y-60610961D01*
X151091041Y-60222577D01*
X150715134Y-59807611D01*
X150209041Y-59568086D01*
X149987000Y-59689371D01*
X149733000Y-59689371D01*
X149510959Y-59568086D01*
X149004866Y-59807611D01*
X148628959Y-60222577D01*
X148468096Y-60610961D01*
X136028452Y-60610961D01*
X135837243Y-60148200D01*
X135433923Y-59744176D01*
X134906691Y-59525250D01*
X134335813Y-59524752D01*
X133808200Y-59742757D01*
X133404176Y-60146077D01*
X133185250Y-60673309D01*
X133184752Y-61244187D01*
X105710000Y-61244187D01*
X105710000Y-59964285D01*
X126884760Y-59964285D01*
X127095169Y-60473515D01*
X127484436Y-60863461D01*
X127993298Y-61074759D01*
X128544285Y-61075240D01*
X129053515Y-60864831D01*
X129443461Y-60475564D01*
X129654759Y-59966702D01*
X129655240Y-59415715D01*
X129444831Y-58906485D01*
X129055564Y-58516539D01*
X128546702Y-58305241D01*
X127995715Y-58304760D01*
X127486485Y-58515169D01*
X127096539Y-58904436D01*
X126885241Y-59413298D01*
X126884760Y-59964285D01*
X105710000Y-59964285D01*
X105710000Y-57235880D01*
X107943725Y-57235880D01*
X108225421Y-57658564D01*
X109377892Y-58135294D01*
X110625072Y-58134705D01*
X111774579Y-57658564D01*
X111924114Y-57434187D01*
X133184752Y-57434187D01*
X133402757Y-57961800D01*
X133806077Y-58365824D01*
X134333309Y-58584750D01*
X134904187Y-58585248D01*
X135431800Y-58367243D01*
X135835824Y-57963923D01*
X136028860Y-57499039D01*
X148468096Y-57499039D01*
X148628959Y-57887423D01*
X149004866Y-58302389D01*
X149510959Y-58541914D01*
X149733000Y-58420629D01*
X149733000Y-57277000D01*
X149987000Y-57277000D01*
X149987000Y-58420629D01*
X150209041Y-58541914D01*
X150715134Y-58302389D01*
X151091041Y-57887423D01*
X151251904Y-57499039D01*
X151129915Y-57277000D01*
X149987000Y-57277000D01*
X149733000Y-57277000D01*
X148590085Y-57277000D01*
X148468096Y-57499039D01*
X136028860Y-57499039D01*
X136054750Y-57436691D01*
X136055248Y-56865813D01*
X136028452Y-56800961D01*
X148468096Y-56800961D01*
X148590085Y-57023000D01*
X149733000Y-57023000D01*
X149733000Y-55879371D01*
X149987000Y-55879371D01*
X149987000Y-57023000D01*
X151129915Y-57023000D01*
X151251904Y-56800961D01*
X151091041Y-56412577D01*
X150715134Y-55997611D01*
X150407234Y-55851887D01*
X154775000Y-55851887D01*
X154775000Y-55908113D01*
X154884233Y-56457264D01*
X155195302Y-56922811D01*
X155660849Y-57233880D01*
X156210000Y-57343113D01*
X156759151Y-57233880D01*
X157224698Y-56922811D01*
X157535767Y-56457264D01*
X157645000Y-55908113D01*
X157645000Y-55851887D01*
X159855000Y-55851887D01*
X159855000Y-55908113D01*
X159964233Y-56457264D01*
X160275302Y-56922811D01*
X160740849Y-57233880D01*
X161290000Y-57343113D01*
X161839151Y-57233880D01*
X162304698Y-56922811D01*
X162615767Y-56457264D01*
X162674063Y-56164187D01*
X164934752Y-56164187D01*
X165152757Y-56691800D01*
X165556077Y-57095824D01*
X166083309Y-57314750D01*
X166654187Y-57315248D01*
X166846272Y-57235880D01*
X172943725Y-57235880D01*
X173225421Y-57658564D01*
X174377892Y-58135294D01*
X175625072Y-58134705D01*
X176774579Y-57658564D01*
X177056275Y-57235880D01*
X175000000Y-55179605D01*
X172943725Y-57235880D01*
X166846272Y-57235880D01*
X167181800Y-57097243D01*
X167585824Y-56693923D01*
X167804750Y-56166691D01*
X167805248Y-55595813D01*
X167587243Y-55068200D01*
X167183923Y-54664176D01*
X166656691Y-54445250D01*
X166085813Y-54444752D01*
X165558200Y-54662757D01*
X165154176Y-55066077D01*
X164935250Y-55593309D01*
X164934752Y-56164187D01*
X162674063Y-56164187D01*
X162725000Y-55908113D01*
X162725000Y-55851887D01*
X162615767Y-55302736D01*
X162304698Y-54837189D01*
X161839151Y-54526120D01*
X161290000Y-54416887D01*
X160740849Y-54526120D01*
X160275302Y-54837189D01*
X159964233Y-55302736D01*
X159855000Y-55851887D01*
X157645000Y-55851887D01*
X157535767Y-55302736D01*
X157224698Y-54837189D01*
X156759151Y-54526120D01*
X156210000Y-54416887D01*
X155660849Y-54526120D01*
X155195302Y-54837189D01*
X154884233Y-55302736D01*
X154775000Y-55851887D01*
X150407234Y-55851887D01*
X150209041Y-55758086D01*
X149987000Y-55879371D01*
X149733000Y-55879371D01*
X149510959Y-55758086D01*
X149004866Y-55997611D01*
X148628959Y-56412577D01*
X148468096Y-56800961D01*
X136028452Y-56800961D01*
X135837243Y-56338200D01*
X135433923Y-55934176D01*
X134906691Y-55715250D01*
X134335813Y-55714752D01*
X133808200Y-55932757D01*
X133404176Y-56336077D01*
X133185250Y-56863309D01*
X133184752Y-57434187D01*
X111924114Y-57434187D01*
X112056275Y-57235880D01*
X110000000Y-55179605D01*
X107943725Y-57235880D01*
X105710000Y-57235880D01*
X105710000Y-54377892D01*
X106864706Y-54377892D01*
X106865295Y-55625072D01*
X107341436Y-56774579D01*
X107764120Y-57056275D01*
X109820395Y-55000000D01*
X110179605Y-55000000D01*
X112235880Y-57056275D01*
X112658564Y-56774579D01*
X113135294Y-55622108D01*
X113134951Y-54894187D01*
X126834752Y-54894187D01*
X127052757Y-55421800D01*
X127456077Y-55825824D01*
X127983309Y-56044750D01*
X128554187Y-56045248D01*
X129081800Y-55827243D01*
X129485824Y-55423923D01*
X129704750Y-54896691D01*
X129705248Y-54325813D01*
X129487243Y-53798200D01*
X129083923Y-53394176D01*
X128556691Y-53175250D01*
X127985813Y-53174752D01*
X127458200Y-53392757D01*
X127054176Y-53796077D01*
X126835250Y-54323309D01*
X126834752Y-54894187D01*
X113134951Y-54894187D01*
X113134705Y-54374928D01*
X112658564Y-53225421D01*
X112235880Y-52943725D01*
X110179605Y-55000000D01*
X109820395Y-55000000D01*
X107764120Y-52943725D01*
X107341436Y-53225421D01*
X106864706Y-54377892D01*
X105710000Y-54377892D01*
X105710000Y-52764120D01*
X107943725Y-52764120D01*
X110000000Y-54820395D01*
X112056275Y-52764120D01*
X111840267Y-52440000D01*
X138152560Y-52440000D01*
X138152560Y-54240000D01*
X138196838Y-54475317D01*
X138335910Y-54691441D01*
X138548110Y-54836431D01*
X138800000Y-54887440D01*
X140600000Y-54887440D01*
X140835317Y-54843162D01*
X141051441Y-54704090D01*
X141196431Y-54491890D01*
X141200567Y-54471466D01*
X141369357Y-54640551D01*
X141933330Y-54874733D01*
X142543991Y-54875265D01*
X143108371Y-54642068D01*
X143330668Y-54420159D01*
X143879446Y-54420159D01*
X143965852Y-54676643D01*
X144539336Y-54886458D01*
X145149460Y-54860839D01*
X145594148Y-54676643D01*
X145680554Y-54420159D01*
X145638287Y-54377892D01*
X171864706Y-54377892D01*
X171865295Y-55625072D01*
X172341436Y-56774579D01*
X172764120Y-57056275D01*
X174820395Y-55000000D01*
X175179605Y-55000000D01*
X177235880Y-57056275D01*
X177658564Y-56774579D01*
X178135294Y-55622108D01*
X178134705Y-54374928D01*
X177658564Y-53225421D01*
X177235880Y-52943725D01*
X175179605Y-55000000D01*
X174820395Y-55000000D01*
X172764120Y-52943725D01*
X172341436Y-53225421D01*
X171864706Y-54377892D01*
X145638287Y-54377892D01*
X144780000Y-53519605D01*
X143879446Y-54420159D01*
X143330668Y-54420159D01*
X143540551Y-54210643D01*
X143549203Y-54189806D01*
X143699841Y-54240554D01*
X144600395Y-53340000D01*
X144959605Y-53340000D01*
X145860159Y-54240554D01*
X146116643Y-54154148D01*
X146326458Y-53580664D01*
X146300839Y-52970540D01*
X146215337Y-52764120D01*
X172943725Y-52764120D01*
X175000000Y-54820395D01*
X177056275Y-52764120D01*
X176774579Y-52341436D01*
X175622108Y-51864706D01*
X174374928Y-51865295D01*
X173225421Y-52341436D01*
X172943725Y-52764120D01*
X146215337Y-52764120D01*
X146116643Y-52525852D01*
X145860159Y-52439446D01*
X144959605Y-53340000D01*
X144600395Y-53340000D01*
X143699841Y-52439446D01*
X143549673Y-52490035D01*
X143542068Y-52471629D01*
X143330650Y-52259841D01*
X143879446Y-52259841D01*
X144780000Y-53160395D01*
X145680554Y-52259841D01*
X145594148Y-52003357D01*
X145020664Y-51793542D01*
X144410540Y-51819161D01*
X143965852Y-52003357D01*
X143879446Y-52259841D01*
X143330650Y-52259841D01*
X143110643Y-52039449D01*
X142546670Y-51805267D01*
X141936009Y-51804735D01*
X141371629Y-52037932D01*
X141203387Y-52205880D01*
X141203162Y-52204683D01*
X141064090Y-51988559D01*
X140851890Y-51843569D01*
X140600000Y-51792560D01*
X138800000Y-51792560D01*
X138564683Y-51836838D01*
X138348559Y-51975910D01*
X138203569Y-52188110D01*
X138152560Y-52440000D01*
X111840267Y-52440000D01*
X111774579Y-52341436D01*
X110622108Y-51864706D01*
X109374928Y-51865295D01*
X108225421Y-52341436D01*
X107943725Y-52764120D01*
X105710000Y-52764120D01*
X105710000Y-50710000D01*
X179290000Y-50710000D01*
X179290000Y-99290000D01*
M02*
