M48
;DRILL file {KiCad 4.0.7} date 02/22/18 17:53:16
;FORMAT={-:-/ absolute / inch / decimal}
FMAT,2
INCH,TZ
T1C0.028
T2C0.031
T3C0.035
T4C0.039
%
G90
G05
M72
T1
X6.3Y-3.7
X6.35Y-3.75
X6.35Y-3.9
X6.35Y-4.2
X6.4Y-3.7
X6.6Y-3.6
X6.6Y-3.9
X6.95Y-3.75
X6.95Y-4.05
X7.1Y-3.75
X7.1Y-4.05
T2
X3.85Y-3.5
X3.85Y-3.8
X3.85Y-4.1
X3.85Y-4.4
X3.95Y-3.15
X3.95Y-3.5
X3.95Y-3.8
X3.95Y-4.1
X3.95Y-4.4
X4.0484Y-3.15
X4.7Y-2.4
X4.8Y-2.4
X5.1Y-2.4
X5.2Y-2.4
X5.6Y-3.3016
X5.6Y-3.4
X6.1Y-3.3016
X6.1Y-3.4
X6.35Y-4.4
X6.45Y-4.4
X6.7Y-2.4
X6.8Y-2.4
X6.95Y-4.4
X7.05Y-4.4
X7.1Y-2.4
X7.15Y-4.4
X7.2Y-2.4
X7.7Y-2.9
X7.7Y-3.2
X7.7Y-3.5
X7.7Y-3.8
X7.8Y-2.9
X7.8Y-3.2
X7.8Y-3.5
X7.8Y-3.8
X7.9Y-2.9
X7.9Y-3.2
X7.9Y-3.5
X7.9Y-3.8
X7.9Y-4.1
X7.9Y-4.4
X8.Y-4.1
X8.Y-4.4
T3
X5.4Y-3.
X5.4Y-3.4
X6.3Y-3.
X6.3Y-3.4
T4
X3.937Y-2.3622
X3.937Y-4.7244
X4.5Y-3.05
X4.5Y-3.35
X4.7Y-3.05
X4.7Y-3.35
X4.9Y-3.05
X4.9Y-3.35
X5.2Y-3.05
X5.2Y-3.35
X6.5Y-3.05
X6.5Y-3.35
X6.8Y-3.05
X6.8Y-3.35
X7.Y-3.05
X7.Y-3.35
X7.2Y-3.05
X7.2Y-3.35
X8.0709Y-2.3622
X8.0709Y-4.7244
T0
M30
