G04 #@! TF.FileFunction,Legend,Top*
%FSLAX46Y46*%
G04 Gerber Fmt 4.6, Leading zero omitted, Abs format (unit mm)*
G04 Created by KiCad (PCBNEW 4.0.7) date 02/11/18 09:34:33*
%MOMM*%
%LPD*%
G01*
G04 APERTURE LIST*
%ADD10C,0.100000*%
%ADD11C,0.300000*%
%ADD12C,0.120000*%
%ADD13C,0.150000*%
G04 APERTURE END LIST*
D10*
D11*
X165767143Y-54018571D02*
X165767143Y-52518571D01*
X166267143Y-53590000D01*
X166767143Y-52518571D01*
X166767143Y-54018571D01*
X167695715Y-54018571D02*
X167552857Y-53947143D01*
X167481429Y-53875714D01*
X167410000Y-53732857D01*
X167410000Y-53304286D01*
X167481429Y-53161429D01*
X167552857Y-53090000D01*
X167695715Y-53018571D01*
X167910000Y-53018571D01*
X168052857Y-53090000D01*
X168124286Y-53161429D01*
X168195715Y-53304286D01*
X168195715Y-53732857D01*
X168124286Y-53875714D01*
X168052857Y-53947143D01*
X167910000Y-54018571D01*
X167695715Y-54018571D01*
X169481429Y-54018571D02*
X169481429Y-52518571D01*
X169481429Y-53947143D02*
X169338572Y-54018571D01*
X169052858Y-54018571D01*
X168910000Y-53947143D01*
X168838572Y-53875714D01*
X168767143Y-53732857D01*
X168767143Y-53304286D01*
X168838572Y-53161429D01*
X168910000Y-53090000D01*
X169052858Y-53018571D01*
X169338572Y-53018571D01*
X169481429Y-53090000D01*
X172124286Y-54018571D02*
X171267143Y-54018571D01*
X171695715Y-54018571D02*
X171695715Y-52518571D01*
X171552858Y-52732857D01*
X171410000Y-52875714D01*
X171267143Y-52947143D01*
X176482858Y-54018571D02*
X176482858Y-52518571D01*
X176982858Y-53590000D01*
X177482858Y-52518571D01*
X177482858Y-54018571D01*
X178411430Y-54018571D02*
X178268572Y-53947143D01*
X178197144Y-53875714D01*
X178125715Y-53732857D01*
X178125715Y-53304286D01*
X178197144Y-53161429D01*
X178268572Y-53090000D01*
X178411430Y-53018571D01*
X178625715Y-53018571D01*
X178768572Y-53090000D01*
X178840001Y-53161429D01*
X178911430Y-53304286D01*
X178911430Y-53732857D01*
X178840001Y-53875714D01*
X178768572Y-53947143D01*
X178625715Y-54018571D01*
X178411430Y-54018571D01*
X180197144Y-54018571D02*
X180197144Y-52518571D01*
X180197144Y-53947143D02*
X180054287Y-54018571D01*
X179768573Y-54018571D01*
X179625715Y-53947143D01*
X179554287Y-53875714D01*
X179482858Y-53732857D01*
X179482858Y-53304286D01*
X179554287Y-53161429D01*
X179625715Y-53090000D01*
X179768573Y-53018571D01*
X180054287Y-53018571D01*
X180197144Y-53090000D01*
X182840001Y-54018571D02*
X181982858Y-54018571D01*
X182411430Y-54018571D02*
X182411430Y-52518571D01*
X182268573Y-52732857D01*
X182125715Y-52875714D01*
X181982858Y-52947143D01*
X183768572Y-52518571D02*
X183911429Y-52518571D01*
X184054286Y-52590000D01*
X184125715Y-52661429D01*
X184197144Y-52804286D01*
X184268572Y-53090000D01*
X184268572Y-53447143D01*
X184197144Y-53732857D01*
X184125715Y-53875714D01*
X184054286Y-53947143D01*
X183911429Y-54018571D01*
X183768572Y-54018571D01*
X183625715Y-53947143D01*
X183554286Y-53875714D01*
X183482858Y-53732857D01*
X183411429Y-53447143D01*
X183411429Y-53090000D01*
X183482858Y-52804286D01*
X183554286Y-52661429D01*
X183625715Y-52590000D01*
X183768572Y-52518571D01*
X115522858Y-54018571D02*
X115522858Y-52518571D01*
X116022858Y-53590000D01*
X116522858Y-52518571D01*
X116522858Y-54018571D01*
X117451430Y-54018571D02*
X117308572Y-53947143D01*
X117237144Y-53875714D01*
X117165715Y-53732857D01*
X117165715Y-53304286D01*
X117237144Y-53161429D01*
X117308572Y-53090000D01*
X117451430Y-53018571D01*
X117665715Y-53018571D01*
X117808572Y-53090000D01*
X117880001Y-53161429D01*
X117951430Y-53304286D01*
X117951430Y-53732857D01*
X117880001Y-53875714D01*
X117808572Y-53947143D01*
X117665715Y-54018571D01*
X117451430Y-54018571D01*
X119237144Y-54018571D02*
X119237144Y-52518571D01*
X119237144Y-53947143D02*
X119094287Y-54018571D01*
X118808573Y-54018571D01*
X118665715Y-53947143D01*
X118594287Y-53875714D01*
X118522858Y-53732857D01*
X118522858Y-53304286D01*
X118594287Y-53161429D01*
X118665715Y-53090000D01*
X118808573Y-53018571D01*
X119094287Y-53018571D01*
X119237144Y-53090000D01*
X121880001Y-54018571D02*
X121022858Y-54018571D01*
X121451430Y-54018571D02*
X121451430Y-52518571D01*
X121308573Y-52732857D01*
X121165715Y-52875714D01*
X121022858Y-52947143D01*
X122451429Y-52661429D02*
X122522858Y-52590000D01*
X122665715Y-52518571D01*
X123022858Y-52518571D01*
X123165715Y-52590000D01*
X123237144Y-52661429D01*
X123308572Y-52804286D01*
X123308572Y-52947143D01*
X123237144Y-53161429D01*
X122380001Y-54018571D01*
X123308572Y-54018571D01*
X128075714Y-53590000D02*
X128790000Y-53590000D01*
X127932857Y-54018571D02*
X128432857Y-52518571D01*
X128932857Y-54018571D01*
X129432857Y-53018571D02*
X129432857Y-54018571D01*
X129432857Y-53161429D02*
X129504285Y-53090000D01*
X129647143Y-53018571D01*
X129861428Y-53018571D01*
X130004285Y-53090000D01*
X130075714Y-53232857D01*
X130075714Y-54018571D01*
X130575714Y-53018571D02*
X131147143Y-53018571D01*
X130790000Y-52518571D02*
X130790000Y-53804286D01*
X130861428Y-53947143D01*
X131004286Y-54018571D01*
X131147143Y-54018571D01*
D12*
X179480000Y-100920000D02*
X181200000Y-100920000D01*
X181200000Y-100920000D02*
X181200000Y-97200000D01*
X181200000Y-97200000D02*
X179480000Y-97200000D01*
X179480000Y-97200000D02*
X179480000Y-100920000D01*
X180340000Y-101990000D02*
X180340000Y-100920000D01*
X180340000Y-96130000D02*
X180340000Y-97200000D01*
X103885722Y-78830277D02*
G75*
G03X99274420Y-78830000I-2305722J-1179723D01*
G01*
X103885722Y-81189723D02*
G75*
G02X99274420Y-81190000I-2305722J1179723D01*
G01*
X103885722Y-81189723D02*
G75*
G03X103885580Y-78830000I-2305722J1179723D01*
G01*
X101580000Y-77460000D02*
X101580000Y-82560000D01*
X101620000Y-77460000D02*
X101620000Y-82560000D01*
X101660000Y-77461000D02*
X101660000Y-82559000D01*
X101700000Y-77462000D02*
X101700000Y-82558000D01*
X101740000Y-77464000D02*
X101740000Y-82556000D01*
X101780000Y-77467000D02*
X101780000Y-82553000D01*
X101820000Y-77471000D02*
X101820000Y-82549000D01*
X101860000Y-77475000D02*
X101860000Y-79030000D01*
X101860000Y-80990000D02*
X101860000Y-82545000D01*
X101900000Y-77479000D02*
X101900000Y-79030000D01*
X101900000Y-80990000D02*
X101900000Y-82541000D01*
X101940000Y-77485000D02*
X101940000Y-79030000D01*
X101940000Y-80990000D02*
X101940000Y-82535000D01*
X101980000Y-77491000D02*
X101980000Y-79030000D01*
X101980000Y-80990000D02*
X101980000Y-82529000D01*
X102020000Y-77497000D02*
X102020000Y-79030000D01*
X102020000Y-80990000D02*
X102020000Y-82523000D01*
X102060000Y-77504000D02*
X102060000Y-79030000D01*
X102060000Y-80990000D02*
X102060000Y-82516000D01*
X102100000Y-77512000D02*
X102100000Y-79030000D01*
X102100000Y-80990000D02*
X102100000Y-82508000D01*
X102140000Y-77521000D02*
X102140000Y-79030000D01*
X102140000Y-80990000D02*
X102140000Y-82499000D01*
X102180000Y-77530000D02*
X102180000Y-79030000D01*
X102180000Y-80990000D02*
X102180000Y-82490000D01*
X102220000Y-77540000D02*
X102220000Y-79030000D01*
X102220000Y-80990000D02*
X102220000Y-82480000D01*
X102260000Y-77550000D02*
X102260000Y-79030000D01*
X102260000Y-80990000D02*
X102260000Y-82470000D01*
X102301000Y-77562000D02*
X102301000Y-79030000D01*
X102301000Y-80990000D02*
X102301000Y-82458000D01*
X102341000Y-77574000D02*
X102341000Y-79030000D01*
X102341000Y-80990000D02*
X102341000Y-82446000D01*
X102381000Y-77586000D02*
X102381000Y-79030000D01*
X102381000Y-80990000D02*
X102381000Y-82434000D01*
X102421000Y-77600000D02*
X102421000Y-79030000D01*
X102421000Y-80990000D02*
X102421000Y-82420000D01*
X102461000Y-77614000D02*
X102461000Y-79030000D01*
X102461000Y-80990000D02*
X102461000Y-82406000D01*
X102501000Y-77628000D02*
X102501000Y-79030000D01*
X102501000Y-80990000D02*
X102501000Y-82392000D01*
X102541000Y-77644000D02*
X102541000Y-79030000D01*
X102541000Y-80990000D02*
X102541000Y-82376000D01*
X102581000Y-77660000D02*
X102581000Y-79030000D01*
X102581000Y-80990000D02*
X102581000Y-82360000D01*
X102621000Y-77677000D02*
X102621000Y-79030000D01*
X102621000Y-80990000D02*
X102621000Y-82343000D01*
X102661000Y-77695000D02*
X102661000Y-79030000D01*
X102661000Y-80990000D02*
X102661000Y-82325000D01*
X102701000Y-77714000D02*
X102701000Y-79030000D01*
X102701000Y-80990000D02*
X102701000Y-82306000D01*
X102741000Y-77734000D02*
X102741000Y-79030000D01*
X102741000Y-80990000D02*
X102741000Y-82286000D01*
X102781000Y-77754000D02*
X102781000Y-79030000D01*
X102781000Y-80990000D02*
X102781000Y-82266000D01*
X102821000Y-77776000D02*
X102821000Y-79030000D01*
X102821000Y-80990000D02*
X102821000Y-82244000D01*
X102861000Y-77798000D02*
X102861000Y-79030000D01*
X102861000Y-80990000D02*
X102861000Y-82222000D01*
X102901000Y-77821000D02*
X102901000Y-79030000D01*
X102901000Y-80990000D02*
X102901000Y-82199000D01*
X102941000Y-77845000D02*
X102941000Y-79030000D01*
X102941000Y-80990000D02*
X102941000Y-82175000D01*
X102981000Y-77870000D02*
X102981000Y-79030000D01*
X102981000Y-80990000D02*
X102981000Y-82150000D01*
X103021000Y-77897000D02*
X103021000Y-79030000D01*
X103021000Y-80990000D02*
X103021000Y-82123000D01*
X103061000Y-77924000D02*
X103061000Y-79030000D01*
X103061000Y-80990000D02*
X103061000Y-82096000D01*
X103101000Y-77952000D02*
X103101000Y-79030000D01*
X103101000Y-80990000D02*
X103101000Y-82068000D01*
X103141000Y-77982000D02*
X103141000Y-79030000D01*
X103141000Y-80990000D02*
X103141000Y-82038000D01*
X103181000Y-78013000D02*
X103181000Y-79030000D01*
X103181000Y-80990000D02*
X103181000Y-82007000D01*
X103221000Y-78045000D02*
X103221000Y-79030000D01*
X103221000Y-80990000D02*
X103221000Y-81975000D01*
X103261000Y-78078000D02*
X103261000Y-79030000D01*
X103261000Y-80990000D02*
X103261000Y-81942000D01*
X103301000Y-78113000D02*
X103301000Y-79030000D01*
X103301000Y-80990000D02*
X103301000Y-81907000D01*
X103341000Y-78149000D02*
X103341000Y-79030000D01*
X103341000Y-80990000D02*
X103341000Y-81871000D01*
X103381000Y-78187000D02*
X103381000Y-79030000D01*
X103381000Y-80990000D02*
X103381000Y-81833000D01*
X103421000Y-78227000D02*
X103421000Y-79030000D01*
X103421000Y-80990000D02*
X103421000Y-81793000D01*
X103461000Y-78268000D02*
X103461000Y-79030000D01*
X103461000Y-80990000D02*
X103461000Y-81752000D01*
X103501000Y-78311000D02*
X103501000Y-79030000D01*
X103501000Y-80990000D02*
X103501000Y-81709000D01*
X103541000Y-78356000D02*
X103541000Y-79030000D01*
X103541000Y-80990000D02*
X103541000Y-81664000D01*
X103581000Y-78404000D02*
X103581000Y-79030000D01*
X103581000Y-80990000D02*
X103581000Y-81616000D01*
X103621000Y-78454000D02*
X103621000Y-79030000D01*
X103621000Y-80990000D02*
X103621000Y-81566000D01*
X103661000Y-78506000D02*
X103661000Y-79030000D01*
X103661000Y-80990000D02*
X103661000Y-81514000D01*
X103701000Y-78562000D02*
X103701000Y-79030000D01*
X103701000Y-80990000D02*
X103701000Y-81458000D01*
X103741000Y-78620000D02*
X103741000Y-79030000D01*
X103741000Y-80990000D02*
X103741000Y-81400000D01*
X103781000Y-78683000D02*
X103781000Y-79030000D01*
X103781000Y-80990000D02*
X103781000Y-81337000D01*
X103821000Y-78749000D02*
X103821000Y-81271000D01*
X103861000Y-78821000D02*
X103861000Y-81199000D01*
X103901000Y-78898000D02*
X103901000Y-81122000D01*
X103941000Y-78982000D02*
X103941000Y-81038000D01*
X103981000Y-79076000D02*
X103981000Y-80944000D01*
X104021000Y-79181000D02*
X104021000Y-80839000D01*
X104061000Y-79303000D02*
X104061000Y-80717000D01*
X104101000Y-79451000D02*
X104101000Y-80569000D01*
X104141000Y-79656000D02*
X104141000Y-80364000D01*
X98130000Y-80010000D02*
X99330000Y-80010000D01*
X98730000Y-79360000D02*
X98730000Y-80660000D01*
X140930000Y-87670000D02*
X140930000Y-82550000D01*
X143550000Y-87670000D02*
X143550000Y-82550000D01*
X140930000Y-87670000D02*
X143550000Y-87670000D01*
X140930000Y-82550000D02*
X143550000Y-82550000D01*
X153630000Y-87670000D02*
X153630000Y-82550000D01*
X156250000Y-87670000D02*
X156250000Y-82550000D01*
X153630000Y-87670000D02*
X156250000Y-87670000D01*
X153630000Y-82550000D02*
X156250000Y-82550000D01*
X135750000Y-83940000D02*
X138570000Y-83940000D01*
X138570000Y-83940000D02*
X138570000Y-78620000D01*
X138570000Y-78620000D02*
X135750000Y-78620000D01*
X135750000Y-78620000D02*
X135750000Y-83940000D01*
X137160000Y-85280000D02*
X137160000Y-83940000D01*
X137160000Y-77280000D02*
X137160000Y-78620000D01*
X135750000Y-83100000D02*
X138570000Y-83100000D01*
X161430000Y-78620000D02*
X158610000Y-78620000D01*
X158610000Y-78620000D02*
X158610000Y-83940000D01*
X158610000Y-83940000D02*
X161430000Y-83940000D01*
X161430000Y-83940000D02*
X161430000Y-78620000D01*
X160020000Y-77280000D02*
X160020000Y-78620000D01*
X160020000Y-85280000D02*
X160020000Y-83940000D01*
X161430000Y-79460000D02*
X158610000Y-79460000D01*
D10*
X116205000Y-83185000D02*
X114300000Y-83185000D01*
X114300000Y-83185000D02*
X114300000Y-85090000D01*
X116840000Y-82550000D02*
X117475000Y-83185000D01*
X117475000Y-83185000D02*
X119380000Y-83185000D01*
X119380000Y-83185000D02*
X119380000Y-85090000D01*
X124460000Y-85090000D02*
X124460000Y-81915000D01*
X124460000Y-81915000D02*
X116840000Y-81915000D01*
X116840000Y-81915000D02*
X116840000Y-82550000D01*
X117475000Y-79375000D02*
X116840000Y-80010000D01*
X116840000Y-80010000D02*
X116840000Y-80645000D01*
X116840000Y-80645000D02*
X124460000Y-80645000D01*
X124460000Y-80645000D02*
X124460000Y-77470000D01*
X114300000Y-77470000D02*
X114300000Y-79375000D01*
X114300000Y-79375000D02*
X116205000Y-79375000D01*
X119380000Y-77470000D02*
X119380000Y-79375000D01*
X119380000Y-79375000D02*
X117475000Y-79375000D01*
X132080000Y-79375000D02*
X132080000Y-77470000D01*
X132715000Y-83185000D02*
X131445000Y-83185000D01*
X131445000Y-83185000D02*
X131445000Y-79375000D01*
X131445000Y-79375000D02*
X132715000Y-79375000D01*
X132715000Y-79375000D02*
X132715000Y-83185000D01*
X132080000Y-85090000D02*
X132080000Y-83185000D01*
X133350000Y-86360000D02*
X113030000Y-86360000D01*
X113030000Y-86360000D02*
X113030000Y-76200000D01*
X113030000Y-76200000D02*
X133350000Y-76200000D01*
X133350000Y-76200000D02*
X133350000Y-86360000D01*
X180975000Y-79375000D02*
X182880000Y-79375000D01*
X182880000Y-79375000D02*
X182880000Y-77470000D01*
X180340000Y-80010000D02*
X179705000Y-79375000D01*
X179705000Y-79375000D02*
X177800000Y-79375000D01*
X177800000Y-79375000D02*
X177800000Y-77470000D01*
X172720000Y-77470000D02*
X172720000Y-80645000D01*
X172720000Y-80645000D02*
X180340000Y-80645000D01*
X180340000Y-80645000D02*
X180340000Y-80010000D01*
X179705000Y-83185000D02*
X180340000Y-82550000D01*
X180340000Y-82550000D02*
X180340000Y-81915000D01*
X180340000Y-81915000D02*
X172720000Y-81915000D01*
X172720000Y-81915000D02*
X172720000Y-85090000D01*
X182880000Y-85090000D02*
X182880000Y-83185000D01*
X182880000Y-83185000D02*
X180975000Y-83185000D01*
X177800000Y-85090000D02*
X177800000Y-83185000D01*
X177800000Y-83185000D02*
X179705000Y-83185000D01*
X165100000Y-83185000D02*
X165100000Y-85090000D01*
X164465000Y-79375000D02*
X165735000Y-79375000D01*
X165735000Y-79375000D02*
X165735000Y-83185000D01*
X165735000Y-83185000D02*
X164465000Y-83185000D01*
X164465000Y-83185000D02*
X164465000Y-79375000D01*
X165100000Y-77470000D02*
X165100000Y-79375000D01*
X163830000Y-76200000D02*
X184150000Y-76200000D01*
X184150000Y-76200000D02*
X184150000Y-86360000D01*
X184150000Y-86360000D02*
X163830000Y-86360000D01*
X163830000Y-86360000D02*
X163830000Y-76200000D01*
D12*
X159707669Y-91407719D02*
X158795501Y-90495552D01*
X158795501Y-90495552D02*
X157805552Y-91485501D01*
X157805552Y-91485501D02*
X158717719Y-92397669D01*
X158717850Y-92397456D02*
G75*
G03X159707669Y-91407719I2572150J-1582544D01*
G01*
X162150000Y-101010000D02*
X160430000Y-101010000D01*
X160430000Y-101010000D02*
X160430000Y-104730000D01*
X160430000Y-104730000D02*
X162150000Y-104730000D01*
X162150000Y-104730000D02*
X162150000Y-101010000D01*
X161290000Y-99940000D02*
X161290000Y-101010000D01*
X161290000Y-105800000D02*
X161290000Y-104730000D01*
X168500000Y-93390000D02*
X166780000Y-93390000D01*
X166780000Y-93390000D02*
X166780000Y-97110000D01*
X166780000Y-97110000D02*
X168500000Y-97110000D01*
X168500000Y-97110000D02*
X168500000Y-93390000D01*
X167640000Y-92320000D02*
X167640000Y-93390000D01*
X167640000Y-98180000D02*
X167640000Y-97110000D01*
X175670000Y-100920000D02*
X177390000Y-100920000D01*
X177390000Y-100920000D02*
X177390000Y-97200000D01*
X177390000Y-97200000D02*
X175670000Y-97200000D01*
X175670000Y-97200000D02*
X175670000Y-100920000D01*
X176530000Y-101990000D02*
X176530000Y-100920000D01*
X176530000Y-96130000D02*
X176530000Y-97200000D01*
D13*
X178932381Y-99226666D02*
X178456190Y-99560000D01*
X178932381Y-99798095D02*
X177932381Y-99798095D01*
X177932381Y-99417142D01*
X177980000Y-99321904D01*
X178027619Y-99274285D01*
X178122857Y-99226666D01*
X178265714Y-99226666D01*
X178360952Y-99274285D01*
X178408571Y-99321904D01*
X178456190Y-99417142D01*
X178456190Y-99798095D01*
X178265714Y-98369523D02*
X178932381Y-98369523D01*
X177884762Y-98607619D02*
X178599048Y-98845714D01*
X178599048Y-98226666D01*
X101413334Y-76557143D02*
X101365715Y-76604762D01*
X101222858Y-76652381D01*
X101127620Y-76652381D01*
X100984762Y-76604762D01*
X100889524Y-76509524D01*
X100841905Y-76414286D01*
X100794286Y-76223810D01*
X100794286Y-76080952D01*
X100841905Y-75890476D01*
X100889524Y-75795238D01*
X100984762Y-75700000D01*
X101127620Y-75652381D01*
X101222858Y-75652381D01*
X101365715Y-75700000D01*
X101413334Y-75747619D01*
X102365715Y-76652381D02*
X101794286Y-76652381D01*
X102080000Y-76652381D02*
X102080000Y-75652381D01*
X101984762Y-75795238D01*
X101889524Y-75890476D01*
X101794286Y-75938095D01*
X140037143Y-85276666D02*
X140084762Y-85324285D01*
X140132381Y-85467142D01*
X140132381Y-85562380D01*
X140084762Y-85705238D01*
X139989524Y-85800476D01*
X139894286Y-85848095D01*
X139703810Y-85895714D01*
X139560952Y-85895714D01*
X139370476Y-85848095D01*
X139275238Y-85800476D01*
X139180000Y-85705238D01*
X139132381Y-85562380D01*
X139132381Y-85467142D01*
X139180000Y-85324285D01*
X139227619Y-85276666D01*
X139227619Y-84895714D02*
X139180000Y-84848095D01*
X139132381Y-84752857D01*
X139132381Y-84514761D01*
X139180000Y-84419523D01*
X139227619Y-84371904D01*
X139322857Y-84324285D01*
X139418095Y-84324285D01*
X139560952Y-84371904D01*
X140132381Y-84943333D01*
X140132381Y-84324285D01*
X152737143Y-85276666D02*
X152784762Y-85324285D01*
X152832381Y-85467142D01*
X152832381Y-85562380D01*
X152784762Y-85705238D01*
X152689524Y-85800476D01*
X152594286Y-85848095D01*
X152403810Y-85895714D01*
X152260952Y-85895714D01*
X152070476Y-85848095D01*
X151975238Y-85800476D01*
X151880000Y-85705238D01*
X151832381Y-85562380D01*
X151832381Y-85467142D01*
X151880000Y-85324285D01*
X151927619Y-85276666D01*
X151832381Y-84943333D02*
X151832381Y-84324285D01*
X152213333Y-84657619D01*
X152213333Y-84514761D01*
X152260952Y-84419523D01*
X152308571Y-84371904D01*
X152403810Y-84324285D01*
X152641905Y-84324285D01*
X152737143Y-84371904D01*
X152784762Y-84419523D01*
X152832381Y-84514761D01*
X152832381Y-84800476D01*
X152784762Y-84895714D01*
X152737143Y-84943333D01*
X135202381Y-82018095D02*
X134202381Y-82018095D01*
X134202381Y-81780000D01*
X134250000Y-81637142D01*
X134345238Y-81541904D01*
X134440476Y-81494285D01*
X134630952Y-81446666D01*
X134773810Y-81446666D01*
X134964286Y-81494285D01*
X135059524Y-81541904D01*
X135154762Y-81637142D01*
X135202381Y-81780000D01*
X135202381Y-82018095D01*
X135202381Y-80494285D02*
X135202381Y-81065714D01*
X135202381Y-80780000D02*
X134202381Y-80780000D01*
X134345238Y-80875238D01*
X134440476Y-80970476D01*
X134488095Y-81065714D01*
X162882381Y-82018095D02*
X161882381Y-82018095D01*
X161882381Y-81780000D01*
X161930000Y-81637142D01*
X162025238Y-81541904D01*
X162120476Y-81494285D01*
X162310952Y-81446666D01*
X162453810Y-81446666D01*
X162644286Y-81494285D01*
X162739524Y-81541904D01*
X162834762Y-81637142D01*
X162882381Y-81780000D01*
X162882381Y-82018095D01*
X161977619Y-81065714D02*
X161930000Y-81018095D01*
X161882381Y-80922857D01*
X161882381Y-80684761D01*
X161930000Y-80589523D01*
X161977619Y-80541904D01*
X162072857Y-80494285D01*
X162168095Y-80494285D01*
X162310952Y-80541904D01*
X162882381Y-81113333D01*
X162882381Y-80494285D01*
X129992381Y-79478095D02*
X128992381Y-79478095D01*
X129992381Y-78906666D02*
X129420952Y-79335238D01*
X128992381Y-78906666D02*
X129563810Y-79478095D01*
X129992381Y-77954285D02*
X129992381Y-78525714D01*
X129992381Y-78240000D02*
X128992381Y-78240000D01*
X129135238Y-78335238D01*
X129230476Y-78430476D01*
X129278095Y-78525714D01*
X168092381Y-84558095D02*
X167092381Y-84558095D01*
X168092381Y-83986666D02*
X167520952Y-84415238D01*
X167092381Y-83986666D02*
X167663810Y-84558095D01*
X167187619Y-83605714D02*
X167140000Y-83558095D01*
X167092381Y-83462857D01*
X167092381Y-83224761D01*
X167140000Y-83129523D01*
X167187619Y-83081904D01*
X167282857Y-83034285D01*
X167378095Y-83034285D01*
X167520952Y-83081904D01*
X168092381Y-83653333D01*
X168092381Y-83034285D01*
X161194762Y-90507619D02*
X161099524Y-90460000D01*
X161004286Y-90364762D01*
X160861429Y-90221905D01*
X160766190Y-90174286D01*
X160670952Y-90174286D01*
X160718571Y-90412381D02*
X160623333Y-90364762D01*
X160528095Y-90269524D01*
X160480476Y-90079048D01*
X160480476Y-89745714D01*
X160528095Y-89555238D01*
X160623333Y-89460000D01*
X160718571Y-89412381D01*
X160909048Y-89412381D01*
X161004286Y-89460000D01*
X161099524Y-89555238D01*
X161147143Y-89745714D01*
X161147143Y-90079048D01*
X161099524Y-90269524D01*
X161004286Y-90364762D01*
X160909048Y-90412381D01*
X160718571Y-90412381D01*
X162099524Y-90412381D02*
X161528095Y-90412381D01*
X161813809Y-90412381D02*
X161813809Y-89412381D01*
X161718571Y-89555238D01*
X161623333Y-89650476D01*
X161528095Y-89698095D01*
X163602381Y-103036666D02*
X163126190Y-103370000D01*
X163602381Y-103608095D02*
X162602381Y-103608095D01*
X162602381Y-103227142D01*
X162650000Y-103131904D01*
X162697619Y-103084285D01*
X162792857Y-103036666D01*
X162935714Y-103036666D01*
X163030952Y-103084285D01*
X163078571Y-103131904D01*
X163126190Y-103227142D01*
X163126190Y-103608095D01*
X163602381Y-102084285D02*
X163602381Y-102655714D01*
X163602381Y-102370000D02*
X162602381Y-102370000D01*
X162745238Y-102465238D01*
X162840476Y-102560476D01*
X162888095Y-102655714D01*
X169952381Y-95416666D02*
X169476190Y-95750000D01*
X169952381Y-95988095D02*
X168952381Y-95988095D01*
X168952381Y-95607142D01*
X169000000Y-95511904D01*
X169047619Y-95464285D01*
X169142857Y-95416666D01*
X169285714Y-95416666D01*
X169380952Y-95464285D01*
X169428571Y-95511904D01*
X169476190Y-95607142D01*
X169476190Y-95988095D01*
X169047619Y-95035714D02*
X169000000Y-94988095D01*
X168952381Y-94892857D01*
X168952381Y-94654761D01*
X169000000Y-94559523D01*
X169047619Y-94511904D01*
X169142857Y-94464285D01*
X169238095Y-94464285D01*
X169380952Y-94511904D01*
X169952381Y-95083333D01*
X169952381Y-94464285D01*
X175122381Y-99226666D02*
X174646190Y-99560000D01*
X175122381Y-99798095D02*
X174122381Y-99798095D01*
X174122381Y-99417142D01*
X174170000Y-99321904D01*
X174217619Y-99274285D01*
X174312857Y-99226666D01*
X174455714Y-99226666D01*
X174550952Y-99274285D01*
X174598571Y-99321904D01*
X174646190Y-99417142D01*
X174646190Y-99798095D01*
X174122381Y-98893333D02*
X174122381Y-98274285D01*
X174503333Y-98607619D01*
X174503333Y-98464761D01*
X174550952Y-98369523D01*
X174598571Y-98321904D01*
X174693810Y-98274285D01*
X174931905Y-98274285D01*
X175027143Y-98321904D01*
X175074762Y-98369523D01*
X175122381Y-98464761D01*
X175122381Y-98750476D01*
X175074762Y-98845714D01*
X175027143Y-98893333D01*
M02*
