%FSLAX45Y45*%
G04 Gerber Fmt 4.5, Leading zero omitted, Abs format (unit mm)*
G04 Created by KiCad (PCBNEW 4.0.7) date 02/11/18 09:34:28*
%MOMM*%
%LPD*%
G01*
G04 APERTURE LIST*
%ADD10C,0.127000*%
%ADD11C,0.150000*%
%ADD12C,0.200000*%
%ADD13C,0.300000*%
G04 APERTURE END LIST*
D10*
D11*
X21336000Y-5080000D02*
X9144000Y-5080000D01*
X21336000Y-12700000D02*
X21336000Y-5080000D01*
X9144000Y-12700000D02*
X21336000Y-12700000D01*
X9144000Y-5080000D02*
X9144000Y-12700000D01*
D12*
X15967000Y-9363000D02*
X16037000Y-9433000D01*
X16037000Y-9363000D02*
X15967000Y-9433000D01*
X16094000Y-9490000D02*
X16164000Y-9560000D01*
X16164000Y-9490000D02*
X16094000Y-9560000D01*
X16094000Y-9871000D02*
X16164000Y-9941000D01*
X16164000Y-9871000D02*
X16094000Y-9941000D01*
X16094000Y-10633000D02*
X16164000Y-10703000D01*
X16164000Y-10633000D02*
X16094000Y-10703000D01*
X16221000Y-9363000D02*
X16291000Y-9433000D01*
X16291000Y-9363000D02*
X16221000Y-9433000D01*
X16729000Y-9109000D02*
X16799000Y-9179000D01*
X16799000Y-9109000D02*
X16729000Y-9179000D01*
X16729000Y-9871000D02*
X16799000Y-9941000D01*
X16799000Y-9871000D02*
X16729000Y-9941000D01*
X17618000Y-9490000D02*
X17688000Y-9560000D01*
X17688000Y-9490000D02*
X17618000Y-9560000D01*
X17618000Y-10252000D02*
X17688000Y-10322000D01*
X17688000Y-10252000D02*
X17618000Y-10322000D01*
X17999000Y-9490000D02*
X18069000Y-9560000D01*
X18069000Y-9490000D02*
X17999000Y-9560000D01*
X17999000Y-10252000D02*
X18069000Y-10322000D01*
X18069000Y-10252000D02*
X17999000Y-10322000D01*
X9819000Y-8890000D02*
G75*
G03X9819000Y-8890000I-40000J0D01*
G01*
X9819000Y-9652000D02*
G75*
G03X9819000Y-9652000I-40000J0D01*
G01*
X9819000Y-10414000D02*
G75*
G03X9819000Y-10414000I-40000J0D01*
G01*
X9819000Y-11176000D02*
G75*
G03X9819000Y-11176000I-40000J0D01*
G01*
X10073000Y-8001000D02*
G75*
G03X10073000Y-8001000I-40000J0D01*
G01*
X10073000Y-8890000D02*
G75*
G03X10073000Y-8890000I-40000J0D01*
G01*
X10073000Y-9652000D02*
G75*
G03X10073000Y-9652000I-40000J0D01*
G01*
X10073000Y-10414000D02*
G75*
G03X10073000Y-10414000I-40000J0D01*
G01*
X10073000Y-11176000D02*
G75*
G03X10073000Y-11176000I-40000J0D01*
G01*
X10323000Y-8001000D02*
G75*
G03X10323000Y-8001000I-40000J0D01*
G01*
X11978000Y-6096000D02*
G75*
G03X11978000Y-6096000I-40000J0D01*
G01*
X12232000Y-6096000D02*
G75*
G03X12232000Y-6096000I-40000J0D01*
G01*
X12994000Y-6096000D02*
G75*
G03X12994000Y-6096000I-40000J0D01*
G01*
X13248000Y-6096000D02*
G75*
G03X13248000Y-6096000I-40000J0D01*
G01*
X14264000Y-8386000D02*
G75*
G03X14264000Y-8386000I-40000J0D01*
G01*
X14264000Y-8636000D02*
G75*
G03X14264000Y-8636000I-40000J0D01*
G01*
X15534000Y-8386000D02*
G75*
G03X15534000Y-8386000I-40000J0D01*
G01*
X15534000Y-8636000D02*
G75*
G03X15534000Y-8636000I-40000J0D01*
G01*
X16169000Y-11176000D02*
G75*
G03X16169000Y-11176000I-40000J0D01*
G01*
X16423000Y-11176000D02*
G75*
G03X16423000Y-11176000I-40000J0D01*
G01*
X17058000Y-6096000D02*
G75*
G03X17058000Y-6096000I-40000J0D01*
G01*
X17312000Y-6096000D02*
G75*
G03X17312000Y-6096000I-40000J0D01*
G01*
X17693000Y-11176000D02*
G75*
G03X17693000Y-11176000I-40000J0D01*
G01*
X17947000Y-11176000D02*
G75*
G03X17947000Y-11176000I-40000J0D01*
G01*
X18074000Y-6096000D02*
G75*
G03X18074000Y-6096000I-40000J0D01*
G01*
X18201000Y-11176000D02*
G75*
G03X18201000Y-11176000I-40000J0D01*
G01*
X18328000Y-6096000D02*
G75*
G03X18328000Y-6096000I-40000J0D01*
G01*
X19598000Y-7366000D02*
G75*
G03X19598000Y-7366000I-40000J0D01*
G01*
X19598000Y-8128000D02*
G75*
G03X19598000Y-8128000I-40000J0D01*
G01*
X19598000Y-8890000D02*
G75*
G03X19598000Y-8890000I-40000J0D01*
G01*
X19598000Y-9652000D02*
G75*
G03X19598000Y-9652000I-40000J0D01*
G01*
X19852000Y-7366000D02*
G75*
G03X19852000Y-7366000I-40000J0D01*
G01*
X19852000Y-8128000D02*
G75*
G03X19852000Y-8128000I-40000J0D01*
G01*
X19852000Y-8890000D02*
G75*
G03X19852000Y-8890000I-40000J0D01*
G01*
X19852000Y-9652000D02*
G75*
G03X19852000Y-9652000I-40000J0D01*
G01*
X20106000Y-7366000D02*
G75*
G03X20106000Y-7366000I-40000J0D01*
G01*
X20106000Y-8128000D02*
G75*
G03X20106000Y-8128000I-40000J0D01*
G01*
X20106000Y-8890000D02*
G75*
G03X20106000Y-8890000I-40000J0D01*
G01*
X20106000Y-9652000D02*
G75*
G03X20106000Y-9652000I-40000J0D01*
G01*
X20106000Y-10414000D02*
G75*
G03X20106000Y-10414000I-40000J0D01*
G01*
X20106000Y-11176000D02*
G75*
G03X20106000Y-11176000I-40000J0D01*
G01*
X20360000Y-10414000D02*
G75*
G03X20360000Y-10414000I-40000J0D01*
G01*
X20360000Y-11176000D02*
G75*
G03X20360000Y-11176000I-40000J0D01*
G01*
X13716000Y-7575000D02*
X13716000Y-7665000D01*
X13671000Y-7620000D02*
X13761000Y-7620000D01*
X13716000Y-8591000D02*
X13716000Y-8681000D01*
X13671000Y-8636000D02*
X13761000Y-8636000D01*
X16002000Y-7575000D02*
X16002000Y-7665000D01*
X15957000Y-7620000D02*
X16047000Y-7620000D01*
X16002000Y-8591000D02*
X16002000Y-8681000D01*
X15957000Y-8636000D02*
X16047000Y-8636000D01*
X10035356Y-6035356D02*
X10035356Y-5964644D01*
X9964644Y-5964644D01*
X9964644Y-6035356D01*
X10035356Y-6035356D01*
X10035356Y-12035356D02*
X10035356Y-11964644D01*
X9964644Y-11964644D01*
X9964644Y-12035356D01*
X10035356Y-12035356D01*
X11465356Y-7782356D02*
X11465356Y-7711644D01*
X11394644Y-7711644D01*
X11394644Y-7782356D01*
X11465356Y-7782356D01*
X11465356Y-8544356D02*
X11465356Y-8473644D01*
X11394644Y-8473644D01*
X11394644Y-8544356D01*
X11465356Y-8544356D01*
X11973356Y-7782356D02*
X11973356Y-7711644D01*
X11902644Y-7711644D01*
X11902644Y-7782356D01*
X11973356Y-7782356D01*
X11973356Y-8544356D02*
X11973356Y-8473644D01*
X11902644Y-8473644D01*
X11902644Y-8544356D01*
X11973356Y-8544356D01*
X12481356Y-7782356D02*
X12481356Y-7711644D01*
X12410644Y-7711644D01*
X12410644Y-7782356D01*
X12481356Y-7782356D01*
X12481356Y-8544356D02*
X12481356Y-8473644D01*
X12410644Y-8473644D01*
X12410644Y-8544356D01*
X12481356Y-8544356D01*
X13243356Y-7782356D02*
X13243356Y-7711644D01*
X13172644Y-7711644D01*
X13172644Y-7782356D01*
X13243356Y-7782356D01*
X13243356Y-8544356D02*
X13243356Y-8473644D01*
X13172644Y-8473644D01*
X13172644Y-8544356D01*
X13243356Y-8544356D01*
X16545356Y-7782356D02*
X16545356Y-7711644D01*
X16474644Y-7711644D01*
X16474644Y-7782356D01*
X16545356Y-7782356D01*
X16545356Y-8544356D02*
X16545356Y-8473644D01*
X16474644Y-8473644D01*
X16474644Y-8544356D01*
X16545356Y-8544356D01*
X17307356Y-7782356D02*
X17307356Y-7711644D01*
X17236644Y-7711644D01*
X17236644Y-7782356D01*
X17307356Y-7782356D01*
X17307356Y-8544356D02*
X17307356Y-8473644D01*
X17236644Y-8473644D01*
X17236644Y-8544356D01*
X17307356Y-8544356D01*
X17815356Y-7782356D02*
X17815356Y-7711644D01*
X17744644Y-7711644D01*
X17744644Y-7782356D01*
X17815356Y-7782356D01*
X17815356Y-8544356D02*
X17815356Y-8473644D01*
X17744644Y-8473644D01*
X17744644Y-8544356D01*
X17815356Y-8544356D01*
X18323356Y-7782356D02*
X18323356Y-7711644D01*
X18252644Y-7711644D01*
X18252644Y-7782356D01*
X18323356Y-7782356D01*
X18323356Y-8544356D02*
X18323356Y-8473644D01*
X18252644Y-8473644D01*
X18252644Y-8544356D01*
X18323356Y-8544356D01*
X20535356Y-6035356D02*
X20535356Y-5964644D01*
X20464644Y-5964644D01*
X20464644Y-6035356D01*
X20535356Y-6035356D01*
X20535356Y-12035356D02*
X20535356Y-11964644D01*
X20464644Y-11964644D01*
X20464644Y-12035356D01*
X20535356Y-12035356D01*
D13*
X9407929Y-13173214D02*
X9407929Y-12873214D01*
X9479357Y-12873214D01*
X9522214Y-12887500D01*
X9550786Y-12916071D01*
X9565071Y-12944643D01*
X9579357Y-13001786D01*
X9579357Y-13044643D01*
X9565071Y-13101786D01*
X9550786Y-13130357D01*
X9522214Y-13158929D01*
X9479357Y-13173214D01*
X9407929Y-13173214D01*
X9707929Y-13173214D02*
X9707929Y-12973214D01*
X9707929Y-13030357D02*
X9722214Y-13001786D01*
X9736500Y-12987500D01*
X9765071Y-12973214D01*
X9793643Y-12973214D01*
X9893643Y-13173214D02*
X9893643Y-12973214D01*
X9893643Y-12873214D02*
X9879357Y-12887500D01*
X9893643Y-12901786D01*
X9907929Y-12887500D01*
X9893643Y-12873214D01*
X9893643Y-12901786D01*
X10079357Y-13173214D02*
X10050786Y-13158929D01*
X10036500Y-13130357D01*
X10036500Y-12873214D01*
X10236500Y-13173214D02*
X10207929Y-13158929D01*
X10193643Y-13130357D01*
X10193643Y-12873214D01*
X10579357Y-13173214D02*
X10579357Y-12873214D01*
X10679357Y-13087500D01*
X10779357Y-12873214D01*
X10779357Y-13173214D01*
X11050786Y-13173214D02*
X11050786Y-13016071D01*
X11036500Y-12987500D01*
X11007929Y-12973214D01*
X10950786Y-12973214D01*
X10922214Y-12987500D01*
X11050786Y-13158929D02*
X11022214Y-13173214D01*
X10950786Y-13173214D01*
X10922214Y-13158929D01*
X10907929Y-13130357D01*
X10907929Y-13101786D01*
X10922214Y-13073214D01*
X10950786Y-13058929D01*
X11022214Y-13058929D01*
X11050786Y-13044643D01*
X11193643Y-12973214D02*
X11193643Y-13273214D01*
X11193643Y-12987500D02*
X11222214Y-12973214D01*
X11279357Y-12973214D01*
X11307928Y-12987500D01*
X11322214Y-13001786D01*
X11336500Y-13030357D01*
X11336500Y-13116071D01*
X11322214Y-13144643D01*
X11307928Y-13158929D01*
X11279357Y-13173214D01*
X11222214Y-13173214D01*
X11193643Y-13158929D01*
X11465071Y-13144643D02*
X11479357Y-13158929D01*
X11465071Y-13173214D01*
X11450786Y-13158929D01*
X11465071Y-13144643D01*
X11465071Y-13173214D01*
X11465071Y-12987500D02*
X11479357Y-13001786D01*
X11465071Y-13016071D01*
X11450786Y-13001786D01*
X11465071Y-12987500D01*
X11465071Y-13016071D01*
X9066500Y-13632500D02*
X9136500Y-13702500D01*
X9136500Y-13632500D02*
X9066500Y-13702500D01*
X9465071Y-13503214D02*
X9493643Y-13503214D01*
X9522214Y-13517500D01*
X9536500Y-13531786D01*
X9550786Y-13560357D01*
X9565071Y-13617500D01*
X9565071Y-13688929D01*
X9550786Y-13746071D01*
X9536500Y-13774643D01*
X9522214Y-13788929D01*
X9493643Y-13803214D01*
X9465071Y-13803214D01*
X9436500Y-13788929D01*
X9422214Y-13774643D01*
X9407929Y-13746071D01*
X9393643Y-13688929D01*
X9393643Y-13617500D01*
X9407929Y-13560357D01*
X9422214Y-13531786D01*
X9436500Y-13517500D01*
X9465071Y-13503214D01*
X9693643Y-13774643D02*
X9707929Y-13788929D01*
X9693643Y-13803214D01*
X9679357Y-13788929D01*
X9693643Y-13774643D01*
X9693643Y-13803214D01*
X9807928Y-13503214D02*
X10007928Y-13503214D01*
X9879357Y-13803214D01*
X10179357Y-13503214D02*
X10207929Y-13503214D01*
X10236500Y-13517500D01*
X10250786Y-13531786D01*
X10265071Y-13560357D01*
X10279357Y-13617500D01*
X10279357Y-13688929D01*
X10265071Y-13746071D01*
X10250786Y-13774643D01*
X10236500Y-13788929D01*
X10207929Y-13803214D01*
X10179357Y-13803214D01*
X10150786Y-13788929D01*
X10136500Y-13774643D01*
X10122214Y-13746071D01*
X10107929Y-13688929D01*
X10107929Y-13617500D01*
X10122214Y-13560357D01*
X10136500Y-13531786D01*
X10150786Y-13517500D01*
X10179357Y-13503214D01*
X10407929Y-13803214D02*
X10407929Y-13603214D01*
X10407929Y-13631786D02*
X10422214Y-13617500D01*
X10450786Y-13603214D01*
X10493643Y-13603214D01*
X10522214Y-13617500D01*
X10536500Y-13646071D01*
X10536500Y-13803214D01*
X10536500Y-13646071D02*
X10550786Y-13617500D01*
X10579357Y-13603214D01*
X10622214Y-13603214D01*
X10650786Y-13617500D01*
X10665071Y-13646071D01*
X10665071Y-13803214D01*
X10807929Y-13803214D02*
X10807929Y-13603214D01*
X10807929Y-13631786D02*
X10822214Y-13617500D01*
X10850786Y-13603214D01*
X10893643Y-13603214D01*
X10922214Y-13617500D01*
X10936500Y-13646071D01*
X10936500Y-13803214D01*
X10936500Y-13646071D02*
X10950786Y-13617500D01*
X10979357Y-13603214D01*
X11022214Y-13603214D01*
X11050786Y-13617500D01*
X11065071Y-13646071D01*
X11065071Y-13803214D01*
X11650786Y-13488929D02*
X11393643Y-13874643D01*
X12036500Y-13503214D02*
X12065071Y-13503214D01*
X12093643Y-13517500D01*
X12107928Y-13531786D01*
X12122214Y-13560357D01*
X12136500Y-13617500D01*
X12136500Y-13688929D01*
X12122214Y-13746071D01*
X12107928Y-13774643D01*
X12093643Y-13788929D01*
X12065071Y-13803214D01*
X12036500Y-13803214D01*
X12007928Y-13788929D01*
X11993643Y-13774643D01*
X11979357Y-13746071D01*
X11965071Y-13688929D01*
X11965071Y-13617500D01*
X11979357Y-13560357D01*
X11993643Y-13531786D01*
X12007928Y-13517500D01*
X12036500Y-13503214D01*
X12265071Y-13774643D02*
X12279357Y-13788929D01*
X12265071Y-13803214D01*
X12250786Y-13788929D01*
X12265071Y-13774643D01*
X12265071Y-13803214D01*
X12465071Y-13503214D02*
X12493643Y-13503214D01*
X12522214Y-13517500D01*
X12536500Y-13531786D01*
X12550785Y-13560357D01*
X12565071Y-13617500D01*
X12565071Y-13688929D01*
X12550785Y-13746071D01*
X12536500Y-13774643D01*
X12522214Y-13788929D01*
X12493643Y-13803214D01*
X12465071Y-13803214D01*
X12436500Y-13788929D01*
X12422214Y-13774643D01*
X12407928Y-13746071D01*
X12393643Y-13688929D01*
X12393643Y-13617500D01*
X12407928Y-13560357D01*
X12422214Y-13531786D01*
X12436500Y-13517500D01*
X12465071Y-13503214D01*
X12679357Y-13531786D02*
X12693643Y-13517500D01*
X12722214Y-13503214D01*
X12793643Y-13503214D01*
X12822214Y-13517500D01*
X12836500Y-13531786D01*
X12850785Y-13560357D01*
X12850785Y-13588929D01*
X12836500Y-13631786D01*
X12665071Y-13803214D01*
X12850785Y-13803214D01*
X13022214Y-13631786D02*
X12993643Y-13617500D01*
X12979357Y-13603214D01*
X12965071Y-13574643D01*
X12965071Y-13560357D01*
X12979357Y-13531786D01*
X12993643Y-13517500D01*
X13022214Y-13503214D01*
X13079357Y-13503214D01*
X13107928Y-13517500D01*
X13122214Y-13531786D01*
X13136500Y-13560357D01*
X13136500Y-13574643D01*
X13122214Y-13603214D01*
X13107928Y-13617500D01*
X13079357Y-13631786D01*
X13022214Y-13631786D01*
X12993643Y-13646071D01*
X12979357Y-13660357D01*
X12965071Y-13688929D01*
X12965071Y-13746071D01*
X12979357Y-13774643D01*
X12993643Y-13788929D01*
X13022214Y-13803214D01*
X13079357Y-13803214D01*
X13107928Y-13788929D01*
X13122214Y-13774643D01*
X13136500Y-13746071D01*
X13136500Y-13688929D01*
X13122214Y-13660357D01*
X13107928Y-13646071D01*
X13079357Y-13631786D01*
X13250786Y-13503214D02*
X13250786Y-13560357D01*
X13365071Y-13503214D02*
X13365071Y-13560357D01*
X13807928Y-13917500D02*
X13793643Y-13903214D01*
X13765071Y-13860357D01*
X13750785Y-13831786D01*
X13736500Y-13788929D01*
X13722214Y-13717500D01*
X13722214Y-13660357D01*
X13736500Y-13588929D01*
X13750785Y-13546071D01*
X13765071Y-13517500D01*
X13793643Y-13474643D01*
X13807928Y-13460357D01*
X14079357Y-13803214D02*
X13907928Y-13803214D01*
X13993643Y-13803214D02*
X13993643Y-13503214D01*
X13965071Y-13546071D01*
X13936500Y-13574643D01*
X13907928Y-13588929D01*
X14365071Y-13803214D02*
X14193643Y-13803214D01*
X14279357Y-13803214D02*
X14279357Y-13503214D01*
X14250785Y-13546071D01*
X14222214Y-13574643D01*
X14193643Y-13588929D01*
X14722214Y-13803214D02*
X14722214Y-13503214D01*
X14850785Y-13803214D02*
X14850785Y-13646071D01*
X14836500Y-13617500D01*
X14807928Y-13603214D01*
X14765071Y-13603214D01*
X14736500Y-13617500D01*
X14722214Y-13631786D01*
X15036500Y-13803214D02*
X15007928Y-13788929D01*
X14993643Y-13774643D01*
X14979357Y-13746071D01*
X14979357Y-13660357D01*
X14993643Y-13631786D01*
X15007928Y-13617500D01*
X15036500Y-13603214D01*
X15079357Y-13603214D01*
X15107928Y-13617500D01*
X15122214Y-13631786D01*
X15136500Y-13660357D01*
X15136500Y-13746071D01*
X15122214Y-13774643D01*
X15107928Y-13788929D01*
X15079357Y-13803214D01*
X15036500Y-13803214D01*
X15307928Y-13803214D02*
X15279357Y-13788929D01*
X15265071Y-13760357D01*
X15265071Y-13503214D01*
X15536500Y-13788929D02*
X15507928Y-13803214D01*
X15450786Y-13803214D01*
X15422214Y-13788929D01*
X15407928Y-13760357D01*
X15407928Y-13646071D01*
X15422214Y-13617500D01*
X15450786Y-13603214D01*
X15507928Y-13603214D01*
X15536500Y-13617500D01*
X15550786Y-13646071D01*
X15550786Y-13674643D01*
X15407928Y-13703214D01*
X15665071Y-13788929D02*
X15693643Y-13803214D01*
X15750786Y-13803214D01*
X15779357Y-13788929D01*
X15793643Y-13760357D01*
X15793643Y-13746071D01*
X15779357Y-13717500D01*
X15750786Y-13703214D01*
X15707928Y-13703214D01*
X15679357Y-13688929D01*
X15665071Y-13660357D01*
X15665071Y-13646071D01*
X15679357Y-13617500D01*
X15707928Y-13603214D01*
X15750786Y-13603214D01*
X15779357Y-13617500D01*
X15893643Y-13917500D02*
X15907928Y-13903214D01*
X15936500Y-13860357D01*
X15950786Y-13831786D01*
X15965071Y-13788929D01*
X15979357Y-13717500D01*
X15979357Y-13660357D01*
X15965071Y-13588929D01*
X15950786Y-13546071D01*
X15936500Y-13517500D01*
X15907928Y-13474643D01*
X15893643Y-13460357D01*
X9136500Y-14063500D02*
G75*
G03X9136500Y-14063500I-40000J0D01*
G01*
X9465071Y-13899214D02*
X9493643Y-13899214D01*
X9522214Y-13913500D01*
X9536500Y-13927786D01*
X9550786Y-13956357D01*
X9565071Y-14013500D01*
X9565071Y-14084929D01*
X9550786Y-14142071D01*
X9536500Y-14170643D01*
X9522214Y-14184929D01*
X9493643Y-14199214D01*
X9465071Y-14199214D01*
X9436500Y-14184929D01*
X9422214Y-14170643D01*
X9407929Y-14142071D01*
X9393643Y-14084929D01*
X9393643Y-14013500D01*
X9407929Y-13956357D01*
X9422214Y-13927786D01*
X9436500Y-13913500D01*
X9465071Y-13899214D01*
X9693643Y-14170643D02*
X9707929Y-14184929D01*
X9693643Y-14199214D01*
X9679357Y-14184929D01*
X9693643Y-14170643D01*
X9693643Y-14199214D01*
X9879357Y-14027786D02*
X9850786Y-14013500D01*
X9836500Y-13999214D01*
X9822214Y-13970643D01*
X9822214Y-13956357D01*
X9836500Y-13927786D01*
X9850786Y-13913500D01*
X9879357Y-13899214D01*
X9936500Y-13899214D01*
X9965071Y-13913500D01*
X9979357Y-13927786D01*
X9993643Y-13956357D01*
X9993643Y-13970643D01*
X9979357Y-13999214D01*
X9965071Y-14013500D01*
X9936500Y-14027786D01*
X9879357Y-14027786D01*
X9850786Y-14042071D01*
X9836500Y-14056357D01*
X9822214Y-14084929D01*
X9822214Y-14142071D01*
X9836500Y-14170643D01*
X9850786Y-14184929D01*
X9879357Y-14199214D01*
X9936500Y-14199214D01*
X9965071Y-14184929D01*
X9979357Y-14170643D01*
X9993643Y-14142071D01*
X9993643Y-14084929D01*
X9979357Y-14056357D01*
X9965071Y-14042071D01*
X9936500Y-14027786D01*
X10179357Y-13899214D02*
X10207929Y-13899214D01*
X10236500Y-13913500D01*
X10250786Y-13927786D01*
X10265071Y-13956357D01*
X10279357Y-14013500D01*
X10279357Y-14084929D01*
X10265071Y-14142071D01*
X10250786Y-14170643D01*
X10236500Y-14184929D01*
X10207929Y-14199214D01*
X10179357Y-14199214D01*
X10150786Y-14184929D01*
X10136500Y-14170643D01*
X10122214Y-14142071D01*
X10107929Y-14084929D01*
X10107929Y-14013500D01*
X10122214Y-13956357D01*
X10136500Y-13927786D01*
X10150786Y-13913500D01*
X10179357Y-13899214D01*
X10407929Y-14199214D02*
X10407929Y-13999214D01*
X10407929Y-14027786D02*
X10422214Y-14013500D01*
X10450786Y-13999214D01*
X10493643Y-13999214D01*
X10522214Y-14013500D01*
X10536500Y-14042071D01*
X10536500Y-14199214D01*
X10536500Y-14042071D02*
X10550786Y-14013500D01*
X10579357Y-13999214D01*
X10622214Y-13999214D01*
X10650786Y-14013500D01*
X10665071Y-14042071D01*
X10665071Y-14199214D01*
X10807929Y-14199214D02*
X10807929Y-13999214D01*
X10807929Y-14027786D02*
X10822214Y-14013500D01*
X10850786Y-13999214D01*
X10893643Y-13999214D01*
X10922214Y-14013500D01*
X10936500Y-14042071D01*
X10936500Y-14199214D01*
X10936500Y-14042071D02*
X10950786Y-14013500D01*
X10979357Y-13999214D01*
X11022214Y-13999214D01*
X11050786Y-14013500D01*
X11065071Y-14042071D01*
X11065071Y-14199214D01*
X11650786Y-13884929D02*
X11393643Y-14270643D01*
X12036500Y-13899214D02*
X12065071Y-13899214D01*
X12093643Y-13913500D01*
X12107928Y-13927786D01*
X12122214Y-13956357D01*
X12136500Y-14013500D01*
X12136500Y-14084929D01*
X12122214Y-14142071D01*
X12107928Y-14170643D01*
X12093643Y-14184929D01*
X12065071Y-14199214D01*
X12036500Y-14199214D01*
X12007928Y-14184929D01*
X11993643Y-14170643D01*
X11979357Y-14142071D01*
X11965071Y-14084929D01*
X11965071Y-14013500D01*
X11979357Y-13956357D01*
X11993643Y-13927786D01*
X12007928Y-13913500D01*
X12036500Y-13899214D01*
X12265071Y-14170643D02*
X12279357Y-14184929D01*
X12265071Y-14199214D01*
X12250786Y-14184929D01*
X12265071Y-14170643D01*
X12265071Y-14199214D01*
X12465071Y-13899214D02*
X12493643Y-13899214D01*
X12522214Y-13913500D01*
X12536500Y-13927786D01*
X12550785Y-13956357D01*
X12565071Y-14013500D01*
X12565071Y-14084929D01*
X12550785Y-14142071D01*
X12536500Y-14170643D01*
X12522214Y-14184929D01*
X12493643Y-14199214D01*
X12465071Y-14199214D01*
X12436500Y-14184929D01*
X12422214Y-14170643D01*
X12407928Y-14142071D01*
X12393643Y-14084929D01*
X12393643Y-14013500D01*
X12407928Y-13956357D01*
X12422214Y-13927786D01*
X12436500Y-13913500D01*
X12465071Y-13899214D01*
X12665071Y-13899214D02*
X12850785Y-13899214D01*
X12750785Y-14013500D01*
X12793643Y-14013500D01*
X12822214Y-14027786D01*
X12836500Y-14042071D01*
X12850785Y-14070643D01*
X12850785Y-14142071D01*
X12836500Y-14170643D01*
X12822214Y-14184929D01*
X12793643Y-14199214D01*
X12707928Y-14199214D01*
X12679357Y-14184929D01*
X12665071Y-14170643D01*
X13136500Y-14199214D02*
X12965071Y-14199214D01*
X13050785Y-14199214D02*
X13050785Y-13899214D01*
X13022214Y-13942071D01*
X12993643Y-13970643D01*
X12965071Y-13984929D01*
X13250786Y-13899214D02*
X13250786Y-13956357D01*
X13365071Y-13899214D02*
X13365071Y-13956357D01*
X13807928Y-14313500D02*
X13793643Y-14299214D01*
X13765071Y-14256357D01*
X13750785Y-14227786D01*
X13736500Y-14184929D01*
X13722214Y-14113500D01*
X13722214Y-14056357D01*
X13736500Y-13984929D01*
X13750785Y-13942071D01*
X13765071Y-13913500D01*
X13793643Y-13870643D01*
X13807928Y-13856357D01*
X14050785Y-13999214D02*
X14050785Y-14199214D01*
X13979357Y-13884929D02*
X13907928Y-14099214D01*
X14093643Y-14099214D01*
X14179357Y-13899214D02*
X14365071Y-13899214D01*
X14265071Y-14013500D01*
X14307928Y-14013500D01*
X14336500Y-14027786D01*
X14350785Y-14042071D01*
X14365071Y-14070643D01*
X14365071Y-14142071D01*
X14350785Y-14170643D01*
X14336500Y-14184929D01*
X14307928Y-14199214D01*
X14222214Y-14199214D01*
X14193643Y-14184929D01*
X14179357Y-14170643D01*
X14722214Y-14199214D02*
X14722214Y-13899214D01*
X14850785Y-14199214D02*
X14850785Y-14042071D01*
X14836500Y-14013500D01*
X14807928Y-13999214D01*
X14765071Y-13999214D01*
X14736500Y-14013500D01*
X14722214Y-14027786D01*
X15036500Y-14199214D02*
X15007928Y-14184929D01*
X14993643Y-14170643D01*
X14979357Y-14142071D01*
X14979357Y-14056357D01*
X14993643Y-14027786D01*
X15007928Y-14013500D01*
X15036500Y-13999214D01*
X15079357Y-13999214D01*
X15107928Y-14013500D01*
X15122214Y-14027786D01*
X15136500Y-14056357D01*
X15136500Y-14142071D01*
X15122214Y-14170643D01*
X15107928Y-14184929D01*
X15079357Y-14199214D01*
X15036500Y-14199214D01*
X15307928Y-14199214D02*
X15279357Y-14184929D01*
X15265071Y-14156357D01*
X15265071Y-13899214D01*
X15536500Y-14184929D02*
X15507928Y-14199214D01*
X15450786Y-14199214D01*
X15422214Y-14184929D01*
X15407928Y-14156357D01*
X15407928Y-14042071D01*
X15422214Y-14013500D01*
X15450786Y-13999214D01*
X15507928Y-13999214D01*
X15536500Y-14013500D01*
X15550786Y-14042071D01*
X15550786Y-14070643D01*
X15407928Y-14099214D01*
X15665071Y-14184929D02*
X15693643Y-14199214D01*
X15750786Y-14199214D01*
X15779357Y-14184929D01*
X15793643Y-14156357D01*
X15793643Y-14142071D01*
X15779357Y-14113500D01*
X15750786Y-14099214D01*
X15707928Y-14099214D01*
X15679357Y-14084929D01*
X15665071Y-14056357D01*
X15665071Y-14042071D01*
X15679357Y-14013500D01*
X15707928Y-13999214D01*
X15750786Y-13999214D01*
X15779357Y-14013500D01*
X15893643Y-14313500D02*
X15907928Y-14299214D01*
X15936500Y-14256357D01*
X15950786Y-14227786D01*
X15965071Y-14184929D01*
X15979357Y-14113500D01*
X15979357Y-14056357D01*
X15965071Y-13984929D01*
X15950786Y-13942071D01*
X15936500Y-13913500D01*
X15907928Y-13870643D01*
X15893643Y-13856357D01*
X9091500Y-14414500D02*
X9091500Y-14504500D01*
X9046500Y-14459500D02*
X9136500Y-14459500D01*
X9465071Y-14295214D02*
X9493643Y-14295214D01*
X9522214Y-14309500D01*
X9536500Y-14323786D01*
X9550786Y-14352357D01*
X9565071Y-14409500D01*
X9565071Y-14480929D01*
X9550786Y-14538071D01*
X9536500Y-14566643D01*
X9522214Y-14580929D01*
X9493643Y-14595214D01*
X9465071Y-14595214D01*
X9436500Y-14580929D01*
X9422214Y-14566643D01*
X9407929Y-14538071D01*
X9393643Y-14480929D01*
X9393643Y-14409500D01*
X9407929Y-14352357D01*
X9422214Y-14323786D01*
X9436500Y-14309500D01*
X9465071Y-14295214D01*
X9693643Y-14566643D02*
X9707929Y-14580929D01*
X9693643Y-14595214D01*
X9679357Y-14580929D01*
X9693643Y-14566643D01*
X9693643Y-14595214D01*
X9850786Y-14595214D02*
X9907928Y-14595214D01*
X9936500Y-14580929D01*
X9950786Y-14566643D01*
X9979357Y-14523786D01*
X9993643Y-14466643D01*
X9993643Y-14352357D01*
X9979357Y-14323786D01*
X9965071Y-14309500D01*
X9936500Y-14295214D01*
X9879357Y-14295214D01*
X9850786Y-14309500D01*
X9836500Y-14323786D01*
X9822214Y-14352357D01*
X9822214Y-14423786D01*
X9836500Y-14452357D01*
X9850786Y-14466643D01*
X9879357Y-14480929D01*
X9936500Y-14480929D01*
X9965071Y-14466643D01*
X9979357Y-14452357D01*
X9993643Y-14423786D01*
X10179357Y-14295214D02*
X10207929Y-14295214D01*
X10236500Y-14309500D01*
X10250786Y-14323786D01*
X10265071Y-14352357D01*
X10279357Y-14409500D01*
X10279357Y-14480929D01*
X10265071Y-14538071D01*
X10250786Y-14566643D01*
X10236500Y-14580929D01*
X10207929Y-14595214D01*
X10179357Y-14595214D01*
X10150786Y-14580929D01*
X10136500Y-14566643D01*
X10122214Y-14538071D01*
X10107929Y-14480929D01*
X10107929Y-14409500D01*
X10122214Y-14352357D01*
X10136500Y-14323786D01*
X10150786Y-14309500D01*
X10179357Y-14295214D01*
X10407929Y-14595214D02*
X10407929Y-14395214D01*
X10407929Y-14423786D02*
X10422214Y-14409500D01*
X10450786Y-14395214D01*
X10493643Y-14395214D01*
X10522214Y-14409500D01*
X10536500Y-14438071D01*
X10536500Y-14595214D01*
X10536500Y-14438071D02*
X10550786Y-14409500D01*
X10579357Y-14395214D01*
X10622214Y-14395214D01*
X10650786Y-14409500D01*
X10665071Y-14438071D01*
X10665071Y-14595214D01*
X10807929Y-14595214D02*
X10807929Y-14395214D01*
X10807929Y-14423786D02*
X10822214Y-14409500D01*
X10850786Y-14395214D01*
X10893643Y-14395214D01*
X10922214Y-14409500D01*
X10936500Y-14438071D01*
X10936500Y-14595214D01*
X10936500Y-14438071D02*
X10950786Y-14409500D01*
X10979357Y-14395214D01*
X11022214Y-14395214D01*
X11050786Y-14409500D01*
X11065071Y-14438071D01*
X11065071Y-14595214D01*
X11650786Y-14280929D02*
X11393643Y-14666643D01*
X12036500Y-14295214D02*
X12065071Y-14295214D01*
X12093643Y-14309500D01*
X12107928Y-14323786D01*
X12122214Y-14352357D01*
X12136500Y-14409500D01*
X12136500Y-14480929D01*
X12122214Y-14538071D01*
X12107928Y-14566643D01*
X12093643Y-14580929D01*
X12065071Y-14595214D01*
X12036500Y-14595214D01*
X12007928Y-14580929D01*
X11993643Y-14566643D01*
X11979357Y-14538071D01*
X11965071Y-14480929D01*
X11965071Y-14409500D01*
X11979357Y-14352357D01*
X11993643Y-14323786D01*
X12007928Y-14309500D01*
X12036500Y-14295214D01*
X12265071Y-14566643D02*
X12279357Y-14580929D01*
X12265071Y-14595214D01*
X12250786Y-14580929D01*
X12265071Y-14566643D01*
X12265071Y-14595214D01*
X12465071Y-14295214D02*
X12493643Y-14295214D01*
X12522214Y-14309500D01*
X12536500Y-14323786D01*
X12550785Y-14352357D01*
X12565071Y-14409500D01*
X12565071Y-14480929D01*
X12550785Y-14538071D01*
X12536500Y-14566643D01*
X12522214Y-14580929D01*
X12493643Y-14595214D01*
X12465071Y-14595214D01*
X12436500Y-14580929D01*
X12422214Y-14566643D01*
X12407928Y-14538071D01*
X12393643Y-14480929D01*
X12393643Y-14409500D01*
X12407928Y-14352357D01*
X12422214Y-14323786D01*
X12436500Y-14309500D01*
X12465071Y-14295214D01*
X12665071Y-14295214D02*
X12850785Y-14295214D01*
X12750785Y-14409500D01*
X12793643Y-14409500D01*
X12822214Y-14423786D01*
X12836500Y-14438071D01*
X12850785Y-14466643D01*
X12850785Y-14538071D01*
X12836500Y-14566643D01*
X12822214Y-14580929D01*
X12793643Y-14595214D01*
X12707928Y-14595214D01*
X12679357Y-14580929D01*
X12665071Y-14566643D01*
X13122214Y-14295214D02*
X12979357Y-14295214D01*
X12965071Y-14438071D01*
X12979357Y-14423786D01*
X13007928Y-14409500D01*
X13079357Y-14409500D01*
X13107928Y-14423786D01*
X13122214Y-14438071D01*
X13136500Y-14466643D01*
X13136500Y-14538071D01*
X13122214Y-14566643D01*
X13107928Y-14580929D01*
X13079357Y-14595214D01*
X13007928Y-14595214D01*
X12979357Y-14580929D01*
X12965071Y-14566643D01*
X13250786Y-14295214D02*
X13250786Y-14352357D01*
X13365071Y-14295214D02*
X13365071Y-14352357D01*
X13807928Y-14709500D02*
X13793643Y-14695214D01*
X13765071Y-14652357D01*
X13750785Y-14623786D01*
X13736500Y-14580929D01*
X13722214Y-14509500D01*
X13722214Y-14452357D01*
X13736500Y-14380929D01*
X13750785Y-14338071D01*
X13765071Y-14309500D01*
X13793643Y-14266643D01*
X13807928Y-14252357D01*
X14050785Y-14395214D02*
X14050785Y-14595214D01*
X13979357Y-14280929D02*
X13907928Y-14495214D01*
X14093643Y-14495214D01*
X14436500Y-14595214D02*
X14436500Y-14295214D01*
X14565071Y-14595214D02*
X14565071Y-14438071D01*
X14550785Y-14409500D01*
X14522214Y-14395214D01*
X14479357Y-14395214D01*
X14450785Y-14409500D01*
X14436500Y-14423786D01*
X14750785Y-14595214D02*
X14722214Y-14580929D01*
X14707928Y-14566643D01*
X14693643Y-14538071D01*
X14693643Y-14452357D01*
X14707928Y-14423786D01*
X14722214Y-14409500D01*
X14750785Y-14395214D01*
X14793643Y-14395214D01*
X14822214Y-14409500D01*
X14836500Y-14423786D01*
X14850785Y-14452357D01*
X14850785Y-14538071D01*
X14836500Y-14566643D01*
X14822214Y-14580929D01*
X14793643Y-14595214D01*
X14750785Y-14595214D01*
X15022214Y-14595214D02*
X14993643Y-14580929D01*
X14979357Y-14552357D01*
X14979357Y-14295214D01*
X15250786Y-14580929D02*
X15222214Y-14595214D01*
X15165071Y-14595214D01*
X15136500Y-14580929D01*
X15122214Y-14552357D01*
X15122214Y-14438071D01*
X15136500Y-14409500D01*
X15165071Y-14395214D01*
X15222214Y-14395214D01*
X15250786Y-14409500D01*
X15265071Y-14438071D01*
X15265071Y-14466643D01*
X15122214Y-14495214D01*
X15379357Y-14580929D02*
X15407928Y-14595214D01*
X15465071Y-14595214D01*
X15493643Y-14580929D01*
X15507928Y-14552357D01*
X15507928Y-14538071D01*
X15493643Y-14509500D01*
X15465071Y-14495214D01*
X15422214Y-14495214D01*
X15393643Y-14480929D01*
X15379357Y-14452357D01*
X15379357Y-14438071D01*
X15393643Y-14409500D01*
X15422214Y-14395214D01*
X15465071Y-14395214D01*
X15493643Y-14409500D01*
X15607928Y-14709500D02*
X15622214Y-14695214D01*
X15650786Y-14652357D01*
X15665071Y-14623786D01*
X15679357Y-14580929D01*
X15693643Y-14509500D01*
X15693643Y-14452357D01*
X15679357Y-14380929D01*
X15665071Y-14338071D01*
X15650786Y-14309500D01*
X15622214Y-14266643D01*
X15607928Y-14252357D01*
X9121856Y-14890856D02*
X9121856Y-14820144D01*
X9051144Y-14820144D01*
X9051144Y-14890856D01*
X9121856Y-14890856D01*
X9565071Y-14991214D02*
X9393643Y-14991214D01*
X9479357Y-14991214D02*
X9479357Y-14691214D01*
X9450786Y-14734071D01*
X9422214Y-14762643D01*
X9393643Y-14776929D01*
X9693643Y-14962643D02*
X9707929Y-14976929D01*
X9693643Y-14991214D01*
X9679357Y-14976929D01*
X9693643Y-14962643D01*
X9693643Y-14991214D01*
X9893643Y-14691214D02*
X9922214Y-14691214D01*
X9950786Y-14705500D01*
X9965071Y-14719786D01*
X9979357Y-14748357D01*
X9993643Y-14805500D01*
X9993643Y-14876929D01*
X9979357Y-14934071D01*
X9965071Y-14962643D01*
X9950786Y-14976929D01*
X9922214Y-14991214D01*
X9893643Y-14991214D01*
X9865071Y-14976929D01*
X9850786Y-14962643D01*
X9836500Y-14934071D01*
X9822214Y-14876929D01*
X9822214Y-14805500D01*
X9836500Y-14748357D01*
X9850786Y-14719786D01*
X9865071Y-14705500D01*
X9893643Y-14691214D01*
X10179357Y-14691214D02*
X10207929Y-14691214D01*
X10236500Y-14705500D01*
X10250786Y-14719786D01*
X10265071Y-14748357D01*
X10279357Y-14805500D01*
X10279357Y-14876929D01*
X10265071Y-14934071D01*
X10250786Y-14962643D01*
X10236500Y-14976929D01*
X10207929Y-14991214D01*
X10179357Y-14991214D01*
X10150786Y-14976929D01*
X10136500Y-14962643D01*
X10122214Y-14934071D01*
X10107929Y-14876929D01*
X10107929Y-14805500D01*
X10122214Y-14748357D01*
X10136500Y-14719786D01*
X10150786Y-14705500D01*
X10179357Y-14691214D01*
X10407929Y-14991214D02*
X10407929Y-14791214D01*
X10407929Y-14819786D02*
X10422214Y-14805500D01*
X10450786Y-14791214D01*
X10493643Y-14791214D01*
X10522214Y-14805500D01*
X10536500Y-14834071D01*
X10536500Y-14991214D01*
X10536500Y-14834071D02*
X10550786Y-14805500D01*
X10579357Y-14791214D01*
X10622214Y-14791214D01*
X10650786Y-14805500D01*
X10665071Y-14834071D01*
X10665071Y-14991214D01*
X10807929Y-14991214D02*
X10807929Y-14791214D01*
X10807929Y-14819786D02*
X10822214Y-14805500D01*
X10850786Y-14791214D01*
X10893643Y-14791214D01*
X10922214Y-14805500D01*
X10936500Y-14834071D01*
X10936500Y-14991214D01*
X10936500Y-14834071D02*
X10950786Y-14805500D01*
X10979357Y-14791214D01*
X11022214Y-14791214D01*
X11050786Y-14805500D01*
X11065071Y-14834071D01*
X11065071Y-14991214D01*
X11650786Y-14676929D02*
X11393643Y-15062643D01*
X12036500Y-14691214D02*
X12065071Y-14691214D01*
X12093643Y-14705500D01*
X12107928Y-14719786D01*
X12122214Y-14748357D01*
X12136500Y-14805500D01*
X12136500Y-14876929D01*
X12122214Y-14934071D01*
X12107928Y-14962643D01*
X12093643Y-14976929D01*
X12065071Y-14991214D01*
X12036500Y-14991214D01*
X12007928Y-14976929D01*
X11993643Y-14962643D01*
X11979357Y-14934071D01*
X11965071Y-14876929D01*
X11965071Y-14805500D01*
X11979357Y-14748357D01*
X11993643Y-14719786D01*
X12007928Y-14705500D01*
X12036500Y-14691214D01*
X12265071Y-14962643D02*
X12279357Y-14976929D01*
X12265071Y-14991214D01*
X12250786Y-14976929D01*
X12265071Y-14962643D01*
X12265071Y-14991214D01*
X12465071Y-14691214D02*
X12493643Y-14691214D01*
X12522214Y-14705500D01*
X12536500Y-14719786D01*
X12550785Y-14748357D01*
X12565071Y-14805500D01*
X12565071Y-14876929D01*
X12550785Y-14934071D01*
X12536500Y-14962643D01*
X12522214Y-14976929D01*
X12493643Y-14991214D01*
X12465071Y-14991214D01*
X12436500Y-14976929D01*
X12422214Y-14962643D01*
X12407928Y-14934071D01*
X12393643Y-14876929D01*
X12393643Y-14805500D01*
X12407928Y-14748357D01*
X12422214Y-14719786D01*
X12436500Y-14705500D01*
X12465071Y-14691214D01*
X12665071Y-14691214D02*
X12850785Y-14691214D01*
X12750785Y-14805500D01*
X12793643Y-14805500D01*
X12822214Y-14819786D01*
X12836500Y-14834071D01*
X12850785Y-14862643D01*
X12850785Y-14934071D01*
X12836500Y-14962643D01*
X12822214Y-14976929D01*
X12793643Y-14991214D01*
X12707928Y-14991214D01*
X12679357Y-14976929D01*
X12665071Y-14962643D01*
X12993643Y-14991214D02*
X13050785Y-14991214D01*
X13079357Y-14976929D01*
X13093643Y-14962643D01*
X13122214Y-14919786D01*
X13136500Y-14862643D01*
X13136500Y-14748357D01*
X13122214Y-14719786D01*
X13107928Y-14705500D01*
X13079357Y-14691214D01*
X13022214Y-14691214D01*
X12993643Y-14705500D01*
X12979357Y-14719786D01*
X12965071Y-14748357D01*
X12965071Y-14819786D01*
X12979357Y-14848357D01*
X12993643Y-14862643D01*
X13022214Y-14876929D01*
X13079357Y-14876929D01*
X13107928Y-14862643D01*
X13122214Y-14848357D01*
X13136500Y-14819786D01*
X13250786Y-14691214D02*
X13250786Y-14748357D01*
X13365071Y-14691214D02*
X13365071Y-14748357D01*
X13807928Y-15105500D02*
X13793643Y-15091214D01*
X13765071Y-15048357D01*
X13750785Y-15019786D01*
X13736500Y-14976929D01*
X13722214Y-14905500D01*
X13722214Y-14848357D01*
X13736500Y-14776929D01*
X13750785Y-14734071D01*
X13765071Y-14705500D01*
X13793643Y-14662643D01*
X13807928Y-14648357D01*
X13907928Y-14719786D02*
X13922214Y-14705500D01*
X13950785Y-14691214D01*
X14022214Y-14691214D01*
X14050785Y-14705500D01*
X14065071Y-14719786D01*
X14079357Y-14748357D01*
X14079357Y-14776929D01*
X14065071Y-14819786D01*
X13893643Y-14991214D01*
X14079357Y-14991214D01*
X14265071Y-14691214D02*
X14293643Y-14691214D01*
X14322214Y-14705500D01*
X14336500Y-14719786D01*
X14350785Y-14748357D01*
X14365071Y-14805500D01*
X14365071Y-14876929D01*
X14350785Y-14934071D01*
X14336500Y-14962643D01*
X14322214Y-14976929D01*
X14293643Y-14991214D01*
X14265071Y-14991214D01*
X14236500Y-14976929D01*
X14222214Y-14962643D01*
X14207928Y-14934071D01*
X14193643Y-14876929D01*
X14193643Y-14805500D01*
X14207928Y-14748357D01*
X14222214Y-14719786D01*
X14236500Y-14705500D01*
X14265071Y-14691214D01*
X14722214Y-14991214D02*
X14722214Y-14691214D01*
X14850785Y-14991214D02*
X14850785Y-14834071D01*
X14836500Y-14805500D01*
X14807928Y-14791214D01*
X14765071Y-14791214D01*
X14736500Y-14805500D01*
X14722214Y-14819786D01*
X15036500Y-14991214D02*
X15007928Y-14976929D01*
X14993643Y-14962643D01*
X14979357Y-14934071D01*
X14979357Y-14848357D01*
X14993643Y-14819786D01*
X15007928Y-14805500D01*
X15036500Y-14791214D01*
X15079357Y-14791214D01*
X15107928Y-14805500D01*
X15122214Y-14819786D01*
X15136500Y-14848357D01*
X15136500Y-14934071D01*
X15122214Y-14962643D01*
X15107928Y-14976929D01*
X15079357Y-14991214D01*
X15036500Y-14991214D01*
X15307928Y-14991214D02*
X15279357Y-14976929D01*
X15265071Y-14948357D01*
X15265071Y-14691214D01*
X15536500Y-14976929D02*
X15507928Y-14991214D01*
X15450786Y-14991214D01*
X15422214Y-14976929D01*
X15407928Y-14948357D01*
X15407928Y-14834071D01*
X15422214Y-14805500D01*
X15450786Y-14791214D01*
X15507928Y-14791214D01*
X15536500Y-14805500D01*
X15550786Y-14834071D01*
X15550786Y-14862643D01*
X15407928Y-14891214D01*
X15665071Y-14976929D02*
X15693643Y-14991214D01*
X15750786Y-14991214D01*
X15779357Y-14976929D01*
X15793643Y-14948357D01*
X15793643Y-14934071D01*
X15779357Y-14905500D01*
X15750786Y-14891214D01*
X15707928Y-14891214D01*
X15679357Y-14876929D01*
X15665071Y-14848357D01*
X15665071Y-14834071D01*
X15679357Y-14805500D01*
X15707928Y-14791214D01*
X15750786Y-14791214D01*
X15779357Y-14805500D01*
X15893643Y-15105500D02*
X15907928Y-15091214D01*
X15936500Y-15048357D01*
X15950786Y-15019786D01*
X15965071Y-14976929D01*
X15979357Y-14905500D01*
X15979357Y-14848357D01*
X15965071Y-14776929D01*
X15950786Y-14734071D01*
X15936500Y-14705500D01*
X15907928Y-14662643D01*
X15893643Y-14648357D01*
M02*
