G04 #@! TF.FileFunction,Copper,L2,Bot,Signal*
%FSLAX46Y46*%
G04 Gerber Fmt 4.6, Leading zero omitted, Abs format (unit mm)*
G04 Created by KiCad (PCBNEW 4.0.7) date 03/01/18 19:36:18*
%MOMM*%
%LPD*%
G01*
G04 APERTURE LIST*
%ADD10C,0.100000*%
%ADD11C,1.400000*%
%ADD12O,1.400000X1.400000*%
%ADD13R,1.600000X1.600000*%
%ADD14C,1.600000*%
%ADD15R,1.800000X1.800000*%
%ADD16O,1.800000X1.800000*%
%ADD17R,2.000000X2.000000*%
%ADD18C,2.000000*%
%ADD19O,1.600000X1.200000*%
%ADD20O,1.200000X1.200000*%
%ADD21C,1.800000*%
%ADD22C,3.000000*%
%ADD23C,1.000000*%
%ADD24C,2.000000*%
%ADD25C,0.254000*%
G04 APERTURE END LIST*
D10*
D11*
X180340000Y-102870000D03*
D12*
X180340000Y-95250000D03*
D13*
X100330000Y-80010000D03*
D14*
X102830000Y-80010000D03*
X142240000Y-86360000D03*
X142240000Y-83860000D03*
X154940000Y-86360000D03*
X154940000Y-83860000D03*
D15*
X137160000Y-86360000D03*
D16*
X137160000Y-76200000D03*
D15*
X160020000Y-76200000D03*
D16*
X160020000Y-86360000D03*
D17*
X132080000Y-77470000D03*
D18*
X132080000Y-85090000D03*
X124460000Y-77470000D03*
X124460000Y-85090000D03*
X119380000Y-77470000D03*
X119380000Y-85090000D03*
X114300000Y-85090000D03*
X114300000Y-77470000D03*
D17*
X165100000Y-85090000D03*
D18*
X165100000Y-77470000D03*
X172720000Y-85090000D03*
X172720000Y-77470000D03*
X177800000Y-85090000D03*
X177800000Y-77470000D03*
X182880000Y-77470000D03*
X182880000Y-85090000D03*
D19*
X160020000Y-93980000D03*
D20*
X161290000Y-95250000D03*
X162560000Y-93980000D03*
D11*
X161290000Y-99060000D03*
D12*
X161290000Y-106680000D03*
D11*
X167640000Y-91440000D03*
D12*
X167640000Y-99060000D03*
D11*
X176530000Y-102870000D03*
D12*
X176530000Y-95250000D03*
D15*
X161290000Y-111760000D03*
D21*
X163830000Y-111760000D03*
D15*
X97790000Y-111760000D03*
D21*
X100330000Y-111760000D03*
D15*
X132080000Y-60960000D03*
D21*
X129540000Y-60960000D03*
D15*
X195580000Y-96520000D03*
D21*
X198120000Y-96520000D03*
X200660000Y-96520000D03*
D15*
X195580000Y-88900000D03*
D21*
X198120000Y-88900000D03*
X200660000Y-88900000D03*
D15*
X195580000Y-81280000D03*
D21*
X198120000Y-81280000D03*
X200660000Y-81280000D03*
D15*
X121920000Y-60960000D03*
D21*
X119380000Y-60960000D03*
D15*
X195580000Y-73660000D03*
D21*
X198120000Y-73660000D03*
X200660000Y-73660000D03*
D15*
X97790000Y-104140000D03*
D21*
X100330000Y-104140000D03*
D15*
X200660000Y-104140000D03*
D21*
X203200000Y-104140000D03*
D15*
X182880000Y-60960000D03*
D21*
X180340000Y-60960000D03*
D15*
X172720000Y-60960000D03*
D21*
X170180000Y-60960000D03*
D15*
X200660000Y-111760000D03*
D21*
X203200000Y-111760000D03*
D15*
X97790000Y-88900000D03*
D21*
X100330000Y-88900000D03*
D15*
X97790000Y-96520000D03*
D21*
X100330000Y-96520000D03*
D15*
X176530000Y-111760000D03*
D21*
X179070000Y-111760000D03*
X181610000Y-111760000D03*
D22*
X100000000Y-60000000D03*
X205000000Y-60000000D03*
X205000000Y-120000000D03*
X100000000Y-120000000D03*
D23*
X154940000Y-83860000D02*
X149900000Y-83860000D01*
X100330000Y-77470000D02*
X100330000Y-80010000D01*
X102870000Y-74930000D02*
X100330000Y-77470000D01*
X106680000Y-74930000D02*
X102870000Y-74930000D01*
X109220000Y-77470000D02*
X106680000Y-74930000D01*
X109220000Y-87630000D02*
X109220000Y-77470000D01*
X111760000Y-90170000D02*
X109220000Y-87630000D01*
X125730000Y-90170000D02*
X111760000Y-90170000D01*
X128270000Y-87630000D02*
X125730000Y-90170000D01*
X128270000Y-83820000D02*
X128270000Y-87630000D01*
X130810000Y-81280000D02*
X128270000Y-83820000D01*
X147320000Y-81280000D02*
X130810000Y-81280000D01*
X149900000Y-83860000D02*
X147320000Y-81280000D01*
X165100000Y-77470000D02*
X172720000Y-85090000D01*
X154940000Y-83860000D02*
X157440000Y-83860000D01*
X160020000Y-81280000D02*
X160020000Y-76200000D01*
X157440000Y-83860000D02*
X160020000Y-81280000D01*
X160020000Y-76200000D02*
X163830000Y-76200000D01*
X163830000Y-76200000D02*
X165100000Y-77470000D01*
X97790000Y-104140000D02*
X97790000Y-111760000D01*
X97790000Y-96520000D02*
X97790000Y-104140000D01*
X97790000Y-88900000D02*
X97790000Y-96520000D01*
X100330000Y-80010000D02*
X100330000Y-82550000D01*
X100330000Y-82550000D02*
X97790000Y-85090000D01*
X97790000Y-85090000D02*
X97790000Y-88900000D01*
X200660000Y-81280000D02*
X200660000Y-73660000D01*
X200660000Y-81280000D02*
X200660000Y-88900000D01*
X200660000Y-88900000D02*
X200660000Y-96520000D01*
X142240000Y-86360000D02*
X158750000Y-102870000D01*
X173990000Y-99060000D02*
X170180000Y-102870000D01*
X170180000Y-102870000D02*
X158750000Y-102870000D01*
X173990000Y-99060000D02*
X176530000Y-99060000D01*
X176530000Y-95250000D02*
X176530000Y-99060000D01*
X182880000Y-87630000D02*
X182880000Y-85090000D01*
X176530000Y-99060000D02*
X182880000Y-99060000D01*
X182880000Y-99060000D02*
X185420000Y-96520000D01*
X185420000Y-96520000D02*
X185420000Y-90170000D01*
X185420000Y-90170000D02*
X182880000Y-87630000D01*
X132080000Y-85090000D02*
X133350000Y-86360000D01*
X133350000Y-86360000D02*
X137160000Y-86360000D01*
X142240000Y-86360000D02*
X137160000Y-86360000D01*
X200660000Y-111760000D02*
X200660000Y-104140000D01*
X195580000Y-96520000D02*
X195580000Y-101600000D01*
X198120000Y-104140000D02*
X200660000Y-104140000D01*
X195580000Y-101600000D02*
X198120000Y-104140000D01*
X182880000Y-85090000D02*
X195580000Y-85090000D01*
X195580000Y-88900000D02*
X195580000Y-96520000D01*
X195580000Y-81280000D02*
X195580000Y-85090000D01*
X195580000Y-85090000D02*
X195580000Y-88900000D01*
X195580000Y-73660000D02*
X195580000Y-81280000D01*
X161290000Y-106680000D02*
X161290000Y-111760000D01*
D24*
X124460000Y-77470000D02*
X124460000Y-73660000D01*
X132080000Y-66040000D02*
X132080000Y-60960000D01*
X124460000Y-73660000D02*
X132080000Y-66040000D01*
D23*
X180340000Y-95250000D02*
X180340000Y-91440000D01*
X177800000Y-88900000D02*
X177800000Y-85090000D01*
X180340000Y-91440000D02*
X177800000Y-88900000D01*
X198120000Y-73660000D02*
X198120000Y-71120000D01*
X181610000Y-81280000D02*
X177800000Y-85090000D01*
X185420000Y-81280000D02*
X181610000Y-81280000D01*
X187960000Y-78740000D02*
X185420000Y-81280000D01*
X187960000Y-71120000D02*
X187960000Y-78740000D01*
X190500000Y-68580000D02*
X187960000Y-71120000D01*
X195580000Y-68580000D02*
X190500000Y-68580000D01*
X198120000Y-71120000D02*
X195580000Y-68580000D01*
X198120000Y-81280000D02*
X198120000Y-73660000D01*
X198120000Y-88900000D02*
X198120000Y-81280000D01*
X198120000Y-96520000D02*
X198120000Y-88900000D01*
D24*
X121920000Y-60960000D02*
X121920000Y-66040000D01*
X114300000Y-73660000D02*
X114300000Y-77470000D01*
X121920000Y-66040000D02*
X114300000Y-73660000D01*
X182880000Y-60960000D02*
X182880000Y-77470000D01*
X172720000Y-60960000D02*
X172720000Y-77470000D01*
D23*
X176530000Y-111760000D02*
X176530000Y-102870000D01*
X180340000Y-102870000D02*
X180340000Y-105410000D01*
X179070000Y-106680000D02*
X179070000Y-111760000D01*
X180340000Y-105410000D02*
X179070000Y-106680000D01*
X161290000Y-99060000D02*
X167640000Y-99060000D01*
X161290000Y-95250000D02*
X161290000Y-99060000D01*
X154940000Y-86360000D02*
X160020000Y-86360000D01*
X160020000Y-86360000D02*
X161290000Y-86360000D01*
X162560000Y-85090000D02*
X165100000Y-85090000D01*
X161290000Y-86360000D02*
X162560000Y-85090000D01*
X167640000Y-91440000D02*
X165100000Y-91440000D01*
X165100000Y-85090000D02*
X165100000Y-91440000D01*
X165100000Y-91440000D02*
X165100000Y-92710000D01*
X163830000Y-93980000D02*
X162560000Y-93980000D01*
X165100000Y-92710000D02*
X163830000Y-93980000D01*
D24*
X119380000Y-77470000D02*
X119380000Y-78740000D01*
X128270000Y-74930000D02*
X128270000Y-78740000D01*
X128270000Y-78740000D02*
X125730000Y-81280000D01*
X177800000Y-78740000D02*
X177800000Y-77470000D01*
X162560000Y-71120000D02*
X132080000Y-71120000D01*
X172720000Y-81280000D02*
X162560000Y-71120000D01*
X175260000Y-81280000D02*
X172720000Y-81280000D01*
X177800000Y-78740000D02*
X175260000Y-81280000D01*
X132080000Y-71120000D02*
X128270000Y-74930000D01*
X121920000Y-81280000D02*
X125730000Y-81280000D01*
X119380000Y-78740000D02*
X121920000Y-81280000D01*
D25*
G36*
X212650000Y-126290000D02*
X92150000Y-126290000D01*
X92150000Y-120422815D01*
X97864630Y-120422815D01*
X98188980Y-121207800D01*
X98789041Y-121808909D01*
X99573459Y-122134628D01*
X100422815Y-122135370D01*
X101207800Y-121811020D01*
X101808909Y-121210959D01*
X102134628Y-120426541D01*
X102134631Y-120422815D01*
X202864630Y-120422815D01*
X203188980Y-121207800D01*
X203789041Y-121808909D01*
X204573459Y-122134628D01*
X205422815Y-122135370D01*
X206207800Y-121811020D01*
X206808909Y-121210959D01*
X207134628Y-120426541D01*
X207135370Y-119577185D01*
X206811020Y-118792200D01*
X206210959Y-118191091D01*
X205426541Y-117865372D01*
X204577185Y-117864630D01*
X203792200Y-118188980D01*
X203191091Y-118789041D01*
X202865372Y-119573459D01*
X202864630Y-120422815D01*
X102134631Y-120422815D01*
X102135370Y-119577185D01*
X101811020Y-118792200D01*
X101210959Y-118191091D01*
X100426541Y-117865372D01*
X99577185Y-117864630D01*
X98792200Y-118188980D01*
X98191091Y-118789041D01*
X97865372Y-119573459D01*
X97864630Y-120422815D01*
X92150000Y-120422815D01*
X92150000Y-88000000D01*
X96242560Y-88000000D01*
X96242560Y-89800000D01*
X96286838Y-90035317D01*
X96425910Y-90251441D01*
X96638110Y-90396431D01*
X96655000Y-90399851D01*
X96655000Y-95016778D01*
X96654683Y-95016838D01*
X96438559Y-95155910D01*
X96293569Y-95368110D01*
X96242560Y-95620000D01*
X96242560Y-97420000D01*
X96286838Y-97655317D01*
X96425910Y-97871441D01*
X96638110Y-98016431D01*
X96655000Y-98019851D01*
X96655000Y-102636778D01*
X96654683Y-102636838D01*
X96438559Y-102775910D01*
X96293569Y-102988110D01*
X96242560Y-103240000D01*
X96242560Y-105040000D01*
X96286838Y-105275317D01*
X96425910Y-105491441D01*
X96638110Y-105636431D01*
X96655000Y-105639851D01*
X96655000Y-110256778D01*
X96654683Y-110256838D01*
X96438559Y-110395910D01*
X96293569Y-110608110D01*
X96242560Y-110860000D01*
X96242560Y-112660000D01*
X96286838Y-112895317D01*
X96425910Y-113111441D01*
X96638110Y-113256431D01*
X96890000Y-113307440D01*
X98690000Y-113307440D01*
X98925317Y-113263162D01*
X99141441Y-113124090D01*
X99280598Y-112920426D01*
X99314890Y-112954718D01*
X99429447Y-112840161D01*
X99515852Y-113096643D01*
X100089336Y-113306458D01*
X100699460Y-113280839D01*
X101144148Y-113096643D01*
X101230554Y-112840159D01*
X100330000Y-111939605D01*
X100315858Y-111953748D01*
X100136253Y-111774143D01*
X100150395Y-111760000D01*
X100509605Y-111760000D01*
X101410159Y-112660554D01*
X101666643Y-112574148D01*
X101876458Y-112000664D01*
X101850839Y-111390540D01*
X101666643Y-110945852D01*
X101411804Y-110860000D01*
X159742560Y-110860000D01*
X159742560Y-112660000D01*
X159786838Y-112895317D01*
X159925910Y-113111441D01*
X160138110Y-113256431D01*
X160390000Y-113307440D01*
X162190000Y-113307440D01*
X162425317Y-113263162D01*
X162641441Y-113124090D01*
X162780598Y-112920426D01*
X162814890Y-112954718D01*
X162929447Y-112840161D01*
X163015852Y-113096643D01*
X163589336Y-113306458D01*
X164199460Y-113280839D01*
X164644148Y-113096643D01*
X164730554Y-112840159D01*
X163830000Y-111939605D01*
X163815858Y-111953748D01*
X163636253Y-111774143D01*
X163650395Y-111760000D01*
X164009605Y-111760000D01*
X164910159Y-112660554D01*
X165166643Y-112574148D01*
X165376458Y-112000664D01*
X165350839Y-111390540D01*
X165166643Y-110945852D01*
X164911804Y-110860000D01*
X174982560Y-110860000D01*
X174982560Y-112660000D01*
X175026838Y-112895317D01*
X175165910Y-113111441D01*
X175378110Y-113256431D01*
X175630000Y-113307440D01*
X177430000Y-113307440D01*
X177665317Y-113263162D01*
X177881441Y-113124090D01*
X178026431Y-112911890D01*
X178030567Y-112891466D01*
X178199357Y-113060551D01*
X178763330Y-113294733D01*
X179373991Y-113295265D01*
X179938371Y-113062068D01*
X180160668Y-112840159D01*
X180709446Y-112840159D01*
X180795852Y-113096643D01*
X181369336Y-113306458D01*
X181979460Y-113280839D01*
X182424148Y-113096643D01*
X182510554Y-112840159D01*
X181610000Y-111939605D01*
X180709446Y-112840159D01*
X180160668Y-112840159D01*
X180370551Y-112630643D01*
X180379203Y-112609806D01*
X180529841Y-112660554D01*
X181430395Y-111760000D01*
X181789605Y-111760000D01*
X182690159Y-112660554D01*
X182946643Y-112574148D01*
X183156458Y-112000664D01*
X183130839Y-111390540D01*
X182946643Y-110945852D01*
X182690159Y-110859446D01*
X181789605Y-111760000D01*
X181430395Y-111760000D01*
X180529841Y-110859446D01*
X180379673Y-110910035D01*
X180372068Y-110891629D01*
X180205000Y-110724269D01*
X180205000Y-110679841D01*
X180709446Y-110679841D01*
X181610000Y-111580395D01*
X182510554Y-110679841D01*
X182424148Y-110423357D01*
X181850664Y-110213542D01*
X181240540Y-110239161D01*
X180795852Y-110423357D01*
X180709446Y-110679841D01*
X180205000Y-110679841D01*
X180205000Y-107150132D01*
X181142566Y-106212566D01*
X181388603Y-105844346D01*
X181475000Y-105410000D01*
X181475000Y-103617807D01*
X181674768Y-103136713D01*
X181675231Y-102605617D01*
X181472418Y-102114771D01*
X181097204Y-101738902D01*
X180606713Y-101535232D01*
X180075617Y-101534769D01*
X179584771Y-101737582D01*
X179208902Y-102112796D01*
X179005232Y-102603287D01*
X179004769Y-103134383D01*
X179205000Y-103618980D01*
X179205000Y-104939868D01*
X178267434Y-105877434D01*
X178021397Y-106245654D01*
X177935000Y-106680000D01*
X177935000Y-110472135D01*
X177894090Y-110408559D01*
X177681890Y-110263569D01*
X177665000Y-110260149D01*
X177665000Y-103617807D01*
X177864768Y-103136713D01*
X177865231Y-102605617D01*
X177662418Y-102114771D01*
X177287204Y-101738902D01*
X176796713Y-101535232D01*
X176265617Y-101534769D01*
X175774771Y-101737582D01*
X175398902Y-102112796D01*
X175195232Y-102603287D01*
X175194769Y-103134383D01*
X175395000Y-103618980D01*
X175395000Y-110256778D01*
X175394683Y-110256838D01*
X175178559Y-110395910D01*
X175033569Y-110608110D01*
X174982560Y-110860000D01*
X164911804Y-110860000D01*
X164910159Y-110859446D01*
X164009605Y-111760000D01*
X163650395Y-111760000D01*
X163636253Y-111745858D01*
X163815858Y-111566253D01*
X163830000Y-111580395D01*
X164730554Y-110679841D01*
X164644148Y-110423357D01*
X164070664Y-110213542D01*
X163460540Y-110239161D01*
X163015852Y-110423357D01*
X162929447Y-110679839D01*
X162814890Y-110565282D01*
X162778412Y-110601760D01*
X162654090Y-110408559D01*
X162441890Y-110263569D01*
X162425000Y-110260149D01*
X162425000Y-107364271D01*
X162523379Y-107217036D01*
X162625000Y-106706154D01*
X162625000Y-106653846D01*
X162523379Y-106142964D01*
X162233988Y-105709858D01*
X161800882Y-105420467D01*
X161290000Y-105318846D01*
X160779118Y-105420467D01*
X160346012Y-105709858D01*
X160056621Y-106142964D01*
X159955000Y-106653846D01*
X159955000Y-106706154D01*
X160056621Y-107217036D01*
X160155000Y-107364271D01*
X160155000Y-110256778D01*
X160154683Y-110256838D01*
X159938559Y-110395910D01*
X159793569Y-110608110D01*
X159742560Y-110860000D01*
X101411804Y-110860000D01*
X101410159Y-110859446D01*
X100509605Y-111760000D01*
X100150395Y-111760000D01*
X100136253Y-111745858D01*
X100315858Y-111566253D01*
X100330000Y-111580395D01*
X101230554Y-110679841D01*
X101144148Y-110423357D01*
X100570664Y-110213542D01*
X99960540Y-110239161D01*
X99515852Y-110423357D01*
X99429447Y-110679839D01*
X99314890Y-110565282D01*
X99278412Y-110601760D01*
X99154090Y-110408559D01*
X98941890Y-110263569D01*
X98925000Y-110260149D01*
X98925000Y-105643222D01*
X98925317Y-105643162D01*
X99141441Y-105504090D01*
X99280598Y-105300426D01*
X99314890Y-105334718D01*
X99429447Y-105220161D01*
X99515852Y-105476643D01*
X100089336Y-105686458D01*
X100699460Y-105660839D01*
X101144148Y-105476643D01*
X101230554Y-105220159D01*
X100330000Y-104319605D01*
X100315858Y-104333748D01*
X100136253Y-104154143D01*
X100150395Y-104140000D01*
X100509605Y-104140000D01*
X101410159Y-105040554D01*
X101666643Y-104954148D01*
X101876458Y-104380664D01*
X101850839Y-103770540D01*
X101666643Y-103325852D01*
X101410159Y-103239446D01*
X100509605Y-104140000D01*
X100150395Y-104140000D01*
X100136253Y-104125858D01*
X100315858Y-103946253D01*
X100330000Y-103960395D01*
X101230554Y-103059841D01*
X101144148Y-102803357D01*
X100570664Y-102593542D01*
X99960540Y-102619161D01*
X99515852Y-102803357D01*
X99429447Y-103059839D01*
X99314890Y-102945282D01*
X99278412Y-102981760D01*
X99154090Y-102788559D01*
X98941890Y-102643569D01*
X98925000Y-102640149D01*
X98925000Y-98023222D01*
X98925317Y-98023162D01*
X99141441Y-97884090D01*
X99280598Y-97680426D01*
X99314890Y-97714718D01*
X99429447Y-97600161D01*
X99515852Y-97856643D01*
X100089336Y-98066458D01*
X100699460Y-98040839D01*
X101144148Y-97856643D01*
X101230554Y-97600159D01*
X100330000Y-96699605D01*
X100315858Y-96713748D01*
X100136253Y-96534143D01*
X100150395Y-96520000D01*
X100509605Y-96520000D01*
X101410159Y-97420554D01*
X101666643Y-97334148D01*
X101876458Y-96760664D01*
X101850839Y-96150540D01*
X101666643Y-95705852D01*
X101410159Y-95619446D01*
X100509605Y-96520000D01*
X100150395Y-96520000D01*
X100136253Y-96505858D01*
X100315858Y-96326253D01*
X100330000Y-96340395D01*
X101230554Y-95439841D01*
X101144148Y-95183357D01*
X100570664Y-94973542D01*
X99960540Y-94999161D01*
X99515852Y-95183357D01*
X99429447Y-95439839D01*
X99314890Y-95325282D01*
X99278412Y-95361760D01*
X99154090Y-95168559D01*
X98941890Y-95023569D01*
X98925000Y-95020149D01*
X98925000Y-90403222D01*
X98925317Y-90403162D01*
X99141441Y-90264090D01*
X99280598Y-90060426D01*
X99314890Y-90094718D01*
X99429447Y-89980161D01*
X99515852Y-90236643D01*
X100089336Y-90446458D01*
X100699460Y-90420839D01*
X101144148Y-90236643D01*
X101230554Y-89980159D01*
X100330000Y-89079605D01*
X100315858Y-89093748D01*
X100136253Y-88914143D01*
X100150395Y-88900000D01*
X100509605Y-88900000D01*
X101410159Y-89800554D01*
X101666643Y-89714148D01*
X101876458Y-89140664D01*
X101850839Y-88530540D01*
X101666643Y-88085852D01*
X101410159Y-87999446D01*
X100509605Y-88900000D01*
X100150395Y-88900000D01*
X100136253Y-88885858D01*
X100315858Y-88706253D01*
X100330000Y-88720395D01*
X101230554Y-87819841D01*
X101144148Y-87563357D01*
X100570664Y-87353542D01*
X99960540Y-87379161D01*
X99515852Y-87563357D01*
X99429447Y-87819839D01*
X99314890Y-87705282D01*
X99278412Y-87741760D01*
X99154090Y-87548559D01*
X98941890Y-87403569D01*
X98925000Y-87400149D01*
X98925000Y-85560132D01*
X101132566Y-83352567D01*
X101378603Y-82984346D01*
X101465000Y-82550000D01*
X101465000Y-81349018D01*
X101581441Y-81274090D01*
X101726431Y-81061890D01*
X101735370Y-81017745D01*
X102001861Y-81017745D01*
X102075995Y-81263864D01*
X102613223Y-81456965D01*
X103183454Y-81429778D01*
X103584005Y-81263864D01*
X103658139Y-81017745D01*
X102830000Y-80189605D01*
X102001861Y-81017745D01*
X101735370Y-81017745D01*
X101774646Y-80823799D01*
X101822255Y-80838139D01*
X102650395Y-80010000D01*
X103009605Y-80010000D01*
X103837745Y-80838139D01*
X104083864Y-80764005D01*
X104276965Y-80226777D01*
X104249778Y-79656546D01*
X104083864Y-79255995D01*
X103837745Y-79181861D01*
X103009605Y-80010000D01*
X102650395Y-80010000D01*
X101822255Y-79181861D01*
X101774833Y-79196145D01*
X101738351Y-79002255D01*
X102001861Y-79002255D01*
X102830000Y-79830395D01*
X103658139Y-79002255D01*
X103584005Y-78756136D01*
X103046777Y-78563035D01*
X102476546Y-78590222D01*
X102075995Y-78756136D01*
X102001861Y-79002255D01*
X101738351Y-79002255D01*
X101733162Y-78974683D01*
X101594090Y-78758559D01*
X101465000Y-78670356D01*
X101465000Y-77940132D01*
X103340133Y-76065000D01*
X106209868Y-76065000D01*
X108085000Y-77940133D01*
X108085000Y-87630000D01*
X108171397Y-88064346D01*
X108185767Y-88085852D01*
X108417434Y-88432566D01*
X110957433Y-90972566D01*
X111257834Y-91173287D01*
X111325654Y-91218603D01*
X111760000Y-91305000D01*
X125730000Y-91305000D01*
X126164346Y-91218603D01*
X126532566Y-90972566D01*
X129072566Y-88432567D01*
X129318603Y-88064346D01*
X129346306Y-87925072D01*
X129405000Y-87630000D01*
X129405000Y-85413795D01*
X130444716Y-85413795D01*
X130693106Y-86014943D01*
X131152637Y-86475278D01*
X131753352Y-86724716D01*
X132109895Y-86725027D01*
X132547434Y-87162566D01*
X132915654Y-87408603D01*
X133350000Y-87495000D01*
X135656778Y-87495000D01*
X135656838Y-87495317D01*
X135795910Y-87711441D01*
X136008110Y-87856431D01*
X136260000Y-87907440D01*
X138060000Y-87907440D01*
X138295317Y-87863162D01*
X138511441Y-87724090D01*
X138656431Y-87511890D01*
X138659851Y-87495000D01*
X141345394Y-87495000D01*
X141426077Y-87575824D01*
X141953309Y-87794750D01*
X142069720Y-87794852D01*
X157947434Y-103672566D01*
X158315654Y-103918603D01*
X158750000Y-104005000D01*
X170180000Y-104005000D01*
X170614346Y-103918603D01*
X170982566Y-103672566D01*
X174460132Y-100195000D01*
X182880000Y-100195000D01*
X183314346Y-100108603D01*
X183682566Y-99862566D01*
X186222566Y-97322567D01*
X186468603Y-96954346D01*
X186494532Y-96823991D01*
X186555000Y-96520000D01*
X186555000Y-90170000D01*
X186468603Y-89735654D01*
X186446494Y-89702566D01*
X186222566Y-89367433D01*
X184015000Y-87159868D01*
X184015000Y-86267204D01*
X184057278Y-86225000D01*
X194445000Y-86225000D01*
X194445000Y-87396778D01*
X194444683Y-87396838D01*
X194228559Y-87535910D01*
X194083569Y-87748110D01*
X194032560Y-88000000D01*
X194032560Y-89800000D01*
X194076838Y-90035317D01*
X194215910Y-90251441D01*
X194428110Y-90396431D01*
X194445000Y-90399851D01*
X194445000Y-95016778D01*
X194444683Y-95016838D01*
X194228559Y-95155910D01*
X194083569Y-95368110D01*
X194032560Y-95620000D01*
X194032560Y-97420000D01*
X194076838Y-97655317D01*
X194215910Y-97871441D01*
X194428110Y-98016431D01*
X194445000Y-98019851D01*
X194445000Y-101600000D01*
X194531397Y-102034346D01*
X194777434Y-102402566D01*
X197317433Y-104942566D01*
X197463254Y-105040000D01*
X197685654Y-105188603D01*
X198120000Y-105275000D01*
X199156778Y-105275000D01*
X199156838Y-105275317D01*
X199295910Y-105491441D01*
X199508110Y-105636431D01*
X199525000Y-105639851D01*
X199525000Y-110256778D01*
X199524683Y-110256838D01*
X199308559Y-110395910D01*
X199163569Y-110608110D01*
X199112560Y-110860000D01*
X199112560Y-112660000D01*
X199156838Y-112895317D01*
X199295910Y-113111441D01*
X199508110Y-113256431D01*
X199760000Y-113307440D01*
X201560000Y-113307440D01*
X201795317Y-113263162D01*
X202011441Y-113124090D01*
X202150598Y-112920426D01*
X202184890Y-112954718D01*
X202299447Y-112840161D01*
X202385852Y-113096643D01*
X202959336Y-113306458D01*
X203569460Y-113280839D01*
X204014148Y-113096643D01*
X204100554Y-112840159D01*
X203200000Y-111939605D01*
X203185858Y-111953748D01*
X203006253Y-111774143D01*
X203020395Y-111760000D01*
X203379605Y-111760000D01*
X204280159Y-112660554D01*
X204536643Y-112574148D01*
X204746458Y-112000664D01*
X204720839Y-111390540D01*
X204536643Y-110945852D01*
X204280159Y-110859446D01*
X203379605Y-111760000D01*
X203020395Y-111760000D01*
X203006253Y-111745858D01*
X203185858Y-111566253D01*
X203200000Y-111580395D01*
X204100554Y-110679841D01*
X204014148Y-110423357D01*
X203440664Y-110213542D01*
X202830540Y-110239161D01*
X202385852Y-110423357D01*
X202299447Y-110679839D01*
X202184890Y-110565282D01*
X202148412Y-110601760D01*
X202024090Y-110408559D01*
X201811890Y-110263569D01*
X201795000Y-110260149D01*
X201795000Y-105643222D01*
X201795317Y-105643162D01*
X202011441Y-105504090D01*
X202150598Y-105300426D01*
X202184890Y-105334718D01*
X202299447Y-105220161D01*
X202385852Y-105476643D01*
X202959336Y-105686458D01*
X203569460Y-105660839D01*
X204014148Y-105476643D01*
X204100554Y-105220159D01*
X203200000Y-104319605D01*
X203185858Y-104333748D01*
X203006253Y-104154143D01*
X203020395Y-104140000D01*
X203379605Y-104140000D01*
X204280159Y-105040554D01*
X204536643Y-104954148D01*
X204746458Y-104380664D01*
X204720839Y-103770540D01*
X204536643Y-103325852D01*
X204280159Y-103239446D01*
X203379605Y-104140000D01*
X203020395Y-104140000D01*
X203006253Y-104125858D01*
X203185858Y-103946253D01*
X203200000Y-103960395D01*
X204100554Y-103059841D01*
X204014148Y-102803357D01*
X203440664Y-102593542D01*
X202830540Y-102619161D01*
X202385852Y-102803357D01*
X202299447Y-103059839D01*
X202184890Y-102945282D01*
X202148412Y-102981760D01*
X202024090Y-102788559D01*
X201811890Y-102643569D01*
X201560000Y-102592560D01*
X199760000Y-102592560D01*
X199524683Y-102636838D01*
X199308559Y-102775910D01*
X199163569Y-102988110D01*
X199160149Y-103005000D01*
X198590133Y-103005000D01*
X196715000Y-101129868D01*
X196715000Y-98023222D01*
X196715317Y-98023162D01*
X196931441Y-97884090D01*
X197076431Y-97671890D01*
X197080567Y-97651466D01*
X197249357Y-97820551D01*
X197813330Y-98054733D01*
X198423991Y-98055265D01*
X198988371Y-97822068D01*
X199210668Y-97600159D01*
X199759446Y-97600159D01*
X199845852Y-97856643D01*
X200419336Y-98066458D01*
X201029460Y-98040839D01*
X201474148Y-97856643D01*
X201560554Y-97600159D01*
X200660000Y-96699605D01*
X199759446Y-97600159D01*
X199210668Y-97600159D01*
X199420551Y-97390643D01*
X199429203Y-97369806D01*
X199579841Y-97420554D01*
X200480395Y-96520000D01*
X200839605Y-96520000D01*
X201740159Y-97420554D01*
X201996643Y-97334148D01*
X202206458Y-96760664D01*
X202180839Y-96150540D01*
X201996643Y-95705852D01*
X201740159Y-95619446D01*
X200839605Y-96520000D01*
X200480395Y-96520000D01*
X199579841Y-95619446D01*
X199429673Y-95670035D01*
X199422068Y-95651629D01*
X199255000Y-95484269D01*
X199255000Y-95439841D01*
X199759446Y-95439841D01*
X200660000Y-96340395D01*
X201560554Y-95439841D01*
X201474148Y-95183357D01*
X200900664Y-94973542D01*
X200290540Y-94999161D01*
X199845852Y-95183357D01*
X199759446Y-95439841D01*
X199255000Y-95439841D01*
X199255000Y-89980159D01*
X199759446Y-89980159D01*
X199845852Y-90236643D01*
X200419336Y-90446458D01*
X201029460Y-90420839D01*
X201474148Y-90236643D01*
X201560554Y-89980159D01*
X200660000Y-89079605D01*
X199759446Y-89980159D01*
X199255000Y-89980159D01*
X199255000Y-89935905D01*
X199420551Y-89770643D01*
X199429203Y-89749806D01*
X199579841Y-89800554D01*
X200480395Y-88900000D01*
X200839605Y-88900000D01*
X201740159Y-89800554D01*
X201996643Y-89714148D01*
X202206458Y-89140664D01*
X202180839Y-88530540D01*
X201996643Y-88085852D01*
X201740159Y-87999446D01*
X200839605Y-88900000D01*
X200480395Y-88900000D01*
X199579841Y-87999446D01*
X199429673Y-88050035D01*
X199422068Y-88031629D01*
X199255000Y-87864269D01*
X199255000Y-87819841D01*
X199759446Y-87819841D01*
X200660000Y-88720395D01*
X201560554Y-87819841D01*
X201474148Y-87563357D01*
X200900664Y-87353542D01*
X200290540Y-87379161D01*
X199845852Y-87563357D01*
X199759446Y-87819841D01*
X199255000Y-87819841D01*
X199255000Y-82360159D01*
X199759446Y-82360159D01*
X199845852Y-82616643D01*
X200419336Y-82826458D01*
X201029460Y-82800839D01*
X201474148Y-82616643D01*
X201560554Y-82360159D01*
X200660000Y-81459605D01*
X199759446Y-82360159D01*
X199255000Y-82360159D01*
X199255000Y-82315905D01*
X199420551Y-82150643D01*
X199429203Y-82129806D01*
X199579841Y-82180554D01*
X200480395Y-81280000D01*
X200839605Y-81280000D01*
X201740159Y-82180554D01*
X201996643Y-82094148D01*
X202206458Y-81520664D01*
X202180839Y-80910540D01*
X201996643Y-80465852D01*
X201740159Y-80379446D01*
X200839605Y-81280000D01*
X200480395Y-81280000D01*
X199579841Y-80379446D01*
X199429673Y-80430035D01*
X199422068Y-80411629D01*
X199255000Y-80244269D01*
X199255000Y-80199841D01*
X199759446Y-80199841D01*
X200660000Y-81100395D01*
X201560554Y-80199841D01*
X201474148Y-79943357D01*
X200900664Y-79733542D01*
X200290540Y-79759161D01*
X199845852Y-79943357D01*
X199759446Y-80199841D01*
X199255000Y-80199841D01*
X199255000Y-74740159D01*
X199759446Y-74740159D01*
X199845852Y-74996643D01*
X200419336Y-75206458D01*
X201029460Y-75180839D01*
X201474148Y-74996643D01*
X201560554Y-74740159D01*
X200660000Y-73839605D01*
X199759446Y-74740159D01*
X199255000Y-74740159D01*
X199255000Y-74695905D01*
X199420551Y-74530643D01*
X199429203Y-74509806D01*
X199579841Y-74560554D01*
X200480395Y-73660000D01*
X200839605Y-73660000D01*
X201740159Y-74560554D01*
X201996643Y-74474148D01*
X202206458Y-73900664D01*
X202180839Y-73290540D01*
X201996643Y-72845852D01*
X201740159Y-72759446D01*
X200839605Y-73660000D01*
X200480395Y-73660000D01*
X199579841Y-72759446D01*
X199429673Y-72810035D01*
X199422068Y-72791629D01*
X199255000Y-72624269D01*
X199255000Y-72579841D01*
X199759446Y-72579841D01*
X200660000Y-73480395D01*
X201560554Y-72579841D01*
X201474148Y-72323357D01*
X200900664Y-72113542D01*
X200290540Y-72139161D01*
X199845852Y-72323357D01*
X199759446Y-72579841D01*
X199255000Y-72579841D01*
X199255000Y-71120000D01*
X199168603Y-70685654D01*
X199040753Y-70494313D01*
X198922566Y-70317433D01*
X196382566Y-67777434D01*
X196014346Y-67531397D01*
X195580000Y-67445000D01*
X190500000Y-67445000D01*
X190065654Y-67531397D01*
X189697433Y-67777434D01*
X187157435Y-70317433D01*
X187157434Y-70317434D01*
X186911397Y-70685654D01*
X186825000Y-71120000D01*
X186825000Y-78269867D01*
X184949868Y-80145000D01*
X181610000Y-80145000D01*
X181175655Y-80231396D01*
X180807434Y-80477434D01*
X177829843Y-83455025D01*
X177476205Y-83454716D01*
X176875057Y-83703106D01*
X176414722Y-84162637D01*
X176165284Y-84763352D01*
X176164716Y-85413795D01*
X176413106Y-86014943D01*
X176665000Y-86267278D01*
X176665000Y-88900000D01*
X176751397Y-89334346D01*
X176773506Y-89367434D01*
X176997434Y-89702566D01*
X179205000Y-91910133D01*
X179205000Y-94565729D01*
X179106621Y-94712964D01*
X179005000Y-95223846D01*
X179005000Y-95276154D01*
X179106621Y-95787036D01*
X179396012Y-96220142D01*
X179829118Y-96509533D01*
X180340000Y-96611154D01*
X180850882Y-96509533D01*
X181283988Y-96220142D01*
X181573379Y-95787036D01*
X181675000Y-95276154D01*
X181675000Y-95223846D01*
X181573379Y-94712964D01*
X181475000Y-94565729D01*
X181475000Y-91440000D01*
X181388603Y-91005654D01*
X181174196Y-90684771D01*
X181142566Y-90637433D01*
X178935000Y-88429868D01*
X178935000Y-86267204D01*
X179185278Y-86017363D01*
X179434716Y-85416648D01*
X179435027Y-85060105D01*
X182080132Y-82415000D01*
X185420000Y-82415000D01*
X185854346Y-82328603D01*
X186222566Y-82082566D01*
X188762566Y-79542567D01*
X189008603Y-79174346D01*
X189042834Y-79002255D01*
X189095000Y-78740000D01*
X189095000Y-71590132D01*
X190970133Y-69715000D01*
X195109868Y-69715000D01*
X196985000Y-71590133D01*
X196985000Y-72372135D01*
X196944090Y-72308559D01*
X196731890Y-72163569D01*
X196480000Y-72112560D01*
X194680000Y-72112560D01*
X194444683Y-72156838D01*
X194228559Y-72295910D01*
X194083569Y-72508110D01*
X194032560Y-72760000D01*
X194032560Y-74560000D01*
X194076838Y-74795317D01*
X194215910Y-75011441D01*
X194428110Y-75156431D01*
X194445000Y-75159851D01*
X194445000Y-79776778D01*
X194444683Y-79776838D01*
X194228559Y-79915910D01*
X194083569Y-80128110D01*
X194032560Y-80380000D01*
X194032560Y-82180000D01*
X194076838Y-82415317D01*
X194215910Y-82631441D01*
X194428110Y-82776431D01*
X194445000Y-82779851D01*
X194445000Y-83955000D01*
X184057204Y-83955000D01*
X183807363Y-83704722D01*
X183206648Y-83455284D01*
X182556205Y-83454716D01*
X181955057Y-83703106D01*
X181494722Y-84162637D01*
X181245284Y-84763352D01*
X181244716Y-85413795D01*
X181493106Y-86014943D01*
X181745000Y-86267278D01*
X181745000Y-87630000D01*
X181831397Y-88064346D01*
X181845767Y-88085852D01*
X182077434Y-88432566D01*
X184285000Y-90640133D01*
X184285000Y-96049867D01*
X182409868Y-97925000D01*
X177665000Y-97925000D01*
X177665000Y-95934271D01*
X177763379Y-95787036D01*
X177865000Y-95276154D01*
X177865000Y-95223846D01*
X177763379Y-94712964D01*
X177473988Y-94279858D01*
X177040882Y-93990467D01*
X176530000Y-93888846D01*
X176019118Y-93990467D01*
X175586012Y-94279858D01*
X175296621Y-94712964D01*
X175195000Y-95223846D01*
X175195000Y-95276154D01*
X175296621Y-95787036D01*
X175395000Y-95934271D01*
X175395000Y-97925000D01*
X173990000Y-97925000D01*
X173555655Y-98011396D01*
X173187434Y-98257434D01*
X169709868Y-101735000D01*
X159220132Y-101735000D01*
X151782741Y-94297609D01*
X158626538Y-94297609D01*
X158632526Y-94340161D01*
X158860745Y-94767172D01*
X159235002Y-95074343D01*
X159698319Y-95214910D01*
X159893000Y-95059991D01*
X159893000Y-94107000D01*
X158751269Y-94107000D01*
X158626538Y-94297609D01*
X151782741Y-94297609D01*
X151147523Y-93662391D01*
X158626538Y-93662391D01*
X158751269Y-93853000D01*
X159893000Y-93853000D01*
X159893000Y-92900009D01*
X159698319Y-92745090D01*
X159235002Y-92885657D01*
X158860745Y-93192828D01*
X158632526Y-93619839D01*
X158626538Y-93662391D01*
X151147523Y-93662391D01*
X143675148Y-86190016D01*
X143675248Y-86075813D01*
X143457243Y-85548200D01*
X143053923Y-85144176D01*
X142987456Y-85116577D01*
X142994005Y-85113864D01*
X143068139Y-84867745D01*
X142240000Y-84039605D01*
X141411861Y-84867745D01*
X141485995Y-85113864D01*
X141492483Y-85116196D01*
X141428200Y-85142757D01*
X141345813Y-85225000D01*
X138663222Y-85225000D01*
X138663162Y-85224683D01*
X138524090Y-85008559D01*
X138311890Y-84863569D01*
X138060000Y-84812560D01*
X136260000Y-84812560D01*
X136024683Y-84856838D01*
X135808559Y-84995910D01*
X135663569Y-85208110D01*
X135660149Y-85225000D01*
X133820132Y-85225000D01*
X133714975Y-85119843D01*
X133715284Y-84766205D01*
X133466894Y-84165057D01*
X133007363Y-83704722D01*
X132859257Y-83643223D01*
X140793035Y-83643223D01*
X140820222Y-84213454D01*
X140986136Y-84614005D01*
X141232255Y-84688139D01*
X142060395Y-83860000D01*
X142419605Y-83860000D01*
X143247745Y-84688139D01*
X143493864Y-84614005D01*
X143686965Y-84076777D01*
X143659778Y-83506546D01*
X143493864Y-83105995D01*
X143247745Y-83031861D01*
X142419605Y-83860000D01*
X142060395Y-83860000D01*
X141232255Y-83031861D01*
X140986136Y-83105995D01*
X140793035Y-83643223D01*
X132859257Y-83643223D01*
X132406648Y-83455284D01*
X131756205Y-83454716D01*
X131155057Y-83703106D01*
X130694722Y-84162637D01*
X130445284Y-84763352D01*
X130444716Y-85413795D01*
X129405000Y-85413795D01*
X129405000Y-84290132D01*
X131280133Y-82415000D01*
X142415562Y-82415000D01*
X141886546Y-82440222D01*
X141485995Y-82606136D01*
X141411861Y-82852255D01*
X142240000Y-83680395D01*
X143068139Y-82852255D01*
X142994005Y-82606136D01*
X142462244Y-82415000D01*
X146849868Y-82415000D01*
X149097434Y-84662566D01*
X149465654Y-84908603D01*
X149900000Y-84995000D01*
X154045394Y-84995000D01*
X154126077Y-85075824D01*
X154207931Y-85109813D01*
X154128200Y-85142757D01*
X153724176Y-85546077D01*
X153505250Y-86073309D01*
X153504752Y-86644187D01*
X153722757Y-87171800D01*
X154126077Y-87575824D01*
X154653309Y-87794750D01*
X155224187Y-87795248D01*
X155751800Y-87577243D01*
X155834187Y-87495000D01*
X158963803Y-87495000D01*
X159432581Y-87808227D01*
X160020000Y-87925072D01*
X160607419Y-87808227D01*
X161076197Y-87495000D01*
X161290000Y-87495000D01*
X161724346Y-87408603D01*
X162092566Y-87162566D01*
X163030132Y-86225000D01*
X163477962Y-86225000D01*
X163496838Y-86325317D01*
X163635910Y-86541441D01*
X163848110Y-86686431D01*
X163965000Y-86710102D01*
X163965000Y-92239868D01*
X163359868Y-92845000D01*
X163065775Y-92845000D01*
X163056809Y-92839009D01*
X162584195Y-92745000D01*
X162535805Y-92745000D01*
X162063191Y-92839009D01*
X161662528Y-93106723D01*
X161394814Y-93507386D01*
X161381946Y-93572075D01*
X161179255Y-93192828D01*
X160804998Y-92885657D01*
X160341681Y-92745090D01*
X160147000Y-92900009D01*
X160147000Y-93853000D01*
X160167000Y-93853000D01*
X160167000Y-94107000D01*
X160147000Y-94107000D01*
X160147000Y-94744182D01*
X160124814Y-94777386D01*
X160030805Y-95250000D01*
X160124814Y-95722614D01*
X160155000Y-95767791D01*
X160155000Y-98312193D01*
X159955232Y-98793287D01*
X159954769Y-99324383D01*
X160157582Y-99815229D01*
X160532796Y-100191098D01*
X161023287Y-100394768D01*
X161554383Y-100395231D01*
X162038980Y-100195000D01*
X166942740Y-100195000D01*
X167129118Y-100319533D01*
X167640000Y-100421154D01*
X168150882Y-100319533D01*
X168583988Y-100030142D01*
X168873379Y-99597036D01*
X168975000Y-99086154D01*
X168975000Y-99033846D01*
X168873379Y-98522964D01*
X168583988Y-98089858D01*
X168150882Y-97800467D01*
X167640000Y-97698846D01*
X167129118Y-97800467D01*
X166942740Y-97925000D01*
X162425000Y-97925000D01*
X162425000Y-95767791D01*
X162455186Y-95722614D01*
X162549195Y-95250000D01*
X162542233Y-95215000D01*
X162584195Y-95215000D01*
X163056809Y-95120991D01*
X163065775Y-95115000D01*
X163830000Y-95115000D01*
X164264346Y-95028603D01*
X164632566Y-94782566D01*
X165902566Y-93512566D01*
X166126494Y-93177434D01*
X166148603Y-93144346D01*
X166235000Y-92710000D01*
X166235000Y-92575000D01*
X166892193Y-92575000D01*
X167373287Y-92774768D01*
X167904383Y-92775231D01*
X168395229Y-92572418D01*
X168771098Y-92197204D01*
X168974768Y-91706713D01*
X168975231Y-91175617D01*
X168772418Y-90684771D01*
X168397204Y-90308902D01*
X167906713Y-90105232D01*
X167375617Y-90104769D01*
X166891020Y-90305000D01*
X166235000Y-90305000D01*
X166235000Y-86712038D01*
X166335317Y-86693162D01*
X166551441Y-86554090D01*
X166696431Y-86341890D01*
X166747440Y-86090000D01*
X166747440Y-84090000D01*
X166703162Y-83854683D01*
X166564090Y-83638559D01*
X166351890Y-83493569D01*
X166100000Y-83442560D01*
X164100000Y-83442560D01*
X163864683Y-83486838D01*
X163648559Y-83625910D01*
X163503569Y-83838110D01*
X163479898Y-83955000D01*
X162560000Y-83955000D01*
X162125654Y-84041397D01*
X161968071Y-84146691D01*
X161757434Y-84287434D01*
X160922539Y-85122329D01*
X160607419Y-84911773D01*
X160020000Y-84794928D01*
X159432581Y-84911773D01*
X158963803Y-85225000D01*
X155834606Y-85225000D01*
X155753923Y-85144176D01*
X155672069Y-85110187D01*
X155751800Y-85077243D01*
X155834187Y-84995000D01*
X157440000Y-84995000D01*
X157874346Y-84908603D01*
X158242566Y-84662566D01*
X160822566Y-82082566D01*
X161046494Y-81747434D01*
X161068603Y-81714346D01*
X161155000Y-81280000D01*
X161155000Y-77703222D01*
X161155317Y-77703162D01*
X161371441Y-77564090D01*
X161516431Y-77351890D01*
X161519851Y-77335000D01*
X163359868Y-77335000D01*
X163465025Y-77440157D01*
X163464716Y-77793795D01*
X163713106Y-78394943D01*
X164172637Y-78855278D01*
X164773352Y-79104716D01*
X165129895Y-79105027D01*
X171085025Y-85060157D01*
X171084716Y-85413795D01*
X171333106Y-86014943D01*
X171792637Y-86475278D01*
X172393352Y-86724716D01*
X173043795Y-86725284D01*
X173644943Y-86476894D01*
X174105278Y-86017363D01*
X174354716Y-85416648D01*
X174355284Y-84766205D01*
X174106894Y-84165057D01*
X173647363Y-83704722D01*
X173046648Y-83455284D01*
X172690105Y-83454973D01*
X171887462Y-82652330D01*
X172094312Y-82790543D01*
X172720000Y-82915001D01*
X172720005Y-82915000D01*
X175259995Y-82915000D01*
X175260000Y-82915001D01*
X175885688Y-82790543D01*
X176416120Y-82436120D01*
X178956117Y-79896122D01*
X178956120Y-79896120D01*
X179310543Y-79365687D01*
X179435000Y-78740000D01*
X179435000Y-77471427D01*
X179435284Y-77146205D01*
X179186894Y-76545057D01*
X178727363Y-76084722D01*
X178126648Y-75835284D01*
X177476205Y-75834716D01*
X176875057Y-76083106D01*
X176414722Y-76542637D01*
X176165284Y-77143352D01*
X176164716Y-77793795D01*
X176165000Y-77794482D01*
X176165000Y-78062761D01*
X174582760Y-79645000D01*
X173397239Y-79645000D01*
X172857360Y-79105121D01*
X173043795Y-79105284D01*
X173644943Y-78856894D01*
X174105278Y-78397363D01*
X174354716Y-77796648D01*
X174355284Y-77146205D01*
X174355000Y-77145518D01*
X174355000Y-60960000D01*
X174307129Y-60719336D01*
X178793542Y-60719336D01*
X178819161Y-61329460D01*
X179003357Y-61774148D01*
X179259841Y-61860554D01*
X180160395Y-60960000D01*
X179259841Y-60059446D01*
X179003357Y-60145852D01*
X178793542Y-60719336D01*
X174307129Y-60719336D01*
X174267440Y-60519807D01*
X174267440Y-60060000D01*
X174233541Y-59879841D01*
X179439446Y-59879841D01*
X180340000Y-60780395D01*
X180354143Y-60766253D01*
X180533748Y-60945858D01*
X180519605Y-60960000D01*
X180533748Y-60974143D01*
X180354143Y-61153748D01*
X180340000Y-61139605D01*
X179439446Y-62040159D01*
X179525852Y-62296643D01*
X180099336Y-62506458D01*
X180709460Y-62480839D01*
X181154148Y-62296643D01*
X181240553Y-62040161D01*
X181245000Y-62044608D01*
X181245000Y-77468574D01*
X181244716Y-77793795D01*
X181493106Y-78394943D01*
X181952637Y-78855278D01*
X182553352Y-79104716D01*
X183203795Y-79105284D01*
X183804943Y-78856894D01*
X184265278Y-78397363D01*
X184514716Y-77796648D01*
X184515284Y-77146205D01*
X184515000Y-77145518D01*
X184515000Y-60960000D01*
X184427440Y-60519807D01*
X184427440Y-60422815D01*
X202864630Y-60422815D01*
X203188980Y-61207800D01*
X203789041Y-61808909D01*
X204573459Y-62134628D01*
X205422815Y-62135370D01*
X206207800Y-61811020D01*
X206808909Y-61210959D01*
X207134628Y-60426541D01*
X207135370Y-59577185D01*
X206811020Y-58792200D01*
X206210959Y-58191091D01*
X205426541Y-57865372D01*
X204577185Y-57864630D01*
X203792200Y-58188980D01*
X203191091Y-58789041D01*
X202865372Y-59573459D01*
X202864630Y-60422815D01*
X184427440Y-60422815D01*
X184427440Y-60060000D01*
X184383162Y-59824683D01*
X184244090Y-59608559D01*
X184031890Y-59463569D01*
X183780000Y-59412560D01*
X183320193Y-59412560D01*
X182880000Y-59325000D01*
X182439807Y-59412560D01*
X181980000Y-59412560D01*
X181744683Y-59456838D01*
X181528559Y-59595910D01*
X181389402Y-59799574D01*
X181355110Y-59765282D01*
X181240553Y-59879839D01*
X181154148Y-59623357D01*
X180580664Y-59413542D01*
X179970540Y-59439161D01*
X179525852Y-59623357D01*
X179439446Y-59879841D01*
X174233541Y-59879841D01*
X174223162Y-59824683D01*
X174084090Y-59608559D01*
X173871890Y-59463569D01*
X173620000Y-59412560D01*
X173160193Y-59412560D01*
X172720000Y-59325000D01*
X172279807Y-59412560D01*
X171820000Y-59412560D01*
X171584683Y-59456838D01*
X171368559Y-59595910D01*
X171229402Y-59799574D01*
X171195110Y-59765282D01*
X171080553Y-59879839D01*
X170994148Y-59623357D01*
X170420664Y-59413542D01*
X169810540Y-59439161D01*
X169365852Y-59623357D01*
X169279446Y-59879841D01*
X170180000Y-60780395D01*
X170194143Y-60766253D01*
X170373748Y-60945858D01*
X170359605Y-60960000D01*
X170373748Y-60974143D01*
X170194143Y-61153748D01*
X170180000Y-61139605D01*
X169279446Y-62040159D01*
X169365852Y-62296643D01*
X169939336Y-62506458D01*
X170549460Y-62480839D01*
X170994148Y-62296643D01*
X171080553Y-62040161D01*
X171085000Y-62044608D01*
X171085000Y-77332761D01*
X163716120Y-69963880D01*
X163185688Y-69609457D01*
X162560000Y-69484999D01*
X162559995Y-69485000D01*
X132080005Y-69485000D01*
X132080000Y-69484999D01*
X131454313Y-69609457D01*
X130923880Y-69963880D01*
X130923878Y-69963883D01*
X127113880Y-73773880D01*
X126759457Y-74304312D01*
X126634999Y-74930000D01*
X126635000Y-74930005D01*
X126635000Y-78062761D01*
X125052760Y-79645000D01*
X122597239Y-79645000D01*
X121015000Y-78062760D01*
X121015000Y-77793795D01*
X122824716Y-77793795D01*
X123073106Y-78394943D01*
X123532637Y-78855278D01*
X124133352Y-79104716D01*
X124783795Y-79105284D01*
X125384943Y-78856894D01*
X125845278Y-78397363D01*
X126094716Y-77796648D01*
X126095284Y-77146205D01*
X126095000Y-77145518D01*
X126095000Y-74337240D01*
X133236117Y-67196122D01*
X133236120Y-67196120D01*
X133590543Y-66665687D01*
X133715000Y-66040000D01*
X133715000Y-60960000D01*
X133667129Y-60719336D01*
X168633542Y-60719336D01*
X168659161Y-61329460D01*
X168843357Y-61774148D01*
X169099841Y-61860554D01*
X170000395Y-60960000D01*
X169099841Y-60059446D01*
X168843357Y-60145852D01*
X168633542Y-60719336D01*
X133667129Y-60719336D01*
X133627440Y-60519807D01*
X133627440Y-60060000D01*
X133583162Y-59824683D01*
X133444090Y-59608559D01*
X133231890Y-59463569D01*
X132980000Y-59412560D01*
X132520193Y-59412560D01*
X132080000Y-59325000D01*
X131639807Y-59412560D01*
X131180000Y-59412560D01*
X130944683Y-59456838D01*
X130728559Y-59595910D01*
X130589402Y-59799574D01*
X130555110Y-59765282D01*
X130440553Y-59879839D01*
X130354148Y-59623357D01*
X129780664Y-59413542D01*
X129170540Y-59439161D01*
X128725852Y-59623357D01*
X128639446Y-59879841D01*
X129540000Y-60780395D01*
X129554143Y-60766253D01*
X129733748Y-60945858D01*
X129719605Y-60960000D01*
X129733748Y-60974143D01*
X129554143Y-61153748D01*
X129540000Y-61139605D01*
X128639446Y-62040159D01*
X128725852Y-62296643D01*
X129299336Y-62506458D01*
X129909460Y-62480839D01*
X130354148Y-62296643D01*
X130440553Y-62040161D01*
X130445000Y-62044608D01*
X130445000Y-65362761D01*
X123303880Y-72503880D01*
X122949457Y-73034312D01*
X122824999Y-73660000D01*
X122825000Y-73660005D01*
X122825000Y-77468574D01*
X122824716Y-77793795D01*
X121015000Y-77793795D01*
X121015000Y-77471427D01*
X121015284Y-77146205D01*
X120766894Y-76545057D01*
X120307363Y-76084722D01*
X119706648Y-75835284D01*
X119056205Y-75834716D01*
X118455057Y-76083106D01*
X117994722Y-76542637D01*
X117745284Y-77143352D01*
X117744716Y-77793795D01*
X117745000Y-77794482D01*
X117745000Y-78739995D01*
X117744999Y-78740000D01*
X117869457Y-79365688D01*
X118223880Y-79896120D01*
X120763878Y-82436117D01*
X120763880Y-82436120D01*
X121294313Y-82790543D01*
X121920000Y-82915000D01*
X125729995Y-82915000D01*
X125730000Y-82915001D01*
X126355688Y-82790543D01*
X126886120Y-82436120D01*
X129426117Y-79896122D01*
X129426120Y-79896120D01*
X129780543Y-79365687D01*
X129905000Y-78740000D01*
X129905000Y-77755750D01*
X130445000Y-77755750D01*
X130445000Y-78596310D01*
X130541673Y-78829699D01*
X130720302Y-79008327D01*
X130953691Y-79105000D01*
X131794250Y-79105000D01*
X131953000Y-78946250D01*
X131953000Y-77597000D01*
X132207000Y-77597000D01*
X132207000Y-78946250D01*
X132365750Y-79105000D01*
X133206309Y-79105000D01*
X133439698Y-79008327D01*
X133618327Y-78829699D01*
X133715000Y-78596310D01*
X133715000Y-77755750D01*
X133556250Y-77597000D01*
X132207000Y-77597000D01*
X131953000Y-77597000D01*
X130603750Y-77597000D01*
X130445000Y-77755750D01*
X129905000Y-77755750D01*
X129905000Y-76343690D01*
X130445000Y-76343690D01*
X130445000Y-77184250D01*
X130603750Y-77343000D01*
X131953000Y-77343000D01*
X131953000Y-75993750D01*
X132207000Y-75993750D01*
X132207000Y-77343000D01*
X133556250Y-77343000D01*
X133715000Y-77184250D01*
X133715000Y-76564742D01*
X135668954Y-76564742D01*
X135922034Y-77107576D01*
X136363583Y-77512240D01*
X136795260Y-77691036D01*
X137033000Y-77570378D01*
X137033000Y-76327000D01*
X137287000Y-76327000D01*
X137287000Y-77570378D01*
X137524740Y-77691036D01*
X137956417Y-77512240D01*
X138397966Y-77107576D01*
X138651046Y-76564742D01*
X138530997Y-76327000D01*
X137287000Y-76327000D01*
X137033000Y-76327000D01*
X135789003Y-76327000D01*
X135668954Y-76564742D01*
X133715000Y-76564742D01*
X133715000Y-76343690D01*
X133618327Y-76110301D01*
X133439698Y-75931673D01*
X133206932Y-75835258D01*
X135668954Y-75835258D01*
X135789003Y-76073000D01*
X137033000Y-76073000D01*
X137033000Y-74829622D01*
X137287000Y-74829622D01*
X137287000Y-76073000D01*
X138530997Y-76073000D01*
X138651046Y-75835258D01*
X138397966Y-75292424D01*
X137956417Y-74887760D01*
X137524740Y-74708964D01*
X137287000Y-74829622D01*
X137033000Y-74829622D01*
X136795260Y-74708964D01*
X136363583Y-74887760D01*
X135922034Y-75292424D01*
X135668954Y-75835258D01*
X133206932Y-75835258D01*
X133206309Y-75835000D01*
X132365750Y-75835000D01*
X132207000Y-75993750D01*
X131953000Y-75993750D01*
X131794250Y-75835000D01*
X130953691Y-75835000D01*
X130720302Y-75931673D01*
X130541673Y-76110301D01*
X130445000Y-76343690D01*
X129905000Y-76343690D01*
X129905000Y-75607240D01*
X132757239Y-72755000D01*
X161882760Y-72755000D01*
X164308982Y-75181222D01*
X164264346Y-75151397D01*
X163830000Y-75065000D01*
X161523222Y-75065000D01*
X161523162Y-75064683D01*
X161384090Y-74848559D01*
X161171890Y-74703569D01*
X160920000Y-74652560D01*
X159120000Y-74652560D01*
X158884683Y-74696838D01*
X158668559Y-74835910D01*
X158523569Y-75048110D01*
X158472560Y-75300000D01*
X158472560Y-77100000D01*
X158516838Y-77335317D01*
X158655910Y-77551441D01*
X158868110Y-77696431D01*
X158885000Y-77699851D01*
X158885000Y-80809868D01*
X156969868Y-82725000D01*
X155834606Y-82725000D01*
X155753923Y-82644176D01*
X155226691Y-82425250D01*
X154655813Y-82424752D01*
X154128200Y-82642757D01*
X154045813Y-82725000D01*
X150370132Y-82725000D01*
X148122566Y-80477434D01*
X148024082Y-80411629D01*
X147754346Y-80231397D01*
X147320000Y-80145000D01*
X130810000Y-80145000D01*
X130375659Y-80231396D01*
X130375654Y-80231397D01*
X130007433Y-80477434D01*
X127467434Y-83017434D01*
X127221397Y-83385654D01*
X127135000Y-83820000D01*
X127135000Y-87159867D01*
X125259868Y-89035000D01*
X112230133Y-89035000D01*
X110355000Y-87159868D01*
X110355000Y-85413795D01*
X112664716Y-85413795D01*
X112913106Y-86014943D01*
X113372637Y-86475278D01*
X113973352Y-86724716D01*
X114623795Y-86725284D01*
X115224943Y-86476894D01*
X115685278Y-86017363D01*
X115934716Y-85416648D01*
X115934718Y-85413795D01*
X117744716Y-85413795D01*
X117993106Y-86014943D01*
X118452637Y-86475278D01*
X119053352Y-86724716D01*
X119703795Y-86725284D01*
X120304943Y-86476894D01*
X120765278Y-86017363D01*
X121014716Y-85416648D01*
X121014718Y-85413795D01*
X122824716Y-85413795D01*
X123073106Y-86014943D01*
X123532637Y-86475278D01*
X124133352Y-86724716D01*
X124783795Y-86725284D01*
X125384943Y-86476894D01*
X125845278Y-86017363D01*
X126094716Y-85416648D01*
X126095284Y-84766205D01*
X125846894Y-84165057D01*
X125387363Y-83704722D01*
X124786648Y-83455284D01*
X124136205Y-83454716D01*
X123535057Y-83703106D01*
X123074722Y-84162637D01*
X122825284Y-84763352D01*
X122824716Y-85413795D01*
X121014718Y-85413795D01*
X121015284Y-84766205D01*
X120766894Y-84165057D01*
X120307363Y-83704722D01*
X119706648Y-83455284D01*
X119056205Y-83454716D01*
X118455057Y-83703106D01*
X117994722Y-84162637D01*
X117745284Y-84763352D01*
X117744716Y-85413795D01*
X115934718Y-85413795D01*
X115935284Y-84766205D01*
X115686894Y-84165057D01*
X115227363Y-83704722D01*
X114626648Y-83455284D01*
X113976205Y-83454716D01*
X113375057Y-83703106D01*
X112914722Y-84162637D01*
X112665284Y-84763352D01*
X112664716Y-85413795D01*
X110355000Y-85413795D01*
X110355000Y-77793795D01*
X112664716Y-77793795D01*
X112913106Y-78394943D01*
X113372637Y-78855278D01*
X113973352Y-79104716D01*
X114623795Y-79105284D01*
X115224943Y-78856894D01*
X115685278Y-78397363D01*
X115934716Y-77796648D01*
X115935284Y-77146205D01*
X115935000Y-77145518D01*
X115935000Y-74337240D01*
X123076117Y-67196122D01*
X123076120Y-67196120D01*
X123430543Y-66665687D01*
X123555000Y-66040000D01*
X123555000Y-60960000D01*
X123507129Y-60719336D01*
X127993542Y-60719336D01*
X128019161Y-61329460D01*
X128203357Y-61774148D01*
X128459841Y-61860554D01*
X129360395Y-60960000D01*
X128459841Y-60059446D01*
X128203357Y-60145852D01*
X127993542Y-60719336D01*
X123507129Y-60719336D01*
X123467440Y-60519807D01*
X123467440Y-60060000D01*
X123423162Y-59824683D01*
X123284090Y-59608559D01*
X123071890Y-59463569D01*
X122820000Y-59412560D01*
X122360193Y-59412560D01*
X121920000Y-59325000D01*
X121479807Y-59412560D01*
X121020000Y-59412560D01*
X120784683Y-59456838D01*
X120568559Y-59595910D01*
X120429402Y-59799574D01*
X120395110Y-59765282D01*
X120280553Y-59879839D01*
X120194148Y-59623357D01*
X119620664Y-59413542D01*
X119010540Y-59439161D01*
X118565852Y-59623357D01*
X118479446Y-59879841D01*
X119380000Y-60780395D01*
X119394143Y-60766253D01*
X119573748Y-60945858D01*
X119559605Y-60960000D01*
X119573748Y-60974143D01*
X119394143Y-61153748D01*
X119380000Y-61139605D01*
X118479446Y-62040159D01*
X118565852Y-62296643D01*
X119139336Y-62506458D01*
X119749460Y-62480839D01*
X120194148Y-62296643D01*
X120280553Y-62040161D01*
X120285000Y-62044608D01*
X120285000Y-65362761D01*
X113143880Y-72503880D01*
X112789457Y-73034312D01*
X112664999Y-73660000D01*
X112665000Y-73660005D01*
X112665000Y-77468574D01*
X112664716Y-77793795D01*
X110355000Y-77793795D01*
X110355000Y-77470000D01*
X110268603Y-77035654D01*
X110140753Y-76844313D01*
X110022566Y-76667433D01*
X107482566Y-74127434D01*
X107433046Y-74094346D01*
X107114346Y-73881397D01*
X106680000Y-73795000D01*
X102870000Y-73795000D01*
X102435654Y-73881397D01*
X102067433Y-74127434D01*
X99527435Y-76667433D01*
X99527434Y-76667434D01*
X99281397Y-77035654D01*
X99195000Y-77470000D01*
X99195000Y-78670982D01*
X99078559Y-78745910D01*
X98933569Y-78958110D01*
X98882560Y-79210000D01*
X98882560Y-80810000D01*
X98926838Y-81045317D01*
X99065910Y-81261441D01*
X99195000Y-81349644D01*
X99195000Y-82079867D01*
X96987434Y-84287434D01*
X96741397Y-84655654D01*
X96655000Y-85090000D01*
X96655000Y-87396778D01*
X96654683Y-87396838D01*
X96438559Y-87535910D01*
X96293569Y-87748110D01*
X96242560Y-88000000D01*
X92150000Y-88000000D01*
X92150000Y-60422815D01*
X97864630Y-60422815D01*
X98188980Y-61207800D01*
X98789041Y-61808909D01*
X99573459Y-62134628D01*
X100422815Y-62135370D01*
X101207800Y-61811020D01*
X101808909Y-61210959D01*
X102013048Y-60719336D01*
X117833542Y-60719336D01*
X117859161Y-61329460D01*
X118043357Y-61774148D01*
X118299841Y-61860554D01*
X119200395Y-60960000D01*
X118299841Y-60059446D01*
X118043357Y-60145852D01*
X117833542Y-60719336D01*
X102013048Y-60719336D01*
X102134628Y-60426541D01*
X102135370Y-59577185D01*
X101811020Y-58792200D01*
X101210959Y-58191091D01*
X100426541Y-57865372D01*
X99577185Y-57864630D01*
X98792200Y-58188980D01*
X98191091Y-58789041D01*
X97865372Y-59573459D01*
X97864630Y-60422815D01*
X92150000Y-60422815D01*
X92150000Y-51510000D01*
X212650000Y-51510000D01*
X212650000Y-126290000D01*
X212650000Y-126290000D01*
G37*
X212650000Y-126290000D02*
X92150000Y-126290000D01*
X92150000Y-120422815D01*
X97864630Y-120422815D01*
X98188980Y-121207800D01*
X98789041Y-121808909D01*
X99573459Y-122134628D01*
X100422815Y-122135370D01*
X101207800Y-121811020D01*
X101808909Y-121210959D01*
X102134628Y-120426541D01*
X102134631Y-120422815D01*
X202864630Y-120422815D01*
X203188980Y-121207800D01*
X203789041Y-121808909D01*
X204573459Y-122134628D01*
X205422815Y-122135370D01*
X206207800Y-121811020D01*
X206808909Y-121210959D01*
X207134628Y-120426541D01*
X207135370Y-119577185D01*
X206811020Y-118792200D01*
X206210959Y-118191091D01*
X205426541Y-117865372D01*
X204577185Y-117864630D01*
X203792200Y-118188980D01*
X203191091Y-118789041D01*
X202865372Y-119573459D01*
X202864630Y-120422815D01*
X102134631Y-120422815D01*
X102135370Y-119577185D01*
X101811020Y-118792200D01*
X101210959Y-118191091D01*
X100426541Y-117865372D01*
X99577185Y-117864630D01*
X98792200Y-118188980D01*
X98191091Y-118789041D01*
X97865372Y-119573459D01*
X97864630Y-120422815D01*
X92150000Y-120422815D01*
X92150000Y-88000000D01*
X96242560Y-88000000D01*
X96242560Y-89800000D01*
X96286838Y-90035317D01*
X96425910Y-90251441D01*
X96638110Y-90396431D01*
X96655000Y-90399851D01*
X96655000Y-95016778D01*
X96654683Y-95016838D01*
X96438559Y-95155910D01*
X96293569Y-95368110D01*
X96242560Y-95620000D01*
X96242560Y-97420000D01*
X96286838Y-97655317D01*
X96425910Y-97871441D01*
X96638110Y-98016431D01*
X96655000Y-98019851D01*
X96655000Y-102636778D01*
X96654683Y-102636838D01*
X96438559Y-102775910D01*
X96293569Y-102988110D01*
X96242560Y-103240000D01*
X96242560Y-105040000D01*
X96286838Y-105275317D01*
X96425910Y-105491441D01*
X96638110Y-105636431D01*
X96655000Y-105639851D01*
X96655000Y-110256778D01*
X96654683Y-110256838D01*
X96438559Y-110395910D01*
X96293569Y-110608110D01*
X96242560Y-110860000D01*
X96242560Y-112660000D01*
X96286838Y-112895317D01*
X96425910Y-113111441D01*
X96638110Y-113256431D01*
X96890000Y-113307440D01*
X98690000Y-113307440D01*
X98925317Y-113263162D01*
X99141441Y-113124090D01*
X99280598Y-112920426D01*
X99314890Y-112954718D01*
X99429447Y-112840161D01*
X99515852Y-113096643D01*
X100089336Y-113306458D01*
X100699460Y-113280839D01*
X101144148Y-113096643D01*
X101230554Y-112840159D01*
X100330000Y-111939605D01*
X100315858Y-111953748D01*
X100136253Y-111774143D01*
X100150395Y-111760000D01*
X100509605Y-111760000D01*
X101410159Y-112660554D01*
X101666643Y-112574148D01*
X101876458Y-112000664D01*
X101850839Y-111390540D01*
X101666643Y-110945852D01*
X101411804Y-110860000D01*
X159742560Y-110860000D01*
X159742560Y-112660000D01*
X159786838Y-112895317D01*
X159925910Y-113111441D01*
X160138110Y-113256431D01*
X160390000Y-113307440D01*
X162190000Y-113307440D01*
X162425317Y-113263162D01*
X162641441Y-113124090D01*
X162780598Y-112920426D01*
X162814890Y-112954718D01*
X162929447Y-112840161D01*
X163015852Y-113096643D01*
X163589336Y-113306458D01*
X164199460Y-113280839D01*
X164644148Y-113096643D01*
X164730554Y-112840159D01*
X163830000Y-111939605D01*
X163815858Y-111953748D01*
X163636253Y-111774143D01*
X163650395Y-111760000D01*
X164009605Y-111760000D01*
X164910159Y-112660554D01*
X165166643Y-112574148D01*
X165376458Y-112000664D01*
X165350839Y-111390540D01*
X165166643Y-110945852D01*
X164911804Y-110860000D01*
X174982560Y-110860000D01*
X174982560Y-112660000D01*
X175026838Y-112895317D01*
X175165910Y-113111441D01*
X175378110Y-113256431D01*
X175630000Y-113307440D01*
X177430000Y-113307440D01*
X177665317Y-113263162D01*
X177881441Y-113124090D01*
X178026431Y-112911890D01*
X178030567Y-112891466D01*
X178199357Y-113060551D01*
X178763330Y-113294733D01*
X179373991Y-113295265D01*
X179938371Y-113062068D01*
X180160668Y-112840159D01*
X180709446Y-112840159D01*
X180795852Y-113096643D01*
X181369336Y-113306458D01*
X181979460Y-113280839D01*
X182424148Y-113096643D01*
X182510554Y-112840159D01*
X181610000Y-111939605D01*
X180709446Y-112840159D01*
X180160668Y-112840159D01*
X180370551Y-112630643D01*
X180379203Y-112609806D01*
X180529841Y-112660554D01*
X181430395Y-111760000D01*
X181789605Y-111760000D01*
X182690159Y-112660554D01*
X182946643Y-112574148D01*
X183156458Y-112000664D01*
X183130839Y-111390540D01*
X182946643Y-110945852D01*
X182690159Y-110859446D01*
X181789605Y-111760000D01*
X181430395Y-111760000D01*
X180529841Y-110859446D01*
X180379673Y-110910035D01*
X180372068Y-110891629D01*
X180205000Y-110724269D01*
X180205000Y-110679841D01*
X180709446Y-110679841D01*
X181610000Y-111580395D01*
X182510554Y-110679841D01*
X182424148Y-110423357D01*
X181850664Y-110213542D01*
X181240540Y-110239161D01*
X180795852Y-110423357D01*
X180709446Y-110679841D01*
X180205000Y-110679841D01*
X180205000Y-107150132D01*
X181142566Y-106212566D01*
X181388603Y-105844346D01*
X181475000Y-105410000D01*
X181475000Y-103617807D01*
X181674768Y-103136713D01*
X181675231Y-102605617D01*
X181472418Y-102114771D01*
X181097204Y-101738902D01*
X180606713Y-101535232D01*
X180075617Y-101534769D01*
X179584771Y-101737582D01*
X179208902Y-102112796D01*
X179005232Y-102603287D01*
X179004769Y-103134383D01*
X179205000Y-103618980D01*
X179205000Y-104939868D01*
X178267434Y-105877434D01*
X178021397Y-106245654D01*
X177935000Y-106680000D01*
X177935000Y-110472135D01*
X177894090Y-110408559D01*
X177681890Y-110263569D01*
X177665000Y-110260149D01*
X177665000Y-103617807D01*
X177864768Y-103136713D01*
X177865231Y-102605617D01*
X177662418Y-102114771D01*
X177287204Y-101738902D01*
X176796713Y-101535232D01*
X176265617Y-101534769D01*
X175774771Y-101737582D01*
X175398902Y-102112796D01*
X175195232Y-102603287D01*
X175194769Y-103134383D01*
X175395000Y-103618980D01*
X175395000Y-110256778D01*
X175394683Y-110256838D01*
X175178559Y-110395910D01*
X175033569Y-110608110D01*
X174982560Y-110860000D01*
X164911804Y-110860000D01*
X164910159Y-110859446D01*
X164009605Y-111760000D01*
X163650395Y-111760000D01*
X163636253Y-111745858D01*
X163815858Y-111566253D01*
X163830000Y-111580395D01*
X164730554Y-110679841D01*
X164644148Y-110423357D01*
X164070664Y-110213542D01*
X163460540Y-110239161D01*
X163015852Y-110423357D01*
X162929447Y-110679839D01*
X162814890Y-110565282D01*
X162778412Y-110601760D01*
X162654090Y-110408559D01*
X162441890Y-110263569D01*
X162425000Y-110260149D01*
X162425000Y-107364271D01*
X162523379Y-107217036D01*
X162625000Y-106706154D01*
X162625000Y-106653846D01*
X162523379Y-106142964D01*
X162233988Y-105709858D01*
X161800882Y-105420467D01*
X161290000Y-105318846D01*
X160779118Y-105420467D01*
X160346012Y-105709858D01*
X160056621Y-106142964D01*
X159955000Y-106653846D01*
X159955000Y-106706154D01*
X160056621Y-107217036D01*
X160155000Y-107364271D01*
X160155000Y-110256778D01*
X160154683Y-110256838D01*
X159938559Y-110395910D01*
X159793569Y-110608110D01*
X159742560Y-110860000D01*
X101411804Y-110860000D01*
X101410159Y-110859446D01*
X100509605Y-111760000D01*
X100150395Y-111760000D01*
X100136253Y-111745858D01*
X100315858Y-111566253D01*
X100330000Y-111580395D01*
X101230554Y-110679841D01*
X101144148Y-110423357D01*
X100570664Y-110213542D01*
X99960540Y-110239161D01*
X99515852Y-110423357D01*
X99429447Y-110679839D01*
X99314890Y-110565282D01*
X99278412Y-110601760D01*
X99154090Y-110408559D01*
X98941890Y-110263569D01*
X98925000Y-110260149D01*
X98925000Y-105643222D01*
X98925317Y-105643162D01*
X99141441Y-105504090D01*
X99280598Y-105300426D01*
X99314890Y-105334718D01*
X99429447Y-105220161D01*
X99515852Y-105476643D01*
X100089336Y-105686458D01*
X100699460Y-105660839D01*
X101144148Y-105476643D01*
X101230554Y-105220159D01*
X100330000Y-104319605D01*
X100315858Y-104333748D01*
X100136253Y-104154143D01*
X100150395Y-104140000D01*
X100509605Y-104140000D01*
X101410159Y-105040554D01*
X101666643Y-104954148D01*
X101876458Y-104380664D01*
X101850839Y-103770540D01*
X101666643Y-103325852D01*
X101410159Y-103239446D01*
X100509605Y-104140000D01*
X100150395Y-104140000D01*
X100136253Y-104125858D01*
X100315858Y-103946253D01*
X100330000Y-103960395D01*
X101230554Y-103059841D01*
X101144148Y-102803357D01*
X100570664Y-102593542D01*
X99960540Y-102619161D01*
X99515852Y-102803357D01*
X99429447Y-103059839D01*
X99314890Y-102945282D01*
X99278412Y-102981760D01*
X99154090Y-102788559D01*
X98941890Y-102643569D01*
X98925000Y-102640149D01*
X98925000Y-98023222D01*
X98925317Y-98023162D01*
X99141441Y-97884090D01*
X99280598Y-97680426D01*
X99314890Y-97714718D01*
X99429447Y-97600161D01*
X99515852Y-97856643D01*
X100089336Y-98066458D01*
X100699460Y-98040839D01*
X101144148Y-97856643D01*
X101230554Y-97600159D01*
X100330000Y-96699605D01*
X100315858Y-96713748D01*
X100136253Y-96534143D01*
X100150395Y-96520000D01*
X100509605Y-96520000D01*
X101410159Y-97420554D01*
X101666643Y-97334148D01*
X101876458Y-96760664D01*
X101850839Y-96150540D01*
X101666643Y-95705852D01*
X101410159Y-95619446D01*
X100509605Y-96520000D01*
X100150395Y-96520000D01*
X100136253Y-96505858D01*
X100315858Y-96326253D01*
X100330000Y-96340395D01*
X101230554Y-95439841D01*
X101144148Y-95183357D01*
X100570664Y-94973542D01*
X99960540Y-94999161D01*
X99515852Y-95183357D01*
X99429447Y-95439839D01*
X99314890Y-95325282D01*
X99278412Y-95361760D01*
X99154090Y-95168559D01*
X98941890Y-95023569D01*
X98925000Y-95020149D01*
X98925000Y-90403222D01*
X98925317Y-90403162D01*
X99141441Y-90264090D01*
X99280598Y-90060426D01*
X99314890Y-90094718D01*
X99429447Y-89980161D01*
X99515852Y-90236643D01*
X100089336Y-90446458D01*
X100699460Y-90420839D01*
X101144148Y-90236643D01*
X101230554Y-89980159D01*
X100330000Y-89079605D01*
X100315858Y-89093748D01*
X100136253Y-88914143D01*
X100150395Y-88900000D01*
X100509605Y-88900000D01*
X101410159Y-89800554D01*
X101666643Y-89714148D01*
X101876458Y-89140664D01*
X101850839Y-88530540D01*
X101666643Y-88085852D01*
X101410159Y-87999446D01*
X100509605Y-88900000D01*
X100150395Y-88900000D01*
X100136253Y-88885858D01*
X100315858Y-88706253D01*
X100330000Y-88720395D01*
X101230554Y-87819841D01*
X101144148Y-87563357D01*
X100570664Y-87353542D01*
X99960540Y-87379161D01*
X99515852Y-87563357D01*
X99429447Y-87819839D01*
X99314890Y-87705282D01*
X99278412Y-87741760D01*
X99154090Y-87548559D01*
X98941890Y-87403569D01*
X98925000Y-87400149D01*
X98925000Y-85560132D01*
X101132566Y-83352567D01*
X101378603Y-82984346D01*
X101465000Y-82550000D01*
X101465000Y-81349018D01*
X101581441Y-81274090D01*
X101726431Y-81061890D01*
X101735370Y-81017745D01*
X102001861Y-81017745D01*
X102075995Y-81263864D01*
X102613223Y-81456965D01*
X103183454Y-81429778D01*
X103584005Y-81263864D01*
X103658139Y-81017745D01*
X102830000Y-80189605D01*
X102001861Y-81017745D01*
X101735370Y-81017745D01*
X101774646Y-80823799D01*
X101822255Y-80838139D01*
X102650395Y-80010000D01*
X103009605Y-80010000D01*
X103837745Y-80838139D01*
X104083864Y-80764005D01*
X104276965Y-80226777D01*
X104249778Y-79656546D01*
X104083864Y-79255995D01*
X103837745Y-79181861D01*
X103009605Y-80010000D01*
X102650395Y-80010000D01*
X101822255Y-79181861D01*
X101774833Y-79196145D01*
X101738351Y-79002255D01*
X102001861Y-79002255D01*
X102830000Y-79830395D01*
X103658139Y-79002255D01*
X103584005Y-78756136D01*
X103046777Y-78563035D01*
X102476546Y-78590222D01*
X102075995Y-78756136D01*
X102001861Y-79002255D01*
X101738351Y-79002255D01*
X101733162Y-78974683D01*
X101594090Y-78758559D01*
X101465000Y-78670356D01*
X101465000Y-77940132D01*
X103340133Y-76065000D01*
X106209868Y-76065000D01*
X108085000Y-77940133D01*
X108085000Y-87630000D01*
X108171397Y-88064346D01*
X108185767Y-88085852D01*
X108417434Y-88432566D01*
X110957433Y-90972566D01*
X111257834Y-91173287D01*
X111325654Y-91218603D01*
X111760000Y-91305000D01*
X125730000Y-91305000D01*
X126164346Y-91218603D01*
X126532566Y-90972566D01*
X129072566Y-88432567D01*
X129318603Y-88064346D01*
X129346306Y-87925072D01*
X129405000Y-87630000D01*
X129405000Y-85413795D01*
X130444716Y-85413795D01*
X130693106Y-86014943D01*
X131152637Y-86475278D01*
X131753352Y-86724716D01*
X132109895Y-86725027D01*
X132547434Y-87162566D01*
X132915654Y-87408603D01*
X133350000Y-87495000D01*
X135656778Y-87495000D01*
X135656838Y-87495317D01*
X135795910Y-87711441D01*
X136008110Y-87856431D01*
X136260000Y-87907440D01*
X138060000Y-87907440D01*
X138295317Y-87863162D01*
X138511441Y-87724090D01*
X138656431Y-87511890D01*
X138659851Y-87495000D01*
X141345394Y-87495000D01*
X141426077Y-87575824D01*
X141953309Y-87794750D01*
X142069720Y-87794852D01*
X157947434Y-103672566D01*
X158315654Y-103918603D01*
X158750000Y-104005000D01*
X170180000Y-104005000D01*
X170614346Y-103918603D01*
X170982566Y-103672566D01*
X174460132Y-100195000D01*
X182880000Y-100195000D01*
X183314346Y-100108603D01*
X183682566Y-99862566D01*
X186222566Y-97322567D01*
X186468603Y-96954346D01*
X186494532Y-96823991D01*
X186555000Y-96520000D01*
X186555000Y-90170000D01*
X186468603Y-89735654D01*
X186446494Y-89702566D01*
X186222566Y-89367433D01*
X184015000Y-87159868D01*
X184015000Y-86267204D01*
X184057278Y-86225000D01*
X194445000Y-86225000D01*
X194445000Y-87396778D01*
X194444683Y-87396838D01*
X194228559Y-87535910D01*
X194083569Y-87748110D01*
X194032560Y-88000000D01*
X194032560Y-89800000D01*
X194076838Y-90035317D01*
X194215910Y-90251441D01*
X194428110Y-90396431D01*
X194445000Y-90399851D01*
X194445000Y-95016778D01*
X194444683Y-95016838D01*
X194228559Y-95155910D01*
X194083569Y-95368110D01*
X194032560Y-95620000D01*
X194032560Y-97420000D01*
X194076838Y-97655317D01*
X194215910Y-97871441D01*
X194428110Y-98016431D01*
X194445000Y-98019851D01*
X194445000Y-101600000D01*
X194531397Y-102034346D01*
X194777434Y-102402566D01*
X197317433Y-104942566D01*
X197463254Y-105040000D01*
X197685654Y-105188603D01*
X198120000Y-105275000D01*
X199156778Y-105275000D01*
X199156838Y-105275317D01*
X199295910Y-105491441D01*
X199508110Y-105636431D01*
X199525000Y-105639851D01*
X199525000Y-110256778D01*
X199524683Y-110256838D01*
X199308559Y-110395910D01*
X199163569Y-110608110D01*
X199112560Y-110860000D01*
X199112560Y-112660000D01*
X199156838Y-112895317D01*
X199295910Y-113111441D01*
X199508110Y-113256431D01*
X199760000Y-113307440D01*
X201560000Y-113307440D01*
X201795317Y-113263162D01*
X202011441Y-113124090D01*
X202150598Y-112920426D01*
X202184890Y-112954718D01*
X202299447Y-112840161D01*
X202385852Y-113096643D01*
X202959336Y-113306458D01*
X203569460Y-113280839D01*
X204014148Y-113096643D01*
X204100554Y-112840159D01*
X203200000Y-111939605D01*
X203185858Y-111953748D01*
X203006253Y-111774143D01*
X203020395Y-111760000D01*
X203379605Y-111760000D01*
X204280159Y-112660554D01*
X204536643Y-112574148D01*
X204746458Y-112000664D01*
X204720839Y-111390540D01*
X204536643Y-110945852D01*
X204280159Y-110859446D01*
X203379605Y-111760000D01*
X203020395Y-111760000D01*
X203006253Y-111745858D01*
X203185858Y-111566253D01*
X203200000Y-111580395D01*
X204100554Y-110679841D01*
X204014148Y-110423357D01*
X203440664Y-110213542D01*
X202830540Y-110239161D01*
X202385852Y-110423357D01*
X202299447Y-110679839D01*
X202184890Y-110565282D01*
X202148412Y-110601760D01*
X202024090Y-110408559D01*
X201811890Y-110263569D01*
X201795000Y-110260149D01*
X201795000Y-105643222D01*
X201795317Y-105643162D01*
X202011441Y-105504090D01*
X202150598Y-105300426D01*
X202184890Y-105334718D01*
X202299447Y-105220161D01*
X202385852Y-105476643D01*
X202959336Y-105686458D01*
X203569460Y-105660839D01*
X204014148Y-105476643D01*
X204100554Y-105220159D01*
X203200000Y-104319605D01*
X203185858Y-104333748D01*
X203006253Y-104154143D01*
X203020395Y-104140000D01*
X203379605Y-104140000D01*
X204280159Y-105040554D01*
X204536643Y-104954148D01*
X204746458Y-104380664D01*
X204720839Y-103770540D01*
X204536643Y-103325852D01*
X204280159Y-103239446D01*
X203379605Y-104140000D01*
X203020395Y-104140000D01*
X203006253Y-104125858D01*
X203185858Y-103946253D01*
X203200000Y-103960395D01*
X204100554Y-103059841D01*
X204014148Y-102803357D01*
X203440664Y-102593542D01*
X202830540Y-102619161D01*
X202385852Y-102803357D01*
X202299447Y-103059839D01*
X202184890Y-102945282D01*
X202148412Y-102981760D01*
X202024090Y-102788559D01*
X201811890Y-102643569D01*
X201560000Y-102592560D01*
X199760000Y-102592560D01*
X199524683Y-102636838D01*
X199308559Y-102775910D01*
X199163569Y-102988110D01*
X199160149Y-103005000D01*
X198590133Y-103005000D01*
X196715000Y-101129868D01*
X196715000Y-98023222D01*
X196715317Y-98023162D01*
X196931441Y-97884090D01*
X197076431Y-97671890D01*
X197080567Y-97651466D01*
X197249357Y-97820551D01*
X197813330Y-98054733D01*
X198423991Y-98055265D01*
X198988371Y-97822068D01*
X199210668Y-97600159D01*
X199759446Y-97600159D01*
X199845852Y-97856643D01*
X200419336Y-98066458D01*
X201029460Y-98040839D01*
X201474148Y-97856643D01*
X201560554Y-97600159D01*
X200660000Y-96699605D01*
X199759446Y-97600159D01*
X199210668Y-97600159D01*
X199420551Y-97390643D01*
X199429203Y-97369806D01*
X199579841Y-97420554D01*
X200480395Y-96520000D01*
X200839605Y-96520000D01*
X201740159Y-97420554D01*
X201996643Y-97334148D01*
X202206458Y-96760664D01*
X202180839Y-96150540D01*
X201996643Y-95705852D01*
X201740159Y-95619446D01*
X200839605Y-96520000D01*
X200480395Y-96520000D01*
X199579841Y-95619446D01*
X199429673Y-95670035D01*
X199422068Y-95651629D01*
X199255000Y-95484269D01*
X199255000Y-95439841D01*
X199759446Y-95439841D01*
X200660000Y-96340395D01*
X201560554Y-95439841D01*
X201474148Y-95183357D01*
X200900664Y-94973542D01*
X200290540Y-94999161D01*
X199845852Y-95183357D01*
X199759446Y-95439841D01*
X199255000Y-95439841D01*
X199255000Y-89980159D01*
X199759446Y-89980159D01*
X199845852Y-90236643D01*
X200419336Y-90446458D01*
X201029460Y-90420839D01*
X201474148Y-90236643D01*
X201560554Y-89980159D01*
X200660000Y-89079605D01*
X199759446Y-89980159D01*
X199255000Y-89980159D01*
X199255000Y-89935905D01*
X199420551Y-89770643D01*
X199429203Y-89749806D01*
X199579841Y-89800554D01*
X200480395Y-88900000D01*
X200839605Y-88900000D01*
X201740159Y-89800554D01*
X201996643Y-89714148D01*
X202206458Y-89140664D01*
X202180839Y-88530540D01*
X201996643Y-88085852D01*
X201740159Y-87999446D01*
X200839605Y-88900000D01*
X200480395Y-88900000D01*
X199579841Y-87999446D01*
X199429673Y-88050035D01*
X199422068Y-88031629D01*
X199255000Y-87864269D01*
X199255000Y-87819841D01*
X199759446Y-87819841D01*
X200660000Y-88720395D01*
X201560554Y-87819841D01*
X201474148Y-87563357D01*
X200900664Y-87353542D01*
X200290540Y-87379161D01*
X199845852Y-87563357D01*
X199759446Y-87819841D01*
X199255000Y-87819841D01*
X199255000Y-82360159D01*
X199759446Y-82360159D01*
X199845852Y-82616643D01*
X200419336Y-82826458D01*
X201029460Y-82800839D01*
X201474148Y-82616643D01*
X201560554Y-82360159D01*
X200660000Y-81459605D01*
X199759446Y-82360159D01*
X199255000Y-82360159D01*
X199255000Y-82315905D01*
X199420551Y-82150643D01*
X199429203Y-82129806D01*
X199579841Y-82180554D01*
X200480395Y-81280000D01*
X200839605Y-81280000D01*
X201740159Y-82180554D01*
X201996643Y-82094148D01*
X202206458Y-81520664D01*
X202180839Y-80910540D01*
X201996643Y-80465852D01*
X201740159Y-80379446D01*
X200839605Y-81280000D01*
X200480395Y-81280000D01*
X199579841Y-80379446D01*
X199429673Y-80430035D01*
X199422068Y-80411629D01*
X199255000Y-80244269D01*
X199255000Y-80199841D01*
X199759446Y-80199841D01*
X200660000Y-81100395D01*
X201560554Y-80199841D01*
X201474148Y-79943357D01*
X200900664Y-79733542D01*
X200290540Y-79759161D01*
X199845852Y-79943357D01*
X199759446Y-80199841D01*
X199255000Y-80199841D01*
X199255000Y-74740159D01*
X199759446Y-74740159D01*
X199845852Y-74996643D01*
X200419336Y-75206458D01*
X201029460Y-75180839D01*
X201474148Y-74996643D01*
X201560554Y-74740159D01*
X200660000Y-73839605D01*
X199759446Y-74740159D01*
X199255000Y-74740159D01*
X199255000Y-74695905D01*
X199420551Y-74530643D01*
X199429203Y-74509806D01*
X199579841Y-74560554D01*
X200480395Y-73660000D01*
X200839605Y-73660000D01*
X201740159Y-74560554D01*
X201996643Y-74474148D01*
X202206458Y-73900664D01*
X202180839Y-73290540D01*
X201996643Y-72845852D01*
X201740159Y-72759446D01*
X200839605Y-73660000D01*
X200480395Y-73660000D01*
X199579841Y-72759446D01*
X199429673Y-72810035D01*
X199422068Y-72791629D01*
X199255000Y-72624269D01*
X199255000Y-72579841D01*
X199759446Y-72579841D01*
X200660000Y-73480395D01*
X201560554Y-72579841D01*
X201474148Y-72323357D01*
X200900664Y-72113542D01*
X200290540Y-72139161D01*
X199845852Y-72323357D01*
X199759446Y-72579841D01*
X199255000Y-72579841D01*
X199255000Y-71120000D01*
X199168603Y-70685654D01*
X199040753Y-70494313D01*
X198922566Y-70317433D01*
X196382566Y-67777434D01*
X196014346Y-67531397D01*
X195580000Y-67445000D01*
X190500000Y-67445000D01*
X190065654Y-67531397D01*
X189697433Y-67777434D01*
X187157435Y-70317433D01*
X187157434Y-70317434D01*
X186911397Y-70685654D01*
X186825000Y-71120000D01*
X186825000Y-78269867D01*
X184949868Y-80145000D01*
X181610000Y-80145000D01*
X181175655Y-80231396D01*
X180807434Y-80477434D01*
X177829843Y-83455025D01*
X177476205Y-83454716D01*
X176875057Y-83703106D01*
X176414722Y-84162637D01*
X176165284Y-84763352D01*
X176164716Y-85413795D01*
X176413106Y-86014943D01*
X176665000Y-86267278D01*
X176665000Y-88900000D01*
X176751397Y-89334346D01*
X176773506Y-89367434D01*
X176997434Y-89702566D01*
X179205000Y-91910133D01*
X179205000Y-94565729D01*
X179106621Y-94712964D01*
X179005000Y-95223846D01*
X179005000Y-95276154D01*
X179106621Y-95787036D01*
X179396012Y-96220142D01*
X179829118Y-96509533D01*
X180340000Y-96611154D01*
X180850882Y-96509533D01*
X181283988Y-96220142D01*
X181573379Y-95787036D01*
X181675000Y-95276154D01*
X181675000Y-95223846D01*
X181573379Y-94712964D01*
X181475000Y-94565729D01*
X181475000Y-91440000D01*
X181388603Y-91005654D01*
X181174196Y-90684771D01*
X181142566Y-90637433D01*
X178935000Y-88429868D01*
X178935000Y-86267204D01*
X179185278Y-86017363D01*
X179434716Y-85416648D01*
X179435027Y-85060105D01*
X182080132Y-82415000D01*
X185420000Y-82415000D01*
X185854346Y-82328603D01*
X186222566Y-82082566D01*
X188762566Y-79542567D01*
X189008603Y-79174346D01*
X189042834Y-79002255D01*
X189095000Y-78740000D01*
X189095000Y-71590132D01*
X190970133Y-69715000D01*
X195109868Y-69715000D01*
X196985000Y-71590133D01*
X196985000Y-72372135D01*
X196944090Y-72308559D01*
X196731890Y-72163569D01*
X196480000Y-72112560D01*
X194680000Y-72112560D01*
X194444683Y-72156838D01*
X194228559Y-72295910D01*
X194083569Y-72508110D01*
X194032560Y-72760000D01*
X194032560Y-74560000D01*
X194076838Y-74795317D01*
X194215910Y-75011441D01*
X194428110Y-75156431D01*
X194445000Y-75159851D01*
X194445000Y-79776778D01*
X194444683Y-79776838D01*
X194228559Y-79915910D01*
X194083569Y-80128110D01*
X194032560Y-80380000D01*
X194032560Y-82180000D01*
X194076838Y-82415317D01*
X194215910Y-82631441D01*
X194428110Y-82776431D01*
X194445000Y-82779851D01*
X194445000Y-83955000D01*
X184057204Y-83955000D01*
X183807363Y-83704722D01*
X183206648Y-83455284D01*
X182556205Y-83454716D01*
X181955057Y-83703106D01*
X181494722Y-84162637D01*
X181245284Y-84763352D01*
X181244716Y-85413795D01*
X181493106Y-86014943D01*
X181745000Y-86267278D01*
X181745000Y-87630000D01*
X181831397Y-88064346D01*
X181845767Y-88085852D01*
X182077434Y-88432566D01*
X184285000Y-90640133D01*
X184285000Y-96049867D01*
X182409868Y-97925000D01*
X177665000Y-97925000D01*
X177665000Y-95934271D01*
X177763379Y-95787036D01*
X177865000Y-95276154D01*
X177865000Y-95223846D01*
X177763379Y-94712964D01*
X177473988Y-94279858D01*
X177040882Y-93990467D01*
X176530000Y-93888846D01*
X176019118Y-93990467D01*
X175586012Y-94279858D01*
X175296621Y-94712964D01*
X175195000Y-95223846D01*
X175195000Y-95276154D01*
X175296621Y-95787036D01*
X175395000Y-95934271D01*
X175395000Y-97925000D01*
X173990000Y-97925000D01*
X173555655Y-98011396D01*
X173187434Y-98257434D01*
X169709868Y-101735000D01*
X159220132Y-101735000D01*
X151782741Y-94297609D01*
X158626538Y-94297609D01*
X158632526Y-94340161D01*
X158860745Y-94767172D01*
X159235002Y-95074343D01*
X159698319Y-95214910D01*
X159893000Y-95059991D01*
X159893000Y-94107000D01*
X158751269Y-94107000D01*
X158626538Y-94297609D01*
X151782741Y-94297609D01*
X151147523Y-93662391D01*
X158626538Y-93662391D01*
X158751269Y-93853000D01*
X159893000Y-93853000D01*
X159893000Y-92900009D01*
X159698319Y-92745090D01*
X159235002Y-92885657D01*
X158860745Y-93192828D01*
X158632526Y-93619839D01*
X158626538Y-93662391D01*
X151147523Y-93662391D01*
X143675148Y-86190016D01*
X143675248Y-86075813D01*
X143457243Y-85548200D01*
X143053923Y-85144176D01*
X142987456Y-85116577D01*
X142994005Y-85113864D01*
X143068139Y-84867745D01*
X142240000Y-84039605D01*
X141411861Y-84867745D01*
X141485995Y-85113864D01*
X141492483Y-85116196D01*
X141428200Y-85142757D01*
X141345813Y-85225000D01*
X138663222Y-85225000D01*
X138663162Y-85224683D01*
X138524090Y-85008559D01*
X138311890Y-84863569D01*
X138060000Y-84812560D01*
X136260000Y-84812560D01*
X136024683Y-84856838D01*
X135808559Y-84995910D01*
X135663569Y-85208110D01*
X135660149Y-85225000D01*
X133820132Y-85225000D01*
X133714975Y-85119843D01*
X133715284Y-84766205D01*
X133466894Y-84165057D01*
X133007363Y-83704722D01*
X132859257Y-83643223D01*
X140793035Y-83643223D01*
X140820222Y-84213454D01*
X140986136Y-84614005D01*
X141232255Y-84688139D01*
X142060395Y-83860000D01*
X142419605Y-83860000D01*
X143247745Y-84688139D01*
X143493864Y-84614005D01*
X143686965Y-84076777D01*
X143659778Y-83506546D01*
X143493864Y-83105995D01*
X143247745Y-83031861D01*
X142419605Y-83860000D01*
X142060395Y-83860000D01*
X141232255Y-83031861D01*
X140986136Y-83105995D01*
X140793035Y-83643223D01*
X132859257Y-83643223D01*
X132406648Y-83455284D01*
X131756205Y-83454716D01*
X131155057Y-83703106D01*
X130694722Y-84162637D01*
X130445284Y-84763352D01*
X130444716Y-85413795D01*
X129405000Y-85413795D01*
X129405000Y-84290132D01*
X131280133Y-82415000D01*
X142415562Y-82415000D01*
X141886546Y-82440222D01*
X141485995Y-82606136D01*
X141411861Y-82852255D01*
X142240000Y-83680395D01*
X143068139Y-82852255D01*
X142994005Y-82606136D01*
X142462244Y-82415000D01*
X146849868Y-82415000D01*
X149097434Y-84662566D01*
X149465654Y-84908603D01*
X149900000Y-84995000D01*
X154045394Y-84995000D01*
X154126077Y-85075824D01*
X154207931Y-85109813D01*
X154128200Y-85142757D01*
X153724176Y-85546077D01*
X153505250Y-86073309D01*
X153504752Y-86644187D01*
X153722757Y-87171800D01*
X154126077Y-87575824D01*
X154653309Y-87794750D01*
X155224187Y-87795248D01*
X155751800Y-87577243D01*
X155834187Y-87495000D01*
X158963803Y-87495000D01*
X159432581Y-87808227D01*
X160020000Y-87925072D01*
X160607419Y-87808227D01*
X161076197Y-87495000D01*
X161290000Y-87495000D01*
X161724346Y-87408603D01*
X162092566Y-87162566D01*
X163030132Y-86225000D01*
X163477962Y-86225000D01*
X163496838Y-86325317D01*
X163635910Y-86541441D01*
X163848110Y-86686431D01*
X163965000Y-86710102D01*
X163965000Y-92239868D01*
X163359868Y-92845000D01*
X163065775Y-92845000D01*
X163056809Y-92839009D01*
X162584195Y-92745000D01*
X162535805Y-92745000D01*
X162063191Y-92839009D01*
X161662528Y-93106723D01*
X161394814Y-93507386D01*
X161381946Y-93572075D01*
X161179255Y-93192828D01*
X160804998Y-92885657D01*
X160341681Y-92745090D01*
X160147000Y-92900009D01*
X160147000Y-93853000D01*
X160167000Y-93853000D01*
X160167000Y-94107000D01*
X160147000Y-94107000D01*
X160147000Y-94744182D01*
X160124814Y-94777386D01*
X160030805Y-95250000D01*
X160124814Y-95722614D01*
X160155000Y-95767791D01*
X160155000Y-98312193D01*
X159955232Y-98793287D01*
X159954769Y-99324383D01*
X160157582Y-99815229D01*
X160532796Y-100191098D01*
X161023287Y-100394768D01*
X161554383Y-100395231D01*
X162038980Y-100195000D01*
X166942740Y-100195000D01*
X167129118Y-100319533D01*
X167640000Y-100421154D01*
X168150882Y-100319533D01*
X168583988Y-100030142D01*
X168873379Y-99597036D01*
X168975000Y-99086154D01*
X168975000Y-99033846D01*
X168873379Y-98522964D01*
X168583988Y-98089858D01*
X168150882Y-97800467D01*
X167640000Y-97698846D01*
X167129118Y-97800467D01*
X166942740Y-97925000D01*
X162425000Y-97925000D01*
X162425000Y-95767791D01*
X162455186Y-95722614D01*
X162549195Y-95250000D01*
X162542233Y-95215000D01*
X162584195Y-95215000D01*
X163056809Y-95120991D01*
X163065775Y-95115000D01*
X163830000Y-95115000D01*
X164264346Y-95028603D01*
X164632566Y-94782566D01*
X165902566Y-93512566D01*
X166126494Y-93177434D01*
X166148603Y-93144346D01*
X166235000Y-92710000D01*
X166235000Y-92575000D01*
X166892193Y-92575000D01*
X167373287Y-92774768D01*
X167904383Y-92775231D01*
X168395229Y-92572418D01*
X168771098Y-92197204D01*
X168974768Y-91706713D01*
X168975231Y-91175617D01*
X168772418Y-90684771D01*
X168397204Y-90308902D01*
X167906713Y-90105232D01*
X167375617Y-90104769D01*
X166891020Y-90305000D01*
X166235000Y-90305000D01*
X166235000Y-86712038D01*
X166335317Y-86693162D01*
X166551441Y-86554090D01*
X166696431Y-86341890D01*
X166747440Y-86090000D01*
X166747440Y-84090000D01*
X166703162Y-83854683D01*
X166564090Y-83638559D01*
X166351890Y-83493569D01*
X166100000Y-83442560D01*
X164100000Y-83442560D01*
X163864683Y-83486838D01*
X163648559Y-83625910D01*
X163503569Y-83838110D01*
X163479898Y-83955000D01*
X162560000Y-83955000D01*
X162125654Y-84041397D01*
X161968071Y-84146691D01*
X161757434Y-84287434D01*
X160922539Y-85122329D01*
X160607419Y-84911773D01*
X160020000Y-84794928D01*
X159432581Y-84911773D01*
X158963803Y-85225000D01*
X155834606Y-85225000D01*
X155753923Y-85144176D01*
X155672069Y-85110187D01*
X155751800Y-85077243D01*
X155834187Y-84995000D01*
X157440000Y-84995000D01*
X157874346Y-84908603D01*
X158242566Y-84662566D01*
X160822566Y-82082566D01*
X161046494Y-81747434D01*
X161068603Y-81714346D01*
X161155000Y-81280000D01*
X161155000Y-77703222D01*
X161155317Y-77703162D01*
X161371441Y-77564090D01*
X161516431Y-77351890D01*
X161519851Y-77335000D01*
X163359868Y-77335000D01*
X163465025Y-77440157D01*
X163464716Y-77793795D01*
X163713106Y-78394943D01*
X164172637Y-78855278D01*
X164773352Y-79104716D01*
X165129895Y-79105027D01*
X171085025Y-85060157D01*
X171084716Y-85413795D01*
X171333106Y-86014943D01*
X171792637Y-86475278D01*
X172393352Y-86724716D01*
X173043795Y-86725284D01*
X173644943Y-86476894D01*
X174105278Y-86017363D01*
X174354716Y-85416648D01*
X174355284Y-84766205D01*
X174106894Y-84165057D01*
X173647363Y-83704722D01*
X173046648Y-83455284D01*
X172690105Y-83454973D01*
X171887462Y-82652330D01*
X172094312Y-82790543D01*
X172720000Y-82915001D01*
X172720005Y-82915000D01*
X175259995Y-82915000D01*
X175260000Y-82915001D01*
X175885688Y-82790543D01*
X176416120Y-82436120D01*
X178956117Y-79896122D01*
X178956120Y-79896120D01*
X179310543Y-79365687D01*
X179435000Y-78740000D01*
X179435000Y-77471427D01*
X179435284Y-77146205D01*
X179186894Y-76545057D01*
X178727363Y-76084722D01*
X178126648Y-75835284D01*
X177476205Y-75834716D01*
X176875057Y-76083106D01*
X176414722Y-76542637D01*
X176165284Y-77143352D01*
X176164716Y-77793795D01*
X176165000Y-77794482D01*
X176165000Y-78062761D01*
X174582760Y-79645000D01*
X173397239Y-79645000D01*
X172857360Y-79105121D01*
X173043795Y-79105284D01*
X173644943Y-78856894D01*
X174105278Y-78397363D01*
X174354716Y-77796648D01*
X174355284Y-77146205D01*
X174355000Y-77145518D01*
X174355000Y-60960000D01*
X174307129Y-60719336D01*
X178793542Y-60719336D01*
X178819161Y-61329460D01*
X179003357Y-61774148D01*
X179259841Y-61860554D01*
X180160395Y-60960000D01*
X179259841Y-60059446D01*
X179003357Y-60145852D01*
X178793542Y-60719336D01*
X174307129Y-60719336D01*
X174267440Y-60519807D01*
X174267440Y-60060000D01*
X174233541Y-59879841D01*
X179439446Y-59879841D01*
X180340000Y-60780395D01*
X180354143Y-60766253D01*
X180533748Y-60945858D01*
X180519605Y-60960000D01*
X180533748Y-60974143D01*
X180354143Y-61153748D01*
X180340000Y-61139605D01*
X179439446Y-62040159D01*
X179525852Y-62296643D01*
X180099336Y-62506458D01*
X180709460Y-62480839D01*
X181154148Y-62296643D01*
X181240553Y-62040161D01*
X181245000Y-62044608D01*
X181245000Y-77468574D01*
X181244716Y-77793795D01*
X181493106Y-78394943D01*
X181952637Y-78855278D01*
X182553352Y-79104716D01*
X183203795Y-79105284D01*
X183804943Y-78856894D01*
X184265278Y-78397363D01*
X184514716Y-77796648D01*
X184515284Y-77146205D01*
X184515000Y-77145518D01*
X184515000Y-60960000D01*
X184427440Y-60519807D01*
X184427440Y-60422815D01*
X202864630Y-60422815D01*
X203188980Y-61207800D01*
X203789041Y-61808909D01*
X204573459Y-62134628D01*
X205422815Y-62135370D01*
X206207800Y-61811020D01*
X206808909Y-61210959D01*
X207134628Y-60426541D01*
X207135370Y-59577185D01*
X206811020Y-58792200D01*
X206210959Y-58191091D01*
X205426541Y-57865372D01*
X204577185Y-57864630D01*
X203792200Y-58188980D01*
X203191091Y-58789041D01*
X202865372Y-59573459D01*
X202864630Y-60422815D01*
X184427440Y-60422815D01*
X184427440Y-60060000D01*
X184383162Y-59824683D01*
X184244090Y-59608559D01*
X184031890Y-59463569D01*
X183780000Y-59412560D01*
X183320193Y-59412560D01*
X182880000Y-59325000D01*
X182439807Y-59412560D01*
X181980000Y-59412560D01*
X181744683Y-59456838D01*
X181528559Y-59595910D01*
X181389402Y-59799574D01*
X181355110Y-59765282D01*
X181240553Y-59879839D01*
X181154148Y-59623357D01*
X180580664Y-59413542D01*
X179970540Y-59439161D01*
X179525852Y-59623357D01*
X179439446Y-59879841D01*
X174233541Y-59879841D01*
X174223162Y-59824683D01*
X174084090Y-59608559D01*
X173871890Y-59463569D01*
X173620000Y-59412560D01*
X173160193Y-59412560D01*
X172720000Y-59325000D01*
X172279807Y-59412560D01*
X171820000Y-59412560D01*
X171584683Y-59456838D01*
X171368559Y-59595910D01*
X171229402Y-59799574D01*
X171195110Y-59765282D01*
X171080553Y-59879839D01*
X170994148Y-59623357D01*
X170420664Y-59413542D01*
X169810540Y-59439161D01*
X169365852Y-59623357D01*
X169279446Y-59879841D01*
X170180000Y-60780395D01*
X170194143Y-60766253D01*
X170373748Y-60945858D01*
X170359605Y-60960000D01*
X170373748Y-60974143D01*
X170194143Y-61153748D01*
X170180000Y-61139605D01*
X169279446Y-62040159D01*
X169365852Y-62296643D01*
X169939336Y-62506458D01*
X170549460Y-62480839D01*
X170994148Y-62296643D01*
X171080553Y-62040161D01*
X171085000Y-62044608D01*
X171085000Y-77332761D01*
X163716120Y-69963880D01*
X163185688Y-69609457D01*
X162560000Y-69484999D01*
X162559995Y-69485000D01*
X132080005Y-69485000D01*
X132080000Y-69484999D01*
X131454313Y-69609457D01*
X130923880Y-69963880D01*
X130923878Y-69963883D01*
X127113880Y-73773880D01*
X126759457Y-74304312D01*
X126634999Y-74930000D01*
X126635000Y-74930005D01*
X126635000Y-78062761D01*
X125052760Y-79645000D01*
X122597239Y-79645000D01*
X121015000Y-78062760D01*
X121015000Y-77793795D01*
X122824716Y-77793795D01*
X123073106Y-78394943D01*
X123532637Y-78855278D01*
X124133352Y-79104716D01*
X124783795Y-79105284D01*
X125384943Y-78856894D01*
X125845278Y-78397363D01*
X126094716Y-77796648D01*
X126095284Y-77146205D01*
X126095000Y-77145518D01*
X126095000Y-74337240D01*
X133236117Y-67196122D01*
X133236120Y-67196120D01*
X133590543Y-66665687D01*
X133715000Y-66040000D01*
X133715000Y-60960000D01*
X133667129Y-60719336D01*
X168633542Y-60719336D01*
X168659161Y-61329460D01*
X168843357Y-61774148D01*
X169099841Y-61860554D01*
X170000395Y-60960000D01*
X169099841Y-60059446D01*
X168843357Y-60145852D01*
X168633542Y-60719336D01*
X133667129Y-60719336D01*
X133627440Y-60519807D01*
X133627440Y-60060000D01*
X133583162Y-59824683D01*
X133444090Y-59608559D01*
X133231890Y-59463569D01*
X132980000Y-59412560D01*
X132520193Y-59412560D01*
X132080000Y-59325000D01*
X131639807Y-59412560D01*
X131180000Y-59412560D01*
X130944683Y-59456838D01*
X130728559Y-59595910D01*
X130589402Y-59799574D01*
X130555110Y-59765282D01*
X130440553Y-59879839D01*
X130354148Y-59623357D01*
X129780664Y-59413542D01*
X129170540Y-59439161D01*
X128725852Y-59623357D01*
X128639446Y-59879841D01*
X129540000Y-60780395D01*
X129554143Y-60766253D01*
X129733748Y-60945858D01*
X129719605Y-60960000D01*
X129733748Y-60974143D01*
X129554143Y-61153748D01*
X129540000Y-61139605D01*
X128639446Y-62040159D01*
X128725852Y-62296643D01*
X129299336Y-62506458D01*
X129909460Y-62480839D01*
X130354148Y-62296643D01*
X130440553Y-62040161D01*
X130445000Y-62044608D01*
X130445000Y-65362761D01*
X123303880Y-72503880D01*
X122949457Y-73034312D01*
X122824999Y-73660000D01*
X122825000Y-73660005D01*
X122825000Y-77468574D01*
X122824716Y-77793795D01*
X121015000Y-77793795D01*
X121015000Y-77471427D01*
X121015284Y-77146205D01*
X120766894Y-76545057D01*
X120307363Y-76084722D01*
X119706648Y-75835284D01*
X119056205Y-75834716D01*
X118455057Y-76083106D01*
X117994722Y-76542637D01*
X117745284Y-77143352D01*
X117744716Y-77793795D01*
X117745000Y-77794482D01*
X117745000Y-78739995D01*
X117744999Y-78740000D01*
X117869457Y-79365688D01*
X118223880Y-79896120D01*
X120763878Y-82436117D01*
X120763880Y-82436120D01*
X121294313Y-82790543D01*
X121920000Y-82915000D01*
X125729995Y-82915000D01*
X125730000Y-82915001D01*
X126355688Y-82790543D01*
X126886120Y-82436120D01*
X129426117Y-79896122D01*
X129426120Y-79896120D01*
X129780543Y-79365687D01*
X129905000Y-78740000D01*
X129905000Y-77755750D01*
X130445000Y-77755750D01*
X130445000Y-78596310D01*
X130541673Y-78829699D01*
X130720302Y-79008327D01*
X130953691Y-79105000D01*
X131794250Y-79105000D01*
X131953000Y-78946250D01*
X131953000Y-77597000D01*
X132207000Y-77597000D01*
X132207000Y-78946250D01*
X132365750Y-79105000D01*
X133206309Y-79105000D01*
X133439698Y-79008327D01*
X133618327Y-78829699D01*
X133715000Y-78596310D01*
X133715000Y-77755750D01*
X133556250Y-77597000D01*
X132207000Y-77597000D01*
X131953000Y-77597000D01*
X130603750Y-77597000D01*
X130445000Y-77755750D01*
X129905000Y-77755750D01*
X129905000Y-76343690D01*
X130445000Y-76343690D01*
X130445000Y-77184250D01*
X130603750Y-77343000D01*
X131953000Y-77343000D01*
X131953000Y-75993750D01*
X132207000Y-75993750D01*
X132207000Y-77343000D01*
X133556250Y-77343000D01*
X133715000Y-77184250D01*
X133715000Y-76564742D01*
X135668954Y-76564742D01*
X135922034Y-77107576D01*
X136363583Y-77512240D01*
X136795260Y-77691036D01*
X137033000Y-77570378D01*
X137033000Y-76327000D01*
X137287000Y-76327000D01*
X137287000Y-77570378D01*
X137524740Y-77691036D01*
X137956417Y-77512240D01*
X138397966Y-77107576D01*
X138651046Y-76564742D01*
X138530997Y-76327000D01*
X137287000Y-76327000D01*
X137033000Y-76327000D01*
X135789003Y-76327000D01*
X135668954Y-76564742D01*
X133715000Y-76564742D01*
X133715000Y-76343690D01*
X133618327Y-76110301D01*
X133439698Y-75931673D01*
X133206932Y-75835258D01*
X135668954Y-75835258D01*
X135789003Y-76073000D01*
X137033000Y-76073000D01*
X137033000Y-74829622D01*
X137287000Y-74829622D01*
X137287000Y-76073000D01*
X138530997Y-76073000D01*
X138651046Y-75835258D01*
X138397966Y-75292424D01*
X137956417Y-74887760D01*
X137524740Y-74708964D01*
X137287000Y-74829622D01*
X137033000Y-74829622D01*
X136795260Y-74708964D01*
X136363583Y-74887760D01*
X135922034Y-75292424D01*
X135668954Y-75835258D01*
X133206932Y-75835258D01*
X133206309Y-75835000D01*
X132365750Y-75835000D01*
X132207000Y-75993750D01*
X131953000Y-75993750D01*
X131794250Y-75835000D01*
X130953691Y-75835000D01*
X130720302Y-75931673D01*
X130541673Y-76110301D01*
X130445000Y-76343690D01*
X129905000Y-76343690D01*
X129905000Y-75607240D01*
X132757239Y-72755000D01*
X161882760Y-72755000D01*
X164308982Y-75181222D01*
X164264346Y-75151397D01*
X163830000Y-75065000D01*
X161523222Y-75065000D01*
X161523162Y-75064683D01*
X161384090Y-74848559D01*
X161171890Y-74703569D01*
X160920000Y-74652560D01*
X159120000Y-74652560D01*
X158884683Y-74696838D01*
X158668559Y-74835910D01*
X158523569Y-75048110D01*
X158472560Y-75300000D01*
X158472560Y-77100000D01*
X158516838Y-77335317D01*
X158655910Y-77551441D01*
X158868110Y-77696431D01*
X158885000Y-77699851D01*
X158885000Y-80809868D01*
X156969868Y-82725000D01*
X155834606Y-82725000D01*
X155753923Y-82644176D01*
X155226691Y-82425250D01*
X154655813Y-82424752D01*
X154128200Y-82642757D01*
X154045813Y-82725000D01*
X150370132Y-82725000D01*
X148122566Y-80477434D01*
X148024082Y-80411629D01*
X147754346Y-80231397D01*
X147320000Y-80145000D01*
X130810000Y-80145000D01*
X130375659Y-80231396D01*
X130375654Y-80231397D01*
X130007433Y-80477434D01*
X127467434Y-83017434D01*
X127221397Y-83385654D01*
X127135000Y-83820000D01*
X127135000Y-87159867D01*
X125259868Y-89035000D01*
X112230133Y-89035000D01*
X110355000Y-87159868D01*
X110355000Y-85413795D01*
X112664716Y-85413795D01*
X112913106Y-86014943D01*
X113372637Y-86475278D01*
X113973352Y-86724716D01*
X114623795Y-86725284D01*
X115224943Y-86476894D01*
X115685278Y-86017363D01*
X115934716Y-85416648D01*
X115934718Y-85413795D01*
X117744716Y-85413795D01*
X117993106Y-86014943D01*
X118452637Y-86475278D01*
X119053352Y-86724716D01*
X119703795Y-86725284D01*
X120304943Y-86476894D01*
X120765278Y-86017363D01*
X121014716Y-85416648D01*
X121014718Y-85413795D01*
X122824716Y-85413795D01*
X123073106Y-86014943D01*
X123532637Y-86475278D01*
X124133352Y-86724716D01*
X124783795Y-86725284D01*
X125384943Y-86476894D01*
X125845278Y-86017363D01*
X126094716Y-85416648D01*
X126095284Y-84766205D01*
X125846894Y-84165057D01*
X125387363Y-83704722D01*
X124786648Y-83455284D01*
X124136205Y-83454716D01*
X123535057Y-83703106D01*
X123074722Y-84162637D01*
X122825284Y-84763352D01*
X122824716Y-85413795D01*
X121014718Y-85413795D01*
X121015284Y-84766205D01*
X120766894Y-84165057D01*
X120307363Y-83704722D01*
X119706648Y-83455284D01*
X119056205Y-83454716D01*
X118455057Y-83703106D01*
X117994722Y-84162637D01*
X117745284Y-84763352D01*
X117744716Y-85413795D01*
X115934718Y-85413795D01*
X115935284Y-84766205D01*
X115686894Y-84165057D01*
X115227363Y-83704722D01*
X114626648Y-83455284D01*
X113976205Y-83454716D01*
X113375057Y-83703106D01*
X112914722Y-84162637D01*
X112665284Y-84763352D01*
X112664716Y-85413795D01*
X110355000Y-85413795D01*
X110355000Y-77793795D01*
X112664716Y-77793795D01*
X112913106Y-78394943D01*
X113372637Y-78855278D01*
X113973352Y-79104716D01*
X114623795Y-79105284D01*
X115224943Y-78856894D01*
X115685278Y-78397363D01*
X115934716Y-77796648D01*
X115935284Y-77146205D01*
X115935000Y-77145518D01*
X115935000Y-74337240D01*
X123076117Y-67196122D01*
X123076120Y-67196120D01*
X123430543Y-66665687D01*
X123555000Y-66040000D01*
X123555000Y-60960000D01*
X123507129Y-60719336D01*
X127993542Y-60719336D01*
X128019161Y-61329460D01*
X128203357Y-61774148D01*
X128459841Y-61860554D01*
X129360395Y-60960000D01*
X128459841Y-60059446D01*
X128203357Y-60145852D01*
X127993542Y-60719336D01*
X123507129Y-60719336D01*
X123467440Y-60519807D01*
X123467440Y-60060000D01*
X123423162Y-59824683D01*
X123284090Y-59608559D01*
X123071890Y-59463569D01*
X122820000Y-59412560D01*
X122360193Y-59412560D01*
X121920000Y-59325000D01*
X121479807Y-59412560D01*
X121020000Y-59412560D01*
X120784683Y-59456838D01*
X120568559Y-59595910D01*
X120429402Y-59799574D01*
X120395110Y-59765282D01*
X120280553Y-59879839D01*
X120194148Y-59623357D01*
X119620664Y-59413542D01*
X119010540Y-59439161D01*
X118565852Y-59623357D01*
X118479446Y-59879841D01*
X119380000Y-60780395D01*
X119394143Y-60766253D01*
X119573748Y-60945858D01*
X119559605Y-60960000D01*
X119573748Y-60974143D01*
X119394143Y-61153748D01*
X119380000Y-61139605D01*
X118479446Y-62040159D01*
X118565852Y-62296643D01*
X119139336Y-62506458D01*
X119749460Y-62480839D01*
X120194148Y-62296643D01*
X120280553Y-62040161D01*
X120285000Y-62044608D01*
X120285000Y-65362761D01*
X113143880Y-72503880D01*
X112789457Y-73034312D01*
X112664999Y-73660000D01*
X112665000Y-73660005D01*
X112665000Y-77468574D01*
X112664716Y-77793795D01*
X110355000Y-77793795D01*
X110355000Y-77470000D01*
X110268603Y-77035654D01*
X110140753Y-76844313D01*
X110022566Y-76667433D01*
X107482566Y-74127434D01*
X107433046Y-74094346D01*
X107114346Y-73881397D01*
X106680000Y-73795000D01*
X102870000Y-73795000D01*
X102435654Y-73881397D01*
X102067433Y-74127434D01*
X99527435Y-76667433D01*
X99527434Y-76667434D01*
X99281397Y-77035654D01*
X99195000Y-77470000D01*
X99195000Y-78670982D01*
X99078559Y-78745910D01*
X98933569Y-78958110D01*
X98882560Y-79210000D01*
X98882560Y-80810000D01*
X98926838Y-81045317D01*
X99065910Y-81261441D01*
X99195000Y-81349644D01*
X99195000Y-82079867D01*
X96987434Y-84287434D01*
X96741397Y-84655654D01*
X96655000Y-85090000D01*
X96655000Y-87396778D01*
X96654683Y-87396838D01*
X96438559Y-87535910D01*
X96293569Y-87748110D01*
X96242560Y-88000000D01*
X92150000Y-88000000D01*
X92150000Y-60422815D01*
X97864630Y-60422815D01*
X98188980Y-61207800D01*
X98789041Y-61808909D01*
X99573459Y-62134628D01*
X100422815Y-62135370D01*
X101207800Y-61811020D01*
X101808909Y-61210959D01*
X102013048Y-60719336D01*
X117833542Y-60719336D01*
X117859161Y-61329460D01*
X118043357Y-61774148D01*
X118299841Y-61860554D01*
X119200395Y-60960000D01*
X118299841Y-60059446D01*
X118043357Y-60145852D01*
X117833542Y-60719336D01*
X102013048Y-60719336D01*
X102134628Y-60426541D01*
X102135370Y-59577185D01*
X101811020Y-58792200D01*
X101210959Y-58191091D01*
X100426541Y-57865372D01*
X99577185Y-57864630D01*
X98792200Y-58188980D01*
X98191091Y-58789041D01*
X97865372Y-59573459D01*
X97864630Y-60422815D01*
X92150000Y-60422815D01*
X92150000Y-51510000D01*
X212650000Y-51510000D01*
X212650000Y-126290000D01*
M02*
