M48
;DRILL file {KiCad 4.0.7} date 03/24/18 13:01:29
;FORMAT={-:-/ absolute / inch / decimal}
FMAT,2
INCH,TZ
T1C0.028
T2C0.031
T3C0.039
T4C0.043
T5C0.118
%
G90
G05
M72
T1
X2.15Y-2.
X2.15Y-2.5
X2.2Y-2.05
X2.2Y-2.55
X2.25Y-2.
X2.25Y-2.5
T2
X1.4Y-1.5
X1.4Y-1.6
X1.4Y-1.9
X1.4Y-2.
X1.4Y-2.4
X1.4Y-2.5
X1.6Y-2.
X1.6Y-2.2
X1.6Y-2.5
X1.6Y-2.7
X1.8Y-2.
X1.8Y-2.5
X2.1Y-1.2
X2.2Y-1.2
X2.2Y-2.2
X2.2Y-2.7
X2.5Y-1.2
X2.6Y-1.2
X2.85Y-2.45
X2.85Y-2.55
X3.Y-1.5
X3.Y-1.7
X3.15Y-2.45
X3.15Y-2.55
X3.45Y-2.45
X3.45Y-2.55
X3.45Y-2.65
X3.6Y-1.5
X3.6Y-1.7
X3.75Y-2.45
X3.75Y-2.55
X3.75Y-2.65
X4.05Y-2.45
X4.05Y-2.55
X4.05Y-2.65
X4.1Y-1.2
X4.2Y-1.2
X4.35Y-2.45
X4.35Y-2.55
X4.35Y-2.65
X4.5Y-1.2
X4.5Y-2.
X4.5Y-2.15
X4.6Y-1.2
X4.85Y-1.6
X4.85Y-1.8
X4.9Y-2.45
X4.9Y-2.55
X5.1Y-2.
X5.1Y-2.15
X5.2Y-1.6
X5.2Y-1.7378
X5.2Y-2.45
X5.2Y-2.55
X5.5Y-1.6
X5.5Y-1.7
X5.5Y-2.
X5.5Y-2.1
X5.5Y-2.2
X5.5Y-2.45
X5.5Y-2.55
T3
X2.1Y-1.45
X2.1Y-1.75
X2.3Y-1.45
X2.3Y-1.75
X2.5Y-1.45
X2.5Y-1.75
X2.8Y-1.45
X2.8Y-1.75
X3.8Y-1.45
X3.8Y-1.75
X4.1Y-1.45
X4.1Y-1.75
X4.3Y-1.45
X4.3Y-1.75
X4.5Y-1.45
X4.5Y-1.75
T4
X3.2Y-1.4
X3.2Y-1.9
X3.4Y-1.4
X3.4Y-1.9
T5
X1.1811Y-1.1811
X1.1811Y-2.7559
X5.7087Y-1.1811
X5.7087Y-2.7559
T0
M30
