G04 #@! TF.FileFunction,Copper,L2,Bot,Signal*
%FSLAX46Y46*%
G04 Gerber Fmt 4.6, Leading zero omitted, Abs format (unit mm)*
G04 Created by KiCad (PCBNEW 4.0.7) date 03/24/18 13:01:43*
%MOMM*%
%LPD*%
G01*
G04 APERTURE LIST*
%ADD10C,0.100000*%
%ADD11R,2.000000X2.000000*%
%ADD12C,2.000000*%
%ADD13C,1.600000*%
%ADD14C,1.500000*%
%ADD15R,1.600000X1.600000*%
%ADD16R,2.200000X2.200000*%
%ADD17O,2.200000X2.200000*%
%ADD18C,3.400000*%
%ADD19R,1.800000X1.800000*%
%ADD20C,1.800000*%
%ADD21O,1.600000X1.200000*%
%ADD22O,1.200000X1.200000*%
%ADD23O,1.600000X1.600000*%
%ADD24R,2.000000X3.000000*%
%ADD25C,1.000000*%
%ADD26C,1.500000*%
%ADD27C,0.254000*%
G04 APERTURE END LIST*
D10*
D11*
X96520000Y-44450000D03*
D12*
X96520000Y-36830000D03*
X104140000Y-44450000D03*
X104140000Y-36830000D03*
X109220000Y-44450000D03*
X109220000Y-36830000D03*
X114300000Y-36830000D03*
X114300000Y-44450000D03*
D13*
X45720000Y-50800000D03*
D14*
X40640000Y-50800000D03*
D13*
X45720000Y-63500000D03*
D14*
X40640000Y-63500000D03*
D15*
X132080000Y-40640000D03*
D13*
X132080000Y-44140000D03*
X123190000Y-40640000D03*
D14*
X123190000Y-45720000D03*
D13*
X76200000Y-43180000D03*
D14*
X76200000Y-38100000D03*
D13*
X91440000Y-43180000D03*
D14*
X91440000Y-38100000D03*
D16*
X81280000Y-48260000D03*
D17*
X81280000Y-35560000D03*
D16*
X86360000Y-35560000D03*
D17*
X86360000Y-48260000D03*
D18*
X145000000Y-70000000D03*
X30000000Y-30000000D03*
X30000000Y-70000000D03*
X145000000Y-30000000D03*
D19*
X35560000Y-48260000D03*
D20*
X35560000Y-50800000D03*
D19*
X35560000Y-60960000D03*
D20*
X35560000Y-63500000D03*
D19*
X139700000Y-40640000D03*
D20*
X139700000Y-43180000D03*
D19*
X35560000Y-38100000D03*
D20*
X35560000Y-40640000D03*
D19*
X63500000Y-30480000D03*
D20*
X66040000Y-30480000D03*
D19*
X110490000Y-62230000D03*
D20*
X110490000Y-64770000D03*
X110490000Y-67310000D03*
D19*
X102870000Y-62230000D03*
D20*
X102870000Y-64770000D03*
X102870000Y-67310000D03*
D19*
X95250000Y-62230000D03*
D20*
X95250000Y-64770000D03*
X95250000Y-67310000D03*
D19*
X87630000Y-62230000D03*
D20*
X87630000Y-64770000D03*
X87630000Y-67310000D03*
D19*
X53340000Y-30480000D03*
D20*
X55880000Y-30480000D03*
D19*
X114300000Y-30480000D03*
D20*
X116840000Y-30480000D03*
D19*
X139700000Y-62230000D03*
D20*
X139700000Y-64770000D03*
D19*
X132080000Y-62230000D03*
D20*
X132080000Y-64770000D03*
D19*
X124460000Y-62230000D03*
D20*
X124460000Y-64770000D03*
D19*
X80010000Y-62230000D03*
D20*
X80010000Y-64770000D03*
D19*
X72390000Y-62230000D03*
D20*
X72390000Y-64770000D03*
D19*
X104140000Y-30480000D03*
D20*
X106680000Y-30480000D03*
D19*
X139700000Y-50800000D03*
D20*
X139700000Y-53340000D03*
X139700000Y-55880000D03*
D11*
X71120000Y-36830000D03*
D12*
X71120000Y-44450000D03*
X63500000Y-36830000D03*
X63500000Y-44450000D03*
X58420000Y-36830000D03*
X58420000Y-44450000D03*
X53340000Y-44450000D03*
X53340000Y-36830000D03*
D21*
X54610000Y-50800000D03*
D22*
X55880000Y-52070000D03*
X57150000Y-50800000D03*
D21*
X54610000Y-63500000D03*
D22*
X55880000Y-64770000D03*
X57150000Y-63500000D03*
D13*
X55880000Y-55880000D03*
D23*
X40640000Y-55880000D03*
D13*
X55880000Y-68580000D03*
D23*
X40640000Y-68580000D03*
D13*
X129540000Y-50800000D03*
D23*
X114300000Y-50800000D03*
D13*
X129540000Y-54610000D03*
D23*
X114300000Y-54610000D03*
D24*
X63500000Y-49530000D03*
X65849500Y-49530000D03*
X63500000Y-54610000D03*
X65849500Y-54610000D03*
X63500000Y-59690000D03*
X65849500Y-59690000D03*
D25*
X45720000Y-50800000D02*
X49530000Y-50800000D01*
X52070000Y-53340000D02*
X55880000Y-53340000D01*
X49530000Y-50800000D02*
X52070000Y-53340000D01*
X55880000Y-52070000D02*
X55880000Y-53340000D01*
X55880000Y-53340000D02*
X55880000Y-55880000D01*
X45720000Y-63500000D02*
X49530000Y-63500000D01*
X52070000Y-66040000D02*
X55880000Y-66040000D01*
X49530000Y-63500000D02*
X52070000Y-66040000D01*
X55880000Y-64770000D02*
X55880000Y-66040000D01*
X55880000Y-66040000D02*
X55880000Y-68580000D01*
X123190000Y-40640000D02*
X106680000Y-40640000D01*
X105410000Y-41910000D02*
X104140000Y-41910000D01*
X105410000Y-41910000D02*
X106680000Y-40640000D01*
X96520000Y-36830000D02*
X101600000Y-41910000D01*
X101600000Y-41910000D02*
X104140000Y-41910000D01*
X104140000Y-41910000D02*
X104140000Y-44450000D01*
X132080000Y-40640000D02*
X123190000Y-40640000D01*
X139700000Y-40640000D02*
X132080000Y-40640000D01*
X91440000Y-38100000D02*
X91440000Y-35560000D01*
X86360000Y-35560000D02*
X91440000Y-35560000D01*
X91440000Y-35560000D02*
X95250000Y-35560000D01*
X95250000Y-35560000D02*
X96520000Y-36830000D01*
X81280000Y-48260000D02*
X81280000Y-57150000D01*
X80010000Y-58420000D02*
X80010000Y-62230000D01*
X81280000Y-57150000D02*
X80010000Y-58420000D01*
X76200000Y-43180000D02*
X80010000Y-43180000D01*
X81280000Y-44450000D02*
X81280000Y-48260000D01*
X80010000Y-43180000D02*
X81280000Y-44450000D01*
X114300000Y-44450000D02*
X114300000Y-43180000D01*
X106680000Y-43180000D02*
X106680000Y-62230000D01*
X107950000Y-41910000D02*
X106680000Y-43180000D01*
X113030000Y-41910000D02*
X107950000Y-41910000D01*
X114300000Y-43180000D02*
X113030000Y-41910000D01*
X102870000Y-62230000D02*
X106680000Y-62230000D01*
X106680000Y-62230000D02*
X110490000Y-62230000D01*
X95250000Y-62230000D02*
X102870000Y-62230000D01*
X87630000Y-62230000D02*
X95250000Y-62230000D01*
X80010000Y-62230000D02*
X87630000Y-62230000D01*
X72390000Y-62230000D02*
X80010000Y-62230000D01*
X114300000Y-44450000D02*
X114300000Y-50800000D01*
X71120000Y-44450000D02*
X72390000Y-43180000D01*
X72390000Y-43180000D02*
X76200000Y-43180000D01*
X65849500Y-49530000D02*
X68580000Y-49530000D01*
X65849500Y-54610000D02*
X68580000Y-54610000D01*
X68580000Y-46990000D02*
X68580000Y-49530000D01*
X68580000Y-49530000D02*
X68580000Y-54610000D01*
X68580000Y-54610000D02*
X68580000Y-58420000D01*
X86360000Y-43180000D02*
X86360000Y-41910000D01*
X85090000Y-40640000D02*
X86360000Y-41910000D01*
X69850000Y-40640000D02*
X85090000Y-40640000D01*
X67310000Y-43180000D02*
X69850000Y-40640000D01*
X67310000Y-45720000D02*
X67310000Y-43180000D01*
X68580000Y-46990000D02*
X67310000Y-45720000D01*
X67310000Y-59690000D02*
X65849500Y-59690000D01*
X68580000Y-58420000D02*
X67310000Y-59690000D01*
X91440000Y-43180000D02*
X86360000Y-43180000D01*
X86360000Y-43180000D02*
X86360000Y-48260000D01*
X91440000Y-43180000D02*
X92710000Y-43180000D01*
X93980000Y-44450000D02*
X96520000Y-44450000D01*
X92710000Y-43180000D02*
X93980000Y-44450000D01*
X35560000Y-48260000D02*
X41910000Y-48260000D01*
X41910000Y-55880000D02*
X40640000Y-55880000D01*
X43180000Y-54610000D02*
X41910000Y-55880000D01*
X43180000Y-49530000D02*
X43180000Y-54610000D01*
X41910000Y-48260000D02*
X43180000Y-49530000D01*
X35560000Y-60960000D02*
X41910000Y-60960000D01*
X41910000Y-68580000D02*
X40640000Y-68580000D01*
X43180000Y-67310000D02*
X41910000Y-68580000D01*
X43180000Y-62230000D02*
X43180000Y-67310000D01*
X41910000Y-60960000D02*
X43180000Y-62230000D01*
X35560000Y-38100000D02*
X41910000Y-38100000D01*
X62230000Y-49530000D02*
X63500000Y-49530000D01*
X59690000Y-46990000D02*
X62230000Y-49530000D01*
X50800000Y-46990000D02*
X59690000Y-46990000D01*
X41910000Y-38100000D02*
X50800000Y-46990000D01*
D26*
X63500000Y-30480000D02*
X63500000Y-36830000D01*
D25*
X114300000Y-54610000D02*
X107950000Y-54610000D01*
X110490000Y-64770000D02*
X111760000Y-64770000D01*
X109220000Y-46990000D02*
X109220000Y-44450000D01*
X107950000Y-48260000D02*
X109220000Y-46990000D01*
X107950000Y-58420000D02*
X107950000Y-54610000D01*
X107950000Y-54610000D02*
X107950000Y-48260000D01*
X109220000Y-59690000D02*
X107950000Y-58420000D01*
X111760000Y-59690000D02*
X109220000Y-59690000D01*
X113030000Y-60960000D02*
X111760000Y-59690000D01*
X113030000Y-63500000D02*
X113030000Y-60960000D01*
X111760000Y-64770000D02*
X113030000Y-63500000D01*
X102870000Y-64770000D02*
X110490000Y-64770000D01*
X95250000Y-64770000D02*
X102870000Y-64770000D01*
X87630000Y-64770000D02*
X95250000Y-64770000D01*
D26*
X53340000Y-30480000D02*
X53340000Y-36830000D01*
X114300000Y-30480000D02*
X114300000Y-36830000D01*
X104140000Y-30480000D02*
X104140000Y-36830000D01*
D25*
X129540000Y-50800000D02*
X139700000Y-50800000D01*
X129540000Y-54610000D02*
X133350000Y-54610000D01*
X134620000Y-53340000D02*
X139700000Y-53340000D01*
X133350000Y-54610000D02*
X134620000Y-53340000D01*
D26*
X102870000Y-39370000D02*
X105410000Y-39370000D01*
X58420000Y-38100000D02*
X59690000Y-39370000D01*
X59690000Y-39370000D02*
X66040000Y-39370000D01*
X66040000Y-39370000D02*
X67310000Y-38100000D01*
X67310000Y-38100000D02*
X67310000Y-34290000D01*
X67310000Y-34290000D02*
X69850000Y-31750000D01*
X69850000Y-31750000D02*
X97790000Y-31750000D01*
X97790000Y-31750000D02*
X100330000Y-34290000D01*
X100330000Y-34290000D02*
X100330000Y-36830000D01*
X100330000Y-36830000D02*
X102870000Y-39370000D01*
X58420000Y-36830000D02*
X58420000Y-38100000D01*
X107950000Y-36830000D02*
X109220000Y-36830000D01*
X105410000Y-39370000D02*
X107950000Y-36830000D01*
D25*
X57150000Y-50800000D02*
X58420000Y-50800000D01*
X62230000Y-54610000D02*
X63500000Y-54610000D01*
X58420000Y-50800000D02*
X62230000Y-54610000D01*
X57150000Y-63500000D02*
X58420000Y-63500000D01*
X62230000Y-59690000D02*
X63500000Y-59690000D01*
X58420000Y-63500000D02*
X62230000Y-59690000D01*
D27*
G36*
X149315000Y-74315000D02*
X25685000Y-74315000D01*
X25685000Y-71658422D01*
X28521183Y-71658422D01*
X28705371Y-71997970D01*
X29568509Y-72341316D01*
X30497336Y-72328218D01*
X31294629Y-71997970D01*
X31478817Y-71658422D01*
X143521183Y-71658422D01*
X143705371Y-71997970D01*
X144568509Y-72341316D01*
X145497336Y-72328218D01*
X146294629Y-71997970D01*
X146478817Y-71658422D01*
X145000000Y-70179605D01*
X143521183Y-71658422D01*
X31478817Y-71658422D01*
X30000000Y-70179605D01*
X28521183Y-71658422D01*
X25685000Y-71658422D01*
X25685000Y-69568509D01*
X27658684Y-69568509D01*
X27671782Y-70497336D01*
X28002030Y-71294629D01*
X28341578Y-71478817D01*
X29820395Y-70000000D01*
X30179605Y-70000000D01*
X31658422Y-71478817D01*
X31997970Y-71294629D01*
X32341316Y-70431491D01*
X32328218Y-69502664D01*
X31997970Y-68705371D01*
X31658422Y-68521183D01*
X30179605Y-70000000D01*
X29820395Y-70000000D01*
X28341578Y-68521183D01*
X28002030Y-68705371D01*
X27658684Y-69568509D01*
X25685000Y-69568509D01*
X25685000Y-68341578D01*
X28521183Y-68341578D01*
X30000000Y-69820395D01*
X31478817Y-68341578D01*
X31294629Y-68002030D01*
X30431491Y-67658684D01*
X29502664Y-67671782D01*
X28705371Y-68002030D01*
X28521183Y-68341578D01*
X25685000Y-68341578D01*
X25685000Y-64580159D01*
X34659446Y-64580159D01*
X34745852Y-64836643D01*
X35319336Y-65046458D01*
X35929460Y-65020839D01*
X36374148Y-64836643D01*
X36460554Y-64580159D01*
X36351912Y-64471517D01*
X39848088Y-64471517D01*
X39916077Y-64712460D01*
X40435171Y-64897201D01*
X40985448Y-64869230D01*
X41363923Y-64712460D01*
X41431912Y-64471517D01*
X40640000Y-63679605D01*
X39848088Y-64471517D01*
X36351912Y-64471517D01*
X35560000Y-63679605D01*
X34659446Y-64580159D01*
X25685000Y-64580159D01*
X25685000Y-51880159D01*
X34659446Y-51880159D01*
X34745852Y-52136643D01*
X35319336Y-52346458D01*
X35929460Y-52320839D01*
X36374148Y-52136643D01*
X36460554Y-51880159D01*
X36351912Y-51771517D01*
X39848088Y-51771517D01*
X39916077Y-52012460D01*
X40435171Y-52197201D01*
X40985448Y-52169230D01*
X41363923Y-52012460D01*
X41431912Y-51771517D01*
X40640000Y-50979605D01*
X39848088Y-51771517D01*
X36351912Y-51771517D01*
X35560000Y-50979605D01*
X34659446Y-51880159D01*
X25685000Y-51880159D01*
X25685000Y-41720159D01*
X34659446Y-41720159D01*
X34745852Y-41976643D01*
X35319336Y-42186458D01*
X35929460Y-42160839D01*
X36374148Y-41976643D01*
X36460554Y-41720159D01*
X35560000Y-40819605D01*
X34659446Y-41720159D01*
X25685000Y-41720159D01*
X25685000Y-37200000D01*
X34012560Y-37200000D01*
X34012560Y-39000000D01*
X34056838Y-39235317D01*
X34195910Y-39451441D01*
X34399574Y-39590598D01*
X34365282Y-39624890D01*
X34479839Y-39739447D01*
X34223357Y-39825852D01*
X34013542Y-40399336D01*
X34039161Y-41009460D01*
X34223357Y-41454148D01*
X34479841Y-41540554D01*
X35380395Y-40640000D01*
X35366253Y-40625858D01*
X35545858Y-40446253D01*
X35560000Y-40460395D01*
X35574143Y-40446253D01*
X35753748Y-40625858D01*
X35739605Y-40640000D01*
X36640159Y-41540554D01*
X36896643Y-41454148D01*
X37106458Y-40880664D01*
X37080839Y-40270540D01*
X36896643Y-39825852D01*
X36640161Y-39739447D01*
X36754718Y-39624890D01*
X36718240Y-39588412D01*
X36911441Y-39464090D01*
X37056431Y-39251890D01*
X37059851Y-39235000D01*
X41439868Y-39235000D01*
X49997434Y-47792567D01*
X50365655Y-48038604D01*
X50800000Y-48125000D01*
X59219868Y-48125000D01*
X61427433Y-50332566D01*
X61701682Y-50515813D01*
X61795654Y-50578603D01*
X61852560Y-50589922D01*
X61852560Y-51030000D01*
X61896838Y-51265317D01*
X62035910Y-51481441D01*
X62248110Y-51626431D01*
X62500000Y-51677440D01*
X64500000Y-51677440D01*
X64681165Y-51643351D01*
X64849500Y-51677440D01*
X66849500Y-51677440D01*
X67084817Y-51633162D01*
X67300941Y-51494090D01*
X67445000Y-51283253D01*
X67445000Y-52862776D01*
X67313590Y-52658559D01*
X67101390Y-52513569D01*
X66849500Y-52462560D01*
X64849500Y-52462560D01*
X64668335Y-52496649D01*
X64500000Y-52462560D01*
X62500000Y-52462560D01*
X62264683Y-52506838D01*
X62048559Y-52645910D01*
X61976502Y-52751370D01*
X59222566Y-49997434D01*
X59161201Y-49956431D01*
X58854346Y-49751397D01*
X58420000Y-49665000D01*
X57655775Y-49665000D01*
X57646809Y-49659009D01*
X57174195Y-49565000D01*
X57125805Y-49565000D01*
X56653191Y-49659009D01*
X56252528Y-49926723D01*
X55984814Y-50327386D01*
X55971946Y-50392075D01*
X55769255Y-50012828D01*
X55394998Y-49705657D01*
X54931681Y-49565090D01*
X54737000Y-49720009D01*
X54737000Y-50673000D01*
X54757000Y-50673000D01*
X54757000Y-50927000D01*
X54737000Y-50927000D01*
X54737000Y-51564182D01*
X54714814Y-51597386D01*
X54620805Y-52070000D01*
X54647658Y-52205000D01*
X52540133Y-52205000D01*
X51452742Y-51117609D01*
X53216538Y-51117609D01*
X53222526Y-51160161D01*
X53450745Y-51587172D01*
X53825002Y-51894343D01*
X54288319Y-52034910D01*
X54483000Y-51879991D01*
X54483000Y-50927000D01*
X53341269Y-50927000D01*
X53216538Y-51117609D01*
X51452742Y-51117609D01*
X50817524Y-50482391D01*
X53216538Y-50482391D01*
X53341269Y-50673000D01*
X54483000Y-50673000D01*
X54483000Y-49720009D01*
X54288319Y-49565090D01*
X53825002Y-49705657D01*
X53450745Y-50012828D01*
X53222526Y-50439839D01*
X53216538Y-50482391D01*
X50817524Y-50482391D01*
X50332566Y-49997434D01*
X50271201Y-49956431D01*
X49964346Y-49751397D01*
X49530000Y-49665000D01*
X46614606Y-49665000D01*
X46533923Y-49584176D01*
X46006691Y-49365250D01*
X45435813Y-49364752D01*
X44908200Y-49582757D01*
X44504176Y-49986077D01*
X44315000Y-50441663D01*
X44315000Y-49530000D01*
X44228603Y-49095654D01*
X43982566Y-48727434D01*
X42712566Y-47457434D01*
X42344346Y-47211397D01*
X41910000Y-47125000D01*
X37063222Y-47125000D01*
X37063162Y-47124683D01*
X36924090Y-46908559D01*
X36711890Y-46763569D01*
X36460000Y-46712560D01*
X34660000Y-46712560D01*
X34424683Y-46756838D01*
X34208559Y-46895910D01*
X34063569Y-47108110D01*
X34012560Y-47360000D01*
X34012560Y-49160000D01*
X34056838Y-49395317D01*
X34195910Y-49611441D01*
X34399574Y-49750598D01*
X34365282Y-49784890D01*
X34479839Y-49899447D01*
X34223357Y-49985852D01*
X34013542Y-50559336D01*
X34039161Y-51169460D01*
X34223357Y-51614148D01*
X34479841Y-51700554D01*
X35380395Y-50800000D01*
X35366253Y-50785858D01*
X35545858Y-50606253D01*
X35560000Y-50620395D01*
X35574143Y-50606253D01*
X35753748Y-50785858D01*
X35739605Y-50800000D01*
X36640159Y-51700554D01*
X36896643Y-51614148D01*
X37106458Y-51040664D01*
X37087752Y-50595171D01*
X39242799Y-50595171D01*
X39270770Y-51145448D01*
X39427540Y-51523923D01*
X39668483Y-51591912D01*
X40460395Y-50800000D01*
X40819605Y-50800000D01*
X41611517Y-51591912D01*
X41852460Y-51523923D01*
X42037201Y-51004829D01*
X42009230Y-50454552D01*
X41852460Y-50076077D01*
X41611517Y-50008088D01*
X40819605Y-50800000D01*
X40460395Y-50800000D01*
X39668483Y-50008088D01*
X39427540Y-50076077D01*
X39242799Y-50595171D01*
X37087752Y-50595171D01*
X37080839Y-50430540D01*
X36896643Y-49985852D01*
X36640161Y-49899447D01*
X36711125Y-49828483D01*
X39848088Y-49828483D01*
X40640000Y-50620395D01*
X41431912Y-49828483D01*
X41363923Y-49587540D01*
X40844829Y-49402799D01*
X40294552Y-49430770D01*
X39916077Y-49587540D01*
X39848088Y-49828483D01*
X36711125Y-49828483D01*
X36754718Y-49784890D01*
X36718240Y-49748412D01*
X36911441Y-49624090D01*
X37056431Y-49411890D01*
X37059851Y-49395000D01*
X41439868Y-49395000D01*
X42045000Y-50000132D01*
X42045000Y-54139868D01*
X41465062Y-54719806D01*
X41217264Y-54554233D01*
X40668113Y-54445000D01*
X40611887Y-54445000D01*
X40062736Y-54554233D01*
X39597189Y-54865302D01*
X39286120Y-55330849D01*
X39176887Y-55880000D01*
X39286120Y-56429151D01*
X39597189Y-56894698D01*
X40062736Y-57205767D01*
X40611887Y-57315000D01*
X40668113Y-57315000D01*
X41217264Y-57205767D01*
X41502767Y-57015000D01*
X41910000Y-57015000D01*
X42344346Y-56928603D01*
X42712566Y-56682566D01*
X43982566Y-55412566D01*
X44228603Y-55044346D01*
X44315000Y-54610000D01*
X44315000Y-51157393D01*
X44502757Y-51611800D01*
X44906077Y-52015824D01*
X45433309Y-52234750D01*
X46004187Y-52235248D01*
X46531800Y-52017243D01*
X46614187Y-51935000D01*
X49059868Y-51935000D01*
X51267433Y-54142566D01*
X51541682Y-54325813D01*
X51635654Y-54388603D01*
X52070000Y-54475000D01*
X54745000Y-54475000D01*
X54745000Y-54985394D01*
X54664176Y-55066077D01*
X54445250Y-55593309D01*
X54444752Y-56164187D01*
X54662757Y-56691800D01*
X55066077Y-57095824D01*
X55593309Y-57314750D01*
X56164187Y-57315248D01*
X56691800Y-57097243D01*
X57095824Y-56693923D01*
X57314750Y-56166691D01*
X57315248Y-55595813D01*
X57097243Y-55068200D01*
X57015000Y-54985813D01*
X57015000Y-52587791D01*
X57045186Y-52542614D01*
X57139195Y-52070000D01*
X57132233Y-52035000D01*
X57174195Y-52035000D01*
X57646809Y-51940991D01*
X57655775Y-51935000D01*
X57949868Y-51935000D01*
X61427434Y-55412566D01*
X61795655Y-55658604D01*
X61852560Y-55669923D01*
X61852560Y-56110000D01*
X61896838Y-56345317D01*
X62035910Y-56561441D01*
X62248110Y-56706431D01*
X62500000Y-56757440D01*
X64500000Y-56757440D01*
X64681165Y-56723351D01*
X64849500Y-56757440D01*
X66849500Y-56757440D01*
X67084817Y-56713162D01*
X67300941Y-56574090D01*
X67445000Y-56363253D01*
X67445000Y-57942776D01*
X67313590Y-57738559D01*
X67101390Y-57593569D01*
X66849500Y-57542560D01*
X64849500Y-57542560D01*
X64668335Y-57576649D01*
X64500000Y-57542560D01*
X62500000Y-57542560D01*
X62264683Y-57586838D01*
X62048559Y-57725910D01*
X61903569Y-57938110D01*
X61852560Y-58190000D01*
X61852560Y-58630077D01*
X61795655Y-58641396D01*
X61427434Y-58887434D01*
X57949868Y-62365000D01*
X57655775Y-62365000D01*
X57646809Y-62359009D01*
X57174195Y-62265000D01*
X57125805Y-62265000D01*
X56653191Y-62359009D01*
X56252528Y-62626723D01*
X55984814Y-63027386D01*
X55971946Y-63092075D01*
X55769255Y-62712828D01*
X55394998Y-62405657D01*
X54931681Y-62265090D01*
X54737000Y-62420009D01*
X54737000Y-63373000D01*
X54757000Y-63373000D01*
X54757000Y-63627000D01*
X54737000Y-63627000D01*
X54737000Y-64264182D01*
X54714814Y-64297386D01*
X54620805Y-64770000D01*
X54647658Y-64905000D01*
X52540133Y-64905000D01*
X51452742Y-63817609D01*
X53216538Y-63817609D01*
X53222526Y-63860161D01*
X53450745Y-64287172D01*
X53825002Y-64594343D01*
X54288319Y-64734910D01*
X54483000Y-64579991D01*
X54483000Y-63627000D01*
X53341269Y-63627000D01*
X53216538Y-63817609D01*
X51452742Y-63817609D01*
X50817524Y-63182391D01*
X53216538Y-63182391D01*
X53341269Y-63373000D01*
X54483000Y-63373000D01*
X54483000Y-62420009D01*
X54288319Y-62265090D01*
X53825002Y-62405657D01*
X53450745Y-62712828D01*
X53222526Y-63139839D01*
X53216538Y-63182391D01*
X50817524Y-63182391D01*
X50332566Y-62697434D01*
X50283045Y-62664345D01*
X49964346Y-62451397D01*
X49530000Y-62365000D01*
X46614606Y-62365000D01*
X46533923Y-62284176D01*
X46006691Y-62065250D01*
X45435813Y-62064752D01*
X44908200Y-62282757D01*
X44504176Y-62686077D01*
X44315000Y-63141663D01*
X44315000Y-62230000D01*
X44228603Y-61795654D01*
X43982566Y-61427434D01*
X42712566Y-60157434D01*
X42663045Y-60124345D01*
X42344346Y-59911397D01*
X41910000Y-59825000D01*
X37063222Y-59825000D01*
X37063162Y-59824683D01*
X36924090Y-59608559D01*
X36711890Y-59463569D01*
X36460000Y-59412560D01*
X34660000Y-59412560D01*
X34424683Y-59456838D01*
X34208559Y-59595910D01*
X34063569Y-59808110D01*
X34012560Y-60060000D01*
X34012560Y-61860000D01*
X34056838Y-62095317D01*
X34195910Y-62311441D01*
X34399574Y-62450598D01*
X34365282Y-62484890D01*
X34479839Y-62599447D01*
X34223357Y-62685852D01*
X34013542Y-63259336D01*
X34039161Y-63869460D01*
X34223357Y-64314148D01*
X34479841Y-64400554D01*
X35380395Y-63500000D01*
X35366253Y-63485858D01*
X35545858Y-63306253D01*
X35560000Y-63320395D01*
X35574143Y-63306253D01*
X35753748Y-63485858D01*
X35739605Y-63500000D01*
X36640159Y-64400554D01*
X36896643Y-64314148D01*
X37106458Y-63740664D01*
X37087752Y-63295171D01*
X39242799Y-63295171D01*
X39270770Y-63845448D01*
X39427540Y-64223923D01*
X39668483Y-64291912D01*
X40460395Y-63500000D01*
X40819605Y-63500000D01*
X41611517Y-64291912D01*
X41852460Y-64223923D01*
X42037201Y-63704829D01*
X42009230Y-63154552D01*
X41852460Y-62776077D01*
X41611517Y-62708088D01*
X40819605Y-63500000D01*
X40460395Y-63500000D01*
X39668483Y-62708088D01*
X39427540Y-62776077D01*
X39242799Y-63295171D01*
X37087752Y-63295171D01*
X37080839Y-63130540D01*
X36896643Y-62685852D01*
X36640161Y-62599447D01*
X36711125Y-62528483D01*
X39848088Y-62528483D01*
X40640000Y-63320395D01*
X41431912Y-62528483D01*
X41363923Y-62287540D01*
X40844829Y-62102799D01*
X40294552Y-62130770D01*
X39916077Y-62287540D01*
X39848088Y-62528483D01*
X36711125Y-62528483D01*
X36754718Y-62484890D01*
X36718240Y-62448412D01*
X36911441Y-62324090D01*
X37056431Y-62111890D01*
X37059851Y-62095000D01*
X41439868Y-62095000D01*
X42045000Y-62700132D01*
X42045000Y-66839868D01*
X41465062Y-67419806D01*
X41217264Y-67254233D01*
X40668113Y-67145000D01*
X40611887Y-67145000D01*
X40062736Y-67254233D01*
X39597189Y-67565302D01*
X39286120Y-68030849D01*
X39176887Y-68580000D01*
X39286120Y-69129151D01*
X39597189Y-69594698D01*
X40062736Y-69905767D01*
X40611887Y-70015000D01*
X40668113Y-70015000D01*
X41217264Y-69905767D01*
X41502767Y-69715000D01*
X41910000Y-69715000D01*
X42344346Y-69628603D01*
X42712566Y-69382566D01*
X43982566Y-68112566D01*
X44228603Y-67744346D01*
X44315000Y-67310000D01*
X44315000Y-63857393D01*
X44502757Y-64311800D01*
X44906077Y-64715824D01*
X45433309Y-64934750D01*
X46004187Y-64935248D01*
X46531800Y-64717243D01*
X46614187Y-64635000D01*
X49059868Y-64635000D01*
X51267433Y-66842566D01*
X51414062Y-66940540D01*
X51635654Y-67088603D01*
X52070000Y-67175000D01*
X54745000Y-67175000D01*
X54745000Y-67685394D01*
X54664176Y-67766077D01*
X54445250Y-68293309D01*
X54444752Y-68864187D01*
X54662757Y-69391800D01*
X55066077Y-69795824D01*
X55593309Y-70014750D01*
X56164187Y-70015248D01*
X56691800Y-69797243D01*
X56920933Y-69568509D01*
X142658684Y-69568509D01*
X142671782Y-70497336D01*
X143002030Y-71294629D01*
X143341578Y-71478817D01*
X144820395Y-70000000D01*
X145179605Y-70000000D01*
X146658422Y-71478817D01*
X146997970Y-71294629D01*
X147341316Y-70431491D01*
X147328218Y-69502664D01*
X146997970Y-68705371D01*
X146658422Y-68521183D01*
X145179605Y-70000000D01*
X144820395Y-70000000D01*
X143341578Y-68521183D01*
X143002030Y-68705371D01*
X142658684Y-69568509D01*
X56920933Y-69568509D01*
X57095824Y-69393923D01*
X57314750Y-68866691D01*
X57315165Y-68390159D01*
X86729446Y-68390159D01*
X86815852Y-68646643D01*
X87389336Y-68856458D01*
X87999460Y-68830839D01*
X88444148Y-68646643D01*
X88530554Y-68390159D01*
X94349446Y-68390159D01*
X94435852Y-68646643D01*
X95009336Y-68856458D01*
X95619460Y-68830839D01*
X96064148Y-68646643D01*
X96150554Y-68390159D01*
X101969446Y-68390159D01*
X102055852Y-68646643D01*
X102629336Y-68856458D01*
X103239460Y-68830839D01*
X103684148Y-68646643D01*
X103770554Y-68390159D01*
X109589446Y-68390159D01*
X109675852Y-68646643D01*
X110249336Y-68856458D01*
X110859460Y-68830839D01*
X111304148Y-68646643D01*
X111390554Y-68390159D01*
X111341973Y-68341578D01*
X143521183Y-68341578D01*
X145000000Y-69820395D01*
X146478817Y-68341578D01*
X146294629Y-68002030D01*
X145431491Y-67658684D01*
X144502664Y-67671782D01*
X143705371Y-68002030D01*
X143521183Y-68341578D01*
X111341973Y-68341578D01*
X110490000Y-67489605D01*
X109589446Y-68390159D01*
X103770554Y-68390159D01*
X102870000Y-67489605D01*
X101969446Y-68390159D01*
X96150554Y-68390159D01*
X95250000Y-67489605D01*
X94349446Y-68390159D01*
X88530554Y-68390159D01*
X87630000Y-67489605D01*
X86729446Y-68390159D01*
X57315165Y-68390159D01*
X57315248Y-68295813D01*
X57097243Y-67768200D01*
X57015000Y-67685813D01*
X57015000Y-67069336D01*
X86083542Y-67069336D01*
X86109161Y-67679460D01*
X86293357Y-68124148D01*
X86549841Y-68210554D01*
X87450395Y-67310000D01*
X87809605Y-67310000D01*
X88710159Y-68210554D01*
X88966643Y-68124148D01*
X89176458Y-67550664D01*
X89156248Y-67069336D01*
X93703542Y-67069336D01*
X93729161Y-67679460D01*
X93913357Y-68124148D01*
X94169841Y-68210554D01*
X95070395Y-67310000D01*
X95429605Y-67310000D01*
X96330159Y-68210554D01*
X96586643Y-68124148D01*
X96796458Y-67550664D01*
X96776248Y-67069336D01*
X101323542Y-67069336D01*
X101349161Y-67679460D01*
X101533357Y-68124148D01*
X101789841Y-68210554D01*
X102690395Y-67310000D01*
X103049605Y-67310000D01*
X103950159Y-68210554D01*
X104206643Y-68124148D01*
X104416458Y-67550664D01*
X104396248Y-67069336D01*
X108943542Y-67069336D01*
X108969161Y-67679460D01*
X109153357Y-68124148D01*
X109409841Y-68210554D01*
X110310395Y-67310000D01*
X110669605Y-67310000D01*
X111570159Y-68210554D01*
X111826643Y-68124148D01*
X112036458Y-67550664D01*
X112010839Y-66940540D01*
X111826643Y-66495852D01*
X111570159Y-66409446D01*
X110669605Y-67310000D01*
X110310395Y-67310000D01*
X109409841Y-66409446D01*
X109153357Y-66495852D01*
X108943542Y-67069336D01*
X104396248Y-67069336D01*
X104390839Y-66940540D01*
X104206643Y-66495852D01*
X103950159Y-66409446D01*
X103049605Y-67310000D01*
X102690395Y-67310000D01*
X101789841Y-66409446D01*
X101533357Y-66495852D01*
X101323542Y-67069336D01*
X96776248Y-67069336D01*
X96770839Y-66940540D01*
X96586643Y-66495852D01*
X96330159Y-66409446D01*
X95429605Y-67310000D01*
X95070395Y-67310000D01*
X94169841Y-66409446D01*
X93913357Y-66495852D01*
X93703542Y-67069336D01*
X89156248Y-67069336D01*
X89150839Y-66940540D01*
X88966643Y-66495852D01*
X88710159Y-66409446D01*
X87809605Y-67310000D01*
X87450395Y-67310000D01*
X86549841Y-66409446D01*
X86293357Y-66495852D01*
X86083542Y-67069336D01*
X57015000Y-67069336D01*
X57015000Y-65850159D01*
X71489446Y-65850159D01*
X71575852Y-66106643D01*
X72149336Y-66316458D01*
X72759460Y-66290839D01*
X73204148Y-66106643D01*
X73290554Y-65850159D01*
X79109446Y-65850159D01*
X79195852Y-66106643D01*
X79769336Y-66316458D01*
X80379460Y-66290839D01*
X80824148Y-66106643D01*
X80910554Y-65850159D01*
X80010000Y-64949605D01*
X79109446Y-65850159D01*
X73290554Y-65850159D01*
X72390000Y-64949605D01*
X71489446Y-65850159D01*
X57015000Y-65850159D01*
X57015000Y-65287791D01*
X57045186Y-65242614D01*
X57139195Y-64770000D01*
X57132233Y-64735000D01*
X57174195Y-64735000D01*
X57646809Y-64640991D01*
X57655775Y-64635000D01*
X58420000Y-64635000D01*
X58854346Y-64548603D01*
X59222566Y-64302566D01*
X61976311Y-61548821D01*
X62035910Y-61641441D01*
X62248110Y-61786431D01*
X62500000Y-61837440D01*
X64500000Y-61837440D01*
X64681165Y-61803351D01*
X64849500Y-61837440D01*
X66849500Y-61837440D01*
X67084817Y-61793162D01*
X67300941Y-61654090D01*
X67445931Y-61441890D01*
X67496940Y-61190000D01*
X67496940Y-60787815D01*
X67744346Y-60738603D01*
X68112566Y-60492566D01*
X69382566Y-59222566D01*
X69606494Y-58887434D01*
X69628603Y-58854346D01*
X69715000Y-58420000D01*
X69715000Y-46990000D01*
X69628603Y-46555654D01*
X69382566Y-46187434D01*
X68445000Y-45249868D01*
X68445000Y-43650132D01*
X70320133Y-41775000D01*
X75842607Y-41775000D01*
X75388200Y-41962757D01*
X75305813Y-42045000D01*
X72390000Y-42045000D01*
X71955654Y-42131397D01*
X71636955Y-42344345D01*
X71587434Y-42377434D01*
X71149843Y-42815025D01*
X70796205Y-42814716D01*
X70195057Y-43063106D01*
X69734722Y-43522637D01*
X69485284Y-44123352D01*
X69484716Y-44773795D01*
X69733106Y-45374943D01*
X70192637Y-45835278D01*
X70793352Y-46084716D01*
X71443795Y-46085284D01*
X72044943Y-45836894D01*
X72505278Y-45377363D01*
X72754716Y-44776648D01*
X72755027Y-44420105D01*
X72860132Y-44315000D01*
X75305394Y-44315000D01*
X75386077Y-44395824D01*
X75913309Y-44614750D01*
X76484187Y-44615248D01*
X77011800Y-44397243D01*
X77094187Y-44315000D01*
X79539868Y-44315000D01*
X80145000Y-44920132D01*
X80145000Y-46519146D01*
X79944683Y-46556838D01*
X79728559Y-46695910D01*
X79583569Y-46908110D01*
X79532560Y-47160000D01*
X79532560Y-49360000D01*
X79576838Y-49595317D01*
X79715910Y-49811441D01*
X79928110Y-49956431D01*
X80145000Y-50000352D01*
X80145000Y-56679868D01*
X79207434Y-57617434D01*
X78961397Y-57985654D01*
X78875000Y-58420000D01*
X78875000Y-60726778D01*
X78874683Y-60726838D01*
X78658559Y-60865910D01*
X78513569Y-61078110D01*
X78510149Y-61095000D01*
X73893222Y-61095000D01*
X73893162Y-61094683D01*
X73754090Y-60878559D01*
X73541890Y-60733569D01*
X73290000Y-60682560D01*
X71490000Y-60682560D01*
X71254683Y-60726838D01*
X71038559Y-60865910D01*
X70893569Y-61078110D01*
X70842560Y-61330000D01*
X70842560Y-63130000D01*
X70886838Y-63365317D01*
X71025910Y-63581441D01*
X71229574Y-63720598D01*
X71195282Y-63754890D01*
X71309839Y-63869447D01*
X71053357Y-63955852D01*
X70843542Y-64529336D01*
X70869161Y-65139460D01*
X71053357Y-65584148D01*
X71309841Y-65670554D01*
X72210395Y-64770000D01*
X72196253Y-64755858D01*
X72375858Y-64576253D01*
X72390000Y-64590395D01*
X72404143Y-64576253D01*
X72583748Y-64755858D01*
X72569605Y-64770000D01*
X73470159Y-65670554D01*
X73726643Y-65584148D01*
X73936458Y-65010664D01*
X73910839Y-64400540D01*
X73726643Y-63955852D01*
X73470161Y-63869447D01*
X73584718Y-63754890D01*
X73548240Y-63718412D01*
X73741441Y-63594090D01*
X73886431Y-63381890D01*
X73889851Y-63365000D01*
X78506778Y-63365000D01*
X78506838Y-63365317D01*
X78645910Y-63581441D01*
X78849574Y-63720598D01*
X78815282Y-63754890D01*
X78929839Y-63869447D01*
X78673357Y-63955852D01*
X78463542Y-64529336D01*
X78489161Y-65139460D01*
X78673357Y-65584148D01*
X78929841Y-65670554D01*
X79830395Y-64770000D01*
X79816253Y-64755858D01*
X79995858Y-64576253D01*
X80010000Y-64590395D01*
X80024143Y-64576253D01*
X80203748Y-64755858D01*
X80189605Y-64770000D01*
X81090159Y-65670554D01*
X81346643Y-65584148D01*
X81556458Y-65010664D01*
X81530839Y-64400540D01*
X81346643Y-63955852D01*
X81090161Y-63869447D01*
X81204718Y-63754890D01*
X81168240Y-63718412D01*
X81361441Y-63594090D01*
X81506431Y-63381890D01*
X81509851Y-63365000D01*
X86126778Y-63365000D01*
X86126838Y-63365317D01*
X86265910Y-63581441D01*
X86478110Y-63726431D01*
X86498534Y-63730567D01*
X86329449Y-63899357D01*
X86095267Y-64463330D01*
X86094735Y-65073991D01*
X86327932Y-65638371D01*
X86759357Y-66070551D01*
X86780194Y-66079203D01*
X86729446Y-66229841D01*
X87630000Y-67130395D01*
X88530554Y-66229841D01*
X88479965Y-66079673D01*
X88498371Y-66072068D01*
X88665731Y-65905000D01*
X94214095Y-65905000D01*
X94379357Y-66070551D01*
X94400194Y-66079203D01*
X94349446Y-66229841D01*
X95250000Y-67130395D01*
X96150554Y-66229841D01*
X96099965Y-66079673D01*
X96118371Y-66072068D01*
X96285731Y-65905000D01*
X101834095Y-65905000D01*
X101999357Y-66070551D01*
X102020194Y-66079203D01*
X101969446Y-66229841D01*
X102870000Y-67130395D01*
X103770554Y-66229841D01*
X103719965Y-66079673D01*
X103738371Y-66072068D01*
X103905731Y-65905000D01*
X109454095Y-65905000D01*
X109619357Y-66070551D01*
X109640194Y-66079203D01*
X109589446Y-66229841D01*
X110490000Y-67130395D01*
X111390554Y-66229841D01*
X111339965Y-66079673D01*
X111358371Y-66072068D01*
X111525731Y-65905000D01*
X111760000Y-65905000D01*
X112035703Y-65850159D01*
X123559446Y-65850159D01*
X123645852Y-66106643D01*
X124219336Y-66316458D01*
X124829460Y-66290839D01*
X125274148Y-66106643D01*
X125360554Y-65850159D01*
X131179446Y-65850159D01*
X131265852Y-66106643D01*
X131839336Y-66316458D01*
X132449460Y-66290839D01*
X132894148Y-66106643D01*
X132980554Y-65850159D01*
X138799446Y-65850159D01*
X138885852Y-66106643D01*
X139459336Y-66316458D01*
X140069460Y-66290839D01*
X140514148Y-66106643D01*
X140600554Y-65850159D01*
X139700000Y-64949605D01*
X138799446Y-65850159D01*
X132980554Y-65850159D01*
X132080000Y-64949605D01*
X131179446Y-65850159D01*
X125360554Y-65850159D01*
X124460000Y-64949605D01*
X123559446Y-65850159D01*
X112035703Y-65850159D01*
X112194346Y-65818603D01*
X112562566Y-65572566D01*
X113832566Y-64302566D01*
X113842852Y-64287172D01*
X114078603Y-63934346D01*
X114165000Y-63500000D01*
X114165000Y-61330000D01*
X122912560Y-61330000D01*
X122912560Y-63130000D01*
X122956838Y-63365317D01*
X123095910Y-63581441D01*
X123299574Y-63720598D01*
X123265282Y-63754890D01*
X123379839Y-63869447D01*
X123123357Y-63955852D01*
X122913542Y-64529336D01*
X122939161Y-65139460D01*
X123123357Y-65584148D01*
X123379841Y-65670554D01*
X124280395Y-64770000D01*
X124266253Y-64755858D01*
X124445858Y-64576253D01*
X124460000Y-64590395D01*
X124474143Y-64576253D01*
X124653748Y-64755858D01*
X124639605Y-64770000D01*
X125540159Y-65670554D01*
X125796643Y-65584148D01*
X126006458Y-65010664D01*
X125980839Y-64400540D01*
X125796643Y-63955852D01*
X125540161Y-63869447D01*
X125654718Y-63754890D01*
X125618240Y-63718412D01*
X125811441Y-63594090D01*
X125956431Y-63381890D01*
X126007440Y-63130000D01*
X126007440Y-61330000D01*
X130532560Y-61330000D01*
X130532560Y-63130000D01*
X130576838Y-63365317D01*
X130715910Y-63581441D01*
X130919574Y-63720598D01*
X130885282Y-63754890D01*
X130999839Y-63869447D01*
X130743357Y-63955852D01*
X130533542Y-64529336D01*
X130559161Y-65139460D01*
X130743357Y-65584148D01*
X130999841Y-65670554D01*
X131900395Y-64770000D01*
X131886253Y-64755858D01*
X132065858Y-64576253D01*
X132080000Y-64590395D01*
X132094143Y-64576253D01*
X132273748Y-64755858D01*
X132259605Y-64770000D01*
X133160159Y-65670554D01*
X133416643Y-65584148D01*
X133626458Y-65010664D01*
X133600839Y-64400540D01*
X133416643Y-63955852D01*
X133160161Y-63869447D01*
X133274718Y-63754890D01*
X133238240Y-63718412D01*
X133431441Y-63594090D01*
X133576431Y-63381890D01*
X133627440Y-63130000D01*
X133627440Y-61330000D01*
X138152560Y-61330000D01*
X138152560Y-63130000D01*
X138196838Y-63365317D01*
X138335910Y-63581441D01*
X138539574Y-63720598D01*
X138505282Y-63754890D01*
X138619839Y-63869447D01*
X138363357Y-63955852D01*
X138153542Y-64529336D01*
X138179161Y-65139460D01*
X138363357Y-65584148D01*
X138619841Y-65670554D01*
X139520395Y-64770000D01*
X139506253Y-64755858D01*
X139685858Y-64576253D01*
X139700000Y-64590395D01*
X139714143Y-64576253D01*
X139893748Y-64755858D01*
X139879605Y-64770000D01*
X140780159Y-65670554D01*
X141036643Y-65584148D01*
X141246458Y-65010664D01*
X141220839Y-64400540D01*
X141036643Y-63955852D01*
X140780161Y-63869447D01*
X140894718Y-63754890D01*
X140858240Y-63718412D01*
X141051441Y-63594090D01*
X141196431Y-63381890D01*
X141247440Y-63130000D01*
X141247440Y-61330000D01*
X141203162Y-61094683D01*
X141064090Y-60878559D01*
X140851890Y-60733569D01*
X140600000Y-60682560D01*
X138800000Y-60682560D01*
X138564683Y-60726838D01*
X138348559Y-60865910D01*
X138203569Y-61078110D01*
X138152560Y-61330000D01*
X133627440Y-61330000D01*
X133583162Y-61094683D01*
X133444090Y-60878559D01*
X133231890Y-60733569D01*
X132980000Y-60682560D01*
X131180000Y-60682560D01*
X130944683Y-60726838D01*
X130728559Y-60865910D01*
X130583569Y-61078110D01*
X130532560Y-61330000D01*
X126007440Y-61330000D01*
X125963162Y-61094683D01*
X125824090Y-60878559D01*
X125611890Y-60733569D01*
X125360000Y-60682560D01*
X123560000Y-60682560D01*
X123324683Y-60726838D01*
X123108559Y-60865910D01*
X122963569Y-61078110D01*
X122912560Y-61330000D01*
X114165000Y-61330000D01*
X114165000Y-60960000D01*
X114078603Y-60525654D01*
X113832566Y-60157434D01*
X112562566Y-58887434D01*
X112513045Y-58854345D01*
X112194346Y-58641397D01*
X111760000Y-58555000D01*
X109690132Y-58555000D01*
X109085000Y-57949868D01*
X109085000Y-56960159D01*
X138799446Y-56960159D01*
X138885852Y-57216643D01*
X139459336Y-57426458D01*
X140069460Y-57400839D01*
X140514148Y-57216643D01*
X140600554Y-56960159D01*
X139700000Y-56059605D01*
X138799446Y-56960159D01*
X109085000Y-56960159D01*
X109085000Y-55745000D01*
X113437233Y-55745000D01*
X113722736Y-55935767D01*
X114271887Y-56045000D01*
X114328113Y-56045000D01*
X114877264Y-55935767D01*
X115342811Y-55624698D01*
X115653880Y-55159151D01*
X115763113Y-54610000D01*
X115653880Y-54060849D01*
X115342811Y-53595302D01*
X114877264Y-53284233D01*
X114328113Y-53175000D01*
X114271887Y-53175000D01*
X113722736Y-53284233D01*
X113437233Y-53475000D01*
X109085000Y-53475000D01*
X109085000Y-48730132D01*
X110022566Y-47792566D01*
X110165561Y-47578559D01*
X110268603Y-47424346D01*
X110355000Y-46990000D01*
X110355000Y-45627204D01*
X110605278Y-45377363D01*
X110854716Y-44776648D01*
X110855284Y-44126205D01*
X110606894Y-43525057D01*
X110147363Y-43064722D01*
X110099867Y-43045000D01*
X112559868Y-43045000D01*
X112976167Y-43461299D01*
X112914722Y-43522637D01*
X112665284Y-44123352D01*
X112664716Y-44773795D01*
X112913106Y-45374943D01*
X113165000Y-45627278D01*
X113165000Y-49923272D01*
X112946120Y-50250849D01*
X112836887Y-50800000D01*
X112946120Y-51349151D01*
X113257189Y-51814698D01*
X113722736Y-52125767D01*
X114271887Y-52235000D01*
X114328113Y-52235000D01*
X114877264Y-52125767D01*
X115342811Y-51814698D01*
X115653880Y-51349151D01*
X115706584Y-51084187D01*
X128104752Y-51084187D01*
X128322757Y-51611800D01*
X128726077Y-52015824D01*
X129253309Y-52234750D01*
X129824187Y-52235248D01*
X130351800Y-52017243D01*
X130434187Y-51935000D01*
X138196778Y-51935000D01*
X138196838Y-51935317D01*
X138335910Y-52151441D01*
X138414296Y-52205000D01*
X134620000Y-52205000D01*
X134185654Y-52291397D01*
X133817435Y-52537433D01*
X132879868Y-53475000D01*
X130434606Y-53475000D01*
X130353923Y-53394176D01*
X129826691Y-53175250D01*
X129255813Y-53174752D01*
X128728200Y-53392757D01*
X128324176Y-53796077D01*
X128105250Y-54323309D01*
X128104752Y-54894187D01*
X128322757Y-55421800D01*
X128726077Y-55825824D01*
X129253309Y-56044750D01*
X129824187Y-56045248D01*
X130351800Y-55827243D01*
X130434187Y-55745000D01*
X133350000Y-55745000D01*
X133784346Y-55658603D01*
X133813181Y-55639336D01*
X138153542Y-55639336D01*
X138179161Y-56249460D01*
X138363357Y-56694148D01*
X138619841Y-56780554D01*
X139520395Y-55880000D01*
X139879605Y-55880000D01*
X140780159Y-56780554D01*
X141036643Y-56694148D01*
X141246458Y-56120664D01*
X141220839Y-55510540D01*
X141036643Y-55065852D01*
X140780159Y-54979446D01*
X139879605Y-55880000D01*
X139520395Y-55880000D01*
X138619841Y-54979446D01*
X138363357Y-55065852D01*
X138153542Y-55639336D01*
X133813181Y-55639336D01*
X134152566Y-55412566D01*
X135090132Y-54475000D01*
X138664095Y-54475000D01*
X138829357Y-54640551D01*
X138850194Y-54649203D01*
X138799446Y-54799841D01*
X139700000Y-55700395D01*
X140600554Y-54799841D01*
X140549965Y-54649673D01*
X140568371Y-54642068D01*
X141000551Y-54210643D01*
X141234733Y-53646670D01*
X141235265Y-53036009D01*
X141002068Y-52471629D01*
X140834120Y-52303387D01*
X140835317Y-52303162D01*
X141051441Y-52164090D01*
X141196431Y-51951890D01*
X141247440Y-51700000D01*
X141247440Y-49900000D01*
X141203162Y-49664683D01*
X141064090Y-49448559D01*
X140851890Y-49303569D01*
X140600000Y-49252560D01*
X138800000Y-49252560D01*
X138564683Y-49296838D01*
X138348559Y-49435910D01*
X138203569Y-49648110D01*
X138200149Y-49665000D01*
X130434606Y-49665000D01*
X130353923Y-49584176D01*
X129826691Y-49365250D01*
X129255813Y-49364752D01*
X128728200Y-49582757D01*
X128324176Y-49986077D01*
X128105250Y-50513309D01*
X128104752Y-51084187D01*
X115706584Y-51084187D01*
X115763113Y-50800000D01*
X115653880Y-50250849D01*
X115435000Y-49923272D01*
X115435000Y-46691517D01*
X122398088Y-46691517D01*
X122466077Y-46932460D01*
X122985171Y-47117201D01*
X123535448Y-47089230D01*
X123913923Y-46932460D01*
X123981912Y-46691517D01*
X123190000Y-45899605D01*
X122398088Y-46691517D01*
X115435000Y-46691517D01*
X115435000Y-45627204D01*
X115547228Y-45515171D01*
X121792799Y-45515171D01*
X121820770Y-46065448D01*
X121977540Y-46443923D01*
X122218483Y-46511912D01*
X123010395Y-45720000D01*
X123369605Y-45720000D01*
X124161517Y-46511912D01*
X124402460Y-46443923D01*
X124587201Y-45924829D01*
X124559230Y-45374552D01*
X124465284Y-45147745D01*
X131251861Y-45147745D01*
X131325995Y-45393864D01*
X131863223Y-45586965D01*
X132433454Y-45559778D01*
X132834005Y-45393864D01*
X132908139Y-45147745D01*
X132080000Y-44319605D01*
X131251861Y-45147745D01*
X124465284Y-45147745D01*
X124402460Y-44996077D01*
X124161517Y-44928088D01*
X123369605Y-45720000D01*
X123010395Y-45720000D01*
X122218483Y-44928088D01*
X121977540Y-44996077D01*
X121792799Y-45515171D01*
X115547228Y-45515171D01*
X115685278Y-45377363D01*
X115934716Y-44776648D01*
X115934740Y-44748483D01*
X122398088Y-44748483D01*
X123190000Y-45540395D01*
X123981912Y-44748483D01*
X123913923Y-44507540D01*
X123394829Y-44322799D01*
X122844552Y-44350770D01*
X122466077Y-44507540D01*
X122398088Y-44748483D01*
X115934740Y-44748483D01*
X115935284Y-44126205D01*
X115851414Y-43923223D01*
X130633035Y-43923223D01*
X130660222Y-44493454D01*
X130826136Y-44894005D01*
X131072255Y-44968139D01*
X131900395Y-44140000D01*
X132259605Y-44140000D01*
X133087745Y-44968139D01*
X133333864Y-44894005D01*
X133526965Y-44356777D01*
X133522359Y-44260159D01*
X138799446Y-44260159D01*
X138885852Y-44516643D01*
X139459336Y-44726458D01*
X140069460Y-44700839D01*
X140514148Y-44516643D01*
X140600554Y-44260159D01*
X139700000Y-43359605D01*
X138799446Y-44260159D01*
X133522359Y-44260159D01*
X133499778Y-43786546D01*
X133333864Y-43385995D01*
X133087745Y-43311861D01*
X132259605Y-44140000D01*
X131900395Y-44140000D01*
X131072255Y-43311861D01*
X130826136Y-43385995D01*
X130633035Y-43923223D01*
X115851414Y-43923223D01*
X115686894Y-43525057D01*
X115435000Y-43272722D01*
X115435000Y-43180000D01*
X115425503Y-43132255D01*
X131251861Y-43132255D01*
X132080000Y-43960395D01*
X132908139Y-43132255D01*
X132834005Y-42886136D01*
X132296777Y-42693035D01*
X131726546Y-42720222D01*
X131325995Y-42886136D01*
X131251861Y-43132255D01*
X115425503Y-43132255D01*
X115348603Y-42745654D01*
X115102566Y-42377434D01*
X114500132Y-41775000D01*
X122295394Y-41775000D01*
X122376077Y-41855824D01*
X122903309Y-42074750D01*
X123474187Y-42075248D01*
X124001800Y-41857243D01*
X124084187Y-41775000D01*
X130740982Y-41775000D01*
X130815910Y-41891441D01*
X131028110Y-42036431D01*
X131280000Y-42087440D01*
X132880000Y-42087440D01*
X133115317Y-42043162D01*
X133331441Y-41904090D01*
X133419644Y-41775000D01*
X138196778Y-41775000D01*
X138196838Y-41775317D01*
X138335910Y-41991441D01*
X138539574Y-42130598D01*
X138505282Y-42164890D01*
X138619839Y-42279447D01*
X138363357Y-42365852D01*
X138153542Y-42939336D01*
X138179161Y-43549460D01*
X138363357Y-43994148D01*
X138619841Y-44080554D01*
X139520395Y-43180000D01*
X139506253Y-43165858D01*
X139685858Y-42986253D01*
X139700000Y-43000395D01*
X139714143Y-42986253D01*
X139893748Y-43165858D01*
X139879605Y-43180000D01*
X140780159Y-44080554D01*
X141036643Y-43994148D01*
X141246458Y-43420664D01*
X141220839Y-42810540D01*
X141036643Y-42365852D01*
X140780161Y-42279447D01*
X140894718Y-42164890D01*
X140858240Y-42128412D01*
X141051441Y-42004090D01*
X141196431Y-41791890D01*
X141247440Y-41540000D01*
X141247440Y-39740000D01*
X141203162Y-39504683D01*
X141064090Y-39288559D01*
X140851890Y-39143569D01*
X140600000Y-39092560D01*
X138800000Y-39092560D01*
X138564683Y-39136838D01*
X138348559Y-39275910D01*
X138203569Y-39488110D01*
X138200149Y-39505000D01*
X133419018Y-39505000D01*
X133344090Y-39388559D01*
X133131890Y-39243569D01*
X132880000Y-39192560D01*
X131280000Y-39192560D01*
X131044683Y-39236838D01*
X130828559Y-39375910D01*
X130740356Y-39505000D01*
X124084606Y-39505000D01*
X124003923Y-39424176D01*
X123476691Y-39205250D01*
X122905813Y-39204752D01*
X122378200Y-39422757D01*
X122295813Y-39505000D01*
X107233686Y-39505000D01*
X108455699Y-38282987D01*
X108893352Y-38464716D01*
X109543795Y-38465284D01*
X110144943Y-38216894D01*
X110605278Y-37757363D01*
X110854716Y-37156648D01*
X110854718Y-37153795D01*
X112664716Y-37153795D01*
X112913106Y-37754943D01*
X113372637Y-38215278D01*
X113973352Y-38464716D01*
X114623795Y-38465284D01*
X115224943Y-38216894D01*
X115685278Y-37757363D01*
X115934716Y-37156648D01*
X115935284Y-36506205D01*
X115686894Y-35905057D01*
X115685000Y-35903160D01*
X115685000Y-31794975D01*
X115790598Y-31640426D01*
X115824890Y-31674718D01*
X115939447Y-31560161D01*
X116025852Y-31816643D01*
X116599336Y-32026458D01*
X117209460Y-32000839D01*
X117654148Y-31816643D01*
X117707450Y-31658422D01*
X143521183Y-31658422D01*
X143705371Y-31997970D01*
X144568509Y-32341316D01*
X145497336Y-32328218D01*
X146294629Y-31997970D01*
X146478817Y-31658422D01*
X145000000Y-30179605D01*
X143521183Y-31658422D01*
X117707450Y-31658422D01*
X117740554Y-31560159D01*
X116840000Y-30659605D01*
X116825858Y-30673748D01*
X116646253Y-30494143D01*
X116660395Y-30480000D01*
X117019605Y-30480000D01*
X117920159Y-31380554D01*
X118176643Y-31294148D01*
X118386458Y-30720664D01*
X118360839Y-30110540D01*
X118176643Y-29665852D01*
X117920159Y-29579446D01*
X117019605Y-30480000D01*
X116660395Y-30480000D01*
X116646253Y-30465858D01*
X116825858Y-30286253D01*
X116840000Y-30300395D01*
X117571886Y-29568509D01*
X142658684Y-29568509D01*
X142671782Y-30497336D01*
X143002030Y-31294629D01*
X143341578Y-31478817D01*
X144820395Y-30000000D01*
X145179605Y-30000000D01*
X146658422Y-31478817D01*
X146997970Y-31294629D01*
X147341316Y-30431491D01*
X147328218Y-29502664D01*
X146997970Y-28705371D01*
X146658422Y-28521183D01*
X145179605Y-30000000D01*
X144820395Y-30000000D01*
X143341578Y-28521183D01*
X143002030Y-28705371D01*
X142658684Y-29568509D01*
X117571886Y-29568509D01*
X117740554Y-29399841D01*
X117654148Y-29143357D01*
X117080664Y-28933542D01*
X116470540Y-28959161D01*
X116025852Y-29143357D01*
X115939447Y-29399839D01*
X115824890Y-29285282D01*
X115788412Y-29321760D01*
X115664090Y-29128559D01*
X115451890Y-28983569D01*
X115200000Y-28932560D01*
X113400000Y-28932560D01*
X113164683Y-28976838D01*
X112948559Y-29115910D01*
X112803569Y-29328110D01*
X112752560Y-29580000D01*
X112752560Y-31380000D01*
X112796838Y-31615317D01*
X112915000Y-31798946D01*
X112915000Y-35902359D01*
X112914722Y-35902637D01*
X112665284Y-36503352D01*
X112664716Y-37153795D01*
X110854718Y-37153795D01*
X110855284Y-36506205D01*
X110606894Y-35905057D01*
X110147363Y-35444722D01*
X109546648Y-35195284D01*
X108896205Y-35194716D01*
X108295057Y-35443106D01*
X108293160Y-35445000D01*
X107950000Y-35445000D01*
X107419983Y-35550427D01*
X107190609Y-35703690D01*
X106970657Y-35850657D01*
X105774812Y-37046502D01*
X105775284Y-36506205D01*
X105526894Y-35905057D01*
X105525000Y-35903160D01*
X105525000Y-31794975D01*
X105630598Y-31640426D01*
X105664890Y-31674718D01*
X105779447Y-31560161D01*
X105865852Y-31816643D01*
X106439336Y-32026458D01*
X107049460Y-32000839D01*
X107494148Y-31816643D01*
X107580554Y-31560159D01*
X106680000Y-30659605D01*
X106665858Y-30673748D01*
X106486253Y-30494143D01*
X106500395Y-30480000D01*
X106859605Y-30480000D01*
X107760159Y-31380554D01*
X108016643Y-31294148D01*
X108226458Y-30720664D01*
X108200839Y-30110540D01*
X108016643Y-29665852D01*
X107760159Y-29579446D01*
X106859605Y-30480000D01*
X106500395Y-30480000D01*
X106486253Y-30465858D01*
X106665858Y-30286253D01*
X106680000Y-30300395D01*
X107580554Y-29399841D01*
X107494148Y-29143357D01*
X106920664Y-28933542D01*
X106310540Y-28959161D01*
X105865852Y-29143357D01*
X105779447Y-29399839D01*
X105664890Y-29285282D01*
X105628412Y-29321760D01*
X105504090Y-29128559D01*
X105291890Y-28983569D01*
X105040000Y-28932560D01*
X103240000Y-28932560D01*
X103004683Y-28976838D01*
X102788559Y-29115910D01*
X102643569Y-29328110D01*
X102592560Y-29580000D01*
X102592560Y-31380000D01*
X102636838Y-31615317D01*
X102755000Y-31798946D01*
X102755000Y-35902359D01*
X102754722Y-35902637D01*
X102505284Y-36503352D01*
X102504810Y-37046124D01*
X101715000Y-36256314D01*
X101715000Y-34290000D01*
X101609573Y-33759983D01*
X101309343Y-33310657D01*
X98769343Y-30770657D01*
X98603142Y-30659605D01*
X98320017Y-30470427D01*
X97790000Y-30365000D01*
X69850000Y-30365000D01*
X69319983Y-30470427D01*
X69036858Y-30659605D01*
X68870657Y-30770657D01*
X66330657Y-33310657D01*
X66030427Y-33759983D01*
X65925000Y-34290000D01*
X65925000Y-37526314D01*
X65466314Y-37985000D01*
X64657243Y-37985000D01*
X64885278Y-37757363D01*
X65134716Y-37156648D01*
X65135284Y-36506205D01*
X64886894Y-35905057D01*
X64885000Y-35903160D01*
X64885000Y-31794975D01*
X64990598Y-31640426D01*
X65024890Y-31674718D01*
X65139447Y-31560161D01*
X65225852Y-31816643D01*
X65799336Y-32026458D01*
X66409460Y-32000839D01*
X66854148Y-31816643D01*
X66940554Y-31560159D01*
X66040000Y-30659605D01*
X66025858Y-30673748D01*
X65846253Y-30494143D01*
X65860395Y-30480000D01*
X66219605Y-30480000D01*
X67120159Y-31380554D01*
X67376643Y-31294148D01*
X67586458Y-30720664D01*
X67560839Y-30110540D01*
X67376643Y-29665852D01*
X67120159Y-29579446D01*
X66219605Y-30480000D01*
X65860395Y-30480000D01*
X65846253Y-30465858D01*
X66025858Y-30286253D01*
X66040000Y-30300395D01*
X66940554Y-29399841D01*
X66854148Y-29143357D01*
X66280664Y-28933542D01*
X65670540Y-28959161D01*
X65225852Y-29143357D01*
X65139447Y-29399839D01*
X65024890Y-29285282D01*
X64988412Y-29321760D01*
X64864090Y-29128559D01*
X64651890Y-28983569D01*
X64400000Y-28932560D01*
X62600000Y-28932560D01*
X62364683Y-28976838D01*
X62148559Y-29115910D01*
X62003569Y-29328110D01*
X61952560Y-29580000D01*
X61952560Y-31380000D01*
X61996838Y-31615317D01*
X62115000Y-31798946D01*
X62115000Y-35902359D01*
X62114722Y-35902637D01*
X61865284Y-36503352D01*
X61864716Y-37153795D01*
X62113106Y-37754943D01*
X62342761Y-37985000D01*
X60263686Y-37985000D01*
X59872987Y-37594301D01*
X60054716Y-37156648D01*
X60055284Y-36506205D01*
X59806894Y-35905057D01*
X59347363Y-35444722D01*
X58746648Y-35195284D01*
X58096205Y-35194716D01*
X57495057Y-35443106D01*
X57034722Y-35902637D01*
X56785284Y-36503352D01*
X56784716Y-37153795D01*
X57033106Y-37754943D01*
X57035000Y-37756840D01*
X57035000Y-38100000D01*
X57140427Y-38630017D01*
X57387642Y-39000000D01*
X57440657Y-39079343D01*
X58710657Y-40349343D01*
X59159983Y-40649573D01*
X59690000Y-40755000D01*
X66040000Y-40755000D01*
X66570017Y-40649573D01*
X67019343Y-40349343D01*
X68289343Y-39079343D01*
X68294572Y-39071517D01*
X75408088Y-39071517D01*
X75476077Y-39312460D01*
X75995171Y-39497201D01*
X76545448Y-39469230D01*
X76923923Y-39312460D01*
X76991912Y-39071517D01*
X76200000Y-38279605D01*
X75408088Y-39071517D01*
X68294572Y-39071517D01*
X68342358Y-39000000D01*
X68589573Y-38630017D01*
X68695000Y-38100000D01*
X68695000Y-37115750D01*
X69485000Y-37115750D01*
X69485000Y-37956310D01*
X69581673Y-38189699D01*
X69760302Y-38368327D01*
X69993691Y-38465000D01*
X70834250Y-38465000D01*
X70993000Y-38306250D01*
X70993000Y-36957000D01*
X71247000Y-36957000D01*
X71247000Y-38306250D01*
X71405750Y-38465000D01*
X72246309Y-38465000D01*
X72479698Y-38368327D01*
X72658327Y-38189699D01*
X72755000Y-37956310D01*
X72755000Y-37895171D01*
X74802799Y-37895171D01*
X74830770Y-38445448D01*
X74987540Y-38823923D01*
X75228483Y-38891912D01*
X76020395Y-38100000D01*
X76379605Y-38100000D01*
X77171517Y-38891912D01*
X77412460Y-38823923D01*
X77597201Y-38304829D01*
X77569230Y-37754552D01*
X77412460Y-37376077D01*
X77171517Y-37308088D01*
X76379605Y-38100000D01*
X76020395Y-38100000D01*
X75228483Y-37308088D01*
X74987540Y-37376077D01*
X74802799Y-37895171D01*
X72755000Y-37895171D01*
X72755000Y-37128483D01*
X75408088Y-37128483D01*
X76200000Y-37920395D01*
X76991912Y-37128483D01*
X76923923Y-36887540D01*
X76404829Y-36702799D01*
X75854552Y-36730770D01*
X75476077Y-36887540D01*
X75408088Y-37128483D01*
X72755000Y-37128483D01*
X72755000Y-37115750D01*
X72596250Y-36957000D01*
X71247000Y-36957000D01*
X70993000Y-36957000D01*
X69643750Y-36957000D01*
X69485000Y-37115750D01*
X68695000Y-37115750D01*
X68695000Y-35703690D01*
X69485000Y-35703690D01*
X69485000Y-36544250D01*
X69643750Y-36703000D01*
X70993000Y-36703000D01*
X70993000Y-35353750D01*
X71247000Y-35353750D01*
X71247000Y-36703000D01*
X72596250Y-36703000D01*
X72755000Y-36544250D01*
X72755000Y-35956123D01*
X79590817Y-35956123D01*
X79870988Y-36572392D01*
X80365668Y-37034534D01*
X80883878Y-37249175D01*
X81153000Y-37131125D01*
X81153000Y-35687000D01*
X81407000Y-35687000D01*
X81407000Y-37131125D01*
X81676122Y-37249175D01*
X82194332Y-37034534D01*
X82689012Y-36572392D01*
X82969183Y-35956123D01*
X82851604Y-35687000D01*
X81407000Y-35687000D01*
X81153000Y-35687000D01*
X79708396Y-35687000D01*
X79590817Y-35956123D01*
X72755000Y-35956123D01*
X72755000Y-35703690D01*
X72658327Y-35470301D01*
X72479698Y-35291673D01*
X72246309Y-35195000D01*
X71405750Y-35195000D01*
X71247000Y-35353750D01*
X70993000Y-35353750D01*
X70834250Y-35195000D01*
X69993691Y-35195000D01*
X69760302Y-35291673D01*
X69581673Y-35470301D01*
X69485000Y-35703690D01*
X68695000Y-35703690D01*
X68695000Y-35163877D01*
X79590817Y-35163877D01*
X79708396Y-35433000D01*
X81153000Y-35433000D01*
X81153000Y-33988875D01*
X81407000Y-33988875D01*
X81407000Y-35433000D01*
X82851604Y-35433000D01*
X82969183Y-35163877D01*
X82689012Y-34547608D01*
X82194332Y-34085466D01*
X81676122Y-33870825D01*
X81407000Y-33988875D01*
X81153000Y-33988875D01*
X80883878Y-33870825D01*
X80365668Y-34085466D01*
X79870988Y-34547608D01*
X79590817Y-35163877D01*
X68695000Y-35163877D01*
X68695000Y-34863686D01*
X70423686Y-33135000D01*
X97216314Y-33135000D01*
X98945000Y-34863686D01*
X98945000Y-36830000D01*
X99050427Y-37360017D01*
X99254647Y-37665654D01*
X99350657Y-37809343D01*
X101890657Y-40349343D01*
X102339983Y-40649573D01*
X102870000Y-40755000D01*
X104959868Y-40755000D01*
X104939868Y-40775000D01*
X102070132Y-40775000D01*
X98154975Y-36859843D01*
X98155284Y-36506205D01*
X97906894Y-35905057D01*
X97447363Y-35444722D01*
X96846648Y-35195284D01*
X96490105Y-35194973D01*
X96052566Y-34757434D01*
X95684346Y-34511397D01*
X95250000Y-34425000D01*
X88100854Y-34425000D01*
X88063162Y-34224683D01*
X87924090Y-34008559D01*
X87711890Y-33863569D01*
X87460000Y-33812560D01*
X85260000Y-33812560D01*
X85024683Y-33856838D01*
X84808559Y-33995910D01*
X84663569Y-34208110D01*
X84612560Y-34460000D01*
X84612560Y-36660000D01*
X84656838Y-36895317D01*
X84795910Y-37111441D01*
X85008110Y-37256431D01*
X85260000Y-37307440D01*
X87460000Y-37307440D01*
X87695317Y-37263162D01*
X87911441Y-37124090D01*
X88056431Y-36911890D01*
X88100352Y-36695000D01*
X90305000Y-36695000D01*
X90305000Y-37276042D01*
X90266539Y-37314436D01*
X90055241Y-37823298D01*
X90054760Y-38374285D01*
X90265169Y-38883515D01*
X90654436Y-39273461D01*
X91163298Y-39484759D01*
X91714285Y-39485240D01*
X92223515Y-39274831D01*
X92613461Y-38885564D01*
X92824759Y-38376702D01*
X92825240Y-37825715D01*
X92614831Y-37316485D01*
X92575000Y-37276585D01*
X92575000Y-36695000D01*
X94779868Y-36695000D01*
X94885025Y-36800157D01*
X94884716Y-37153795D01*
X95133106Y-37754943D01*
X95592637Y-38215278D01*
X96193352Y-38464716D01*
X96549895Y-38465027D01*
X100797434Y-42712566D01*
X101165654Y-42958603D01*
X101600000Y-43045000D01*
X103005000Y-43045000D01*
X103005000Y-43272796D01*
X102754722Y-43522637D01*
X102505284Y-44123352D01*
X102504716Y-44773795D01*
X102753106Y-45374943D01*
X103212637Y-45835278D01*
X103813352Y-46084716D01*
X104463795Y-46085284D01*
X105064943Y-45836894D01*
X105525278Y-45377363D01*
X105545000Y-45329867D01*
X105545000Y-61095000D01*
X104373222Y-61095000D01*
X104373162Y-61094683D01*
X104234090Y-60878559D01*
X104021890Y-60733569D01*
X103770000Y-60682560D01*
X101970000Y-60682560D01*
X101734683Y-60726838D01*
X101518559Y-60865910D01*
X101373569Y-61078110D01*
X101370149Y-61095000D01*
X96753222Y-61095000D01*
X96753162Y-61094683D01*
X96614090Y-60878559D01*
X96401890Y-60733569D01*
X96150000Y-60682560D01*
X94350000Y-60682560D01*
X94114683Y-60726838D01*
X93898559Y-60865910D01*
X93753569Y-61078110D01*
X93750149Y-61095000D01*
X89133222Y-61095000D01*
X89133162Y-61094683D01*
X88994090Y-60878559D01*
X88781890Y-60733569D01*
X88530000Y-60682560D01*
X86730000Y-60682560D01*
X86494683Y-60726838D01*
X86278559Y-60865910D01*
X86133569Y-61078110D01*
X86130149Y-61095000D01*
X81513222Y-61095000D01*
X81513162Y-61094683D01*
X81374090Y-60878559D01*
X81161890Y-60733569D01*
X81145000Y-60730149D01*
X81145000Y-58890132D01*
X82082566Y-57952566D01*
X82225561Y-57738559D01*
X82328603Y-57584346D01*
X82415000Y-57150000D01*
X82415000Y-50000854D01*
X82615317Y-49963162D01*
X82831441Y-49824090D01*
X82976431Y-49611890D01*
X83027440Y-49360000D01*
X83027440Y-47160000D01*
X82983162Y-46924683D01*
X82844090Y-46708559D01*
X82631890Y-46563569D01*
X82415000Y-46519648D01*
X82415000Y-44450000D01*
X82328603Y-44015654D01*
X82082566Y-43647434D01*
X80812566Y-42377434D01*
X80763045Y-42344345D01*
X80444346Y-42131397D01*
X80010000Y-42045000D01*
X77094606Y-42045000D01*
X77013923Y-41964176D01*
X76558337Y-41775000D01*
X84619868Y-41775000D01*
X85225000Y-42380132D01*
X85225000Y-46937820D01*
X85133170Y-46999179D01*
X84757069Y-47562053D01*
X84625000Y-48226009D01*
X84625000Y-48293991D01*
X84757069Y-48957947D01*
X85133170Y-49520821D01*
X85696044Y-49896922D01*
X86360000Y-50028991D01*
X87023956Y-49896922D01*
X87586830Y-49520821D01*
X87962931Y-48957947D01*
X88095000Y-48293991D01*
X88095000Y-48226009D01*
X87962931Y-47562053D01*
X87586830Y-46999179D01*
X87495000Y-46937820D01*
X87495000Y-44315000D01*
X90545394Y-44315000D01*
X90626077Y-44395824D01*
X91153309Y-44614750D01*
X91724187Y-44615248D01*
X92251800Y-44397243D01*
X92286986Y-44362118D01*
X93177434Y-45252566D01*
X93545654Y-45498603D01*
X93980000Y-45585000D01*
X94897962Y-45585000D01*
X94916838Y-45685317D01*
X95055910Y-45901441D01*
X95268110Y-46046431D01*
X95520000Y-46097440D01*
X97520000Y-46097440D01*
X97755317Y-46053162D01*
X97971441Y-45914090D01*
X98116431Y-45701890D01*
X98167440Y-45450000D01*
X98167440Y-43450000D01*
X98123162Y-43214683D01*
X97984090Y-42998559D01*
X97771890Y-42853569D01*
X97520000Y-42802560D01*
X95520000Y-42802560D01*
X95284683Y-42846838D01*
X95068559Y-42985910D01*
X94923569Y-43198110D01*
X94899898Y-43315000D01*
X94450132Y-43315000D01*
X93512566Y-42377434D01*
X93463045Y-42344345D01*
X93144346Y-42131397D01*
X92710000Y-42045000D01*
X92334606Y-42045000D01*
X92253923Y-41964176D01*
X91726691Y-41745250D01*
X91155813Y-41744752D01*
X90628200Y-41962757D01*
X90545813Y-42045000D01*
X87495000Y-42045000D01*
X87495000Y-41910000D01*
X87408603Y-41475654D01*
X87162566Y-41107434D01*
X85892566Y-39837434D01*
X85875232Y-39825852D01*
X85524346Y-39591397D01*
X85090000Y-39505000D01*
X69850000Y-39505000D01*
X69432179Y-39588110D01*
X69415654Y-39591397D01*
X69047433Y-39837434D01*
X66507434Y-42377434D01*
X66261397Y-42745654D01*
X66175000Y-43180000D01*
X66175000Y-45720000D01*
X66261397Y-46154346D01*
X66486348Y-46491009D01*
X66507434Y-46522566D01*
X67445000Y-47460132D01*
X67445000Y-47782776D01*
X67313590Y-47578559D01*
X67101390Y-47433569D01*
X66849500Y-47382560D01*
X64849500Y-47382560D01*
X64668335Y-47416649D01*
X64500000Y-47382560D01*
X62500000Y-47382560D01*
X62264683Y-47426838D01*
X62048559Y-47565910D01*
X61976502Y-47671369D01*
X60492566Y-46187434D01*
X60443045Y-46154345D01*
X60124346Y-45941397D01*
X59690000Y-45855000D01*
X59301123Y-45855000D01*
X59344943Y-45836894D01*
X59805278Y-45377363D01*
X60054716Y-44776648D01*
X60054718Y-44773795D01*
X61864716Y-44773795D01*
X62113106Y-45374943D01*
X62572637Y-45835278D01*
X63173352Y-46084716D01*
X63823795Y-46085284D01*
X64424943Y-45836894D01*
X64885278Y-45377363D01*
X65134716Y-44776648D01*
X65135284Y-44126205D01*
X64886894Y-43525057D01*
X64427363Y-43064722D01*
X63826648Y-42815284D01*
X63176205Y-42814716D01*
X62575057Y-43063106D01*
X62114722Y-43522637D01*
X61865284Y-44123352D01*
X61864716Y-44773795D01*
X60054718Y-44773795D01*
X60055284Y-44126205D01*
X59806894Y-43525057D01*
X59347363Y-43064722D01*
X58746648Y-42815284D01*
X58096205Y-42814716D01*
X57495057Y-43063106D01*
X57034722Y-43522637D01*
X56785284Y-44123352D01*
X56784716Y-44773795D01*
X57033106Y-45374943D01*
X57492637Y-45835278D01*
X57540133Y-45855000D01*
X54221123Y-45855000D01*
X54264943Y-45836894D01*
X54725278Y-45377363D01*
X54974716Y-44776648D01*
X54975284Y-44126205D01*
X54726894Y-43525057D01*
X54267363Y-43064722D01*
X53666648Y-42815284D01*
X53016205Y-42814716D01*
X52415057Y-43063106D01*
X51954722Y-43522637D01*
X51705284Y-44123352D01*
X51704716Y-44773795D01*
X51953106Y-45374943D01*
X52412637Y-45835278D01*
X52460133Y-45855000D01*
X51270133Y-45855000D01*
X42712566Y-37297434D01*
X42640341Y-37249175D01*
X42497596Y-37153795D01*
X51704716Y-37153795D01*
X51953106Y-37754943D01*
X52412637Y-38215278D01*
X53013352Y-38464716D01*
X53663795Y-38465284D01*
X54264943Y-38216894D01*
X54725278Y-37757363D01*
X54974716Y-37156648D01*
X54975284Y-36506205D01*
X54726894Y-35905057D01*
X54725000Y-35903160D01*
X54725000Y-31794975D01*
X54830598Y-31640426D01*
X54864890Y-31674718D01*
X54979447Y-31560161D01*
X55065852Y-31816643D01*
X55639336Y-32026458D01*
X56249460Y-32000839D01*
X56694148Y-31816643D01*
X56780554Y-31560159D01*
X55880000Y-30659605D01*
X55865858Y-30673748D01*
X55686253Y-30494143D01*
X55700395Y-30480000D01*
X56059605Y-30480000D01*
X56960159Y-31380554D01*
X57216643Y-31294148D01*
X57426458Y-30720664D01*
X57400839Y-30110540D01*
X57216643Y-29665852D01*
X56960159Y-29579446D01*
X56059605Y-30480000D01*
X55700395Y-30480000D01*
X55686253Y-30465858D01*
X55865858Y-30286253D01*
X55880000Y-30300395D01*
X56780554Y-29399841D01*
X56694148Y-29143357D01*
X56120664Y-28933542D01*
X55510540Y-28959161D01*
X55065852Y-29143357D01*
X54979447Y-29399839D01*
X54864890Y-29285282D01*
X54828412Y-29321760D01*
X54704090Y-29128559D01*
X54491890Y-28983569D01*
X54240000Y-28932560D01*
X52440000Y-28932560D01*
X52204683Y-28976838D01*
X51988559Y-29115910D01*
X51843569Y-29328110D01*
X51792560Y-29580000D01*
X51792560Y-31380000D01*
X51836838Y-31615317D01*
X51955000Y-31798946D01*
X51955000Y-35902359D01*
X51954722Y-35902637D01*
X51705284Y-36503352D01*
X51704716Y-37153795D01*
X42497596Y-37153795D01*
X42344346Y-37051397D01*
X41910000Y-36965000D01*
X37063222Y-36965000D01*
X37063162Y-36964683D01*
X36924090Y-36748559D01*
X36711890Y-36603569D01*
X36460000Y-36552560D01*
X34660000Y-36552560D01*
X34424683Y-36596838D01*
X34208559Y-36735910D01*
X34063569Y-36948110D01*
X34012560Y-37200000D01*
X25685000Y-37200000D01*
X25685000Y-31658422D01*
X28521183Y-31658422D01*
X28705371Y-31997970D01*
X29568509Y-32341316D01*
X30497336Y-32328218D01*
X31294629Y-31997970D01*
X31478817Y-31658422D01*
X30000000Y-30179605D01*
X28521183Y-31658422D01*
X25685000Y-31658422D01*
X25685000Y-29568509D01*
X27658684Y-29568509D01*
X27671782Y-30497336D01*
X28002030Y-31294629D01*
X28341578Y-31478817D01*
X29820395Y-30000000D01*
X30179605Y-30000000D01*
X31658422Y-31478817D01*
X31997970Y-31294629D01*
X32341316Y-30431491D01*
X32328218Y-29502664D01*
X31997970Y-28705371D01*
X31658422Y-28521183D01*
X30179605Y-30000000D01*
X29820395Y-30000000D01*
X28341578Y-28521183D01*
X28002030Y-28705371D01*
X27658684Y-29568509D01*
X25685000Y-29568509D01*
X25685000Y-28341578D01*
X28521183Y-28341578D01*
X30000000Y-29820395D01*
X31478817Y-28341578D01*
X143521183Y-28341578D01*
X145000000Y-29820395D01*
X146478817Y-28341578D01*
X146294629Y-28002030D01*
X145431491Y-27658684D01*
X144502664Y-27671782D01*
X143705371Y-28002030D01*
X143521183Y-28341578D01*
X31478817Y-28341578D01*
X31294629Y-28002030D01*
X30431491Y-27658684D01*
X29502664Y-27671782D01*
X28705371Y-28002030D01*
X28521183Y-28341578D01*
X25685000Y-28341578D01*
X25685000Y-25685000D01*
X149315000Y-25685000D01*
X149315000Y-74315000D01*
X149315000Y-74315000D01*
G37*
X149315000Y-74315000D02*
X25685000Y-74315000D01*
X25685000Y-71658422D01*
X28521183Y-71658422D01*
X28705371Y-71997970D01*
X29568509Y-72341316D01*
X30497336Y-72328218D01*
X31294629Y-71997970D01*
X31478817Y-71658422D01*
X143521183Y-71658422D01*
X143705371Y-71997970D01*
X144568509Y-72341316D01*
X145497336Y-72328218D01*
X146294629Y-71997970D01*
X146478817Y-71658422D01*
X145000000Y-70179605D01*
X143521183Y-71658422D01*
X31478817Y-71658422D01*
X30000000Y-70179605D01*
X28521183Y-71658422D01*
X25685000Y-71658422D01*
X25685000Y-69568509D01*
X27658684Y-69568509D01*
X27671782Y-70497336D01*
X28002030Y-71294629D01*
X28341578Y-71478817D01*
X29820395Y-70000000D01*
X30179605Y-70000000D01*
X31658422Y-71478817D01*
X31997970Y-71294629D01*
X32341316Y-70431491D01*
X32328218Y-69502664D01*
X31997970Y-68705371D01*
X31658422Y-68521183D01*
X30179605Y-70000000D01*
X29820395Y-70000000D01*
X28341578Y-68521183D01*
X28002030Y-68705371D01*
X27658684Y-69568509D01*
X25685000Y-69568509D01*
X25685000Y-68341578D01*
X28521183Y-68341578D01*
X30000000Y-69820395D01*
X31478817Y-68341578D01*
X31294629Y-68002030D01*
X30431491Y-67658684D01*
X29502664Y-67671782D01*
X28705371Y-68002030D01*
X28521183Y-68341578D01*
X25685000Y-68341578D01*
X25685000Y-64580159D01*
X34659446Y-64580159D01*
X34745852Y-64836643D01*
X35319336Y-65046458D01*
X35929460Y-65020839D01*
X36374148Y-64836643D01*
X36460554Y-64580159D01*
X36351912Y-64471517D01*
X39848088Y-64471517D01*
X39916077Y-64712460D01*
X40435171Y-64897201D01*
X40985448Y-64869230D01*
X41363923Y-64712460D01*
X41431912Y-64471517D01*
X40640000Y-63679605D01*
X39848088Y-64471517D01*
X36351912Y-64471517D01*
X35560000Y-63679605D01*
X34659446Y-64580159D01*
X25685000Y-64580159D01*
X25685000Y-51880159D01*
X34659446Y-51880159D01*
X34745852Y-52136643D01*
X35319336Y-52346458D01*
X35929460Y-52320839D01*
X36374148Y-52136643D01*
X36460554Y-51880159D01*
X36351912Y-51771517D01*
X39848088Y-51771517D01*
X39916077Y-52012460D01*
X40435171Y-52197201D01*
X40985448Y-52169230D01*
X41363923Y-52012460D01*
X41431912Y-51771517D01*
X40640000Y-50979605D01*
X39848088Y-51771517D01*
X36351912Y-51771517D01*
X35560000Y-50979605D01*
X34659446Y-51880159D01*
X25685000Y-51880159D01*
X25685000Y-41720159D01*
X34659446Y-41720159D01*
X34745852Y-41976643D01*
X35319336Y-42186458D01*
X35929460Y-42160839D01*
X36374148Y-41976643D01*
X36460554Y-41720159D01*
X35560000Y-40819605D01*
X34659446Y-41720159D01*
X25685000Y-41720159D01*
X25685000Y-37200000D01*
X34012560Y-37200000D01*
X34012560Y-39000000D01*
X34056838Y-39235317D01*
X34195910Y-39451441D01*
X34399574Y-39590598D01*
X34365282Y-39624890D01*
X34479839Y-39739447D01*
X34223357Y-39825852D01*
X34013542Y-40399336D01*
X34039161Y-41009460D01*
X34223357Y-41454148D01*
X34479841Y-41540554D01*
X35380395Y-40640000D01*
X35366253Y-40625858D01*
X35545858Y-40446253D01*
X35560000Y-40460395D01*
X35574143Y-40446253D01*
X35753748Y-40625858D01*
X35739605Y-40640000D01*
X36640159Y-41540554D01*
X36896643Y-41454148D01*
X37106458Y-40880664D01*
X37080839Y-40270540D01*
X36896643Y-39825852D01*
X36640161Y-39739447D01*
X36754718Y-39624890D01*
X36718240Y-39588412D01*
X36911441Y-39464090D01*
X37056431Y-39251890D01*
X37059851Y-39235000D01*
X41439868Y-39235000D01*
X49997434Y-47792567D01*
X50365655Y-48038604D01*
X50800000Y-48125000D01*
X59219868Y-48125000D01*
X61427433Y-50332566D01*
X61701682Y-50515813D01*
X61795654Y-50578603D01*
X61852560Y-50589922D01*
X61852560Y-51030000D01*
X61896838Y-51265317D01*
X62035910Y-51481441D01*
X62248110Y-51626431D01*
X62500000Y-51677440D01*
X64500000Y-51677440D01*
X64681165Y-51643351D01*
X64849500Y-51677440D01*
X66849500Y-51677440D01*
X67084817Y-51633162D01*
X67300941Y-51494090D01*
X67445000Y-51283253D01*
X67445000Y-52862776D01*
X67313590Y-52658559D01*
X67101390Y-52513569D01*
X66849500Y-52462560D01*
X64849500Y-52462560D01*
X64668335Y-52496649D01*
X64500000Y-52462560D01*
X62500000Y-52462560D01*
X62264683Y-52506838D01*
X62048559Y-52645910D01*
X61976502Y-52751370D01*
X59222566Y-49997434D01*
X59161201Y-49956431D01*
X58854346Y-49751397D01*
X58420000Y-49665000D01*
X57655775Y-49665000D01*
X57646809Y-49659009D01*
X57174195Y-49565000D01*
X57125805Y-49565000D01*
X56653191Y-49659009D01*
X56252528Y-49926723D01*
X55984814Y-50327386D01*
X55971946Y-50392075D01*
X55769255Y-50012828D01*
X55394998Y-49705657D01*
X54931681Y-49565090D01*
X54737000Y-49720009D01*
X54737000Y-50673000D01*
X54757000Y-50673000D01*
X54757000Y-50927000D01*
X54737000Y-50927000D01*
X54737000Y-51564182D01*
X54714814Y-51597386D01*
X54620805Y-52070000D01*
X54647658Y-52205000D01*
X52540133Y-52205000D01*
X51452742Y-51117609D01*
X53216538Y-51117609D01*
X53222526Y-51160161D01*
X53450745Y-51587172D01*
X53825002Y-51894343D01*
X54288319Y-52034910D01*
X54483000Y-51879991D01*
X54483000Y-50927000D01*
X53341269Y-50927000D01*
X53216538Y-51117609D01*
X51452742Y-51117609D01*
X50817524Y-50482391D01*
X53216538Y-50482391D01*
X53341269Y-50673000D01*
X54483000Y-50673000D01*
X54483000Y-49720009D01*
X54288319Y-49565090D01*
X53825002Y-49705657D01*
X53450745Y-50012828D01*
X53222526Y-50439839D01*
X53216538Y-50482391D01*
X50817524Y-50482391D01*
X50332566Y-49997434D01*
X50271201Y-49956431D01*
X49964346Y-49751397D01*
X49530000Y-49665000D01*
X46614606Y-49665000D01*
X46533923Y-49584176D01*
X46006691Y-49365250D01*
X45435813Y-49364752D01*
X44908200Y-49582757D01*
X44504176Y-49986077D01*
X44315000Y-50441663D01*
X44315000Y-49530000D01*
X44228603Y-49095654D01*
X43982566Y-48727434D01*
X42712566Y-47457434D01*
X42344346Y-47211397D01*
X41910000Y-47125000D01*
X37063222Y-47125000D01*
X37063162Y-47124683D01*
X36924090Y-46908559D01*
X36711890Y-46763569D01*
X36460000Y-46712560D01*
X34660000Y-46712560D01*
X34424683Y-46756838D01*
X34208559Y-46895910D01*
X34063569Y-47108110D01*
X34012560Y-47360000D01*
X34012560Y-49160000D01*
X34056838Y-49395317D01*
X34195910Y-49611441D01*
X34399574Y-49750598D01*
X34365282Y-49784890D01*
X34479839Y-49899447D01*
X34223357Y-49985852D01*
X34013542Y-50559336D01*
X34039161Y-51169460D01*
X34223357Y-51614148D01*
X34479841Y-51700554D01*
X35380395Y-50800000D01*
X35366253Y-50785858D01*
X35545858Y-50606253D01*
X35560000Y-50620395D01*
X35574143Y-50606253D01*
X35753748Y-50785858D01*
X35739605Y-50800000D01*
X36640159Y-51700554D01*
X36896643Y-51614148D01*
X37106458Y-51040664D01*
X37087752Y-50595171D01*
X39242799Y-50595171D01*
X39270770Y-51145448D01*
X39427540Y-51523923D01*
X39668483Y-51591912D01*
X40460395Y-50800000D01*
X40819605Y-50800000D01*
X41611517Y-51591912D01*
X41852460Y-51523923D01*
X42037201Y-51004829D01*
X42009230Y-50454552D01*
X41852460Y-50076077D01*
X41611517Y-50008088D01*
X40819605Y-50800000D01*
X40460395Y-50800000D01*
X39668483Y-50008088D01*
X39427540Y-50076077D01*
X39242799Y-50595171D01*
X37087752Y-50595171D01*
X37080839Y-50430540D01*
X36896643Y-49985852D01*
X36640161Y-49899447D01*
X36711125Y-49828483D01*
X39848088Y-49828483D01*
X40640000Y-50620395D01*
X41431912Y-49828483D01*
X41363923Y-49587540D01*
X40844829Y-49402799D01*
X40294552Y-49430770D01*
X39916077Y-49587540D01*
X39848088Y-49828483D01*
X36711125Y-49828483D01*
X36754718Y-49784890D01*
X36718240Y-49748412D01*
X36911441Y-49624090D01*
X37056431Y-49411890D01*
X37059851Y-49395000D01*
X41439868Y-49395000D01*
X42045000Y-50000132D01*
X42045000Y-54139868D01*
X41465062Y-54719806D01*
X41217264Y-54554233D01*
X40668113Y-54445000D01*
X40611887Y-54445000D01*
X40062736Y-54554233D01*
X39597189Y-54865302D01*
X39286120Y-55330849D01*
X39176887Y-55880000D01*
X39286120Y-56429151D01*
X39597189Y-56894698D01*
X40062736Y-57205767D01*
X40611887Y-57315000D01*
X40668113Y-57315000D01*
X41217264Y-57205767D01*
X41502767Y-57015000D01*
X41910000Y-57015000D01*
X42344346Y-56928603D01*
X42712566Y-56682566D01*
X43982566Y-55412566D01*
X44228603Y-55044346D01*
X44315000Y-54610000D01*
X44315000Y-51157393D01*
X44502757Y-51611800D01*
X44906077Y-52015824D01*
X45433309Y-52234750D01*
X46004187Y-52235248D01*
X46531800Y-52017243D01*
X46614187Y-51935000D01*
X49059868Y-51935000D01*
X51267433Y-54142566D01*
X51541682Y-54325813D01*
X51635654Y-54388603D01*
X52070000Y-54475000D01*
X54745000Y-54475000D01*
X54745000Y-54985394D01*
X54664176Y-55066077D01*
X54445250Y-55593309D01*
X54444752Y-56164187D01*
X54662757Y-56691800D01*
X55066077Y-57095824D01*
X55593309Y-57314750D01*
X56164187Y-57315248D01*
X56691800Y-57097243D01*
X57095824Y-56693923D01*
X57314750Y-56166691D01*
X57315248Y-55595813D01*
X57097243Y-55068200D01*
X57015000Y-54985813D01*
X57015000Y-52587791D01*
X57045186Y-52542614D01*
X57139195Y-52070000D01*
X57132233Y-52035000D01*
X57174195Y-52035000D01*
X57646809Y-51940991D01*
X57655775Y-51935000D01*
X57949868Y-51935000D01*
X61427434Y-55412566D01*
X61795655Y-55658604D01*
X61852560Y-55669923D01*
X61852560Y-56110000D01*
X61896838Y-56345317D01*
X62035910Y-56561441D01*
X62248110Y-56706431D01*
X62500000Y-56757440D01*
X64500000Y-56757440D01*
X64681165Y-56723351D01*
X64849500Y-56757440D01*
X66849500Y-56757440D01*
X67084817Y-56713162D01*
X67300941Y-56574090D01*
X67445000Y-56363253D01*
X67445000Y-57942776D01*
X67313590Y-57738559D01*
X67101390Y-57593569D01*
X66849500Y-57542560D01*
X64849500Y-57542560D01*
X64668335Y-57576649D01*
X64500000Y-57542560D01*
X62500000Y-57542560D01*
X62264683Y-57586838D01*
X62048559Y-57725910D01*
X61903569Y-57938110D01*
X61852560Y-58190000D01*
X61852560Y-58630077D01*
X61795655Y-58641396D01*
X61427434Y-58887434D01*
X57949868Y-62365000D01*
X57655775Y-62365000D01*
X57646809Y-62359009D01*
X57174195Y-62265000D01*
X57125805Y-62265000D01*
X56653191Y-62359009D01*
X56252528Y-62626723D01*
X55984814Y-63027386D01*
X55971946Y-63092075D01*
X55769255Y-62712828D01*
X55394998Y-62405657D01*
X54931681Y-62265090D01*
X54737000Y-62420009D01*
X54737000Y-63373000D01*
X54757000Y-63373000D01*
X54757000Y-63627000D01*
X54737000Y-63627000D01*
X54737000Y-64264182D01*
X54714814Y-64297386D01*
X54620805Y-64770000D01*
X54647658Y-64905000D01*
X52540133Y-64905000D01*
X51452742Y-63817609D01*
X53216538Y-63817609D01*
X53222526Y-63860161D01*
X53450745Y-64287172D01*
X53825002Y-64594343D01*
X54288319Y-64734910D01*
X54483000Y-64579991D01*
X54483000Y-63627000D01*
X53341269Y-63627000D01*
X53216538Y-63817609D01*
X51452742Y-63817609D01*
X50817524Y-63182391D01*
X53216538Y-63182391D01*
X53341269Y-63373000D01*
X54483000Y-63373000D01*
X54483000Y-62420009D01*
X54288319Y-62265090D01*
X53825002Y-62405657D01*
X53450745Y-62712828D01*
X53222526Y-63139839D01*
X53216538Y-63182391D01*
X50817524Y-63182391D01*
X50332566Y-62697434D01*
X50283045Y-62664345D01*
X49964346Y-62451397D01*
X49530000Y-62365000D01*
X46614606Y-62365000D01*
X46533923Y-62284176D01*
X46006691Y-62065250D01*
X45435813Y-62064752D01*
X44908200Y-62282757D01*
X44504176Y-62686077D01*
X44315000Y-63141663D01*
X44315000Y-62230000D01*
X44228603Y-61795654D01*
X43982566Y-61427434D01*
X42712566Y-60157434D01*
X42663045Y-60124345D01*
X42344346Y-59911397D01*
X41910000Y-59825000D01*
X37063222Y-59825000D01*
X37063162Y-59824683D01*
X36924090Y-59608559D01*
X36711890Y-59463569D01*
X36460000Y-59412560D01*
X34660000Y-59412560D01*
X34424683Y-59456838D01*
X34208559Y-59595910D01*
X34063569Y-59808110D01*
X34012560Y-60060000D01*
X34012560Y-61860000D01*
X34056838Y-62095317D01*
X34195910Y-62311441D01*
X34399574Y-62450598D01*
X34365282Y-62484890D01*
X34479839Y-62599447D01*
X34223357Y-62685852D01*
X34013542Y-63259336D01*
X34039161Y-63869460D01*
X34223357Y-64314148D01*
X34479841Y-64400554D01*
X35380395Y-63500000D01*
X35366253Y-63485858D01*
X35545858Y-63306253D01*
X35560000Y-63320395D01*
X35574143Y-63306253D01*
X35753748Y-63485858D01*
X35739605Y-63500000D01*
X36640159Y-64400554D01*
X36896643Y-64314148D01*
X37106458Y-63740664D01*
X37087752Y-63295171D01*
X39242799Y-63295171D01*
X39270770Y-63845448D01*
X39427540Y-64223923D01*
X39668483Y-64291912D01*
X40460395Y-63500000D01*
X40819605Y-63500000D01*
X41611517Y-64291912D01*
X41852460Y-64223923D01*
X42037201Y-63704829D01*
X42009230Y-63154552D01*
X41852460Y-62776077D01*
X41611517Y-62708088D01*
X40819605Y-63500000D01*
X40460395Y-63500000D01*
X39668483Y-62708088D01*
X39427540Y-62776077D01*
X39242799Y-63295171D01*
X37087752Y-63295171D01*
X37080839Y-63130540D01*
X36896643Y-62685852D01*
X36640161Y-62599447D01*
X36711125Y-62528483D01*
X39848088Y-62528483D01*
X40640000Y-63320395D01*
X41431912Y-62528483D01*
X41363923Y-62287540D01*
X40844829Y-62102799D01*
X40294552Y-62130770D01*
X39916077Y-62287540D01*
X39848088Y-62528483D01*
X36711125Y-62528483D01*
X36754718Y-62484890D01*
X36718240Y-62448412D01*
X36911441Y-62324090D01*
X37056431Y-62111890D01*
X37059851Y-62095000D01*
X41439868Y-62095000D01*
X42045000Y-62700132D01*
X42045000Y-66839868D01*
X41465062Y-67419806D01*
X41217264Y-67254233D01*
X40668113Y-67145000D01*
X40611887Y-67145000D01*
X40062736Y-67254233D01*
X39597189Y-67565302D01*
X39286120Y-68030849D01*
X39176887Y-68580000D01*
X39286120Y-69129151D01*
X39597189Y-69594698D01*
X40062736Y-69905767D01*
X40611887Y-70015000D01*
X40668113Y-70015000D01*
X41217264Y-69905767D01*
X41502767Y-69715000D01*
X41910000Y-69715000D01*
X42344346Y-69628603D01*
X42712566Y-69382566D01*
X43982566Y-68112566D01*
X44228603Y-67744346D01*
X44315000Y-67310000D01*
X44315000Y-63857393D01*
X44502757Y-64311800D01*
X44906077Y-64715824D01*
X45433309Y-64934750D01*
X46004187Y-64935248D01*
X46531800Y-64717243D01*
X46614187Y-64635000D01*
X49059868Y-64635000D01*
X51267433Y-66842566D01*
X51414062Y-66940540D01*
X51635654Y-67088603D01*
X52070000Y-67175000D01*
X54745000Y-67175000D01*
X54745000Y-67685394D01*
X54664176Y-67766077D01*
X54445250Y-68293309D01*
X54444752Y-68864187D01*
X54662757Y-69391800D01*
X55066077Y-69795824D01*
X55593309Y-70014750D01*
X56164187Y-70015248D01*
X56691800Y-69797243D01*
X56920933Y-69568509D01*
X142658684Y-69568509D01*
X142671782Y-70497336D01*
X143002030Y-71294629D01*
X143341578Y-71478817D01*
X144820395Y-70000000D01*
X145179605Y-70000000D01*
X146658422Y-71478817D01*
X146997970Y-71294629D01*
X147341316Y-70431491D01*
X147328218Y-69502664D01*
X146997970Y-68705371D01*
X146658422Y-68521183D01*
X145179605Y-70000000D01*
X144820395Y-70000000D01*
X143341578Y-68521183D01*
X143002030Y-68705371D01*
X142658684Y-69568509D01*
X56920933Y-69568509D01*
X57095824Y-69393923D01*
X57314750Y-68866691D01*
X57315165Y-68390159D01*
X86729446Y-68390159D01*
X86815852Y-68646643D01*
X87389336Y-68856458D01*
X87999460Y-68830839D01*
X88444148Y-68646643D01*
X88530554Y-68390159D01*
X94349446Y-68390159D01*
X94435852Y-68646643D01*
X95009336Y-68856458D01*
X95619460Y-68830839D01*
X96064148Y-68646643D01*
X96150554Y-68390159D01*
X101969446Y-68390159D01*
X102055852Y-68646643D01*
X102629336Y-68856458D01*
X103239460Y-68830839D01*
X103684148Y-68646643D01*
X103770554Y-68390159D01*
X109589446Y-68390159D01*
X109675852Y-68646643D01*
X110249336Y-68856458D01*
X110859460Y-68830839D01*
X111304148Y-68646643D01*
X111390554Y-68390159D01*
X111341973Y-68341578D01*
X143521183Y-68341578D01*
X145000000Y-69820395D01*
X146478817Y-68341578D01*
X146294629Y-68002030D01*
X145431491Y-67658684D01*
X144502664Y-67671782D01*
X143705371Y-68002030D01*
X143521183Y-68341578D01*
X111341973Y-68341578D01*
X110490000Y-67489605D01*
X109589446Y-68390159D01*
X103770554Y-68390159D01*
X102870000Y-67489605D01*
X101969446Y-68390159D01*
X96150554Y-68390159D01*
X95250000Y-67489605D01*
X94349446Y-68390159D01*
X88530554Y-68390159D01*
X87630000Y-67489605D01*
X86729446Y-68390159D01*
X57315165Y-68390159D01*
X57315248Y-68295813D01*
X57097243Y-67768200D01*
X57015000Y-67685813D01*
X57015000Y-67069336D01*
X86083542Y-67069336D01*
X86109161Y-67679460D01*
X86293357Y-68124148D01*
X86549841Y-68210554D01*
X87450395Y-67310000D01*
X87809605Y-67310000D01*
X88710159Y-68210554D01*
X88966643Y-68124148D01*
X89176458Y-67550664D01*
X89156248Y-67069336D01*
X93703542Y-67069336D01*
X93729161Y-67679460D01*
X93913357Y-68124148D01*
X94169841Y-68210554D01*
X95070395Y-67310000D01*
X95429605Y-67310000D01*
X96330159Y-68210554D01*
X96586643Y-68124148D01*
X96796458Y-67550664D01*
X96776248Y-67069336D01*
X101323542Y-67069336D01*
X101349161Y-67679460D01*
X101533357Y-68124148D01*
X101789841Y-68210554D01*
X102690395Y-67310000D01*
X103049605Y-67310000D01*
X103950159Y-68210554D01*
X104206643Y-68124148D01*
X104416458Y-67550664D01*
X104396248Y-67069336D01*
X108943542Y-67069336D01*
X108969161Y-67679460D01*
X109153357Y-68124148D01*
X109409841Y-68210554D01*
X110310395Y-67310000D01*
X110669605Y-67310000D01*
X111570159Y-68210554D01*
X111826643Y-68124148D01*
X112036458Y-67550664D01*
X112010839Y-66940540D01*
X111826643Y-66495852D01*
X111570159Y-66409446D01*
X110669605Y-67310000D01*
X110310395Y-67310000D01*
X109409841Y-66409446D01*
X109153357Y-66495852D01*
X108943542Y-67069336D01*
X104396248Y-67069336D01*
X104390839Y-66940540D01*
X104206643Y-66495852D01*
X103950159Y-66409446D01*
X103049605Y-67310000D01*
X102690395Y-67310000D01*
X101789841Y-66409446D01*
X101533357Y-66495852D01*
X101323542Y-67069336D01*
X96776248Y-67069336D01*
X96770839Y-66940540D01*
X96586643Y-66495852D01*
X96330159Y-66409446D01*
X95429605Y-67310000D01*
X95070395Y-67310000D01*
X94169841Y-66409446D01*
X93913357Y-66495852D01*
X93703542Y-67069336D01*
X89156248Y-67069336D01*
X89150839Y-66940540D01*
X88966643Y-66495852D01*
X88710159Y-66409446D01*
X87809605Y-67310000D01*
X87450395Y-67310000D01*
X86549841Y-66409446D01*
X86293357Y-66495852D01*
X86083542Y-67069336D01*
X57015000Y-67069336D01*
X57015000Y-65850159D01*
X71489446Y-65850159D01*
X71575852Y-66106643D01*
X72149336Y-66316458D01*
X72759460Y-66290839D01*
X73204148Y-66106643D01*
X73290554Y-65850159D01*
X79109446Y-65850159D01*
X79195852Y-66106643D01*
X79769336Y-66316458D01*
X80379460Y-66290839D01*
X80824148Y-66106643D01*
X80910554Y-65850159D01*
X80010000Y-64949605D01*
X79109446Y-65850159D01*
X73290554Y-65850159D01*
X72390000Y-64949605D01*
X71489446Y-65850159D01*
X57015000Y-65850159D01*
X57015000Y-65287791D01*
X57045186Y-65242614D01*
X57139195Y-64770000D01*
X57132233Y-64735000D01*
X57174195Y-64735000D01*
X57646809Y-64640991D01*
X57655775Y-64635000D01*
X58420000Y-64635000D01*
X58854346Y-64548603D01*
X59222566Y-64302566D01*
X61976311Y-61548821D01*
X62035910Y-61641441D01*
X62248110Y-61786431D01*
X62500000Y-61837440D01*
X64500000Y-61837440D01*
X64681165Y-61803351D01*
X64849500Y-61837440D01*
X66849500Y-61837440D01*
X67084817Y-61793162D01*
X67300941Y-61654090D01*
X67445931Y-61441890D01*
X67496940Y-61190000D01*
X67496940Y-60787815D01*
X67744346Y-60738603D01*
X68112566Y-60492566D01*
X69382566Y-59222566D01*
X69606494Y-58887434D01*
X69628603Y-58854346D01*
X69715000Y-58420000D01*
X69715000Y-46990000D01*
X69628603Y-46555654D01*
X69382566Y-46187434D01*
X68445000Y-45249868D01*
X68445000Y-43650132D01*
X70320133Y-41775000D01*
X75842607Y-41775000D01*
X75388200Y-41962757D01*
X75305813Y-42045000D01*
X72390000Y-42045000D01*
X71955654Y-42131397D01*
X71636955Y-42344345D01*
X71587434Y-42377434D01*
X71149843Y-42815025D01*
X70796205Y-42814716D01*
X70195057Y-43063106D01*
X69734722Y-43522637D01*
X69485284Y-44123352D01*
X69484716Y-44773795D01*
X69733106Y-45374943D01*
X70192637Y-45835278D01*
X70793352Y-46084716D01*
X71443795Y-46085284D01*
X72044943Y-45836894D01*
X72505278Y-45377363D01*
X72754716Y-44776648D01*
X72755027Y-44420105D01*
X72860132Y-44315000D01*
X75305394Y-44315000D01*
X75386077Y-44395824D01*
X75913309Y-44614750D01*
X76484187Y-44615248D01*
X77011800Y-44397243D01*
X77094187Y-44315000D01*
X79539868Y-44315000D01*
X80145000Y-44920132D01*
X80145000Y-46519146D01*
X79944683Y-46556838D01*
X79728559Y-46695910D01*
X79583569Y-46908110D01*
X79532560Y-47160000D01*
X79532560Y-49360000D01*
X79576838Y-49595317D01*
X79715910Y-49811441D01*
X79928110Y-49956431D01*
X80145000Y-50000352D01*
X80145000Y-56679868D01*
X79207434Y-57617434D01*
X78961397Y-57985654D01*
X78875000Y-58420000D01*
X78875000Y-60726778D01*
X78874683Y-60726838D01*
X78658559Y-60865910D01*
X78513569Y-61078110D01*
X78510149Y-61095000D01*
X73893222Y-61095000D01*
X73893162Y-61094683D01*
X73754090Y-60878559D01*
X73541890Y-60733569D01*
X73290000Y-60682560D01*
X71490000Y-60682560D01*
X71254683Y-60726838D01*
X71038559Y-60865910D01*
X70893569Y-61078110D01*
X70842560Y-61330000D01*
X70842560Y-63130000D01*
X70886838Y-63365317D01*
X71025910Y-63581441D01*
X71229574Y-63720598D01*
X71195282Y-63754890D01*
X71309839Y-63869447D01*
X71053357Y-63955852D01*
X70843542Y-64529336D01*
X70869161Y-65139460D01*
X71053357Y-65584148D01*
X71309841Y-65670554D01*
X72210395Y-64770000D01*
X72196253Y-64755858D01*
X72375858Y-64576253D01*
X72390000Y-64590395D01*
X72404143Y-64576253D01*
X72583748Y-64755858D01*
X72569605Y-64770000D01*
X73470159Y-65670554D01*
X73726643Y-65584148D01*
X73936458Y-65010664D01*
X73910839Y-64400540D01*
X73726643Y-63955852D01*
X73470161Y-63869447D01*
X73584718Y-63754890D01*
X73548240Y-63718412D01*
X73741441Y-63594090D01*
X73886431Y-63381890D01*
X73889851Y-63365000D01*
X78506778Y-63365000D01*
X78506838Y-63365317D01*
X78645910Y-63581441D01*
X78849574Y-63720598D01*
X78815282Y-63754890D01*
X78929839Y-63869447D01*
X78673357Y-63955852D01*
X78463542Y-64529336D01*
X78489161Y-65139460D01*
X78673357Y-65584148D01*
X78929841Y-65670554D01*
X79830395Y-64770000D01*
X79816253Y-64755858D01*
X79995858Y-64576253D01*
X80010000Y-64590395D01*
X80024143Y-64576253D01*
X80203748Y-64755858D01*
X80189605Y-64770000D01*
X81090159Y-65670554D01*
X81346643Y-65584148D01*
X81556458Y-65010664D01*
X81530839Y-64400540D01*
X81346643Y-63955852D01*
X81090161Y-63869447D01*
X81204718Y-63754890D01*
X81168240Y-63718412D01*
X81361441Y-63594090D01*
X81506431Y-63381890D01*
X81509851Y-63365000D01*
X86126778Y-63365000D01*
X86126838Y-63365317D01*
X86265910Y-63581441D01*
X86478110Y-63726431D01*
X86498534Y-63730567D01*
X86329449Y-63899357D01*
X86095267Y-64463330D01*
X86094735Y-65073991D01*
X86327932Y-65638371D01*
X86759357Y-66070551D01*
X86780194Y-66079203D01*
X86729446Y-66229841D01*
X87630000Y-67130395D01*
X88530554Y-66229841D01*
X88479965Y-66079673D01*
X88498371Y-66072068D01*
X88665731Y-65905000D01*
X94214095Y-65905000D01*
X94379357Y-66070551D01*
X94400194Y-66079203D01*
X94349446Y-66229841D01*
X95250000Y-67130395D01*
X96150554Y-66229841D01*
X96099965Y-66079673D01*
X96118371Y-66072068D01*
X96285731Y-65905000D01*
X101834095Y-65905000D01*
X101999357Y-66070551D01*
X102020194Y-66079203D01*
X101969446Y-66229841D01*
X102870000Y-67130395D01*
X103770554Y-66229841D01*
X103719965Y-66079673D01*
X103738371Y-66072068D01*
X103905731Y-65905000D01*
X109454095Y-65905000D01*
X109619357Y-66070551D01*
X109640194Y-66079203D01*
X109589446Y-66229841D01*
X110490000Y-67130395D01*
X111390554Y-66229841D01*
X111339965Y-66079673D01*
X111358371Y-66072068D01*
X111525731Y-65905000D01*
X111760000Y-65905000D01*
X112035703Y-65850159D01*
X123559446Y-65850159D01*
X123645852Y-66106643D01*
X124219336Y-66316458D01*
X124829460Y-66290839D01*
X125274148Y-66106643D01*
X125360554Y-65850159D01*
X131179446Y-65850159D01*
X131265852Y-66106643D01*
X131839336Y-66316458D01*
X132449460Y-66290839D01*
X132894148Y-66106643D01*
X132980554Y-65850159D01*
X138799446Y-65850159D01*
X138885852Y-66106643D01*
X139459336Y-66316458D01*
X140069460Y-66290839D01*
X140514148Y-66106643D01*
X140600554Y-65850159D01*
X139700000Y-64949605D01*
X138799446Y-65850159D01*
X132980554Y-65850159D01*
X132080000Y-64949605D01*
X131179446Y-65850159D01*
X125360554Y-65850159D01*
X124460000Y-64949605D01*
X123559446Y-65850159D01*
X112035703Y-65850159D01*
X112194346Y-65818603D01*
X112562566Y-65572566D01*
X113832566Y-64302566D01*
X113842852Y-64287172D01*
X114078603Y-63934346D01*
X114165000Y-63500000D01*
X114165000Y-61330000D01*
X122912560Y-61330000D01*
X122912560Y-63130000D01*
X122956838Y-63365317D01*
X123095910Y-63581441D01*
X123299574Y-63720598D01*
X123265282Y-63754890D01*
X123379839Y-63869447D01*
X123123357Y-63955852D01*
X122913542Y-64529336D01*
X122939161Y-65139460D01*
X123123357Y-65584148D01*
X123379841Y-65670554D01*
X124280395Y-64770000D01*
X124266253Y-64755858D01*
X124445858Y-64576253D01*
X124460000Y-64590395D01*
X124474143Y-64576253D01*
X124653748Y-64755858D01*
X124639605Y-64770000D01*
X125540159Y-65670554D01*
X125796643Y-65584148D01*
X126006458Y-65010664D01*
X125980839Y-64400540D01*
X125796643Y-63955852D01*
X125540161Y-63869447D01*
X125654718Y-63754890D01*
X125618240Y-63718412D01*
X125811441Y-63594090D01*
X125956431Y-63381890D01*
X126007440Y-63130000D01*
X126007440Y-61330000D01*
X130532560Y-61330000D01*
X130532560Y-63130000D01*
X130576838Y-63365317D01*
X130715910Y-63581441D01*
X130919574Y-63720598D01*
X130885282Y-63754890D01*
X130999839Y-63869447D01*
X130743357Y-63955852D01*
X130533542Y-64529336D01*
X130559161Y-65139460D01*
X130743357Y-65584148D01*
X130999841Y-65670554D01*
X131900395Y-64770000D01*
X131886253Y-64755858D01*
X132065858Y-64576253D01*
X132080000Y-64590395D01*
X132094143Y-64576253D01*
X132273748Y-64755858D01*
X132259605Y-64770000D01*
X133160159Y-65670554D01*
X133416643Y-65584148D01*
X133626458Y-65010664D01*
X133600839Y-64400540D01*
X133416643Y-63955852D01*
X133160161Y-63869447D01*
X133274718Y-63754890D01*
X133238240Y-63718412D01*
X133431441Y-63594090D01*
X133576431Y-63381890D01*
X133627440Y-63130000D01*
X133627440Y-61330000D01*
X138152560Y-61330000D01*
X138152560Y-63130000D01*
X138196838Y-63365317D01*
X138335910Y-63581441D01*
X138539574Y-63720598D01*
X138505282Y-63754890D01*
X138619839Y-63869447D01*
X138363357Y-63955852D01*
X138153542Y-64529336D01*
X138179161Y-65139460D01*
X138363357Y-65584148D01*
X138619841Y-65670554D01*
X139520395Y-64770000D01*
X139506253Y-64755858D01*
X139685858Y-64576253D01*
X139700000Y-64590395D01*
X139714143Y-64576253D01*
X139893748Y-64755858D01*
X139879605Y-64770000D01*
X140780159Y-65670554D01*
X141036643Y-65584148D01*
X141246458Y-65010664D01*
X141220839Y-64400540D01*
X141036643Y-63955852D01*
X140780161Y-63869447D01*
X140894718Y-63754890D01*
X140858240Y-63718412D01*
X141051441Y-63594090D01*
X141196431Y-63381890D01*
X141247440Y-63130000D01*
X141247440Y-61330000D01*
X141203162Y-61094683D01*
X141064090Y-60878559D01*
X140851890Y-60733569D01*
X140600000Y-60682560D01*
X138800000Y-60682560D01*
X138564683Y-60726838D01*
X138348559Y-60865910D01*
X138203569Y-61078110D01*
X138152560Y-61330000D01*
X133627440Y-61330000D01*
X133583162Y-61094683D01*
X133444090Y-60878559D01*
X133231890Y-60733569D01*
X132980000Y-60682560D01*
X131180000Y-60682560D01*
X130944683Y-60726838D01*
X130728559Y-60865910D01*
X130583569Y-61078110D01*
X130532560Y-61330000D01*
X126007440Y-61330000D01*
X125963162Y-61094683D01*
X125824090Y-60878559D01*
X125611890Y-60733569D01*
X125360000Y-60682560D01*
X123560000Y-60682560D01*
X123324683Y-60726838D01*
X123108559Y-60865910D01*
X122963569Y-61078110D01*
X122912560Y-61330000D01*
X114165000Y-61330000D01*
X114165000Y-60960000D01*
X114078603Y-60525654D01*
X113832566Y-60157434D01*
X112562566Y-58887434D01*
X112513045Y-58854345D01*
X112194346Y-58641397D01*
X111760000Y-58555000D01*
X109690132Y-58555000D01*
X109085000Y-57949868D01*
X109085000Y-56960159D01*
X138799446Y-56960159D01*
X138885852Y-57216643D01*
X139459336Y-57426458D01*
X140069460Y-57400839D01*
X140514148Y-57216643D01*
X140600554Y-56960159D01*
X139700000Y-56059605D01*
X138799446Y-56960159D01*
X109085000Y-56960159D01*
X109085000Y-55745000D01*
X113437233Y-55745000D01*
X113722736Y-55935767D01*
X114271887Y-56045000D01*
X114328113Y-56045000D01*
X114877264Y-55935767D01*
X115342811Y-55624698D01*
X115653880Y-55159151D01*
X115763113Y-54610000D01*
X115653880Y-54060849D01*
X115342811Y-53595302D01*
X114877264Y-53284233D01*
X114328113Y-53175000D01*
X114271887Y-53175000D01*
X113722736Y-53284233D01*
X113437233Y-53475000D01*
X109085000Y-53475000D01*
X109085000Y-48730132D01*
X110022566Y-47792566D01*
X110165561Y-47578559D01*
X110268603Y-47424346D01*
X110355000Y-46990000D01*
X110355000Y-45627204D01*
X110605278Y-45377363D01*
X110854716Y-44776648D01*
X110855284Y-44126205D01*
X110606894Y-43525057D01*
X110147363Y-43064722D01*
X110099867Y-43045000D01*
X112559868Y-43045000D01*
X112976167Y-43461299D01*
X112914722Y-43522637D01*
X112665284Y-44123352D01*
X112664716Y-44773795D01*
X112913106Y-45374943D01*
X113165000Y-45627278D01*
X113165000Y-49923272D01*
X112946120Y-50250849D01*
X112836887Y-50800000D01*
X112946120Y-51349151D01*
X113257189Y-51814698D01*
X113722736Y-52125767D01*
X114271887Y-52235000D01*
X114328113Y-52235000D01*
X114877264Y-52125767D01*
X115342811Y-51814698D01*
X115653880Y-51349151D01*
X115706584Y-51084187D01*
X128104752Y-51084187D01*
X128322757Y-51611800D01*
X128726077Y-52015824D01*
X129253309Y-52234750D01*
X129824187Y-52235248D01*
X130351800Y-52017243D01*
X130434187Y-51935000D01*
X138196778Y-51935000D01*
X138196838Y-51935317D01*
X138335910Y-52151441D01*
X138414296Y-52205000D01*
X134620000Y-52205000D01*
X134185654Y-52291397D01*
X133817435Y-52537433D01*
X132879868Y-53475000D01*
X130434606Y-53475000D01*
X130353923Y-53394176D01*
X129826691Y-53175250D01*
X129255813Y-53174752D01*
X128728200Y-53392757D01*
X128324176Y-53796077D01*
X128105250Y-54323309D01*
X128104752Y-54894187D01*
X128322757Y-55421800D01*
X128726077Y-55825824D01*
X129253309Y-56044750D01*
X129824187Y-56045248D01*
X130351800Y-55827243D01*
X130434187Y-55745000D01*
X133350000Y-55745000D01*
X133784346Y-55658603D01*
X133813181Y-55639336D01*
X138153542Y-55639336D01*
X138179161Y-56249460D01*
X138363357Y-56694148D01*
X138619841Y-56780554D01*
X139520395Y-55880000D01*
X139879605Y-55880000D01*
X140780159Y-56780554D01*
X141036643Y-56694148D01*
X141246458Y-56120664D01*
X141220839Y-55510540D01*
X141036643Y-55065852D01*
X140780159Y-54979446D01*
X139879605Y-55880000D01*
X139520395Y-55880000D01*
X138619841Y-54979446D01*
X138363357Y-55065852D01*
X138153542Y-55639336D01*
X133813181Y-55639336D01*
X134152566Y-55412566D01*
X135090132Y-54475000D01*
X138664095Y-54475000D01*
X138829357Y-54640551D01*
X138850194Y-54649203D01*
X138799446Y-54799841D01*
X139700000Y-55700395D01*
X140600554Y-54799841D01*
X140549965Y-54649673D01*
X140568371Y-54642068D01*
X141000551Y-54210643D01*
X141234733Y-53646670D01*
X141235265Y-53036009D01*
X141002068Y-52471629D01*
X140834120Y-52303387D01*
X140835317Y-52303162D01*
X141051441Y-52164090D01*
X141196431Y-51951890D01*
X141247440Y-51700000D01*
X141247440Y-49900000D01*
X141203162Y-49664683D01*
X141064090Y-49448559D01*
X140851890Y-49303569D01*
X140600000Y-49252560D01*
X138800000Y-49252560D01*
X138564683Y-49296838D01*
X138348559Y-49435910D01*
X138203569Y-49648110D01*
X138200149Y-49665000D01*
X130434606Y-49665000D01*
X130353923Y-49584176D01*
X129826691Y-49365250D01*
X129255813Y-49364752D01*
X128728200Y-49582757D01*
X128324176Y-49986077D01*
X128105250Y-50513309D01*
X128104752Y-51084187D01*
X115706584Y-51084187D01*
X115763113Y-50800000D01*
X115653880Y-50250849D01*
X115435000Y-49923272D01*
X115435000Y-46691517D01*
X122398088Y-46691517D01*
X122466077Y-46932460D01*
X122985171Y-47117201D01*
X123535448Y-47089230D01*
X123913923Y-46932460D01*
X123981912Y-46691517D01*
X123190000Y-45899605D01*
X122398088Y-46691517D01*
X115435000Y-46691517D01*
X115435000Y-45627204D01*
X115547228Y-45515171D01*
X121792799Y-45515171D01*
X121820770Y-46065448D01*
X121977540Y-46443923D01*
X122218483Y-46511912D01*
X123010395Y-45720000D01*
X123369605Y-45720000D01*
X124161517Y-46511912D01*
X124402460Y-46443923D01*
X124587201Y-45924829D01*
X124559230Y-45374552D01*
X124465284Y-45147745D01*
X131251861Y-45147745D01*
X131325995Y-45393864D01*
X131863223Y-45586965D01*
X132433454Y-45559778D01*
X132834005Y-45393864D01*
X132908139Y-45147745D01*
X132080000Y-44319605D01*
X131251861Y-45147745D01*
X124465284Y-45147745D01*
X124402460Y-44996077D01*
X124161517Y-44928088D01*
X123369605Y-45720000D01*
X123010395Y-45720000D01*
X122218483Y-44928088D01*
X121977540Y-44996077D01*
X121792799Y-45515171D01*
X115547228Y-45515171D01*
X115685278Y-45377363D01*
X115934716Y-44776648D01*
X115934740Y-44748483D01*
X122398088Y-44748483D01*
X123190000Y-45540395D01*
X123981912Y-44748483D01*
X123913923Y-44507540D01*
X123394829Y-44322799D01*
X122844552Y-44350770D01*
X122466077Y-44507540D01*
X122398088Y-44748483D01*
X115934740Y-44748483D01*
X115935284Y-44126205D01*
X115851414Y-43923223D01*
X130633035Y-43923223D01*
X130660222Y-44493454D01*
X130826136Y-44894005D01*
X131072255Y-44968139D01*
X131900395Y-44140000D01*
X132259605Y-44140000D01*
X133087745Y-44968139D01*
X133333864Y-44894005D01*
X133526965Y-44356777D01*
X133522359Y-44260159D01*
X138799446Y-44260159D01*
X138885852Y-44516643D01*
X139459336Y-44726458D01*
X140069460Y-44700839D01*
X140514148Y-44516643D01*
X140600554Y-44260159D01*
X139700000Y-43359605D01*
X138799446Y-44260159D01*
X133522359Y-44260159D01*
X133499778Y-43786546D01*
X133333864Y-43385995D01*
X133087745Y-43311861D01*
X132259605Y-44140000D01*
X131900395Y-44140000D01*
X131072255Y-43311861D01*
X130826136Y-43385995D01*
X130633035Y-43923223D01*
X115851414Y-43923223D01*
X115686894Y-43525057D01*
X115435000Y-43272722D01*
X115435000Y-43180000D01*
X115425503Y-43132255D01*
X131251861Y-43132255D01*
X132080000Y-43960395D01*
X132908139Y-43132255D01*
X132834005Y-42886136D01*
X132296777Y-42693035D01*
X131726546Y-42720222D01*
X131325995Y-42886136D01*
X131251861Y-43132255D01*
X115425503Y-43132255D01*
X115348603Y-42745654D01*
X115102566Y-42377434D01*
X114500132Y-41775000D01*
X122295394Y-41775000D01*
X122376077Y-41855824D01*
X122903309Y-42074750D01*
X123474187Y-42075248D01*
X124001800Y-41857243D01*
X124084187Y-41775000D01*
X130740982Y-41775000D01*
X130815910Y-41891441D01*
X131028110Y-42036431D01*
X131280000Y-42087440D01*
X132880000Y-42087440D01*
X133115317Y-42043162D01*
X133331441Y-41904090D01*
X133419644Y-41775000D01*
X138196778Y-41775000D01*
X138196838Y-41775317D01*
X138335910Y-41991441D01*
X138539574Y-42130598D01*
X138505282Y-42164890D01*
X138619839Y-42279447D01*
X138363357Y-42365852D01*
X138153542Y-42939336D01*
X138179161Y-43549460D01*
X138363357Y-43994148D01*
X138619841Y-44080554D01*
X139520395Y-43180000D01*
X139506253Y-43165858D01*
X139685858Y-42986253D01*
X139700000Y-43000395D01*
X139714143Y-42986253D01*
X139893748Y-43165858D01*
X139879605Y-43180000D01*
X140780159Y-44080554D01*
X141036643Y-43994148D01*
X141246458Y-43420664D01*
X141220839Y-42810540D01*
X141036643Y-42365852D01*
X140780161Y-42279447D01*
X140894718Y-42164890D01*
X140858240Y-42128412D01*
X141051441Y-42004090D01*
X141196431Y-41791890D01*
X141247440Y-41540000D01*
X141247440Y-39740000D01*
X141203162Y-39504683D01*
X141064090Y-39288559D01*
X140851890Y-39143569D01*
X140600000Y-39092560D01*
X138800000Y-39092560D01*
X138564683Y-39136838D01*
X138348559Y-39275910D01*
X138203569Y-39488110D01*
X138200149Y-39505000D01*
X133419018Y-39505000D01*
X133344090Y-39388559D01*
X133131890Y-39243569D01*
X132880000Y-39192560D01*
X131280000Y-39192560D01*
X131044683Y-39236838D01*
X130828559Y-39375910D01*
X130740356Y-39505000D01*
X124084606Y-39505000D01*
X124003923Y-39424176D01*
X123476691Y-39205250D01*
X122905813Y-39204752D01*
X122378200Y-39422757D01*
X122295813Y-39505000D01*
X107233686Y-39505000D01*
X108455699Y-38282987D01*
X108893352Y-38464716D01*
X109543795Y-38465284D01*
X110144943Y-38216894D01*
X110605278Y-37757363D01*
X110854716Y-37156648D01*
X110854718Y-37153795D01*
X112664716Y-37153795D01*
X112913106Y-37754943D01*
X113372637Y-38215278D01*
X113973352Y-38464716D01*
X114623795Y-38465284D01*
X115224943Y-38216894D01*
X115685278Y-37757363D01*
X115934716Y-37156648D01*
X115935284Y-36506205D01*
X115686894Y-35905057D01*
X115685000Y-35903160D01*
X115685000Y-31794975D01*
X115790598Y-31640426D01*
X115824890Y-31674718D01*
X115939447Y-31560161D01*
X116025852Y-31816643D01*
X116599336Y-32026458D01*
X117209460Y-32000839D01*
X117654148Y-31816643D01*
X117707450Y-31658422D01*
X143521183Y-31658422D01*
X143705371Y-31997970D01*
X144568509Y-32341316D01*
X145497336Y-32328218D01*
X146294629Y-31997970D01*
X146478817Y-31658422D01*
X145000000Y-30179605D01*
X143521183Y-31658422D01*
X117707450Y-31658422D01*
X117740554Y-31560159D01*
X116840000Y-30659605D01*
X116825858Y-30673748D01*
X116646253Y-30494143D01*
X116660395Y-30480000D01*
X117019605Y-30480000D01*
X117920159Y-31380554D01*
X118176643Y-31294148D01*
X118386458Y-30720664D01*
X118360839Y-30110540D01*
X118176643Y-29665852D01*
X117920159Y-29579446D01*
X117019605Y-30480000D01*
X116660395Y-30480000D01*
X116646253Y-30465858D01*
X116825858Y-30286253D01*
X116840000Y-30300395D01*
X117571886Y-29568509D01*
X142658684Y-29568509D01*
X142671782Y-30497336D01*
X143002030Y-31294629D01*
X143341578Y-31478817D01*
X144820395Y-30000000D01*
X145179605Y-30000000D01*
X146658422Y-31478817D01*
X146997970Y-31294629D01*
X147341316Y-30431491D01*
X147328218Y-29502664D01*
X146997970Y-28705371D01*
X146658422Y-28521183D01*
X145179605Y-30000000D01*
X144820395Y-30000000D01*
X143341578Y-28521183D01*
X143002030Y-28705371D01*
X142658684Y-29568509D01*
X117571886Y-29568509D01*
X117740554Y-29399841D01*
X117654148Y-29143357D01*
X117080664Y-28933542D01*
X116470540Y-28959161D01*
X116025852Y-29143357D01*
X115939447Y-29399839D01*
X115824890Y-29285282D01*
X115788412Y-29321760D01*
X115664090Y-29128559D01*
X115451890Y-28983569D01*
X115200000Y-28932560D01*
X113400000Y-28932560D01*
X113164683Y-28976838D01*
X112948559Y-29115910D01*
X112803569Y-29328110D01*
X112752560Y-29580000D01*
X112752560Y-31380000D01*
X112796838Y-31615317D01*
X112915000Y-31798946D01*
X112915000Y-35902359D01*
X112914722Y-35902637D01*
X112665284Y-36503352D01*
X112664716Y-37153795D01*
X110854718Y-37153795D01*
X110855284Y-36506205D01*
X110606894Y-35905057D01*
X110147363Y-35444722D01*
X109546648Y-35195284D01*
X108896205Y-35194716D01*
X108295057Y-35443106D01*
X108293160Y-35445000D01*
X107950000Y-35445000D01*
X107419983Y-35550427D01*
X107190609Y-35703690D01*
X106970657Y-35850657D01*
X105774812Y-37046502D01*
X105775284Y-36506205D01*
X105526894Y-35905057D01*
X105525000Y-35903160D01*
X105525000Y-31794975D01*
X105630598Y-31640426D01*
X105664890Y-31674718D01*
X105779447Y-31560161D01*
X105865852Y-31816643D01*
X106439336Y-32026458D01*
X107049460Y-32000839D01*
X107494148Y-31816643D01*
X107580554Y-31560159D01*
X106680000Y-30659605D01*
X106665858Y-30673748D01*
X106486253Y-30494143D01*
X106500395Y-30480000D01*
X106859605Y-30480000D01*
X107760159Y-31380554D01*
X108016643Y-31294148D01*
X108226458Y-30720664D01*
X108200839Y-30110540D01*
X108016643Y-29665852D01*
X107760159Y-29579446D01*
X106859605Y-30480000D01*
X106500395Y-30480000D01*
X106486253Y-30465858D01*
X106665858Y-30286253D01*
X106680000Y-30300395D01*
X107580554Y-29399841D01*
X107494148Y-29143357D01*
X106920664Y-28933542D01*
X106310540Y-28959161D01*
X105865852Y-29143357D01*
X105779447Y-29399839D01*
X105664890Y-29285282D01*
X105628412Y-29321760D01*
X105504090Y-29128559D01*
X105291890Y-28983569D01*
X105040000Y-28932560D01*
X103240000Y-28932560D01*
X103004683Y-28976838D01*
X102788559Y-29115910D01*
X102643569Y-29328110D01*
X102592560Y-29580000D01*
X102592560Y-31380000D01*
X102636838Y-31615317D01*
X102755000Y-31798946D01*
X102755000Y-35902359D01*
X102754722Y-35902637D01*
X102505284Y-36503352D01*
X102504810Y-37046124D01*
X101715000Y-36256314D01*
X101715000Y-34290000D01*
X101609573Y-33759983D01*
X101309343Y-33310657D01*
X98769343Y-30770657D01*
X98603142Y-30659605D01*
X98320017Y-30470427D01*
X97790000Y-30365000D01*
X69850000Y-30365000D01*
X69319983Y-30470427D01*
X69036858Y-30659605D01*
X68870657Y-30770657D01*
X66330657Y-33310657D01*
X66030427Y-33759983D01*
X65925000Y-34290000D01*
X65925000Y-37526314D01*
X65466314Y-37985000D01*
X64657243Y-37985000D01*
X64885278Y-37757363D01*
X65134716Y-37156648D01*
X65135284Y-36506205D01*
X64886894Y-35905057D01*
X64885000Y-35903160D01*
X64885000Y-31794975D01*
X64990598Y-31640426D01*
X65024890Y-31674718D01*
X65139447Y-31560161D01*
X65225852Y-31816643D01*
X65799336Y-32026458D01*
X66409460Y-32000839D01*
X66854148Y-31816643D01*
X66940554Y-31560159D01*
X66040000Y-30659605D01*
X66025858Y-30673748D01*
X65846253Y-30494143D01*
X65860395Y-30480000D01*
X66219605Y-30480000D01*
X67120159Y-31380554D01*
X67376643Y-31294148D01*
X67586458Y-30720664D01*
X67560839Y-30110540D01*
X67376643Y-29665852D01*
X67120159Y-29579446D01*
X66219605Y-30480000D01*
X65860395Y-30480000D01*
X65846253Y-30465858D01*
X66025858Y-30286253D01*
X66040000Y-30300395D01*
X66940554Y-29399841D01*
X66854148Y-29143357D01*
X66280664Y-28933542D01*
X65670540Y-28959161D01*
X65225852Y-29143357D01*
X65139447Y-29399839D01*
X65024890Y-29285282D01*
X64988412Y-29321760D01*
X64864090Y-29128559D01*
X64651890Y-28983569D01*
X64400000Y-28932560D01*
X62600000Y-28932560D01*
X62364683Y-28976838D01*
X62148559Y-29115910D01*
X62003569Y-29328110D01*
X61952560Y-29580000D01*
X61952560Y-31380000D01*
X61996838Y-31615317D01*
X62115000Y-31798946D01*
X62115000Y-35902359D01*
X62114722Y-35902637D01*
X61865284Y-36503352D01*
X61864716Y-37153795D01*
X62113106Y-37754943D01*
X62342761Y-37985000D01*
X60263686Y-37985000D01*
X59872987Y-37594301D01*
X60054716Y-37156648D01*
X60055284Y-36506205D01*
X59806894Y-35905057D01*
X59347363Y-35444722D01*
X58746648Y-35195284D01*
X58096205Y-35194716D01*
X57495057Y-35443106D01*
X57034722Y-35902637D01*
X56785284Y-36503352D01*
X56784716Y-37153795D01*
X57033106Y-37754943D01*
X57035000Y-37756840D01*
X57035000Y-38100000D01*
X57140427Y-38630017D01*
X57387642Y-39000000D01*
X57440657Y-39079343D01*
X58710657Y-40349343D01*
X59159983Y-40649573D01*
X59690000Y-40755000D01*
X66040000Y-40755000D01*
X66570017Y-40649573D01*
X67019343Y-40349343D01*
X68289343Y-39079343D01*
X68294572Y-39071517D01*
X75408088Y-39071517D01*
X75476077Y-39312460D01*
X75995171Y-39497201D01*
X76545448Y-39469230D01*
X76923923Y-39312460D01*
X76991912Y-39071517D01*
X76200000Y-38279605D01*
X75408088Y-39071517D01*
X68294572Y-39071517D01*
X68342358Y-39000000D01*
X68589573Y-38630017D01*
X68695000Y-38100000D01*
X68695000Y-37115750D01*
X69485000Y-37115750D01*
X69485000Y-37956310D01*
X69581673Y-38189699D01*
X69760302Y-38368327D01*
X69993691Y-38465000D01*
X70834250Y-38465000D01*
X70993000Y-38306250D01*
X70993000Y-36957000D01*
X71247000Y-36957000D01*
X71247000Y-38306250D01*
X71405750Y-38465000D01*
X72246309Y-38465000D01*
X72479698Y-38368327D01*
X72658327Y-38189699D01*
X72755000Y-37956310D01*
X72755000Y-37895171D01*
X74802799Y-37895171D01*
X74830770Y-38445448D01*
X74987540Y-38823923D01*
X75228483Y-38891912D01*
X76020395Y-38100000D01*
X76379605Y-38100000D01*
X77171517Y-38891912D01*
X77412460Y-38823923D01*
X77597201Y-38304829D01*
X77569230Y-37754552D01*
X77412460Y-37376077D01*
X77171517Y-37308088D01*
X76379605Y-38100000D01*
X76020395Y-38100000D01*
X75228483Y-37308088D01*
X74987540Y-37376077D01*
X74802799Y-37895171D01*
X72755000Y-37895171D01*
X72755000Y-37128483D01*
X75408088Y-37128483D01*
X76200000Y-37920395D01*
X76991912Y-37128483D01*
X76923923Y-36887540D01*
X76404829Y-36702799D01*
X75854552Y-36730770D01*
X75476077Y-36887540D01*
X75408088Y-37128483D01*
X72755000Y-37128483D01*
X72755000Y-37115750D01*
X72596250Y-36957000D01*
X71247000Y-36957000D01*
X70993000Y-36957000D01*
X69643750Y-36957000D01*
X69485000Y-37115750D01*
X68695000Y-37115750D01*
X68695000Y-35703690D01*
X69485000Y-35703690D01*
X69485000Y-36544250D01*
X69643750Y-36703000D01*
X70993000Y-36703000D01*
X70993000Y-35353750D01*
X71247000Y-35353750D01*
X71247000Y-36703000D01*
X72596250Y-36703000D01*
X72755000Y-36544250D01*
X72755000Y-35956123D01*
X79590817Y-35956123D01*
X79870988Y-36572392D01*
X80365668Y-37034534D01*
X80883878Y-37249175D01*
X81153000Y-37131125D01*
X81153000Y-35687000D01*
X81407000Y-35687000D01*
X81407000Y-37131125D01*
X81676122Y-37249175D01*
X82194332Y-37034534D01*
X82689012Y-36572392D01*
X82969183Y-35956123D01*
X82851604Y-35687000D01*
X81407000Y-35687000D01*
X81153000Y-35687000D01*
X79708396Y-35687000D01*
X79590817Y-35956123D01*
X72755000Y-35956123D01*
X72755000Y-35703690D01*
X72658327Y-35470301D01*
X72479698Y-35291673D01*
X72246309Y-35195000D01*
X71405750Y-35195000D01*
X71247000Y-35353750D01*
X70993000Y-35353750D01*
X70834250Y-35195000D01*
X69993691Y-35195000D01*
X69760302Y-35291673D01*
X69581673Y-35470301D01*
X69485000Y-35703690D01*
X68695000Y-35703690D01*
X68695000Y-35163877D01*
X79590817Y-35163877D01*
X79708396Y-35433000D01*
X81153000Y-35433000D01*
X81153000Y-33988875D01*
X81407000Y-33988875D01*
X81407000Y-35433000D01*
X82851604Y-35433000D01*
X82969183Y-35163877D01*
X82689012Y-34547608D01*
X82194332Y-34085466D01*
X81676122Y-33870825D01*
X81407000Y-33988875D01*
X81153000Y-33988875D01*
X80883878Y-33870825D01*
X80365668Y-34085466D01*
X79870988Y-34547608D01*
X79590817Y-35163877D01*
X68695000Y-35163877D01*
X68695000Y-34863686D01*
X70423686Y-33135000D01*
X97216314Y-33135000D01*
X98945000Y-34863686D01*
X98945000Y-36830000D01*
X99050427Y-37360017D01*
X99254647Y-37665654D01*
X99350657Y-37809343D01*
X101890657Y-40349343D01*
X102339983Y-40649573D01*
X102870000Y-40755000D01*
X104959868Y-40755000D01*
X104939868Y-40775000D01*
X102070132Y-40775000D01*
X98154975Y-36859843D01*
X98155284Y-36506205D01*
X97906894Y-35905057D01*
X97447363Y-35444722D01*
X96846648Y-35195284D01*
X96490105Y-35194973D01*
X96052566Y-34757434D01*
X95684346Y-34511397D01*
X95250000Y-34425000D01*
X88100854Y-34425000D01*
X88063162Y-34224683D01*
X87924090Y-34008559D01*
X87711890Y-33863569D01*
X87460000Y-33812560D01*
X85260000Y-33812560D01*
X85024683Y-33856838D01*
X84808559Y-33995910D01*
X84663569Y-34208110D01*
X84612560Y-34460000D01*
X84612560Y-36660000D01*
X84656838Y-36895317D01*
X84795910Y-37111441D01*
X85008110Y-37256431D01*
X85260000Y-37307440D01*
X87460000Y-37307440D01*
X87695317Y-37263162D01*
X87911441Y-37124090D01*
X88056431Y-36911890D01*
X88100352Y-36695000D01*
X90305000Y-36695000D01*
X90305000Y-37276042D01*
X90266539Y-37314436D01*
X90055241Y-37823298D01*
X90054760Y-38374285D01*
X90265169Y-38883515D01*
X90654436Y-39273461D01*
X91163298Y-39484759D01*
X91714285Y-39485240D01*
X92223515Y-39274831D01*
X92613461Y-38885564D01*
X92824759Y-38376702D01*
X92825240Y-37825715D01*
X92614831Y-37316485D01*
X92575000Y-37276585D01*
X92575000Y-36695000D01*
X94779868Y-36695000D01*
X94885025Y-36800157D01*
X94884716Y-37153795D01*
X95133106Y-37754943D01*
X95592637Y-38215278D01*
X96193352Y-38464716D01*
X96549895Y-38465027D01*
X100797434Y-42712566D01*
X101165654Y-42958603D01*
X101600000Y-43045000D01*
X103005000Y-43045000D01*
X103005000Y-43272796D01*
X102754722Y-43522637D01*
X102505284Y-44123352D01*
X102504716Y-44773795D01*
X102753106Y-45374943D01*
X103212637Y-45835278D01*
X103813352Y-46084716D01*
X104463795Y-46085284D01*
X105064943Y-45836894D01*
X105525278Y-45377363D01*
X105545000Y-45329867D01*
X105545000Y-61095000D01*
X104373222Y-61095000D01*
X104373162Y-61094683D01*
X104234090Y-60878559D01*
X104021890Y-60733569D01*
X103770000Y-60682560D01*
X101970000Y-60682560D01*
X101734683Y-60726838D01*
X101518559Y-60865910D01*
X101373569Y-61078110D01*
X101370149Y-61095000D01*
X96753222Y-61095000D01*
X96753162Y-61094683D01*
X96614090Y-60878559D01*
X96401890Y-60733569D01*
X96150000Y-60682560D01*
X94350000Y-60682560D01*
X94114683Y-60726838D01*
X93898559Y-60865910D01*
X93753569Y-61078110D01*
X93750149Y-61095000D01*
X89133222Y-61095000D01*
X89133162Y-61094683D01*
X88994090Y-60878559D01*
X88781890Y-60733569D01*
X88530000Y-60682560D01*
X86730000Y-60682560D01*
X86494683Y-60726838D01*
X86278559Y-60865910D01*
X86133569Y-61078110D01*
X86130149Y-61095000D01*
X81513222Y-61095000D01*
X81513162Y-61094683D01*
X81374090Y-60878559D01*
X81161890Y-60733569D01*
X81145000Y-60730149D01*
X81145000Y-58890132D01*
X82082566Y-57952566D01*
X82225561Y-57738559D01*
X82328603Y-57584346D01*
X82415000Y-57150000D01*
X82415000Y-50000854D01*
X82615317Y-49963162D01*
X82831441Y-49824090D01*
X82976431Y-49611890D01*
X83027440Y-49360000D01*
X83027440Y-47160000D01*
X82983162Y-46924683D01*
X82844090Y-46708559D01*
X82631890Y-46563569D01*
X82415000Y-46519648D01*
X82415000Y-44450000D01*
X82328603Y-44015654D01*
X82082566Y-43647434D01*
X80812566Y-42377434D01*
X80763045Y-42344345D01*
X80444346Y-42131397D01*
X80010000Y-42045000D01*
X77094606Y-42045000D01*
X77013923Y-41964176D01*
X76558337Y-41775000D01*
X84619868Y-41775000D01*
X85225000Y-42380132D01*
X85225000Y-46937820D01*
X85133170Y-46999179D01*
X84757069Y-47562053D01*
X84625000Y-48226009D01*
X84625000Y-48293991D01*
X84757069Y-48957947D01*
X85133170Y-49520821D01*
X85696044Y-49896922D01*
X86360000Y-50028991D01*
X87023956Y-49896922D01*
X87586830Y-49520821D01*
X87962931Y-48957947D01*
X88095000Y-48293991D01*
X88095000Y-48226009D01*
X87962931Y-47562053D01*
X87586830Y-46999179D01*
X87495000Y-46937820D01*
X87495000Y-44315000D01*
X90545394Y-44315000D01*
X90626077Y-44395824D01*
X91153309Y-44614750D01*
X91724187Y-44615248D01*
X92251800Y-44397243D01*
X92286986Y-44362118D01*
X93177434Y-45252566D01*
X93545654Y-45498603D01*
X93980000Y-45585000D01*
X94897962Y-45585000D01*
X94916838Y-45685317D01*
X95055910Y-45901441D01*
X95268110Y-46046431D01*
X95520000Y-46097440D01*
X97520000Y-46097440D01*
X97755317Y-46053162D01*
X97971441Y-45914090D01*
X98116431Y-45701890D01*
X98167440Y-45450000D01*
X98167440Y-43450000D01*
X98123162Y-43214683D01*
X97984090Y-42998559D01*
X97771890Y-42853569D01*
X97520000Y-42802560D01*
X95520000Y-42802560D01*
X95284683Y-42846838D01*
X95068559Y-42985910D01*
X94923569Y-43198110D01*
X94899898Y-43315000D01*
X94450132Y-43315000D01*
X93512566Y-42377434D01*
X93463045Y-42344345D01*
X93144346Y-42131397D01*
X92710000Y-42045000D01*
X92334606Y-42045000D01*
X92253923Y-41964176D01*
X91726691Y-41745250D01*
X91155813Y-41744752D01*
X90628200Y-41962757D01*
X90545813Y-42045000D01*
X87495000Y-42045000D01*
X87495000Y-41910000D01*
X87408603Y-41475654D01*
X87162566Y-41107434D01*
X85892566Y-39837434D01*
X85875232Y-39825852D01*
X85524346Y-39591397D01*
X85090000Y-39505000D01*
X69850000Y-39505000D01*
X69432179Y-39588110D01*
X69415654Y-39591397D01*
X69047433Y-39837434D01*
X66507434Y-42377434D01*
X66261397Y-42745654D01*
X66175000Y-43180000D01*
X66175000Y-45720000D01*
X66261397Y-46154346D01*
X66486348Y-46491009D01*
X66507434Y-46522566D01*
X67445000Y-47460132D01*
X67445000Y-47782776D01*
X67313590Y-47578559D01*
X67101390Y-47433569D01*
X66849500Y-47382560D01*
X64849500Y-47382560D01*
X64668335Y-47416649D01*
X64500000Y-47382560D01*
X62500000Y-47382560D01*
X62264683Y-47426838D01*
X62048559Y-47565910D01*
X61976502Y-47671369D01*
X60492566Y-46187434D01*
X60443045Y-46154345D01*
X60124346Y-45941397D01*
X59690000Y-45855000D01*
X59301123Y-45855000D01*
X59344943Y-45836894D01*
X59805278Y-45377363D01*
X60054716Y-44776648D01*
X60054718Y-44773795D01*
X61864716Y-44773795D01*
X62113106Y-45374943D01*
X62572637Y-45835278D01*
X63173352Y-46084716D01*
X63823795Y-46085284D01*
X64424943Y-45836894D01*
X64885278Y-45377363D01*
X65134716Y-44776648D01*
X65135284Y-44126205D01*
X64886894Y-43525057D01*
X64427363Y-43064722D01*
X63826648Y-42815284D01*
X63176205Y-42814716D01*
X62575057Y-43063106D01*
X62114722Y-43522637D01*
X61865284Y-44123352D01*
X61864716Y-44773795D01*
X60054718Y-44773795D01*
X60055284Y-44126205D01*
X59806894Y-43525057D01*
X59347363Y-43064722D01*
X58746648Y-42815284D01*
X58096205Y-42814716D01*
X57495057Y-43063106D01*
X57034722Y-43522637D01*
X56785284Y-44123352D01*
X56784716Y-44773795D01*
X57033106Y-45374943D01*
X57492637Y-45835278D01*
X57540133Y-45855000D01*
X54221123Y-45855000D01*
X54264943Y-45836894D01*
X54725278Y-45377363D01*
X54974716Y-44776648D01*
X54975284Y-44126205D01*
X54726894Y-43525057D01*
X54267363Y-43064722D01*
X53666648Y-42815284D01*
X53016205Y-42814716D01*
X52415057Y-43063106D01*
X51954722Y-43522637D01*
X51705284Y-44123352D01*
X51704716Y-44773795D01*
X51953106Y-45374943D01*
X52412637Y-45835278D01*
X52460133Y-45855000D01*
X51270133Y-45855000D01*
X42712566Y-37297434D01*
X42640341Y-37249175D01*
X42497596Y-37153795D01*
X51704716Y-37153795D01*
X51953106Y-37754943D01*
X52412637Y-38215278D01*
X53013352Y-38464716D01*
X53663795Y-38465284D01*
X54264943Y-38216894D01*
X54725278Y-37757363D01*
X54974716Y-37156648D01*
X54975284Y-36506205D01*
X54726894Y-35905057D01*
X54725000Y-35903160D01*
X54725000Y-31794975D01*
X54830598Y-31640426D01*
X54864890Y-31674718D01*
X54979447Y-31560161D01*
X55065852Y-31816643D01*
X55639336Y-32026458D01*
X56249460Y-32000839D01*
X56694148Y-31816643D01*
X56780554Y-31560159D01*
X55880000Y-30659605D01*
X55865858Y-30673748D01*
X55686253Y-30494143D01*
X55700395Y-30480000D01*
X56059605Y-30480000D01*
X56960159Y-31380554D01*
X57216643Y-31294148D01*
X57426458Y-30720664D01*
X57400839Y-30110540D01*
X57216643Y-29665852D01*
X56960159Y-29579446D01*
X56059605Y-30480000D01*
X55700395Y-30480000D01*
X55686253Y-30465858D01*
X55865858Y-30286253D01*
X55880000Y-30300395D01*
X56780554Y-29399841D01*
X56694148Y-29143357D01*
X56120664Y-28933542D01*
X55510540Y-28959161D01*
X55065852Y-29143357D01*
X54979447Y-29399839D01*
X54864890Y-29285282D01*
X54828412Y-29321760D01*
X54704090Y-29128559D01*
X54491890Y-28983569D01*
X54240000Y-28932560D01*
X52440000Y-28932560D01*
X52204683Y-28976838D01*
X51988559Y-29115910D01*
X51843569Y-29328110D01*
X51792560Y-29580000D01*
X51792560Y-31380000D01*
X51836838Y-31615317D01*
X51955000Y-31798946D01*
X51955000Y-35902359D01*
X51954722Y-35902637D01*
X51705284Y-36503352D01*
X51704716Y-37153795D01*
X42497596Y-37153795D01*
X42344346Y-37051397D01*
X41910000Y-36965000D01*
X37063222Y-36965000D01*
X37063162Y-36964683D01*
X36924090Y-36748559D01*
X36711890Y-36603569D01*
X36460000Y-36552560D01*
X34660000Y-36552560D01*
X34424683Y-36596838D01*
X34208559Y-36735910D01*
X34063569Y-36948110D01*
X34012560Y-37200000D01*
X25685000Y-37200000D01*
X25685000Y-31658422D01*
X28521183Y-31658422D01*
X28705371Y-31997970D01*
X29568509Y-32341316D01*
X30497336Y-32328218D01*
X31294629Y-31997970D01*
X31478817Y-31658422D01*
X30000000Y-30179605D01*
X28521183Y-31658422D01*
X25685000Y-31658422D01*
X25685000Y-29568509D01*
X27658684Y-29568509D01*
X27671782Y-30497336D01*
X28002030Y-31294629D01*
X28341578Y-31478817D01*
X29820395Y-30000000D01*
X30179605Y-30000000D01*
X31658422Y-31478817D01*
X31997970Y-31294629D01*
X32341316Y-30431491D01*
X32328218Y-29502664D01*
X31997970Y-28705371D01*
X31658422Y-28521183D01*
X30179605Y-30000000D01*
X29820395Y-30000000D01*
X28341578Y-28521183D01*
X28002030Y-28705371D01*
X27658684Y-29568509D01*
X25685000Y-29568509D01*
X25685000Y-28341578D01*
X28521183Y-28341578D01*
X30000000Y-29820395D01*
X31478817Y-28341578D01*
X143521183Y-28341578D01*
X145000000Y-29820395D01*
X146478817Y-28341578D01*
X146294629Y-28002030D01*
X145431491Y-27658684D01*
X144502664Y-27671782D01*
X143705371Y-28002030D01*
X143521183Y-28341578D01*
X31478817Y-28341578D01*
X31294629Y-28002030D01*
X30431491Y-27658684D01*
X29502664Y-27671782D01*
X28705371Y-28002030D01*
X28521183Y-28341578D01*
X25685000Y-28341578D01*
X25685000Y-25685000D01*
X149315000Y-25685000D01*
X149315000Y-74315000D01*
M02*
