M48
;DRILL file {KiCad 4.0.7} date 04/29/18 15:17:40
;FORMAT={-:-/ absolute / inch / decimal}
FMAT,2
INCH,TZ
T1C0.031
T2C0.059
%
G90
G05
M72
T1
X4.5Y-3.8
X4.5Y-3.9
X4.65Y-2.7
X4.75Y-3.6
X4.75Y-4.1
X4.85Y-2.7
X4.95Y-3.6
X4.95Y-4.1
X5.05Y-2.1
X5.05Y-2.7
X5.25Y-2.35
X5.25Y-2.55
X5.25Y-2.85
X5.25Y-3.45
X5.25Y-3.6
X5.25Y-4.1
X5.45Y-2.1
X5.45Y-2.3
X5.45Y-2.55
X5.45Y-2.8
X5.45Y-3.05
X5.45Y-3.95
X5.45Y-4.2
X5.45Y-4.45
X5.45Y-4.7
X5.55Y-2.1
X5.55Y-3.35
X5.6Y-3.3
X5.6Y-3.4
X5.65Y-2.1
X5.9Y-3.6
X5.9Y-3.7
X5.95Y-3.65
X6.05Y-2.3
X6.05Y-2.55
X6.05Y-2.8
X6.05Y-3.05
X6.05Y-3.95
X6.05Y-4.2
X6.05Y-4.45
X6.05Y-4.7
X6.25Y-2.1
X6.25Y-2.7
X6.25Y-2.85
X6.25Y-3.45
X6.25Y-4.5
X6.25Y-4.7
X6.3Y-3.65
X6.3Y-4.1
X6.5Y-2.7
X6.5Y-2.95
X6.5Y-3.45
X6.5Y-3.65
X6.5Y-4.1
X6.7Y-2.7
X6.8Y-3.85
X6.8Y-3.95
T2
X4.378Y-2.1217
X4.378Y-4.6807
X6.937Y-2.1217
X6.937Y-4.6807
T0
M30
