G04 #@! TF.FileFunction,Copper,L2,Bot,Signal*
%FSLAX46Y46*%
G04 Gerber Fmt 4.6, Leading zero omitted, Abs format (unit mm)*
G04 Created by KiCad (PCBNEW 4.0.7) date 04/29/18 15:17:50*
%MOMM*%
%LPD*%
G01*
G04 APERTURE LIST*
%ADD10C,0.100000*%
%ADD11C,1.600000*%
%ADD12C,1.500000*%
%ADD13R,1.600000X1.600000*%
%ADD14O,1.600000X1.600000*%
%ADD15C,4.000000*%
%ADD16R,1.800000X1.800000*%
%ADD17C,1.800000*%
%ADD18O,1.200000X1.600000*%
%ADD19O,1.200000X1.200000*%
%ADD20C,1.000000*%
%ADD21C,0.254000*%
G04 APERTURE END LIST*
D10*
D11*
X125730000Y-91440000D03*
D12*
X120650000Y-91440000D03*
D11*
X125730000Y-104140000D03*
D12*
X120650000Y-104140000D03*
D11*
X165100000Y-68580000D03*
D12*
X170180000Y-68580000D03*
D11*
X123190000Y-68580000D03*
D12*
X118110000Y-68580000D03*
D11*
X158750000Y-114300000D03*
D12*
X158750000Y-119380000D03*
D11*
X133350000Y-59690000D03*
D12*
X133350000Y-64770000D03*
D11*
X165100000Y-92710000D03*
D12*
X160020000Y-92710000D03*
D11*
X165100000Y-104140000D03*
D12*
X160020000Y-104140000D03*
D13*
X165100000Y-74930000D03*
D14*
X165100000Y-87630000D03*
D13*
X133350000Y-104140000D03*
D14*
X133350000Y-91440000D03*
D15*
X111200000Y-118890000D03*
X176200000Y-118890000D03*
X111200000Y-53890000D03*
X176200000Y-53890000D03*
D16*
X138430000Y-53340000D03*
D17*
X140970000Y-53340000D03*
X143510000Y-53340000D03*
D16*
X114300000Y-96520000D03*
D17*
X114300000Y-99060000D03*
D16*
X172720000Y-97790000D03*
D17*
X172720000Y-100330000D03*
D18*
X142240000Y-83820000D03*
D19*
X140970000Y-85090000D03*
X142240000Y-86360000D03*
D18*
X149860000Y-93980000D03*
D19*
X151130000Y-92710000D03*
X149860000Y-91440000D03*
D11*
X158750000Y-53340000D03*
D14*
X158750000Y-68580000D03*
D11*
X128270000Y-53340000D03*
D14*
X128270000Y-68580000D03*
D11*
X138430000Y-71120000D03*
D14*
X153670000Y-71120000D03*
D11*
X153670000Y-119380000D03*
D14*
X138430000Y-119380000D03*
D11*
X158750000Y-72390000D03*
D14*
X158750000Y-87630000D03*
D11*
X138430000Y-77470000D03*
D14*
X153670000Y-77470000D03*
D11*
X133350000Y-72390000D03*
D14*
X133350000Y-87630000D03*
D11*
X138430000Y-64770000D03*
D14*
X153670000Y-64770000D03*
D11*
X153670000Y-113030000D03*
D14*
X138430000Y-113030000D03*
D11*
X138430000Y-100330000D03*
D14*
X153670000Y-100330000D03*
D11*
X138430000Y-58420000D03*
D14*
X153670000Y-58420000D03*
D11*
X153670000Y-106680000D03*
D14*
X138430000Y-106680000D03*
D20*
X138430000Y-77470000D02*
X138430000Y-85090000D01*
X125730000Y-91440000D02*
X125730000Y-86360000D01*
X125730000Y-86360000D02*
X127000000Y-85090000D01*
X127000000Y-85090000D02*
X138430000Y-85090000D01*
X138430000Y-85090000D02*
X140970000Y-85090000D01*
X138430000Y-77470000D02*
X138430000Y-71120000D01*
X120650000Y-96520000D02*
X120650000Y-104140000D01*
X114300000Y-96520000D02*
X120650000Y-96520000D01*
X120650000Y-96520000D02*
X120650000Y-91440000D01*
X149860000Y-91440000D02*
X147320000Y-91440000D01*
X147320000Y-91440000D02*
X138430000Y-100330000D01*
X133350000Y-104140000D02*
X134620000Y-104140000D01*
X134620000Y-104140000D02*
X138430000Y-100330000D01*
X125730000Y-104140000D02*
X133350000Y-104140000D01*
X153670000Y-58420000D02*
X162560000Y-58420000D01*
X163830000Y-57150000D02*
X163830000Y-50800000D01*
X162560000Y-58420000D02*
X163830000Y-57150000D01*
X153670000Y-58420000D02*
X153670000Y-64770000D01*
X153670000Y-71120000D02*
X153670000Y-64770000D01*
X118110000Y-68580000D02*
X107950000Y-68580000D01*
X143510000Y-53340000D02*
X143510000Y-50800000D01*
X170180000Y-68580000D02*
X179070000Y-68580000D01*
X138430000Y-106680000D02*
X138430000Y-113030000D01*
X138430000Y-113030000D02*
X138430000Y-119380000D01*
X138430000Y-119380000D02*
X138430000Y-121920000D01*
X114300000Y-99060000D02*
X107950000Y-99060000D01*
X172720000Y-100330000D02*
X179070000Y-100330000D01*
X111200000Y-118890000D02*
X111200000Y-118820000D01*
X111200000Y-118820000D02*
X107950000Y-115570000D01*
X107950000Y-57140000D02*
X111200000Y-53890000D01*
X107950000Y-115570000D02*
X107950000Y-99060000D01*
X107950000Y-99060000D02*
X107950000Y-68580000D01*
X107950000Y-68580000D02*
X107950000Y-57140000D01*
X176200000Y-118890000D02*
X175750000Y-118890000D01*
X175750000Y-118890000D02*
X172720000Y-121920000D01*
X114230000Y-121920000D02*
X111200000Y-118890000D01*
X172720000Y-121920000D02*
X138430000Y-121920000D01*
X138430000Y-121920000D02*
X114230000Y-121920000D01*
X176200000Y-53890000D02*
X176200000Y-54280000D01*
X176200000Y-54280000D02*
X179070000Y-57150000D01*
X179070000Y-116020000D02*
X176200000Y-118890000D01*
X179070000Y-57150000D02*
X179070000Y-68580000D01*
X179070000Y-68580000D02*
X179070000Y-100330000D01*
X179070000Y-100330000D02*
X179070000Y-116020000D01*
X111200000Y-53890000D02*
X111210000Y-53890000D01*
X111210000Y-53890000D02*
X114300000Y-50800000D01*
X114300000Y-50800000D02*
X143510000Y-50800000D01*
X143510000Y-50800000D02*
X163830000Y-50800000D01*
X163830000Y-50800000D02*
X173110000Y-50800000D01*
X173110000Y-50800000D02*
X176200000Y-53890000D01*
X123190000Y-68580000D02*
X128270000Y-68580000D01*
X133350000Y-72390000D02*
X132080000Y-72390000D01*
X132080000Y-72390000D02*
X128270000Y-68580000D01*
X153670000Y-113030000D02*
X157480000Y-113030000D01*
X157480000Y-113030000D02*
X158750000Y-114300000D01*
X149860000Y-93980000D02*
X149860000Y-111760000D01*
X151130000Y-113030000D02*
X153670000Y-113030000D01*
X149860000Y-111760000D02*
X151130000Y-113030000D01*
X158750000Y-119380000D02*
X153670000Y-119380000D01*
X133350000Y-59690000D02*
X137160000Y-59690000D01*
X137160000Y-59690000D02*
X138430000Y-58420000D01*
X138430000Y-64770000D02*
X133350000Y-64770000D01*
X142240000Y-83820000D02*
X142240000Y-66040000D01*
X140970000Y-64770000D02*
X138430000Y-64770000D01*
X142240000Y-66040000D02*
X140970000Y-64770000D01*
X172720000Y-97790000D02*
X165100000Y-97790000D01*
X165100000Y-92710000D02*
X165100000Y-97790000D01*
X165100000Y-97790000D02*
X165100000Y-104140000D01*
X142240000Y-86360000D02*
X153670000Y-86360000D01*
X153670000Y-77470000D02*
X162560000Y-77470000D01*
X162560000Y-77470000D02*
X165100000Y-74930000D01*
X153670000Y-77470000D02*
X153670000Y-86360000D01*
X153670000Y-86360000D02*
X153670000Y-88900000D01*
X157480000Y-92710000D02*
X160020000Y-92710000D01*
X153670000Y-88900000D02*
X157480000Y-92710000D01*
X160020000Y-104140000D02*
X153670000Y-104140000D01*
X153670000Y-100330000D02*
X153670000Y-104140000D01*
X153670000Y-104140000D02*
X153670000Y-106680000D01*
X151130000Y-92710000D02*
X152400000Y-92710000D01*
X153670000Y-93980000D02*
X153670000Y-100330000D01*
X152400000Y-92710000D02*
X153670000Y-93980000D01*
X158750000Y-87630000D02*
X165100000Y-87630000D01*
X138430000Y-53340000D02*
X128270000Y-53340000D01*
X140970000Y-53340000D02*
X140970000Y-55880000D01*
X151130000Y-53340000D02*
X158750000Y-53340000D01*
X147320000Y-57150000D02*
X151130000Y-53340000D01*
X142240000Y-57150000D02*
X147320000Y-57150000D01*
X140970000Y-55880000D02*
X142240000Y-57150000D01*
D21*
G36*
X180490000Y-123180000D02*
X106910000Y-123180000D01*
X106910000Y-120765022D01*
X109504584Y-120765022D01*
X109725353Y-121135743D01*
X110697012Y-121529119D01*
X111745247Y-121520713D01*
X112674647Y-121135743D01*
X112895416Y-120765022D01*
X111200000Y-119069605D01*
X109504584Y-120765022D01*
X106910000Y-120765022D01*
X106910000Y-118387012D01*
X108560881Y-118387012D01*
X108569287Y-119435247D01*
X108954257Y-120364647D01*
X109324978Y-120585416D01*
X111020395Y-118890000D01*
X111379605Y-118890000D01*
X113075022Y-120585416D01*
X113445743Y-120364647D01*
X113703068Y-119729039D01*
X137038096Y-119729039D01*
X137198959Y-120117423D01*
X137574866Y-120532389D01*
X138080959Y-120771914D01*
X138303000Y-120650629D01*
X138303000Y-119507000D01*
X138557000Y-119507000D01*
X138557000Y-120650629D01*
X138779041Y-120771914D01*
X139285134Y-120532389D01*
X139661041Y-120117423D01*
X139821904Y-119729039D01*
X139786275Y-119664187D01*
X152234752Y-119664187D01*
X152452757Y-120191800D01*
X152856077Y-120595824D01*
X153383309Y-120814750D01*
X153954187Y-120815248D01*
X154481800Y-120597243D01*
X154564187Y-120515000D01*
X157926042Y-120515000D01*
X157964436Y-120553461D01*
X158473298Y-120764759D01*
X159024285Y-120765240D01*
X159024812Y-120765022D01*
X174504584Y-120765022D01*
X174725353Y-121135743D01*
X175697012Y-121529119D01*
X176745247Y-121520713D01*
X177674647Y-121135743D01*
X177895416Y-120765022D01*
X176200000Y-119069605D01*
X174504584Y-120765022D01*
X159024812Y-120765022D01*
X159533515Y-120554831D01*
X159923461Y-120165564D01*
X160134759Y-119656702D01*
X160135240Y-119105715D01*
X159924831Y-118596485D01*
X159715723Y-118387012D01*
X173560881Y-118387012D01*
X173569287Y-119435247D01*
X173954257Y-120364647D01*
X174324978Y-120585416D01*
X176020395Y-118890000D01*
X176379605Y-118890000D01*
X178075022Y-120585416D01*
X178445743Y-120364647D01*
X178839119Y-119392988D01*
X178830713Y-118344753D01*
X178445743Y-117415353D01*
X178075022Y-117194584D01*
X176379605Y-118890000D01*
X176020395Y-118890000D01*
X174324978Y-117194584D01*
X173954257Y-117415353D01*
X173560881Y-118387012D01*
X159715723Y-118387012D01*
X159535564Y-118206539D01*
X159026702Y-117995241D01*
X158475715Y-117994760D01*
X157966485Y-118205169D01*
X157926585Y-118245000D01*
X154564606Y-118245000D01*
X154483923Y-118164176D01*
X153956691Y-117945250D01*
X153385813Y-117944752D01*
X152858200Y-118162757D01*
X152454176Y-118566077D01*
X152235250Y-119093309D01*
X152234752Y-119664187D01*
X139786275Y-119664187D01*
X139699915Y-119507000D01*
X138557000Y-119507000D01*
X138303000Y-119507000D01*
X137160085Y-119507000D01*
X137038096Y-119729039D01*
X113703068Y-119729039D01*
X113839119Y-119392988D01*
X113836216Y-119030961D01*
X137038096Y-119030961D01*
X137160085Y-119253000D01*
X138303000Y-119253000D01*
X138303000Y-118109371D01*
X138557000Y-118109371D01*
X138557000Y-119253000D01*
X139699915Y-119253000D01*
X139821904Y-119030961D01*
X139661041Y-118642577D01*
X139285134Y-118227611D01*
X138779041Y-117988086D01*
X138557000Y-118109371D01*
X138303000Y-118109371D01*
X138080959Y-117988086D01*
X137574866Y-118227611D01*
X137198959Y-118642577D01*
X137038096Y-119030961D01*
X113836216Y-119030961D01*
X113830713Y-118344753D01*
X113445743Y-117415353D01*
X113075022Y-117194584D01*
X111379605Y-118890000D01*
X111020395Y-118890000D01*
X109324978Y-117194584D01*
X108954257Y-117415353D01*
X108560881Y-118387012D01*
X106910000Y-118387012D01*
X106910000Y-117014978D01*
X109504584Y-117014978D01*
X111200000Y-118710395D01*
X112895416Y-117014978D01*
X174504584Y-117014978D01*
X176200000Y-118710395D01*
X177895416Y-117014978D01*
X177674647Y-116644257D01*
X176702988Y-116250881D01*
X175654753Y-116259287D01*
X174725353Y-116644257D01*
X174504584Y-117014978D01*
X112895416Y-117014978D01*
X112674647Y-116644257D01*
X111702988Y-116250881D01*
X110654753Y-116259287D01*
X109725353Y-116644257D01*
X109504584Y-117014978D01*
X106910000Y-117014978D01*
X106910000Y-113379039D01*
X137038096Y-113379039D01*
X137198959Y-113767423D01*
X137574866Y-114182389D01*
X138080959Y-114421914D01*
X138303000Y-114300629D01*
X138303000Y-113157000D01*
X138557000Y-113157000D01*
X138557000Y-114300629D01*
X138779041Y-114421914D01*
X139285134Y-114182389D01*
X139661041Y-113767423D01*
X139821904Y-113379039D01*
X139699915Y-113157000D01*
X138557000Y-113157000D01*
X138303000Y-113157000D01*
X137160085Y-113157000D01*
X137038096Y-113379039D01*
X106910000Y-113379039D01*
X106910000Y-112680961D01*
X137038096Y-112680961D01*
X137160085Y-112903000D01*
X138303000Y-112903000D01*
X138303000Y-111759371D01*
X138557000Y-111759371D01*
X138557000Y-112903000D01*
X139699915Y-112903000D01*
X139821904Y-112680961D01*
X139661041Y-112292577D01*
X139285134Y-111877611D01*
X138779041Y-111638086D01*
X138557000Y-111759371D01*
X138303000Y-111759371D01*
X138080959Y-111638086D01*
X137574866Y-111877611D01*
X137198959Y-112292577D01*
X137038096Y-112680961D01*
X106910000Y-112680961D01*
X106910000Y-107029039D01*
X137038096Y-107029039D01*
X137198959Y-107417423D01*
X137574866Y-107832389D01*
X138080959Y-108071914D01*
X138303000Y-107950629D01*
X138303000Y-106807000D01*
X138557000Y-106807000D01*
X138557000Y-107950629D01*
X138779041Y-108071914D01*
X139285134Y-107832389D01*
X139661041Y-107417423D01*
X139821904Y-107029039D01*
X139699915Y-106807000D01*
X138557000Y-106807000D01*
X138303000Y-106807000D01*
X137160085Y-106807000D01*
X137038096Y-107029039D01*
X106910000Y-107029039D01*
X106910000Y-106330961D01*
X137038096Y-106330961D01*
X137160085Y-106553000D01*
X138303000Y-106553000D01*
X138303000Y-105409371D01*
X138557000Y-105409371D01*
X138557000Y-106553000D01*
X139699915Y-106553000D01*
X139821904Y-106330961D01*
X139661041Y-105942577D01*
X139285134Y-105527611D01*
X138779041Y-105288086D01*
X138557000Y-105409371D01*
X138303000Y-105409371D01*
X138080959Y-105288086D01*
X137574866Y-105527611D01*
X137198959Y-105942577D01*
X137038096Y-106330961D01*
X106910000Y-106330961D01*
X106910000Y-100140159D01*
X113399446Y-100140159D01*
X113485852Y-100396643D01*
X114059336Y-100606458D01*
X114669460Y-100580839D01*
X115114148Y-100396643D01*
X115200554Y-100140159D01*
X114300000Y-99239605D01*
X113399446Y-100140159D01*
X106910000Y-100140159D01*
X106910000Y-95620000D01*
X112752560Y-95620000D01*
X112752560Y-97420000D01*
X112796838Y-97655317D01*
X112935910Y-97871441D01*
X113139574Y-98010598D01*
X113105282Y-98044890D01*
X113219839Y-98159447D01*
X112963357Y-98245852D01*
X112753542Y-98819336D01*
X112779161Y-99429460D01*
X112963357Y-99874148D01*
X113219841Y-99960554D01*
X114120395Y-99060000D01*
X114106253Y-99045858D01*
X114285858Y-98866253D01*
X114300000Y-98880395D01*
X114314143Y-98866253D01*
X114493748Y-99045858D01*
X114479605Y-99060000D01*
X115380159Y-99960554D01*
X115636643Y-99874148D01*
X115846458Y-99300664D01*
X115820839Y-98690540D01*
X115636643Y-98245852D01*
X115380161Y-98159447D01*
X115494718Y-98044890D01*
X115458240Y-98008412D01*
X115651441Y-97884090D01*
X115796431Y-97671890D01*
X115799851Y-97655000D01*
X119515000Y-97655000D01*
X119515000Y-103316042D01*
X119476539Y-103354436D01*
X119265241Y-103863298D01*
X119264760Y-104414285D01*
X119475169Y-104923515D01*
X119864436Y-105313461D01*
X120373298Y-105524759D01*
X120924285Y-105525240D01*
X121433515Y-105314831D01*
X121823461Y-104925564D01*
X122031650Y-104424187D01*
X124294752Y-104424187D01*
X124512757Y-104951800D01*
X124916077Y-105355824D01*
X125443309Y-105574750D01*
X126014187Y-105575248D01*
X126541800Y-105357243D01*
X126624187Y-105275000D01*
X132010982Y-105275000D01*
X132085910Y-105391441D01*
X132298110Y-105536431D01*
X132550000Y-105587440D01*
X134150000Y-105587440D01*
X134385317Y-105543162D01*
X134601441Y-105404090D01*
X134700599Y-105258968D01*
X135054346Y-105188603D01*
X135422566Y-104942566D01*
X138599984Y-101765148D01*
X138714187Y-101765248D01*
X139241800Y-101547243D01*
X139645824Y-101143923D01*
X139864750Y-100616691D01*
X139864852Y-100500281D01*
X147790133Y-92575000D01*
X149342209Y-92575000D01*
X149387386Y-92605186D01*
X149401739Y-92608041D01*
X149387386Y-92610896D01*
X148986723Y-92878610D01*
X148719009Y-93279273D01*
X148625000Y-93751887D01*
X148625000Y-94208113D01*
X148719009Y-94680727D01*
X148725000Y-94689693D01*
X148725000Y-111760000D01*
X148811397Y-112194346D01*
X148827336Y-112218200D01*
X149057434Y-112562566D01*
X150327434Y-113832566D01*
X150695654Y-114078603D01*
X151130000Y-114165000D01*
X152775394Y-114165000D01*
X152856077Y-114245824D01*
X153383309Y-114464750D01*
X153954187Y-114465248D01*
X154481800Y-114247243D01*
X154564187Y-114165000D01*
X157009868Y-114165000D01*
X157314852Y-114469984D01*
X157314752Y-114584187D01*
X157532757Y-115111800D01*
X157936077Y-115515824D01*
X158463309Y-115734750D01*
X159034187Y-115735248D01*
X159561800Y-115517243D01*
X159965824Y-115113923D01*
X160184750Y-114586691D01*
X160185248Y-114015813D01*
X159967243Y-113488200D01*
X159563923Y-113084176D01*
X159036691Y-112865250D01*
X158920280Y-112865148D01*
X158282566Y-112227434D01*
X158233045Y-112194345D01*
X157914346Y-111981397D01*
X157480000Y-111895000D01*
X154564606Y-111895000D01*
X154483923Y-111814176D01*
X153956691Y-111595250D01*
X153385813Y-111594752D01*
X152858200Y-111812757D01*
X152775813Y-111895000D01*
X151600132Y-111895000D01*
X150995000Y-111289868D01*
X150995000Y-94689693D01*
X151000991Y-94680727D01*
X151095000Y-94208113D01*
X151095000Y-93962233D01*
X151130000Y-93969195D01*
X151602614Y-93875186D01*
X151647791Y-93845000D01*
X151929868Y-93845000D01*
X152535000Y-94450132D01*
X152535000Y-99453272D01*
X152316120Y-99780849D01*
X152206887Y-100330000D01*
X152316120Y-100879151D01*
X152535000Y-101206728D01*
X152535000Y-105785394D01*
X152454176Y-105866077D01*
X152235250Y-106393309D01*
X152234752Y-106964187D01*
X152452757Y-107491800D01*
X152856077Y-107895824D01*
X153383309Y-108114750D01*
X153954187Y-108115248D01*
X154481800Y-107897243D01*
X154885824Y-107493923D01*
X155104750Y-106966691D01*
X155105248Y-106395813D01*
X154887243Y-105868200D01*
X154805000Y-105785813D01*
X154805000Y-105275000D01*
X159196042Y-105275000D01*
X159234436Y-105313461D01*
X159743298Y-105524759D01*
X160294285Y-105525240D01*
X160803515Y-105314831D01*
X161193461Y-104925564D01*
X161404759Y-104416702D01*
X161405240Y-103865715D01*
X161194831Y-103356485D01*
X160805564Y-102966539D01*
X160296702Y-102755241D01*
X159745715Y-102754760D01*
X159236485Y-102965169D01*
X159196585Y-103005000D01*
X154805000Y-103005000D01*
X154805000Y-101206728D01*
X155023880Y-100879151D01*
X155133113Y-100330000D01*
X155023880Y-99780849D01*
X154805000Y-99453272D01*
X154805000Y-93980000D01*
X154718603Y-93545654D01*
X154472566Y-93177434D01*
X153202566Y-91907434D01*
X152932065Y-91726691D01*
X152834346Y-91661397D01*
X152400000Y-91575000D01*
X151647791Y-91575000D01*
X151602614Y-91544814D01*
X151130000Y-91450805D01*
X151095000Y-91457767D01*
X151095000Y-91415805D01*
X151000991Y-90943191D01*
X150733277Y-90542528D01*
X150332614Y-90274814D01*
X149860000Y-90180805D01*
X149387386Y-90274814D01*
X149342209Y-90305000D01*
X147320000Y-90305000D01*
X146885655Y-90391396D01*
X146517434Y-90637433D01*
X138260016Y-98894852D01*
X138145813Y-98894752D01*
X137618200Y-99112757D01*
X137214176Y-99516077D01*
X136995250Y-100043309D01*
X136995148Y-100159720D01*
X134407480Y-102747388D01*
X134401890Y-102743569D01*
X134150000Y-102692560D01*
X132550000Y-102692560D01*
X132314683Y-102736838D01*
X132098559Y-102875910D01*
X132010356Y-103005000D01*
X126624606Y-103005000D01*
X126543923Y-102924176D01*
X126016691Y-102705250D01*
X125445813Y-102704752D01*
X124918200Y-102922757D01*
X124514176Y-103326077D01*
X124295250Y-103853309D01*
X124294752Y-104424187D01*
X122031650Y-104424187D01*
X122034759Y-104416702D01*
X122035240Y-103865715D01*
X121824831Y-103356485D01*
X121785000Y-103316585D01*
X121785000Y-92263958D01*
X121823461Y-92225564D01*
X122031650Y-91724187D01*
X124294752Y-91724187D01*
X124512757Y-92251800D01*
X124916077Y-92655824D01*
X125443309Y-92874750D01*
X126014187Y-92875248D01*
X126541800Y-92657243D01*
X126945824Y-92253923D01*
X127164750Y-91726691D01*
X127165024Y-91411887D01*
X131915000Y-91411887D01*
X131915000Y-91468113D01*
X132024233Y-92017264D01*
X132335302Y-92482811D01*
X132800849Y-92793880D01*
X133350000Y-92903113D01*
X133899151Y-92793880D01*
X134364698Y-92482811D01*
X134675767Y-92017264D01*
X134785000Y-91468113D01*
X134785000Y-91411887D01*
X134675767Y-90862736D01*
X134364698Y-90397189D01*
X133899151Y-90086120D01*
X133350000Y-89976887D01*
X132800849Y-90086120D01*
X132335302Y-90397189D01*
X132024233Y-90862736D01*
X131915000Y-91411887D01*
X127165024Y-91411887D01*
X127165248Y-91155813D01*
X126947243Y-90628200D01*
X126865000Y-90545813D01*
X126865000Y-86830132D01*
X127470132Y-86225000D01*
X133057846Y-86225000D01*
X132800849Y-86276120D01*
X132335302Y-86587189D01*
X132024233Y-87052736D01*
X131915000Y-87601887D01*
X131915000Y-87658113D01*
X132024233Y-88207264D01*
X132335302Y-88672811D01*
X132800849Y-88983880D01*
X133350000Y-89093113D01*
X133899151Y-88983880D01*
X134364698Y-88672811D01*
X134675767Y-88207264D01*
X134785000Y-87658113D01*
X134785000Y-87601887D01*
X134675767Y-87052736D01*
X134364698Y-86587189D01*
X133899151Y-86276120D01*
X133642154Y-86225000D01*
X140452209Y-86225000D01*
X140497386Y-86255186D01*
X140970000Y-86349195D01*
X141005000Y-86342233D01*
X141005000Y-86384195D01*
X141099009Y-86856809D01*
X141366723Y-87257472D01*
X141767386Y-87525186D01*
X142240000Y-87619195D01*
X142712614Y-87525186D01*
X142757791Y-87495000D01*
X152535000Y-87495000D01*
X152535000Y-88900000D01*
X152621397Y-89334346D01*
X152867434Y-89702566D01*
X156677434Y-93512566D01*
X157045655Y-93758604D01*
X157480000Y-93845000D01*
X159196042Y-93845000D01*
X159234436Y-93883461D01*
X159743298Y-94094759D01*
X160294285Y-94095240D01*
X160803515Y-93884831D01*
X161193461Y-93495564D01*
X161401650Y-92994187D01*
X163664752Y-92994187D01*
X163882757Y-93521800D01*
X163965000Y-93604187D01*
X163965000Y-103245394D01*
X163884176Y-103326077D01*
X163665250Y-103853309D01*
X163664752Y-104424187D01*
X163882757Y-104951800D01*
X164286077Y-105355824D01*
X164813309Y-105574750D01*
X165384187Y-105575248D01*
X165911800Y-105357243D01*
X166315824Y-104953923D01*
X166534750Y-104426691D01*
X166535248Y-103855813D01*
X166317243Y-103328200D01*
X166235000Y-103245813D01*
X166235000Y-101410159D01*
X171819446Y-101410159D01*
X171905852Y-101666643D01*
X172479336Y-101876458D01*
X173089460Y-101850839D01*
X173534148Y-101666643D01*
X173620554Y-101410159D01*
X172720000Y-100509605D01*
X171819446Y-101410159D01*
X166235000Y-101410159D01*
X166235000Y-98925000D01*
X171216778Y-98925000D01*
X171216838Y-98925317D01*
X171355910Y-99141441D01*
X171559574Y-99280598D01*
X171525282Y-99314890D01*
X171639839Y-99429447D01*
X171383357Y-99515852D01*
X171173542Y-100089336D01*
X171199161Y-100699460D01*
X171383357Y-101144148D01*
X171639841Y-101230554D01*
X172540395Y-100330000D01*
X172526253Y-100315858D01*
X172705858Y-100136253D01*
X172720000Y-100150395D01*
X172734143Y-100136253D01*
X172913748Y-100315858D01*
X172899605Y-100330000D01*
X173800159Y-101230554D01*
X174056643Y-101144148D01*
X174266458Y-100570664D01*
X174240839Y-99960540D01*
X174056643Y-99515852D01*
X173800161Y-99429447D01*
X173914718Y-99314890D01*
X173878240Y-99278412D01*
X174071441Y-99154090D01*
X174216431Y-98941890D01*
X174267440Y-98690000D01*
X174267440Y-96890000D01*
X174223162Y-96654683D01*
X174084090Y-96438559D01*
X173871890Y-96293569D01*
X173620000Y-96242560D01*
X171820000Y-96242560D01*
X171584683Y-96286838D01*
X171368559Y-96425910D01*
X171223569Y-96638110D01*
X171220149Y-96655000D01*
X166235000Y-96655000D01*
X166235000Y-93604606D01*
X166315824Y-93523923D01*
X166534750Y-92996691D01*
X166535248Y-92425813D01*
X166317243Y-91898200D01*
X165913923Y-91494176D01*
X165386691Y-91275250D01*
X164815813Y-91274752D01*
X164288200Y-91492757D01*
X163884176Y-91896077D01*
X163665250Y-92423309D01*
X163664752Y-92994187D01*
X161401650Y-92994187D01*
X161404759Y-92986702D01*
X161405240Y-92435715D01*
X161194831Y-91926485D01*
X160805564Y-91536539D01*
X160296702Y-91325241D01*
X159745715Y-91324760D01*
X159236485Y-91535169D01*
X159196585Y-91575000D01*
X157950132Y-91575000D01*
X154805000Y-88429868D01*
X154805000Y-87601887D01*
X157315000Y-87601887D01*
X157315000Y-87658113D01*
X157424233Y-88207264D01*
X157735302Y-88672811D01*
X158200849Y-88983880D01*
X158750000Y-89093113D01*
X159299151Y-88983880D01*
X159626728Y-88765000D01*
X164223272Y-88765000D01*
X164550849Y-88983880D01*
X165100000Y-89093113D01*
X165649151Y-88983880D01*
X166114698Y-88672811D01*
X166425767Y-88207264D01*
X166535000Y-87658113D01*
X166535000Y-87601887D01*
X166425767Y-87052736D01*
X166114698Y-86587189D01*
X165649151Y-86276120D01*
X165100000Y-86166887D01*
X164550849Y-86276120D01*
X164223272Y-86495000D01*
X159626728Y-86495000D01*
X159299151Y-86276120D01*
X158750000Y-86166887D01*
X158200849Y-86276120D01*
X157735302Y-86587189D01*
X157424233Y-87052736D01*
X157315000Y-87601887D01*
X154805000Y-87601887D01*
X154805000Y-78605000D01*
X162560000Y-78605000D01*
X162994346Y-78518603D01*
X163362566Y-78272566D01*
X165257693Y-76377440D01*
X165900000Y-76377440D01*
X166135317Y-76333162D01*
X166351441Y-76194090D01*
X166496431Y-75981890D01*
X166547440Y-75730000D01*
X166547440Y-74130000D01*
X166503162Y-73894683D01*
X166364090Y-73678559D01*
X166151890Y-73533569D01*
X165900000Y-73482560D01*
X164300000Y-73482560D01*
X164064683Y-73526838D01*
X163848559Y-73665910D01*
X163703569Y-73878110D01*
X163652560Y-74130000D01*
X163652560Y-74772307D01*
X162089868Y-76335000D01*
X154532767Y-76335000D01*
X154247264Y-76144233D01*
X153698113Y-76035000D01*
X153641887Y-76035000D01*
X153092736Y-76144233D01*
X152627189Y-76455302D01*
X152316120Y-76920849D01*
X152206887Y-77470000D01*
X152316120Y-78019151D01*
X152535000Y-78346728D01*
X152535000Y-85225000D01*
X142757791Y-85225000D01*
X142712614Y-85194814D01*
X142698261Y-85191959D01*
X142712614Y-85189104D01*
X143113277Y-84921390D01*
X143380991Y-84520727D01*
X143475000Y-84048113D01*
X143475000Y-83591887D01*
X143380991Y-83119273D01*
X143375000Y-83110307D01*
X143375000Y-72674187D01*
X157314752Y-72674187D01*
X157532757Y-73201800D01*
X157936077Y-73605824D01*
X158463309Y-73824750D01*
X159034187Y-73825248D01*
X159561800Y-73607243D01*
X159965824Y-73203923D01*
X160184750Y-72676691D01*
X160185248Y-72105813D01*
X159967243Y-71578200D01*
X159563923Y-71174176D01*
X159036691Y-70955250D01*
X158465813Y-70954752D01*
X157938200Y-71172757D01*
X157534176Y-71576077D01*
X157315250Y-72103309D01*
X157314752Y-72674187D01*
X143375000Y-72674187D01*
X143375000Y-71469039D01*
X152278096Y-71469039D01*
X152438959Y-71857423D01*
X152814866Y-72272389D01*
X153320959Y-72511914D01*
X153543000Y-72390629D01*
X153543000Y-71247000D01*
X153797000Y-71247000D01*
X153797000Y-72390629D01*
X154019041Y-72511914D01*
X154525134Y-72272389D01*
X154901041Y-71857423D01*
X155061904Y-71469039D01*
X154939915Y-71247000D01*
X153797000Y-71247000D01*
X153543000Y-71247000D01*
X152400085Y-71247000D01*
X152278096Y-71469039D01*
X143375000Y-71469039D01*
X143375000Y-70770961D01*
X152278096Y-70770961D01*
X152400085Y-70993000D01*
X153543000Y-70993000D01*
X153543000Y-69849371D01*
X153797000Y-69849371D01*
X153797000Y-70993000D01*
X154939915Y-70993000D01*
X155061904Y-70770961D01*
X154901041Y-70382577D01*
X154525134Y-69967611D01*
X154019041Y-69728086D01*
X153797000Y-69849371D01*
X153543000Y-69849371D01*
X153320959Y-69728086D01*
X152814866Y-69967611D01*
X152438959Y-70382577D01*
X152278096Y-70770961D01*
X143375000Y-70770961D01*
X143375000Y-68551887D01*
X157315000Y-68551887D01*
X157315000Y-68608113D01*
X157424233Y-69157264D01*
X157735302Y-69622811D01*
X158200849Y-69933880D01*
X158750000Y-70043113D01*
X159299151Y-69933880D01*
X159764698Y-69622811D01*
X160075767Y-69157264D01*
X160134063Y-68864187D01*
X163664752Y-68864187D01*
X163882757Y-69391800D01*
X164286077Y-69795824D01*
X164813309Y-70014750D01*
X165384187Y-70015248D01*
X165911800Y-69797243D01*
X166157954Y-69551517D01*
X169388088Y-69551517D01*
X169456077Y-69792460D01*
X169975171Y-69977201D01*
X170525448Y-69949230D01*
X170903923Y-69792460D01*
X170971912Y-69551517D01*
X170180000Y-68759605D01*
X169388088Y-69551517D01*
X166157954Y-69551517D01*
X166315824Y-69393923D01*
X166534750Y-68866691D01*
X166535178Y-68375171D01*
X168782799Y-68375171D01*
X168810770Y-68925448D01*
X168967540Y-69303923D01*
X169208483Y-69371912D01*
X170000395Y-68580000D01*
X170359605Y-68580000D01*
X171151517Y-69371912D01*
X171392460Y-69303923D01*
X171577201Y-68784829D01*
X171549230Y-68234552D01*
X171392460Y-67856077D01*
X171151517Y-67788088D01*
X170359605Y-68580000D01*
X170000395Y-68580000D01*
X169208483Y-67788088D01*
X168967540Y-67856077D01*
X168782799Y-68375171D01*
X166535178Y-68375171D01*
X166535248Y-68295813D01*
X166317243Y-67768200D01*
X166157805Y-67608483D01*
X169388088Y-67608483D01*
X170180000Y-68400395D01*
X170971912Y-67608483D01*
X170903923Y-67367540D01*
X170384829Y-67182799D01*
X169834552Y-67210770D01*
X169456077Y-67367540D01*
X169388088Y-67608483D01*
X166157805Y-67608483D01*
X165913923Y-67364176D01*
X165386691Y-67145250D01*
X164815813Y-67144752D01*
X164288200Y-67362757D01*
X163884176Y-67766077D01*
X163665250Y-68293309D01*
X163664752Y-68864187D01*
X160134063Y-68864187D01*
X160185000Y-68608113D01*
X160185000Y-68551887D01*
X160075767Y-68002736D01*
X159764698Y-67537189D01*
X159299151Y-67226120D01*
X158750000Y-67116887D01*
X158200849Y-67226120D01*
X157735302Y-67537189D01*
X157424233Y-68002736D01*
X157315000Y-68551887D01*
X143375000Y-68551887D01*
X143375000Y-66040000D01*
X143288603Y-65605654D01*
X143042566Y-65237434D01*
X142924171Y-65119039D01*
X152278096Y-65119039D01*
X152438959Y-65507423D01*
X152814866Y-65922389D01*
X153320959Y-66161914D01*
X153543000Y-66040629D01*
X153543000Y-64897000D01*
X153797000Y-64897000D01*
X153797000Y-66040629D01*
X154019041Y-66161914D01*
X154525134Y-65922389D01*
X154901041Y-65507423D01*
X155061904Y-65119039D01*
X154939915Y-64897000D01*
X153797000Y-64897000D01*
X153543000Y-64897000D01*
X152400085Y-64897000D01*
X152278096Y-65119039D01*
X142924171Y-65119039D01*
X142226093Y-64420961D01*
X152278096Y-64420961D01*
X152400085Y-64643000D01*
X153543000Y-64643000D01*
X153543000Y-63499371D01*
X153797000Y-63499371D01*
X153797000Y-64643000D01*
X154939915Y-64643000D01*
X155061904Y-64420961D01*
X154901041Y-64032577D01*
X154525134Y-63617611D01*
X154019041Y-63378086D01*
X153797000Y-63499371D01*
X153543000Y-63499371D01*
X153320959Y-63378086D01*
X152814866Y-63617611D01*
X152438959Y-64032577D01*
X152278096Y-64420961D01*
X142226093Y-64420961D01*
X141772566Y-63967434D01*
X141755569Y-63956077D01*
X141404346Y-63721397D01*
X140970000Y-63635000D01*
X139324606Y-63635000D01*
X139243923Y-63554176D01*
X138716691Y-63335250D01*
X138145813Y-63334752D01*
X137618200Y-63552757D01*
X137535813Y-63635000D01*
X134173958Y-63635000D01*
X134135564Y-63596539D01*
X133626702Y-63385241D01*
X133075715Y-63384760D01*
X132566485Y-63595169D01*
X132176539Y-63984436D01*
X131965241Y-64493298D01*
X131964760Y-65044285D01*
X132175169Y-65553515D01*
X132564436Y-65943461D01*
X133073298Y-66154759D01*
X133624285Y-66155240D01*
X134133515Y-65944831D01*
X134173415Y-65905000D01*
X137535394Y-65905000D01*
X137616077Y-65985824D01*
X138143309Y-66204750D01*
X138714187Y-66205248D01*
X139241800Y-65987243D01*
X139324187Y-65905000D01*
X140499868Y-65905000D01*
X141105000Y-66510132D01*
X141105000Y-83110307D01*
X141099009Y-83119273D01*
X141005000Y-83591887D01*
X141005000Y-83837767D01*
X140970000Y-83830805D01*
X140497386Y-83924814D01*
X140452209Y-83955000D01*
X139565000Y-83955000D01*
X139565000Y-78364606D01*
X139645824Y-78283923D01*
X139864750Y-77756691D01*
X139865248Y-77185813D01*
X139647243Y-76658200D01*
X139565000Y-76575813D01*
X139565000Y-72014606D01*
X139645824Y-71933923D01*
X139864750Y-71406691D01*
X139865248Y-70835813D01*
X139647243Y-70308200D01*
X139243923Y-69904176D01*
X138716691Y-69685250D01*
X138145813Y-69684752D01*
X137618200Y-69902757D01*
X137214176Y-70306077D01*
X136995250Y-70833309D01*
X136994752Y-71404187D01*
X137212757Y-71931800D01*
X137295000Y-72014187D01*
X137295000Y-76575394D01*
X137214176Y-76656077D01*
X136995250Y-77183309D01*
X136994752Y-77754187D01*
X137212757Y-78281800D01*
X137295000Y-78364187D01*
X137295000Y-83955000D01*
X127000000Y-83955000D01*
X126565654Y-84041397D01*
X126339471Y-84192528D01*
X126197434Y-84287434D01*
X124927434Y-85557434D01*
X124681397Y-85925654D01*
X124595000Y-86360000D01*
X124595000Y-90545394D01*
X124514176Y-90626077D01*
X124295250Y-91153309D01*
X124294752Y-91724187D01*
X122031650Y-91724187D01*
X122034759Y-91716702D01*
X122035240Y-91165715D01*
X121824831Y-90656485D01*
X121435564Y-90266539D01*
X120926702Y-90055241D01*
X120375715Y-90054760D01*
X119866485Y-90265169D01*
X119476539Y-90654436D01*
X119265241Y-91163298D01*
X119264760Y-91714285D01*
X119475169Y-92223515D01*
X119515000Y-92263415D01*
X119515000Y-95385000D01*
X115803222Y-95385000D01*
X115803162Y-95384683D01*
X115664090Y-95168559D01*
X115451890Y-95023569D01*
X115200000Y-94972560D01*
X113400000Y-94972560D01*
X113164683Y-95016838D01*
X112948559Y-95155910D01*
X112803569Y-95368110D01*
X112752560Y-95620000D01*
X106910000Y-95620000D01*
X106910000Y-69551517D01*
X117318088Y-69551517D01*
X117386077Y-69792460D01*
X117905171Y-69977201D01*
X118455448Y-69949230D01*
X118833923Y-69792460D01*
X118901912Y-69551517D01*
X118110000Y-68759605D01*
X117318088Y-69551517D01*
X106910000Y-69551517D01*
X106910000Y-68375171D01*
X116712799Y-68375171D01*
X116740770Y-68925448D01*
X116897540Y-69303923D01*
X117138483Y-69371912D01*
X117930395Y-68580000D01*
X118289605Y-68580000D01*
X119081517Y-69371912D01*
X119322460Y-69303923D01*
X119478958Y-68864187D01*
X121754752Y-68864187D01*
X121972757Y-69391800D01*
X122376077Y-69795824D01*
X122903309Y-70014750D01*
X123474187Y-70015248D01*
X124001800Y-69797243D01*
X124084187Y-69715000D01*
X127393272Y-69715000D01*
X127720849Y-69933880D01*
X128092717Y-70007849D01*
X131277434Y-73192566D01*
X131645655Y-73438604D01*
X132080000Y-73525000D01*
X132455394Y-73525000D01*
X132536077Y-73605824D01*
X133063309Y-73824750D01*
X133634187Y-73825248D01*
X134161800Y-73607243D01*
X134565824Y-73203923D01*
X134784750Y-72676691D01*
X134785248Y-72105813D01*
X134567243Y-71578200D01*
X134163923Y-71174176D01*
X133636691Y-70955250D01*
X133065813Y-70954752D01*
X132538200Y-71172757D01*
X132503014Y-71207882D01*
X129669736Y-68374604D01*
X129595767Y-68002736D01*
X129284698Y-67537189D01*
X128819151Y-67226120D01*
X128270000Y-67116887D01*
X127720849Y-67226120D01*
X127393272Y-67445000D01*
X124084606Y-67445000D01*
X124003923Y-67364176D01*
X123476691Y-67145250D01*
X122905813Y-67144752D01*
X122378200Y-67362757D01*
X121974176Y-67766077D01*
X121755250Y-68293309D01*
X121754752Y-68864187D01*
X119478958Y-68864187D01*
X119507201Y-68784829D01*
X119479230Y-68234552D01*
X119322460Y-67856077D01*
X119081517Y-67788088D01*
X118289605Y-68580000D01*
X117930395Y-68580000D01*
X117138483Y-67788088D01*
X116897540Y-67856077D01*
X116712799Y-68375171D01*
X106910000Y-68375171D01*
X106910000Y-67608483D01*
X117318088Y-67608483D01*
X118110000Y-68400395D01*
X118901912Y-67608483D01*
X118833923Y-67367540D01*
X118314829Y-67182799D01*
X117764552Y-67210770D01*
X117386077Y-67367540D01*
X117318088Y-67608483D01*
X106910000Y-67608483D01*
X106910000Y-59974187D01*
X131914752Y-59974187D01*
X132132757Y-60501800D01*
X132536077Y-60905824D01*
X133063309Y-61124750D01*
X133634187Y-61125248D01*
X134161800Y-60907243D01*
X134244187Y-60825000D01*
X137160000Y-60825000D01*
X137594346Y-60738603D01*
X137962566Y-60492566D01*
X138599984Y-59855148D01*
X138714187Y-59855248D01*
X139241800Y-59637243D01*
X139645824Y-59233923D01*
X139838860Y-58769039D01*
X152278096Y-58769039D01*
X152438959Y-59157423D01*
X152814866Y-59572389D01*
X153320959Y-59811914D01*
X153543000Y-59690629D01*
X153543000Y-58547000D01*
X153797000Y-58547000D01*
X153797000Y-59690629D01*
X154019041Y-59811914D01*
X154525134Y-59572389D01*
X154901041Y-59157423D01*
X155061904Y-58769039D01*
X154939915Y-58547000D01*
X153797000Y-58547000D01*
X153543000Y-58547000D01*
X152400085Y-58547000D01*
X152278096Y-58769039D01*
X139838860Y-58769039D01*
X139864750Y-58706691D01*
X139865248Y-58135813D01*
X139647243Y-57608200D01*
X139243923Y-57204176D01*
X138716691Y-56985250D01*
X138145813Y-56984752D01*
X137618200Y-57202757D01*
X137214176Y-57606077D01*
X136995250Y-58133309D01*
X136995148Y-58249720D01*
X136689868Y-58555000D01*
X134244606Y-58555000D01*
X134163923Y-58474176D01*
X133636691Y-58255250D01*
X133065813Y-58254752D01*
X132538200Y-58472757D01*
X132134176Y-58876077D01*
X131915250Y-59403309D01*
X131914752Y-59974187D01*
X106910000Y-59974187D01*
X106910000Y-55765022D01*
X109504584Y-55765022D01*
X109725353Y-56135743D01*
X110697012Y-56529119D01*
X111745247Y-56520713D01*
X112674647Y-56135743D01*
X112895416Y-55765022D01*
X111200000Y-54069605D01*
X109504584Y-55765022D01*
X106910000Y-55765022D01*
X106910000Y-53387012D01*
X108560881Y-53387012D01*
X108569287Y-54435247D01*
X108954257Y-55364647D01*
X109324978Y-55585416D01*
X111020395Y-53890000D01*
X111379605Y-53890000D01*
X113075022Y-55585416D01*
X113445743Y-55364647D01*
X113839119Y-54392988D01*
X113832954Y-53624187D01*
X126834752Y-53624187D01*
X127052757Y-54151800D01*
X127456077Y-54555824D01*
X127983309Y-54774750D01*
X128554187Y-54775248D01*
X129081800Y-54557243D01*
X129164187Y-54475000D01*
X136926778Y-54475000D01*
X136926838Y-54475317D01*
X137065910Y-54691441D01*
X137278110Y-54836431D01*
X137530000Y-54887440D01*
X139330000Y-54887440D01*
X139565317Y-54843162D01*
X139781441Y-54704090D01*
X139835000Y-54625704D01*
X139835000Y-55880000D01*
X139921397Y-56314346D01*
X139943506Y-56347434D01*
X140167434Y-56682566D01*
X141437434Y-57952566D01*
X141805654Y-58198603D01*
X142240000Y-58285000D01*
X147320000Y-58285000D01*
X147754346Y-58198603D01*
X147945375Y-58070961D01*
X152278096Y-58070961D01*
X152400085Y-58293000D01*
X153543000Y-58293000D01*
X153543000Y-57149371D01*
X153797000Y-57149371D01*
X153797000Y-58293000D01*
X154939915Y-58293000D01*
X155061904Y-58070961D01*
X154901041Y-57682577D01*
X154525134Y-57267611D01*
X154019041Y-57028086D01*
X153797000Y-57149371D01*
X153543000Y-57149371D01*
X153320959Y-57028086D01*
X152814866Y-57267611D01*
X152438959Y-57682577D01*
X152278096Y-58070961D01*
X147945375Y-58070961D01*
X148122566Y-57952566D01*
X150310110Y-55765022D01*
X174504584Y-55765022D01*
X174725353Y-56135743D01*
X175697012Y-56529119D01*
X176745247Y-56520713D01*
X177674647Y-56135743D01*
X177895416Y-55765022D01*
X176200000Y-54069605D01*
X174504584Y-55765022D01*
X150310110Y-55765022D01*
X151600132Y-54475000D01*
X157855394Y-54475000D01*
X157936077Y-54555824D01*
X158463309Y-54774750D01*
X159034187Y-54775248D01*
X159561800Y-54557243D01*
X159965824Y-54153923D01*
X160184750Y-53626691D01*
X160184959Y-53387012D01*
X173560881Y-53387012D01*
X173569287Y-54435247D01*
X173954257Y-55364647D01*
X174324978Y-55585416D01*
X176020395Y-53890000D01*
X176379605Y-53890000D01*
X178075022Y-55585416D01*
X178445743Y-55364647D01*
X178839119Y-54392988D01*
X178830713Y-53344753D01*
X178445743Y-52415353D01*
X178075022Y-52194584D01*
X176379605Y-53890000D01*
X176020395Y-53890000D01*
X174324978Y-52194584D01*
X173954257Y-52415353D01*
X173560881Y-53387012D01*
X160184959Y-53387012D01*
X160185248Y-53055813D01*
X159967243Y-52528200D01*
X159563923Y-52124176D01*
X159300946Y-52014978D01*
X174504584Y-52014978D01*
X176200000Y-53710395D01*
X177895416Y-52014978D01*
X177674647Y-51644257D01*
X176702988Y-51250881D01*
X175654753Y-51259287D01*
X174725353Y-51644257D01*
X174504584Y-52014978D01*
X159300946Y-52014978D01*
X159036691Y-51905250D01*
X158465813Y-51904752D01*
X157938200Y-52122757D01*
X157855813Y-52205000D01*
X151130000Y-52205000D01*
X150695655Y-52291396D01*
X150327434Y-52537434D01*
X146849868Y-56015000D01*
X142710132Y-56015000D01*
X142105000Y-55409868D01*
X142105000Y-54420159D01*
X142609446Y-54420159D01*
X142695852Y-54676643D01*
X143269336Y-54886458D01*
X143879460Y-54860839D01*
X144324148Y-54676643D01*
X144410554Y-54420159D01*
X143510000Y-53519605D01*
X142609446Y-54420159D01*
X142105000Y-54420159D01*
X142105000Y-54375905D01*
X142270551Y-54210643D01*
X142279203Y-54189806D01*
X142429841Y-54240554D01*
X143330395Y-53340000D01*
X143689605Y-53340000D01*
X144590159Y-54240554D01*
X144846643Y-54154148D01*
X145056458Y-53580664D01*
X145030839Y-52970540D01*
X144846643Y-52525852D01*
X144590159Y-52439446D01*
X143689605Y-53340000D01*
X143330395Y-53340000D01*
X142429841Y-52439446D01*
X142279673Y-52490035D01*
X142272068Y-52471629D01*
X142060650Y-52259841D01*
X142609446Y-52259841D01*
X143510000Y-53160395D01*
X144410554Y-52259841D01*
X144324148Y-52003357D01*
X143750664Y-51793542D01*
X143140540Y-51819161D01*
X142695852Y-52003357D01*
X142609446Y-52259841D01*
X142060650Y-52259841D01*
X141840643Y-52039449D01*
X141276670Y-51805267D01*
X140666009Y-51804735D01*
X140101629Y-52037932D01*
X139933387Y-52205880D01*
X139933162Y-52204683D01*
X139794090Y-51988559D01*
X139581890Y-51843569D01*
X139330000Y-51792560D01*
X137530000Y-51792560D01*
X137294683Y-51836838D01*
X137078559Y-51975910D01*
X136933569Y-52188110D01*
X136930149Y-52205000D01*
X129164606Y-52205000D01*
X129083923Y-52124176D01*
X128556691Y-51905250D01*
X127985813Y-51904752D01*
X127458200Y-52122757D01*
X127054176Y-52526077D01*
X126835250Y-53053309D01*
X126834752Y-53624187D01*
X113832954Y-53624187D01*
X113830713Y-53344753D01*
X113445743Y-52415353D01*
X113075022Y-52194584D01*
X111379605Y-53890000D01*
X111020395Y-53890000D01*
X109324978Y-52194584D01*
X108954257Y-52415353D01*
X108560881Y-53387012D01*
X106910000Y-53387012D01*
X106910000Y-52014978D01*
X109504584Y-52014978D01*
X111200000Y-53710395D01*
X112895416Y-52014978D01*
X112674647Y-51644257D01*
X111702988Y-51250881D01*
X110654753Y-51259287D01*
X109725353Y-51644257D01*
X109504584Y-52014978D01*
X106910000Y-52014978D01*
X106910000Y-49600000D01*
X180490000Y-49600000D01*
X180490000Y-123180000D01*
X180490000Y-123180000D01*
G37*
X180490000Y-123180000D02*
X106910000Y-123180000D01*
X106910000Y-120765022D01*
X109504584Y-120765022D01*
X109725353Y-121135743D01*
X110697012Y-121529119D01*
X111745247Y-121520713D01*
X112674647Y-121135743D01*
X112895416Y-120765022D01*
X111200000Y-119069605D01*
X109504584Y-120765022D01*
X106910000Y-120765022D01*
X106910000Y-118387012D01*
X108560881Y-118387012D01*
X108569287Y-119435247D01*
X108954257Y-120364647D01*
X109324978Y-120585416D01*
X111020395Y-118890000D01*
X111379605Y-118890000D01*
X113075022Y-120585416D01*
X113445743Y-120364647D01*
X113703068Y-119729039D01*
X137038096Y-119729039D01*
X137198959Y-120117423D01*
X137574866Y-120532389D01*
X138080959Y-120771914D01*
X138303000Y-120650629D01*
X138303000Y-119507000D01*
X138557000Y-119507000D01*
X138557000Y-120650629D01*
X138779041Y-120771914D01*
X139285134Y-120532389D01*
X139661041Y-120117423D01*
X139821904Y-119729039D01*
X139786275Y-119664187D01*
X152234752Y-119664187D01*
X152452757Y-120191800D01*
X152856077Y-120595824D01*
X153383309Y-120814750D01*
X153954187Y-120815248D01*
X154481800Y-120597243D01*
X154564187Y-120515000D01*
X157926042Y-120515000D01*
X157964436Y-120553461D01*
X158473298Y-120764759D01*
X159024285Y-120765240D01*
X159024812Y-120765022D01*
X174504584Y-120765022D01*
X174725353Y-121135743D01*
X175697012Y-121529119D01*
X176745247Y-121520713D01*
X177674647Y-121135743D01*
X177895416Y-120765022D01*
X176200000Y-119069605D01*
X174504584Y-120765022D01*
X159024812Y-120765022D01*
X159533515Y-120554831D01*
X159923461Y-120165564D01*
X160134759Y-119656702D01*
X160135240Y-119105715D01*
X159924831Y-118596485D01*
X159715723Y-118387012D01*
X173560881Y-118387012D01*
X173569287Y-119435247D01*
X173954257Y-120364647D01*
X174324978Y-120585416D01*
X176020395Y-118890000D01*
X176379605Y-118890000D01*
X178075022Y-120585416D01*
X178445743Y-120364647D01*
X178839119Y-119392988D01*
X178830713Y-118344753D01*
X178445743Y-117415353D01*
X178075022Y-117194584D01*
X176379605Y-118890000D01*
X176020395Y-118890000D01*
X174324978Y-117194584D01*
X173954257Y-117415353D01*
X173560881Y-118387012D01*
X159715723Y-118387012D01*
X159535564Y-118206539D01*
X159026702Y-117995241D01*
X158475715Y-117994760D01*
X157966485Y-118205169D01*
X157926585Y-118245000D01*
X154564606Y-118245000D01*
X154483923Y-118164176D01*
X153956691Y-117945250D01*
X153385813Y-117944752D01*
X152858200Y-118162757D01*
X152454176Y-118566077D01*
X152235250Y-119093309D01*
X152234752Y-119664187D01*
X139786275Y-119664187D01*
X139699915Y-119507000D01*
X138557000Y-119507000D01*
X138303000Y-119507000D01*
X137160085Y-119507000D01*
X137038096Y-119729039D01*
X113703068Y-119729039D01*
X113839119Y-119392988D01*
X113836216Y-119030961D01*
X137038096Y-119030961D01*
X137160085Y-119253000D01*
X138303000Y-119253000D01*
X138303000Y-118109371D01*
X138557000Y-118109371D01*
X138557000Y-119253000D01*
X139699915Y-119253000D01*
X139821904Y-119030961D01*
X139661041Y-118642577D01*
X139285134Y-118227611D01*
X138779041Y-117988086D01*
X138557000Y-118109371D01*
X138303000Y-118109371D01*
X138080959Y-117988086D01*
X137574866Y-118227611D01*
X137198959Y-118642577D01*
X137038096Y-119030961D01*
X113836216Y-119030961D01*
X113830713Y-118344753D01*
X113445743Y-117415353D01*
X113075022Y-117194584D01*
X111379605Y-118890000D01*
X111020395Y-118890000D01*
X109324978Y-117194584D01*
X108954257Y-117415353D01*
X108560881Y-118387012D01*
X106910000Y-118387012D01*
X106910000Y-117014978D01*
X109504584Y-117014978D01*
X111200000Y-118710395D01*
X112895416Y-117014978D01*
X174504584Y-117014978D01*
X176200000Y-118710395D01*
X177895416Y-117014978D01*
X177674647Y-116644257D01*
X176702988Y-116250881D01*
X175654753Y-116259287D01*
X174725353Y-116644257D01*
X174504584Y-117014978D01*
X112895416Y-117014978D01*
X112674647Y-116644257D01*
X111702988Y-116250881D01*
X110654753Y-116259287D01*
X109725353Y-116644257D01*
X109504584Y-117014978D01*
X106910000Y-117014978D01*
X106910000Y-113379039D01*
X137038096Y-113379039D01*
X137198959Y-113767423D01*
X137574866Y-114182389D01*
X138080959Y-114421914D01*
X138303000Y-114300629D01*
X138303000Y-113157000D01*
X138557000Y-113157000D01*
X138557000Y-114300629D01*
X138779041Y-114421914D01*
X139285134Y-114182389D01*
X139661041Y-113767423D01*
X139821904Y-113379039D01*
X139699915Y-113157000D01*
X138557000Y-113157000D01*
X138303000Y-113157000D01*
X137160085Y-113157000D01*
X137038096Y-113379039D01*
X106910000Y-113379039D01*
X106910000Y-112680961D01*
X137038096Y-112680961D01*
X137160085Y-112903000D01*
X138303000Y-112903000D01*
X138303000Y-111759371D01*
X138557000Y-111759371D01*
X138557000Y-112903000D01*
X139699915Y-112903000D01*
X139821904Y-112680961D01*
X139661041Y-112292577D01*
X139285134Y-111877611D01*
X138779041Y-111638086D01*
X138557000Y-111759371D01*
X138303000Y-111759371D01*
X138080959Y-111638086D01*
X137574866Y-111877611D01*
X137198959Y-112292577D01*
X137038096Y-112680961D01*
X106910000Y-112680961D01*
X106910000Y-107029039D01*
X137038096Y-107029039D01*
X137198959Y-107417423D01*
X137574866Y-107832389D01*
X138080959Y-108071914D01*
X138303000Y-107950629D01*
X138303000Y-106807000D01*
X138557000Y-106807000D01*
X138557000Y-107950629D01*
X138779041Y-108071914D01*
X139285134Y-107832389D01*
X139661041Y-107417423D01*
X139821904Y-107029039D01*
X139699915Y-106807000D01*
X138557000Y-106807000D01*
X138303000Y-106807000D01*
X137160085Y-106807000D01*
X137038096Y-107029039D01*
X106910000Y-107029039D01*
X106910000Y-106330961D01*
X137038096Y-106330961D01*
X137160085Y-106553000D01*
X138303000Y-106553000D01*
X138303000Y-105409371D01*
X138557000Y-105409371D01*
X138557000Y-106553000D01*
X139699915Y-106553000D01*
X139821904Y-106330961D01*
X139661041Y-105942577D01*
X139285134Y-105527611D01*
X138779041Y-105288086D01*
X138557000Y-105409371D01*
X138303000Y-105409371D01*
X138080959Y-105288086D01*
X137574866Y-105527611D01*
X137198959Y-105942577D01*
X137038096Y-106330961D01*
X106910000Y-106330961D01*
X106910000Y-100140159D01*
X113399446Y-100140159D01*
X113485852Y-100396643D01*
X114059336Y-100606458D01*
X114669460Y-100580839D01*
X115114148Y-100396643D01*
X115200554Y-100140159D01*
X114300000Y-99239605D01*
X113399446Y-100140159D01*
X106910000Y-100140159D01*
X106910000Y-95620000D01*
X112752560Y-95620000D01*
X112752560Y-97420000D01*
X112796838Y-97655317D01*
X112935910Y-97871441D01*
X113139574Y-98010598D01*
X113105282Y-98044890D01*
X113219839Y-98159447D01*
X112963357Y-98245852D01*
X112753542Y-98819336D01*
X112779161Y-99429460D01*
X112963357Y-99874148D01*
X113219841Y-99960554D01*
X114120395Y-99060000D01*
X114106253Y-99045858D01*
X114285858Y-98866253D01*
X114300000Y-98880395D01*
X114314143Y-98866253D01*
X114493748Y-99045858D01*
X114479605Y-99060000D01*
X115380159Y-99960554D01*
X115636643Y-99874148D01*
X115846458Y-99300664D01*
X115820839Y-98690540D01*
X115636643Y-98245852D01*
X115380161Y-98159447D01*
X115494718Y-98044890D01*
X115458240Y-98008412D01*
X115651441Y-97884090D01*
X115796431Y-97671890D01*
X115799851Y-97655000D01*
X119515000Y-97655000D01*
X119515000Y-103316042D01*
X119476539Y-103354436D01*
X119265241Y-103863298D01*
X119264760Y-104414285D01*
X119475169Y-104923515D01*
X119864436Y-105313461D01*
X120373298Y-105524759D01*
X120924285Y-105525240D01*
X121433515Y-105314831D01*
X121823461Y-104925564D01*
X122031650Y-104424187D01*
X124294752Y-104424187D01*
X124512757Y-104951800D01*
X124916077Y-105355824D01*
X125443309Y-105574750D01*
X126014187Y-105575248D01*
X126541800Y-105357243D01*
X126624187Y-105275000D01*
X132010982Y-105275000D01*
X132085910Y-105391441D01*
X132298110Y-105536431D01*
X132550000Y-105587440D01*
X134150000Y-105587440D01*
X134385317Y-105543162D01*
X134601441Y-105404090D01*
X134700599Y-105258968D01*
X135054346Y-105188603D01*
X135422566Y-104942566D01*
X138599984Y-101765148D01*
X138714187Y-101765248D01*
X139241800Y-101547243D01*
X139645824Y-101143923D01*
X139864750Y-100616691D01*
X139864852Y-100500281D01*
X147790133Y-92575000D01*
X149342209Y-92575000D01*
X149387386Y-92605186D01*
X149401739Y-92608041D01*
X149387386Y-92610896D01*
X148986723Y-92878610D01*
X148719009Y-93279273D01*
X148625000Y-93751887D01*
X148625000Y-94208113D01*
X148719009Y-94680727D01*
X148725000Y-94689693D01*
X148725000Y-111760000D01*
X148811397Y-112194346D01*
X148827336Y-112218200D01*
X149057434Y-112562566D01*
X150327434Y-113832566D01*
X150695654Y-114078603D01*
X151130000Y-114165000D01*
X152775394Y-114165000D01*
X152856077Y-114245824D01*
X153383309Y-114464750D01*
X153954187Y-114465248D01*
X154481800Y-114247243D01*
X154564187Y-114165000D01*
X157009868Y-114165000D01*
X157314852Y-114469984D01*
X157314752Y-114584187D01*
X157532757Y-115111800D01*
X157936077Y-115515824D01*
X158463309Y-115734750D01*
X159034187Y-115735248D01*
X159561800Y-115517243D01*
X159965824Y-115113923D01*
X160184750Y-114586691D01*
X160185248Y-114015813D01*
X159967243Y-113488200D01*
X159563923Y-113084176D01*
X159036691Y-112865250D01*
X158920280Y-112865148D01*
X158282566Y-112227434D01*
X158233045Y-112194345D01*
X157914346Y-111981397D01*
X157480000Y-111895000D01*
X154564606Y-111895000D01*
X154483923Y-111814176D01*
X153956691Y-111595250D01*
X153385813Y-111594752D01*
X152858200Y-111812757D01*
X152775813Y-111895000D01*
X151600132Y-111895000D01*
X150995000Y-111289868D01*
X150995000Y-94689693D01*
X151000991Y-94680727D01*
X151095000Y-94208113D01*
X151095000Y-93962233D01*
X151130000Y-93969195D01*
X151602614Y-93875186D01*
X151647791Y-93845000D01*
X151929868Y-93845000D01*
X152535000Y-94450132D01*
X152535000Y-99453272D01*
X152316120Y-99780849D01*
X152206887Y-100330000D01*
X152316120Y-100879151D01*
X152535000Y-101206728D01*
X152535000Y-105785394D01*
X152454176Y-105866077D01*
X152235250Y-106393309D01*
X152234752Y-106964187D01*
X152452757Y-107491800D01*
X152856077Y-107895824D01*
X153383309Y-108114750D01*
X153954187Y-108115248D01*
X154481800Y-107897243D01*
X154885824Y-107493923D01*
X155104750Y-106966691D01*
X155105248Y-106395813D01*
X154887243Y-105868200D01*
X154805000Y-105785813D01*
X154805000Y-105275000D01*
X159196042Y-105275000D01*
X159234436Y-105313461D01*
X159743298Y-105524759D01*
X160294285Y-105525240D01*
X160803515Y-105314831D01*
X161193461Y-104925564D01*
X161404759Y-104416702D01*
X161405240Y-103865715D01*
X161194831Y-103356485D01*
X160805564Y-102966539D01*
X160296702Y-102755241D01*
X159745715Y-102754760D01*
X159236485Y-102965169D01*
X159196585Y-103005000D01*
X154805000Y-103005000D01*
X154805000Y-101206728D01*
X155023880Y-100879151D01*
X155133113Y-100330000D01*
X155023880Y-99780849D01*
X154805000Y-99453272D01*
X154805000Y-93980000D01*
X154718603Y-93545654D01*
X154472566Y-93177434D01*
X153202566Y-91907434D01*
X152932065Y-91726691D01*
X152834346Y-91661397D01*
X152400000Y-91575000D01*
X151647791Y-91575000D01*
X151602614Y-91544814D01*
X151130000Y-91450805D01*
X151095000Y-91457767D01*
X151095000Y-91415805D01*
X151000991Y-90943191D01*
X150733277Y-90542528D01*
X150332614Y-90274814D01*
X149860000Y-90180805D01*
X149387386Y-90274814D01*
X149342209Y-90305000D01*
X147320000Y-90305000D01*
X146885655Y-90391396D01*
X146517434Y-90637433D01*
X138260016Y-98894852D01*
X138145813Y-98894752D01*
X137618200Y-99112757D01*
X137214176Y-99516077D01*
X136995250Y-100043309D01*
X136995148Y-100159720D01*
X134407480Y-102747388D01*
X134401890Y-102743569D01*
X134150000Y-102692560D01*
X132550000Y-102692560D01*
X132314683Y-102736838D01*
X132098559Y-102875910D01*
X132010356Y-103005000D01*
X126624606Y-103005000D01*
X126543923Y-102924176D01*
X126016691Y-102705250D01*
X125445813Y-102704752D01*
X124918200Y-102922757D01*
X124514176Y-103326077D01*
X124295250Y-103853309D01*
X124294752Y-104424187D01*
X122031650Y-104424187D01*
X122034759Y-104416702D01*
X122035240Y-103865715D01*
X121824831Y-103356485D01*
X121785000Y-103316585D01*
X121785000Y-92263958D01*
X121823461Y-92225564D01*
X122031650Y-91724187D01*
X124294752Y-91724187D01*
X124512757Y-92251800D01*
X124916077Y-92655824D01*
X125443309Y-92874750D01*
X126014187Y-92875248D01*
X126541800Y-92657243D01*
X126945824Y-92253923D01*
X127164750Y-91726691D01*
X127165024Y-91411887D01*
X131915000Y-91411887D01*
X131915000Y-91468113D01*
X132024233Y-92017264D01*
X132335302Y-92482811D01*
X132800849Y-92793880D01*
X133350000Y-92903113D01*
X133899151Y-92793880D01*
X134364698Y-92482811D01*
X134675767Y-92017264D01*
X134785000Y-91468113D01*
X134785000Y-91411887D01*
X134675767Y-90862736D01*
X134364698Y-90397189D01*
X133899151Y-90086120D01*
X133350000Y-89976887D01*
X132800849Y-90086120D01*
X132335302Y-90397189D01*
X132024233Y-90862736D01*
X131915000Y-91411887D01*
X127165024Y-91411887D01*
X127165248Y-91155813D01*
X126947243Y-90628200D01*
X126865000Y-90545813D01*
X126865000Y-86830132D01*
X127470132Y-86225000D01*
X133057846Y-86225000D01*
X132800849Y-86276120D01*
X132335302Y-86587189D01*
X132024233Y-87052736D01*
X131915000Y-87601887D01*
X131915000Y-87658113D01*
X132024233Y-88207264D01*
X132335302Y-88672811D01*
X132800849Y-88983880D01*
X133350000Y-89093113D01*
X133899151Y-88983880D01*
X134364698Y-88672811D01*
X134675767Y-88207264D01*
X134785000Y-87658113D01*
X134785000Y-87601887D01*
X134675767Y-87052736D01*
X134364698Y-86587189D01*
X133899151Y-86276120D01*
X133642154Y-86225000D01*
X140452209Y-86225000D01*
X140497386Y-86255186D01*
X140970000Y-86349195D01*
X141005000Y-86342233D01*
X141005000Y-86384195D01*
X141099009Y-86856809D01*
X141366723Y-87257472D01*
X141767386Y-87525186D01*
X142240000Y-87619195D01*
X142712614Y-87525186D01*
X142757791Y-87495000D01*
X152535000Y-87495000D01*
X152535000Y-88900000D01*
X152621397Y-89334346D01*
X152867434Y-89702566D01*
X156677434Y-93512566D01*
X157045655Y-93758604D01*
X157480000Y-93845000D01*
X159196042Y-93845000D01*
X159234436Y-93883461D01*
X159743298Y-94094759D01*
X160294285Y-94095240D01*
X160803515Y-93884831D01*
X161193461Y-93495564D01*
X161401650Y-92994187D01*
X163664752Y-92994187D01*
X163882757Y-93521800D01*
X163965000Y-93604187D01*
X163965000Y-103245394D01*
X163884176Y-103326077D01*
X163665250Y-103853309D01*
X163664752Y-104424187D01*
X163882757Y-104951800D01*
X164286077Y-105355824D01*
X164813309Y-105574750D01*
X165384187Y-105575248D01*
X165911800Y-105357243D01*
X166315824Y-104953923D01*
X166534750Y-104426691D01*
X166535248Y-103855813D01*
X166317243Y-103328200D01*
X166235000Y-103245813D01*
X166235000Y-101410159D01*
X171819446Y-101410159D01*
X171905852Y-101666643D01*
X172479336Y-101876458D01*
X173089460Y-101850839D01*
X173534148Y-101666643D01*
X173620554Y-101410159D01*
X172720000Y-100509605D01*
X171819446Y-101410159D01*
X166235000Y-101410159D01*
X166235000Y-98925000D01*
X171216778Y-98925000D01*
X171216838Y-98925317D01*
X171355910Y-99141441D01*
X171559574Y-99280598D01*
X171525282Y-99314890D01*
X171639839Y-99429447D01*
X171383357Y-99515852D01*
X171173542Y-100089336D01*
X171199161Y-100699460D01*
X171383357Y-101144148D01*
X171639841Y-101230554D01*
X172540395Y-100330000D01*
X172526253Y-100315858D01*
X172705858Y-100136253D01*
X172720000Y-100150395D01*
X172734143Y-100136253D01*
X172913748Y-100315858D01*
X172899605Y-100330000D01*
X173800159Y-101230554D01*
X174056643Y-101144148D01*
X174266458Y-100570664D01*
X174240839Y-99960540D01*
X174056643Y-99515852D01*
X173800161Y-99429447D01*
X173914718Y-99314890D01*
X173878240Y-99278412D01*
X174071441Y-99154090D01*
X174216431Y-98941890D01*
X174267440Y-98690000D01*
X174267440Y-96890000D01*
X174223162Y-96654683D01*
X174084090Y-96438559D01*
X173871890Y-96293569D01*
X173620000Y-96242560D01*
X171820000Y-96242560D01*
X171584683Y-96286838D01*
X171368559Y-96425910D01*
X171223569Y-96638110D01*
X171220149Y-96655000D01*
X166235000Y-96655000D01*
X166235000Y-93604606D01*
X166315824Y-93523923D01*
X166534750Y-92996691D01*
X166535248Y-92425813D01*
X166317243Y-91898200D01*
X165913923Y-91494176D01*
X165386691Y-91275250D01*
X164815813Y-91274752D01*
X164288200Y-91492757D01*
X163884176Y-91896077D01*
X163665250Y-92423309D01*
X163664752Y-92994187D01*
X161401650Y-92994187D01*
X161404759Y-92986702D01*
X161405240Y-92435715D01*
X161194831Y-91926485D01*
X160805564Y-91536539D01*
X160296702Y-91325241D01*
X159745715Y-91324760D01*
X159236485Y-91535169D01*
X159196585Y-91575000D01*
X157950132Y-91575000D01*
X154805000Y-88429868D01*
X154805000Y-87601887D01*
X157315000Y-87601887D01*
X157315000Y-87658113D01*
X157424233Y-88207264D01*
X157735302Y-88672811D01*
X158200849Y-88983880D01*
X158750000Y-89093113D01*
X159299151Y-88983880D01*
X159626728Y-88765000D01*
X164223272Y-88765000D01*
X164550849Y-88983880D01*
X165100000Y-89093113D01*
X165649151Y-88983880D01*
X166114698Y-88672811D01*
X166425767Y-88207264D01*
X166535000Y-87658113D01*
X166535000Y-87601887D01*
X166425767Y-87052736D01*
X166114698Y-86587189D01*
X165649151Y-86276120D01*
X165100000Y-86166887D01*
X164550849Y-86276120D01*
X164223272Y-86495000D01*
X159626728Y-86495000D01*
X159299151Y-86276120D01*
X158750000Y-86166887D01*
X158200849Y-86276120D01*
X157735302Y-86587189D01*
X157424233Y-87052736D01*
X157315000Y-87601887D01*
X154805000Y-87601887D01*
X154805000Y-78605000D01*
X162560000Y-78605000D01*
X162994346Y-78518603D01*
X163362566Y-78272566D01*
X165257693Y-76377440D01*
X165900000Y-76377440D01*
X166135317Y-76333162D01*
X166351441Y-76194090D01*
X166496431Y-75981890D01*
X166547440Y-75730000D01*
X166547440Y-74130000D01*
X166503162Y-73894683D01*
X166364090Y-73678559D01*
X166151890Y-73533569D01*
X165900000Y-73482560D01*
X164300000Y-73482560D01*
X164064683Y-73526838D01*
X163848559Y-73665910D01*
X163703569Y-73878110D01*
X163652560Y-74130000D01*
X163652560Y-74772307D01*
X162089868Y-76335000D01*
X154532767Y-76335000D01*
X154247264Y-76144233D01*
X153698113Y-76035000D01*
X153641887Y-76035000D01*
X153092736Y-76144233D01*
X152627189Y-76455302D01*
X152316120Y-76920849D01*
X152206887Y-77470000D01*
X152316120Y-78019151D01*
X152535000Y-78346728D01*
X152535000Y-85225000D01*
X142757791Y-85225000D01*
X142712614Y-85194814D01*
X142698261Y-85191959D01*
X142712614Y-85189104D01*
X143113277Y-84921390D01*
X143380991Y-84520727D01*
X143475000Y-84048113D01*
X143475000Y-83591887D01*
X143380991Y-83119273D01*
X143375000Y-83110307D01*
X143375000Y-72674187D01*
X157314752Y-72674187D01*
X157532757Y-73201800D01*
X157936077Y-73605824D01*
X158463309Y-73824750D01*
X159034187Y-73825248D01*
X159561800Y-73607243D01*
X159965824Y-73203923D01*
X160184750Y-72676691D01*
X160185248Y-72105813D01*
X159967243Y-71578200D01*
X159563923Y-71174176D01*
X159036691Y-70955250D01*
X158465813Y-70954752D01*
X157938200Y-71172757D01*
X157534176Y-71576077D01*
X157315250Y-72103309D01*
X157314752Y-72674187D01*
X143375000Y-72674187D01*
X143375000Y-71469039D01*
X152278096Y-71469039D01*
X152438959Y-71857423D01*
X152814866Y-72272389D01*
X153320959Y-72511914D01*
X153543000Y-72390629D01*
X153543000Y-71247000D01*
X153797000Y-71247000D01*
X153797000Y-72390629D01*
X154019041Y-72511914D01*
X154525134Y-72272389D01*
X154901041Y-71857423D01*
X155061904Y-71469039D01*
X154939915Y-71247000D01*
X153797000Y-71247000D01*
X153543000Y-71247000D01*
X152400085Y-71247000D01*
X152278096Y-71469039D01*
X143375000Y-71469039D01*
X143375000Y-70770961D01*
X152278096Y-70770961D01*
X152400085Y-70993000D01*
X153543000Y-70993000D01*
X153543000Y-69849371D01*
X153797000Y-69849371D01*
X153797000Y-70993000D01*
X154939915Y-70993000D01*
X155061904Y-70770961D01*
X154901041Y-70382577D01*
X154525134Y-69967611D01*
X154019041Y-69728086D01*
X153797000Y-69849371D01*
X153543000Y-69849371D01*
X153320959Y-69728086D01*
X152814866Y-69967611D01*
X152438959Y-70382577D01*
X152278096Y-70770961D01*
X143375000Y-70770961D01*
X143375000Y-68551887D01*
X157315000Y-68551887D01*
X157315000Y-68608113D01*
X157424233Y-69157264D01*
X157735302Y-69622811D01*
X158200849Y-69933880D01*
X158750000Y-70043113D01*
X159299151Y-69933880D01*
X159764698Y-69622811D01*
X160075767Y-69157264D01*
X160134063Y-68864187D01*
X163664752Y-68864187D01*
X163882757Y-69391800D01*
X164286077Y-69795824D01*
X164813309Y-70014750D01*
X165384187Y-70015248D01*
X165911800Y-69797243D01*
X166157954Y-69551517D01*
X169388088Y-69551517D01*
X169456077Y-69792460D01*
X169975171Y-69977201D01*
X170525448Y-69949230D01*
X170903923Y-69792460D01*
X170971912Y-69551517D01*
X170180000Y-68759605D01*
X169388088Y-69551517D01*
X166157954Y-69551517D01*
X166315824Y-69393923D01*
X166534750Y-68866691D01*
X166535178Y-68375171D01*
X168782799Y-68375171D01*
X168810770Y-68925448D01*
X168967540Y-69303923D01*
X169208483Y-69371912D01*
X170000395Y-68580000D01*
X170359605Y-68580000D01*
X171151517Y-69371912D01*
X171392460Y-69303923D01*
X171577201Y-68784829D01*
X171549230Y-68234552D01*
X171392460Y-67856077D01*
X171151517Y-67788088D01*
X170359605Y-68580000D01*
X170000395Y-68580000D01*
X169208483Y-67788088D01*
X168967540Y-67856077D01*
X168782799Y-68375171D01*
X166535178Y-68375171D01*
X166535248Y-68295813D01*
X166317243Y-67768200D01*
X166157805Y-67608483D01*
X169388088Y-67608483D01*
X170180000Y-68400395D01*
X170971912Y-67608483D01*
X170903923Y-67367540D01*
X170384829Y-67182799D01*
X169834552Y-67210770D01*
X169456077Y-67367540D01*
X169388088Y-67608483D01*
X166157805Y-67608483D01*
X165913923Y-67364176D01*
X165386691Y-67145250D01*
X164815813Y-67144752D01*
X164288200Y-67362757D01*
X163884176Y-67766077D01*
X163665250Y-68293309D01*
X163664752Y-68864187D01*
X160134063Y-68864187D01*
X160185000Y-68608113D01*
X160185000Y-68551887D01*
X160075767Y-68002736D01*
X159764698Y-67537189D01*
X159299151Y-67226120D01*
X158750000Y-67116887D01*
X158200849Y-67226120D01*
X157735302Y-67537189D01*
X157424233Y-68002736D01*
X157315000Y-68551887D01*
X143375000Y-68551887D01*
X143375000Y-66040000D01*
X143288603Y-65605654D01*
X143042566Y-65237434D01*
X142924171Y-65119039D01*
X152278096Y-65119039D01*
X152438959Y-65507423D01*
X152814866Y-65922389D01*
X153320959Y-66161914D01*
X153543000Y-66040629D01*
X153543000Y-64897000D01*
X153797000Y-64897000D01*
X153797000Y-66040629D01*
X154019041Y-66161914D01*
X154525134Y-65922389D01*
X154901041Y-65507423D01*
X155061904Y-65119039D01*
X154939915Y-64897000D01*
X153797000Y-64897000D01*
X153543000Y-64897000D01*
X152400085Y-64897000D01*
X152278096Y-65119039D01*
X142924171Y-65119039D01*
X142226093Y-64420961D01*
X152278096Y-64420961D01*
X152400085Y-64643000D01*
X153543000Y-64643000D01*
X153543000Y-63499371D01*
X153797000Y-63499371D01*
X153797000Y-64643000D01*
X154939915Y-64643000D01*
X155061904Y-64420961D01*
X154901041Y-64032577D01*
X154525134Y-63617611D01*
X154019041Y-63378086D01*
X153797000Y-63499371D01*
X153543000Y-63499371D01*
X153320959Y-63378086D01*
X152814866Y-63617611D01*
X152438959Y-64032577D01*
X152278096Y-64420961D01*
X142226093Y-64420961D01*
X141772566Y-63967434D01*
X141755569Y-63956077D01*
X141404346Y-63721397D01*
X140970000Y-63635000D01*
X139324606Y-63635000D01*
X139243923Y-63554176D01*
X138716691Y-63335250D01*
X138145813Y-63334752D01*
X137618200Y-63552757D01*
X137535813Y-63635000D01*
X134173958Y-63635000D01*
X134135564Y-63596539D01*
X133626702Y-63385241D01*
X133075715Y-63384760D01*
X132566485Y-63595169D01*
X132176539Y-63984436D01*
X131965241Y-64493298D01*
X131964760Y-65044285D01*
X132175169Y-65553515D01*
X132564436Y-65943461D01*
X133073298Y-66154759D01*
X133624285Y-66155240D01*
X134133515Y-65944831D01*
X134173415Y-65905000D01*
X137535394Y-65905000D01*
X137616077Y-65985824D01*
X138143309Y-66204750D01*
X138714187Y-66205248D01*
X139241800Y-65987243D01*
X139324187Y-65905000D01*
X140499868Y-65905000D01*
X141105000Y-66510132D01*
X141105000Y-83110307D01*
X141099009Y-83119273D01*
X141005000Y-83591887D01*
X141005000Y-83837767D01*
X140970000Y-83830805D01*
X140497386Y-83924814D01*
X140452209Y-83955000D01*
X139565000Y-83955000D01*
X139565000Y-78364606D01*
X139645824Y-78283923D01*
X139864750Y-77756691D01*
X139865248Y-77185813D01*
X139647243Y-76658200D01*
X139565000Y-76575813D01*
X139565000Y-72014606D01*
X139645824Y-71933923D01*
X139864750Y-71406691D01*
X139865248Y-70835813D01*
X139647243Y-70308200D01*
X139243923Y-69904176D01*
X138716691Y-69685250D01*
X138145813Y-69684752D01*
X137618200Y-69902757D01*
X137214176Y-70306077D01*
X136995250Y-70833309D01*
X136994752Y-71404187D01*
X137212757Y-71931800D01*
X137295000Y-72014187D01*
X137295000Y-76575394D01*
X137214176Y-76656077D01*
X136995250Y-77183309D01*
X136994752Y-77754187D01*
X137212757Y-78281800D01*
X137295000Y-78364187D01*
X137295000Y-83955000D01*
X127000000Y-83955000D01*
X126565654Y-84041397D01*
X126339471Y-84192528D01*
X126197434Y-84287434D01*
X124927434Y-85557434D01*
X124681397Y-85925654D01*
X124595000Y-86360000D01*
X124595000Y-90545394D01*
X124514176Y-90626077D01*
X124295250Y-91153309D01*
X124294752Y-91724187D01*
X122031650Y-91724187D01*
X122034759Y-91716702D01*
X122035240Y-91165715D01*
X121824831Y-90656485D01*
X121435564Y-90266539D01*
X120926702Y-90055241D01*
X120375715Y-90054760D01*
X119866485Y-90265169D01*
X119476539Y-90654436D01*
X119265241Y-91163298D01*
X119264760Y-91714285D01*
X119475169Y-92223515D01*
X119515000Y-92263415D01*
X119515000Y-95385000D01*
X115803222Y-95385000D01*
X115803162Y-95384683D01*
X115664090Y-95168559D01*
X115451890Y-95023569D01*
X115200000Y-94972560D01*
X113400000Y-94972560D01*
X113164683Y-95016838D01*
X112948559Y-95155910D01*
X112803569Y-95368110D01*
X112752560Y-95620000D01*
X106910000Y-95620000D01*
X106910000Y-69551517D01*
X117318088Y-69551517D01*
X117386077Y-69792460D01*
X117905171Y-69977201D01*
X118455448Y-69949230D01*
X118833923Y-69792460D01*
X118901912Y-69551517D01*
X118110000Y-68759605D01*
X117318088Y-69551517D01*
X106910000Y-69551517D01*
X106910000Y-68375171D01*
X116712799Y-68375171D01*
X116740770Y-68925448D01*
X116897540Y-69303923D01*
X117138483Y-69371912D01*
X117930395Y-68580000D01*
X118289605Y-68580000D01*
X119081517Y-69371912D01*
X119322460Y-69303923D01*
X119478958Y-68864187D01*
X121754752Y-68864187D01*
X121972757Y-69391800D01*
X122376077Y-69795824D01*
X122903309Y-70014750D01*
X123474187Y-70015248D01*
X124001800Y-69797243D01*
X124084187Y-69715000D01*
X127393272Y-69715000D01*
X127720849Y-69933880D01*
X128092717Y-70007849D01*
X131277434Y-73192566D01*
X131645655Y-73438604D01*
X132080000Y-73525000D01*
X132455394Y-73525000D01*
X132536077Y-73605824D01*
X133063309Y-73824750D01*
X133634187Y-73825248D01*
X134161800Y-73607243D01*
X134565824Y-73203923D01*
X134784750Y-72676691D01*
X134785248Y-72105813D01*
X134567243Y-71578200D01*
X134163923Y-71174176D01*
X133636691Y-70955250D01*
X133065813Y-70954752D01*
X132538200Y-71172757D01*
X132503014Y-71207882D01*
X129669736Y-68374604D01*
X129595767Y-68002736D01*
X129284698Y-67537189D01*
X128819151Y-67226120D01*
X128270000Y-67116887D01*
X127720849Y-67226120D01*
X127393272Y-67445000D01*
X124084606Y-67445000D01*
X124003923Y-67364176D01*
X123476691Y-67145250D01*
X122905813Y-67144752D01*
X122378200Y-67362757D01*
X121974176Y-67766077D01*
X121755250Y-68293309D01*
X121754752Y-68864187D01*
X119478958Y-68864187D01*
X119507201Y-68784829D01*
X119479230Y-68234552D01*
X119322460Y-67856077D01*
X119081517Y-67788088D01*
X118289605Y-68580000D01*
X117930395Y-68580000D01*
X117138483Y-67788088D01*
X116897540Y-67856077D01*
X116712799Y-68375171D01*
X106910000Y-68375171D01*
X106910000Y-67608483D01*
X117318088Y-67608483D01*
X118110000Y-68400395D01*
X118901912Y-67608483D01*
X118833923Y-67367540D01*
X118314829Y-67182799D01*
X117764552Y-67210770D01*
X117386077Y-67367540D01*
X117318088Y-67608483D01*
X106910000Y-67608483D01*
X106910000Y-59974187D01*
X131914752Y-59974187D01*
X132132757Y-60501800D01*
X132536077Y-60905824D01*
X133063309Y-61124750D01*
X133634187Y-61125248D01*
X134161800Y-60907243D01*
X134244187Y-60825000D01*
X137160000Y-60825000D01*
X137594346Y-60738603D01*
X137962566Y-60492566D01*
X138599984Y-59855148D01*
X138714187Y-59855248D01*
X139241800Y-59637243D01*
X139645824Y-59233923D01*
X139838860Y-58769039D01*
X152278096Y-58769039D01*
X152438959Y-59157423D01*
X152814866Y-59572389D01*
X153320959Y-59811914D01*
X153543000Y-59690629D01*
X153543000Y-58547000D01*
X153797000Y-58547000D01*
X153797000Y-59690629D01*
X154019041Y-59811914D01*
X154525134Y-59572389D01*
X154901041Y-59157423D01*
X155061904Y-58769039D01*
X154939915Y-58547000D01*
X153797000Y-58547000D01*
X153543000Y-58547000D01*
X152400085Y-58547000D01*
X152278096Y-58769039D01*
X139838860Y-58769039D01*
X139864750Y-58706691D01*
X139865248Y-58135813D01*
X139647243Y-57608200D01*
X139243923Y-57204176D01*
X138716691Y-56985250D01*
X138145813Y-56984752D01*
X137618200Y-57202757D01*
X137214176Y-57606077D01*
X136995250Y-58133309D01*
X136995148Y-58249720D01*
X136689868Y-58555000D01*
X134244606Y-58555000D01*
X134163923Y-58474176D01*
X133636691Y-58255250D01*
X133065813Y-58254752D01*
X132538200Y-58472757D01*
X132134176Y-58876077D01*
X131915250Y-59403309D01*
X131914752Y-59974187D01*
X106910000Y-59974187D01*
X106910000Y-55765022D01*
X109504584Y-55765022D01*
X109725353Y-56135743D01*
X110697012Y-56529119D01*
X111745247Y-56520713D01*
X112674647Y-56135743D01*
X112895416Y-55765022D01*
X111200000Y-54069605D01*
X109504584Y-55765022D01*
X106910000Y-55765022D01*
X106910000Y-53387012D01*
X108560881Y-53387012D01*
X108569287Y-54435247D01*
X108954257Y-55364647D01*
X109324978Y-55585416D01*
X111020395Y-53890000D01*
X111379605Y-53890000D01*
X113075022Y-55585416D01*
X113445743Y-55364647D01*
X113839119Y-54392988D01*
X113832954Y-53624187D01*
X126834752Y-53624187D01*
X127052757Y-54151800D01*
X127456077Y-54555824D01*
X127983309Y-54774750D01*
X128554187Y-54775248D01*
X129081800Y-54557243D01*
X129164187Y-54475000D01*
X136926778Y-54475000D01*
X136926838Y-54475317D01*
X137065910Y-54691441D01*
X137278110Y-54836431D01*
X137530000Y-54887440D01*
X139330000Y-54887440D01*
X139565317Y-54843162D01*
X139781441Y-54704090D01*
X139835000Y-54625704D01*
X139835000Y-55880000D01*
X139921397Y-56314346D01*
X139943506Y-56347434D01*
X140167434Y-56682566D01*
X141437434Y-57952566D01*
X141805654Y-58198603D01*
X142240000Y-58285000D01*
X147320000Y-58285000D01*
X147754346Y-58198603D01*
X147945375Y-58070961D01*
X152278096Y-58070961D01*
X152400085Y-58293000D01*
X153543000Y-58293000D01*
X153543000Y-57149371D01*
X153797000Y-57149371D01*
X153797000Y-58293000D01*
X154939915Y-58293000D01*
X155061904Y-58070961D01*
X154901041Y-57682577D01*
X154525134Y-57267611D01*
X154019041Y-57028086D01*
X153797000Y-57149371D01*
X153543000Y-57149371D01*
X153320959Y-57028086D01*
X152814866Y-57267611D01*
X152438959Y-57682577D01*
X152278096Y-58070961D01*
X147945375Y-58070961D01*
X148122566Y-57952566D01*
X150310110Y-55765022D01*
X174504584Y-55765022D01*
X174725353Y-56135743D01*
X175697012Y-56529119D01*
X176745247Y-56520713D01*
X177674647Y-56135743D01*
X177895416Y-55765022D01*
X176200000Y-54069605D01*
X174504584Y-55765022D01*
X150310110Y-55765022D01*
X151600132Y-54475000D01*
X157855394Y-54475000D01*
X157936077Y-54555824D01*
X158463309Y-54774750D01*
X159034187Y-54775248D01*
X159561800Y-54557243D01*
X159965824Y-54153923D01*
X160184750Y-53626691D01*
X160184959Y-53387012D01*
X173560881Y-53387012D01*
X173569287Y-54435247D01*
X173954257Y-55364647D01*
X174324978Y-55585416D01*
X176020395Y-53890000D01*
X176379605Y-53890000D01*
X178075022Y-55585416D01*
X178445743Y-55364647D01*
X178839119Y-54392988D01*
X178830713Y-53344753D01*
X178445743Y-52415353D01*
X178075022Y-52194584D01*
X176379605Y-53890000D01*
X176020395Y-53890000D01*
X174324978Y-52194584D01*
X173954257Y-52415353D01*
X173560881Y-53387012D01*
X160184959Y-53387012D01*
X160185248Y-53055813D01*
X159967243Y-52528200D01*
X159563923Y-52124176D01*
X159300946Y-52014978D01*
X174504584Y-52014978D01*
X176200000Y-53710395D01*
X177895416Y-52014978D01*
X177674647Y-51644257D01*
X176702988Y-51250881D01*
X175654753Y-51259287D01*
X174725353Y-51644257D01*
X174504584Y-52014978D01*
X159300946Y-52014978D01*
X159036691Y-51905250D01*
X158465813Y-51904752D01*
X157938200Y-52122757D01*
X157855813Y-52205000D01*
X151130000Y-52205000D01*
X150695655Y-52291396D01*
X150327434Y-52537434D01*
X146849868Y-56015000D01*
X142710132Y-56015000D01*
X142105000Y-55409868D01*
X142105000Y-54420159D01*
X142609446Y-54420159D01*
X142695852Y-54676643D01*
X143269336Y-54886458D01*
X143879460Y-54860839D01*
X144324148Y-54676643D01*
X144410554Y-54420159D01*
X143510000Y-53519605D01*
X142609446Y-54420159D01*
X142105000Y-54420159D01*
X142105000Y-54375905D01*
X142270551Y-54210643D01*
X142279203Y-54189806D01*
X142429841Y-54240554D01*
X143330395Y-53340000D01*
X143689605Y-53340000D01*
X144590159Y-54240554D01*
X144846643Y-54154148D01*
X145056458Y-53580664D01*
X145030839Y-52970540D01*
X144846643Y-52525852D01*
X144590159Y-52439446D01*
X143689605Y-53340000D01*
X143330395Y-53340000D01*
X142429841Y-52439446D01*
X142279673Y-52490035D01*
X142272068Y-52471629D01*
X142060650Y-52259841D01*
X142609446Y-52259841D01*
X143510000Y-53160395D01*
X144410554Y-52259841D01*
X144324148Y-52003357D01*
X143750664Y-51793542D01*
X143140540Y-51819161D01*
X142695852Y-52003357D01*
X142609446Y-52259841D01*
X142060650Y-52259841D01*
X141840643Y-52039449D01*
X141276670Y-51805267D01*
X140666009Y-51804735D01*
X140101629Y-52037932D01*
X139933387Y-52205880D01*
X139933162Y-52204683D01*
X139794090Y-51988559D01*
X139581890Y-51843569D01*
X139330000Y-51792560D01*
X137530000Y-51792560D01*
X137294683Y-51836838D01*
X137078559Y-51975910D01*
X136933569Y-52188110D01*
X136930149Y-52205000D01*
X129164606Y-52205000D01*
X129083923Y-52124176D01*
X128556691Y-51905250D01*
X127985813Y-51904752D01*
X127458200Y-52122757D01*
X127054176Y-52526077D01*
X126835250Y-53053309D01*
X126834752Y-53624187D01*
X113832954Y-53624187D01*
X113830713Y-53344753D01*
X113445743Y-52415353D01*
X113075022Y-52194584D01*
X111379605Y-53890000D01*
X111020395Y-53890000D01*
X109324978Y-52194584D01*
X108954257Y-52415353D01*
X108560881Y-53387012D01*
X106910000Y-53387012D01*
X106910000Y-52014978D01*
X109504584Y-52014978D01*
X111200000Y-53710395D01*
X112895416Y-52014978D01*
X112674647Y-51644257D01*
X111702988Y-51250881D01*
X110654753Y-51259287D01*
X109725353Y-51644257D01*
X109504584Y-52014978D01*
X106910000Y-52014978D01*
X106910000Y-49600000D01*
X180490000Y-49600000D01*
X180490000Y-123180000D01*
M02*
