G04 #@! TF.FileFunction,Copper,L1,Top,Signal*
%FSLAX46Y46*%
G04 Gerber Fmt 4.6, Leading zero omitted, Abs format (unit mm)*
G04 Created by KiCad (PCBNEW 4.0.7) date 06/12/18 10:06:56*
%MOMM*%
%LPD*%
G01*
G04 APERTURE LIST*
%ADD10C,0.100000*%
%ADD11C,1.600000*%
%ADD12C,1.500000*%
%ADD13R,1.600000X1.600000*%
%ADD14O,1.600000X1.600000*%
%ADD15C,4.000000*%
%ADD16R,1.800000X1.800000*%
%ADD17C,1.800000*%
%ADD18O,1.200000X1.600000*%
%ADD19O,1.200000X1.200000*%
%ADD20C,0.254000*%
G04 APERTURE END LIST*
D10*
D11*
X123190000Y-66040000D03*
D12*
X123190000Y-71120000D03*
D11*
X123190000Y-81280000D03*
D12*
X123190000Y-76200000D03*
D11*
X158750000Y-71120000D03*
D12*
X158750000Y-66040000D03*
D11*
X111760000Y-64770000D03*
D12*
X111760000Y-69850000D03*
D11*
X146050000Y-90170000D03*
D12*
X146050000Y-95250000D03*
D11*
X123190000Y-57150000D03*
D12*
X123190000Y-62230000D03*
D11*
X146050000Y-77470000D03*
D12*
X146050000Y-72390000D03*
D11*
X146050000Y-81280000D03*
D12*
X146050000Y-86360000D03*
D13*
X146050000Y-68580000D03*
D14*
X146050000Y-55880000D03*
D13*
X119380000Y-93980000D03*
D14*
X119380000Y-81280000D03*
D15*
X110000000Y-95000000D03*
X160000000Y-95000000D03*
X110000000Y-55000000D03*
X160000000Y-55000000D03*
D16*
X133350000Y-53340000D03*
D17*
X135890000Y-53340000D03*
X138430000Y-53340000D03*
D16*
X109220000Y-81280000D03*
D17*
X109220000Y-78740000D03*
D16*
X161290000Y-81280000D03*
D17*
X161290000Y-78740000D03*
D18*
X129540000Y-73660000D03*
D19*
X128270000Y-74930000D03*
X129540000Y-76200000D03*
D18*
X138430000Y-76200000D03*
D19*
X139700000Y-74930000D03*
X138430000Y-73660000D03*
D11*
X153670000Y-55880000D03*
D14*
X153670000Y-71120000D03*
D11*
X115570000Y-54610000D03*
D14*
X115570000Y-69850000D03*
D11*
X127000000Y-64770000D03*
D14*
X142240000Y-64770000D03*
D11*
X142240000Y-92710000D03*
D14*
X127000000Y-92710000D03*
D11*
X149860000Y-71120000D03*
D14*
X149860000Y-55880000D03*
D11*
X127000000Y-68580000D03*
D14*
X142240000Y-68580000D03*
D11*
X115570000Y-72390000D03*
D14*
X115570000Y-87630000D03*
D11*
X127000000Y-60960000D03*
D14*
X142240000Y-60960000D03*
D11*
X142240000Y-88900000D03*
D14*
X127000000Y-88900000D03*
D11*
X127000000Y-81280000D03*
D14*
X142240000Y-81280000D03*
D11*
X127000000Y-57150000D03*
D14*
X142240000Y-57150000D03*
D11*
X142240000Y-85090000D03*
D14*
X127000000Y-85090000D03*
D20*
G36*
X164290000Y-99290000D02*
X105710000Y-99290000D01*
X105710000Y-96875022D01*
X108304584Y-96875022D01*
X108525353Y-97245743D01*
X109497012Y-97639119D01*
X110545247Y-97630713D01*
X111474647Y-97245743D01*
X111695416Y-96875022D01*
X158304584Y-96875022D01*
X158525353Y-97245743D01*
X159497012Y-97639119D01*
X160545247Y-97630713D01*
X161474647Y-97245743D01*
X161695416Y-96875022D01*
X160000000Y-95179605D01*
X158304584Y-96875022D01*
X111695416Y-96875022D01*
X110000000Y-95179605D01*
X108304584Y-96875022D01*
X105710000Y-96875022D01*
X105710000Y-94497012D01*
X107360881Y-94497012D01*
X107369287Y-95545247D01*
X107754257Y-96474647D01*
X108124978Y-96695416D01*
X109820395Y-95000000D01*
X110179605Y-95000000D01*
X111875022Y-96695416D01*
X112245743Y-96474647D01*
X112630496Y-95524285D01*
X144664760Y-95524285D01*
X144875169Y-96033515D01*
X145264436Y-96423461D01*
X145773298Y-96634759D01*
X146324285Y-96635240D01*
X146833515Y-96424831D01*
X147223461Y-96035564D01*
X147434759Y-95526702D01*
X147435240Y-94975715D01*
X147237445Y-94497012D01*
X157360881Y-94497012D01*
X157369287Y-95545247D01*
X157754257Y-96474647D01*
X158124978Y-96695416D01*
X159820395Y-95000000D01*
X160179605Y-95000000D01*
X161875022Y-96695416D01*
X162245743Y-96474647D01*
X162639119Y-95502988D01*
X162630713Y-94454753D01*
X162245743Y-93525353D01*
X161875022Y-93304584D01*
X160179605Y-95000000D01*
X159820395Y-95000000D01*
X158124978Y-93304584D01*
X157754257Y-93525353D01*
X157360881Y-94497012D01*
X147237445Y-94497012D01*
X147224831Y-94466485D01*
X146835564Y-94076539D01*
X146326702Y-93865241D01*
X145775715Y-93864760D01*
X145266485Y-94075169D01*
X144876539Y-94464436D01*
X144665241Y-94973298D01*
X144664760Y-95524285D01*
X112630496Y-95524285D01*
X112639119Y-95502988D01*
X112630713Y-94454753D01*
X112245743Y-93525353D01*
X111875022Y-93304584D01*
X110179605Y-95000000D01*
X109820395Y-95000000D01*
X108124978Y-93304584D01*
X107754257Y-93525353D01*
X107360881Y-94497012D01*
X105710000Y-94497012D01*
X105710000Y-93124978D01*
X108304584Y-93124978D01*
X110000000Y-94820395D01*
X111640394Y-93180000D01*
X117932560Y-93180000D01*
X117932560Y-94780000D01*
X117976838Y-95015317D01*
X118115910Y-95231441D01*
X118328110Y-95376431D01*
X118580000Y-95427440D01*
X120180000Y-95427440D01*
X120415317Y-95383162D01*
X120631441Y-95244090D01*
X120776431Y-95031890D01*
X120827440Y-94780000D01*
X120827440Y-93180000D01*
X120804680Y-93059039D01*
X125608096Y-93059039D01*
X125768959Y-93447423D01*
X126144866Y-93862389D01*
X126650959Y-94101914D01*
X126873000Y-93980629D01*
X126873000Y-92837000D01*
X127127000Y-92837000D01*
X127127000Y-93980629D01*
X127349041Y-94101914D01*
X127855134Y-93862389D01*
X128231041Y-93447423D01*
X128391904Y-93059039D01*
X128356275Y-92994187D01*
X140804752Y-92994187D01*
X141022757Y-93521800D01*
X141426077Y-93925824D01*
X141953309Y-94144750D01*
X142524187Y-94145248D01*
X143051800Y-93927243D01*
X143455824Y-93523923D01*
X143621480Y-93124978D01*
X158304584Y-93124978D01*
X160000000Y-94820395D01*
X161695416Y-93124978D01*
X161474647Y-92754257D01*
X160502988Y-92360881D01*
X159454753Y-92369287D01*
X158525353Y-92754257D01*
X158304584Y-93124978D01*
X143621480Y-93124978D01*
X143674750Y-92996691D01*
X143675248Y-92425813D01*
X143457243Y-91898200D01*
X143053923Y-91494176D01*
X142526691Y-91275250D01*
X141955813Y-91274752D01*
X141428200Y-91492757D01*
X141024176Y-91896077D01*
X140805250Y-92423309D01*
X140804752Y-92994187D01*
X128356275Y-92994187D01*
X128269915Y-92837000D01*
X127127000Y-92837000D01*
X126873000Y-92837000D01*
X125730085Y-92837000D01*
X125608096Y-93059039D01*
X120804680Y-93059039D01*
X120783162Y-92944683D01*
X120644090Y-92728559D01*
X120431890Y-92583569D01*
X120180000Y-92532560D01*
X118580000Y-92532560D01*
X118344683Y-92576838D01*
X118128559Y-92715910D01*
X117983569Y-92928110D01*
X117932560Y-93180000D01*
X111640394Y-93180000D01*
X111695416Y-93124978D01*
X111474647Y-92754257D01*
X110503186Y-92360961D01*
X125608096Y-92360961D01*
X125730085Y-92583000D01*
X126873000Y-92583000D01*
X126873000Y-91439371D01*
X127127000Y-91439371D01*
X127127000Y-92583000D01*
X128269915Y-92583000D01*
X128391904Y-92360961D01*
X128231041Y-91972577D01*
X127855134Y-91557611D01*
X127349041Y-91318086D01*
X127127000Y-91439371D01*
X126873000Y-91439371D01*
X126650959Y-91318086D01*
X126144866Y-91557611D01*
X125768959Y-91972577D01*
X125608096Y-92360961D01*
X110503186Y-92360961D01*
X110502988Y-92360881D01*
X109454753Y-92369287D01*
X108525353Y-92754257D01*
X108304584Y-93124978D01*
X105710000Y-93124978D01*
X105710000Y-90454187D01*
X144614752Y-90454187D01*
X144832757Y-90981800D01*
X145236077Y-91385824D01*
X145763309Y-91604750D01*
X146334187Y-91605248D01*
X146861800Y-91387243D01*
X147265824Y-90983923D01*
X147484750Y-90456691D01*
X147485248Y-89885813D01*
X147267243Y-89358200D01*
X146863923Y-88954176D01*
X146336691Y-88735250D01*
X145765813Y-88734752D01*
X145238200Y-88952757D01*
X144834176Y-89356077D01*
X144615250Y-89883309D01*
X144614752Y-90454187D01*
X105710000Y-90454187D01*
X105710000Y-89249039D01*
X125608096Y-89249039D01*
X125768959Y-89637423D01*
X126144866Y-90052389D01*
X126650959Y-90291914D01*
X126873000Y-90170629D01*
X126873000Y-89027000D01*
X127127000Y-89027000D01*
X127127000Y-90170629D01*
X127349041Y-90291914D01*
X127855134Y-90052389D01*
X128231041Y-89637423D01*
X128391904Y-89249039D01*
X128356275Y-89184187D01*
X140804752Y-89184187D01*
X141022757Y-89711800D01*
X141426077Y-90115824D01*
X141953309Y-90334750D01*
X142524187Y-90335248D01*
X143051800Y-90117243D01*
X143455824Y-89713923D01*
X143674750Y-89186691D01*
X143675248Y-88615813D01*
X143457243Y-88088200D01*
X143053923Y-87684176D01*
X142526691Y-87465250D01*
X141955813Y-87464752D01*
X141428200Y-87682757D01*
X141024176Y-88086077D01*
X140805250Y-88613309D01*
X140804752Y-89184187D01*
X128356275Y-89184187D01*
X128269915Y-89027000D01*
X127127000Y-89027000D01*
X126873000Y-89027000D01*
X125730085Y-89027000D01*
X125608096Y-89249039D01*
X105710000Y-89249039D01*
X105710000Y-87601887D01*
X114135000Y-87601887D01*
X114135000Y-87658113D01*
X114244233Y-88207264D01*
X114555302Y-88672811D01*
X115020849Y-88983880D01*
X115570000Y-89093113D01*
X116119151Y-88983880D01*
X116584698Y-88672811D01*
X116666115Y-88550961D01*
X125608096Y-88550961D01*
X125730085Y-88773000D01*
X126873000Y-88773000D01*
X126873000Y-87629371D01*
X127127000Y-87629371D01*
X127127000Y-88773000D01*
X128269915Y-88773000D01*
X128391904Y-88550961D01*
X128231041Y-88162577D01*
X127855134Y-87747611D01*
X127349041Y-87508086D01*
X127127000Y-87629371D01*
X126873000Y-87629371D01*
X126650959Y-87508086D01*
X126144866Y-87747611D01*
X125768959Y-88162577D01*
X125608096Y-88550961D01*
X116666115Y-88550961D01*
X116895767Y-88207264D01*
X117005000Y-87658113D01*
X117005000Y-87601887D01*
X116895767Y-87052736D01*
X116616167Y-86634285D01*
X144664760Y-86634285D01*
X144875169Y-87143515D01*
X145264436Y-87533461D01*
X145773298Y-87744759D01*
X146324285Y-87745240D01*
X146833515Y-87534831D01*
X147223461Y-87145564D01*
X147434759Y-86636702D01*
X147435240Y-86085715D01*
X147224831Y-85576485D01*
X146835564Y-85186539D01*
X146326702Y-84975241D01*
X145775715Y-84974760D01*
X145266485Y-85185169D01*
X144876539Y-85574436D01*
X144665241Y-86083298D01*
X144664760Y-86634285D01*
X116616167Y-86634285D01*
X116584698Y-86587189D01*
X116119151Y-86276120D01*
X115570000Y-86166887D01*
X115020849Y-86276120D01*
X114555302Y-86587189D01*
X114244233Y-87052736D01*
X114135000Y-87601887D01*
X105710000Y-87601887D01*
X105710000Y-85439039D01*
X125608096Y-85439039D01*
X125768959Y-85827423D01*
X126144866Y-86242389D01*
X126650959Y-86481914D01*
X126873000Y-86360629D01*
X126873000Y-85217000D01*
X127127000Y-85217000D01*
X127127000Y-86360629D01*
X127349041Y-86481914D01*
X127855134Y-86242389D01*
X128231041Y-85827423D01*
X128391904Y-85439039D01*
X128356275Y-85374187D01*
X140804752Y-85374187D01*
X141022757Y-85901800D01*
X141426077Y-86305824D01*
X141953309Y-86524750D01*
X142524187Y-86525248D01*
X143051800Y-86307243D01*
X143455824Y-85903923D01*
X143674750Y-85376691D01*
X143675248Y-84805813D01*
X143457243Y-84278200D01*
X143053923Y-83874176D01*
X142526691Y-83655250D01*
X141955813Y-83654752D01*
X141428200Y-83872757D01*
X141024176Y-84276077D01*
X140805250Y-84803309D01*
X140804752Y-85374187D01*
X128356275Y-85374187D01*
X128269915Y-85217000D01*
X127127000Y-85217000D01*
X126873000Y-85217000D01*
X125730085Y-85217000D01*
X125608096Y-85439039D01*
X105710000Y-85439039D01*
X105710000Y-84740961D01*
X125608096Y-84740961D01*
X125730085Y-84963000D01*
X126873000Y-84963000D01*
X126873000Y-83819371D01*
X127127000Y-83819371D01*
X127127000Y-84963000D01*
X128269915Y-84963000D01*
X128391904Y-84740961D01*
X128231041Y-84352577D01*
X127855134Y-83937611D01*
X127349041Y-83698086D01*
X127127000Y-83819371D01*
X126873000Y-83819371D01*
X126650959Y-83698086D01*
X126144866Y-83937611D01*
X125768959Y-84352577D01*
X125608096Y-84740961D01*
X105710000Y-84740961D01*
X105710000Y-80380000D01*
X107672560Y-80380000D01*
X107672560Y-82180000D01*
X107716838Y-82415317D01*
X107855910Y-82631441D01*
X108068110Y-82776431D01*
X108320000Y-82827440D01*
X110120000Y-82827440D01*
X110355317Y-82783162D01*
X110571441Y-82644090D01*
X110716431Y-82431890D01*
X110767440Y-82180000D01*
X110767440Y-81251887D01*
X117945000Y-81251887D01*
X117945000Y-81308113D01*
X118054233Y-81857264D01*
X118365302Y-82322811D01*
X118830849Y-82633880D01*
X119380000Y-82743113D01*
X119929151Y-82633880D01*
X120394698Y-82322811D01*
X120705767Y-81857264D01*
X120764063Y-81564187D01*
X121754752Y-81564187D01*
X121972757Y-82091800D01*
X122376077Y-82495824D01*
X122903309Y-82714750D01*
X123474187Y-82715248D01*
X124001800Y-82497243D01*
X124405824Y-82093923D01*
X124624750Y-81566691D01*
X124624752Y-81564187D01*
X125564752Y-81564187D01*
X125782757Y-82091800D01*
X126186077Y-82495824D01*
X126713309Y-82714750D01*
X127284187Y-82715248D01*
X127811800Y-82497243D01*
X128215824Y-82093923D01*
X128434750Y-81566691D01*
X128435000Y-81280000D01*
X140776887Y-81280000D01*
X140886120Y-81829151D01*
X141197189Y-82294698D01*
X141662736Y-82605767D01*
X142211887Y-82715000D01*
X142268113Y-82715000D01*
X142817264Y-82605767D01*
X143282811Y-82294698D01*
X143593880Y-81829151D01*
X143646584Y-81564187D01*
X144614752Y-81564187D01*
X144832757Y-82091800D01*
X145236077Y-82495824D01*
X145763309Y-82714750D01*
X146334187Y-82715248D01*
X146861800Y-82497243D01*
X147265824Y-82093923D01*
X147484750Y-81566691D01*
X147485248Y-80995813D01*
X147267243Y-80468200D01*
X147179197Y-80380000D01*
X159742560Y-80380000D01*
X159742560Y-82180000D01*
X159786838Y-82415317D01*
X159925910Y-82631441D01*
X160138110Y-82776431D01*
X160390000Y-82827440D01*
X162190000Y-82827440D01*
X162425317Y-82783162D01*
X162641441Y-82644090D01*
X162786431Y-82431890D01*
X162837440Y-82180000D01*
X162837440Y-80380000D01*
X162793162Y-80144683D01*
X162654090Y-79928559D01*
X162450426Y-79789402D01*
X162484718Y-79755110D01*
X162370161Y-79640553D01*
X162626643Y-79554148D01*
X162836458Y-78980664D01*
X162810839Y-78370540D01*
X162626643Y-77925852D01*
X162370159Y-77839446D01*
X161469605Y-78740000D01*
X161483748Y-78754143D01*
X161304143Y-78933748D01*
X161290000Y-78919605D01*
X161275858Y-78933748D01*
X161096253Y-78754143D01*
X161110395Y-78740000D01*
X160209841Y-77839446D01*
X159953357Y-77925852D01*
X159743542Y-78499336D01*
X159769161Y-79109460D01*
X159953357Y-79554148D01*
X160209839Y-79640553D01*
X160095282Y-79755110D01*
X160131760Y-79791588D01*
X159938559Y-79915910D01*
X159793569Y-80128110D01*
X159742560Y-80380000D01*
X147179197Y-80380000D01*
X146863923Y-80064176D01*
X146336691Y-79845250D01*
X145765813Y-79844752D01*
X145238200Y-80062757D01*
X144834176Y-80466077D01*
X144615250Y-80993309D01*
X144614752Y-81564187D01*
X143646584Y-81564187D01*
X143703113Y-81280000D01*
X143593880Y-80730849D01*
X143282811Y-80265302D01*
X142817264Y-79954233D01*
X142268113Y-79845000D01*
X142211887Y-79845000D01*
X141662736Y-79954233D01*
X141197189Y-80265302D01*
X140886120Y-80730849D01*
X140776887Y-81280000D01*
X128435000Y-81280000D01*
X128435248Y-80995813D01*
X128217243Y-80468200D01*
X127813923Y-80064176D01*
X127286691Y-79845250D01*
X126715813Y-79844752D01*
X126188200Y-80062757D01*
X125784176Y-80466077D01*
X125565250Y-80993309D01*
X125564752Y-81564187D01*
X124624752Y-81564187D01*
X124625248Y-80995813D01*
X124407243Y-80468200D01*
X124003923Y-80064176D01*
X123476691Y-79845250D01*
X122905813Y-79844752D01*
X122378200Y-80062757D01*
X121974176Y-80466077D01*
X121755250Y-80993309D01*
X121754752Y-81564187D01*
X120764063Y-81564187D01*
X120815000Y-81308113D01*
X120815000Y-81251887D01*
X120705767Y-80702736D01*
X120394698Y-80237189D01*
X119929151Y-79926120D01*
X119380000Y-79816887D01*
X118830849Y-79926120D01*
X118365302Y-80237189D01*
X118054233Y-80702736D01*
X117945000Y-81251887D01*
X110767440Y-81251887D01*
X110767440Y-80380000D01*
X110723162Y-80144683D01*
X110584090Y-79928559D01*
X110380426Y-79789402D01*
X110414718Y-79755110D01*
X110300161Y-79640553D01*
X110556643Y-79554148D01*
X110766458Y-78980664D01*
X110740839Y-78370540D01*
X110556643Y-77925852D01*
X110300159Y-77839446D01*
X109399605Y-78740000D01*
X109413748Y-78754143D01*
X109234143Y-78933748D01*
X109220000Y-78919605D01*
X109205858Y-78933748D01*
X109026253Y-78754143D01*
X109040395Y-78740000D01*
X108139841Y-77839446D01*
X107883357Y-77925852D01*
X107673542Y-78499336D01*
X107699161Y-79109460D01*
X107883357Y-79554148D01*
X108139839Y-79640553D01*
X108025282Y-79755110D01*
X108061760Y-79791588D01*
X107868559Y-79915910D01*
X107723569Y-80128110D01*
X107672560Y-80380000D01*
X105710000Y-80380000D01*
X105710000Y-77659841D01*
X108319446Y-77659841D01*
X109220000Y-78560395D01*
X110026208Y-77754187D01*
X144614752Y-77754187D01*
X144832757Y-78281800D01*
X145236077Y-78685824D01*
X145763309Y-78904750D01*
X146334187Y-78905248D01*
X146861800Y-78687243D01*
X147265824Y-78283923D01*
X147484750Y-77756691D01*
X147484834Y-77659841D01*
X160389446Y-77659841D01*
X161290000Y-78560395D01*
X162190554Y-77659841D01*
X162104148Y-77403357D01*
X161530664Y-77193542D01*
X160920540Y-77219161D01*
X160475852Y-77403357D01*
X160389446Y-77659841D01*
X147484834Y-77659841D01*
X147485248Y-77185813D01*
X147267243Y-76658200D01*
X146863923Y-76254176D01*
X146336691Y-76035250D01*
X145765813Y-76034752D01*
X145238200Y-76252757D01*
X144834176Y-76656077D01*
X144615250Y-77183309D01*
X144614752Y-77754187D01*
X110026208Y-77754187D01*
X110120554Y-77659841D01*
X110034148Y-77403357D01*
X109460664Y-77193542D01*
X108850540Y-77219161D01*
X108405852Y-77403357D01*
X108319446Y-77659841D01*
X105710000Y-77659841D01*
X105710000Y-76474285D01*
X121804760Y-76474285D01*
X122015169Y-76983515D01*
X122404436Y-77373461D01*
X122913298Y-77584759D01*
X123464285Y-77585240D01*
X123973515Y-77374831D01*
X124363461Y-76985564D01*
X124574759Y-76476702D01*
X124575240Y-75925715D01*
X124364831Y-75416485D01*
X123975564Y-75026539D01*
X123684805Y-74905805D01*
X127035000Y-74905805D01*
X127035000Y-74954195D01*
X127129009Y-75426809D01*
X127396723Y-75827472D01*
X127797386Y-76095186D01*
X128270000Y-76189195D01*
X128305000Y-76182233D01*
X128305000Y-76224195D01*
X128399009Y-76696809D01*
X128666723Y-77097472D01*
X129067386Y-77365186D01*
X129540000Y-77459195D01*
X130012614Y-77365186D01*
X130413277Y-77097472D01*
X130680991Y-76696809D01*
X130775000Y-76224195D01*
X130775000Y-76175805D01*
X130680991Y-75703191D01*
X130413277Y-75302528D01*
X130012614Y-75034814D01*
X129998261Y-75031959D01*
X130012614Y-75029104D01*
X130413277Y-74761390D01*
X130680991Y-74360727D01*
X130775000Y-73888113D01*
X130775000Y-73635805D01*
X137195000Y-73635805D01*
X137195000Y-73684195D01*
X137289009Y-74156809D01*
X137556723Y-74557472D01*
X137957386Y-74825186D01*
X137971739Y-74828041D01*
X137957386Y-74830896D01*
X137556723Y-75098610D01*
X137289009Y-75499273D01*
X137195000Y-75971887D01*
X137195000Y-76428113D01*
X137289009Y-76900727D01*
X137556723Y-77301390D01*
X137957386Y-77569104D01*
X138430000Y-77663113D01*
X138902614Y-77569104D01*
X139303277Y-77301390D01*
X139570991Y-76900727D01*
X139665000Y-76428113D01*
X139665000Y-76182233D01*
X139700000Y-76189195D01*
X140172614Y-76095186D01*
X140573277Y-75827472D01*
X140840991Y-75426809D01*
X140935000Y-74954195D01*
X140935000Y-74905805D01*
X140840991Y-74433191D01*
X140573277Y-74032528D01*
X140172614Y-73764814D01*
X139700000Y-73670805D01*
X139665000Y-73677767D01*
X139665000Y-73635805D01*
X139570991Y-73163191D01*
X139303277Y-72762528D01*
X139156246Y-72664285D01*
X144664760Y-72664285D01*
X144875169Y-73173515D01*
X145264436Y-73563461D01*
X145773298Y-73774759D01*
X146324285Y-73775240D01*
X146833515Y-73564831D01*
X147223461Y-73175564D01*
X147434759Y-72666702D01*
X147435240Y-72115715D01*
X147224831Y-71606485D01*
X147022886Y-71404187D01*
X148424752Y-71404187D01*
X148642757Y-71931800D01*
X149046077Y-72335824D01*
X149573309Y-72554750D01*
X150144187Y-72555248D01*
X150671800Y-72337243D01*
X151075824Y-71933923D01*
X151294750Y-71406691D01*
X151295024Y-71091887D01*
X152235000Y-71091887D01*
X152235000Y-71148113D01*
X152344233Y-71697264D01*
X152655302Y-72162811D01*
X153120849Y-72473880D01*
X153670000Y-72583113D01*
X154219151Y-72473880D01*
X154684698Y-72162811D01*
X154995767Y-71697264D01*
X155054063Y-71404187D01*
X157314752Y-71404187D01*
X157532757Y-71931800D01*
X157936077Y-72335824D01*
X158463309Y-72554750D01*
X159034187Y-72555248D01*
X159561800Y-72337243D01*
X159965824Y-71933923D01*
X160184750Y-71406691D01*
X160185248Y-70835813D01*
X159967243Y-70308200D01*
X159563923Y-69904176D01*
X159036691Y-69685250D01*
X158465813Y-69684752D01*
X157938200Y-69902757D01*
X157534176Y-70306077D01*
X157315250Y-70833309D01*
X157314752Y-71404187D01*
X155054063Y-71404187D01*
X155105000Y-71148113D01*
X155105000Y-71091887D01*
X154995767Y-70542736D01*
X154684698Y-70077189D01*
X154219151Y-69766120D01*
X153670000Y-69656887D01*
X153120849Y-69766120D01*
X152655302Y-70077189D01*
X152344233Y-70542736D01*
X152235000Y-71091887D01*
X151295024Y-71091887D01*
X151295248Y-70835813D01*
X151077243Y-70308200D01*
X150673923Y-69904176D01*
X150146691Y-69685250D01*
X149575813Y-69684752D01*
X149048200Y-69902757D01*
X148644176Y-70306077D01*
X148425250Y-70833309D01*
X148424752Y-71404187D01*
X147022886Y-71404187D01*
X146835564Y-71216539D01*
X146326702Y-71005241D01*
X145775715Y-71004760D01*
X145266485Y-71215169D01*
X144876539Y-71604436D01*
X144665241Y-72113298D01*
X144664760Y-72664285D01*
X139156246Y-72664285D01*
X138902614Y-72494814D01*
X138430000Y-72400805D01*
X137957386Y-72494814D01*
X137556723Y-72762528D01*
X137289009Y-73163191D01*
X137195000Y-73635805D01*
X130775000Y-73635805D01*
X130775000Y-73431887D01*
X130680991Y-72959273D01*
X130413277Y-72558610D01*
X130012614Y-72290896D01*
X129540000Y-72196887D01*
X129067386Y-72290896D01*
X128666723Y-72558610D01*
X128399009Y-72959273D01*
X128305000Y-73431887D01*
X128305000Y-73677767D01*
X128270000Y-73670805D01*
X127797386Y-73764814D01*
X127396723Y-74032528D01*
X127129009Y-74433191D01*
X127035000Y-74905805D01*
X123684805Y-74905805D01*
X123466702Y-74815241D01*
X122915715Y-74814760D01*
X122406485Y-75025169D01*
X122016539Y-75414436D01*
X121805241Y-75923298D01*
X121804760Y-76474285D01*
X105710000Y-76474285D01*
X105710000Y-72674187D01*
X114134752Y-72674187D01*
X114352757Y-73201800D01*
X114756077Y-73605824D01*
X115283309Y-73824750D01*
X115854187Y-73825248D01*
X116381800Y-73607243D01*
X116785824Y-73203923D01*
X117004750Y-72676691D01*
X117005248Y-72105813D01*
X116787243Y-71578200D01*
X116603649Y-71394285D01*
X121804760Y-71394285D01*
X122015169Y-71903515D01*
X122404436Y-72293461D01*
X122913298Y-72504759D01*
X123464285Y-72505240D01*
X123973515Y-72294831D01*
X124363461Y-71905564D01*
X124574759Y-71396702D01*
X124575240Y-70845715D01*
X124364831Y-70336485D01*
X123975564Y-69946539D01*
X123466702Y-69735241D01*
X122915715Y-69734760D01*
X122406485Y-69945169D01*
X122016539Y-70334436D01*
X121805241Y-70843298D01*
X121804760Y-71394285D01*
X116603649Y-71394285D01*
X116383923Y-71174176D01*
X116248046Y-71117755D01*
X116584698Y-70892811D01*
X116895767Y-70427264D01*
X117005000Y-69878113D01*
X117005000Y-69821887D01*
X116895767Y-69272736D01*
X116622783Y-68864187D01*
X125564752Y-68864187D01*
X125782757Y-69391800D01*
X126186077Y-69795824D01*
X126713309Y-70014750D01*
X127284187Y-70015248D01*
X127811800Y-69797243D01*
X128215824Y-69393923D01*
X128434750Y-68866691D01*
X128435000Y-68580000D01*
X140776887Y-68580000D01*
X140886120Y-69129151D01*
X141197189Y-69594698D01*
X141662736Y-69905767D01*
X142211887Y-70015000D01*
X142268113Y-70015000D01*
X142817264Y-69905767D01*
X143282811Y-69594698D01*
X143593880Y-69129151D01*
X143703113Y-68580000D01*
X143593880Y-68030849D01*
X143426268Y-67780000D01*
X144602560Y-67780000D01*
X144602560Y-69380000D01*
X144646838Y-69615317D01*
X144785910Y-69831441D01*
X144998110Y-69976431D01*
X145250000Y-70027440D01*
X146850000Y-70027440D01*
X147085317Y-69983162D01*
X147301441Y-69844090D01*
X147446431Y-69631890D01*
X147497440Y-69380000D01*
X147497440Y-67780000D01*
X147453162Y-67544683D01*
X147314090Y-67328559D01*
X147101890Y-67183569D01*
X146850000Y-67132560D01*
X145250000Y-67132560D01*
X145014683Y-67176838D01*
X144798559Y-67315910D01*
X144653569Y-67528110D01*
X144602560Y-67780000D01*
X143426268Y-67780000D01*
X143282811Y-67565302D01*
X142817264Y-67254233D01*
X142268113Y-67145000D01*
X142211887Y-67145000D01*
X141662736Y-67254233D01*
X141197189Y-67565302D01*
X140886120Y-68030849D01*
X140776887Y-68580000D01*
X128435000Y-68580000D01*
X128435248Y-68295813D01*
X128217243Y-67768200D01*
X127813923Y-67364176D01*
X127286691Y-67145250D01*
X126715813Y-67144752D01*
X126188200Y-67362757D01*
X125784176Y-67766077D01*
X125565250Y-68293309D01*
X125564752Y-68864187D01*
X116622783Y-68864187D01*
X116584698Y-68807189D01*
X116119151Y-68496120D01*
X115570000Y-68386887D01*
X115020849Y-68496120D01*
X114555302Y-68807189D01*
X114244233Y-69272736D01*
X114135000Y-69821887D01*
X114135000Y-69878113D01*
X114244233Y-70427264D01*
X114555302Y-70892811D01*
X114891710Y-71117592D01*
X114758200Y-71172757D01*
X114354176Y-71576077D01*
X114135250Y-72103309D01*
X114134752Y-72674187D01*
X105710000Y-72674187D01*
X105710000Y-70821517D01*
X110968088Y-70821517D01*
X111036077Y-71062460D01*
X111555171Y-71247201D01*
X112105448Y-71219230D01*
X112483923Y-71062460D01*
X112551912Y-70821517D01*
X111760000Y-70029605D01*
X110968088Y-70821517D01*
X105710000Y-70821517D01*
X105710000Y-69645171D01*
X110362799Y-69645171D01*
X110390770Y-70195448D01*
X110547540Y-70573923D01*
X110788483Y-70641912D01*
X111580395Y-69850000D01*
X111939605Y-69850000D01*
X112731517Y-70641912D01*
X112972460Y-70573923D01*
X113157201Y-70054829D01*
X113129230Y-69504552D01*
X112972460Y-69126077D01*
X112731517Y-69058088D01*
X111939605Y-69850000D01*
X111580395Y-69850000D01*
X110788483Y-69058088D01*
X110547540Y-69126077D01*
X110362799Y-69645171D01*
X105710000Y-69645171D01*
X105710000Y-68878483D01*
X110968088Y-68878483D01*
X111760000Y-69670395D01*
X112551912Y-68878483D01*
X112483923Y-68637540D01*
X111964829Y-68452799D01*
X111414552Y-68480770D01*
X111036077Y-68637540D01*
X110968088Y-68878483D01*
X105710000Y-68878483D01*
X105710000Y-66324187D01*
X121754752Y-66324187D01*
X121972757Y-66851800D01*
X122376077Y-67255824D01*
X122903309Y-67474750D01*
X123474187Y-67475248D01*
X124001800Y-67257243D01*
X124247954Y-67011517D01*
X157958088Y-67011517D01*
X158026077Y-67252460D01*
X158545171Y-67437201D01*
X159095448Y-67409230D01*
X159473923Y-67252460D01*
X159541912Y-67011517D01*
X158750000Y-66219605D01*
X157958088Y-67011517D01*
X124247954Y-67011517D01*
X124405824Y-66853923D01*
X124624750Y-66326691D01*
X124625248Y-65755813D01*
X124407243Y-65228200D01*
X124233534Y-65054187D01*
X125564752Y-65054187D01*
X125782757Y-65581800D01*
X126186077Y-65985824D01*
X126713309Y-66204750D01*
X127284187Y-66205248D01*
X127811800Y-65987243D01*
X128215824Y-65583923D01*
X128408860Y-65119039D01*
X140848096Y-65119039D01*
X141008959Y-65507423D01*
X141384866Y-65922389D01*
X141890959Y-66161914D01*
X142113000Y-66040629D01*
X142113000Y-64897000D01*
X142367000Y-64897000D01*
X142367000Y-66040629D01*
X142589041Y-66161914D01*
X143095134Y-65922389D01*
X143174142Y-65835171D01*
X157352799Y-65835171D01*
X157380770Y-66385448D01*
X157537540Y-66763923D01*
X157778483Y-66831912D01*
X158570395Y-66040000D01*
X158929605Y-66040000D01*
X159721517Y-66831912D01*
X159962460Y-66763923D01*
X160147201Y-66244829D01*
X160119230Y-65694552D01*
X159962460Y-65316077D01*
X159721517Y-65248088D01*
X158929605Y-66040000D01*
X158570395Y-66040000D01*
X157778483Y-65248088D01*
X157537540Y-65316077D01*
X157352799Y-65835171D01*
X143174142Y-65835171D01*
X143471041Y-65507423D01*
X143631904Y-65119039D01*
X143604129Y-65068483D01*
X157958088Y-65068483D01*
X158750000Y-65860395D01*
X159541912Y-65068483D01*
X159473923Y-64827540D01*
X158954829Y-64642799D01*
X158404552Y-64670770D01*
X158026077Y-64827540D01*
X157958088Y-65068483D01*
X143604129Y-65068483D01*
X143509915Y-64897000D01*
X142367000Y-64897000D01*
X142113000Y-64897000D01*
X140970085Y-64897000D01*
X140848096Y-65119039D01*
X128408860Y-65119039D01*
X128434750Y-65056691D01*
X128435248Y-64485813D01*
X128408452Y-64420961D01*
X140848096Y-64420961D01*
X140970085Y-64643000D01*
X142113000Y-64643000D01*
X142113000Y-63499371D01*
X142367000Y-63499371D01*
X142367000Y-64643000D01*
X143509915Y-64643000D01*
X143631904Y-64420961D01*
X143471041Y-64032577D01*
X143095134Y-63617611D01*
X142589041Y-63378086D01*
X142367000Y-63499371D01*
X142113000Y-63499371D01*
X141890959Y-63378086D01*
X141384866Y-63617611D01*
X141008959Y-64032577D01*
X140848096Y-64420961D01*
X128408452Y-64420961D01*
X128217243Y-63958200D01*
X127813923Y-63554176D01*
X127286691Y-63335250D01*
X126715813Y-63334752D01*
X126188200Y-63552757D01*
X125784176Y-63956077D01*
X125565250Y-64483309D01*
X125564752Y-65054187D01*
X124233534Y-65054187D01*
X124003923Y-64824176D01*
X123476691Y-64605250D01*
X122905813Y-64604752D01*
X122378200Y-64822757D01*
X121974176Y-65226077D01*
X121755250Y-65753309D01*
X121754752Y-66324187D01*
X105710000Y-66324187D01*
X105710000Y-65054187D01*
X110324752Y-65054187D01*
X110542757Y-65581800D01*
X110946077Y-65985824D01*
X111473309Y-66204750D01*
X112044187Y-66205248D01*
X112571800Y-65987243D01*
X112975824Y-65583923D01*
X113194750Y-65056691D01*
X113195248Y-64485813D01*
X112977243Y-63958200D01*
X112573923Y-63554176D01*
X112046691Y-63335250D01*
X111475813Y-63334752D01*
X110948200Y-63552757D01*
X110544176Y-63956077D01*
X110325250Y-64483309D01*
X110324752Y-65054187D01*
X105710000Y-65054187D01*
X105710000Y-62504285D01*
X121804760Y-62504285D01*
X122015169Y-63013515D01*
X122404436Y-63403461D01*
X122913298Y-63614759D01*
X123464285Y-63615240D01*
X123973515Y-63404831D01*
X124363461Y-63015564D01*
X124574759Y-62506702D01*
X124575240Y-61955715D01*
X124364831Y-61446485D01*
X124162886Y-61244187D01*
X125564752Y-61244187D01*
X125782757Y-61771800D01*
X126186077Y-62175824D01*
X126713309Y-62394750D01*
X127284187Y-62395248D01*
X127811800Y-62177243D01*
X128215824Y-61773923D01*
X128408860Y-61309039D01*
X140848096Y-61309039D01*
X141008959Y-61697423D01*
X141384866Y-62112389D01*
X141890959Y-62351914D01*
X142113000Y-62230629D01*
X142113000Y-61087000D01*
X142367000Y-61087000D01*
X142367000Y-62230629D01*
X142589041Y-62351914D01*
X143095134Y-62112389D01*
X143471041Y-61697423D01*
X143631904Y-61309039D01*
X143509915Y-61087000D01*
X142367000Y-61087000D01*
X142113000Y-61087000D01*
X140970085Y-61087000D01*
X140848096Y-61309039D01*
X128408860Y-61309039D01*
X128434750Y-61246691D01*
X128435248Y-60675813D01*
X128408452Y-60610961D01*
X140848096Y-60610961D01*
X140970085Y-60833000D01*
X142113000Y-60833000D01*
X142113000Y-59689371D01*
X142367000Y-59689371D01*
X142367000Y-60833000D01*
X143509915Y-60833000D01*
X143631904Y-60610961D01*
X143471041Y-60222577D01*
X143095134Y-59807611D01*
X142589041Y-59568086D01*
X142367000Y-59689371D01*
X142113000Y-59689371D01*
X141890959Y-59568086D01*
X141384866Y-59807611D01*
X141008959Y-60222577D01*
X140848096Y-60610961D01*
X128408452Y-60610961D01*
X128217243Y-60148200D01*
X127813923Y-59744176D01*
X127286691Y-59525250D01*
X126715813Y-59524752D01*
X126188200Y-59742757D01*
X125784176Y-60146077D01*
X125565250Y-60673309D01*
X125564752Y-61244187D01*
X124162886Y-61244187D01*
X123975564Y-61056539D01*
X123466702Y-60845241D01*
X122915715Y-60844760D01*
X122406485Y-61055169D01*
X122016539Y-61444436D01*
X121805241Y-61953298D01*
X121804760Y-62504285D01*
X105710000Y-62504285D01*
X105710000Y-56875022D01*
X108304584Y-56875022D01*
X108525353Y-57245743D01*
X109497012Y-57639119D01*
X110545247Y-57630713D01*
X111019702Y-57434187D01*
X121754752Y-57434187D01*
X121972757Y-57961800D01*
X122376077Y-58365824D01*
X122903309Y-58584750D01*
X123474187Y-58585248D01*
X124001800Y-58367243D01*
X124405824Y-57963923D01*
X124624750Y-57436691D01*
X124624752Y-57434187D01*
X125564752Y-57434187D01*
X125782757Y-57961800D01*
X126186077Y-58365824D01*
X126713309Y-58584750D01*
X127284187Y-58585248D01*
X127811800Y-58367243D01*
X128215824Y-57963923D01*
X128408860Y-57499039D01*
X140848096Y-57499039D01*
X141008959Y-57887423D01*
X141384866Y-58302389D01*
X141890959Y-58541914D01*
X142113000Y-58420629D01*
X142113000Y-57277000D01*
X142367000Y-57277000D01*
X142367000Y-58420629D01*
X142589041Y-58541914D01*
X143095134Y-58302389D01*
X143471041Y-57887423D01*
X143631904Y-57499039D01*
X143509915Y-57277000D01*
X142367000Y-57277000D01*
X142113000Y-57277000D01*
X140970085Y-57277000D01*
X140848096Y-57499039D01*
X128408860Y-57499039D01*
X128434750Y-57436691D01*
X128435248Y-56865813D01*
X128408452Y-56800961D01*
X140848096Y-56800961D01*
X140970085Y-57023000D01*
X142113000Y-57023000D01*
X142113000Y-55879371D01*
X142367000Y-55879371D01*
X142367000Y-57023000D01*
X143509915Y-57023000D01*
X143631904Y-56800961D01*
X143471041Y-56412577D01*
X143095134Y-55997611D01*
X142787234Y-55851887D01*
X144615000Y-55851887D01*
X144615000Y-55908113D01*
X144724233Y-56457264D01*
X145035302Y-56922811D01*
X145500849Y-57233880D01*
X146050000Y-57343113D01*
X146599151Y-57233880D01*
X147064698Y-56922811D01*
X147375767Y-56457264D01*
X147485000Y-55908113D01*
X147485000Y-55851887D01*
X148425000Y-55851887D01*
X148425000Y-55908113D01*
X148534233Y-56457264D01*
X148845302Y-56922811D01*
X149310849Y-57233880D01*
X149860000Y-57343113D01*
X150409151Y-57233880D01*
X150874698Y-56922811D01*
X151185767Y-56457264D01*
X151244063Y-56164187D01*
X152234752Y-56164187D01*
X152452757Y-56691800D01*
X152856077Y-57095824D01*
X153383309Y-57314750D01*
X153954187Y-57315248D01*
X154481800Y-57097243D01*
X154704408Y-56875022D01*
X158304584Y-56875022D01*
X158525353Y-57245743D01*
X159497012Y-57639119D01*
X160545247Y-57630713D01*
X161474647Y-57245743D01*
X161695416Y-56875022D01*
X160000000Y-55179605D01*
X158304584Y-56875022D01*
X154704408Y-56875022D01*
X154885824Y-56693923D01*
X155104750Y-56166691D01*
X155105248Y-55595813D01*
X154887243Y-55068200D01*
X154483923Y-54664176D01*
X154081348Y-54497012D01*
X157360881Y-54497012D01*
X157369287Y-55545247D01*
X157754257Y-56474647D01*
X158124978Y-56695416D01*
X159820395Y-55000000D01*
X160179605Y-55000000D01*
X161875022Y-56695416D01*
X162245743Y-56474647D01*
X162639119Y-55502988D01*
X162630713Y-54454753D01*
X162245743Y-53525353D01*
X161875022Y-53304584D01*
X160179605Y-55000000D01*
X159820395Y-55000000D01*
X158124978Y-53304584D01*
X157754257Y-53525353D01*
X157360881Y-54497012D01*
X154081348Y-54497012D01*
X153956691Y-54445250D01*
X153385813Y-54444752D01*
X152858200Y-54662757D01*
X152454176Y-55066077D01*
X152235250Y-55593309D01*
X152234752Y-56164187D01*
X151244063Y-56164187D01*
X151295000Y-55908113D01*
X151295000Y-55851887D01*
X151185767Y-55302736D01*
X150874698Y-54837189D01*
X150409151Y-54526120D01*
X149860000Y-54416887D01*
X149310849Y-54526120D01*
X148845302Y-54837189D01*
X148534233Y-55302736D01*
X148425000Y-55851887D01*
X147485000Y-55851887D01*
X147375767Y-55302736D01*
X147064698Y-54837189D01*
X146599151Y-54526120D01*
X146050000Y-54416887D01*
X145500849Y-54526120D01*
X145035302Y-54837189D01*
X144724233Y-55302736D01*
X144615000Y-55851887D01*
X142787234Y-55851887D01*
X142589041Y-55758086D01*
X142367000Y-55879371D01*
X142113000Y-55879371D01*
X141890959Y-55758086D01*
X141384866Y-55997611D01*
X141008959Y-56412577D01*
X140848096Y-56800961D01*
X128408452Y-56800961D01*
X128217243Y-56338200D01*
X127813923Y-55934176D01*
X127286691Y-55715250D01*
X126715813Y-55714752D01*
X126188200Y-55932757D01*
X125784176Y-56336077D01*
X125565250Y-56863309D01*
X125564752Y-57434187D01*
X124624752Y-57434187D01*
X124625248Y-56865813D01*
X124407243Y-56338200D01*
X124003923Y-55934176D01*
X123476691Y-55715250D01*
X122905813Y-55714752D01*
X122378200Y-55932757D01*
X121974176Y-56336077D01*
X121755250Y-56863309D01*
X121754752Y-57434187D01*
X111019702Y-57434187D01*
X111474647Y-57245743D01*
X111695416Y-56875022D01*
X110000000Y-55179605D01*
X108304584Y-56875022D01*
X105710000Y-56875022D01*
X105710000Y-54497012D01*
X107360881Y-54497012D01*
X107369287Y-55545247D01*
X107754257Y-56474647D01*
X108124978Y-56695416D01*
X109820395Y-55000000D01*
X110179605Y-55000000D01*
X111875022Y-56695416D01*
X112245743Y-56474647D01*
X112639119Y-55502988D01*
X112634237Y-54894187D01*
X114134752Y-54894187D01*
X114352757Y-55421800D01*
X114756077Y-55825824D01*
X115283309Y-56044750D01*
X115854187Y-56045248D01*
X116381800Y-55827243D01*
X116785824Y-55423923D01*
X117004750Y-54896691D01*
X117005248Y-54325813D01*
X116787243Y-53798200D01*
X116383923Y-53394176D01*
X115856691Y-53175250D01*
X115285813Y-53174752D01*
X114758200Y-53392757D01*
X114354176Y-53796077D01*
X114135250Y-54323309D01*
X114134752Y-54894187D01*
X112634237Y-54894187D01*
X112630713Y-54454753D01*
X112245743Y-53525353D01*
X111875022Y-53304584D01*
X110179605Y-55000000D01*
X109820395Y-55000000D01*
X108124978Y-53304584D01*
X107754257Y-53525353D01*
X107360881Y-54497012D01*
X105710000Y-54497012D01*
X105710000Y-53124978D01*
X108304584Y-53124978D01*
X110000000Y-54820395D01*
X111695416Y-53124978D01*
X111474647Y-52754257D01*
X110698417Y-52440000D01*
X131802560Y-52440000D01*
X131802560Y-54240000D01*
X131846838Y-54475317D01*
X131985910Y-54691441D01*
X132198110Y-54836431D01*
X132450000Y-54887440D01*
X134250000Y-54887440D01*
X134485317Y-54843162D01*
X134701441Y-54704090D01*
X134846431Y-54491890D01*
X134850567Y-54471466D01*
X135019357Y-54640551D01*
X135583330Y-54874733D01*
X136193991Y-54875265D01*
X136758371Y-54642068D01*
X136980668Y-54420159D01*
X137529446Y-54420159D01*
X137615852Y-54676643D01*
X138189336Y-54886458D01*
X138799460Y-54860839D01*
X139244148Y-54676643D01*
X139330554Y-54420159D01*
X138430000Y-53519605D01*
X137529446Y-54420159D01*
X136980668Y-54420159D01*
X137190551Y-54210643D01*
X137199203Y-54189806D01*
X137349841Y-54240554D01*
X138250395Y-53340000D01*
X138609605Y-53340000D01*
X139510159Y-54240554D01*
X139766643Y-54154148D01*
X139976458Y-53580664D01*
X139957324Y-53124978D01*
X158304584Y-53124978D01*
X160000000Y-54820395D01*
X161695416Y-53124978D01*
X161474647Y-52754257D01*
X160502988Y-52360881D01*
X159454753Y-52369287D01*
X158525353Y-52754257D01*
X158304584Y-53124978D01*
X139957324Y-53124978D01*
X139950839Y-52970540D01*
X139766643Y-52525852D01*
X139510159Y-52439446D01*
X138609605Y-53340000D01*
X138250395Y-53340000D01*
X137349841Y-52439446D01*
X137199673Y-52490035D01*
X137192068Y-52471629D01*
X136980650Y-52259841D01*
X137529446Y-52259841D01*
X138430000Y-53160395D01*
X139330554Y-52259841D01*
X139244148Y-52003357D01*
X138670664Y-51793542D01*
X138060540Y-51819161D01*
X137615852Y-52003357D01*
X137529446Y-52259841D01*
X136980650Y-52259841D01*
X136760643Y-52039449D01*
X136196670Y-51805267D01*
X135586009Y-51804735D01*
X135021629Y-52037932D01*
X134853387Y-52205880D01*
X134853162Y-52204683D01*
X134714090Y-51988559D01*
X134501890Y-51843569D01*
X134250000Y-51792560D01*
X132450000Y-51792560D01*
X132214683Y-51836838D01*
X131998559Y-51975910D01*
X131853569Y-52188110D01*
X131802560Y-52440000D01*
X110698417Y-52440000D01*
X110502988Y-52360881D01*
X109454753Y-52369287D01*
X108525353Y-52754257D01*
X108304584Y-53124978D01*
X105710000Y-53124978D01*
X105710000Y-50710000D01*
X164290000Y-50710000D01*
X164290000Y-99290000D01*
X164290000Y-99290000D01*
G37*
X164290000Y-99290000D02*
X105710000Y-99290000D01*
X105710000Y-96875022D01*
X108304584Y-96875022D01*
X108525353Y-97245743D01*
X109497012Y-97639119D01*
X110545247Y-97630713D01*
X111474647Y-97245743D01*
X111695416Y-96875022D01*
X158304584Y-96875022D01*
X158525353Y-97245743D01*
X159497012Y-97639119D01*
X160545247Y-97630713D01*
X161474647Y-97245743D01*
X161695416Y-96875022D01*
X160000000Y-95179605D01*
X158304584Y-96875022D01*
X111695416Y-96875022D01*
X110000000Y-95179605D01*
X108304584Y-96875022D01*
X105710000Y-96875022D01*
X105710000Y-94497012D01*
X107360881Y-94497012D01*
X107369287Y-95545247D01*
X107754257Y-96474647D01*
X108124978Y-96695416D01*
X109820395Y-95000000D01*
X110179605Y-95000000D01*
X111875022Y-96695416D01*
X112245743Y-96474647D01*
X112630496Y-95524285D01*
X144664760Y-95524285D01*
X144875169Y-96033515D01*
X145264436Y-96423461D01*
X145773298Y-96634759D01*
X146324285Y-96635240D01*
X146833515Y-96424831D01*
X147223461Y-96035564D01*
X147434759Y-95526702D01*
X147435240Y-94975715D01*
X147237445Y-94497012D01*
X157360881Y-94497012D01*
X157369287Y-95545247D01*
X157754257Y-96474647D01*
X158124978Y-96695416D01*
X159820395Y-95000000D01*
X160179605Y-95000000D01*
X161875022Y-96695416D01*
X162245743Y-96474647D01*
X162639119Y-95502988D01*
X162630713Y-94454753D01*
X162245743Y-93525353D01*
X161875022Y-93304584D01*
X160179605Y-95000000D01*
X159820395Y-95000000D01*
X158124978Y-93304584D01*
X157754257Y-93525353D01*
X157360881Y-94497012D01*
X147237445Y-94497012D01*
X147224831Y-94466485D01*
X146835564Y-94076539D01*
X146326702Y-93865241D01*
X145775715Y-93864760D01*
X145266485Y-94075169D01*
X144876539Y-94464436D01*
X144665241Y-94973298D01*
X144664760Y-95524285D01*
X112630496Y-95524285D01*
X112639119Y-95502988D01*
X112630713Y-94454753D01*
X112245743Y-93525353D01*
X111875022Y-93304584D01*
X110179605Y-95000000D01*
X109820395Y-95000000D01*
X108124978Y-93304584D01*
X107754257Y-93525353D01*
X107360881Y-94497012D01*
X105710000Y-94497012D01*
X105710000Y-93124978D01*
X108304584Y-93124978D01*
X110000000Y-94820395D01*
X111640394Y-93180000D01*
X117932560Y-93180000D01*
X117932560Y-94780000D01*
X117976838Y-95015317D01*
X118115910Y-95231441D01*
X118328110Y-95376431D01*
X118580000Y-95427440D01*
X120180000Y-95427440D01*
X120415317Y-95383162D01*
X120631441Y-95244090D01*
X120776431Y-95031890D01*
X120827440Y-94780000D01*
X120827440Y-93180000D01*
X120804680Y-93059039D01*
X125608096Y-93059039D01*
X125768959Y-93447423D01*
X126144866Y-93862389D01*
X126650959Y-94101914D01*
X126873000Y-93980629D01*
X126873000Y-92837000D01*
X127127000Y-92837000D01*
X127127000Y-93980629D01*
X127349041Y-94101914D01*
X127855134Y-93862389D01*
X128231041Y-93447423D01*
X128391904Y-93059039D01*
X128356275Y-92994187D01*
X140804752Y-92994187D01*
X141022757Y-93521800D01*
X141426077Y-93925824D01*
X141953309Y-94144750D01*
X142524187Y-94145248D01*
X143051800Y-93927243D01*
X143455824Y-93523923D01*
X143621480Y-93124978D01*
X158304584Y-93124978D01*
X160000000Y-94820395D01*
X161695416Y-93124978D01*
X161474647Y-92754257D01*
X160502988Y-92360881D01*
X159454753Y-92369287D01*
X158525353Y-92754257D01*
X158304584Y-93124978D01*
X143621480Y-93124978D01*
X143674750Y-92996691D01*
X143675248Y-92425813D01*
X143457243Y-91898200D01*
X143053923Y-91494176D01*
X142526691Y-91275250D01*
X141955813Y-91274752D01*
X141428200Y-91492757D01*
X141024176Y-91896077D01*
X140805250Y-92423309D01*
X140804752Y-92994187D01*
X128356275Y-92994187D01*
X128269915Y-92837000D01*
X127127000Y-92837000D01*
X126873000Y-92837000D01*
X125730085Y-92837000D01*
X125608096Y-93059039D01*
X120804680Y-93059039D01*
X120783162Y-92944683D01*
X120644090Y-92728559D01*
X120431890Y-92583569D01*
X120180000Y-92532560D01*
X118580000Y-92532560D01*
X118344683Y-92576838D01*
X118128559Y-92715910D01*
X117983569Y-92928110D01*
X117932560Y-93180000D01*
X111640394Y-93180000D01*
X111695416Y-93124978D01*
X111474647Y-92754257D01*
X110503186Y-92360961D01*
X125608096Y-92360961D01*
X125730085Y-92583000D01*
X126873000Y-92583000D01*
X126873000Y-91439371D01*
X127127000Y-91439371D01*
X127127000Y-92583000D01*
X128269915Y-92583000D01*
X128391904Y-92360961D01*
X128231041Y-91972577D01*
X127855134Y-91557611D01*
X127349041Y-91318086D01*
X127127000Y-91439371D01*
X126873000Y-91439371D01*
X126650959Y-91318086D01*
X126144866Y-91557611D01*
X125768959Y-91972577D01*
X125608096Y-92360961D01*
X110503186Y-92360961D01*
X110502988Y-92360881D01*
X109454753Y-92369287D01*
X108525353Y-92754257D01*
X108304584Y-93124978D01*
X105710000Y-93124978D01*
X105710000Y-90454187D01*
X144614752Y-90454187D01*
X144832757Y-90981800D01*
X145236077Y-91385824D01*
X145763309Y-91604750D01*
X146334187Y-91605248D01*
X146861800Y-91387243D01*
X147265824Y-90983923D01*
X147484750Y-90456691D01*
X147485248Y-89885813D01*
X147267243Y-89358200D01*
X146863923Y-88954176D01*
X146336691Y-88735250D01*
X145765813Y-88734752D01*
X145238200Y-88952757D01*
X144834176Y-89356077D01*
X144615250Y-89883309D01*
X144614752Y-90454187D01*
X105710000Y-90454187D01*
X105710000Y-89249039D01*
X125608096Y-89249039D01*
X125768959Y-89637423D01*
X126144866Y-90052389D01*
X126650959Y-90291914D01*
X126873000Y-90170629D01*
X126873000Y-89027000D01*
X127127000Y-89027000D01*
X127127000Y-90170629D01*
X127349041Y-90291914D01*
X127855134Y-90052389D01*
X128231041Y-89637423D01*
X128391904Y-89249039D01*
X128356275Y-89184187D01*
X140804752Y-89184187D01*
X141022757Y-89711800D01*
X141426077Y-90115824D01*
X141953309Y-90334750D01*
X142524187Y-90335248D01*
X143051800Y-90117243D01*
X143455824Y-89713923D01*
X143674750Y-89186691D01*
X143675248Y-88615813D01*
X143457243Y-88088200D01*
X143053923Y-87684176D01*
X142526691Y-87465250D01*
X141955813Y-87464752D01*
X141428200Y-87682757D01*
X141024176Y-88086077D01*
X140805250Y-88613309D01*
X140804752Y-89184187D01*
X128356275Y-89184187D01*
X128269915Y-89027000D01*
X127127000Y-89027000D01*
X126873000Y-89027000D01*
X125730085Y-89027000D01*
X125608096Y-89249039D01*
X105710000Y-89249039D01*
X105710000Y-87601887D01*
X114135000Y-87601887D01*
X114135000Y-87658113D01*
X114244233Y-88207264D01*
X114555302Y-88672811D01*
X115020849Y-88983880D01*
X115570000Y-89093113D01*
X116119151Y-88983880D01*
X116584698Y-88672811D01*
X116666115Y-88550961D01*
X125608096Y-88550961D01*
X125730085Y-88773000D01*
X126873000Y-88773000D01*
X126873000Y-87629371D01*
X127127000Y-87629371D01*
X127127000Y-88773000D01*
X128269915Y-88773000D01*
X128391904Y-88550961D01*
X128231041Y-88162577D01*
X127855134Y-87747611D01*
X127349041Y-87508086D01*
X127127000Y-87629371D01*
X126873000Y-87629371D01*
X126650959Y-87508086D01*
X126144866Y-87747611D01*
X125768959Y-88162577D01*
X125608096Y-88550961D01*
X116666115Y-88550961D01*
X116895767Y-88207264D01*
X117005000Y-87658113D01*
X117005000Y-87601887D01*
X116895767Y-87052736D01*
X116616167Y-86634285D01*
X144664760Y-86634285D01*
X144875169Y-87143515D01*
X145264436Y-87533461D01*
X145773298Y-87744759D01*
X146324285Y-87745240D01*
X146833515Y-87534831D01*
X147223461Y-87145564D01*
X147434759Y-86636702D01*
X147435240Y-86085715D01*
X147224831Y-85576485D01*
X146835564Y-85186539D01*
X146326702Y-84975241D01*
X145775715Y-84974760D01*
X145266485Y-85185169D01*
X144876539Y-85574436D01*
X144665241Y-86083298D01*
X144664760Y-86634285D01*
X116616167Y-86634285D01*
X116584698Y-86587189D01*
X116119151Y-86276120D01*
X115570000Y-86166887D01*
X115020849Y-86276120D01*
X114555302Y-86587189D01*
X114244233Y-87052736D01*
X114135000Y-87601887D01*
X105710000Y-87601887D01*
X105710000Y-85439039D01*
X125608096Y-85439039D01*
X125768959Y-85827423D01*
X126144866Y-86242389D01*
X126650959Y-86481914D01*
X126873000Y-86360629D01*
X126873000Y-85217000D01*
X127127000Y-85217000D01*
X127127000Y-86360629D01*
X127349041Y-86481914D01*
X127855134Y-86242389D01*
X128231041Y-85827423D01*
X128391904Y-85439039D01*
X128356275Y-85374187D01*
X140804752Y-85374187D01*
X141022757Y-85901800D01*
X141426077Y-86305824D01*
X141953309Y-86524750D01*
X142524187Y-86525248D01*
X143051800Y-86307243D01*
X143455824Y-85903923D01*
X143674750Y-85376691D01*
X143675248Y-84805813D01*
X143457243Y-84278200D01*
X143053923Y-83874176D01*
X142526691Y-83655250D01*
X141955813Y-83654752D01*
X141428200Y-83872757D01*
X141024176Y-84276077D01*
X140805250Y-84803309D01*
X140804752Y-85374187D01*
X128356275Y-85374187D01*
X128269915Y-85217000D01*
X127127000Y-85217000D01*
X126873000Y-85217000D01*
X125730085Y-85217000D01*
X125608096Y-85439039D01*
X105710000Y-85439039D01*
X105710000Y-84740961D01*
X125608096Y-84740961D01*
X125730085Y-84963000D01*
X126873000Y-84963000D01*
X126873000Y-83819371D01*
X127127000Y-83819371D01*
X127127000Y-84963000D01*
X128269915Y-84963000D01*
X128391904Y-84740961D01*
X128231041Y-84352577D01*
X127855134Y-83937611D01*
X127349041Y-83698086D01*
X127127000Y-83819371D01*
X126873000Y-83819371D01*
X126650959Y-83698086D01*
X126144866Y-83937611D01*
X125768959Y-84352577D01*
X125608096Y-84740961D01*
X105710000Y-84740961D01*
X105710000Y-80380000D01*
X107672560Y-80380000D01*
X107672560Y-82180000D01*
X107716838Y-82415317D01*
X107855910Y-82631441D01*
X108068110Y-82776431D01*
X108320000Y-82827440D01*
X110120000Y-82827440D01*
X110355317Y-82783162D01*
X110571441Y-82644090D01*
X110716431Y-82431890D01*
X110767440Y-82180000D01*
X110767440Y-81251887D01*
X117945000Y-81251887D01*
X117945000Y-81308113D01*
X118054233Y-81857264D01*
X118365302Y-82322811D01*
X118830849Y-82633880D01*
X119380000Y-82743113D01*
X119929151Y-82633880D01*
X120394698Y-82322811D01*
X120705767Y-81857264D01*
X120764063Y-81564187D01*
X121754752Y-81564187D01*
X121972757Y-82091800D01*
X122376077Y-82495824D01*
X122903309Y-82714750D01*
X123474187Y-82715248D01*
X124001800Y-82497243D01*
X124405824Y-82093923D01*
X124624750Y-81566691D01*
X124624752Y-81564187D01*
X125564752Y-81564187D01*
X125782757Y-82091800D01*
X126186077Y-82495824D01*
X126713309Y-82714750D01*
X127284187Y-82715248D01*
X127811800Y-82497243D01*
X128215824Y-82093923D01*
X128434750Y-81566691D01*
X128435000Y-81280000D01*
X140776887Y-81280000D01*
X140886120Y-81829151D01*
X141197189Y-82294698D01*
X141662736Y-82605767D01*
X142211887Y-82715000D01*
X142268113Y-82715000D01*
X142817264Y-82605767D01*
X143282811Y-82294698D01*
X143593880Y-81829151D01*
X143646584Y-81564187D01*
X144614752Y-81564187D01*
X144832757Y-82091800D01*
X145236077Y-82495824D01*
X145763309Y-82714750D01*
X146334187Y-82715248D01*
X146861800Y-82497243D01*
X147265824Y-82093923D01*
X147484750Y-81566691D01*
X147485248Y-80995813D01*
X147267243Y-80468200D01*
X147179197Y-80380000D01*
X159742560Y-80380000D01*
X159742560Y-82180000D01*
X159786838Y-82415317D01*
X159925910Y-82631441D01*
X160138110Y-82776431D01*
X160390000Y-82827440D01*
X162190000Y-82827440D01*
X162425317Y-82783162D01*
X162641441Y-82644090D01*
X162786431Y-82431890D01*
X162837440Y-82180000D01*
X162837440Y-80380000D01*
X162793162Y-80144683D01*
X162654090Y-79928559D01*
X162450426Y-79789402D01*
X162484718Y-79755110D01*
X162370161Y-79640553D01*
X162626643Y-79554148D01*
X162836458Y-78980664D01*
X162810839Y-78370540D01*
X162626643Y-77925852D01*
X162370159Y-77839446D01*
X161469605Y-78740000D01*
X161483748Y-78754143D01*
X161304143Y-78933748D01*
X161290000Y-78919605D01*
X161275858Y-78933748D01*
X161096253Y-78754143D01*
X161110395Y-78740000D01*
X160209841Y-77839446D01*
X159953357Y-77925852D01*
X159743542Y-78499336D01*
X159769161Y-79109460D01*
X159953357Y-79554148D01*
X160209839Y-79640553D01*
X160095282Y-79755110D01*
X160131760Y-79791588D01*
X159938559Y-79915910D01*
X159793569Y-80128110D01*
X159742560Y-80380000D01*
X147179197Y-80380000D01*
X146863923Y-80064176D01*
X146336691Y-79845250D01*
X145765813Y-79844752D01*
X145238200Y-80062757D01*
X144834176Y-80466077D01*
X144615250Y-80993309D01*
X144614752Y-81564187D01*
X143646584Y-81564187D01*
X143703113Y-81280000D01*
X143593880Y-80730849D01*
X143282811Y-80265302D01*
X142817264Y-79954233D01*
X142268113Y-79845000D01*
X142211887Y-79845000D01*
X141662736Y-79954233D01*
X141197189Y-80265302D01*
X140886120Y-80730849D01*
X140776887Y-81280000D01*
X128435000Y-81280000D01*
X128435248Y-80995813D01*
X128217243Y-80468200D01*
X127813923Y-80064176D01*
X127286691Y-79845250D01*
X126715813Y-79844752D01*
X126188200Y-80062757D01*
X125784176Y-80466077D01*
X125565250Y-80993309D01*
X125564752Y-81564187D01*
X124624752Y-81564187D01*
X124625248Y-80995813D01*
X124407243Y-80468200D01*
X124003923Y-80064176D01*
X123476691Y-79845250D01*
X122905813Y-79844752D01*
X122378200Y-80062757D01*
X121974176Y-80466077D01*
X121755250Y-80993309D01*
X121754752Y-81564187D01*
X120764063Y-81564187D01*
X120815000Y-81308113D01*
X120815000Y-81251887D01*
X120705767Y-80702736D01*
X120394698Y-80237189D01*
X119929151Y-79926120D01*
X119380000Y-79816887D01*
X118830849Y-79926120D01*
X118365302Y-80237189D01*
X118054233Y-80702736D01*
X117945000Y-81251887D01*
X110767440Y-81251887D01*
X110767440Y-80380000D01*
X110723162Y-80144683D01*
X110584090Y-79928559D01*
X110380426Y-79789402D01*
X110414718Y-79755110D01*
X110300161Y-79640553D01*
X110556643Y-79554148D01*
X110766458Y-78980664D01*
X110740839Y-78370540D01*
X110556643Y-77925852D01*
X110300159Y-77839446D01*
X109399605Y-78740000D01*
X109413748Y-78754143D01*
X109234143Y-78933748D01*
X109220000Y-78919605D01*
X109205858Y-78933748D01*
X109026253Y-78754143D01*
X109040395Y-78740000D01*
X108139841Y-77839446D01*
X107883357Y-77925852D01*
X107673542Y-78499336D01*
X107699161Y-79109460D01*
X107883357Y-79554148D01*
X108139839Y-79640553D01*
X108025282Y-79755110D01*
X108061760Y-79791588D01*
X107868559Y-79915910D01*
X107723569Y-80128110D01*
X107672560Y-80380000D01*
X105710000Y-80380000D01*
X105710000Y-77659841D01*
X108319446Y-77659841D01*
X109220000Y-78560395D01*
X110026208Y-77754187D01*
X144614752Y-77754187D01*
X144832757Y-78281800D01*
X145236077Y-78685824D01*
X145763309Y-78904750D01*
X146334187Y-78905248D01*
X146861800Y-78687243D01*
X147265824Y-78283923D01*
X147484750Y-77756691D01*
X147484834Y-77659841D01*
X160389446Y-77659841D01*
X161290000Y-78560395D01*
X162190554Y-77659841D01*
X162104148Y-77403357D01*
X161530664Y-77193542D01*
X160920540Y-77219161D01*
X160475852Y-77403357D01*
X160389446Y-77659841D01*
X147484834Y-77659841D01*
X147485248Y-77185813D01*
X147267243Y-76658200D01*
X146863923Y-76254176D01*
X146336691Y-76035250D01*
X145765813Y-76034752D01*
X145238200Y-76252757D01*
X144834176Y-76656077D01*
X144615250Y-77183309D01*
X144614752Y-77754187D01*
X110026208Y-77754187D01*
X110120554Y-77659841D01*
X110034148Y-77403357D01*
X109460664Y-77193542D01*
X108850540Y-77219161D01*
X108405852Y-77403357D01*
X108319446Y-77659841D01*
X105710000Y-77659841D01*
X105710000Y-76474285D01*
X121804760Y-76474285D01*
X122015169Y-76983515D01*
X122404436Y-77373461D01*
X122913298Y-77584759D01*
X123464285Y-77585240D01*
X123973515Y-77374831D01*
X124363461Y-76985564D01*
X124574759Y-76476702D01*
X124575240Y-75925715D01*
X124364831Y-75416485D01*
X123975564Y-75026539D01*
X123684805Y-74905805D01*
X127035000Y-74905805D01*
X127035000Y-74954195D01*
X127129009Y-75426809D01*
X127396723Y-75827472D01*
X127797386Y-76095186D01*
X128270000Y-76189195D01*
X128305000Y-76182233D01*
X128305000Y-76224195D01*
X128399009Y-76696809D01*
X128666723Y-77097472D01*
X129067386Y-77365186D01*
X129540000Y-77459195D01*
X130012614Y-77365186D01*
X130413277Y-77097472D01*
X130680991Y-76696809D01*
X130775000Y-76224195D01*
X130775000Y-76175805D01*
X130680991Y-75703191D01*
X130413277Y-75302528D01*
X130012614Y-75034814D01*
X129998261Y-75031959D01*
X130012614Y-75029104D01*
X130413277Y-74761390D01*
X130680991Y-74360727D01*
X130775000Y-73888113D01*
X130775000Y-73635805D01*
X137195000Y-73635805D01*
X137195000Y-73684195D01*
X137289009Y-74156809D01*
X137556723Y-74557472D01*
X137957386Y-74825186D01*
X137971739Y-74828041D01*
X137957386Y-74830896D01*
X137556723Y-75098610D01*
X137289009Y-75499273D01*
X137195000Y-75971887D01*
X137195000Y-76428113D01*
X137289009Y-76900727D01*
X137556723Y-77301390D01*
X137957386Y-77569104D01*
X138430000Y-77663113D01*
X138902614Y-77569104D01*
X139303277Y-77301390D01*
X139570991Y-76900727D01*
X139665000Y-76428113D01*
X139665000Y-76182233D01*
X139700000Y-76189195D01*
X140172614Y-76095186D01*
X140573277Y-75827472D01*
X140840991Y-75426809D01*
X140935000Y-74954195D01*
X140935000Y-74905805D01*
X140840991Y-74433191D01*
X140573277Y-74032528D01*
X140172614Y-73764814D01*
X139700000Y-73670805D01*
X139665000Y-73677767D01*
X139665000Y-73635805D01*
X139570991Y-73163191D01*
X139303277Y-72762528D01*
X139156246Y-72664285D01*
X144664760Y-72664285D01*
X144875169Y-73173515D01*
X145264436Y-73563461D01*
X145773298Y-73774759D01*
X146324285Y-73775240D01*
X146833515Y-73564831D01*
X147223461Y-73175564D01*
X147434759Y-72666702D01*
X147435240Y-72115715D01*
X147224831Y-71606485D01*
X147022886Y-71404187D01*
X148424752Y-71404187D01*
X148642757Y-71931800D01*
X149046077Y-72335824D01*
X149573309Y-72554750D01*
X150144187Y-72555248D01*
X150671800Y-72337243D01*
X151075824Y-71933923D01*
X151294750Y-71406691D01*
X151295024Y-71091887D01*
X152235000Y-71091887D01*
X152235000Y-71148113D01*
X152344233Y-71697264D01*
X152655302Y-72162811D01*
X153120849Y-72473880D01*
X153670000Y-72583113D01*
X154219151Y-72473880D01*
X154684698Y-72162811D01*
X154995767Y-71697264D01*
X155054063Y-71404187D01*
X157314752Y-71404187D01*
X157532757Y-71931800D01*
X157936077Y-72335824D01*
X158463309Y-72554750D01*
X159034187Y-72555248D01*
X159561800Y-72337243D01*
X159965824Y-71933923D01*
X160184750Y-71406691D01*
X160185248Y-70835813D01*
X159967243Y-70308200D01*
X159563923Y-69904176D01*
X159036691Y-69685250D01*
X158465813Y-69684752D01*
X157938200Y-69902757D01*
X157534176Y-70306077D01*
X157315250Y-70833309D01*
X157314752Y-71404187D01*
X155054063Y-71404187D01*
X155105000Y-71148113D01*
X155105000Y-71091887D01*
X154995767Y-70542736D01*
X154684698Y-70077189D01*
X154219151Y-69766120D01*
X153670000Y-69656887D01*
X153120849Y-69766120D01*
X152655302Y-70077189D01*
X152344233Y-70542736D01*
X152235000Y-71091887D01*
X151295024Y-71091887D01*
X151295248Y-70835813D01*
X151077243Y-70308200D01*
X150673923Y-69904176D01*
X150146691Y-69685250D01*
X149575813Y-69684752D01*
X149048200Y-69902757D01*
X148644176Y-70306077D01*
X148425250Y-70833309D01*
X148424752Y-71404187D01*
X147022886Y-71404187D01*
X146835564Y-71216539D01*
X146326702Y-71005241D01*
X145775715Y-71004760D01*
X145266485Y-71215169D01*
X144876539Y-71604436D01*
X144665241Y-72113298D01*
X144664760Y-72664285D01*
X139156246Y-72664285D01*
X138902614Y-72494814D01*
X138430000Y-72400805D01*
X137957386Y-72494814D01*
X137556723Y-72762528D01*
X137289009Y-73163191D01*
X137195000Y-73635805D01*
X130775000Y-73635805D01*
X130775000Y-73431887D01*
X130680991Y-72959273D01*
X130413277Y-72558610D01*
X130012614Y-72290896D01*
X129540000Y-72196887D01*
X129067386Y-72290896D01*
X128666723Y-72558610D01*
X128399009Y-72959273D01*
X128305000Y-73431887D01*
X128305000Y-73677767D01*
X128270000Y-73670805D01*
X127797386Y-73764814D01*
X127396723Y-74032528D01*
X127129009Y-74433191D01*
X127035000Y-74905805D01*
X123684805Y-74905805D01*
X123466702Y-74815241D01*
X122915715Y-74814760D01*
X122406485Y-75025169D01*
X122016539Y-75414436D01*
X121805241Y-75923298D01*
X121804760Y-76474285D01*
X105710000Y-76474285D01*
X105710000Y-72674187D01*
X114134752Y-72674187D01*
X114352757Y-73201800D01*
X114756077Y-73605824D01*
X115283309Y-73824750D01*
X115854187Y-73825248D01*
X116381800Y-73607243D01*
X116785824Y-73203923D01*
X117004750Y-72676691D01*
X117005248Y-72105813D01*
X116787243Y-71578200D01*
X116603649Y-71394285D01*
X121804760Y-71394285D01*
X122015169Y-71903515D01*
X122404436Y-72293461D01*
X122913298Y-72504759D01*
X123464285Y-72505240D01*
X123973515Y-72294831D01*
X124363461Y-71905564D01*
X124574759Y-71396702D01*
X124575240Y-70845715D01*
X124364831Y-70336485D01*
X123975564Y-69946539D01*
X123466702Y-69735241D01*
X122915715Y-69734760D01*
X122406485Y-69945169D01*
X122016539Y-70334436D01*
X121805241Y-70843298D01*
X121804760Y-71394285D01*
X116603649Y-71394285D01*
X116383923Y-71174176D01*
X116248046Y-71117755D01*
X116584698Y-70892811D01*
X116895767Y-70427264D01*
X117005000Y-69878113D01*
X117005000Y-69821887D01*
X116895767Y-69272736D01*
X116622783Y-68864187D01*
X125564752Y-68864187D01*
X125782757Y-69391800D01*
X126186077Y-69795824D01*
X126713309Y-70014750D01*
X127284187Y-70015248D01*
X127811800Y-69797243D01*
X128215824Y-69393923D01*
X128434750Y-68866691D01*
X128435000Y-68580000D01*
X140776887Y-68580000D01*
X140886120Y-69129151D01*
X141197189Y-69594698D01*
X141662736Y-69905767D01*
X142211887Y-70015000D01*
X142268113Y-70015000D01*
X142817264Y-69905767D01*
X143282811Y-69594698D01*
X143593880Y-69129151D01*
X143703113Y-68580000D01*
X143593880Y-68030849D01*
X143426268Y-67780000D01*
X144602560Y-67780000D01*
X144602560Y-69380000D01*
X144646838Y-69615317D01*
X144785910Y-69831441D01*
X144998110Y-69976431D01*
X145250000Y-70027440D01*
X146850000Y-70027440D01*
X147085317Y-69983162D01*
X147301441Y-69844090D01*
X147446431Y-69631890D01*
X147497440Y-69380000D01*
X147497440Y-67780000D01*
X147453162Y-67544683D01*
X147314090Y-67328559D01*
X147101890Y-67183569D01*
X146850000Y-67132560D01*
X145250000Y-67132560D01*
X145014683Y-67176838D01*
X144798559Y-67315910D01*
X144653569Y-67528110D01*
X144602560Y-67780000D01*
X143426268Y-67780000D01*
X143282811Y-67565302D01*
X142817264Y-67254233D01*
X142268113Y-67145000D01*
X142211887Y-67145000D01*
X141662736Y-67254233D01*
X141197189Y-67565302D01*
X140886120Y-68030849D01*
X140776887Y-68580000D01*
X128435000Y-68580000D01*
X128435248Y-68295813D01*
X128217243Y-67768200D01*
X127813923Y-67364176D01*
X127286691Y-67145250D01*
X126715813Y-67144752D01*
X126188200Y-67362757D01*
X125784176Y-67766077D01*
X125565250Y-68293309D01*
X125564752Y-68864187D01*
X116622783Y-68864187D01*
X116584698Y-68807189D01*
X116119151Y-68496120D01*
X115570000Y-68386887D01*
X115020849Y-68496120D01*
X114555302Y-68807189D01*
X114244233Y-69272736D01*
X114135000Y-69821887D01*
X114135000Y-69878113D01*
X114244233Y-70427264D01*
X114555302Y-70892811D01*
X114891710Y-71117592D01*
X114758200Y-71172757D01*
X114354176Y-71576077D01*
X114135250Y-72103309D01*
X114134752Y-72674187D01*
X105710000Y-72674187D01*
X105710000Y-70821517D01*
X110968088Y-70821517D01*
X111036077Y-71062460D01*
X111555171Y-71247201D01*
X112105448Y-71219230D01*
X112483923Y-71062460D01*
X112551912Y-70821517D01*
X111760000Y-70029605D01*
X110968088Y-70821517D01*
X105710000Y-70821517D01*
X105710000Y-69645171D01*
X110362799Y-69645171D01*
X110390770Y-70195448D01*
X110547540Y-70573923D01*
X110788483Y-70641912D01*
X111580395Y-69850000D01*
X111939605Y-69850000D01*
X112731517Y-70641912D01*
X112972460Y-70573923D01*
X113157201Y-70054829D01*
X113129230Y-69504552D01*
X112972460Y-69126077D01*
X112731517Y-69058088D01*
X111939605Y-69850000D01*
X111580395Y-69850000D01*
X110788483Y-69058088D01*
X110547540Y-69126077D01*
X110362799Y-69645171D01*
X105710000Y-69645171D01*
X105710000Y-68878483D01*
X110968088Y-68878483D01*
X111760000Y-69670395D01*
X112551912Y-68878483D01*
X112483923Y-68637540D01*
X111964829Y-68452799D01*
X111414552Y-68480770D01*
X111036077Y-68637540D01*
X110968088Y-68878483D01*
X105710000Y-68878483D01*
X105710000Y-66324187D01*
X121754752Y-66324187D01*
X121972757Y-66851800D01*
X122376077Y-67255824D01*
X122903309Y-67474750D01*
X123474187Y-67475248D01*
X124001800Y-67257243D01*
X124247954Y-67011517D01*
X157958088Y-67011517D01*
X158026077Y-67252460D01*
X158545171Y-67437201D01*
X159095448Y-67409230D01*
X159473923Y-67252460D01*
X159541912Y-67011517D01*
X158750000Y-66219605D01*
X157958088Y-67011517D01*
X124247954Y-67011517D01*
X124405824Y-66853923D01*
X124624750Y-66326691D01*
X124625248Y-65755813D01*
X124407243Y-65228200D01*
X124233534Y-65054187D01*
X125564752Y-65054187D01*
X125782757Y-65581800D01*
X126186077Y-65985824D01*
X126713309Y-66204750D01*
X127284187Y-66205248D01*
X127811800Y-65987243D01*
X128215824Y-65583923D01*
X128408860Y-65119039D01*
X140848096Y-65119039D01*
X141008959Y-65507423D01*
X141384866Y-65922389D01*
X141890959Y-66161914D01*
X142113000Y-66040629D01*
X142113000Y-64897000D01*
X142367000Y-64897000D01*
X142367000Y-66040629D01*
X142589041Y-66161914D01*
X143095134Y-65922389D01*
X143174142Y-65835171D01*
X157352799Y-65835171D01*
X157380770Y-66385448D01*
X157537540Y-66763923D01*
X157778483Y-66831912D01*
X158570395Y-66040000D01*
X158929605Y-66040000D01*
X159721517Y-66831912D01*
X159962460Y-66763923D01*
X160147201Y-66244829D01*
X160119230Y-65694552D01*
X159962460Y-65316077D01*
X159721517Y-65248088D01*
X158929605Y-66040000D01*
X158570395Y-66040000D01*
X157778483Y-65248088D01*
X157537540Y-65316077D01*
X157352799Y-65835171D01*
X143174142Y-65835171D01*
X143471041Y-65507423D01*
X143631904Y-65119039D01*
X143604129Y-65068483D01*
X157958088Y-65068483D01*
X158750000Y-65860395D01*
X159541912Y-65068483D01*
X159473923Y-64827540D01*
X158954829Y-64642799D01*
X158404552Y-64670770D01*
X158026077Y-64827540D01*
X157958088Y-65068483D01*
X143604129Y-65068483D01*
X143509915Y-64897000D01*
X142367000Y-64897000D01*
X142113000Y-64897000D01*
X140970085Y-64897000D01*
X140848096Y-65119039D01*
X128408860Y-65119039D01*
X128434750Y-65056691D01*
X128435248Y-64485813D01*
X128408452Y-64420961D01*
X140848096Y-64420961D01*
X140970085Y-64643000D01*
X142113000Y-64643000D01*
X142113000Y-63499371D01*
X142367000Y-63499371D01*
X142367000Y-64643000D01*
X143509915Y-64643000D01*
X143631904Y-64420961D01*
X143471041Y-64032577D01*
X143095134Y-63617611D01*
X142589041Y-63378086D01*
X142367000Y-63499371D01*
X142113000Y-63499371D01*
X141890959Y-63378086D01*
X141384866Y-63617611D01*
X141008959Y-64032577D01*
X140848096Y-64420961D01*
X128408452Y-64420961D01*
X128217243Y-63958200D01*
X127813923Y-63554176D01*
X127286691Y-63335250D01*
X126715813Y-63334752D01*
X126188200Y-63552757D01*
X125784176Y-63956077D01*
X125565250Y-64483309D01*
X125564752Y-65054187D01*
X124233534Y-65054187D01*
X124003923Y-64824176D01*
X123476691Y-64605250D01*
X122905813Y-64604752D01*
X122378200Y-64822757D01*
X121974176Y-65226077D01*
X121755250Y-65753309D01*
X121754752Y-66324187D01*
X105710000Y-66324187D01*
X105710000Y-65054187D01*
X110324752Y-65054187D01*
X110542757Y-65581800D01*
X110946077Y-65985824D01*
X111473309Y-66204750D01*
X112044187Y-66205248D01*
X112571800Y-65987243D01*
X112975824Y-65583923D01*
X113194750Y-65056691D01*
X113195248Y-64485813D01*
X112977243Y-63958200D01*
X112573923Y-63554176D01*
X112046691Y-63335250D01*
X111475813Y-63334752D01*
X110948200Y-63552757D01*
X110544176Y-63956077D01*
X110325250Y-64483309D01*
X110324752Y-65054187D01*
X105710000Y-65054187D01*
X105710000Y-62504285D01*
X121804760Y-62504285D01*
X122015169Y-63013515D01*
X122404436Y-63403461D01*
X122913298Y-63614759D01*
X123464285Y-63615240D01*
X123973515Y-63404831D01*
X124363461Y-63015564D01*
X124574759Y-62506702D01*
X124575240Y-61955715D01*
X124364831Y-61446485D01*
X124162886Y-61244187D01*
X125564752Y-61244187D01*
X125782757Y-61771800D01*
X126186077Y-62175824D01*
X126713309Y-62394750D01*
X127284187Y-62395248D01*
X127811800Y-62177243D01*
X128215824Y-61773923D01*
X128408860Y-61309039D01*
X140848096Y-61309039D01*
X141008959Y-61697423D01*
X141384866Y-62112389D01*
X141890959Y-62351914D01*
X142113000Y-62230629D01*
X142113000Y-61087000D01*
X142367000Y-61087000D01*
X142367000Y-62230629D01*
X142589041Y-62351914D01*
X143095134Y-62112389D01*
X143471041Y-61697423D01*
X143631904Y-61309039D01*
X143509915Y-61087000D01*
X142367000Y-61087000D01*
X142113000Y-61087000D01*
X140970085Y-61087000D01*
X140848096Y-61309039D01*
X128408860Y-61309039D01*
X128434750Y-61246691D01*
X128435248Y-60675813D01*
X128408452Y-60610961D01*
X140848096Y-60610961D01*
X140970085Y-60833000D01*
X142113000Y-60833000D01*
X142113000Y-59689371D01*
X142367000Y-59689371D01*
X142367000Y-60833000D01*
X143509915Y-60833000D01*
X143631904Y-60610961D01*
X143471041Y-60222577D01*
X143095134Y-59807611D01*
X142589041Y-59568086D01*
X142367000Y-59689371D01*
X142113000Y-59689371D01*
X141890959Y-59568086D01*
X141384866Y-59807611D01*
X141008959Y-60222577D01*
X140848096Y-60610961D01*
X128408452Y-60610961D01*
X128217243Y-60148200D01*
X127813923Y-59744176D01*
X127286691Y-59525250D01*
X126715813Y-59524752D01*
X126188200Y-59742757D01*
X125784176Y-60146077D01*
X125565250Y-60673309D01*
X125564752Y-61244187D01*
X124162886Y-61244187D01*
X123975564Y-61056539D01*
X123466702Y-60845241D01*
X122915715Y-60844760D01*
X122406485Y-61055169D01*
X122016539Y-61444436D01*
X121805241Y-61953298D01*
X121804760Y-62504285D01*
X105710000Y-62504285D01*
X105710000Y-56875022D01*
X108304584Y-56875022D01*
X108525353Y-57245743D01*
X109497012Y-57639119D01*
X110545247Y-57630713D01*
X111019702Y-57434187D01*
X121754752Y-57434187D01*
X121972757Y-57961800D01*
X122376077Y-58365824D01*
X122903309Y-58584750D01*
X123474187Y-58585248D01*
X124001800Y-58367243D01*
X124405824Y-57963923D01*
X124624750Y-57436691D01*
X124624752Y-57434187D01*
X125564752Y-57434187D01*
X125782757Y-57961800D01*
X126186077Y-58365824D01*
X126713309Y-58584750D01*
X127284187Y-58585248D01*
X127811800Y-58367243D01*
X128215824Y-57963923D01*
X128408860Y-57499039D01*
X140848096Y-57499039D01*
X141008959Y-57887423D01*
X141384866Y-58302389D01*
X141890959Y-58541914D01*
X142113000Y-58420629D01*
X142113000Y-57277000D01*
X142367000Y-57277000D01*
X142367000Y-58420629D01*
X142589041Y-58541914D01*
X143095134Y-58302389D01*
X143471041Y-57887423D01*
X143631904Y-57499039D01*
X143509915Y-57277000D01*
X142367000Y-57277000D01*
X142113000Y-57277000D01*
X140970085Y-57277000D01*
X140848096Y-57499039D01*
X128408860Y-57499039D01*
X128434750Y-57436691D01*
X128435248Y-56865813D01*
X128408452Y-56800961D01*
X140848096Y-56800961D01*
X140970085Y-57023000D01*
X142113000Y-57023000D01*
X142113000Y-55879371D01*
X142367000Y-55879371D01*
X142367000Y-57023000D01*
X143509915Y-57023000D01*
X143631904Y-56800961D01*
X143471041Y-56412577D01*
X143095134Y-55997611D01*
X142787234Y-55851887D01*
X144615000Y-55851887D01*
X144615000Y-55908113D01*
X144724233Y-56457264D01*
X145035302Y-56922811D01*
X145500849Y-57233880D01*
X146050000Y-57343113D01*
X146599151Y-57233880D01*
X147064698Y-56922811D01*
X147375767Y-56457264D01*
X147485000Y-55908113D01*
X147485000Y-55851887D01*
X148425000Y-55851887D01*
X148425000Y-55908113D01*
X148534233Y-56457264D01*
X148845302Y-56922811D01*
X149310849Y-57233880D01*
X149860000Y-57343113D01*
X150409151Y-57233880D01*
X150874698Y-56922811D01*
X151185767Y-56457264D01*
X151244063Y-56164187D01*
X152234752Y-56164187D01*
X152452757Y-56691800D01*
X152856077Y-57095824D01*
X153383309Y-57314750D01*
X153954187Y-57315248D01*
X154481800Y-57097243D01*
X154704408Y-56875022D01*
X158304584Y-56875022D01*
X158525353Y-57245743D01*
X159497012Y-57639119D01*
X160545247Y-57630713D01*
X161474647Y-57245743D01*
X161695416Y-56875022D01*
X160000000Y-55179605D01*
X158304584Y-56875022D01*
X154704408Y-56875022D01*
X154885824Y-56693923D01*
X155104750Y-56166691D01*
X155105248Y-55595813D01*
X154887243Y-55068200D01*
X154483923Y-54664176D01*
X154081348Y-54497012D01*
X157360881Y-54497012D01*
X157369287Y-55545247D01*
X157754257Y-56474647D01*
X158124978Y-56695416D01*
X159820395Y-55000000D01*
X160179605Y-55000000D01*
X161875022Y-56695416D01*
X162245743Y-56474647D01*
X162639119Y-55502988D01*
X162630713Y-54454753D01*
X162245743Y-53525353D01*
X161875022Y-53304584D01*
X160179605Y-55000000D01*
X159820395Y-55000000D01*
X158124978Y-53304584D01*
X157754257Y-53525353D01*
X157360881Y-54497012D01*
X154081348Y-54497012D01*
X153956691Y-54445250D01*
X153385813Y-54444752D01*
X152858200Y-54662757D01*
X152454176Y-55066077D01*
X152235250Y-55593309D01*
X152234752Y-56164187D01*
X151244063Y-56164187D01*
X151295000Y-55908113D01*
X151295000Y-55851887D01*
X151185767Y-55302736D01*
X150874698Y-54837189D01*
X150409151Y-54526120D01*
X149860000Y-54416887D01*
X149310849Y-54526120D01*
X148845302Y-54837189D01*
X148534233Y-55302736D01*
X148425000Y-55851887D01*
X147485000Y-55851887D01*
X147375767Y-55302736D01*
X147064698Y-54837189D01*
X146599151Y-54526120D01*
X146050000Y-54416887D01*
X145500849Y-54526120D01*
X145035302Y-54837189D01*
X144724233Y-55302736D01*
X144615000Y-55851887D01*
X142787234Y-55851887D01*
X142589041Y-55758086D01*
X142367000Y-55879371D01*
X142113000Y-55879371D01*
X141890959Y-55758086D01*
X141384866Y-55997611D01*
X141008959Y-56412577D01*
X140848096Y-56800961D01*
X128408452Y-56800961D01*
X128217243Y-56338200D01*
X127813923Y-55934176D01*
X127286691Y-55715250D01*
X126715813Y-55714752D01*
X126188200Y-55932757D01*
X125784176Y-56336077D01*
X125565250Y-56863309D01*
X125564752Y-57434187D01*
X124624752Y-57434187D01*
X124625248Y-56865813D01*
X124407243Y-56338200D01*
X124003923Y-55934176D01*
X123476691Y-55715250D01*
X122905813Y-55714752D01*
X122378200Y-55932757D01*
X121974176Y-56336077D01*
X121755250Y-56863309D01*
X121754752Y-57434187D01*
X111019702Y-57434187D01*
X111474647Y-57245743D01*
X111695416Y-56875022D01*
X110000000Y-55179605D01*
X108304584Y-56875022D01*
X105710000Y-56875022D01*
X105710000Y-54497012D01*
X107360881Y-54497012D01*
X107369287Y-55545247D01*
X107754257Y-56474647D01*
X108124978Y-56695416D01*
X109820395Y-55000000D01*
X110179605Y-55000000D01*
X111875022Y-56695416D01*
X112245743Y-56474647D01*
X112639119Y-55502988D01*
X112634237Y-54894187D01*
X114134752Y-54894187D01*
X114352757Y-55421800D01*
X114756077Y-55825824D01*
X115283309Y-56044750D01*
X115854187Y-56045248D01*
X116381800Y-55827243D01*
X116785824Y-55423923D01*
X117004750Y-54896691D01*
X117005248Y-54325813D01*
X116787243Y-53798200D01*
X116383923Y-53394176D01*
X115856691Y-53175250D01*
X115285813Y-53174752D01*
X114758200Y-53392757D01*
X114354176Y-53796077D01*
X114135250Y-54323309D01*
X114134752Y-54894187D01*
X112634237Y-54894187D01*
X112630713Y-54454753D01*
X112245743Y-53525353D01*
X111875022Y-53304584D01*
X110179605Y-55000000D01*
X109820395Y-55000000D01*
X108124978Y-53304584D01*
X107754257Y-53525353D01*
X107360881Y-54497012D01*
X105710000Y-54497012D01*
X105710000Y-53124978D01*
X108304584Y-53124978D01*
X110000000Y-54820395D01*
X111695416Y-53124978D01*
X111474647Y-52754257D01*
X110698417Y-52440000D01*
X131802560Y-52440000D01*
X131802560Y-54240000D01*
X131846838Y-54475317D01*
X131985910Y-54691441D01*
X132198110Y-54836431D01*
X132450000Y-54887440D01*
X134250000Y-54887440D01*
X134485317Y-54843162D01*
X134701441Y-54704090D01*
X134846431Y-54491890D01*
X134850567Y-54471466D01*
X135019357Y-54640551D01*
X135583330Y-54874733D01*
X136193991Y-54875265D01*
X136758371Y-54642068D01*
X136980668Y-54420159D01*
X137529446Y-54420159D01*
X137615852Y-54676643D01*
X138189336Y-54886458D01*
X138799460Y-54860839D01*
X139244148Y-54676643D01*
X139330554Y-54420159D01*
X138430000Y-53519605D01*
X137529446Y-54420159D01*
X136980668Y-54420159D01*
X137190551Y-54210643D01*
X137199203Y-54189806D01*
X137349841Y-54240554D01*
X138250395Y-53340000D01*
X138609605Y-53340000D01*
X139510159Y-54240554D01*
X139766643Y-54154148D01*
X139976458Y-53580664D01*
X139957324Y-53124978D01*
X158304584Y-53124978D01*
X160000000Y-54820395D01*
X161695416Y-53124978D01*
X161474647Y-52754257D01*
X160502988Y-52360881D01*
X159454753Y-52369287D01*
X158525353Y-52754257D01*
X158304584Y-53124978D01*
X139957324Y-53124978D01*
X139950839Y-52970540D01*
X139766643Y-52525852D01*
X139510159Y-52439446D01*
X138609605Y-53340000D01*
X138250395Y-53340000D01*
X137349841Y-52439446D01*
X137199673Y-52490035D01*
X137192068Y-52471629D01*
X136980650Y-52259841D01*
X137529446Y-52259841D01*
X138430000Y-53160395D01*
X139330554Y-52259841D01*
X139244148Y-52003357D01*
X138670664Y-51793542D01*
X138060540Y-51819161D01*
X137615852Y-52003357D01*
X137529446Y-52259841D01*
X136980650Y-52259841D01*
X136760643Y-52039449D01*
X136196670Y-51805267D01*
X135586009Y-51804735D01*
X135021629Y-52037932D01*
X134853387Y-52205880D01*
X134853162Y-52204683D01*
X134714090Y-51988559D01*
X134501890Y-51843569D01*
X134250000Y-51792560D01*
X132450000Y-51792560D01*
X132214683Y-51836838D01*
X131998559Y-51975910D01*
X131853569Y-52188110D01*
X131802560Y-52440000D01*
X110698417Y-52440000D01*
X110502988Y-52360881D01*
X109454753Y-52369287D01*
X108525353Y-52754257D01*
X108304584Y-53124978D01*
X105710000Y-53124978D01*
X105710000Y-50710000D01*
X164290000Y-50710000D01*
X164290000Y-99290000D01*
M02*
