M48
;DRILL file {KiCad 4.0.7} date 06/12/18 10:06:50
;FORMAT={-:-/ absolute / inch / decimal}
FMAT,2
INCH,TZ
T1C0.031
T2C0.059
%
G90
G05
M72
T1
X4.3Y-3.1
X4.3Y-3.2
X4.4Y-2.55
X4.4Y-2.75
X4.55Y-2.15
X4.55Y-2.75
X4.55Y-2.85
X4.55Y-3.45
X4.7Y-3.2
X4.7Y-3.7
X4.85Y-2.25
X4.85Y-2.45
X4.85Y-2.6
X4.85Y-2.8
X4.85Y-3.
X4.85Y-3.2
X5.Y-2.25
X5.Y-2.4
X5.Y-2.55
X5.Y-2.7
X5.Y-3.2
X5.Y-3.35
X5.Y-3.5
X5.Y-3.65
X5.05Y-2.95
X5.1Y-2.9
X5.1Y-3.
X5.25Y-2.1
X5.35Y-2.1
X5.45Y-2.1
X5.45Y-2.9
X5.45Y-3.
X5.5Y-2.95
X5.6Y-2.25
X5.6Y-2.4
X5.6Y-2.55
X5.6Y-2.7
X5.6Y-3.2
X5.6Y-3.35
X5.6Y-3.5
X5.6Y-3.65
X5.75Y-2.2
X5.75Y-2.7
X5.75Y-2.85
X5.75Y-3.05
X5.75Y-3.2
X5.75Y-3.4
X5.75Y-3.55
X5.75Y-3.75
X5.9Y-2.2
X5.9Y-2.8
X6.05Y-2.2
X6.05Y-2.8
X6.25Y-2.6
X6.25Y-2.8
X6.35Y-3.1
X6.35Y-3.2
T2
X4.3307Y-2.1654
X4.3307Y-3.7402
X6.2992Y-2.1654
X6.2992Y-3.7402
T0
M30
